%TF.GenerationSoftware,KiCad,Pcbnew,7.0.7*%
%TF.CreationDate,2023-11-13T10:05:20-05:00*%
%TF.ProjectId,Capstone-board-v1,43617073-746f-46e6-952d-626f6172642d,rev?*%
%TF.SameCoordinates,Original*%
%TF.FileFunction,Legend,Top*%
%TF.FilePolarity,Positive*%
%FSLAX46Y46*%
G04 Gerber Fmt 4.6, Leading zero omitted, Abs format (unit mm)*
G04 Created by KiCad (PCBNEW 7.0.7) date 2023-11-13 10:05:20*
%MOMM*%
%LPD*%
G01*
G04 APERTURE LIST*
%ADD10C,0.125000*%
%ADD11C,0.120000*%
%ADD12C,0.200000*%
%ADD13C,0.127000*%
G04 APERTURE END LIST*
D10*
X42085238Y-23084809D02*
X42085238Y-22584809D01*
X42085238Y-22584809D02*
X42251905Y-22941952D01*
X42251905Y-22941952D02*
X42418571Y-22584809D01*
X42418571Y-22584809D02*
X42418571Y-23084809D01*
X42918572Y-23084809D02*
X42632858Y-23084809D01*
X42775715Y-23084809D02*
X42775715Y-22584809D01*
X42775715Y-22584809D02*
X42728096Y-22656238D01*
X42728096Y-22656238D02*
X42680477Y-22703857D01*
X42680477Y-22703857D02*
X42632858Y-22727666D01*
X34229047Y-23884809D02*
X34229047Y-24289571D01*
X34229047Y-24289571D02*
X34252857Y-24337190D01*
X34252857Y-24337190D02*
X34276666Y-24361000D01*
X34276666Y-24361000D02*
X34324285Y-24384809D01*
X34324285Y-24384809D02*
X34419523Y-24384809D01*
X34419523Y-24384809D02*
X34467142Y-24361000D01*
X34467142Y-24361000D02*
X34490952Y-24337190D01*
X34490952Y-24337190D02*
X34514761Y-24289571D01*
X34514761Y-24289571D02*
X34514761Y-23884809D01*
X34705238Y-23884809D02*
X35014762Y-23884809D01*
X35014762Y-23884809D02*
X34848095Y-24075285D01*
X34848095Y-24075285D02*
X34919524Y-24075285D01*
X34919524Y-24075285D02*
X34967143Y-24099095D01*
X34967143Y-24099095D02*
X34990952Y-24122904D01*
X34990952Y-24122904D02*
X35014762Y-24170523D01*
X35014762Y-24170523D02*
X35014762Y-24289571D01*
X35014762Y-24289571D02*
X34990952Y-24337190D01*
X34990952Y-24337190D02*
X34967143Y-24361000D01*
X34967143Y-24361000D02*
X34919524Y-24384809D01*
X34919524Y-24384809D02*
X34776667Y-24384809D01*
X34776667Y-24384809D02*
X34729048Y-24361000D01*
X34729048Y-24361000D02*
X34705238Y-24337190D01*
X26393338Y-20427190D02*
X26369529Y-20451000D01*
X26369529Y-20451000D02*
X26298100Y-20474809D01*
X26298100Y-20474809D02*
X26250481Y-20474809D01*
X26250481Y-20474809D02*
X26179053Y-20451000D01*
X26179053Y-20451000D02*
X26131434Y-20403380D01*
X26131434Y-20403380D02*
X26107624Y-20355761D01*
X26107624Y-20355761D02*
X26083815Y-20260523D01*
X26083815Y-20260523D02*
X26083815Y-20189095D01*
X26083815Y-20189095D02*
X26107624Y-20093857D01*
X26107624Y-20093857D02*
X26131434Y-20046238D01*
X26131434Y-20046238D02*
X26179053Y-19998619D01*
X26179053Y-19998619D02*
X26250481Y-19974809D01*
X26250481Y-19974809D02*
X26298100Y-19974809D01*
X26298100Y-19974809D02*
X26369529Y-19998619D01*
X26369529Y-19998619D02*
X26393338Y-20022428D01*
X26821910Y-20474809D02*
X26821910Y-20212904D01*
X26821910Y-20212904D02*
X26798100Y-20165285D01*
X26798100Y-20165285D02*
X26750481Y-20141476D01*
X26750481Y-20141476D02*
X26655243Y-20141476D01*
X26655243Y-20141476D02*
X26607624Y-20165285D01*
X26821910Y-20451000D02*
X26774291Y-20474809D01*
X26774291Y-20474809D02*
X26655243Y-20474809D01*
X26655243Y-20474809D02*
X26607624Y-20451000D01*
X26607624Y-20451000D02*
X26583815Y-20403380D01*
X26583815Y-20403380D02*
X26583815Y-20355761D01*
X26583815Y-20355761D02*
X26607624Y-20308142D01*
X26607624Y-20308142D02*
X26655243Y-20284333D01*
X26655243Y-20284333D02*
X26774291Y-20284333D01*
X26774291Y-20284333D02*
X26821910Y-20260523D01*
X27060005Y-20141476D02*
X27060005Y-20641476D01*
X27060005Y-20165285D02*
X27107624Y-20141476D01*
X27107624Y-20141476D02*
X27202862Y-20141476D01*
X27202862Y-20141476D02*
X27250481Y-20165285D01*
X27250481Y-20165285D02*
X27274291Y-20189095D01*
X27274291Y-20189095D02*
X27298100Y-20236714D01*
X27298100Y-20236714D02*
X27298100Y-20379571D01*
X27298100Y-20379571D02*
X27274291Y-20427190D01*
X27274291Y-20427190D02*
X27250481Y-20451000D01*
X27250481Y-20451000D02*
X27202862Y-20474809D01*
X27202862Y-20474809D02*
X27107624Y-20474809D01*
X27107624Y-20474809D02*
X27060005Y-20451000D01*
X27488577Y-20451000D02*
X27536196Y-20474809D01*
X27536196Y-20474809D02*
X27631434Y-20474809D01*
X27631434Y-20474809D02*
X27679053Y-20451000D01*
X27679053Y-20451000D02*
X27702862Y-20403380D01*
X27702862Y-20403380D02*
X27702862Y-20379571D01*
X27702862Y-20379571D02*
X27679053Y-20331952D01*
X27679053Y-20331952D02*
X27631434Y-20308142D01*
X27631434Y-20308142D02*
X27560005Y-20308142D01*
X27560005Y-20308142D02*
X27512386Y-20284333D01*
X27512386Y-20284333D02*
X27488577Y-20236714D01*
X27488577Y-20236714D02*
X27488577Y-20212904D01*
X27488577Y-20212904D02*
X27512386Y-20165285D01*
X27512386Y-20165285D02*
X27560005Y-20141476D01*
X27560005Y-20141476D02*
X27631434Y-20141476D01*
X27631434Y-20141476D02*
X27679053Y-20165285D01*
X27845720Y-20141476D02*
X28036196Y-20141476D01*
X27917148Y-19974809D02*
X27917148Y-20403380D01*
X27917148Y-20403380D02*
X27940958Y-20451000D01*
X27940958Y-20451000D02*
X27988577Y-20474809D01*
X27988577Y-20474809D02*
X28036196Y-20474809D01*
X28274291Y-20474809D02*
X28226672Y-20451000D01*
X28226672Y-20451000D02*
X28202862Y-20427190D01*
X28202862Y-20427190D02*
X28179053Y-20379571D01*
X28179053Y-20379571D02*
X28179053Y-20236714D01*
X28179053Y-20236714D02*
X28202862Y-20189095D01*
X28202862Y-20189095D02*
X28226672Y-20165285D01*
X28226672Y-20165285D02*
X28274291Y-20141476D01*
X28274291Y-20141476D02*
X28345719Y-20141476D01*
X28345719Y-20141476D02*
X28393338Y-20165285D01*
X28393338Y-20165285D02*
X28417148Y-20189095D01*
X28417148Y-20189095D02*
X28440957Y-20236714D01*
X28440957Y-20236714D02*
X28440957Y-20379571D01*
X28440957Y-20379571D02*
X28417148Y-20427190D01*
X28417148Y-20427190D02*
X28393338Y-20451000D01*
X28393338Y-20451000D02*
X28345719Y-20474809D01*
X28345719Y-20474809D02*
X28274291Y-20474809D01*
X28655243Y-20141476D02*
X28655243Y-20474809D01*
X28655243Y-20189095D02*
X28679053Y-20165285D01*
X28679053Y-20165285D02*
X28726672Y-20141476D01*
X28726672Y-20141476D02*
X28798100Y-20141476D01*
X28798100Y-20141476D02*
X28845719Y-20165285D01*
X28845719Y-20165285D02*
X28869529Y-20212904D01*
X28869529Y-20212904D02*
X28869529Y-20474809D01*
X29298100Y-20451000D02*
X29250481Y-20474809D01*
X29250481Y-20474809D02*
X29155243Y-20474809D01*
X29155243Y-20474809D02*
X29107624Y-20451000D01*
X29107624Y-20451000D02*
X29083815Y-20403380D01*
X29083815Y-20403380D02*
X29083815Y-20212904D01*
X29083815Y-20212904D02*
X29107624Y-20165285D01*
X29107624Y-20165285D02*
X29155243Y-20141476D01*
X29155243Y-20141476D02*
X29250481Y-20141476D01*
X29250481Y-20141476D02*
X29298100Y-20165285D01*
X29298100Y-20165285D02*
X29321910Y-20212904D01*
X29321910Y-20212904D02*
X29321910Y-20260523D01*
X29321910Y-20260523D02*
X29083815Y-20308142D01*
X30083814Y-20212904D02*
X29917147Y-20212904D01*
X29917147Y-20474809D02*
X29917147Y-19974809D01*
X29917147Y-19974809D02*
X30155242Y-19974809D01*
X30560004Y-20474809D02*
X30560004Y-20212904D01*
X30560004Y-20212904D02*
X30536194Y-20165285D01*
X30536194Y-20165285D02*
X30488575Y-20141476D01*
X30488575Y-20141476D02*
X30393337Y-20141476D01*
X30393337Y-20141476D02*
X30345718Y-20165285D01*
X30560004Y-20451000D02*
X30512385Y-20474809D01*
X30512385Y-20474809D02*
X30393337Y-20474809D01*
X30393337Y-20474809D02*
X30345718Y-20451000D01*
X30345718Y-20451000D02*
X30321909Y-20403380D01*
X30321909Y-20403380D02*
X30321909Y-20355761D01*
X30321909Y-20355761D02*
X30345718Y-20308142D01*
X30345718Y-20308142D02*
X30393337Y-20284333D01*
X30393337Y-20284333D02*
X30512385Y-20284333D01*
X30512385Y-20284333D02*
X30560004Y-20260523D01*
X30869528Y-20474809D02*
X30821909Y-20451000D01*
X30821909Y-20451000D02*
X30798099Y-20403380D01*
X30798099Y-20403380D02*
X30798099Y-19974809D01*
X31131433Y-20474809D02*
X31083814Y-20451000D01*
X31083814Y-20451000D02*
X31060004Y-20403380D01*
X31060004Y-20403380D02*
X31060004Y-19974809D01*
X31679052Y-20022428D02*
X31702861Y-19998619D01*
X31702861Y-19998619D02*
X31750480Y-19974809D01*
X31750480Y-19974809D02*
X31869528Y-19974809D01*
X31869528Y-19974809D02*
X31917147Y-19998619D01*
X31917147Y-19998619D02*
X31940956Y-20022428D01*
X31940956Y-20022428D02*
X31964766Y-20070047D01*
X31964766Y-20070047D02*
X31964766Y-20117666D01*
X31964766Y-20117666D02*
X31940956Y-20189095D01*
X31940956Y-20189095D02*
X31655242Y-20474809D01*
X31655242Y-20474809D02*
X31964766Y-20474809D01*
X32274289Y-19974809D02*
X32321908Y-19974809D01*
X32321908Y-19974809D02*
X32369527Y-19998619D01*
X32369527Y-19998619D02*
X32393337Y-20022428D01*
X32393337Y-20022428D02*
X32417146Y-20070047D01*
X32417146Y-20070047D02*
X32440956Y-20165285D01*
X32440956Y-20165285D02*
X32440956Y-20284333D01*
X32440956Y-20284333D02*
X32417146Y-20379571D01*
X32417146Y-20379571D02*
X32393337Y-20427190D01*
X32393337Y-20427190D02*
X32369527Y-20451000D01*
X32369527Y-20451000D02*
X32321908Y-20474809D01*
X32321908Y-20474809D02*
X32274289Y-20474809D01*
X32274289Y-20474809D02*
X32226670Y-20451000D01*
X32226670Y-20451000D02*
X32202861Y-20427190D01*
X32202861Y-20427190D02*
X32179051Y-20379571D01*
X32179051Y-20379571D02*
X32155242Y-20284333D01*
X32155242Y-20284333D02*
X32155242Y-20165285D01*
X32155242Y-20165285D02*
X32179051Y-20070047D01*
X32179051Y-20070047D02*
X32202861Y-20022428D01*
X32202861Y-20022428D02*
X32226670Y-19998619D01*
X32226670Y-19998619D02*
X32274289Y-19974809D01*
X32631432Y-20022428D02*
X32655241Y-19998619D01*
X32655241Y-19998619D02*
X32702860Y-19974809D01*
X32702860Y-19974809D02*
X32821908Y-19974809D01*
X32821908Y-19974809D02*
X32869527Y-19998619D01*
X32869527Y-19998619D02*
X32893336Y-20022428D01*
X32893336Y-20022428D02*
X32917146Y-20070047D01*
X32917146Y-20070047D02*
X32917146Y-20117666D01*
X32917146Y-20117666D02*
X32893336Y-20189095D01*
X32893336Y-20189095D02*
X32607622Y-20474809D01*
X32607622Y-20474809D02*
X32917146Y-20474809D01*
X33083812Y-19974809D02*
X33393336Y-19974809D01*
X33393336Y-19974809D02*
X33226669Y-20165285D01*
X33226669Y-20165285D02*
X33298098Y-20165285D01*
X33298098Y-20165285D02*
X33345717Y-20189095D01*
X33345717Y-20189095D02*
X33369526Y-20212904D01*
X33369526Y-20212904D02*
X33393336Y-20260523D01*
X33393336Y-20260523D02*
X33393336Y-20379571D01*
X33393336Y-20379571D02*
X33369526Y-20427190D01*
X33369526Y-20427190D02*
X33345717Y-20451000D01*
X33345717Y-20451000D02*
X33298098Y-20474809D01*
X33298098Y-20474809D02*
X33155241Y-20474809D01*
X33155241Y-20474809D02*
X33107622Y-20451000D01*
X33107622Y-20451000D02*
X33083812Y-20427190D01*
X33607621Y-20427190D02*
X33631431Y-20451000D01*
X33631431Y-20451000D02*
X33607621Y-20474809D01*
X33607621Y-20474809D02*
X33583812Y-20451000D01*
X33583812Y-20451000D02*
X33607621Y-20427190D01*
X33607621Y-20427190D02*
X33607621Y-20474809D01*
X33607621Y-20165285D02*
X33631431Y-20189095D01*
X33631431Y-20189095D02*
X33607621Y-20212904D01*
X33607621Y-20212904D02*
X33583812Y-20189095D01*
X33583812Y-20189095D02*
X33607621Y-20165285D01*
X33607621Y-20165285D02*
X33607621Y-20212904D01*
X34226668Y-20212904D02*
X34393335Y-20212904D01*
X34464763Y-20474809D02*
X34226668Y-20474809D01*
X34226668Y-20474809D02*
X34226668Y-19974809D01*
X34226668Y-19974809D02*
X34464763Y-19974809D01*
X34679049Y-20141476D02*
X34679049Y-20641476D01*
X34679049Y-20165285D02*
X34726668Y-20141476D01*
X34726668Y-20141476D02*
X34821906Y-20141476D01*
X34821906Y-20141476D02*
X34869525Y-20165285D01*
X34869525Y-20165285D02*
X34893335Y-20189095D01*
X34893335Y-20189095D02*
X34917144Y-20236714D01*
X34917144Y-20236714D02*
X34917144Y-20379571D01*
X34917144Y-20379571D02*
X34893335Y-20427190D01*
X34893335Y-20427190D02*
X34869525Y-20451000D01*
X34869525Y-20451000D02*
X34821906Y-20474809D01*
X34821906Y-20474809D02*
X34726668Y-20474809D01*
X34726668Y-20474809D02*
X34679049Y-20451000D01*
X35131430Y-20474809D02*
X35131430Y-20141476D01*
X35131430Y-19974809D02*
X35107621Y-19998619D01*
X35107621Y-19998619D02*
X35131430Y-20022428D01*
X35131430Y-20022428D02*
X35155240Y-19998619D01*
X35155240Y-19998619D02*
X35131430Y-19974809D01*
X35131430Y-19974809D02*
X35131430Y-20022428D01*
X35298097Y-20141476D02*
X35488573Y-20141476D01*
X35369525Y-19974809D02*
X35369525Y-20403380D01*
X35369525Y-20403380D02*
X35393335Y-20451000D01*
X35393335Y-20451000D02*
X35440954Y-20474809D01*
X35440954Y-20474809D02*
X35488573Y-20474809D01*
X35726668Y-20474809D02*
X35679049Y-20451000D01*
X35679049Y-20451000D02*
X35655239Y-20427190D01*
X35655239Y-20427190D02*
X35631430Y-20379571D01*
X35631430Y-20379571D02*
X35631430Y-20236714D01*
X35631430Y-20236714D02*
X35655239Y-20189095D01*
X35655239Y-20189095D02*
X35679049Y-20165285D01*
X35679049Y-20165285D02*
X35726668Y-20141476D01*
X35726668Y-20141476D02*
X35798096Y-20141476D01*
X35798096Y-20141476D02*
X35845715Y-20165285D01*
X35845715Y-20165285D02*
X35869525Y-20189095D01*
X35869525Y-20189095D02*
X35893334Y-20236714D01*
X35893334Y-20236714D02*
X35893334Y-20379571D01*
X35893334Y-20379571D02*
X35869525Y-20427190D01*
X35869525Y-20427190D02*
X35845715Y-20451000D01*
X35845715Y-20451000D02*
X35798096Y-20474809D01*
X35798096Y-20474809D02*
X35726668Y-20474809D01*
X36107620Y-20474809D02*
X36107620Y-20141476D01*
X36107620Y-20189095D02*
X36131430Y-20165285D01*
X36131430Y-20165285D02*
X36179049Y-20141476D01*
X36179049Y-20141476D02*
X36250477Y-20141476D01*
X36250477Y-20141476D02*
X36298096Y-20165285D01*
X36298096Y-20165285D02*
X36321906Y-20212904D01*
X36321906Y-20212904D02*
X36321906Y-20474809D01*
X36321906Y-20212904D02*
X36345715Y-20165285D01*
X36345715Y-20165285D02*
X36393334Y-20141476D01*
X36393334Y-20141476D02*
X36464763Y-20141476D01*
X36464763Y-20141476D02*
X36512382Y-20165285D01*
X36512382Y-20165285D02*
X36536192Y-20212904D01*
X36536192Y-20212904D02*
X36536192Y-20474809D01*
X36964763Y-20451000D02*
X36917144Y-20474809D01*
X36917144Y-20474809D02*
X36821906Y-20474809D01*
X36821906Y-20474809D02*
X36774287Y-20451000D01*
X36774287Y-20451000D02*
X36750478Y-20403380D01*
X36750478Y-20403380D02*
X36750478Y-20212904D01*
X36750478Y-20212904D02*
X36774287Y-20165285D01*
X36774287Y-20165285D02*
X36821906Y-20141476D01*
X36821906Y-20141476D02*
X36917144Y-20141476D01*
X36917144Y-20141476D02*
X36964763Y-20165285D01*
X36964763Y-20165285D02*
X36988573Y-20212904D01*
X36988573Y-20212904D02*
X36988573Y-20260523D01*
X36988573Y-20260523D02*
X36750478Y-20308142D01*
X37702858Y-20641476D02*
X37702858Y-19927190D01*
X38369524Y-19974809D02*
X38655238Y-19974809D01*
X38512381Y-20474809D02*
X38512381Y-19974809D01*
X39012380Y-20451000D02*
X38964761Y-20474809D01*
X38964761Y-20474809D02*
X38869523Y-20474809D01*
X38869523Y-20474809D02*
X38821904Y-20451000D01*
X38821904Y-20451000D02*
X38798095Y-20403380D01*
X38798095Y-20403380D02*
X38798095Y-20212904D01*
X38798095Y-20212904D02*
X38821904Y-20165285D01*
X38821904Y-20165285D02*
X38869523Y-20141476D01*
X38869523Y-20141476D02*
X38964761Y-20141476D01*
X38964761Y-20141476D02*
X39012380Y-20165285D01*
X39012380Y-20165285D02*
X39036190Y-20212904D01*
X39036190Y-20212904D02*
X39036190Y-20260523D01*
X39036190Y-20260523D02*
X38798095Y-20308142D01*
X39464761Y-20474809D02*
X39464761Y-20212904D01*
X39464761Y-20212904D02*
X39440951Y-20165285D01*
X39440951Y-20165285D02*
X39393332Y-20141476D01*
X39393332Y-20141476D02*
X39298094Y-20141476D01*
X39298094Y-20141476D02*
X39250475Y-20165285D01*
X39464761Y-20451000D02*
X39417142Y-20474809D01*
X39417142Y-20474809D02*
X39298094Y-20474809D01*
X39298094Y-20474809D02*
X39250475Y-20451000D01*
X39250475Y-20451000D02*
X39226666Y-20403380D01*
X39226666Y-20403380D02*
X39226666Y-20355761D01*
X39226666Y-20355761D02*
X39250475Y-20308142D01*
X39250475Y-20308142D02*
X39298094Y-20284333D01*
X39298094Y-20284333D02*
X39417142Y-20284333D01*
X39417142Y-20284333D02*
X39464761Y-20260523D01*
X39702856Y-20474809D02*
X39702856Y-20141476D01*
X39702856Y-20189095D02*
X39726666Y-20165285D01*
X39726666Y-20165285D02*
X39774285Y-20141476D01*
X39774285Y-20141476D02*
X39845713Y-20141476D01*
X39845713Y-20141476D02*
X39893332Y-20165285D01*
X39893332Y-20165285D02*
X39917142Y-20212904D01*
X39917142Y-20212904D02*
X39917142Y-20474809D01*
X39917142Y-20212904D02*
X39940951Y-20165285D01*
X39940951Y-20165285D02*
X39988570Y-20141476D01*
X39988570Y-20141476D02*
X40059999Y-20141476D01*
X40059999Y-20141476D02*
X40107618Y-20165285D01*
X40107618Y-20165285D02*
X40131428Y-20212904D01*
X40131428Y-20212904D02*
X40131428Y-20474809D01*
X40750475Y-20474809D02*
X40750475Y-19974809D01*
X40750475Y-19974809D02*
X40917142Y-20331952D01*
X40917142Y-20331952D02*
X41083808Y-19974809D01*
X41083808Y-19974809D02*
X41083808Y-20474809D01*
X41512380Y-20451000D02*
X41464761Y-20474809D01*
X41464761Y-20474809D02*
X41369523Y-20474809D01*
X41369523Y-20474809D02*
X41321904Y-20451000D01*
X41321904Y-20451000D02*
X41298095Y-20403380D01*
X41298095Y-20403380D02*
X41298095Y-20212904D01*
X41298095Y-20212904D02*
X41321904Y-20165285D01*
X41321904Y-20165285D02*
X41369523Y-20141476D01*
X41369523Y-20141476D02*
X41464761Y-20141476D01*
X41464761Y-20141476D02*
X41512380Y-20165285D01*
X41512380Y-20165285D02*
X41536190Y-20212904D01*
X41536190Y-20212904D02*
X41536190Y-20260523D01*
X41536190Y-20260523D02*
X41298095Y-20308142D01*
X41750475Y-20474809D02*
X41750475Y-20141476D01*
X41750475Y-20189095D02*
X41774285Y-20165285D01*
X41774285Y-20165285D02*
X41821904Y-20141476D01*
X41821904Y-20141476D02*
X41893332Y-20141476D01*
X41893332Y-20141476D02*
X41940951Y-20165285D01*
X41940951Y-20165285D02*
X41964761Y-20212904D01*
X41964761Y-20212904D02*
X41964761Y-20474809D01*
X41964761Y-20212904D02*
X41988570Y-20165285D01*
X41988570Y-20165285D02*
X42036189Y-20141476D01*
X42036189Y-20141476D02*
X42107618Y-20141476D01*
X42107618Y-20141476D02*
X42155237Y-20165285D01*
X42155237Y-20165285D02*
X42179047Y-20212904D01*
X42179047Y-20212904D02*
X42179047Y-20474809D01*
X42417142Y-20474809D02*
X42417142Y-19974809D01*
X42417142Y-20165285D02*
X42464761Y-20141476D01*
X42464761Y-20141476D02*
X42559999Y-20141476D01*
X42559999Y-20141476D02*
X42607618Y-20165285D01*
X42607618Y-20165285D02*
X42631428Y-20189095D01*
X42631428Y-20189095D02*
X42655237Y-20236714D01*
X42655237Y-20236714D02*
X42655237Y-20379571D01*
X42655237Y-20379571D02*
X42631428Y-20427190D01*
X42631428Y-20427190D02*
X42607618Y-20451000D01*
X42607618Y-20451000D02*
X42559999Y-20474809D01*
X42559999Y-20474809D02*
X42464761Y-20474809D01*
X42464761Y-20474809D02*
X42417142Y-20451000D01*
X43059999Y-20451000D02*
X43012380Y-20474809D01*
X43012380Y-20474809D02*
X42917142Y-20474809D01*
X42917142Y-20474809D02*
X42869523Y-20451000D01*
X42869523Y-20451000D02*
X42845714Y-20403380D01*
X42845714Y-20403380D02*
X42845714Y-20212904D01*
X42845714Y-20212904D02*
X42869523Y-20165285D01*
X42869523Y-20165285D02*
X42917142Y-20141476D01*
X42917142Y-20141476D02*
X43012380Y-20141476D01*
X43012380Y-20141476D02*
X43059999Y-20165285D01*
X43059999Y-20165285D02*
X43083809Y-20212904D01*
X43083809Y-20212904D02*
X43083809Y-20260523D01*
X43083809Y-20260523D02*
X42845714Y-20308142D01*
X43298094Y-20474809D02*
X43298094Y-20141476D01*
X43298094Y-20236714D02*
X43321904Y-20189095D01*
X43321904Y-20189095D02*
X43345713Y-20165285D01*
X43345713Y-20165285D02*
X43393332Y-20141476D01*
X43393332Y-20141476D02*
X43440951Y-20141476D01*
X43583809Y-20451000D02*
X43631428Y-20474809D01*
X43631428Y-20474809D02*
X43726666Y-20474809D01*
X43726666Y-20474809D02*
X43774285Y-20451000D01*
X43774285Y-20451000D02*
X43798094Y-20403380D01*
X43798094Y-20403380D02*
X43798094Y-20379571D01*
X43798094Y-20379571D02*
X43774285Y-20331952D01*
X43774285Y-20331952D02*
X43726666Y-20308142D01*
X43726666Y-20308142D02*
X43655237Y-20308142D01*
X43655237Y-20308142D02*
X43607618Y-20284333D01*
X43607618Y-20284333D02*
X43583809Y-20236714D01*
X43583809Y-20236714D02*
X43583809Y-20212904D01*
X43583809Y-20212904D02*
X43607618Y-20165285D01*
X43607618Y-20165285D02*
X43655237Y-20141476D01*
X43655237Y-20141476D02*
X43726666Y-20141476D01*
X43726666Y-20141476D02*
X43774285Y-20165285D01*
X44012380Y-20427190D02*
X44036190Y-20451000D01*
X44036190Y-20451000D02*
X44012380Y-20474809D01*
X44012380Y-20474809D02*
X43988571Y-20451000D01*
X43988571Y-20451000D02*
X44012380Y-20427190D01*
X44012380Y-20427190D02*
X44012380Y-20474809D01*
X44012380Y-20165285D02*
X44036190Y-20189095D01*
X44036190Y-20189095D02*
X44012380Y-20212904D01*
X44012380Y-20212904D02*
X43988571Y-20189095D01*
X43988571Y-20189095D02*
X44012380Y-20165285D01*
X44012380Y-20165285D02*
X44012380Y-20212904D01*
X44917141Y-20474809D02*
X44750475Y-20236714D01*
X44631427Y-20474809D02*
X44631427Y-19974809D01*
X44631427Y-19974809D02*
X44821903Y-19974809D01*
X44821903Y-19974809D02*
X44869522Y-19998619D01*
X44869522Y-19998619D02*
X44893332Y-20022428D01*
X44893332Y-20022428D02*
X44917141Y-20070047D01*
X44917141Y-20070047D02*
X44917141Y-20141476D01*
X44917141Y-20141476D02*
X44893332Y-20189095D01*
X44893332Y-20189095D02*
X44869522Y-20212904D01*
X44869522Y-20212904D02*
X44821903Y-20236714D01*
X44821903Y-20236714D02*
X44631427Y-20236714D01*
X45345713Y-20141476D02*
X45345713Y-20474809D01*
X45131427Y-20141476D02*
X45131427Y-20403380D01*
X45131427Y-20403380D02*
X45155237Y-20451000D01*
X45155237Y-20451000D02*
X45202856Y-20474809D01*
X45202856Y-20474809D02*
X45274284Y-20474809D01*
X45274284Y-20474809D02*
X45321903Y-20451000D01*
X45321903Y-20451000D02*
X45345713Y-20427190D01*
X45583808Y-20474809D02*
X45583808Y-19974809D01*
X45798094Y-20474809D02*
X45798094Y-20212904D01*
X45798094Y-20212904D02*
X45774284Y-20165285D01*
X45774284Y-20165285D02*
X45726665Y-20141476D01*
X45726665Y-20141476D02*
X45655237Y-20141476D01*
X45655237Y-20141476D02*
X45607618Y-20165285D01*
X45607618Y-20165285D02*
X45583808Y-20189095D01*
X46250475Y-20141476D02*
X46250475Y-20474809D01*
X46036189Y-20141476D02*
X46036189Y-20403380D01*
X46036189Y-20403380D02*
X46059999Y-20451000D01*
X46059999Y-20451000D02*
X46107618Y-20474809D01*
X46107618Y-20474809D02*
X46179046Y-20474809D01*
X46179046Y-20474809D02*
X46226665Y-20451000D01*
X46226665Y-20451000D02*
X46250475Y-20427190D01*
X46559999Y-20474809D02*
X46512380Y-20451000D01*
X46512380Y-20451000D02*
X46488570Y-20403380D01*
X46488570Y-20403380D02*
X46488570Y-19974809D01*
X47464760Y-20522428D02*
X47417141Y-20498619D01*
X47417141Y-20498619D02*
X47369522Y-20451000D01*
X47369522Y-20451000D02*
X47298094Y-20379571D01*
X47298094Y-20379571D02*
X47250475Y-20355761D01*
X47250475Y-20355761D02*
X47202856Y-20355761D01*
X47226665Y-20474809D02*
X47179046Y-20451000D01*
X47179046Y-20451000D02*
X47131427Y-20403380D01*
X47131427Y-20403380D02*
X47107618Y-20308142D01*
X47107618Y-20308142D02*
X47107618Y-20141476D01*
X47107618Y-20141476D02*
X47131427Y-20046238D01*
X47131427Y-20046238D02*
X47179046Y-19998619D01*
X47179046Y-19998619D02*
X47226665Y-19974809D01*
X47226665Y-19974809D02*
X47321903Y-19974809D01*
X47321903Y-19974809D02*
X47369522Y-19998619D01*
X47369522Y-19998619D02*
X47417141Y-20046238D01*
X47417141Y-20046238D02*
X47440951Y-20141476D01*
X47440951Y-20141476D02*
X47440951Y-20308142D01*
X47440951Y-20308142D02*
X47417141Y-20403380D01*
X47417141Y-20403380D02*
X47369522Y-20451000D01*
X47369522Y-20451000D02*
X47321903Y-20474809D01*
X47321903Y-20474809D02*
X47226665Y-20474809D01*
X47869523Y-20141476D02*
X47869523Y-20474809D01*
X47655237Y-20141476D02*
X47655237Y-20403380D01*
X47655237Y-20403380D02*
X47679047Y-20451000D01*
X47679047Y-20451000D02*
X47726666Y-20474809D01*
X47726666Y-20474809D02*
X47798094Y-20474809D01*
X47798094Y-20474809D02*
X47845713Y-20451000D01*
X47845713Y-20451000D02*
X47869523Y-20427190D01*
X48321904Y-20474809D02*
X48321904Y-19974809D01*
X48321904Y-20451000D02*
X48274285Y-20474809D01*
X48274285Y-20474809D02*
X48179047Y-20474809D01*
X48179047Y-20474809D02*
X48131428Y-20451000D01*
X48131428Y-20451000D02*
X48107618Y-20427190D01*
X48107618Y-20427190D02*
X48083809Y-20379571D01*
X48083809Y-20379571D02*
X48083809Y-20236714D01*
X48083809Y-20236714D02*
X48107618Y-20189095D01*
X48107618Y-20189095D02*
X48131428Y-20165285D01*
X48131428Y-20165285D02*
X48179047Y-20141476D01*
X48179047Y-20141476D02*
X48274285Y-20141476D01*
X48274285Y-20141476D02*
X48321904Y-20165285D01*
X48774285Y-20474809D02*
X48774285Y-19974809D01*
X48774285Y-20451000D02*
X48726666Y-20474809D01*
X48726666Y-20474809D02*
X48631428Y-20474809D01*
X48631428Y-20474809D02*
X48583809Y-20451000D01*
X48583809Y-20451000D02*
X48559999Y-20427190D01*
X48559999Y-20427190D02*
X48536190Y-20379571D01*
X48536190Y-20379571D02*
X48536190Y-20236714D01*
X48536190Y-20236714D02*
X48559999Y-20189095D01*
X48559999Y-20189095D02*
X48583809Y-20165285D01*
X48583809Y-20165285D02*
X48631428Y-20141476D01*
X48631428Y-20141476D02*
X48726666Y-20141476D01*
X48726666Y-20141476D02*
X48774285Y-20165285D01*
X49226666Y-20141476D02*
X49226666Y-20474809D01*
X49012380Y-20141476D02*
X49012380Y-20403380D01*
X49012380Y-20403380D02*
X49036190Y-20451000D01*
X49036190Y-20451000D02*
X49083809Y-20474809D01*
X49083809Y-20474809D02*
X49155237Y-20474809D01*
X49155237Y-20474809D02*
X49202856Y-20451000D01*
X49202856Y-20451000D02*
X49226666Y-20427190D01*
X49440952Y-20451000D02*
X49488571Y-20474809D01*
X49488571Y-20474809D02*
X49583809Y-20474809D01*
X49583809Y-20474809D02*
X49631428Y-20451000D01*
X49631428Y-20451000D02*
X49655237Y-20403380D01*
X49655237Y-20403380D02*
X49655237Y-20379571D01*
X49655237Y-20379571D02*
X49631428Y-20331952D01*
X49631428Y-20331952D02*
X49583809Y-20308142D01*
X49583809Y-20308142D02*
X49512380Y-20308142D01*
X49512380Y-20308142D02*
X49464761Y-20284333D01*
X49464761Y-20284333D02*
X49440952Y-20236714D01*
X49440952Y-20236714D02*
X49440952Y-20212904D01*
X49440952Y-20212904D02*
X49464761Y-20165285D01*
X49464761Y-20165285D02*
X49512380Y-20141476D01*
X49512380Y-20141476D02*
X49583809Y-20141476D01*
X49583809Y-20141476D02*
X49631428Y-20165285D01*
X49893333Y-20451000D02*
X49893333Y-20474809D01*
X49893333Y-20474809D02*
X49869523Y-20522428D01*
X49869523Y-20522428D02*
X49845714Y-20546238D01*
X50750475Y-19998619D02*
X50702856Y-19974809D01*
X50702856Y-19974809D02*
X50631427Y-19974809D01*
X50631427Y-19974809D02*
X50559999Y-19998619D01*
X50559999Y-19998619D02*
X50512380Y-20046238D01*
X50512380Y-20046238D02*
X50488570Y-20093857D01*
X50488570Y-20093857D02*
X50464761Y-20189095D01*
X50464761Y-20189095D02*
X50464761Y-20260523D01*
X50464761Y-20260523D02*
X50488570Y-20355761D01*
X50488570Y-20355761D02*
X50512380Y-20403380D01*
X50512380Y-20403380D02*
X50559999Y-20451000D01*
X50559999Y-20451000D02*
X50631427Y-20474809D01*
X50631427Y-20474809D02*
X50679046Y-20474809D01*
X50679046Y-20474809D02*
X50750475Y-20451000D01*
X50750475Y-20451000D02*
X50774284Y-20427190D01*
X50774284Y-20427190D02*
X50774284Y-20260523D01*
X50774284Y-20260523D02*
X50679046Y-20260523D01*
X51059999Y-20474809D02*
X51012380Y-20451000D01*
X51012380Y-20451000D02*
X50988570Y-20427190D01*
X50988570Y-20427190D02*
X50964761Y-20379571D01*
X50964761Y-20379571D02*
X50964761Y-20236714D01*
X50964761Y-20236714D02*
X50988570Y-20189095D01*
X50988570Y-20189095D02*
X51012380Y-20165285D01*
X51012380Y-20165285D02*
X51059999Y-20141476D01*
X51059999Y-20141476D02*
X51131427Y-20141476D01*
X51131427Y-20141476D02*
X51179046Y-20165285D01*
X51179046Y-20165285D02*
X51202856Y-20189095D01*
X51202856Y-20189095D02*
X51226665Y-20236714D01*
X51226665Y-20236714D02*
X51226665Y-20379571D01*
X51226665Y-20379571D02*
X51202856Y-20427190D01*
X51202856Y-20427190D02*
X51179046Y-20451000D01*
X51179046Y-20451000D02*
X51131427Y-20474809D01*
X51131427Y-20474809D02*
X51059999Y-20474809D01*
X51655237Y-20141476D02*
X51655237Y-20474809D01*
X51440951Y-20141476D02*
X51440951Y-20403380D01*
X51440951Y-20403380D02*
X51464761Y-20451000D01*
X51464761Y-20451000D02*
X51512380Y-20474809D01*
X51512380Y-20474809D02*
X51583808Y-20474809D01*
X51583808Y-20474809D02*
X51631427Y-20451000D01*
X51631427Y-20451000D02*
X51655237Y-20427190D01*
X51821904Y-20141476D02*
X52012380Y-20141476D01*
X51893332Y-19974809D02*
X51893332Y-20403380D01*
X51893332Y-20403380D02*
X51917142Y-20451000D01*
X51917142Y-20451000D02*
X51964761Y-20474809D01*
X51964761Y-20474809D02*
X52012380Y-20474809D01*
X52179046Y-20474809D02*
X52179046Y-19974809D01*
X52393332Y-20474809D02*
X52393332Y-20212904D01*
X52393332Y-20212904D02*
X52369522Y-20165285D01*
X52369522Y-20165285D02*
X52321903Y-20141476D01*
X52321903Y-20141476D02*
X52250475Y-20141476D01*
X52250475Y-20141476D02*
X52202856Y-20165285D01*
X52202856Y-20165285D02*
X52179046Y-20189095D01*
X52845713Y-20474809D02*
X52845713Y-20212904D01*
X52845713Y-20212904D02*
X52821903Y-20165285D01*
X52821903Y-20165285D02*
X52774284Y-20141476D01*
X52774284Y-20141476D02*
X52679046Y-20141476D01*
X52679046Y-20141476D02*
X52631427Y-20165285D01*
X52845713Y-20451000D02*
X52798094Y-20474809D01*
X52798094Y-20474809D02*
X52679046Y-20474809D01*
X52679046Y-20474809D02*
X52631427Y-20451000D01*
X52631427Y-20451000D02*
X52607618Y-20403380D01*
X52607618Y-20403380D02*
X52607618Y-20355761D01*
X52607618Y-20355761D02*
X52631427Y-20308142D01*
X52631427Y-20308142D02*
X52679046Y-20284333D01*
X52679046Y-20284333D02*
X52798094Y-20284333D01*
X52798094Y-20284333D02*
X52845713Y-20260523D01*
X53083808Y-20474809D02*
X53083808Y-20141476D01*
X53083808Y-20189095D02*
X53107618Y-20165285D01*
X53107618Y-20165285D02*
X53155237Y-20141476D01*
X53155237Y-20141476D02*
X53226665Y-20141476D01*
X53226665Y-20141476D02*
X53274284Y-20165285D01*
X53274284Y-20165285D02*
X53298094Y-20212904D01*
X53298094Y-20212904D02*
X53298094Y-20474809D01*
X53298094Y-20212904D02*
X53321903Y-20165285D01*
X53321903Y-20165285D02*
X53369522Y-20141476D01*
X53369522Y-20141476D02*
X53440951Y-20141476D01*
X53440951Y-20141476D02*
X53488570Y-20165285D01*
X53488570Y-20165285D02*
X53512380Y-20212904D01*
X53512380Y-20212904D02*
X53512380Y-20474809D01*
X54131427Y-20474809D02*
X54131427Y-19974809D01*
X54131427Y-19974809D02*
X54298094Y-20331952D01*
X54298094Y-20331952D02*
X54464760Y-19974809D01*
X54464760Y-19974809D02*
X54464760Y-20474809D01*
X54702856Y-20474809D02*
X54702856Y-20141476D01*
X54702856Y-19974809D02*
X54679047Y-19998619D01*
X54679047Y-19998619D02*
X54702856Y-20022428D01*
X54702856Y-20022428D02*
X54726666Y-19998619D01*
X54726666Y-19998619D02*
X54702856Y-19974809D01*
X54702856Y-19974809D02*
X54702856Y-20022428D01*
X54869523Y-20141476D02*
X55059999Y-20141476D01*
X54940951Y-19974809D02*
X54940951Y-20403380D01*
X54940951Y-20403380D02*
X54964761Y-20451000D01*
X54964761Y-20451000D02*
X55012380Y-20474809D01*
X55012380Y-20474809D02*
X55059999Y-20474809D01*
X55155237Y-20141476D02*
X55345713Y-20141476D01*
X55226665Y-19974809D02*
X55226665Y-20403380D01*
X55226665Y-20403380D02*
X55250475Y-20451000D01*
X55250475Y-20451000D02*
X55298094Y-20474809D01*
X55298094Y-20474809D02*
X55345713Y-20474809D01*
X55726665Y-20474809D02*
X55726665Y-20212904D01*
X55726665Y-20212904D02*
X55702855Y-20165285D01*
X55702855Y-20165285D02*
X55655236Y-20141476D01*
X55655236Y-20141476D02*
X55559998Y-20141476D01*
X55559998Y-20141476D02*
X55512379Y-20165285D01*
X55726665Y-20451000D02*
X55679046Y-20474809D01*
X55679046Y-20474809D02*
X55559998Y-20474809D01*
X55559998Y-20474809D02*
X55512379Y-20451000D01*
X55512379Y-20451000D02*
X55488570Y-20403380D01*
X55488570Y-20403380D02*
X55488570Y-20355761D01*
X55488570Y-20355761D02*
X55512379Y-20308142D01*
X55512379Y-20308142D02*
X55559998Y-20284333D01*
X55559998Y-20284333D02*
X55679046Y-20284333D01*
X55679046Y-20284333D02*
X55726665Y-20260523D01*
X56179046Y-20474809D02*
X56179046Y-19974809D01*
X56179046Y-20451000D02*
X56131427Y-20474809D01*
X56131427Y-20474809D02*
X56036189Y-20474809D01*
X56036189Y-20474809D02*
X55988570Y-20451000D01*
X55988570Y-20451000D02*
X55964760Y-20427190D01*
X55964760Y-20427190D02*
X55940951Y-20379571D01*
X55940951Y-20379571D02*
X55940951Y-20236714D01*
X55940951Y-20236714D02*
X55964760Y-20189095D01*
X55964760Y-20189095D02*
X55988570Y-20165285D01*
X55988570Y-20165285D02*
X56036189Y-20141476D01*
X56036189Y-20141476D02*
X56131427Y-20141476D01*
X56131427Y-20141476D02*
X56179046Y-20165285D01*
X56417141Y-20474809D02*
X56417141Y-19974809D01*
X56631427Y-20474809D02*
X56631427Y-20212904D01*
X56631427Y-20212904D02*
X56607617Y-20165285D01*
X56607617Y-20165285D02*
X56559998Y-20141476D01*
X56559998Y-20141476D02*
X56488570Y-20141476D01*
X56488570Y-20141476D02*
X56440951Y-20165285D01*
X56440951Y-20165285D02*
X56417141Y-20189095D01*
X56940951Y-20474809D02*
X56893332Y-20451000D01*
X56893332Y-20451000D02*
X56869522Y-20427190D01*
X56869522Y-20427190D02*
X56845713Y-20379571D01*
X56845713Y-20379571D02*
X56845713Y-20236714D01*
X56845713Y-20236714D02*
X56869522Y-20189095D01*
X56869522Y-20189095D02*
X56893332Y-20165285D01*
X56893332Y-20165285D02*
X56940951Y-20141476D01*
X56940951Y-20141476D02*
X57012379Y-20141476D01*
X57012379Y-20141476D02*
X57059998Y-20165285D01*
X57059998Y-20165285D02*
X57083808Y-20189095D01*
X57083808Y-20189095D02*
X57107617Y-20236714D01*
X57107617Y-20236714D02*
X57107617Y-20379571D01*
X57107617Y-20379571D02*
X57083808Y-20427190D01*
X57083808Y-20427190D02*
X57059998Y-20451000D01*
X57059998Y-20451000D02*
X57012379Y-20474809D01*
X57012379Y-20474809D02*
X56940951Y-20474809D01*
X57536189Y-20474809D02*
X57536189Y-19974809D01*
X57536189Y-20451000D02*
X57488570Y-20474809D01*
X57488570Y-20474809D02*
X57393332Y-20474809D01*
X57393332Y-20474809D02*
X57345713Y-20451000D01*
X57345713Y-20451000D02*
X57321903Y-20427190D01*
X57321903Y-20427190D02*
X57298094Y-20379571D01*
X57298094Y-20379571D02*
X57298094Y-20236714D01*
X57298094Y-20236714D02*
X57321903Y-20189095D01*
X57321903Y-20189095D02*
X57345713Y-20165285D01*
X57345713Y-20165285D02*
X57393332Y-20141476D01*
X57393332Y-20141476D02*
X57488570Y-20141476D01*
X57488570Y-20141476D02*
X57536189Y-20165285D01*
X57988570Y-20474809D02*
X57988570Y-19974809D01*
X57988570Y-20451000D02*
X57940951Y-20474809D01*
X57940951Y-20474809D02*
X57845713Y-20474809D01*
X57845713Y-20474809D02*
X57798094Y-20451000D01*
X57798094Y-20451000D02*
X57774284Y-20427190D01*
X57774284Y-20427190D02*
X57750475Y-20379571D01*
X57750475Y-20379571D02*
X57750475Y-20236714D01*
X57750475Y-20236714D02*
X57774284Y-20189095D01*
X57774284Y-20189095D02*
X57798094Y-20165285D01*
X57798094Y-20165285D02*
X57845713Y-20141476D01*
X57845713Y-20141476D02*
X57940951Y-20141476D01*
X57940951Y-20141476D02*
X57988570Y-20165285D01*
X58226665Y-20474809D02*
X58226665Y-20141476D01*
X58226665Y-19974809D02*
X58202856Y-19998619D01*
X58202856Y-19998619D02*
X58226665Y-20022428D01*
X58226665Y-20022428D02*
X58250475Y-19998619D01*
X58250475Y-19998619D02*
X58226665Y-19974809D01*
X58226665Y-19974809D02*
X58226665Y-20022428D01*
X58488570Y-20451000D02*
X58488570Y-20474809D01*
X58488570Y-20474809D02*
X58464760Y-20522428D01*
X58464760Y-20522428D02*
X58440951Y-20546238D01*
X59083807Y-20474809D02*
X59083807Y-19974809D01*
X59083807Y-19974809D02*
X59369521Y-20474809D01*
X59369521Y-20474809D02*
X59369521Y-19974809D01*
X59607617Y-20474809D02*
X59607617Y-20141476D01*
X59607617Y-19974809D02*
X59583808Y-19998619D01*
X59583808Y-19998619D02*
X59607617Y-20022428D01*
X59607617Y-20022428D02*
X59631427Y-19998619D01*
X59631427Y-19998619D02*
X59607617Y-19974809D01*
X59607617Y-19974809D02*
X59607617Y-20022428D01*
X59845712Y-20474809D02*
X59845712Y-20141476D01*
X59845712Y-20189095D02*
X59869522Y-20165285D01*
X59869522Y-20165285D02*
X59917141Y-20141476D01*
X59917141Y-20141476D02*
X59988569Y-20141476D01*
X59988569Y-20141476D02*
X60036188Y-20165285D01*
X60036188Y-20165285D02*
X60059998Y-20212904D01*
X60059998Y-20212904D02*
X60059998Y-20474809D01*
X60059998Y-20212904D02*
X60083807Y-20165285D01*
X60083807Y-20165285D02*
X60131426Y-20141476D01*
X60131426Y-20141476D02*
X60202855Y-20141476D01*
X60202855Y-20141476D02*
X60250474Y-20165285D01*
X60250474Y-20165285D02*
X60274284Y-20212904D01*
X60274284Y-20212904D02*
X60274284Y-20474809D01*
X60726665Y-20474809D02*
X60726665Y-20212904D01*
X60726665Y-20212904D02*
X60702855Y-20165285D01*
X60702855Y-20165285D02*
X60655236Y-20141476D01*
X60655236Y-20141476D02*
X60559998Y-20141476D01*
X60559998Y-20141476D02*
X60512379Y-20165285D01*
X60726665Y-20451000D02*
X60679046Y-20474809D01*
X60679046Y-20474809D02*
X60559998Y-20474809D01*
X60559998Y-20474809D02*
X60512379Y-20451000D01*
X60512379Y-20451000D02*
X60488570Y-20403380D01*
X60488570Y-20403380D02*
X60488570Y-20355761D01*
X60488570Y-20355761D02*
X60512379Y-20308142D01*
X60512379Y-20308142D02*
X60559998Y-20284333D01*
X60559998Y-20284333D02*
X60679046Y-20284333D01*
X60679046Y-20284333D02*
X60726665Y-20260523D01*
X61631426Y-20474809D02*
X61464760Y-20236714D01*
X61345712Y-20474809D02*
X61345712Y-19974809D01*
X61345712Y-19974809D02*
X61536188Y-19974809D01*
X61536188Y-19974809D02*
X61583807Y-19998619D01*
X61583807Y-19998619D02*
X61607617Y-20022428D01*
X61607617Y-20022428D02*
X61631426Y-20070047D01*
X61631426Y-20070047D02*
X61631426Y-20141476D01*
X61631426Y-20141476D02*
X61607617Y-20189095D01*
X61607617Y-20189095D02*
X61583807Y-20212904D01*
X61583807Y-20212904D02*
X61536188Y-20236714D01*
X61536188Y-20236714D02*
X61345712Y-20236714D01*
X62059998Y-20474809D02*
X62059998Y-20212904D01*
X62059998Y-20212904D02*
X62036188Y-20165285D01*
X62036188Y-20165285D02*
X61988569Y-20141476D01*
X61988569Y-20141476D02*
X61893331Y-20141476D01*
X61893331Y-20141476D02*
X61845712Y-20165285D01*
X62059998Y-20451000D02*
X62012379Y-20474809D01*
X62012379Y-20474809D02*
X61893331Y-20474809D01*
X61893331Y-20474809D02*
X61845712Y-20451000D01*
X61845712Y-20451000D02*
X61821903Y-20403380D01*
X61821903Y-20403380D02*
X61821903Y-20355761D01*
X61821903Y-20355761D02*
X61845712Y-20308142D01*
X61845712Y-20308142D02*
X61893331Y-20284333D01*
X61893331Y-20284333D02*
X62012379Y-20284333D01*
X62012379Y-20284333D02*
X62059998Y-20260523D01*
X62250474Y-20141476D02*
X62512379Y-20141476D01*
X62512379Y-20141476D02*
X62250474Y-20474809D01*
X62250474Y-20474809D02*
X62512379Y-20474809D01*
X62917141Y-20474809D02*
X62917141Y-20212904D01*
X62917141Y-20212904D02*
X62893331Y-20165285D01*
X62893331Y-20165285D02*
X62845712Y-20141476D01*
X62845712Y-20141476D02*
X62750474Y-20141476D01*
X62750474Y-20141476D02*
X62702855Y-20165285D01*
X62917141Y-20451000D02*
X62869522Y-20474809D01*
X62869522Y-20474809D02*
X62750474Y-20474809D01*
X62750474Y-20474809D02*
X62702855Y-20451000D01*
X62702855Y-20451000D02*
X62679046Y-20403380D01*
X62679046Y-20403380D02*
X62679046Y-20355761D01*
X62679046Y-20355761D02*
X62702855Y-20308142D01*
X62702855Y-20308142D02*
X62750474Y-20284333D01*
X62750474Y-20284333D02*
X62869522Y-20284333D01*
X62869522Y-20284333D02*
X62917141Y-20260523D01*
X63107617Y-20141476D02*
X63226665Y-20474809D01*
X63226665Y-20474809D02*
X63345712Y-20141476D01*
X63536188Y-20474809D02*
X63536188Y-20141476D01*
X63536188Y-19974809D02*
X63512379Y-19998619D01*
X63512379Y-19998619D02*
X63536188Y-20022428D01*
X63536188Y-20022428D02*
X63559998Y-19998619D01*
X63559998Y-19998619D02*
X63536188Y-19974809D01*
X63536188Y-19974809D02*
X63536188Y-20022428D01*
X63798093Y-20451000D02*
X63798093Y-20474809D01*
X63798093Y-20474809D02*
X63774283Y-20522428D01*
X63774283Y-20522428D02*
X63750474Y-20546238D01*
X64393330Y-20474809D02*
X64393330Y-19974809D01*
X64845711Y-20474809D02*
X64845711Y-20212904D01*
X64845711Y-20212904D02*
X64821901Y-20165285D01*
X64821901Y-20165285D02*
X64774282Y-20141476D01*
X64774282Y-20141476D02*
X64679044Y-20141476D01*
X64679044Y-20141476D02*
X64631425Y-20165285D01*
X64845711Y-20451000D02*
X64798092Y-20474809D01*
X64798092Y-20474809D02*
X64679044Y-20474809D01*
X64679044Y-20474809D02*
X64631425Y-20451000D01*
X64631425Y-20451000D02*
X64607616Y-20403380D01*
X64607616Y-20403380D02*
X64607616Y-20355761D01*
X64607616Y-20355761D02*
X64631425Y-20308142D01*
X64631425Y-20308142D02*
X64679044Y-20284333D01*
X64679044Y-20284333D02*
X64798092Y-20284333D01*
X64798092Y-20284333D02*
X64845711Y-20260523D01*
X65083806Y-20141476D02*
X65083806Y-20474809D01*
X65083806Y-20189095D02*
X65107616Y-20165285D01*
X65107616Y-20165285D02*
X65155235Y-20141476D01*
X65155235Y-20141476D02*
X65226663Y-20141476D01*
X65226663Y-20141476D02*
X65274282Y-20165285D01*
X65274282Y-20165285D02*
X65298092Y-20212904D01*
X65298092Y-20212904D02*
X65298092Y-20474809D01*
X66155234Y-20474809D02*
X65917139Y-20474809D01*
X65917139Y-20474809D02*
X65917139Y-19974809D01*
X66512377Y-20451000D02*
X66464758Y-20474809D01*
X66464758Y-20474809D02*
X66369520Y-20474809D01*
X66369520Y-20474809D02*
X66321901Y-20451000D01*
X66321901Y-20451000D02*
X66298092Y-20403380D01*
X66298092Y-20403380D02*
X66298092Y-20212904D01*
X66298092Y-20212904D02*
X66321901Y-20165285D01*
X66321901Y-20165285D02*
X66369520Y-20141476D01*
X66369520Y-20141476D02*
X66464758Y-20141476D01*
X66464758Y-20141476D02*
X66512377Y-20165285D01*
X66512377Y-20165285D02*
X66536187Y-20212904D01*
X66536187Y-20212904D02*
X66536187Y-20260523D01*
X66536187Y-20260523D02*
X66298092Y-20308142D01*
X66774282Y-20451000D02*
X66774282Y-20474809D01*
X66774282Y-20474809D02*
X66750472Y-20522428D01*
X66750472Y-20522428D02*
X66726663Y-20546238D01*
X67369519Y-20474809D02*
X67369519Y-19974809D01*
X67655233Y-20474809D02*
X67440948Y-20189095D01*
X67655233Y-19974809D02*
X67369519Y-20260523D01*
X68059995Y-20451000D02*
X68012376Y-20474809D01*
X68012376Y-20474809D02*
X67917138Y-20474809D01*
X67917138Y-20474809D02*
X67869519Y-20451000D01*
X67869519Y-20451000D02*
X67845710Y-20403380D01*
X67845710Y-20403380D02*
X67845710Y-20212904D01*
X67845710Y-20212904D02*
X67869519Y-20165285D01*
X67869519Y-20165285D02*
X67917138Y-20141476D01*
X67917138Y-20141476D02*
X68012376Y-20141476D01*
X68012376Y-20141476D02*
X68059995Y-20165285D01*
X68059995Y-20165285D02*
X68083805Y-20212904D01*
X68083805Y-20212904D02*
X68083805Y-20260523D01*
X68083805Y-20260523D02*
X67845710Y-20308142D01*
X68298090Y-20141476D02*
X68298090Y-20474809D01*
X68298090Y-20189095D02*
X68321900Y-20165285D01*
X68321900Y-20165285D02*
X68369519Y-20141476D01*
X68369519Y-20141476D02*
X68440947Y-20141476D01*
X68440947Y-20141476D02*
X68488566Y-20165285D01*
X68488566Y-20165285D02*
X68512376Y-20212904D01*
X68512376Y-20212904D02*
X68512376Y-20474809D01*
X68750471Y-20141476D02*
X68750471Y-20474809D01*
X68750471Y-20189095D02*
X68774281Y-20165285D01*
X68774281Y-20165285D02*
X68821900Y-20141476D01*
X68821900Y-20141476D02*
X68893328Y-20141476D01*
X68893328Y-20141476D02*
X68940947Y-20165285D01*
X68940947Y-20165285D02*
X68964757Y-20212904D01*
X68964757Y-20212904D02*
X68964757Y-20474809D01*
X69155233Y-20141476D02*
X69274281Y-20474809D01*
X69393328Y-20141476D02*
X69274281Y-20474809D01*
X69274281Y-20474809D02*
X69226662Y-20593857D01*
X69226662Y-20593857D02*
X69202852Y-20617666D01*
X69202852Y-20617666D02*
X69155233Y-20641476D01*
X69917137Y-19974809D02*
X70250470Y-19974809D01*
X70250470Y-19974809D02*
X69917137Y-20474809D01*
X69917137Y-20474809D02*
X70250470Y-20474809D01*
X70440946Y-20474809D02*
X70440946Y-19974809D01*
X70655232Y-20474809D02*
X70655232Y-20212904D01*
X70655232Y-20212904D02*
X70631422Y-20165285D01*
X70631422Y-20165285D02*
X70583803Y-20141476D01*
X70583803Y-20141476D02*
X70512375Y-20141476D01*
X70512375Y-20141476D02*
X70464756Y-20165285D01*
X70464756Y-20165285D02*
X70440946Y-20189095D01*
X71107613Y-20474809D02*
X71107613Y-20212904D01*
X71107613Y-20212904D02*
X71083803Y-20165285D01*
X71083803Y-20165285D02*
X71036184Y-20141476D01*
X71036184Y-20141476D02*
X70940946Y-20141476D01*
X70940946Y-20141476D02*
X70893327Y-20165285D01*
X71107613Y-20451000D02*
X71059994Y-20474809D01*
X71059994Y-20474809D02*
X70940946Y-20474809D01*
X70940946Y-20474809D02*
X70893327Y-20451000D01*
X70893327Y-20451000D02*
X70869518Y-20403380D01*
X70869518Y-20403380D02*
X70869518Y-20355761D01*
X70869518Y-20355761D02*
X70893327Y-20308142D01*
X70893327Y-20308142D02*
X70940946Y-20284333D01*
X70940946Y-20284333D02*
X71059994Y-20284333D01*
X71059994Y-20284333D02*
X71107613Y-20260523D01*
X71345708Y-20141476D02*
X71345708Y-20474809D01*
X71345708Y-20189095D02*
X71369518Y-20165285D01*
X71369518Y-20165285D02*
X71417137Y-20141476D01*
X71417137Y-20141476D02*
X71488565Y-20141476D01*
X71488565Y-20141476D02*
X71536184Y-20165285D01*
X71536184Y-20165285D02*
X71559994Y-20212904D01*
X71559994Y-20212904D02*
X71559994Y-20474809D01*
X72012375Y-20141476D02*
X72012375Y-20546238D01*
X72012375Y-20546238D02*
X71988565Y-20593857D01*
X71988565Y-20593857D02*
X71964756Y-20617666D01*
X71964756Y-20617666D02*
X71917137Y-20641476D01*
X71917137Y-20641476D02*
X71845708Y-20641476D01*
X71845708Y-20641476D02*
X71798089Y-20617666D01*
X72012375Y-20451000D02*
X71964756Y-20474809D01*
X71964756Y-20474809D02*
X71869518Y-20474809D01*
X71869518Y-20474809D02*
X71821899Y-20451000D01*
X71821899Y-20451000D02*
X71798089Y-20427190D01*
X71798089Y-20427190D02*
X71774280Y-20379571D01*
X71774280Y-20379571D02*
X71774280Y-20236714D01*
X71774280Y-20236714D02*
X71798089Y-20189095D01*
X71798089Y-20189095D02*
X71821899Y-20165285D01*
X71821899Y-20165285D02*
X71869518Y-20141476D01*
X71869518Y-20141476D02*
X71964756Y-20141476D01*
X71964756Y-20141476D02*
X72012375Y-20165285D01*
X54704286Y-56072904D02*
X54775714Y-56096714D01*
X54775714Y-56096714D02*
X54799524Y-56120523D01*
X54799524Y-56120523D02*
X54823333Y-56168142D01*
X54823333Y-56168142D02*
X54823333Y-56239571D01*
X54823333Y-56239571D02*
X54799524Y-56287190D01*
X54799524Y-56287190D02*
X54775714Y-56311000D01*
X54775714Y-56311000D02*
X54728095Y-56334809D01*
X54728095Y-56334809D02*
X54537619Y-56334809D01*
X54537619Y-56334809D02*
X54537619Y-55834809D01*
X54537619Y-55834809D02*
X54704286Y-55834809D01*
X54704286Y-55834809D02*
X54751905Y-55858619D01*
X54751905Y-55858619D02*
X54775714Y-55882428D01*
X54775714Y-55882428D02*
X54799524Y-55930047D01*
X54799524Y-55930047D02*
X54799524Y-55977666D01*
X54799524Y-55977666D02*
X54775714Y-56025285D01*
X54775714Y-56025285D02*
X54751905Y-56049095D01*
X54751905Y-56049095D02*
X54704286Y-56072904D01*
X54704286Y-56072904D02*
X54537619Y-56072904D01*
X55251905Y-56334809D02*
X55251905Y-56072904D01*
X55251905Y-56072904D02*
X55228095Y-56025285D01*
X55228095Y-56025285D02*
X55180476Y-56001476D01*
X55180476Y-56001476D02*
X55085238Y-56001476D01*
X55085238Y-56001476D02*
X55037619Y-56025285D01*
X55251905Y-56311000D02*
X55204286Y-56334809D01*
X55204286Y-56334809D02*
X55085238Y-56334809D01*
X55085238Y-56334809D02*
X55037619Y-56311000D01*
X55037619Y-56311000D02*
X55013810Y-56263380D01*
X55013810Y-56263380D02*
X55013810Y-56215761D01*
X55013810Y-56215761D02*
X55037619Y-56168142D01*
X55037619Y-56168142D02*
X55085238Y-56144333D01*
X55085238Y-56144333D02*
X55204286Y-56144333D01*
X55204286Y-56144333D02*
X55251905Y-56120523D01*
X55418572Y-56001476D02*
X55609048Y-56001476D01*
X55490000Y-55834809D02*
X55490000Y-56263380D01*
X55490000Y-56263380D02*
X55513810Y-56311000D01*
X55513810Y-56311000D02*
X55561429Y-56334809D01*
X55561429Y-56334809D02*
X55609048Y-56334809D01*
X55704286Y-56001476D02*
X55894762Y-56001476D01*
X55775714Y-55834809D02*
X55775714Y-56263380D01*
X55775714Y-56263380D02*
X55799524Y-56311000D01*
X55799524Y-56311000D02*
X55847143Y-56334809D01*
X55847143Y-56334809D02*
X55894762Y-56334809D01*
X56251904Y-56311000D02*
X56204285Y-56334809D01*
X56204285Y-56334809D02*
X56109047Y-56334809D01*
X56109047Y-56334809D02*
X56061428Y-56311000D01*
X56061428Y-56311000D02*
X56037619Y-56263380D01*
X56037619Y-56263380D02*
X56037619Y-56072904D01*
X56037619Y-56072904D02*
X56061428Y-56025285D01*
X56061428Y-56025285D02*
X56109047Y-56001476D01*
X56109047Y-56001476D02*
X56204285Y-56001476D01*
X56204285Y-56001476D02*
X56251904Y-56025285D01*
X56251904Y-56025285D02*
X56275714Y-56072904D01*
X56275714Y-56072904D02*
X56275714Y-56120523D01*
X56275714Y-56120523D02*
X56037619Y-56168142D01*
X56489999Y-56334809D02*
X56489999Y-56001476D01*
X56489999Y-56096714D02*
X56513809Y-56049095D01*
X56513809Y-56049095D02*
X56537618Y-56025285D01*
X56537618Y-56025285D02*
X56585237Y-56001476D01*
X56585237Y-56001476D02*
X56632856Y-56001476D01*
X56751904Y-56001476D02*
X56870952Y-56334809D01*
X56989999Y-56001476D02*
X56870952Y-56334809D01*
X56870952Y-56334809D02*
X56823333Y-56453857D01*
X56823333Y-56453857D02*
X56799523Y-56477666D01*
X56799523Y-56477666D02*
X56751904Y-56501476D01*
X55697143Y-56722904D02*
X55768571Y-56746714D01*
X55768571Y-56746714D02*
X55792381Y-56770523D01*
X55792381Y-56770523D02*
X55816190Y-56818142D01*
X55816190Y-56818142D02*
X55816190Y-56889571D01*
X55816190Y-56889571D02*
X55792381Y-56937190D01*
X55792381Y-56937190D02*
X55768571Y-56961000D01*
X55768571Y-56961000D02*
X55720952Y-56984809D01*
X55720952Y-56984809D02*
X55530476Y-56984809D01*
X55530476Y-56984809D02*
X55530476Y-56484809D01*
X55530476Y-56484809D02*
X55697143Y-56484809D01*
X55697143Y-56484809D02*
X55744762Y-56508619D01*
X55744762Y-56508619D02*
X55768571Y-56532428D01*
X55768571Y-56532428D02*
X55792381Y-56580047D01*
X55792381Y-56580047D02*
X55792381Y-56627666D01*
X55792381Y-56627666D02*
X55768571Y-56675285D01*
X55768571Y-56675285D02*
X55744762Y-56699095D01*
X55744762Y-56699095D02*
X55697143Y-56722904D01*
X55697143Y-56722904D02*
X55530476Y-56722904D01*
X55959048Y-56484809D02*
X56244762Y-56484809D01*
X56101905Y-56984809D02*
X56101905Y-56484809D01*
X56673333Y-56984809D02*
X56387619Y-56984809D01*
X56530476Y-56984809D02*
X56530476Y-56484809D01*
X56530476Y-56484809D02*
X56482857Y-56556238D01*
X56482857Y-56556238D02*
X56435238Y-56603857D01*
X56435238Y-56603857D02*
X56387619Y-56627666D01*
X35997619Y-22274809D02*
X35997619Y-21774809D01*
X35997619Y-21774809D02*
X36116667Y-21774809D01*
X36116667Y-21774809D02*
X36188095Y-21798619D01*
X36188095Y-21798619D02*
X36235714Y-21846238D01*
X36235714Y-21846238D02*
X36259524Y-21893857D01*
X36259524Y-21893857D02*
X36283333Y-21989095D01*
X36283333Y-21989095D02*
X36283333Y-22060523D01*
X36283333Y-22060523D02*
X36259524Y-22155761D01*
X36259524Y-22155761D02*
X36235714Y-22203380D01*
X36235714Y-22203380D02*
X36188095Y-22251000D01*
X36188095Y-22251000D02*
X36116667Y-22274809D01*
X36116667Y-22274809D02*
X35997619Y-22274809D01*
X36783333Y-22227190D02*
X36759524Y-22251000D01*
X36759524Y-22251000D02*
X36688095Y-22274809D01*
X36688095Y-22274809D02*
X36640476Y-22274809D01*
X36640476Y-22274809D02*
X36569048Y-22251000D01*
X36569048Y-22251000D02*
X36521429Y-22203380D01*
X36521429Y-22203380D02*
X36497619Y-22155761D01*
X36497619Y-22155761D02*
X36473810Y-22060523D01*
X36473810Y-22060523D02*
X36473810Y-21989095D01*
X36473810Y-21989095D02*
X36497619Y-21893857D01*
X36497619Y-21893857D02*
X36521429Y-21846238D01*
X36521429Y-21846238D02*
X36569048Y-21798619D01*
X36569048Y-21798619D02*
X36640476Y-21774809D01*
X36640476Y-21774809D02*
X36688095Y-21774809D01*
X36688095Y-21774809D02*
X36759524Y-21798619D01*
X36759524Y-21798619D02*
X36783333Y-21822428D01*
X37307143Y-21774809D02*
X37473809Y-22274809D01*
X37473809Y-22274809D02*
X37640476Y-21774809D01*
X37807142Y-22274809D02*
X37807142Y-21941476D01*
X37807142Y-21774809D02*
X37783333Y-21798619D01*
X37783333Y-21798619D02*
X37807142Y-21822428D01*
X37807142Y-21822428D02*
X37830952Y-21798619D01*
X37830952Y-21798619D02*
X37807142Y-21774809D01*
X37807142Y-21774809D02*
X37807142Y-21822428D01*
X38045237Y-22274809D02*
X38045237Y-21774809D01*
X38045237Y-21965285D02*
X38092856Y-21941476D01*
X38092856Y-21941476D02*
X38188094Y-21941476D01*
X38188094Y-21941476D02*
X38235713Y-21965285D01*
X38235713Y-21965285D02*
X38259523Y-21989095D01*
X38259523Y-21989095D02*
X38283332Y-22036714D01*
X38283332Y-22036714D02*
X38283332Y-22179571D01*
X38283332Y-22179571D02*
X38259523Y-22227190D01*
X38259523Y-22227190D02*
X38235713Y-22251000D01*
X38235713Y-22251000D02*
X38188094Y-22274809D01*
X38188094Y-22274809D02*
X38092856Y-22274809D01*
X38092856Y-22274809D02*
X38045237Y-22251000D01*
X38497618Y-22274809D02*
X38497618Y-21941476D01*
X38497618Y-22036714D02*
X38521428Y-21989095D01*
X38521428Y-21989095D02*
X38545237Y-21965285D01*
X38545237Y-21965285D02*
X38592856Y-21941476D01*
X38592856Y-21941476D02*
X38640475Y-21941476D01*
X39021428Y-22274809D02*
X39021428Y-22012904D01*
X39021428Y-22012904D02*
X38997618Y-21965285D01*
X38997618Y-21965285D02*
X38949999Y-21941476D01*
X38949999Y-21941476D02*
X38854761Y-21941476D01*
X38854761Y-21941476D02*
X38807142Y-21965285D01*
X39021428Y-22251000D02*
X38973809Y-22274809D01*
X38973809Y-22274809D02*
X38854761Y-22274809D01*
X38854761Y-22274809D02*
X38807142Y-22251000D01*
X38807142Y-22251000D02*
X38783333Y-22203380D01*
X38783333Y-22203380D02*
X38783333Y-22155761D01*
X38783333Y-22155761D02*
X38807142Y-22108142D01*
X38807142Y-22108142D02*
X38854761Y-22084333D01*
X38854761Y-22084333D02*
X38973809Y-22084333D01*
X38973809Y-22084333D02*
X39021428Y-22060523D01*
X39188095Y-21941476D02*
X39378571Y-21941476D01*
X39259523Y-21774809D02*
X39259523Y-22203380D01*
X39259523Y-22203380D02*
X39283333Y-22251000D01*
X39283333Y-22251000D02*
X39330952Y-22274809D01*
X39330952Y-22274809D02*
X39378571Y-22274809D01*
X39545237Y-22274809D02*
X39545237Y-21941476D01*
X39545237Y-21774809D02*
X39521428Y-21798619D01*
X39521428Y-21798619D02*
X39545237Y-21822428D01*
X39545237Y-21822428D02*
X39569047Y-21798619D01*
X39569047Y-21798619D02*
X39545237Y-21774809D01*
X39545237Y-21774809D02*
X39545237Y-21822428D01*
X39854761Y-22274809D02*
X39807142Y-22251000D01*
X39807142Y-22251000D02*
X39783332Y-22227190D01*
X39783332Y-22227190D02*
X39759523Y-22179571D01*
X39759523Y-22179571D02*
X39759523Y-22036714D01*
X39759523Y-22036714D02*
X39783332Y-21989095D01*
X39783332Y-21989095D02*
X39807142Y-21965285D01*
X39807142Y-21965285D02*
X39854761Y-21941476D01*
X39854761Y-21941476D02*
X39926189Y-21941476D01*
X39926189Y-21941476D02*
X39973808Y-21965285D01*
X39973808Y-21965285D02*
X39997618Y-21989095D01*
X39997618Y-21989095D02*
X40021427Y-22036714D01*
X40021427Y-22036714D02*
X40021427Y-22179571D01*
X40021427Y-22179571D02*
X39997618Y-22227190D01*
X39997618Y-22227190D02*
X39973808Y-22251000D01*
X39973808Y-22251000D02*
X39926189Y-22274809D01*
X39926189Y-22274809D02*
X39854761Y-22274809D01*
X40235713Y-21941476D02*
X40235713Y-22274809D01*
X40235713Y-21989095D02*
X40259523Y-21965285D01*
X40259523Y-21965285D02*
X40307142Y-21941476D01*
X40307142Y-21941476D02*
X40378570Y-21941476D01*
X40378570Y-21941476D02*
X40426189Y-21965285D01*
X40426189Y-21965285D02*
X40449999Y-22012904D01*
X40449999Y-22012904D02*
X40449999Y-22274809D01*
X41069046Y-22274809D02*
X41069046Y-21774809D01*
X41069046Y-21774809D02*
X41235713Y-22131952D01*
X41235713Y-22131952D02*
X41402379Y-21774809D01*
X41402379Y-21774809D02*
X41402379Y-22274809D01*
X41711904Y-22274809D02*
X41664285Y-22251000D01*
X41664285Y-22251000D02*
X41640475Y-22227190D01*
X41640475Y-22227190D02*
X41616666Y-22179571D01*
X41616666Y-22179571D02*
X41616666Y-22036714D01*
X41616666Y-22036714D02*
X41640475Y-21989095D01*
X41640475Y-21989095D02*
X41664285Y-21965285D01*
X41664285Y-21965285D02*
X41711904Y-21941476D01*
X41711904Y-21941476D02*
X41783332Y-21941476D01*
X41783332Y-21941476D02*
X41830951Y-21965285D01*
X41830951Y-21965285D02*
X41854761Y-21989095D01*
X41854761Y-21989095D02*
X41878570Y-22036714D01*
X41878570Y-22036714D02*
X41878570Y-22179571D01*
X41878570Y-22179571D02*
X41854761Y-22227190D01*
X41854761Y-22227190D02*
X41830951Y-22251000D01*
X41830951Y-22251000D02*
X41783332Y-22274809D01*
X41783332Y-22274809D02*
X41711904Y-22274809D01*
X42021428Y-21941476D02*
X42211904Y-21941476D01*
X42092856Y-21774809D02*
X42092856Y-22203380D01*
X42092856Y-22203380D02*
X42116666Y-22251000D01*
X42116666Y-22251000D02*
X42164285Y-22274809D01*
X42164285Y-22274809D02*
X42211904Y-22274809D01*
X42449999Y-22274809D02*
X42402380Y-22251000D01*
X42402380Y-22251000D02*
X42378570Y-22227190D01*
X42378570Y-22227190D02*
X42354761Y-22179571D01*
X42354761Y-22179571D02*
X42354761Y-22036714D01*
X42354761Y-22036714D02*
X42378570Y-21989095D01*
X42378570Y-21989095D02*
X42402380Y-21965285D01*
X42402380Y-21965285D02*
X42449999Y-21941476D01*
X42449999Y-21941476D02*
X42521427Y-21941476D01*
X42521427Y-21941476D02*
X42569046Y-21965285D01*
X42569046Y-21965285D02*
X42592856Y-21989095D01*
X42592856Y-21989095D02*
X42616665Y-22036714D01*
X42616665Y-22036714D02*
X42616665Y-22179571D01*
X42616665Y-22179571D02*
X42592856Y-22227190D01*
X42592856Y-22227190D02*
X42569046Y-22251000D01*
X42569046Y-22251000D02*
X42521427Y-22274809D01*
X42521427Y-22274809D02*
X42449999Y-22274809D01*
X42830951Y-22274809D02*
X42830951Y-21941476D01*
X42830951Y-22036714D02*
X42854761Y-21989095D01*
X42854761Y-21989095D02*
X42878570Y-21965285D01*
X42878570Y-21965285D02*
X42926189Y-21941476D01*
X42926189Y-21941476D02*
X42973808Y-21941476D01*
X34252858Y-25264809D02*
X34252858Y-24764809D01*
X34252858Y-25002904D02*
X34538572Y-25002904D01*
X34538572Y-25264809D02*
X34538572Y-24764809D01*
X34990954Y-25264809D02*
X34990954Y-25002904D01*
X34990954Y-25002904D02*
X34967144Y-24955285D01*
X34967144Y-24955285D02*
X34919525Y-24931476D01*
X34919525Y-24931476D02*
X34824287Y-24931476D01*
X34824287Y-24931476D02*
X34776668Y-24955285D01*
X34990954Y-25241000D02*
X34943335Y-25264809D01*
X34943335Y-25264809D02*
X34824287Y-25264809D01*
X34824287Y-25264809D02*
X34776668Y-25241000D01*
X34776668Y-25241000D02*
X34752859Y-25193380D01*
X34752859Y-25193380D02*
X34752859Y-25145761D01*
X34752859Y-25145761D02*
X34776668Y-25098142D01*
X34776668Y-25098142D02*
X34824287Y-25074333D01*
X34824287Y-25074333D02*
X34943335Y-25074333D01*
X34943335Y-25074333D02*
X34990954Y-25050523D01*
X35300478Y-25264809D02*
X35252859Y-25241000D01*
X35252859Y-25241000D02*
X35229049Y-25193380D01*
X35229049Y-25193380D02*
X35229049Y-24764809D01*
X35562383Y-25264809D02*
X35514764Y-25241000D01*
X35514764Y-25241000D02*
X35490954Y-25193380D01*
X35490954Y-25193380D02*
X35490954Y-24764809D01*
X36133811Y-25002904D02*
X36300478Y-25002904D01*
X36371906Y-25264809D02*
X36133811Y-25264809D01*
X36133811Y-25264809D02*
X36133811Y-24764809D01*
X36133811Y-24764809D02*
X36371906Y-24764809D01*
X36514764Y-24931476D02*
X36705240Y-24931476D01*
X36586192Y-25264809D02*
X36586192Y-24836238D01*
X36586192Y-24836238D02*
X36610002Y-24788619D01*
X36610002Y-24788619D02*
X36657621Y-24764809D01*
X36657621Y-24764809D02*
X36705240Y-24764809D01*
X36800478Y-24931476D02*
X36990954Y-24931476D01*
X36871906Y-25264809D02*
X36871906Y-24836238D01*
X36871906Y-24836238D02*
X36895716Y-24788619D01*
X36895716Y-24788619D02*
X36943335Y-24764809D01*
X36943335Y-24764809D02*
X36990954Y-24764809D01*
X37348096Y-25241000D02*
X37300477Y-25264809D01*
X37300477Y-25264809D02*
X37205239Y-25264809D01*
X37205239Y-25264809D02*
X37157620Y-25241000D01*
X37157620Y-25241000D02*
X37133811Y-25193380D01*
X37133811Y-25193380D02*
X37133811Y-25002904D01*
X37133811Y-25002904D02*
X37157620Y-24955285D01*
X37157620Y-24955285D02*
X37205239Y-24931476D01*
X37205239Y-24931476D02*
X37300477Y-24931476D01*
X37300477Y-24931476D02*
X37348096Y-24955285D01*
X37348096Y-24955285D02*
X37371906Y-25002904D01*
X37371906Y-25002904D02*
X37371906Y-25050523D01*
X37371906Y-25050523D02*
X37133811Y-25098142D01*
X37800477Y-25241000D02*
X37752858Y-25264809D01*
X37752858Y-25264809D02*
X37657620Y-25264809D01*
X37657620Y-25264809D02*
X37610001Y-25241000D01*
X37610001Y-25241000D02*
X37586191Y-25217190D01*
X37586191Y-25217190D02*
X37562382Y-25169571D01*
X37562382Y-25169571D02*
X37562382Y-25026714D01*
X37562382Y-25026714D02*
X37586191Y-24979095D01*
X37586191Y-24979095D02*
X37610001Y-24955285D01*
X37610001Y-24955285D02*
X37657620Y-24931476D01*
X37657620Y-24931476D02*
X37752858Y-24931476D01*
X37752858Y-24931476D02*
X37800477Y-24955285D01*
X37943334Y-24931476D02*
X38133810Y-24931476D01*
X38014762Y-24764809D02*
X38014762Y-25193380D01*
X38014762Y-25193380D02*
X38038572Y-25241000D01*
X38038572Y-25241000D02*
X38086191Y-25264809D01*
X38086191Y-25264809D02*
X38133810Y-25264809D01*
X38657619Y-25241000D02*
X38729047Y-25264809D01*
X38729047Y-25264809D02*
X38848095Y-25264809D01*
X38848095Y-25264809D02*
X38895714Y-25241000D01*
X38895714Y-25241000D02*
X38919523Y-25217190D01*
X38919523Y-25217190D02*
X38943333Y-25169571D01*
X38943333Y-25169571D02*
X38943333Y-25121952D01*
X38943333Y-25121952D02*
X38919523Y-25074333D01*
X38919523Y-25074333D02*
X38895714Y-25050523D01*
X38895714Y-25050523D02*
X38848095Y-25026714D01*
X38848095Y-25026714D02*
X38752857Y-25002904D01*
X38752857Y-25002904D02*
X38705238Y-24979095D01*
X38705238Y-24979095D02*
X38681428Y-24955285D01*
X38681428Y-24955285D02*
X38657619Y-24907666D01*
X38657619Y-24907666D02*
X38657619Y-24860047D01*
X38657619Y-24860047D02*
X38681428Y-24812428D01*
X38681428Y-24812428D02*
X38705238Y-24788619D01*
X38705238Y-24788619D02*
X38752857Y-24764809D01*
X38752857Y-24764809D02*
X38871904Y-24764809D01*
X38871904Y-24764809D02*
X38943333Y-24788619D01*
X39348094Y-25241000D02*
X39300475Y-25264809D01*
X39300475Y-25264809D02*
X39205237Y-25264809D01*
X39205237Y-25264809D02*
X39157618Y-25241000D01*
X39157618Y-25241000D02*
X39133809Y-25193380D01*
X39133809Y-25193380D02*
X39133809Y-25002904D01*
X39133809Y-25002904D02*
X39157618Y-24955285D01*
X39157618Y-24955285D02*
X39205237Y-24931476D01*
X39205237Y-24931476D02*
X39300475Y-24931476D01*
X39300475Y-24931476D02*
X39348094Y-24955285D01*
X39348094Y-24955285D02*
X39371904Y-25002904D01*
X39371904Y-25002904D02*
X39371904Y-25050523D01*
X39371904Y-25050523D02*
X39133809Y-25098142D01*
X39586189Y-24931476D02*
X39586189Y-25264809D01*
X39586189Y-24979095D02*
X39609999Y-24955285D01*
X39609999Y-24955285D02*
X39657618Y-24931476D01*
X39657618Y-24931476D02*
X39729046Y-24931476D01*
X39729046Y-24931476D02*
X39776665Y-24955285D01*
X39776665Y-24955285D02*
X39800475Y-25002904D01*
X39800475Y-25002904D02*
X39800475Y-25264809D01*
X40014761Y-25241000D02*
X40062380Y-25264809D01*
X40062380Y-25264809D02*
X40157618Y-25264809D01*
X40157618Y-25264809D02*
X40205237Y-25241000D01*
X40205237Y-25241000D02*
X40229046Y-25193380D01*
X40229046Y-25193380D02*
X40229046Y-25169571D01*
X40229046Y-25169571D02*
X40205237Y-25121952D01*
X40205237Y-25121952D02*
X40157618Y-25098142D01*
X40157618Y-25098142D02*
X40086189Y-25098142D01*
X40086189Y-25098142D02*
X40038570Y-25074333D01*
X40038570Y-25074333D02*
X40014761Y-25026714D01*
X40014761Y-25026714D02*
X40014761Y-25002904D01*
X40014761Y-25002904D02*
X40038570Y-24955285D01*
X40038570Y-24955285D02*
X40086189Y-24931476D01*
X40086189Y-24931476D02*
X40157618Y-24931476D01*
X40157618Y-24931476D02*
X40205237Y-24955285D01*
X40514761Y-25264809D02*
X40467142Y-25241000D01*
X40467142Y-25241000D02*
X40443332Y-25217190D01*
X40443332Y-25217190D02*
X40419523Y-25169571D01*
X40419523Y-25169571D02*
X40419523Y-25026714D01*
X40419523Y-25026714D02*
X40443332Y-24979095D01*
X40443332Y-24979095D02*
X40467142Y-24955285D01*
X40467142Y-24955285D02*
X40514761Y-24931476D01*
X40514761Y-24931476D02*
X40586189Y-24931476D01*
X40586189Y-24931476D02*
X40633808Y-24955285D01*
X40633808Y-24955285D02*
X40657618Y-24979095D01*
X40657618Y-24979095D02*
X40681427Y-25026714D01*
X40681427Y-25026714D02*
X40681427Y-25169571D01*
X40681427Y-25169571D02*
X40657618Y-25217190D01*
X40657618Y-25217190D02*
X40633808Y-25241000D01*
X40633808Y-25241000D02*
X40586189Y-25264809D01*
X40586189Y-25264809D02*
X40514761Y-25264809D01*
X40895713Y-25264809D02*
X40895713Y-24931476D01*
X40895713Y-25026714D02*
X40919523Y-24979095D01*
X40919523Y-24979095D02*
X40943332Y-24955285D01*
X40943332Y-24955285D02*
X40990951Y-24931476D01*
X40990951Y-24931476D02*
X41038570Y-24931476D01*
X26299048Y-59071000D02*
X26370476Y-59094809D01*
X26370476Y-59094809D02*
X26489524Y-59094809D01*
X26489524Y-59094809D02*
X26537143Y-59071000D01*
X26537143Y-59071000D02*
X26560952Y-59047190D01*
X26560952Y-59047190D02*
X26584762Y-58999571D01*
X26584762Y-58999571D02*
X26584762Y-58951952D01*
X26584762Y-58951952D02*
X26560952Y-58904333D01*
X26560952Y-58904333D02*
X26537143Y-58880523D01*
X26537143Y-58880523D02*
X26489524Y-58856714D01*
X26489524Y-58856714D02*
X26394286Y-58832904D01*
X26394286Y-58832904D02*
X26346667Y-58809095D01*
X26346667Y-58809095D02*
X26322857Y-58785285D01*
X26322857Y-58785285D02*
X26299048Y-58737666D01*
X26299048Y-58737666D02*
X26299048Y-58690047D01*
X26299048Y-58690047D02*
X26322857Y-58642428D01*
X26322857Y-58642428D02*
X26346667Y-58618619D01*
X26346667Y-58618619D02*
X26394286Y-58594809D01*
X26394286Y-58594809D02*
X26513333Y-58594809D01*
X26513333Y-58594809D02*
X26584762Y-58618619D01*
X27060952Y-59094809D02*
X26775238Y-59094809D01*
X26918095Y-59094809D02*
X26918095Y-58594809D01*
X26918095Y-58594809D02*
X26870476Y-58666238D01*
X26870476Y-58666238D02*
X26822857Y-58713857D01*
X26822857Y-58713857D02*
X26775238Y-58737666D01*
X27353809Y-59064809D02*
X27353809Y-58564809D01*
X27353809Y-58564809D02*
X27544285Y-58564809D01*
X27544285Y-58564809D02*
X27591904Y-58588619D01*
X27591904Y-58588619D02*
X27615714Y-58612428D01*
X27615714Y-58612428D02*
X27639523Y-58660047D01*
X27639523Y-58660047D02*
X27639523Y-58731476D01*
X27639523Y-58731476D02*
X27615714Y-58779095D01*
X27615714Y-58779095D02*
X27591904Y-58802904D01*
X27591904Y-58802904D02*
X27544285Y-58826714D01*
X27544285Y-58826714D02*
X27353809Y-58826714D01*
X28068095Y-58731476D02*
X28068095Y-59064809D01*
X27853809Y-58731476D02*
X27853809Y-58993380D01*
X27853809Y-58993380D02*
X27877619Y-59041000D01*
X27877619Y-59041000D02*
X27925238Y-59064809D01*
X27925238Y-59064809D02*
X27996666Y-59064809D01*
X27996666Y-59064809D02*
X28044285Y-59041000D01*
X28044285Y-59041000D02*
X28068095Y-59017190D01*
X28282381Y-59041000D02*
X28330000Y-59064809D01*
X28330000Y-59064809D02*
X28425238Y-59064809D01*
X28425238Y-59064809D02*
X28472857Y-59041000D01*
X28472857Y-59041000D02*
X28496666Y-58993380D01*
X28496666Y-58993380D02*
X28496666Y-58969571D01*
X28496666Y-58969571D02*
X28472857Y-58921952D01*
X28472857Y-58921952D02*
X28425238Y-58898142D01*
X28425238Y-58898142D02*
X28353809Y-58898142D01*
X28353809Y-58898142D02*
X28306190Y-58874333D01*
X28306190Y-58874333D02*
X28282381Y-58826714D01*
X28282381Y-58826714D02*
X28282381Y-58802904D01*
X28282381Y-58802904D02*
X28306190Y-58755285D01*
X28306190Y-58755285D02*
X28353809Y-58731476D01*
X28353809Y-58731476D02*
X28425238Y-58731476D01*
X28425238Y-58731476D02*
X28472857Y-58755285D01*
X28710952Y-59064809D02*
X28710952Y-58564809D01*
X28925238Y-59064809D02*
X28925238Y-58802904D01*
X28925238Y-58802904D02*
X28901428Y-58755285D01*
X28901428Y-58755285D02*
X28853809Y-58731476D01*
X28853809Y-58731476D02*
X28782381Y-58731476D01*
X28782381Y-58731476D02*
X28734762Y-58755285D01*
X28734762Y-58755285D02*
X28710952Y-58779095D01*
X29163333Y-59064809D02*
X29163333Y-58564809D01*
X29163333Y-58755285D02*
X29210952Y-58731476D01*
X29210952Y-58731476D02*
X29306190Y-58731476D01*
X29306190Y-58731476D02*
X29353809Y-58755285D01*
X29353809Y-58755285D02*
X29377619Y-58779095D01*
X29377619Y-58779095D02*
X29401428Y-58826714D01*
X29401428Y-58826714D02*
X29401428Y-58969571D01*
X29401428Y-58969571D02*
X29377619Y-59017190D01*
X29377619Y-59017190D02*
X29353809Y-59041000D01*
X29353809Y-59041000D02*
X29306190Y-59064809D01*
X29306190Y-59064809D02*
X29210952Y-59064809D01*
X29210952Y-59064809D02*
X29163333Y-59041000D01*
X29830000Y-58731476D02*
X29830000Y-59064809D01*
X29615714Y-58731476D02*
X29615714Y-58993380D01*
X29615714Y-58993380D02*
X29639524Y-59041000D01*
X29639524Y-59041000D02*
X29687143Y-59064809D01*
X29687143Y-59064809D02*
X29758571Y-59064809D01*
X29758571Y-59064809D02*
X29806190Y-59041000D01*
X29806190Y-59041000D02*
X29830000Y-59017190D01*
X29996667Y-58731476D02*
X30187143Y-58731476D01*
X30068095Y-58564809D02*
X30068095Y-58993380D01*
X30068095Y-58993380D02*
X30091905Y-59041000D01*
X30091905Y-59041000D02*
X30139524Y-59064809D01*
X30139524Y-59064809D02*
X30187143Y-59064809D01*
X30282381Y-58731476D02*
X30472857Y-58731476D01*
X30353809Y-58564809D02*
X30353809Y-58993380D01*
X30353809Y-58993380D02*
X30377619Y-59041000D01*
X30377619Y-59041000D02*
X30425238Y-59064809D01*
X30425238Y-59064809D02*
X30472857Y-59064809D01*
X30710952Y-59064809D02*
X30663333Y-59041000D01*
X30663333Y-59041000D02*
X30639523Y-59017190D01*
X30639523Y-59017190D02*
X30615714Y-58969571D01*
X30615714Y-58969571D02*
X30615714Y-58826714D01*
X30615714Y-58826714D02*
X30639523Y-58779095D01*
X30639523Y-58779095D02*
X30663333Y-58755285D01*
X30663333Y-58755285D02*
X30710952Y-58731476D01*
X30710952Y-58731476D02*
X30782380Y-58731476D01*
X30782380Y-58731476D02*
X30829999Y-58755285D01*
X30829999Y-58755285D02*
X30853809Y-58779095D01*
X30853809Y-58779095D02*
X30877618Y-58826714D01*
X30877618Y-58826714D02*
X30877618Y-58969571D01*
X30877618Y-58969571D02*
X30853809Y-59017190D01*
X30853809Y-59017190D02*
X30829999Y-59041000D01*
X30829999Y-59041000D02*
X30782380Y-59064809D01*
X30782380Y-59064809D02*
X30710952Y-59064809D01*
X31091904Y-58731476D02*
X31091904Y-59064809D01*
X31091904Y-58779095D02*
X31115714Y-58755285D01*
X31115714Y-58755285D02*
X31163333Y-58731476D01*
X31163333Y-58731476D02*
X31234761Y-58731476D01*
X31234761Y-58731476D02*
X31282380Y-58755285D01*
X31282380Y-58755285D02*
X31306190Y-58802904D01*
X31306190Y-58802904D02*
X31306190Y-59064809D01*
X69142380Y-59052428D02*
X69094761Y-59028619D01*
X69094761Y-59028619D02*
X69047142Y-58981000D01*
X69047142Y-58981000D02*
X68975714Y-58909571D01*
X68975714Y-58909571D02*
X68928095Y-58885761D01*
X68928095Y-58885761D02*
X68880476Y-58885761D01*
X68904285Y-59004809D02*
X68856666Y-58981000D01*
X68856666Y-58981000D02*
X68809047Y-58933380D01*
X68809047Y-58933380D02*
X68785238Y-58838142D01*
X68785238Y-58838142D02*
X68785238Y-58671476D01*
X68785238Y-58671476D02*
X68809047Y-58576238D01*
X68809047Y-58576238D02*
X68856666Y-58528619D01*
X68856666Y-58528619D02*
X68904285Y-58504809D01*
X68904285Y-58504809D02*
X68999523Y-58504809D01*
X68999523Y-58504809D02*
X69047142Y-58528619D01*
X69047142Y-58528619D02*
X69094761Y-58576238D01*
X69094761Y-58576238D02*
X69118571Y-58671476D01*
X69118571Y-58671476D02*
X69118571Y-58838142D01*
X69118571Y-58838142D02*
X69094761Y-58933380D01*
X69094761Y-58933380D02*
X69047142Y-58981000D01*
X69047142Y-58981000D02*
X68999523Y-59004809D01*
X68999523Y-59004809D02*
X68904285Y-59004809D01*
X69594762Y-59004809D02*
X69309048Y-59004809D01*
X69451905Y-59004809D02*
X69451905Y-58504809D01*
X69451905Y-58504809D02*
X69404286Y-58576238D01*
X69404286Y-58576238D02*
X69356667Y-58623857D01*
X69356667Y-58623857D02*
X69309048Y-58647666D01*
X68022428Y-58987141D02*
X67998619Y-58963332D01*
X67998619Y-58963332D02*
X67974809Y-58915713D01*
X67974809Y-58915713D02*
X67974809Y-58796665D01*
X67974809Y-58796665D02*
X67998619Y-58749046D01*
X67998619Y-58749046D02*
X68022428Y-58725237D01*
X68022428Y-58725237D02*
X68070047Y-58701427D01*
X68070047Y-58701427D02*
X68117666Y-58701427D01*
X68117666Y-58701427D02*
X68189095Y-58725237D01*
X68189095Y-58725237D02*
X68474809Y-59010951D01*
X68474809Y-59010951D02*
X68474809Y-58701427D01*
X68474809Y-58487142D02*
X67974809Y-58487142D01*
X67974809Y-58487142D02*
X68474809Y-58201428D01*
X68474809Y-58201428D02*
X67974809Y-58201428D01*
X67974809Y-58010951D02*
X67974809Y-57701427D01*
X67974809Y-57701427D02*
X68165285Y-57868094D01*
X68165285Y-57868094D02*
X68165285Y-57796665D01*
X68165285Y-57796665D02*
X68189095Y-57749046D01*
X68189095Y-57749046D02*
X68212904Y-57725237D01*
X68212904Y-57725237D02*
X68260523Y-57701427D01*
X68260523Y-57701427D02*
X68379571Y-57701427D01*
X68379571Y-57701427D02*
X68427190Y-57725237D01*
X68427190Y-57725237D02*
X68451000Y-57749046D01*
X68451000Y-57749046D02*
X68474809Y-57796665D01*
X68474809Y-57796665D02*
X68474809Y-57939522D01*
X68474809Y-57939522D02*
X68451000Y-57987141D01*
X68451000Y-57987141D02*
X68427190Y-58010951D01*
X68474809Y-57463332D02*
X68474809Y-57368094D01*
X68474809Y-57368094D02*
X68451000Y-57320475D01*
X68451000Y-57320475D02*
X68427190Y-57296666D01*
X68427190Y-57296666D02*
X68355761Y-57249047D01*
X68355761Y-57249047D02*
X68260523Y-57225237D01*
X68260523Y-57225237D02*
X68070047Y-57225237D01*
X68070047Y-57225237D02*
X68022428Y-57249047D01*
X68022428Y-57249047D02*
X67998619Y-57272856D01*
X67998619Y-57272856D02*
X67974809Y-57320475D01*
X67974809Y-57320475D02*
X67974809Y-57415713D01*
X67974809Y-57415713D02*
X67998619Y-57463332D01*
X67998619Y-57463332D02*
X68022428Y-57487142D01*
X68022428Y-57487142D02*
X68070047Y-57510951D01*
X68070047Y-57510951D02*
X68189095Y-57510951D01*
X68189095Y-57510951D02*
X68236714Y-57487142D01*
X68236714Y-57487142D02*
X68260523Y-57463332D01*
X68260523Y-57463332D02*
X68284333Y-57415713D01*
X68284333Y-57415713D02*
X68284333Y-57320475D01*
X68284333Y-57320475D02*
X68260523Y-57272856D01*
X68260523Y-57272856D02*
X68236714Y-57249047D01*
X68236714Y-57249047D02*
X68189095Y-57225237D01*
X67974809Y-56915714D02*
X67974809Y-56868095D01*
X67974809Y-56868095D02*
X67998619Y-56820476D01*
X67998619Y-56820476D02*
X68022428Y-56796666D01*
X68022428Y-56796666D02*
X68070047Y-56772857D01*
X68070047Y-56772857D02*
X68165285Y-56749047D01*
X68165285Y-56749047D02*
X68284333Y-56749047D01*
X68284333Y-56749047D02*
X68379571Y-56772857D01*
X68379571Y-56772857D02*
X68427190Y-56796666D01*
X68427190Y-56796666D02*
X68451000Y-56820476D01*
X68451000Y-56820476D02*
X68474809Y-56868095D01*
X68474809Y-56868095D02*
X68474809Y-56915714D01*
X68474809Y-56915714D02*
X68451000Y-56963333D01*
X68451000Y-56963333D02*
X68427190Y-56987142D01*
X68427190Y-56987142D02*
X68379571Y-57010952D01*
X68379571Y-57010952D02*
X68284333Y-57034761D01*
X68284333Y-57034761D02*
X68165285Y-57034761D01*
X68165285Y-57034761D02*
X68070047Y-57010952D01*
X68070047Y-57010952D02*
X68022428Y-56987142D01*
X68022428Y-56987142D02*
X67998619Y-56963333D01*
X67998619Y-56963333D02*
X67974809Y-56915714D01*
X68141476Y-56320476D02*
X68474809Y-56320476D01*
X67951000Y-56439524D02*
X68308142Y-56558571D01*
X68308142Y-56558571D02*
X68308142Y-56249048D01*
X49962857Y-48854809D02*
X49677143Y-48854809D01*
X49820000Y-48854809D02*
X49820000Y-48354809D01*
X49820000Y-48354809D02*
X49772381Y-48426238D01*
X49772381Y-48426238D02*
X49724762Y-48473857D01*
X49724762Y-48473857D02*
X49677143Y-48497666D01*
X50177142Y-48854809D02*
X50177142Y-48354809D01*
X50462856Y-48854809D02*
X50248571Y-48569095D01*
X50462856Y-48354809D02*
X50177142Y-48640523D01*
X49096666Y-48174809D02*
X48930000Y-47936714D01*
X48810952Y-48174809D02*
X48810952Y-47674809D01*
X48810952Y-47674809D02*
X49001428Y-47674809D01*
X49001428Y-47674809D02*
X49049047Y-47698619D01*
X49049047Y-47698619D02*
X49072857Y-47722428D01*
X49072857Y-47722428D02*
X49096666Y-47770047D01*
X49096666Y-47770047D02*
X49096666Y-47841476D01*
X49096666Y-47841476D02*
X49072857Y-47889095D01*
X49072857Y-47889095D02*
X49049047Y-47912904D01*
X49049047Y-47912904D02*
X49001428Y-47936714D01*
X49001428Y-47936714D02*
X48810952Y-47936714D01*
X49525238Y-47841476D02*
X49525238Y-48174809D01*
X49406190Y-47651000D02*
X49287143Y-48008142D01*
X49287143Y-48008142D02*
X49596666Y-48008142D01*
X50780477Y-56434809D02*
X50542382Y-56434809D01*
X50542382Y-56434809D02*
X50518573Y-56672904D01*
X50518573Y-56672904D02*
X50542382Y-56649095D01*
X50542382Y-56649095D02*
X50590001Y-56625285D01*
X50590001Y-56625285D02*
X50709049Y-56625285D01*
X50709049Y-56625285D02*
X50756668Y-56649095D01*
X50756668Y-56649095D02*
X50780477Y-56672904D01*
X50780477Y-56672904D02*
X50804287Y-56720523D01*
X50804287Y-56720523D02*
X50804287Y-56839571D01*
X50804287Y-56839571D02*
X50780477Y-56887190D01*
X50780477Y-56887190D02*
X50756668Y-56911000D01*
X50756668Y-56911000D02*
X50709049Y-56934809D01*
X50709049Y-56934809D02*
X50590001Y-56934809D01*
X50590001Y-56934809D02*
X50542382Y-56911000D01*
X50542382Y-56911000D02*
X50518573Y-56887190D01*
X51256667Y-56434809D02*
X51018572Y-56434809D01*
X51018572Y-56434809D02*
X50994763Y-56672904D01*
X50994763Y-56672904D02*
X51018572Y-56649095D01*
X51018572Y-56649095D02*
X51066191Y-56625285D01*
X51066191Y-56625285D02*
X51185239Y-56625285D01*
X51185239Y-56625285D02*
X51232858Y-56649095D01*
X51232858Y-56649095D02*
X51256667Y-56672904D01*
X51256667Y-56672904D02*
X51280477Y-56720523D01*
X51280477Y-56720523D02*
X51280477Y-56839571D01*
X51280477Y-56839571D02*
X51256667Y-56887190D01*
X51256667Y-56887190D02*
X51232858Y-56911000D01*
X51232858Y-56911000D02*
X51185239Y-56934809D01*
X51185239Y-56934809D02*
X51066191Y-56934809D01*
X51066191Y-56934809D02*
X51018572Y-56911000D01*
X51018572Y-56911000D02*
X50994763Y-56887190D01*
X51732857Y-56434809D02*
X51494762Y-56434809D01*
X51494762Y-56434809D02*
X51470953Y-56672904D01*
X51470953Y-56672904D02*
X51494762Y-56649095D01*
X51494762Y-56649095D02*
X51542381Y-56625285D01*
X51542381Y-56625285D02*
X51661429Y-56625285D01*
X51661429Y-56625285D02*
X51709048Y-56649095D01*
X51709048Y-56649095D02*
X51732857Y-56672904D01*
X51732857Y-56672904D02*
X51756667Y-56720523D01*
X51756667Y-56720523D02*
X51756667Y-56839571D01*
X51756667Y-56839571D02*
X51732857Y-56887190D01*
X51732857Y-56887190D02*
X51709048Y-56911000D01*
X51709048Y-56911000D02*
X51661429Y-56934809D01*
X51661429Y-56934809D02*
X51542381Y-56934809D01*
X51542381Y-56934809D02*
X51494762Y-56911000D01*
X51494762Y-56911000D02*
X51470953Y-56887190D01*
X52280476Y-56434809D02*
X52566190Y-56434809D01*
X52423333Y-56934809D02*
X52423333Y-56434809D01*
X52732856Y-56934809D02*
X52732856Y-56601476D01*
X52732856Y-56434809D02*
X52709047Y-56458619D01*
X52709047Y-56458619D02*
X52732856Y-56482428D01*
X52732856Y-56482428D02*
X52756666Y-56458619D01*
X52756666Y-56458619D02*
X52732856Y-56434809D01*
X52732856Y-56434809D02*
X52732856Y-56482428D01*
X52970951Y-56934809D02*
X52970951Y-56601476D01*
X52970951Y-56649095D02*
X52994761Y-56625285D01*
X52994761Y-56625285D02*
X53042380Y-56601476D01*
X53042380Y-56601476D02*
X53113808Y-56601476D01*
X53113808Y-56601476D02*
X53161427Y-56625285D01*
X53161427Y-56625285D02*
X53185237Y-56672904D01*
X53185237Y-56672904D02*
X53185237Y-56934809D01*
X53185237Y-56672904D02*
X53209046Y-56625285D01*
X53209046Y-56625285D02*
X53256665Y-56601476D01*
X53256665Y-56601476D02*
X53328094Y-56601476D01*
X53328094Y-56601476D02*
X53375713Y-56625285D01*
X53375713Y-56625285D02*
X53399523Y-56672904D01*
X53399523Y-56672904D02*
X53399523Y-56934809D01*
X53828094Y-56911000D02*
X53780475Y-56934809D01*
X53780475Y-56934809D02*
X53685237Y-56934809D01*
X53685237Y-56934809D02*
X53637618Y-56911000D01*
X53637618Y-56911000D02*
X53613809Y-56863380D01*
X53613809Y-56863380D02*
X53613809Y-56672904D01*
X53613809Y-56672904D02*
X53637618Y-56625285D01*
X53637618Y-56625285D02*
X53685237Y-56601476D01*
X53685237Y-56601476D02*
X53780475Y-56601476D01*
X53780475Y-56601476D02*
X53828094Y-56625285D01*
X53828094Y-56625285D02*
X53851904Y-56672904D01*
X53851904Y-56672904D02*
X53851904Y-56720523D01*
X53851904Y-56720523D02*
X53613809Y-56768142D01*
X54066189Y-56934809D02*
X54066189Y-56601476D01*
X54066189Y-56696714D02*
X54089999Y-56649095D01*
X54089999Y-56649095D02*
X54113808Y-56625285D01*
X54113808Y-56625285D02*
X54161427Y-56601476D01*
X54161427Y-56601476D02*
X54209046Y-56601476D01*
X50459047Y-55304809D02*
X50459047Y-55709571D01*
X50459047Y-55709571D02*
X50482857Y-55757190D01*
X50482857Y-55757190D02*
X50506666Y-55781000D01*
X50506666Y-55781000D02*
X50554285Y-55804809D01*
X50554285Y-55804809D02*
X50649523Y-55804809D01*
X50649523Y-55804809D02*
X50697142Y-55781000D01*
X50697142Y-55781000D02*
X50720952Y-55757190D01*
X50720952Y-55757190D02*
X50744761Y-55709571D01*
X50744761Y-55709571D02*
X50744761Y-55304809D01*
X50959048Y-55352428D02*
X50982857Y-55328619D01*
X50982857Y-55328619D02*
X51030476Y-55304809D01*
X51030476Y-55304809D02*
X51149524Y-55304809D01*
X51149524Y-55304809D02*
X51197143Y-55328619D01*
X51197143Y-55328619D02*
X51220952Y-55352428D01*
X51220952Y-55352428D02*
X51244762Y-55400047D01*
X51244762Y-55400047D02*
X51244762Y-55447666D01*
X51244762Y-55447666D02*
X51220952Y-55519095D01*
X51220952Y-55519095D02*
X50935238Y-55804809D01*
X50935238Y-55804809D02*
X51244762Y-55804809D01*
X61297620Y-54484809D02*
X61607144Y-54484809D01*
X61607144Y-54484809D02*
X61440477Y-54675285D01*
X61440477Y-54675285D02*
X61511906Y-54675285D01*
X61511906Y-54675285D02*
X61559525Y-54699095D01*
X61559525Y-54699095D02*
X61583334Y-54722904D01*
X61583334Y-54722904D02*
X61607144Y-54770523D01*
X61607144Y-54770523D02*
X61607144Y-54889571D01*
X61607144Y-54889571D02*
X61583334Y-54937190D01*
X61583334Y-54937190D02*
X61559525Y-54961000D01*
X61559525Y-54961000D02*
X61511906Y-54984809D01*
X61511906Y-54984809D02*
X61369049Y-54984809D01*
X61369049Y-54984809D02*
X61321430Y-54961000D01*
X61321430Y-54961000D02*
X61297620Y-54937190D01*
X61821429Y-54937190D02*
X61845239Y-54961000D01*
X61845239Y-54961000D02*
X61821429Y-54984809D01*
X61821429Y-54984809D02*
X61797620Y-54961000D01*
X61797620Y-54961000D02*
X61821429Y-54937190D01*
X61821429Y-54937190D02*
X61821429Y-54984809D01*
X62011905Y-54484809D02*
X62321429Y-54484809D01*
X62321429Y-54484809D02*
X62154762Y-54675285D01*
X62154762Y-54675285D02*
X62226191Y-54675285D01*
X62226191Y-54675285D02*
X62273810Y-54699095D01*
X62273810Y-54699095D02*
X62297619Y-54722904D01*
X62297619Y-54722904D02*
X62321429Y-54770523D01*
X62321429Y-54770523D02*
X62321429Y-54889571D01*
X62321429Y-54889571D02*
X62297619Y-54937190D01*
X62297619Y-54937190D02*
X62273810Y-54961000D01*
X62273810Y-54961000D02*
X62226191Y-54984809D01*
X62226191Y-54984809D02*
X62083334Y-54984809D01*
X62083334Y-54984809D02*
X62035715Y-54961000D01*
X62035715Y-54961000D02*
X62011905Y-54937190D01*
X62845238Y-54484809D02*
X63011904Y-54984809D01*
X63011904Y-54984809D02*
X63178571Y-54484809D01*
X63654761Y-54484809D02*
X63821427Y-54984809D01*
X63821427Y-54984809D02*
X63988094Y-54484809D01*
X64154760Y-54937190D02*
X64178570Y-54961000D01*
X64178570Y-54961000D02*
X64154760Y-54984809D01*
X64154760Y-54984809D02*
X64130951Y-54961000D01*
X64130951Y-54961000D02*
X64154760Y-54937190D01*
X64154760Y-54937190D02*
X64154760Y-54984809D01*
X64678569Y-54984809D02*
X64511903Y-54746714D01*
X64392855Y-54984809D02*
X64392855Y-54484809D01*
X64392855Y-54484809D02*
X64583331Y-54484809D01*
X64583331Y-54484809D02*
X64630950Y-54508619D01*
X64630950Y-54508619D02*
X64654760Y-54532428D01*
X64654760Y-54532428D02*
X64678569Y-54580047D01*
X64678569Y-54580047D02*
X64678569Y-54651476D01*
X64678569Y-54651476D02*
X64654760Y-54699095D01*
X64654760Y-54699095D02*
X64630950Y-54722904D01*
X64630950Y-54722904D02*
X64583331Y-54746714D01*
X64583331Y-54746714D02*
X64392855Y-54746714D01*
X57489047Y-54454809D02*
X57489047Y-54859571D01*
X57489047Y-54859571D02*
X57512857Y-54907190D01*
X57512857Y-54907190D02*
X57536666Y-54931000D01*
X57536666Y-54931000D02*
X57584285Y-54954809D01*
X57584285Y-54954809D02*
X57679523Y-54954809D01*
X57679523Y-54954809D02*
X57727142Y-54931000D01*
X57727142Y-54931000D02*
X57750952Y-54907190D01*
X57750952Y-54907190D02*
X57774761Y-54859571D01*
X57774761Y-54859571D02*
X57774761Y-54454809D01*
X58274762Y-54954809D02*
X57989048Y-54954809D01*
X58131905Y-54954809D02*
X58131905Y-54454809D01*
X58131905Y-54454809D02*
X58084286Y-54526238D01*
X58084286Y-54526238D02*
X58036667Y-54573857D01*
X58036667Y-54573857D02*
X57989048Y-54597666D01*
X37802381Y-56074809D02*
X37516667Y-56074809D01*
X37659524Y-56074809D02*
X37659524Y-55574809D01*
X37659524Y-55574809D02*
X37611905Y-55646238D01*
X37611905Y-55646238D02*
X37564286Y-55693857D01*
X37564286Y-55693857D02*
X37516667Y-55717666D01*
X38230952Y-55741476D02*
X38230952Y-56074809D01*
X38016666Y-55741476D02*
X38016666Y-56003380D01*
X38016666Y-56003380D02*
X38040476Y-56051000D01*
X38040476Y-56051000D02*
X38088095Y-56074809D01*
X38088095Y-56074809D02*
X38159523Y-56074809D01*
X38159523Y-56074809D02*
X38207142Y-56051000D01*
X38207142Y-56051000D02*
X38230952Y-56027190D01*
X38635714Y-55812904D02*
X38469047Y-55812904D01*
X38469047Y-56074809D02*
X38469047Y-55574809D01*
X38469047Y-55574809D02*
X38707142Y-55574809D01*
X36106666Y-55957190D02*
X36082857Y-55981000D01*
X36082857Y-55981000D02*
X36011428Y-56004809D01*
X36011428Y-56004809D02*
X35963809Y-56004809D01*
X35963809Y-56004809D02*
X35892381Y-55981000D01*
X35892381Y-55981000D02*
X35844762Y-55933380D01*
X35844762Y-55933380D02*
X35820952Y-55885761D01*
X35820952Y-55885761D02*
X35797143Y-55790523D01*
X35797143Y-55790523D02*
X35797143Y-55719095D01*
X35797143Y-55719095D02*
X35820952Y-55623857D01*
X35820952Y-55623857D02*
X35844762Y-55576238D01*
X35844762Y-55576238D02*
X35892381Y-55528619D01*
X35892381Y-55528619D02*
X35963809Y-55504809D01*
X35963809Y-55504809D02*
X36011428Y-55504809D01*
X36011428Y-55504809D02*
X36082857Y-55528619D01*
X36082857Y-55528619D02*
X36106666Y-55552428D01*
X36582857Y-56004809D02*
X36297143Y-56004809D01*
X36440000Y-56004809D02*
X36440000Y-55504809D01*
X36440000Y-55504809D02*
X36392381Y-55576238D01*
X36392381Y-55576238D02*
X36344762Y-55623857D01*
X36344762Y-55623857D02*
X36297143Y-55647666D01*
X49201905Y-54614809D02*
X48963810Y-54614809D01*
X48963810Y-54614809D02*
X48940001Y-54852904D01*
X48940001Y-54852904D02*
X48963810Y-54829095D01*
X48963810Y-54829095D02*
X49011429Y-54805285D01*
X49011429Y-54805285D02*
X49130477Y-54805285D01*
X49130477Y-54805285D02*
X49178096Y-54829095D01*
X49178096Y-54829095D02*
X49201905Y-54852904D01*
X49201905Y-54852904D02*
X49225715Y-54900523D01*
X49225715Y-54900523D02*
X49225715Y-55019571D01*
X49225715Y-55019571D02*
X49201905Y-55067190D01*
X49201905Y-55067190D02*
X49178096Y-55091000D01*
X49178096Y-55091000D02*
X49130477Y-55114809D01*
X49130477Y-55114809D02*
X49011429Y-55114809D01*
X49011429Y-55114809D02*
X48963810Y-55091000D01*
X48963810Y-55091000D02*
X48940001Y-55067190D01*
X49440000Y-55067190D02*
X49463810Y-55091000D01*
X49463810Y-55091000D02*
X49440000Y-55114809D01*
X49440000Y-55114809D02*
X49416191Y-55091000D01*
X49416191Y-55091000D02*
X49440000Y-55067190D01*
X49440000Y-55067190D02*
X49440000Y-55114809D01*
X49892381Y-54614809D02*
X49797143Y-54614809D01*
X49797143Y-54614809D02*
X49749524Y-54638619D01*
X49749524Y-54638619D02*
X49725714Y-54662428D01*
X49725714Y-54662428D02*
X49678095Y-54733857D01*
X49678095Y-54733857D02*
X49654286Y-54829095D01*
X49654286Y-54829095D02*
X49654286Y-55019571D01*
X49654286Y-55019571D02*
X49678095Y-55067190D01*
X49678095Y-55067190D02*
X49701905Y-55091000D01*
X49701905Y-55091000D02*
X49749524Y-55114809D01*
X49749524Y-55114809D02*
X49844762Y-55114809D01*
X49844762Y-55114809D02*
X49892381Y-55091000D01*
X49892381Y-55091000D02*
X49916190Y-55067190D01*
X49916190Y-55067190D02*
X49940000Y-55019571D01*
X49940000Y-55019571D02*
X49940000Y-54900523D01*
X49940000Y-54900523D02*
X49916190Y-54852904D01*
X49916190Y-54852904D02*
X49892381Y-54829095D01*
X49892381Y-54829095D02*
X49844762Y-54805285D01*
X49844762Y-54805285D02*
X49749524Y-54805285D01*
X49749524Y-54805285D02*
X49701905Y-54829095D01*
X49701905Y-54829095D02*
X49678095Y-54852904D01*
X49678095Y-54852904D02*
X49654286Y-54900523D01*
X50154285Y-55114809D02*
X50154285Y-54614809D01*
X50439999Y-55114809D02*
X50225714Y-54829095D01*
X50439999Y-54614809D02*
X50154285Y-54900523D01*
X49406666Y-54254809D02*
X49240000Y-54016714D01*
X49120952Y-54254809D02*
X49120952Y-53754809D01*
X49120952Y-53754809D02*
X49311428Y-53754809D01*
X49311428Y-53754809D02*
X49359047Y-53778619D01*
X49359047Y-53778619D02*
X49382857Y-53802428D01*
X49382857Y-53802428D02*
X49406666Y-53850047D01*
X49406666Y-53850047D02*
X49406666Y-53921476D01*
X49406666Y-53921476D02*
X49382857Y-53969095D01*
X49382857Y-53969095D02*
X49359047Y-53992904D01*
X49359047Y-53992904D02*
X49311428Y-54016714D01*
X49311428Y-54016714D02*
X49120952Y-54016714D01*
X49835238Y-53754809D02*
X49740000Y-53754809D01*
X49740000Y-53754809D02*
X49692381Y-53778619D01*
X49692381Y-53778619D02*
X49668571Y-53802428D01*
X49668571Y-53802428D02*
X49620952Y-53873857D01*
X49620952Y-53873857D02*
X49597143Y-53969095D01*
X49597143Y-53969095D02*
X49597143Y-54159571D01*
X49597143Y-54159571D02*
X49620952Y-54207190D01*
X49620952Y-54207190D02*
X49644762Y-54231000D01*
X49644762Y-54231000D02*
X49692381Y-54254809D01*
X49692381Y-54254809D02*
X49787619Y-54254809D01*
X49787619Y-54254809D02*
X49835238Y-54231000D01*
X49835238Y-54231000D02*
X49859047Y-54207190D01*
X49859047Y-54207190D02*
X49882857Y-54159571D01*
X49882857Y-54159571D02*
X49882857Y-54040523D01*
X49882857Y-54040523D02*
X49859047Y-53992904D01*
X49859047Y-53992904D02*
X49835238Y-53969095D01*
X49835238Y-53969095D02*
X49787619Y-53945285D01*
X49787619Y-53945285D02*
X49692381Y-53945285D01*
X49692381Y-53945285D02*
X49644762Y-53969095D01*
X49644762Y-53969095D02*
X49620952Y-53992904D01*
X49620952Y-53992904D02*
X49597143Y-54040523D01*
X37804762Y-61304809D02*
X37519048Y-61304809D01*
X37661905Y-61304809D02*
X37661905Y-60804809D01*
X37661905Y-60804809D02*
X37614286Y-60876238D01*
X37614286Y-60876238D02*
X37566667Y-60923857D01*
X37566667Y-60923857D02*
X37519048Y-60947666D01*
X38114285Y-60804809D02*
X38161904Y-60804809D01*
X38161904Y-60804809D02*
X38209523Y-60828619D01*
X38209523Y-60828619D02*
X38233333Y-60852428D01*
X38233333Y-60852428D02*
X38257142Y-60900047D01*
X38257142Y-60900047D02*
X38280952Y-60995285D01*
X38280952Y-60995285D02*
X38280952Y-61114333D01*
X38280952Y-61114333D02*
X38257142Y-61209571D01*
X38257142Y-61209571D02*
X38233333Y-61257190D01*
X38233333Y-61257190D02*
X38209523Y-61281000D01*
X38209523Y-61281000D02*
X38161904Y-61304809D01*
X38161904Y-61304809D02*
X38114285Y-61304809D01*
X38114285Y-61304809D02*
X38066666Y-61281000D01*
X38066666Y-61281000D02*
X38042857Y-61257190D01*
X38042857Y-61257190D02*
X38019047Y-61209571D01*
X38019047Y-61209571D02*
X37995238Y-61114333D01*
X37995238Y-61114333D02*
X37995238Y-60995285D01*
X37995238Y-60995285D02*
X38019047Y-60900047D01*
X38019047Y-60900047D02*
X38042857Y-60852428D01*
X38042857Y-60852428D02*
X38066666Y-60828619D01*
X38066666Y-60828619D02*
X38114285Y-60804809D01*
X38495237Y-61304809D02*
X38495237Y-60804809D01*
X38780951Y-61304809D02*
X38566666Y-61019095D01*
X38780951Y-60804809D02*
X38495237Y-61090523D01*
X36876666Y-61314809D02*
X36710000Y-61076714D01*
X36590952Y-61314809D02*
X36590952Y-60814809D01*
X36590952Y-60814809D02*
X36781428Y-60814809D01*
X36781428Y-60814809D02*
X36829047Y-60838619D01*
X36829047Y-60838619D02*
X36852857Y-60862428D01*
X36852857Y-60862428D02*
X36876666Y-60910047D01*
X36876666Y-60910047D02*
X36876666Y-60981476D01*
X36876666Y-60981476D02*
X36852857Y-61029095D01*
X36852857Y-61029095D02*
X36829047Y-61052904D01*
X36829047Y-61052904D02*
X36781428Y-61076714D01*
X36781428Y-61076714D02*
X36590952Y-61076714D01*
X37067143Y-60862428D02*
X37090952Y-60838619D01*
X37090952Y-60838619D02*
X37138571Y-60814809D01*
X37138571Y-60814809D02*
X37257619Y-60814809D01*
X37257619Y-60814809D02*
X37305238Y-60838619D01*
X37305238Y-60838619D02*
X37329047Y-60862428D01*
X37329047Y-60862428D02*
X37352857Y-60910047D01*
X37352857Y-60910047D02*
X37352857Y-60957666D01*
X37352857Y-60957666D02*
X37329047Y-61029095D01*
X37329047Y-61029095D02*
X37043333Y-61314809D01*
X37043333Y-61314809D02*
X37352857Y-61314809D01*
X36024762Y-57704809D02*
X35739048Y-57704809D01*
X35881905Y-57704809D02*
X35881905Y-57204809D01*
X35881905Y-57204809D02*
X35834286Y-57276238D01*
X35834286Y-57276238D02*
X35786667Y-57323857D01*
X35786667Y-57323857D02*
X35739048Y-57347666D01*
X36334285Y-57204809D02*
X36381904Y-57204809D01*
X36381904Y-57204809D02*
X36429523Y-57228619D01*
X36429523Y-57228619D02*
X36453333Y-57252428D01*
X36453333Y-57252428D02*
X36477142Y-57300047D01*
X36477142Y-57300047D02*
X36500952Y-57395285D01*
X36500952Y-57395285D02*
X36500952Y-57514333D01*
X36500952Y-57514333D02*
X36477142Y-57609571D01*
X36477142Y-57609571D02*
X36453333Y-57657190D01*
X36453333Y-57657190D02*
X36429523Y-57681000D01*
X36429523Y-57681000D02*
X36381904Y-57704809D01*
X36381904Y-57704809D02*
X36334285Y-57704809D01*
X36334285Y-57704809D02*
X36286666Y-57681000D01*
X36286666Y-57681000D02*
X36262857Y-57657190D01*
X36262857Y-57657190D02*
X36239047Y-57609571D01*
X36239047Y-57609571D02*
X36215238Y-57514333D01*
X36215238Y-57514333D02*
X36215238Y-57395285D01*
X36215238Y-57395285D02*
X36239047Y-57300047D01*
X36239047Y-57300047D02*
X36262857Y-57252428D01*
X36262857Y-57252428D02*
X36286666Y-57228619D01*
X36286666Y-57228619D02*
X36334285Y-57204809D01*
X36715237Y-57704809D02*
X36715237Y-57204809D01*
X37000951Y-57704809D02*
X36786666Y-57419095D01*
X37000951Y-57204809D02*
X36715237Y-57490523D01*
X34336666Y-57704809D02*
X34170000Y-57466714D01*
X34050952Y-57704809D02*
X34050952Y-57204809D01*
X34050952Y-57204809D02*
X34241428Y-57204809D01*
X34241428Y-57204809D02*
X34289047Y-57228619D01*
X34289047Y-57228619D02*
X34312857Y-57252428D01*
X34312857Y-57252428D02*
X34336666Y-57300047D01*
X34336666Y-57300047D02*
X34336666Y-57371476D01*
X34336666Y-57371476D02*
X34312857Y-57419095D01*
X34312857Y-57419095D02*
X34289047Y-57442904D01*
X34289047Y-57442904D02*
X34241428Y-57466714D01*
X34241428Y-57466714D02*
X34050952Y-57466714D01*
X34503333Y-57204809D02*
X34812857Y-57204809D01*
X34812857Y-57204809D02*
X34646190Y-57395285D01*
X34646190Y-57395285D02*
X34717619Y-57395285D01*
X34717619Y-57395285D02*
X34765238Y-57419095D01*
X34765238Y-57419095D02*
X34789047Y-57442904D01*
X34789047Y-57442904D02*
X34812857Y-57490523D01*
X34812857Y-57490523D02*
X34812857Y-57609571D01*
X34812857Y-57609571D02*
X34789047Y-57657190D01*
X34789047Y-57657190D02*
X34765238Y-57681000D01*
X34765238Y-57681000D02*
X34717619Y-57704809D01*
X34717619Y-57704809D02*
X34574762Y-57704809D01*
X34574762Y-57704809D02*
X34527143Y-57681000D01*
X34527143Y-57681000D02*
X34503333Y-57657190D01*
X57088572Y-48144809D02*
X57136191Y-48144809D01*
X57136191Y-48144809D02*
X57183810Y-48168619D01*
X57183810Y-48168619D02*
X57207620Y-48192428D01*
X57207620Y-48192428D02*
X57231429Y-48240047D01*
X57231429Y-48240047D02*
X57255239Y-48335285D01*
X57255239Y-48335285D02*
X57255239Y-48454333D01*
X57255239Y-48454333D02*
X57231429Y-48549571D01*
X57231429Y-48549571D02*
X57207620Y-48597190D01*
X57207620Y-48597190D02*
X57183810Y-48621000D01*
X57183810Y-48621000D02*
X57136191Y-48644809D01*
X57136191Y-48644809D02*
X57088572Y-48644809D01*
X57088572Y-48644809D02*
X57040953Y-48621000D01*
X57040953Y-48621000D02*
X57017144Y-48597190D01*
X57017144Y-48597190D02*
X56993334Y-48549571D01*
X56993334Y-48549571D02*
X56969525Y-48454333D01*
X56969525Y-48454333D02*
X56969525Y-48335285D01*
X56969525Y-48335285D02*
X56993334Y-48240047D01*
X56993334Y-48240047D02*
X57017144Y-48192428D01*
X57017144Y-48192428D02*
X57040953Y-48168619D01*
X57040953Y-48168619D02*
X57088572Y-48144809D01*
X57469524Y-48597190D02*
X57493334Y-48621000D01*
X57493334Y-48621000D02*
X57469524Y-48644809D01*
X57469524Y-48644809D02*
X57445715Y-48621000D01*
X57445715Y-48621000D02*
X57469524Y-48597190D01*
X57469524Y-48597190D02*
X57469524Y-48644809D01*
X57969524Y-48644809D02*
X57683810Y-48644809D01*
X57826667Y-48644809D02*
X57826667Y-48144809D01*
X57826667Y-48144809D02*
X57779048Y-48216238D01*
X57779048Y-48216238D02*
X57731429Y-48263857D01*
X57731429Y-48263857D02*
X57683810Y-48287666D01*
X58398095Y-48311476D02*
X58398095Y-48644809D01*
X58183809Y-48311476D02*
X58183809Y-48573380D01*
X58183809Y-48573380D02*
X58207619Y-48621000D01*
X58207619Y-48621000D02*
X58255238Y-48644809D01*
X58255238Y-48644809D02*
X58326666Y-48644809D01*
X58326666Y-48644809D02*
X58374285Y-48621000D01*
X58374285Y-48621000D02*
X58398095Y-48597190D01*
X58802857Y-48382904D02*
X58636190Y-48382904D01*
X58636190Y-48644809D02*
X58636190Y-48144809D01*
X58636190Y-48144809D02*
X58874285Y-48144809D01*
X56296666Y-47937190D02*
X56272857Y-47961000D01*
X56272857Y-47961000D02*
X56201428Y-47984809D01*
X56201428Y-47984809D02*
X56153809Y-47984809D01*
X56153809Y-47984809D02*
X56082381Y-47961000D01*
X56082381Y-47961000D02*
X56034762Y-47913380D01*
X56034762Y-47913380D02*
X56010952Y-47865761D01*
X56010952Y-47865761D02*
X55987143Y-47770523D01*
X55987143Y-47770523D02*
X55987143Y-47699095D01*
X55987143Y-47699095D02*
X56010952Y-47603857D01*
X56010952Y-47603857D02*
X56034762Y-47556238D01*
X56034762Y-47556238D02*
X56082381Y-47508619D01*
X56082381Y-47508619D02*
X56153809Y-47484809D01*
X56153809Y-47484809D02*
X56201428Y-47484809D01*
X56201428Y-47484809D02*
X56272857Y-47508619D01*
X56272857Y-47508619D02*
X56296666Y-47532428D01*
X56463333Y-47484809D02*
X56772857Y-47484809D01*
X56772857Y-47484809D02*
X56606190Y-47675285D01*
X56606190Y-47675285D02*
X56677619Y-47675285D01*
X56677619Y-47675285D02*
X56725238Y-47699095D01*
X56725238Y-47699095D02*
X56749047Y-47722904D01*
X56749047Y-47722904D02*
X56772857Y-47770523D01*
X56772857Y-47770523D02*
X56772857Y-47889571D01*
X56772857Y-47889571D02*
X56749047Y-47937190D01*
X56749047Y-47937190D02*
X56725238Y-47961000D01*
X56725238Y-47961000D02*
X56677619Y-47984809D01*
X56677619Y-47984809D02*
X56534762Y-47984809D01*
X56534762Y-47984809D02*
X56487143Y-47961000D01*
X56487143Y-47961000D02*
X56463333Y-47937190D01*
X31588095Y-47124809D02*
X31683333Y-47124809D01*
X31683333Y-47124809D02*
X31730952Y-47148619D01*
X31730952Y-47148619D02*
X31778571Y-47196238D01*
X31778571Y-47196238D02*
X31802381Y-47291476D01*
X31802381Y-47291476D02*
X31802381Y-47458142D01*
X31802381Y-47458142D02*
X31778571Y-47553380D01*
X31778571Y-47553380D02*
X31730952Y-47601000D01*
X31730952Y-47601000D02*
X31683333Y-47624809D01*
X31683333Y-47624809D02*
X31588095Y-47624809D01*
X31588095Y-47624809D02*
X31540476Y-47601000D01*
X31540476Y-47601000D02*
X31492857Y-47553380D01*
X31492857Y-47553380D02*
X31469048Y-47458142D01*
X31469048Y-47458142D02*
X31469048Y-47291476D01*
X31469048Y-47291476D02*
X31492857Y-47196238D01*
X31492857Y-47196238D02*
X31540476Y-47148619D01*
X31540476Y-47148619D02*
X31588095Y-47124809D01*
X32016667Y-47624809D02*
X32016667Y-47124809D01*
X32016667Y-47124809D02*
X32207143Y-47124809D01*
X32207143Y-47124809D02*
X32254762Y-47148619D01*
X32254762Y-47148619D02*
X32278572Y-47172428D01*
X32278572Y-47172428D02*
X32302381Y-47220047D01*
X32302381Y-47220047D02*
X32302381Y-47291476D01*
X32302381Y-47291476D02*
X32278572Y-47339095D01*
X32278572Y-47339095D02*
X32254762Y-47362904D01*
X32254762Y-47362904D02*
X32207143Y-47386714D01*
X32207143Y-47386714D02*
X32016667Y-47386714D01*
X32873810Y-47481952D02*
X33111905Y-47481952D01*
X32826191Y-47624809D02*
X32992857Y-47124809D01*
X32992857Y-47124809D02*
X33159524Y-47624809D01*
X33326190Y-47624809D02*
X33326190Y-47291476D01*
X33326190Y-47339095D02*
X33350000Y-47315285D01*
X33350000Y-47315285D02*
X33397619Y-47291476D01*
X33397619Y-47291476D02*
X33469047Y-47291476D01*
X33469047Y-47291476D02*
X33516666Y-47315285D01*
X33516666Y-47315285D02*
X33540476Y-47362904D01*
X33540476Y-47362904D02*
X33540476Y-47624809D01*
X33540476Y-47362904D02*
X33564285Y-47315285D01*
X33564285Y-47315285D02*
X33611904Y-47291476D01*
X33611904Y-47291476D02*
X33683333Y-47291476D01*
X33683333Y-47291476D02*
X33730952Y-47315285D01*
X33730952Y-47315285D02*
X33754762Y-47362904D01*
X33754762Y-47362904D02*
X33754762Y-47624809D01*
X33992857Y-47291476D02*
X33992857Y-47791476D01*
X33992857Y-47315285D02*
X34040476Y-47291476D01*
X34040476Y-47291476D02*
X34135714Y-47291476D01*
X34135714Y-47291476D02*
X34183333Y-47315285D01*
X34183333Y-47315285D02*
X34207143Y-47339095D01*
X34207143Y-47339095D02*
X34230952Y-47386714D01*
X34230952Y-47386714D02*
X34230952Y-47529571D01*
X34230952Y-47529571D02*
X34207143Y-47577190D01*
X34207143Y-47577190D02*
X34183333Y-47601000D01*
X34183333Y-47601000D02*
X34135714Y-47624809D01*
X34135714Y-47624809D02*
X34040476Y-47624809D01*
X34040476Y-47624809D02*
X33992857Y-47601000D01*
X30109047Y-47134809D02*
X30109047Y-47539571D01*
X30109047Y-47539571D02*
X30132857Y-47587190D01*
X30132857Y-47587190D02*
X30156666Y-47611000D01*
X30156666Y-47611000D02*
X30204285Y-47634809D01*
X30204285Y-47634809D02*
X30299523Y-47634809D01*
X30299523Y-47634809D02*
X30347142Y-47611000D01*
X30347142Y-47611000D02*
X30370952Y-47587190D01*
X30370952Y-47587190D02*
X30394761Y-47539571D01*
X30394761Y-47539571D02*
X30394761Y-47134809D01*
X30847143Y-47301476D02*
X30847143Y-47634809D01*
X30728095Y-47111000D02*
X30609048Y-47468142D01*
X30609048Y-47468142D02*
X30918571Y-47468142D01*
X68153810Y-21008619D02*
X68106191Y-20984809D01*
X68106191Y-20984809D02*
X68034762Y-20984809D01*
X68034762Y-20984809D02*
X67963334Y-21008619D01*
X67963334Y-21008619D02*
X67915715Y-21056238D01*
X67915715Y-21056238D02*
X67891905Y-21103857D01*
X67891905Y-21103857D02*
X67868096Y-21199095D01*
X67868096Y-21199095D02*
X67868096Y-21270523D01*
X67868096Y-21270523D02*
X67891905Y-21365761D01*
X67891905Y-21365761D02*
X67915715Y-21413380D01*
X67915715Y-21413380D02*
X67963334Y-21461000D01*
X67963334Y-21461000D02*
X68034762Y-21484809D01*
X68034762Y-21484809D02*
X68082381Y-21484809D01*
X68082381Y-21484809D02*
X68153810Y-21461000D01*
X68153810Y-21461000D02*
X68177619Y-21437190D01*
X68177619Y-21437190D02*
X68177619Y-21270523D01*
X68177619Y-21270523D02*
X68082381Y-21270523D01*
X68344286Y-21151476D02*
X68463334Y-21484809D01*
X68582381Y-21151476D02*
X68463334Y-21484809D01*
X68463334Y-21484809D02*
X68415715Y-21603857D01*
X68415715Y-21603857D02*
X68391905Y-21627666D01*
X68391905Y-21627666D02*
X68344286Y-21651476D01*
X68772857Y-21484809D02*
X68772857Y-21151476D01*
X68772857Y-21246714D02*
X68796667Y-21199095D01*
X68796667Y-21199095D02*
X68820476Y-21175285D01*
X68820476Y-21175285D02*
X68868095Y-21151476D01*
X68868095Y-21151476D02*
X68915714Y-21151476D01*
X69153810Y-21484809D02*
X69106191Y-21461000D01*
X69106191Y-21461000D02*
X69082381Y-21437190D01*
X69082381Y-21437190D02*
X69058572Y-21389571D01*
X69058572Y-21389571D02*
X69058572Y-21246714D01*
X69058572Y-21246714D02*
X69082381Y-21199095D01*
X69082381Y-21199095D02*
X69106191Y-21175285D01*
X69106191Y-21175285D02*
X69153810Y-21151476D01*
X69153810Y-21151476D02*
X69225238Y-21151476D01*
X69225238Y-21151476D02*
X69272857Y-21175285D01*
X69272857Y-21175285D02*
X69296667Y-21199095D01*
X69296667Y-21199095D02*
X69320476Y-21246714D01*
X69320476Y-21246714D02*
X69320476Y-21389571D01*
X69320476Y-21389571D02*
X69296667Y-21437190D01*
X69296667Y-21437190D02*
X69272857Y-21461000D01*
X69272857Y-21461000D02*
X69225238Y-21484809D01*
X69225238Y-21484809D02*
X69153810Y-21484809D01*
X69510953Y-21461000D02*
X69558572Y-21484809D01*
X69558572Y-21484809D02*
X69653810Y-21484809D01*
X69653810Y-21484809D02*
X69701429Y-21461000D01*
X69701429Y-21461000D02*
X69725238Y-21413380D01*
X69725238Y-21413380D02*
X69725238Y-21389571D01*
X69725238Y-21389571D02*
X69701429Y-21341952D01*
X69701429Y-21341952D02*
X69653810Y-21318142D01*
X69653810Y-21318142D02*
X69582381Y-21318142D01*
X69582381Y-21318142D02*
X69534762Y-21294333D01*
X69534762Y-21294333D02*
X69510953Y-21246714D01*
X69510953Y-21246714D02*
X69510953Y-21222904D01*
X69510953Y-21222904D02*
X69534762Y-21175285D01*
X69534762Y-21175285D02*
X69582381Y-21151476D01*
X69582381Y-21151476D02*
X69653810Y-21151476D01*
X69653810Y-21151476D02*
X69701429Y-21175285D01*
X70153810Y-21461000D02*
X70106191Y-21484809D01*
X70106191Y-21484809D02*
X70010953Y-21484809D01*
X70010953Y-21484809D02*
X69963334Y-21461000D01*
X69963334Y-21461000D02*
X69939524Y-21437190D01*
X69939524Y-21437190D02*
X69915715Y-21389571D01*
X69915715Y-21389571D02*
X69915715Y-21246714D01*
X69915715Y-21246714D02*
X69939524Y-21199095D01*
X69939524Y-21199095D02*
X69963334Y-21175285D01*
X69963334Y-21175285D02*
X70010953Y-21151476D01*
X70010953Y-21151476D02*
X70106191Y-21151476D01*
X70106191Y-21151476D02*
X70153810Y-21175285D01*
X70439524Y-21484809D02*
X70391905Y-21461000D01*
X70391905Y-21461000D02*
X70368095Y-21437190D01*
X70368095Y-21437190D02*
X70344286Y-21389571D01*
X70344286Y-21389571D02*
X70344286Y-21246714D01*
X70344286Y-21246714D02*
X70368095Y-21199095D01*
X70368095Y-21199095D02*
X70391905Y-21175285D01*
X70391905Y-21175285D02*
X70439524Y-21151476D01*
X70439524Y-21151476D02*
X70510952Y-21151476D01*
X70510952Y-21151476D02*
X70558571Y-21175285D01*
X70558571Y-21175285D02*
X70582381Y-21199095D01*
X70582381Y-21199095D02*
X70606190Y-21246714D01*
X70606190Y-21246714D02*
X70606190Y-21389571D01*
X70606190Y-21389571D02*
X70582381Y-21437190D01*
X70582381Y-21437190D02*
X70558571Y-21461000D01*
X70558571Y-21461000D02*
X70510952Y-21484809D01*
X70510952Y-21484809D02*
X70439524Y-21484809D01*
X70820476Y-21151476D02*
X70820476Y-21651476D01*
X70820476Y-21175285D02*
X70868095Y-21151476D01*
X70868095Y-21151476D02*
X70963333Y-21151476D01*
X70963333Y-21151476D02*
X71010952Y-21175285D01*
X71010952Y-21175285D02*
X71034762Y-21199095D01*
X71034762Y-21199095D02*
X71058571Y-21246714D01*
X71058571Y-21246714D02*
X71058571Y-21389571D01*
X71058571Y-21389571D02*
X71034762Y-21437190D01*
X71034762Y-21437190D02*
X71010952Y-21461000D01*
X71010952Y-21461000D02*
X70963333Y-21484809D01*
X70963333Y-21484809D02*
X70868095Y-21484809D01*
X70868095Y-21484809D02*
X70820476Y-21461000D01*
X71463333Y-21461000D02*
X71415714Y-21484809D01*
X71415714Y-21484809D02*
X71320476Y-21484809D01*
X71320476Y-21484809D02*
X71272857Y-21461000D01*
X71272857Y-21461000D02*
X71249048Y-21413380D01*
X71249048Y-21413380D02*
X71249048Y-21222904D01*
X71249048Y-21222904D02*
X71272857Y-21175285D01*
X71272857Y-21175285D02*
X71320476Y-21151476D01*
X71320476Y-21151476D02*
X71415714Y-21151476D01*
X71415714Y-21151476D02*
X71463333Y-21175285D01*
X71463333Y-21175285D02*
X71487143Y-21222904D01*
X71487143Y-21222904D02*
X71487143Y-21270523D01*
X71487143Y-21270523D02*
X71249048Y-21318142D01*
X72058571Y-21461000D02*
X72129999Y-21484809D01*
X72129999Y-21484809D02*
X72249047Y-21484809D01*
X72249047Y-21484809D02*
X72296666Y-21461000D01*
X72296666Y-21461000D02*
X72320475Y-21437190D01*
X72320475Y-21437190D02*
X72344285Y-21389571D01*
X72344285Y-21389571D02*
X72344285Y-21341952D01*
X72344285Y-21341952D02*
X72320475Y-21294333D01*
X72320475Y-21294333D02*
X72296666Y-21270523D01*
X72296666Y-21270523D02*
X72249047Y-21246714D01*
X72249047Y-21246714D02*
X72153809Y-21222904D01*
X72153809Y-21222904D02*
X72106190Y-21199095D01*
X72106190Y-21199095D02*
X72082380Y-21175285D01*
X72082380Y-21175285D02*
X72058571Y-21127666D01*
X72058571Y-21127666D02*
X72058571Y-21080047D01*
X72058571Y-21080047D02*
X72082380Y-21032428D01*
X72082380Y-21032428D02*
X72106190Y-21008619D01*
X72106190Y-21008619D02*
X72153809Y-20984809D01*
X72153809Y-20984809D02*
X72272856Y-20984809D01*
X72272856Y-20984809D02*
X72344285Y-21008619D01*
X72749046Y-21461000D02*
X72701427Y-21484809D01*
X72701427Y-21484809D02*
X72606189Y-21484809D01*
X72606189Y-21484809D02*
X72558570Y-21461000D01*
X72558570Y-21461000D02*
X72534761Y-21413380D01*
X72534761Y-21413380D02*
X72534761Y-21222904D01*
X72534761Y-21222904D02*
X72558570Y-21175285D01*
X72558570Y-21175285D02*
X72606189Y-21151476D01*
X72606189Y-21151476D02*
X72701427Y-21151476D01*
X72701427Y-21151476D02*
X72749046Y-21175285D01*
X72749046Y-21175285D02*
X72772856Y-21222904D01*
X72772856Y-21222904D02*
X72772856Y-21270523D01*
X72772856Y-21270523D02*
X72534761Y-21318142D01*
X72987141Y-21151476D02*
X72987141Y-21484809D01*
X72987141Y-21199095D02*
X73010951Y-21175285D01*
X73010951Y-21175285D02*
X73058570Y-21151476D01*
X73058570Y-21151476D02*
X73129998Y-21151476D01*
X73129998Y-21151476D02*
X73177617Y-21175285D01*
X73177617Y-21175285D02*
X73201427Y-21222904D01*
X73201427Y-21222904D02*
X73201427Y-21484809D01*
X73415713Y-21461000D02*
X73463332Y-21484809D01*
X73463332Y-21484809D02*
X73558570Y-21484809D01*
X73558570Y-21484809D02*
X73606189Y-21461000D01*
X73606189Y-21461000D02*
X73629998Y-21413380D01*
X73629998Y-21413380D02*
X73629998Y-21389571D01*
X73629998Y-21389571D02*
X73606189Y-21341952D01*
X73606189Y-21341952D02*
X73558570Y-21318142D01*
X73558570Y-21318142D02*
X73487141Y-21318142D01*
X73487141Y-21318142D02*
X73439522Y-21294333D01*
X73439522Y-21294333D02*
X73415713Y-21246714D01*
X73415713Y-21246714D02*
X73415713Y-21222904D01*
X73415713Y-21222904D02*
X73439522Y-21175285D01*
X73439522Y-21175285D02*
X73487141Y-21151476D01*
X73487141Y-21151476D02*
X73558570Y-21151476D01*
X73558570Y-21151476D02*
X73606189Y-21175285D01*
X73915713Y-21484809D02*
X73868094Y-21461000D01*
X73868094Y-21461000D02*
X73844284Y-21437190D01*
X73844284Y-21437190D02*
X73820475Y-21389571D01*
X73820475Y-21389571D02*
X73820475Y-21246714D01*
X73820475Y-21246714D02*
X73844284Y-21199095D01*
X73844284Y-21199095D02*
X73868094Y-21175285D01*
X73868094Y-21175285D02*
X73915713Y-21151476D01*
X73915713Y-21151476D02*
X73987141Y-21151476D01*
X73987141Y-21151476D02*
X74034760Y-21175285D01*
X74034760Y-21175285D02*
X74058570Y-21199095D01*
X74058570Y-21199095D02*
X74082379Y-21246714D01*
X74082379Y-21246714D02*
X74082379Y-21389571D01*
X74082379Y-21389571D02*
X74058570Y-21437190D01*
X74058570Y-21437190D02*
X74034760Y-21461000D01*
X74034760Y-21461000D02*
X73987141Y-21484809D01*
X73987141Y-21484809D02*
X73915713Y-21484809D01*
X74296665Y-21484809D02*
X74296665Y-21151476D01*
X74296665Y-21246714D02*
X74320475Y-21199095D01*
X74320475Y-21199095D02*
X74344284Y-21175285D01*
X74344284Y-21175285D02*
X74391903Y-21151476D01*
X74391903Y-21151476D02*
X74439522Y-21151476D01*
X66423333Y-20964809D02*
X66423333Y-21321952D01*
X66423333Y-21321952D02*
X66399524Y-21393380D01*
X66399524Y-21393380D02*
X66351905Y-21441000D01*
X66351905Y-21441000D02*
X66280476Y-21464809D01*
X66280476Y-21464809D02*
X66232857Y-21464809D01*
X66613809Y-20964809D02*
X66923333Y-20964809D01*
X66923333Y-20964809D02*
X66756666Y-21155285D01*
X66756666Y-21155285D02*
X66828095Y-21155285D01*
X66828095Y-21155285D02*
X66875714Y-21179095D01*
X66875714Y-21179095D02*
X66899523Y-21202904D01*
X66899523Y-21202904D02*
X66923333Y-21250523D01*
X66923333Y-21250523D02*
X66923333Y-21369571D01*
X66923333Y-21369571D02*
X66899523Y-21417190D01*
X66899523Y-21417190D02*
X66875714Y-21441000D01*
X66875714Y-21441000D02*
X66828095Y-21464809D01*
X66828095Y-21464809D02*
X66685238Y-21464809D01*
X66685238Y-21464809D02*
X66637619Y-21441000D01*
X66637619Y-21441000D02*
X66613809Y-21417190D01*
X65503333Y-29394809D02*
X65503333Y-29751952D01*
X65503333Y-29751952D02*
X65479524Y-29823380D01*
X65479524Y-29823380D02*
X65431905Y-29871000D01*
X65431905Y-29871000D02*
X65360476Y-29894809D01*
X65360476Y-29894809D02*
X65312857Y-29894809D01*
X66003333Y-29894809D02*
X65717619Y-29894809D01*
X65860476Y-29894809D02*
X65860476Y-29394809D01*
X65860476Y-29394809D02*
X65812857Y-29466238D01*
X65812857Y-29466238D02*
X65765238Y-29513857D01*
X65765238Y-29513857D02*
X65717619Y-29537666D01*
X59332382Y-29894809D02*
X59332382Y-29394809D01*
X59332382Y-29394809D02*
X59522858Y-29394809D01*
X59522858Y-29394809D02*
X59570477Y-29418619D01*
X59570477Y-29418619D02*
X59594287Y-29442428D01*
X59594287Y-29442428D02*
X59618096Y-29490047D01*
X59618096Y-29490047D02*
X59618096Y-29561476D01*
X59618096Y-29561476D02*
X59594287Y-29609095D01*
X59594287Y-29609095D02*
X59570477Y-29632904D01*
X59570477Y-29632904D02*
X59522858Y-29656714D01*
X59522858Y-29656714D02*
X59332382Y-29656714D01*
X59832382Y-29894809D02*
X59832382Y-29561476D01*
X59832382Y-29394809D02*
X59808573Y-29418619D01*
X59808573Y-29418619D02*
X59832382Y-29442428D01*
X59832382Y-29442428D02*
X59856192Y-29418619D01*
X59856192Y-29418619D02*
X59832382Y-29394809D01*
X59832382Y-29394809D02*
X59832382Y-29442428D01*
X60284763Y-29871000D02*
X60237144Y-29894809D01*
X60237144Y-29894809D02*
X60141906Y-29894809D01*
X60141906Y-29894809D02*
X60094287Y-29871000D01*
X60094287Y-29871000D02*
X60070477Y-29847190D01*
X60070477Y-29847190D02*
X60046668Y-29799571D01*
X60046668Y-29799571D02*
X60046668Y-29656714D01*
X60046668Y-29656714D02*
X60070477Y-29609095D01*
X60070477Y-29609095D02*
X60094287Y-29585285D01*
X60094287Y-29585285D02*
X60141906Y-29561476D01*
X60141906Y-29561476D02*
X60237144Y-29561476D01*
X60237144Y-29561476D02*
X60284763Y-29585285D01*
X60570477Y-29894809D02*
X60522858Y-29871000D01*
X60522858Y-29871000D02*
X60499048Y-29847190D01*
X60499048Y-29847190D02*
X60475239Y-29799571D01*
X60475239Y-29799571D02*
X60475239Y-29656714D01*
X60475239Y-29656714D02*
X60499048Y-29609095D01*
X60499048Y-29609095D02*
X60522858Y-29585285D01*
X60522858Y-29585285D02*
X60570477Y-29561476D01*
X60570477Y-29561476D02*
X60641905Y-29561476D01*
X60641905Y-29561476D02*
X60689524Y-29585285D01*
X60689524Y-29585285D02*
X60713334Y-29609095D01*
X60713334Y-29609095D02*
X60737143Y-29656714D01*
X60737143Y-29656714D02*
X60737143Y-29799571D01*
X60737143Y-29799571D02*
X60713334Y-29847190D01*
X60713334Y-29847190D02*
X60689524Y-29871000D01*
X60689524Y-29871000D02*
X60641905Y-29894809D01*
X60641905Y-29894809D02*
X60570477Y-29894809D01*
X61308572Y-29871000D02*
X61380000Y-29894809D01*
X61380000Y-29894809D02*
X61499048Y-29894809D01*
X61499048Y-29894809D02*
X61546667Y-29871000D01*
X61546667Y-29871000D02*
X61570476Y-29847190D01*
X61570476Y-29847190D02*
X61594286Y-29799571D01*
X61594286Y-29799571D02*
X61594286Y-29751952D01*
X61594286Y-29751952D02*
X61570476Y-29704333D01*
X61570476Y-29704333D02*
X61546667Y-29680523D01*
X61546667Y-29680523D02*
X61499048Y-29656714D01*
X61499048Y-29656714D02*
X61403810Y-29632904D01*
X61403810Y-29632904D02*
X61356191Y-29609095D01*
X61356191Y-29609095D02*
X61332381Y-29585285D01*
X61332381Y-29585285D02*
X61308572Y-29537666D01*
X61308572Y-29537666D02*
X61308572Y-29490047D01*
X61308572Y-29490047D02*
X61332381Y-29442428D01*
X61332381Y-29442428D02*
X61356191Y-29418619D01*
X61356191Y-29418619D02*
X61403810Y-29394809D01*
X61403810Y-29394809D02*
X61522857Y-29394809D01*
X61522857Y-29394809D02*
X61594286Y-29418619D01*
X61880000Y-29894809D02*
X61832381Y-29871000D01*
X61832381Y-29871000D02*
X61808571Y-29847190D01*
X61808571Y-29847190D02*
X61784762Y-29799571D01*
X61784762Y-29799571D02*
X61784762Y-29656714D01*
X61784762Y-29656714D02*
X61808571Y-29609095D01*
X61808571Y-29609095D02*
X61832381Y-29585285D01*
X61832381Y-29585285D02*
X61880000Y-29561476D01*
X61880000Y-29561476D02*
X61951428Y-29561476D01*
X61951428Y-29561476D02*
X61999047Y-29585285D01*
X61999047Y-29585285D02*
X62022857Y-29609095D01*
X62022857Y-29609095D02*
X62046666Y-29656714D01*
X62046666Y-29656714D02*
X62046666Y-29799571D01*
X62046666Y-29799571D02*
X62022857Y-29847190D01*
X62022857Y-29847190D02*
X61999047Y-29871000D01*
X61999047Y-29871000D02*
X61951428Y-29894809D01*
X61951428Y-29894809D02*
X61880000Y-29894809D01*
X62475238Y-29871000D02*
X62427619Y-29894809D01*
X62427619Y-29894809D02*
X62332381Y-29894809D01*
X62332381Y-29894809D02*
X62284762Y-29871000D01*
X62284762Y-29871000D02*
X62260952Y-29847190D01*
X62260952Y-29847190D02*
X62237143Y-29799571D01*
X62237143Y-29799571D02*
X62237143Y-29656714D01*
X62237143Y-29656714D02*
X62260952Y-29609095D01*
X62260952Y-29609095D02*
X62284762Y-29585285D01*
X62284762Y-29585285D02*
X62332381Y-29561476D01*
X62332381Y-29561476D02*
X62427619Y-29561476D01*
X62427619Y-29561476D02*
X62475238Y-29585285D01*
X62689523Y-29894809D02*
X62689523Y-29394809D01*
X62737142Y-29704333D02*
X62879999Y-29894809D01*
X62879999Y-29561476D02*
X62689523Y-29751952D01*
X63284761Y-29871000D02*
X63237142Y-29894809D01*
X63237142Y-29894809D02*
X63141904Y-29894809D01*
X63141904Y-29894809D02*
X63094285Y-29871000D01*
X63094285Y-29871000D02*
X63070476Y-29823380D01*
X63070476Y-29823380D02*
X63070476Y-29632904D01*
X63070476Y-29632904D02*
X63094285Y-29585285D01*
X63094285Y-29585285D02*
X63141904Y-29561476D01*
X63141904Y-29561476D02*
X63237142Y-29561476D01*
X63237142Y-29561476D02*
X63284761Y-29585285D01*
X63284761Y-29585285D02*
X63308571Y-29632904D01*
X63308571Y-29632904D02*
X63308571Y-29680523D01*
X63308571Y-29680523D02*
X63070476Y-29728142D01*
X63451428Y-29561476D02*
X63641904Y-29561476D01*
X63522856Y-29394809D02*
X63522856Y-29823380D01*
X63522856Y-29823380D02*
X63546666Y-29871000D01*
X63546666Y-29871000D02*
X63594285Y-29894809D01*
X63594285Y-29894809D02*
X63641904Y-29894809D01*
X64451427Y-29894809D02*
X64165713Y-29894809D01*
X64308570Y-29894809D02*
X64308570Y-29394809D01*
X64308570Y-29394809D02*
X64260951Y-29466238D01*
X64260951Y-29466238D02*
X64213332Y-29513857D01*
X64213332Y-29513857D02*
X64165713Y-29537666D01*
X49772857Y-51084809D02*
X49487143Y-51084809D01*
X49630000Y-51084809D02*
X49630000Y-50584809D01*
X49630000Y-50584809D02*
X49582381Y-50656238D01*
X49582381Y-50656238D02*
X49534762Y-50703857D01*
X49534762Y-50703857D02*
X49487143Y-50727666D01*
X49987142Y-51084809D02*
X49987142Y-50584809D01*
X50272856Y-51084809D02*
X50058571Y-50799095D01*
X50272856Y-50584809D02*
X49987142Y-50870523D01*
X49096666Y-50434809D02*
X48930000Y-50196714D01*
X48810952Y-50434809D02*
X48810952Y-49934809D01*
X48810952Y-49934809D02*
X49001428Y-49934809D01*
X49001428Y-49934809D02*
X49049047Y-49958619D01*
X49049047Y-49958619D02*
X49072857Y-49982428D01*
X49072857Y-49982428D02*
X49096666Y-50030047D01*
X49096666Y-50030047D02*
X49096666Y-50101476D01*
X49096666Y-50101476D02*
X49072857Y-50149095D01*
X49072857Y-50149095D02*
X49049047Y-50172904D01*
X49049047Y-50172904D02*
X49001428Y-50196714D01*
X49001428Y-50196714D02*
X48810952Y-50196714D01*
X49549047Y-49934809D02*
X49310952Y-49934809D01*
X49310952Y-49934809D02*
X49287143Y-50172904D01*
X49287143Y-50172904D02*
X49310952Y-50149095D01*
X49310952Y-50149095D02*
X49358571Y-50125285D01*
X49358571Y-50125285D02*
X49477619Y-50125285D01*
X49477619Y-50125285D02*
X49525238Y-50149095D01*
X49525238Y-50149095D02*
X49549047Y-50172904D01*
X49549047Y-50172904D02*
X49572857Y-50220523D01*
X49572857Y-50220523D02*
X49572857Y-50339571D01*
X49572857Y-50339571D02*
X49549047Y-50387190D01*
X49549047Y-50387190D02*
X49525238Y-50411000D01*
X49525238Y-50411000D02*
X49477619Y-50434809D01*
X49477619Y-50434809D02*
X49358571Y-50434809D01*
X49358571Y-50434809D02*
X49310952Y-50411000D01*
X49310952Y-50411000D02*
X49287143Y-50387190D01*
X40463333Y-42694809D02*
X40463333Y-43051952D01*
X40463333Y-43051952D02*
X40439524Y-43123380D01*
X40439524Y-43123380D02*
X40391905Y-43171000D01*
X40391905Y-43171000D02*
X40320476Y-43194809D01*
X40320476Y-43194809D02*
X40272857Y-43194809D01*
X40677619Y-42742428D02*
X40701428Y-42718619D01*
X40701428Y-42718619D02*
X40749047Y-42694809D01*
X40749047Y-42694809D02*
X40868095Y-42694809D01*
X40868095Y-42694809D02*
X40915714Y-42718619D01*
X40915714Y-42718619D02*
X40939523Y-42742428D01*
X40939523Y-42742428D02*
X40963333Y-42790047D01*
X40963333Y-42790047D02*
X40963333Y-42837666D01*
X40963333Y-42837666D02*
X40939523Y-42909095D01*
X40939523Y-42909095D02*
X40653809Y-43194809D01*
X40653809Y-43194809D02*
X40963333Y-43194809D01*
X34162382Y-43184809D02*
X34162382Y-42684809D01*
X34162382Y-42684809D02*
X34352858Y-42684809D01*
X34352858Y-42684809D02*
X34400477Y-42708619D01*
X34400477Y-42708619D02*
X34424287Y-42732428D01*
X34424287Y-42732428D02*
X34448096Y-42780047D01*
X34448096Y-42780047D02*
X34448096Y-42851476D01*
X34448096Y-42851476D02*
X34424287Y-42899095D01*
X34424287Y-42899095D02*
X34400477Y-42922904D01*
X34400477Y-42922904D02*
X34352858Y-42946714D01*
X34352858Y-42946714D02*
X34162382Y-42946714D01*
X34662382Y-43184809D02*
X34662382Y-42851476D01*
X34662382Y-42684809D02*
X34638573Y-42708619D01*
X34638573Y-42708619D02*
X34662382Y-42732428D01*
X34662382Y-42732428D02*
X34686192Y-42708619D01*
X34686192Y-42708619D02*
X34662382Y-42684809D01*
X34662382Y-42684809D02*
X34662382Y-42732428D01*
X35114763Y-43161000D02*
X35067144Y-43184809D01*
X35067144Y-43184809D02*
X34971906Y-43184809D01*
X34971906Y-43184809D02*
X34924287Y-43161000D01*
X34924287Y-43161000D02*
X34900477Y-43137190D01*
X34900477Y-43137190D02*
X34876668Y-43089571D01*
X34876668Y-43089571D02*
X34876668Y-42946714D01*
X34876668Y-42946714D02*
X34900477Y-42899095D01*
X34900477Y-42899095D02*
X34924287Y-42875285D01*
X34924287Y-42875285D02*
X34971906Y-42851476D01*
X34971906Y-42851476D02*
X35067144Y-42851476D01*
X35067144Y-42851476D02*
X35114763Y-42875285D01*
X35400477Y-43184809D02*
X35352858Y-43161000D01*
X35352858Y-43161000D02*
X35329048Y-43137190D01*
X35329048Y-43137190D02*
X35305239Y-43089571D01*
X35305239Y-43089571D02*
X35305239Y-42946714D01*
X35305239Y-42946714D02*
X35329048Y-42899095D01*
X35329048Y-42899095D02*
X35352858Y-42875285D01*
X35352858Y-42875285D02*
X35400477Y-42851476D01*
X35400477Y-42851476D02*
X35471905Y-42851476D01*
X35471905Y-42851476D02*
X35519524Y-42875285D01*
X35519524Y-42875285D02*
X35543334Y-42899095D01*
X35543334Y-42899095D02*
X35567143Y-42946714D01*
X35567143Y-42946714D02*
X35567143Y-43089571D01*
X35567143Y-43089571D02*
X35543334Y-43137190D01*
X35543334Y-43137190D02*
X35519524Y-43161000D01*
X35519524Y-43161000D02*
X35471905Y-43184809D01*
X35471905Y-43184809D02*
X35400477Y-43184809D01*
X36138572Y-43161000D02*
X36210000Y-43184809D01*
X36210000Y-43184809D02*
X36329048Y-43184809D01*
X36329048Y-43184809D02*
X36376667Y-43161000D01*
X36376667Y-43161000D02*
X36400476Y-43137190D01*
X36400476Y-43137190D02*
X36424286Y-43089571D01*
X36424286Y-43089571D02*
X36424286Y-43041952D01*
X36424286Y-43041952D02*
X36400476Y-42994333D01*
X36400476Y-42994333D02*
X36376667Y-42970523D01*
X36376667Y-42970523D02*
X36329048Y-42946714D01*
X36329048Y-42946714D02*
X36233810Y-42922904D01*
X36233810Y-42922904D02*
X36186191Y-42899095D01*
X36186191Y-42899095D02*
X36162381Y-42875285D01*
X36162381Y-42875285D02*
X36138572Y-42827666D01*
X36138572Y-42827666D02*
X36138572Y-42780047D01*
X36138572Y-42780047D02*
X36162381Y-42732428D01*
X36162381Y-42732428D02*
X36186191Y-42708619D01*
X36186191Y-42708619D02*
X36233810Y-42684809D01*
X36233810Y-42684809D02*
X36352857Y-42684809D01*
X36352857Y-42684809D02*
X36424286Y-42708619D01*
X36710000Y-43184809D02*
X36662381Y-43161000D01*
X36662381Y-43161000D02*
X36638571Y-43137190D01*
X36638571Y-43137190D02*
X36614762Y-43089571D01*
X36614762Y-43089571D02*
X36614762Y-42946714D01*
X36614762Y-42946714D02*
X36638571Y-42899095D01*
X36638571Y-42899095D02*
X36662381Y-42875285D01*
X36662381Y-42875285D02*
X36710000Y-42851476D01*
X36710000Y-42851476D02*
X36781428Y-42851476D01*
X36781428Y-42851476D02*
X36829047Y-42875285D01*
X36829047Y-42875285D02*
X36852857Y-42899095D01*
X36852857Y-42899095D02*
X36876666Y-42946714D01*
X36876666Y-42946714D02*
X36876666Y-43089571D01*
X36876666Y-43089571D02*
X36852857Y-43137190D01*
X36852857Y-43137190D02*
X36829047Y-43161000D01*
X36829047Y-43161000D02*
X36781428Y-43184809D01*
X36781428Y-43184809D02*
X36710000Y-43184809D01*
X37305238Y-43161000D02*
X37257619Y-43184809D01*
X37257619Y-43184809D02*
X37162381Y-43184809D01*
X37162381Y-43184809D02*
X37114762Y-43161000D01*
X37114762Y-43161000D02*
X37090952Y-43137190D01*
X37090952Y-43137190D02*
X37067143Y-43089571D01*
X37067143Y-43089571D02*
X37067143Y-42946714D01*
X37067143Y-42946714D02*
X37090952Y-42899095D01*
X37090952Y-42899095D02*
X37114762Y-42875285D01*
X37114762Y-42875285D02*
X37162381Y-42851476D01*
X37162381Y-42851476D02*
X37257619Y-42851476D01*
X37257619Y-42851476D02*
X37305238Y-42875285D01*
X37519523Y-43184809D02*
X37519523Y-42684809D01*
X37567142Y-42994333D02*
X37709999Y-43184809D01*
X37709999Y-42851476D02*
X37519523Y-43041952D01*
X38114761Y-43161000D02*
X38067142Y-43184809D01*
X38067142Y-43184809D02*
X37971904Y-43184809D01*
X37971904Y-43184809D02*
X37924285Y-43161000D01*
X37924285Y-43161000D02*
X37900476Y-43113380D01*
X37900476Y-43113380D02*
X37900476Y-42922904D01*
X37900476Y-42922904D02*
X37924285Y-42875285D01*
X37924285Y-42875285D02*
X37971904Y-42851476D01*
X37971904Y-42851476D02*
X38067142Y-42851476D01*
X38067142Y-42851476D02*
X38114761Y-42875285D01*
X38114761Y-42875285D02*
X38138571Y-42922904D01*
X38138571Y-42922904D02*
X38138571Y-42970523D01*
X38138571Y-42970523D02*
X37900476Y-43018142D01*
X38281428Y-42851476D02*
X38471904Y-42851476D01*
X38352856Y-42684809D02*
X38352856Y-43113380D01*
X38352856Y-43113380D02*
X38376666Y-43161000D01*
X38376666Y-43161000D02*
X38424285Y-43184809D01*
X38424285Y-43184809D02*
X38471904Y-43184809D01*
X38995713Y-42732428D02*
X39019522Y-42708619D01*
X39019522Y-42708619D02*
X39067141Y-42684809D01*
X39067141Y-42684809D02*
X39186189Y-42684809D01*
X39186189Y-42684809D02*
X39233808Y-42708619D01*
X39233808Y-42708619D02*
X39257617Y-42732428D01*
X39257617Y-42732428D02*
X39281427Y-42780047D01*
X39281427Y-42780047D02*
X39281427Y-42827666D01*
X39281427Y-42827666D02*
X39257617Y-42899095D01*
X39257617Y-42899095D02*
X38971903Y-43184809D01*
X38971903Y-43184809D02*
X39281427Y-43184809D01*
X74372381Y-66294809D02*
X74086667Y-66294809D01*
X74229524Y-66294809D02*
X74229524Y-65794809D01*
X74229524Y-65794809D02*
X74181905Y-65866238D01*
X74181905Y-65866238D02*
X74134286Y-65913857D01*
X74134286Y-65913857D02*
X74086667Y-65937666D01*
X74800952Y-65961476D02*
X74800952Y-66294809D01*
X74586666Y-65961476D02*
X74586666Y-66223380D01*
X74586666Y-66223380D02*
X74610476Y-66271000D01*
X74610476Y-66271000D02*
X74658095Y-66294809D01*
X74658095Y-66294809D02*
X74729523Y-66294809D01*
X74729523Y-66294809D02*
X74777142Y-66271000D01*
X74777142Y-66271000D02*
X74800952Y-66247190D01*
X75205714Y-66032904D02*
X75039047Y-66032904D01*
X75039047Y-66294809D02*
X75039047Y-65794809D01*
X75039047Y-65794809D02*
X75277142Y-65794809D01*
X74786666Y-65437190D02*
X74762857Y-65461000D01*
X74762857Y-65461000D02*
X74691428Y-65484809D01*
X74691428Y-65484809D02*
X74643809Y-65484809D01*
X74643809Y-65484809D02*
X74572381Y-65461000D01*
X74572381Y-65461000D02*
X74524762Y-65413380D01*
X74524762Y-65413380D02*
X74500952Y-65365761D01*
X74500952Y-65365761D02*
X74477143Y-65270523D01*
X74477143Y-65270523D02*
X74477143Y-65199095D01*
X74477143Y-65199095D02*
X74500952Y-65103857D01*
X74500952Y-65103857D02*
X74524762Y-65056238D01*
X74524762Y-65056238D02*
X74572381Y-65008619D01*
X74572381Y-65008619D02*
X74643809Y-64984809D01*
X74643809Y-64984809D02*
X74691428Y-64984809D01*
X74691428Y-64984809D02*
X74762857Y-65008619D01*
X74762857Y-65008619D02*
X74786666Y-65032428D01*
X74977143Y-65032428D02*
X75000952Y-65008619D01*
X75000952Y-65008619D02*
X75048571Y-64984809D01*
X75048571Y-64984809D02*
X75167619Y-64984809D01*
X75167619Y-64984809D02*
X75215238Y-65008619D01*
X75215238Y-65008619D02*
X75239047Y-65032428D01*
X75239047Y-65032428D02*
X75262857Y-65080047D01*
X75262857Y-65080047D02*
X75262857Y-65127666D01*
X75262857Y-65127666D02*
X75239047Y-65199095D01*
X75239047Y-65199095D02*
X74953333Y-65484809D01*
X74953333Y-65484809D02*
X75262857Y-65484809D01*
X69328572Y-49944809D02*
X69042858Y-49944809D01*
X69185715Y-49944809D02*
X69185715Y-49444809D01*
X69185715Y-49444809D02*
X69138096Y-49516238D01*
X69138096Y-49516238D02*
X69090477Y-49563857D01*
X69090477Y-49563857D02*
X69042858Y-49587666D01*
X69542857Y-49944809D02*
X69542857Y-49444809D01*
X69542857Y-49444809D02*
X69828571Y-49944809D01*
X69828571Y-49944809D02*
X69828571Y-49444809D01*
X70280953Y-49611476D02*
X70280953Y-49944809D01*
X70161905Y-49421000D02*
X70042858Y-49778142D01*
X70042858Y-49778142D02*
X70352381Y-49778142D01*
X70638095Y-49444809D02*
X70685714Y-49444809D01*
X70685714Y-49444809D02*
X70733333Y-49468619D01*
X70733333Y-49468619D02*
X70757143Y-49492428D01*
X70757143Y-49492428D02*
X70780952Y-49540047D01*
X70780952Y-49540047D02*
X70804762Y-49635285D01*
X70804762Y-49635285D02*
X70804762Y-49754333D01*
X70804762Y-49754333D02*
X70780952Y-49849571D01*
X70780952Y-49849571D02*
X70757143Y-49897190D01*
X70757143Y-49897190D02*
X70733333Y-49921000D01*
X70733333Y-49921000D02*
X70685714Y-49944809D01*
X70685714Y-49944809D02*
X70638095Y-49944809D01*
X70638095Y-49944809D02*
X70590476Y-49921000D01*
X70590476Y-49921000D02*
X70566667Y-49897190D01*
X70566667Y-49897190D02*
X70542857Y-49849571D01*
X70542857Y-49849571D02*
X70519048Y-49754333D01*
X70519048Y-49754333D02*
X70519048Y-49635285D01*
X70519048Y-49635285D02*
X70542857Y-49540047D01*
X70542857Y-49540047D02*
X70566667Y-49492428D01*
X70566667Y-49492428D02*
X70590476Y-49468619D01*
X70590476Y-49468619D02*
X70638095Y-49444809D01*
X71114285Y-49444809D02*
X71161904Y-49444809D01*
X71161904Y-49444809D02*
X71209523Y-49468619D01*
X71209523Y-49468619D02*
X71233333Y-49492428D01*
X71233333Y-49492428D02*
X71257142Y-49540047D01*
X71257142Y-49540047D02*
X71280952Y-49635285D01*
X71280952Y-49635285D02*
X71280952Y-49754333D01*
X71280952Y-49754333D02*
X71257142Y-49849571D01*
X71257142Y-49849571D02*
X71233333Y-49897190D01*
X71233333Y-49897190D02*
X71209523Y-49921000D01*
X71209523Y-49921000D02*
X71161904Y-49944809D01*
X71161904Y-49944809D02*
X71114285Y-49944809D01*
X71114285Y-49944809D02*
X71066666Y-49921000D01*
X71066666Y-49921000D02*
X71042857Y-49897190D01*
X71042857Y-49897190D02*
X71019047Y-49849571D01*
X71019047Y-49849571D02*
X70995238Y-49754333D01*
X70995238Y-49754333D02*
X70995238Y-49635285D01*
X70995238Y-49635285D02*
X71019047Y-49540047D01*
X71019047Y-49540047D02*
X71042857Y-49492428D01*
X71042857Y-49492428D02*
X71066666Y-49468619D01*
X71066666Y-49468619D02*
X71114285Y-49444809D01*
X71757142Y-49944809D02*
X71471428Y-49944809D01*
X71614285Y-49944809D02*
X71614285Y-49444809D01*
X71614285Y-49444809D02*
X71566666Y-49516238D01*
X71566666Y-49516238D02*
X71519047Y-49563857D01*
X71519047Y-49563857D02*
X71471428Y-49587666D01*
X67670952Y-49954809D02*
X67670952Y-49454809D01*
X67670952Y-49454809D02*
X67790000Y-49454809D01*
X67790000Y-49454809D02*
X67861428Y-49478619D01*
X67861428Y-49478619D02*
X67909047Y-49526238D01*
X67909047Y-49526238D02*
X67932857Y-49573857D01*
X67932857Y-49573857D02*
X67956666Y-49669095D01*
X67956666Y-49669095D02*
X67956666Y-49740523D01*
X67956666Y-49740523D02*
X67932857Y-49835761D01*
X67932857Y-49835761D02*
X67909047Y-49883380D01*
X67909047Y-49883380D02*
X67861428Y-49931000D01*
X67861428Y-49931000D02*
X67790000Y-49954809D01*
X67790000Y-49954809D02*
X67670952Y-49954809D01*
X68432857Y-49954809D02*
X68147143Y-49954809D01*
X68290000Y-49954809D02*
X68290000Y-49454809D01*
X68290000Y-49454809D02*
X68242381Y-49526238D01*
X68242381Y-49526238D02*
X68194762Y-49573857D01*
X68194762Y-49573857D02*
X68147143Y-49597666D01*
X32474286Y-64134809D02*
X32188572Y-64134809D01*
X32331429Y-64134809D02*
X32331429Y-63634809D01*
X32331429Y-63634809D02*
X32283810Y-63706238D01*
X32283810Y-63706238D02*
X32236191Y-63753857D01*
X32236191Y-63753857D02*
X32188572Y-63777666D01*
X32783809Y-63634809D02*
X32831428Y-63634809D01*
X32831428Y-63634809D02*
X32879047Y-63658619D01*
X32879047Y-63658619D02*
X32902857Y-63682428D01*
X32902857Y-63682428D02*
X32926666Y-63730047D01*
X32926666Y-63730047D02*
X32950476Y-63825285D01*
X32950476Y-63825285D02*
X32950476Y-63944333D01*
X32950476Y-63944333D02*
X32926666Y-64039571D01*
X32926666Y-64039571D02*
X32902857Y-64087190D01*
X32902857Y-64087190D02*
X32879047Y-64111000D01*
X32879047Y-64111000D02*
X32831428Y-64134809D01*
X32831428Y-64134809D02*
X32783809Y-64134809D01*
X32783809Y-64134809D02*
X32736190Y-64111000D01*
X32736190Y-64111000D02*
X32712381Y-64087190D01*
X32712381Y-64087190D02*
X32688571Y-64039571D01*
X32688571Y-64039571D02*
X32664762Y-63944333D01*
X32664762Y-63944333D02*
X32664762Y-63825285D01*
X32664762Y-63825285D02*
X32688571Y-63730047D01*
X32688571Y-63730047D02*
X32712381Y-63682428D01*
X32712381Y-63682428D02*
X32736190Y-63658619D01*
X32736190Y-63658619D02*
X32783809Y-63634809D01*
X33259999Y-63634809D02*
X33307618Y-63634809D01*
X33307618Y-63634809D02*
X33355237Y-63658619D01*
X33355237Y-63658619D02*
X33379047Y-63682428D01*
X33379047Y-63682428D02*
X33402856Y-63730047D01*
X33402856Y-63730047D02*
X33426666Y-63825285D01*
X33426666Y-63825285D02*
X33426666Y-63944333D01*
X33426666Y-63944333D02*
X33402856Y-64039571D01*
X33402856Y-64039571D02*
X33379047Y-64087190D01*
X33379047Y-64087190D02*
X33355237Y-64111000D01*
X33355237Y-64111000D02*
X33307618Y-64134809D01*
X33307618Y-64134809D02*
X33259999Y-64134809D01*
X33259999Y-64134809D02*
X33212380Y-64111000D01*
X33212380Y-64111000D02*
X33188571Y-64087190D01*
X33188571Y-64087190D02*
X33164761Y-64039571D01*
X33164761Y-64039571D02*
X33140952Y-63944333D01*
X33140952Y-63944333D02*
X33140952Y-63825285D01*
X33140952Y-63825285D02*
X33164761Y-63730047D01*
X33164761Y-63730047D02*
X33188571Y-63682428D01*
X33188571Y-63682428D02*
X33212380Y-63658619D01*
X33212380Y-63658619D02*
X33259999Y-63634809D01*
X33640951Y-64134809D02*
X33640951Y-63634809D01*
X33688570Y-63944333D02*
X33831427Y-64134809D01*
X33831427Y-63801476D02*
X33640951Y-63991952D01*
X35456666Y-64134809D02*
X35290000Y-63896714D01*
X35170952Y-64134809D02*
X35170952Y-63634809D01*
X35170952Y-63634809D02*
X35361428Y-63634809D01*
X35361428Y-63634809D02*
X35409047Y-63658619D01*
X35409047Y-63658619D02*
X35432857Y-63682428D01*
X35432857Y-63682428D02*
X35456666Y-63730047D01*
X35456666Y-63730047D02*
X35456666Y-63801476D01*
X35456666Y-63801476D02*
X35432857Y-63849095D01*
X35432857Y-63849095D02*
X35409047Y-63872904D01*
X35409047Y-63872904D02*
X35361428Y-63896714D01*
X35361428Y-63896714D02*
X35170952Y-63896714D01*
X35932857Y-64134809D02*
X35647143Y-64134809D01*
X35790000Y-64134809D02*
X35790000Y-63634809D01*
X35790000Y-63634809D02*
X35742381Y-63706238D01*
X35742381Y-63706238D02*
X35694762Y-63753857D01*
X35694762Y-63753857D02*
X35647143Y-63777666D01*
D11*
%TO.C,BT1*%
X51540000Y-57900000D02*
X51540000Y-65300000D01*
X53740000Y-65700000D02*
X53740000Y-65300000D01*
X55940000Y-61100000D02*
X55940000Y-62100000D01*
X51140000Y-65700000D02*
X56340000Y-65700000D01*
X56650000Y-57190000D02*
X56650000Y-59100000D01*
X56340000Y-61100000D02*
X55940000Y-61100000D01*
X54740000Y-57190000D02*
X56650000Y-57190000D01*
X52740000Y-57900000D02*
X51540000Y-57900000D01*
X53740000Y-57500000D02*
X53740000Y-57900000D01*
X56340000Y-65700000D02*
X56340000Y-57500000D01*
X55940000Y-57900000D02*
X55940000Y-60100000D01*
X51140000Y-57500000D02*
X51140000Y-65700000D01*
X52740000Y-65300000D02*
X52740000Y-65700000D01*
X55940000Y-63100000D02*
X56340000Y-63100000D01*
X55940000Y-62100000D02*
X56340000Y-62100000D01*
X52740000Y-57500000D02*
X52740000Y-57900000D01*
X53740000Y-65300000D02*
X55940000Y-65300000D01*
X55940000Y-60100000D02*
X56340000Y-60100000D01*
X51540000Y-65300000D02*
X52740000Y-65300000D01*
X53740000Y-57900000D02*
X55940000Y-57900000D01*
X56340000Y-57500000D02*
X51140000Y-57500000D01*
X55940000Y-65300000D02*
X55940000Y-63100000D01*
%TO.C,M1*%
X48810000Y-24870000D02*
X48810000Y-22210000D01*
X43610000Y-22210000D02*
X44940000Y-22210000D01*
X43610000Y-23540000D02*
X43610000Y-22210000D01*
X46210000Y-24870000D02*
X46210000Y-22210000D01*
X46210000Y-22210000D02*
X48810000Y-22210000D01*
X46210000Y-24870000D02*
X48810000Y-24870000D01*
%TO.C,U3*%
X33530000Y-24800000D02*
X33530000Y-22140000D01*
X25790000Y-22140000D02*
X27120000Y-22140000D01*
X28390000Y-24800000D02*
X28390000Y-22140000D01*
X28390000Y-24800000D02*
X33530000Y-24800000D01*
X28390000Y-22140000D02*
X33530000Y-22140000D01*
X25790000Y-23470000D02*
X25790000Y-22140000D01*
D12*
%TO.C,S1*%
X24028000Y-58734000D02*
G75*
G03*
X24028000Y-58734000I-100000J0D01*
G01*
D13*
X30178000Y-61562000D02*
X30178000Y-63914000D01*
X25002000Y-65738000D02*
X29354000Y-65738000D01*
X25002000Y-59738000D02*
X29354000Y-59738000D01*
X24178000Y-61562000D02*
X24178000Y-63914000D01*
D11*
%TO.C,Q1*%
X69535522Y-53787522D02*
G75*
G03*
X71374000Y-58226000I1838478J-1838478D01*
G01*
X71374000Y-58226000D02*
G75*
G03*
X73212478Y-53787522I0J2600000D01*
G01*
X73174000Y-53776000D02*
X69574000Y-53776000D01*
%TO.C,R4*%
X43038000Y-48102000D02*
X46878000Y-48102000D01*
X43038000Y-49942000D02*
X46878000Y-49942000D01*
%TO.C,U2*%
X45958000Y-65800500D02*
G75*
G03*
X43958000Y-65800500I-1000000J0D01*
G01*
X39818000Y-55460500D02*
X39818000Y-65860500D01*
X39818000Y-65860500D02*
X50098000Y-65860500D01*
X42308000Y-55520500D02*
X42308000Y-65800500D01*
X42308000Y-65800500D02*
X43958000Y-65800500D01*
X45958000Y-65800500D02*
X47608000Y-65800500D01*
X47608000Y-55520500D02*
X42308000Y-55520500D01*
X47608000Y-65800500D02*
X47608000Y-55520500D01*
X50098000Y-55460500D02*
X39818000Y-55460500D01*
X50098000Y-65860500D02*
X50098000Y-55460500D01*
%TO.C,U1*%
X63474000Y-65836000D02*
G75*
G03*
X61474000Y-65836000I-1000000J0D01*
G01*
X57334000Y-55496000D02*
X57334000Y-65896000D01*
X57334000Y-65896000D02*
X67614000Y-65896000D01*
X59824000Y-55556000D02*
X59824000Y-65836000D01*
X59824000Y-65836000D02*
X61474000Y-65836000D01*
X63474000Y-65836000D02*
X65124000Y-65836000D01*
X65124000Y-55556000D02*
X59824000Y-55556000D01*
X65124000Y-65836000D02*
X65124000Y-55556000D01*
X67614000Y-55496000D02*
X57334000Y-55496000D01*
X67614000Y-65896000D02*
X67614000Y-55496000D01*
%TO.C,C1*%
X35472260Y-52622000D02*
G75*
G03*
X39711740Y-52622000I2119740J1060001D01*
G01*
X39711740Y-50502000D02*
G75*
G03*
X35472260Y-50502000I-2119740J-1060001D01*
G01*
X35279712Y-50002000D02*
X35279712Y-50452000D01*
X35054712Y-50227000D02*
X35504712Y-50227000D01*
%TO.C,R6*%
X43038000Y-52674000D02*
X46878000Y-52674000D01*
X43038000Y-54514000D02*
X46878000Y-54514000D01*
%TO.C,R2*%
X37510000Y-63400000D02*
X33670000Y-63400000D01*
X37510000Y-61560000D02*
X33670000Y-61560000D01*
%TO.C,R3*%
X33640000Y-58724500D02*
X37480000Y-58724500D01*
X33640000Y-60564500D02*
X37480000Y-60564500D01*
%TO.C,C3*%
X51818712Y-50227000D02*
X52268712Y-50227000D01*
X52043712Y-50002000D02*
X52043712Y-50452000D01*
X56475740Y-50502000D02*
G75*
G03*
X52236260Y-50502000I-2119740J-1060001D01*
G01*
X52236260Y-52622000D02*
G75*
G03*
X56475740Y-52622000I2119740J1060001D01*
G01*
%TO.C,U4*%
X23004000Y-58216000D02*
X33404000Y-58216000D01*
X33404000Y-58216000D02*
X33404000Y-47936000D01*
X23064000Y-55726000D02*
X33344000Y-55726000D01*
X33344000Y-55726000D02*
X33344000Y-50426000D01*
X23064000Y-54076000D02*
X23064000Y-55726000D01*
X23064000Y-50426000D02*
X23064000Y-52076000D01*
X33344000Y-50426000D02*
X23064000Y-50426000D01*
X23004000Y-47936000D02*
X23004000Y-58216000D01*
X33404000Y-47936000D02*
X23004000Y-47936000D01*
X23064000Y-54076000D02*
G75*
G03*
X23064000Y-52076000I0J1000000D01*
G01*
%TO.C,J3*%
X56134000Y-22292000D02*
X73974000Y-22292000D01*
X53534000Y-22292000D02*
X54864000Y-22292000D01*
X53534000Y-23622000D02*
X53534000Y-22292000D01*
X73974000Y-24952000D02*
X73974000Y-22292000D01*
X56134000Y-24952000D02*
X56134000Y-22292000D01*
X56134000Y-24952000D02*
X73974000Y-24952000D01*
%TO.C,J1*%
X71628000Y-28762000D02*
X23308000Y-28762000D01*
X74228000Y-28762000D02*
X72898000Y-28762000D01*
X74228000Y-27432000D02*
X74228000Y-28762000D01*
X23308000Y-26102000D02*
X23308000Y-28762000D01*
X71628000Y-26102000D02*
X71628000Y-28762000D01*
X71628000Y-26102000D02*
X23308000Y-26102000D01*
%TO.C,R5*%
X43038000Y-50388000D02*
X46878000Y-50388000D01*
X43038000Y-52228000D02*
X46878000Y-52228000D01*
%TO.C,J2*%
X25984200Y-43882000D02*
X74304200Y-43882000D01*
X23384200Y-43882000D02*
X24714200Y-43882000D01*
X23384200Y-45212000D02*
X23384200Y-43882000D01*
X74304200Y-46542000D02*
X74304200Y-43882000D01*
X25984200Y-46542000D02*
X25984200Y-43882000D01*
X25984200Y-46542000D02*
X74304200Y-46542000D01*
%TO.C,C2*%
X69548260Y-63438000D02*
G75*
G03*
X73787740Y-63438000I2119740J1060001D01*
G01*
X73787740Y-61318000D02*
G75*
G03*
X69548260Y-61318000I-2119740J-1060001D01*
G01*
X69355712Y-60818000D02*
X69355712Y-61268000D01*
X69130712Y-61043000D02*
X69580712Y-61043000D01*
%TO.C,D1*%
X71558000Y-51816000D02*
X70538000Y-51816000D01*
X70538000Y-53286000D02*
X70538000Y-50346000D01*
X70538000Y-50346000D02*
X65098000Y-50346000D01*
X66118000Y-50346000D02*
X66118000Y-53286000D01*
X65998000Y-50346000D02*
X65998000Y-53286000D01*
X65878000Y-50346000D02*
X65878000Y-53286000D01*
X65098000Y-53286000D02*
X70538000Y-53286000D01*
X65098000Y-50346000D02*
X65098000Y-53286000D01*
X64078000Y-51816000D02*
X65098000Y-51816000D01*
%TO.C,R1*%
X33670000Y-64380000D02*
X37510000Y-64380000D01*
X33670000Y-66220000D02*
X37510000Y-66220000D01*
%TD*%
M02*
