%TF.GenerationSoftware,KiCad,Pcbnew,7.0.7*%
%TF.CreationDate,2023-11-13T10:05:20-05:00*%
%TF.ProjectId,Capstone-board-v1,43617073-746f-46e6-952d-626f6172642d,rev?*%
%TF.SameCoordinates,Original*%
%TF.FileFunction,Copper,L1,Top*%
%TF.FilePolarity,Positive*%
%FSLAX46Y46*%
G04 Gerber Fmt 4.6, Leading zero omitted, Abs format (unit mm)*
G04 Created by KiCad (PCBNEW 7.0.7) date 2023-11-13 10:05:20*
%MOMM*%
%LPD*%
G01*
G04 APERTURE LIST*
G04 Aperture macros list*
%AMRoundRect*
0 Rectangle with rounded corners*
0 $1 Rounding radius*
0 $2 $3 $4 $5 $6 $7 $8 $9 X,Y pos of 4 corners*
0 Add a 4 corners polygon primitive as box body*
4,1,4,$2,$3,$4,$5,$6,$7,$8,$9,$2,$3,0*
0 Add four circle primitives for the rounded corners*
1,1,$1+$1,$2,$3*
1,1,$1+$1,$4,$5*
1,1,$1+$1,$6,$7*
1,1,$1+$1,$8,$9*
0 Add four rect primitives between the rounded corners*
20,1,$1+$1,$2,$3,$4,$5,0*
20,1,$1+$1,$4,$5,$6,$7,0*
20,1,$1+$1,$6,$7,$8,$9,0*
20,1,$1+$1,$8,$9,$2,$3,0*%
G04 Aperture macros list end*
%TA.AperFunction,ComponentPad*%
%ADD10RoundRect,0.250000X-0.575000X0.350000X-0.575000X-0.350000X0.575000X-0.350000X0.575000X0.350000X0*%
%TD*%
%TA.AperFunction,ComponentPad*%
%ADD11O,1.650000X1.200000*%
%TD*%
%TA.AperFunction,ComponentPad*%
%ADD12O,1.750000X1.750000*%
%TD*%
%TA.AperFunction,ComponentPad*%
%ADD13O,1.700000X1.700000*%
%TD*%
%TA.AperFunction,ComponentPad*%
%ADD14R,1.700000X1.700000*%
%TD*%
%TA.AperFunction,ComponentPad*%
%ADD15C,1.508000*%
%TD*%
%TA.AperFunction,ComponentPad*%
%ADD16R,1.508000X1.508000*%
%TD*%
%TA.AperFunction,ComponentPad*%
%ADD17O,1.050000X1.500000*%
%TD*%
%TA.AperFunction,ComponentPad*%
%ADD18R,1.050000X1.500000*%
%TD*%
%TA.AperFunction,ComponentPad*%
%ADD19C,1.400000*%
%TD*%
%TA.AperFunction,ComponentPad*%
%ADD20O,1.400000X1.400000*%
%TD*%
%TA.AperFunction,ComponentPad*%
%ADD21O,1.600000X1.600000*%
%TD*%
%TA.AperFunction,ComponentPad*%
%ADD22R,1.600000X1.600000*%
%TD*%
%TA.AperFunction,ComponentPad*%
%ADD23C,1.600000*%
%TD*%
%TA.AperFunction,ComponentPad*%
%ADD24O,2.200000X2.200000*%
%TD*%
%TA.AperFunction,ComponentPad*%
%ADD25R,2.200000X2.200000*%
%TD*%
%TA.AperFunction,Conductor*%
%ADD26C,0.250000*%
%TD*%
%TA.AperFunction,Conductor*%
%ADD27C,0.750000*%
%TD*%
G04 APERTURE END LIST*
D10*
%TO.P,BT1,1,+*%
%TO.N,VCC*%
X54740000Y-59600000D03*
D11*
%TO.P,BT1,2,-*%
%TO.N,Earth*%
X52740000Y-59600000D03*
D12*
%TO.P,BT1,3*%
%TO.N,N/C*%
X54740000Y-61600000D03*
%TO.P,BT1,4*%
X52740000Y-61600000D03*
%TO.P,BT1,5*%
X54740000Y-63600000D03*
%TO.P,BT1,6*%
X52740000Y-63600000D03*
%TD*%
D13*
%TO.P,M1,2,-*%
%TO.N,Net-(D1-A)*%
X47480000Y-23540000D03*
D14*
%TO.P,M1,1,+*%
%TO.N,Net-(D1-K)*%
X44940000Y-23540000D03*
%TD*%
D13*
%TO.P,U3,3,GND*%
%TO.N,Earth*%
X32200000Y-23470000D03*
%TO.P,U3,2,VOUT*%
%TO.N,Net-(U3-VOUT)*%
X29660000Y-23470000D03*
D14*
%TO.P,U3,1,VCC*%
%TO.N,Net-(U1-IN)*%
X27120000Y-23470000D03*
%TD*%
D15*
%TO.P,S1,4*%
%TO.N,Net-(U2-THR)*%
X30428000Y-64988000D03*
%TO.P,S1,3*%
%TO.N,unconnected-(S1-Pad3)*%
X23928000Y-64988000D03*
%TO.P,S1,2*%
%TO.N,unconnected-(S1-Pad2)*%
X30428000Y-60488000D03*
D16*
%TO.P,S1,1*%
%TO.N,Net-(C1-Pad1)*%
X23928000Y-60488000D03*
%TD*%
D17*
%TO.P,Q1,3,C*%
%TO.N,Net-(D1-A)*%
X70104000Y-55626000D03*
%TO.P,Q1,2,B*%
%TO.N,Net-(Q1-B)*%
X71374000Y-55626000D03*
D18*
%TO.P,Q1,1,E*%
%TO.N,Earth*%
X72644000Y-55626000D03*
%TD*%
D19*
%TO.P,R4,1*%
%TO.N,Net-(Q1-B)*%
X42418000Y-49022000D03*
D20*
%TO.P,R4,2*%
%TO.N,Net-(J1-Pin_17)*%
X47498000Y-49022000D03*
%TD*%
D21*
%TO.P,U2,8,VCC*%
%TO.N,VCC*%
X41148000Y-64470500D03*
%TO.P,U2,7,DIS*%
%TO.N,unconnected-(U2-DIS-Pad7)*%
X41148000Y-61930500D03*
%TO.P,U2,6,THR*%
%TO.N,Net-(U2-THR)*%
X41148000Y-59390500D03*
%TO.P,U2,5,CV*%
%TO.N,unconnected-(U2-CV-Pad5)*%
X41148000Y-56850500D03*
%TO.P,U2,4,R*%
%TO.N,VCC*%
X48768000Y-56850500D03*
%TO.P,U2,3,Q*%
%TO.N,Net-(U1-IN)*%
X48768000Y-59390500D03*
%TO.P,U2,2,TR*%
%TO.N,Net-(U2-THR)*%
X48768000Y-61930500D03*
D22*
%TO.P,U2,1,GND*%
%TO.N,Earth*%
X48768000Y-64470500D03*
%TD*%
D21*
%TO.P,U1,8,IN*%
%TO.N,Net-(U1-IN)*%
X58664000Y-64506000D03*
%TO.P,U1,7,NC*%
%TO.N,unconnected-(U1-NC-Pad7)*%
X58664000Y-61966000D03*
%TO.P,U1,6,NC*%
%TO.N,unconnected-(U1-NC-Pad6)*%
X58664000Y-59426000D03*
%TO.P,U1,5,\u002ASHDN*%
%TO.N,unconnected-(U1-\u002ASHDN-Pad5)*%
X58664000Y-56886000D03*
%TO.P,U1,4,NC*%
%TO.N,unconnected-(U1-NC-Pad4)*%
X66284000Y-56886000D03*
%TO.P,U1,3,GND*%
%TO.N,Earth*%
X66284000Y-59426000D03*
%TO.P,U1,2,NC/ADJ*%
%TO.N,unconnected-(U1-NC{slash}ADJ-Pad2)*%
X66284000Y-61966000D03*
D22*
%TO.P,U1,1,OUT*%
%TO.N,Net-(D1-K)*%
X66284000Y-64506000D03*
%TD*%
D23*
%TO.P,C1,2*%
%TO.N,Earth*%
X40092000Y-51562000D03*
D22*
%TO.P,C1,1*%
%TO.N,Net-(C1-Pad1)*%
X35092000Y-51562000D03*
%TD*%
D19*
%TO.P,R6,1*%
%TO.N,Net-(J1-Pin_20)*%
X42418000Y-53594000D03*
D20*
%TO.P,R6,2*%
%TO.N,Net-(U4--)*%
X47498000Y-53594000D03*
%TD*%
D19*
%TO.P,R2,1*%
%TO.N,Earth*%
X38130000Y-62480000D03*
D20*
%TO.P,R2,2*%
%TO.N,Net-(U2-THR)*%
X33050000Y-62480000D03*
%TD*%
D19*
%TO.P,R3,1*%
%TO.N,Net-(U2-THR)*%
X33020000Y-59644500D03*
D20*
%TO.P,R3,2*%
%TO.N,VCC*%
X38100000Y-59644500D03*
%TD*%
D22*
%TO.P,C3,1*%
%TO.N,Net-(D1-K)*%
X51856000Y-51562000D03*
D23*
%TO.P,C3,2*%
%TO.N,Net-(D1-A)*%
X56856000Y-51562000D03*
%TD*%
D22*
%TO.P,U4,1*%
%TO.N,Net-(J1-Pin_20)*%
X24394000Y-56886000D03*
D21*
%TO.P,U4,2,-*%
%TO.N,Net-(U4--)*%
X26934000Y-56886000D03*
%TO.P,U4,3,+*%
%TO.N,Net-(U3-VOUT)*%
X29474000Y-56886000D03*
%TO.P,U4,4,V-*%
%TO.N,Earth*%
X32014000Y-56886000D03*
%TO.P,U4,5*%
%TO.N,N/C*%
X32014000Y-49266000D03*
%TO.P,U4,6*%
X29474000Y-49266000D03*
%TO.P,U4,7*%
X26934000Y-49266000D03*
%TO.P,U4,8,V+*%
%TO.N,Net-(D1-K)*%
X24394000Y-49266000D03*
%TD*%
D13*
%TO.P,J3,8,Pin_8*%
%TO.N,unconnected-(J3-Pin_8-Pad8)*%
X72644000Y-23622000D03*
%TO.P,J3,7,Pin_7*%
%TO.N,unconnected-(J3-Pin_7-Pad7)*%
X70104000Y-23622000D03*
%TO.P,J3,6,Pin_6*%
%TO.N,unconnected-(J3-Pin_6-Pad6)*%
X67564000Y-23622000D03*
%TO.P,J3,5,Pin_5*%
%TO.N,unconnected-(J3-Pin_5-Pad5)*%
X65024000Y-23622000D03*
%TO.P,J3,4,Pin_4*%
%TO.N,Net-(J1-Pin_1)*%
X62484000Y-23622000D03*
%TO.P,J3,3,Pin_3*%
%TO.N,Net-(J1-Pin_2)*%
X59944000Y-23622000D03*
%TO.P,J3,2,Pin_2*%
%TO.N,Earth*%
X57404000Y-23622000D03*
D14*
%TO.P,J3,1,Pin_1*%
%TO.N,Net-(D1-K)*%
X54864000Y-23622000D03*
%TD*%
D13*
%TO.P,J1,20,Pin_20*%
%TO.N,Net-(J1-Pin_20)*%
X24638000Y-27432000D03*
%TO.P,J1,19,Pin_19*%
%TO.N,unconnected-(J1-Pin_19-Pad19)*%
X27178000Y-27432000D03*
%TO.P,J1,18,Pin_18*%
%TO.N,unconnected-(J1-Pin_18-Pad18)*%
X29718000Y-27432000D03*
%TO.P,J1,17,Pin_17*%
%TO.N,Net-(J1-Pin_17)*%
X32258000Y-27432000D03*
%TO.P,J1,16,Pin_16*%
%TO.N,unconnected-(J1-Pin_16-Pad16)*%
X34798000Y-27432000D03*
%TO.P,J1,15,Pin_15*%
%TO.N,unconnected-(J1-Pin_15-Pad15)*%
X37338000Y-27432000D03*
%TO.P,J1,14,Pin_14*%
%TO.N,unconnected-(J1-Pin_14-Pad14)*%
X39878000Y-27432000D03*
%TO.P,J1,13,Pin_13*%
%TO.N,unconnected-(J1-Pin_13-Pad13)*%
X42418000Y-27432000D03*
%TO.P,J1,12,Pin_12*%
%TO.N,unconnected-(J1-Pin_12-Pad12)*%
X44958000Y-27432000D03*
%TO.P,J1,11,Pin_11*%
%TO.N,unconnected-(J1-Pin_11-Pad11)*%
X47498000Y-27432000D03*
%TO.P,J1,10,Pin_10*%
%TO.N,unconnected-(J1-Pin_10-Pad10)*%
X50038000Y-27432000D03*
%TO.P,J1,9,Pin_9*%
%TO.N,unconnected-(J1-Pin_9-Pad9)*%
X52578000Y-27432000D03*
%TO.P,J1,8,Pin_8*%
%TO.N,unconnected-(J1-Pin_8-Pad8)*%
X55118000Y-27432000D03*
%TO.P,J1,7,Pin_7*%
%TO.N,unconnected-(J1-Pin_7-Pad7)*%
X57658000Y-27432000D03*
%TO.P,J1,6,Pin_6*%
%TO.N,unconnected-(J1-Pin_6-Pad6)*%
X60198000Y-27432000D03*
%TO.P,J1,5,Pin_5*%
%TO.N,unconnected-(J1-Pin_5-Pad5)*%
X62738000Y-27432000D03*
%TO.P,J1,4,Pin_4*%
%TO.N,unconnected-(J1-Pin_4-Pad4)*%
X65278000Y-27432000D03*
%TO.P,J1,3,Pin_3*%
%TO.N,Earth*%
X67818000Y-27432000D03*
%TO.P,J1,2,Pin_2*%
%TO.N,Net-(J1-Pin_2)*%
X70358000Y-27432000D03*
D14*
%TO.P,J1,1,Pin_1*%
%TO.N,Net-(J1-Pin_1)*%
X72898000Y-27432000D03*
%TD*%
D19*
%TO.P,R5,1*%
%TO.N,Net-(U4--)*%
X42418000Y-51308000D03*
D20*
%TO.P,R5,2*%
%TO.N,Earth*%
X47498000Y-51308000D03*
%TD*%
D13*
%TO.P,J2,20,Pin_20*%
%TO.N,unconnected-(J2-Pin_20-Pad20)*%
X72974200Y-45212000D03*
%TO.P,J2,19,Pin_19*%
%TO.N,Net-(D1-K)*%
X70434200Y-45212000D03*
%TO.P,J2,18,Pin_18*%
%TO.N,unconnected-(J2-Pin_18-Pad18)*%
X67894200Y-45212000D03*
%TO.P,J2,17,Pin_17*%
%TO.N,unconnected-(J2-Pin_17-Pad17)*%
X65354200Y-45212000D03*
%TO.P,J2,16,Pin_16*%
%TO.N,unconnected-(J2-Pin_16-Pad16)*%
X62814200Y-45212000D03*
%TO.P,J2,15,Pin_15*%
%TO.N,unconnected-(J2-Pin_15-Pad15)*%
X60274200Y-45212000D03*
%TO.P,J2,14,Pin_14*%
%TO.N,unconnected-(J2-Pin_14-Pad14)*%
X57734200Y-45212000D03*
%TO.P,J2,13,Pin_13*%
%TO.N,unconnected-(J2-Pin_13-Pad13)*%
X55194200Y-45212000D03*
%TO.P,J2,12,Pin_12*%
%TO.N,unconnected-(J2-Pin_12-Pad12)*%
X52654200Y-45212000D03*
%TO.P,J2,11,Pin_11*%
%TO.N,unconnected-(J2-Pin_11-Pad11)*%
X50114200Y-45212000D03*
%TO.P,J2,10,Pin_10*%
%TO.N,unconnected-(J2-Pin_10-Pad10)*%
X47574200Y-45212000D03*
%TO.P,J2,9,Pin_9*%
%TO.N,unconnected-(J2-Pin_9-Pad9)*%
X45034200Y-45212000D03*
%TO.P,J2,8,Pin_8*%
%TO.N,unconnected-(J2-Pin_8-Pad8)*%
X42494200Y-45212000D03*
%TO.P,J2,7,Pin_7*%
%TO.N,unconnected-(J2-Pin_7-Pad7)*%
X39954200Y-45212000D03*
%TO.P,J2,6,Pin_6*%
%TO.N,unconnected-(J2-Pin_6-Pad6)*%
X37414200Y-45212000D03*
%TO.P,J2,5,Pin_5*%
%TO.N,unconnected-(J2-Pin_5-Pad5)*%
X34874200Y-45212000D03*
%TO.P,J2,4,Pin_4*%
%TO.N,unconnected-(J2-Pin_4-Pad4)*%
X32334200Y-45212000D03*
%TO.P,J2,3,Pin_3*%
%TO.N,unconnected-(J2-Pin_3-Pad3)*%
X29794200Y-45212000D03*
%TO.P,J2,2,Pin_2*%
%TO.N,unconnected-(J2-Pin_2-Pad2)*%
X27254200Y-45212000D03*
D14*
%TO.P,J2,1,Pin_1*%
%TO.N,unconnected-(J2-Pin_1-Pad1)*%
X24714200Y-45212000D03*
%TD*%
D23*
%TO.P,C2,2*%
%TO.N,Earth*%
X74168000Y-62378000D03*
D22*
%TO.P,C2,1*%
%TO.N,Net-(D1-K)*%
X69168000Y-62378000D03*
%TD*%
D24*
%TO.P,D1,2,A*%
%TO.N,Net-(D1-A)*%
X72898000Y-51816000D03*
D25*
%TO.P,D1,1,K*%
%TO.N,Net-(D1-K)*%
X62738000Y-51816000D03*
%TD*%
D19*
%TO.P,R1,1*%
%TO.N,Net-(C1-Pad1)*%
X33050000Y-65300000D03*
D20*
%TO.P,R1,2*%
%TO.N,Net-(U1-IN)*%
X38130000Y-65300000D03*
%TD*%
D26*
%TO.N,Net-(D1-K)*%
X70510000Y-63720000D02*
X69168000Y-62378000D01*
X75540000Y-63720000D02*
X70510000Y-63720000D01*
X75540000Y-50317800D02*
X75540000Y-63720000D01*
X70434200Y-45212000D02*
X75540000Y-50317800D01*
D27*
%TO.N,VCC*%
X52660000Y-57520000D02*
X54740000Y-59600000D01*
X49270450Y-56850500D02*
X49939950Y-57520000D01*
X49939950Y-57520000D02*
X52660000Y-57520000D01*
X48768000Y-56850500D02*
X49270450Y-56850500D01*
D26*
%TO.N,Earth*%
X50030000Y-65120000D02*
X50030000Y-62540000D01*
X56410000Y-62270000D02*
X56410000Y-65120000D01*
X57974000Y-60706000D02*
X56410000Y-62270000D01*
X56410000Y-65120000D02*
X50030000Y-65120000D01*
X65004000Y-60706000D02*
X57974000Y-60706000D01*
X66284000Y-59426000D02*
X65004000Y-60706000D01*
X50030000Y-62540000D02*
X48768000Y-63802000D01*
X50030000Y-62310000D02*
X50030000Y-62540000D01*
X48768000Y-63802000D02*
X48768000Y-64470500D01*
X52740000Y-59600000D02*
X50030000Y-62310000D01*
%TO.N,Net-(D1-K)*%
X44940000Y-23890000D02*
X44940000Y-23540000D01*
X46910000Y-25860000D02*
X44940000Y-23890000D01*
D27*
%TO.N,VCC*%
X48053000Y-57565500D02*
X42668456Y-57565500D01*
X42670000Y-57563956D02*
X42670000Y-55370000D01*
X38100000Y-57150000D02*
X38100000Y-59644500D01*
X48768000Y-56850500D02*
X48053000Y-57565500D01*
X39880000Y-55370000D02*
X38100000Y-57150000D01*
X42670000Y-55370000D02*
X39880000Y-55370000D01*
X42668456Y-57565500D02*
X42670000Y-57563956D01*
D26*
%TO.N,Earth*%
X42959949Y-54670000D02*
X41970000Y-54670000D01*
X27662000Y-66380000D02*
X22660000Y-61378000D01*
X32014000Y-56886000D02*
X32014000Y-52390000D01*
X41970000Y-54670000D02*
X40092000Y-52792000D01*
X70114000Y-59426000D02*
X72644000Y-56896000D01*
X30820000Y-58080000D02*
X32014000Y-56886000D01*
X43069949Y-54780000D02*
X42959949Y-54670000D01*
X74168000Y-57150000D02*
X72644000Y-55626000D01*
X48640000Y-52450000D02*
X48640000Y-54780000D01*
X40092000Y-52792000D02*
X40092000Y-51562000D01*
X38130000Y-62480000D02*
X34230000Y-66380000D01*
X66284000Y-59426000D02*
X70114000Y-59426000D01*
X24481000Y-58959000D02*
X25360000Y-58080000D01*
X72644000Y-56896000D02*
X72644000Y-55626000D01*
X25360000Y-58080000D02*
X30820000Y-58080000D01*
X74168000Y-62378000D02*
X74168000Y-57150000D01*
X32014000Y-52390000D02*
X34184000Y-50220000D01*
X47498000Y-51308000D02*
X48640000Y-52450000D01*
X34184000Y-50220000D02*
X38750000Y-50220000D01*
X48640000Y-54780000D02*
X43069949Y-54780000D01*
X38750000Y-50220000D02*
X40092000Y-51562000D01*
X34230000Y-66380000D02*
X27662000Y-66380000D01*
X22660000Y-58959000D02*
X24481000Y-58959000D01*
X22660000Y-61378000D02*
X22660000Y-58959000D01*
%TO.N,Net-(C1-Pad1)*%
X33050000Y-65300000D02*
X35092000Y-63258000D01*
X35092000Y-63258000D02*
X35092000Y-58420000D01*
X31370000Y-59340000D02*
X32290000Y-58420000D01*
X35092000Y-58420000D02*
X35092000Y-51562000D01*
X32906500Y-64988000D02*
X33008000Y-64886500D01*
X23928000Y-60488000D02*
X25076000Y-59340000D01*
X25076000Y-59340000D02*
X31370000Y-59340000D01*
X32290000Y-58420000D02*
X35092000Y-58420000D01*
%TO.N,Net-(D1-K)*%
X70434200Y-45212000D02*
X71620000Y-44026200D01*
X56350000Y-50330000D02*
X61252000Y-50330000D01*
X48064000Y-47770000D02*
X51856000Y-51562000D01*
X71370000Y-22190000D02*
X56296000Y-22190000D01*
X25570000Y-48090000D02*
X41360000Y-48090000D01*
X63830200Y-51816000D02*
X70434200Y-45212000D01*
X71620000Y-44026200D02*
X71620000Y-24410000D01*
X61252000Y-50330000D02*
X62738000Y-51816000D01*
X56296000Y-22190000D02*
X54864000Y-23622000D01*
X41360000Y-48090000D02*
X41680000Y-47770000D01*
X55118000Y-51562000D02*
X56350000Y-50330000D01*
X67040000Y-64506000D02*
X69168000Y-62378000D01*
X51856000Y-51562000D02*
X55118000Y-51562000D01*
X54864000Y-25860000D02*
X46910000Y-25860000D01*
X41680000Y-47770000D02*
X48064000Y-47770000D01*
X66284000Y-64506000D02*
X67040000Y-64506000D01*
X71620000Y-24410000D02*
X71370000Y-24160000D01*
X54864000Y-23622000D02*
X54864000Y-25860000D01*
X62738000Y-51816000D02*
X63830200Y-51816000D01*
X71370000Y-24160000D02*
X71370000Y-22190000D01*
X24394000Y-49266000D02*
X25570000Y-48090000D01*
%TO.N,Net-(D1-A)*%
X67948000Y-53470000D02*
X58764000Y-53470000D01*
X70104000Y-54610000D02*
X72898000Y-51816000D01*
X70104000Y-55626000D02*
X67948000Y-53470000D01*
X70104000Y-55626000D02*
X70104000Y-54610000D01*
X58764000Y-53470000D02*
X56856000Y-51562000D01*
%TO.N,Net-(J1-Pin_2)*%
X59944000Y-23622000D02*
X62432000Y-26110000D01*
X69036000Y-26110000D02*
X70358000Y-27432000D01*
X62432000Y-26110000D02*
X69036000Y-26110000D01*
%TO.N,Net-(Q1-B)*%
X71374000Y-56136000D02*
X71374000Y-55626000D01*
X70095000Y-57415000D02*
X71374000Y-56136000D01*
X42418000Y-49022000D02*
X45842000Y-49022000D01*
X45842000Y-49022000D02*
X46950000Y-50130000D01*
X68306000Y-55626000D02*
X70095000Y-57415000D01*
X48174000Y-50130000D02*
X53670000Y-55626000D01*
X46950000Y-50130000D02*
X48174000Y-50130000D01*
X53670000Y-55626000D02*
X68306000Y-55626000D01*
%TO.N,Net-(U2-THR)*%
X40894000Y-59644500D02*
X41148000Y-59390500D01*
X50090000Y-58660000D02*
X49520000Y-58090000D01*
X33050000Y-59674500D02*
X33020000Y-59644500D01*
X50090000Y-60608500D02*
X50090000Y-58660000D01*
X30428000Y-64988000D02*
X32936000Y-62480000D01*
X49520000Y-58090000D02*
X48518450Y-58090000D01*
X48768000Y-61930500D02*
X50090000Y-60608500D01*
X32936000Y-62480000D02*
X33050000Y-62480000D01*
X48342949Y-58265500D02*
X42378507Y-58265500D01*
X30428000Y-64776500D02*
X30428000Y-64988000D01*
X33050000Y-62480000D02*
X33050000Y-59674500D01*
X48518450Y-58090000D02*
X48342949Y-58265500D01*
X42325753Y-58212747D02*
X41148000Y-59390500D01*
X42378507Y-58265500D02*
X42325753Y-58212747D01*
X33020000Y-62396000D02*
X33020000Y-62184500D01*
%TO.N,Net-(U1-IN)*%
X48768000Y-59481500D02*
X48768000Y-59390500D01*
X48629500Y-59390500D02*
X48768000Y-59390500D01*
%TO.N,Net-(U4--)*%
X28059000Y-55761000D02*
X28059000Y-55708604D01*
X26934000Y-56886000D02*
X28059000Y-55761000D01*
X42418000Y-51308000D02*
X44704000Y-53594000D01*
X40740000Y-49630000D02*
X42418000Y-51308000D01*
X44704000Y-53594000D02*
X47498000Y-53594000D01*
X34137604Y-49630000D02*
X40740000Y-49630000D01*
X28059000Y-55708604D02*
X34137604Y-49630000D01*
%TD*%
M02*
