%TF.GenerationSoftware,KiCad,Pcbnew,7.0.7*%
%TF.CreationDate,2023-10-20T12:33:54-04:00*%
%TF.ProjectId,Capstone-board-v1,43617073-746f-46e6-952d-626f6172642d,rev?*%
%TF.SameCoordinates,Original*%
%TF.FileFunction,Legend,Top*%
%TF.FilePolarity,Positive*%
%FSLAX46Y46*%
G04 Gerber Fmt 4.6, Leading zero omitted, Abs format (unit mm)*
G04 Created by KiCad (PCBNEW 7.0.7) date 2023-10-20 12:33:54*
%MOMM*%
%LPD*%
G01*
G04 APERTURE LIST*
%ADD10C,0.125000*%
%ADD11C,0.120000*%
%ADD12C,0.127000*%
%ADD13C,0.200000*%
G04 APERTURE END LIST*
D10*
X29703338Y-20467190D02*
X29679529Y-20491000D01*
X29679529Y-20491000D02*
X29608100Y-20514809D01*
X29608100Y-20514809D02*
X29560481Y-20514809D01*
X29560481Y-20514809D02*
X29489053Y-20491000D01*
X29489053Y-20491000D02*
X29441434Y-20443380D01*
X29441434Y-20443380D02*
X29417624Y-20395761D01*
X29417624Y-20395761D02*
X29393815Y-20300523D01*
X29393815Y-20300523D02*
X29393815Y-20229095D01*
X29393815Y-20229095D02*
X29417624Y-20133857D01*
X29417624Y-20133857D02*
X29441434Y-20086238D01*
X29441434Y-20086238D02*
X29489053Y-20038619D01*
X29489053Y-20038619D02*
X29560481Y-20014809D01*
X29560481Y-20014809D02*
X29608100Y-20014809D01*
X29608100Y-20014809D02*
X29679529Y-20038619D01*
X29679529Y-20038619D02*
X29703338Y-20062428D01*
X30131910Y-20514809D02*
X30131910Y-20252904D01*
X30131910Y-20252904D02*
X30108100Y-20205285D01*
X30108100Y-20205285D02*
X30060481Y-20181476D01*
X30060481Y-20181476D02*
X29965243Y-20181476D01*
X29965243Y-20181476D02*
X29917624Y-20205285D01*
X30131910Y-20491000D02*
X30084291Y-20514809D01*
X30084291Y-20514809D02*
X29965243Y-20514809D01*
X29965243Y-20514809D02*
X29917624Y-20491000D01*
X29917624Y-20491000D02*
X29893815Y-20443380D01*
X29893815Y-20443380D02*
X29893815Y-20395761D01*
X29893815Y-20395761D02*
X29917624Y-20348142D01*
X29917624Y-20348142D02*
X29965243Y-20324333D01*
X29965243Y-20324333D02*
X30084291Y-20324333D01*
X30084291Y-20324333D02*
X30131910Y-20300523D01*
X30370005Y-20181476D02*
X30370005Y-20681476D01*
X30370005Y-20205285D02*
X30417624Y-20181476D01*
X30417624Y-20181476D02*
X30512862Y-20181476D01*
X30512862Y-20181476D02*
X30560481Y-20205285D01*
X30560481Y-20205285D02*
X30584291Y-20229095D01*
X30584291Y-20229095D02*
X30608100Y-20276714D01*
X30608100Y-20276714D02*
X30608100Y-20419571D01*
X30608100Y-20419571D02*
X30584291Y-20467190D01*
X30584291Y-20467190D02*
X30560481Y-20491000D01*
X30560481Y-20491000D02*
X30512862Y-20514809D01*
X30512862Y-20514809D02*
X30417624Y-20514809D01*
X30417624Y-20514809D02*
X30370005Y-20491000D01*
X30798577Y-20491000D02*
X30846196Y-20514809D01*
X30846196Y-20514809D02*
X30941434Y-20514809D01*
X30941434Y-20514809D02*
X30989053Y-20491000D01*
X30989053Y-20491000D02*
X31012862Y-20443380D01*
X31012862Y-20443380D02*
X31012862Y-20419571D01*
X31012862Y-20419571D02*
X30989053Y-20371952D01*
X30989053Y-20371952D02*
X30941434Y-20348142D01*
X30941434Y-20348142D02*
X30870005Y-20348142D01*
X30870005Y-20348142D02*
X30822386Y-20324333D01*
X30822386Y-20324333D02*
X30798577Y-20276714D01*
X30798577Y-20276714D02*
X30798577Y-20252904D01*
X30798577Y-20252904D02*
X30822386Y-20205285D01*
X30822386Y-20205285D02*
X30870005Y-20181476D01*
X30870005Y-20181476D02*
X30941434Y-20181476D01*
X30941434Y-20181476D02*
X30989053Y-20205285D01*
X31155720Y-20181476D02*
X31346196Y-20181476D01*
X31227148Y-20014809D02*
X31227148Y-20443380D01*
X31227148Y-20443380D02*
X31250958Y-20491000D01*
X31250958Y-20491000D02*
X31298577Y-20514809D01*
X31298577Y-20514809D02*
X31346196Y-20514809D01*
X31584291Y-20514809D02*
X31536672Y-20491000D01*
X31536672Y-20491000D02*
X31512862Y-20467190D01*
X31512862Y-20467190D02*
X31489053Y-20419571D01*
X31489053Y-20419571D02*
X31489053Y-20276714D01*
X31489053Y-20276714D02*
X31512862Y-20229095D01*
X31512862Y-20229095D02*
X31536672Y-20205285D01*
X31536672Y-20205285D02*
X31584291Y-20181476D01*
X31584291Y-20181476D02*
X31655719Y-20181476D01*
X31655719Y-20181476D02*
X31703338Y-20205285D01*
X31703338Y-20205285D02*
X31727148Y-20229095D01*
X31727148Y-20229095D02*
X31750957Y-20276714D01*
X31750957Y-20276714D02*
X31750957Y-20419571D01*
X31750957Y-20419571D02*
X31727148Y-20467190D01*
X31727148Y-20467190D02*
X31703338Y-20491000D01*
X31703338Y-20491000D02*
X31655719Y-20514809D01*
X31655719Y-20514809D02*
X31584291Y-20514809D01*
X31965243Y-20181476D02*
X31965243Y-20514809D01*
X31965243Y-20229095D02*
X31989053Y-20205285D01*
X31989053Y-20205285D02*
X32036672Y-20181476D01*
X32036672Y-20181476D02*
X32108100Y-20181476D01*
X32108100Y-20181476D02*
X32155719Y-20205285D01*
X32155719Y-20205285D02*
X32179529Y-20252904D01*
X32179529Y-20252904D02*
X32179529Y-20514809D01*
X32608100Y-20491000D02*
X32560481Y-20514809D01*
X32560481Y-20514809D02*
X32465243Y-20514809D01*
X32465243Y-20514809D02*
X32417624Y-20491000D01*
X32417624Y-20491000D02*
X32393815Y-20443380D01*
X32393815Y-20443380D02*
X32393815Y-20252904D01*
X32393815Y-20252904D02*
X32417624Y-20205285D01*
X32417624Y-20205285D02*
X32465243Y-20181476D01*
X32465243Y-20181476D02*
X32560481Y-20181476D01*
X32560481Y-20181476D02*
X32608100Y-20205285D01*
X32608100Y-20205285D02*
X32631910Y-20252904D01*
X32631910Y-20252904D02*
X32631910Y-20300523D01*
X32631910Y-20300523D02*
X32393815Y-20348142D01*
X33393814Y-20252904D02*
X33227147Y-20252904D01*
X33227147Y-20514809D02*
X33227147Y-20014809D01*
X33227147Y-20014809D02*
X33465242Y-20014809D01*
X33870004Y-20514809D02*
X33870004Y-20252904D01*
X33870004Y-20252904D02*
X33846194Y-20205285D01*
X33846194Y-20205285D02*
X33798575Y-20181476D01*
X33798575Y-20181476D02*
X33703337Y-20181476D01*
X33703337Y-20181476D02*
X33655718Y-20205285D01*
X33870004Y-20491000D02*
X33822385Y-20514809D01*
X33822385Y-20514809D02*
X33703337Y-20514809D01*
X33703337Y-20514809D02*
X33655718Y-20491000D01*
X33655718Y-20491000D02*
X33631909Y-20443380D01*
X33631909Y-20443380D02*
X33631909Y-20395761D01*
X33631909Y-20395761D02*
X33655718Y-20348142D01*
X33655718Y-20348142D02*
X33703337Y-20324333D01*
X33703337Y-20324333D02*
X33822385Y-20324333D01*
X33822385Y-20324333D02*
X33870004Y-20300523D01*
X34179528Y-20514809D02*
X34131909Y-20491000D01*
X34131909Y-20491000D02*
X34108099Y-20443380D01*
X34108099Y-20443380D02*
X34108099Y-20014809D01*
X34441433Y-20514809D02*
X34393814Y-20491000D01*
X34393814Y-20491000D02*
X34370004Y-20443380D01*
X34370004Y-20443380D02*
X34370004Y-20014809D01*
X34989052Y-20062428D02*
X35012861Y-20038619D01*
X35012861Y-20038619D02*
X35060480Y-20014809D01*
X35060480Y-20014809D02*
X35179528Y-20014809D01*
X35179528Y-20014809D02*
X35227147Y-20038619D01*
X35227147Y-20038619D02*
X35250956Y-20062428D01*
X35250956Y-20062428D02*
X35274766Y-20110047D01*
X35274766Y-20110047D02*
X35274766Y-20157666D01*
X35274766Y-20157666D02*
X35250956Y-20229095D01*
X35250956Y-20229095D02*
X34965242Y-20514809D01*
X34965242Y-20514809D02*
X35274766Y-20514809D01*
X35584289Y-20014809D02*
X35631908Y-20014809D01*
X35631908Y-20014809D02*
X35679527Y-20038619D01*
X35679527Y-20038619D02*
X35703337Y-20062428D01*
X35703337Y-20062428D02*
X35727146Y-20110047D01*
X35727146Y-20110047D02*
X35750956Y-20205285D01*
X35750956Y-20205285D02*
X35750956Y-20324333D01*
X35750956Y-20324333D02*
X35727146Y-20419571D01*
X35727146Y-20419571D02*
X35703337Y-20467190D01*
X35703337Y-20467190D02*
X35679527Y-20491000D01*
X35679527Y-20491000D02*
X35631908Y-20514809D01*
X35631908Y-20514809D02*
X35584289Y-20514809D01*
X35584289Y-20514809D02*
X35536670Y-20491000D01*
X35536670Y-20491000D02*
X35512861Y-20467190D01*
X35512861Y-20467190D02*
X35489051Y-20419571D01*
X35489051Y-20419571D02*
X35465242Y-20324333D01*
X35465242Y-20324333D02*
X35465242Y-20205285D01*
X35465242Y-20205285D02*
X35489051Y-20110047D01*
X35489051Y-20110047D02*
X35512861Y-20062428D01*
X35512861Y-20062428D02*
X35536670Y-20038619D01*
X35536670Y-20038619D02*
X35584289Y-20014809D01*
X35941432Y-20062428D02*
X35965241Y-20038619D01*
X35965241Y-20038619D02*
X36012860Y-20014809D01*
X36012860Y-20014809D02*
X36131908Y-20014809D01*
X36131908Y-20014809D02*
X36179527Y-20038619D01*
X36179527Y-20038619D02*
X36203336Y-20062428D01*
X36203336Y-20062428D02*
X36227146Y-20110047D01*
X36227146Y-20110047D02*
X36227146Y-20157666D01*
X36227146Y-20157666D02*
X36203336Y-20229095D01*
X36203336Y-20229095D02*
X35917622Y-20514809D01*
X35917622Y-20514809D02*
X36227146Y-20514809D01*
X36393812Y-20014809D02*
X36703336Y-20014809D01*
X36703336Y-20014809D02*
X36536669Y-20205285D01*
X36536669Y-20205285D02*
X36608098Y-20205285D01*
X36608098Y-20205285D02*
X36655717Y-20229095D01*
X36655717Y-20229095D02*
X36679526Y-20252904D01*
X36679526Y-20252904D02*
X36703336Y-20300523D01*
X36703336Y-20300523D02*
X36703336Y-20419571D01*
X36703336Y-20419571D02*
X36679526Y-20467190D01*
X36679526Y-20467190D02*
X36655717Y-20491000D01*
X36655717Y-20491000D02*
X36608098Y-20514809D01*
X36608098Y-20514809D02*
X36465241Y-20514809D01*
X36465241Y-20514809D02*
X36417622Y-20491000D01*
X36417622Y-20491000D02*
X36393812Y-20467190D01*
X36917621Y-20467190D02*
X36941431Y-20491000D01*
X36941431Y-20491000D02*
X36917621Y-20514809D01*
X36917621Y-20514809D02*
X36893812Y-20491000D01*
X36893812Y-20491000D02*
X36917621Y-20467190D01*
X36917621Y-20467190D02*
X36917621Y-20514809D01*
X36917621Y-20205285D02*
X36941431Y-20229095D01*
X36941431Y-20229095D02*
X36917621Y-20252904D01*
X36917621Y-20252904D02*
X36893812Y-20229095D01*
X36893812Y-20229095D02*
X36917621Y-20205285D01*
X36917621Y-20205285D02*
X36917621Y-20252904D01*
X37536668Y-20252904D02*
X37703335Y-20252904D01*
X37774763Y-20514809D02*
X37536668Y-20514809D01*
X37536668Y-20514809D02*
X37536668Y-20014809D01*
X37536668Y-20014809D02*
X37774763Y-20014809D01*
X37989049Y-20181476D02*
X37989049Y-20681476D01*
X37989049Y-20205285D02*
X38036668Y-20181476D01*
X38036668Y-20181476D02*
X38131906Y-20181476D01*
X38131906Y-20181476D02*
X38179525Y-20205285D01*
X38179525Y-20205285D02*
X38203335Y-20229095D01*
X38203335Y-20229095D02*
X38227144Y-20276714D01*
X38227144Y-20276714D02*
X38227144Y-20419571D01*
X38227144Y-20419571D02*
X38203335Y-20467190D01*
X38203335Y-20467190D02*
X38179525Y-20491000D01*
X38179525Y-20491000D02*
X38131906Y-20514809D01*
X38131906Y-20514809D02*
X38036668Y-20514809D01*
X38036668Y-20514809D02*
X37989049Y-20491000D01*
X38441430Y-20514809D02*
X38441430Y-20181476D01*
X38441430Y-20014809D02*
X38417621Y-20038619D01*
X38417621Y-20038619D02*
X38441430Y-20062428D01*
X38441430Y-20062428D02*
X38465240Y-20038619D01*
X38465240Y-20038619D02*
X38441430Y-20014809D01*
X38441430Y-20014809D02*
X38441430Y-20062428D01*
X38608097Y-20181476D02*
X38798573Y-20181476D01*
X38679525Y-20014809D02*
X38679525Y-20443380D01*
X38679525Y-20443380D02*
X38703335Y-20491000D01*
X38703335Y-20491000D02*
X38750954Y-20514809D01*
X38750954Y-20514809D02*
X38798573Y-20514809D01*
X39036668Y-20514809D02*
X38989049Y-20491000D01*
X38989049Y-20491000D02*
X38965239Y-20467190D01*
X38965239Y-20467190D02*
X38941430Y-20419571D01*
X38941430Y-20419571D02*
X38941430Y-20276714D01*
X38941430Y-20276714D02*
X38965239Y-20229095D01*
X38965239Y-20229095D02*
X38989049Y-20205285D01*
X38989049Y-20205285D02*
X39036668Y-20181476D01*
X39036668Y-20181476D02*
X39108096Y-20181476D01*
X39108096Y-20181476D02*
X39155715Y-20205285D01*
X39155715Y-20205285D02*
X39179525Y-20229095D01*
X39179525Y-20229095D02*
X39203334Y-20276714D01*
X39203334Y-20276714D02*
X39203334Y-20419571D01*
X39203334Y-20419571D02*
X39179525Y-20467190D01*
X39179525Y-20467190D02*
X39155715Y-20491000D01*
X39155715Y-20491000D02*
X39108096Y-20514809D01*
X39108096Y-20514809D02*
X39036668Y-20514809D01*
X39417620Y-20514809D02*
X39417620Y-20181476D01*
X39417620Y-20229095D02*
X39441430Y-20205285D01*
X39441430Y-20205285D02*
X39489049Y-20181476D01*
X39489049Y-20181476D02*
X39560477Y-20181476D01*
X39560477Y-20181476D02*
X39608096Y-20205285D01*
X39608096Y-20205285D02*
X39631906Y-20252904D01*
X39631906Y-20252904D02*
X39631906Y-20514809D01*
X39631906Y-20252904D02*
X39655715Y-20205285D01*
X39655715Y-20205285D02*
X39703334Y-20181476D01*
X39703334Y-20181476D02*
X39774763Y-20181476D01*
X39774763Y-20181476D02*
X39822382Y-20205285D01*
X39822382Y-20205285D02*
X39846192Y-20252904D01*
X39846192Y-20252904D02*
X39846192Y-20514809D01*
X40274763Y-20491000D02*
X40227144Y-20514809D01*
X40227144Y-20514809D02*
X40131906Y-20514809D01*
X40131906Y-20514809D02*
X40084287Y-20491000D01*
X40084287Y-20491000D02*
X40060478Y-20443380D01*
X40060478Y-20443380D02*
X40060478Y-20252904D01*
X40060478Y-20252904D02*
X40084287Y-20205285D01*
X40084287Y-20205285D02*
X40131906Y-20181476D01*
X40131906Y-20181476D02*
X40227144Y-20181476D01*
X40227144Y-20181476D02*
X40274763Y-20205285D01*
X40274763Y-20205285D02*
X40298573Y-20252904D01*
X40298573Y-20252904D02*
X40298573Y-20300523D01*
X40298573Y-20300523D02*
X40060478Y-20348142D01*
X41012858Y-20681476D02*
X41012858Y-19967190D01*
X41679524Y-20014809D02*
X41965238Y-20014809D01*
X41822381Y-20514809D02*
X41822381Y-20014809D01*
X42322380Y-20491000D02*
X42274761Y-20514809D01*
X42274761Y-20514809D02*
X42179523Y-20514809D01*
X42179523Y-20514809D02*
X42131904Y-20491000D01*
X42131904Y-20491000D02*
X42108095Y-20443380D01*
X42108095Y-20443380D02*
X42108095Y-20252904D01*
X42108095Y-20252904D02*
X42131904Y-20205285D01*
X42131904Y-20205285D02*
X42179523Y-20181476D01*
X42179523Y-20181476D02*
X42274761Y-20181476D01*
X42274761Y-20181476D02*
X42322380Y-20205285D01*
X42322380Y-20205285D02*
X42346190Y-20252904D01*
X42346190Y-20252904D02*
X42346190Y-20300523D01*
X42346190Y-20300523D02*
X42108095Y-20348142D01*
X42774761Y-20514809D02*
X42774761Y-20252904D01*
X42774761Y-20252904D02*
X42750951Y-20205285D01*
X42750951Y-20205285D02*
X42703332Y-20181476D01*
X42703332Y-20181476D02*
X42608094Y-20181476D01*
X42608094Y-20181476D02*
X42560475Y-20205285D01*
X42774761Y-20491000D02*
X42727142Y-20514809D01*
X42727142Y-20514809D02*
X42608094Y-20514809D01*
X42608094Y-20514809D02*
X42560475Y-20491000D01*
X42560475Y-20491000D02*
X42536666Y-20443380D01*
X42536666Y-20443380D02*
X42536666Y-20395761D01*
X42536666Y-20395761D02*
X42560475Y-20348142D01*
X42560475Y-20348142D02*
X42608094Y-20324333D01*
X42608094Y-20324333D02*
X42727142Y-20324333D01*
X42727142Y-20324333D02*
X42774761Y-20300523D01*
X43012856Y-20514809D02*
X43012856Y-20181476D01*
X43012856Y-20229095D02*
X43036666Y-20205285D01*
X43036666Y-20205285D02*
X43084285Y-20181476D01*
X43084285Y-20181476D02*
X43155713Y-20181476D01*
X43155713Y-20181476D02*
X43203332Y-20205285D01*
X43203332Y-20205285D02*
X43227142Y-20252904D01*
X43227142Y-20252904D02*
X43227142Y-20514809D01*
X43227142Y-20252904D02*
X43250951Y-20205285D01*
X43250951Y-20205285D02*
X43298570Y-20181476D01*
X43298570Y-20181476D02*
X43369999Y-20181476D01*
X43369999Y-20181476D02*
X43417618Y-20205285D01*
X43417618Y-20205285D02*
X43441428Y-20252904D01*
X43441428Y-20252904D02*
X43441428Y-20514809D01*
X44060475Y-20514809D02*
X44060475Y-20014809D01*
X44060475Y-20014809D02*
X44227142Y-20371952D01*
X44227142Y-20371952D02*
X44393808Y-20014809D01*
X44393808Y-20014809D02*
X44393808Y-20514809D01*
X44822380Y-20491000D02*
X44774761Y-20514809D01*
X44774761Y-20514809D02*
X44679523Y-20514809D01*
X44679523Y-20514809D02*
X44631904Y-20491000D01*
X44631904Y-20491000D02*
X44608095Y-20443380D01*
X44608095Y-20443380D02*
X44608095Y-20252904D01*
X44608095Y-20252904D02*
X44631904Y-20205285D01*
X44631904Y-20205285D02*
X44679523Y-20181476D01*
X44679523Y-20181476D02*
X44774761Y-20181476D01*
X44774761Y-20181476D02*
X44822380Y-20205285D01*
X44822380Y-20205285D02*
X44846190Y-20252904D01*
X44846190Y-20252904D02*
X44846190Y-20300523D01*
X44846190Y-20300523D02*
X44608095Y-20348142D01*
X45060475Y-20514809D02*
X45060475Y-20181476D01*
X45060475Y-20229095D02*
X45084285Y-20205285D01*
X45084285Y-20205285D02*
X45131904Y-20181476D01*
X45131904Y-20181476D02*
X45203332Y-20181476D01*
X45203332Y-20181476D02*
X45250951Y-20205285D01*
X45250951Y-20205285D02*
X45274761Y-20252904D01*
X45274761Y-20252904D02*
X45274761Y-20514809D01*
X45274761Y-20252904D02*
X45298570Y-20205285D01*
X45298570Y-20205285D02*
X45346189Y-20181476D01*
X45346189Y-20181476D02*
X45417618Y-20181476D01*
X45417618Y-20181476D02*
X45465237Y-20205285D01*
X45465237Y-20205285D02*
X45489047Y-20252904D01*
X45489047Y-20252904D02*
X45489047Y-20514809D01*
X45727142Y-20514809D02*
X45727142Y-20014809D01*
X45727142Y-20205285D02*
X45774761Y-20181476D01*
X45774761Y-20181476D02*
X45869999Y-20181476D01*
X45869999Y-20181476D02*
X45917618Y-20205285D01*
X45917618Y-20205285D02*
X45941428Y-20229095D01*
X45941428Y-20229095D02*
X45965237Y-20276714D01*
X45965237Y-20276714D02*
X45965237Y-20419571D01*
X45965237Y-20419571D02*
X45941428Y-20467190D01*
X45941428Y-20467190D02*
X45917618Y-20491000D01*
X45917618Y-20491000D02*
X45869999Y-20514809D01*
X45869999Y-20514809D02*
X45774761Y-20514809D01*
X45774761Y-20514809D02*
X45727142Y-20491000D01*
X46369999Y-20491000D02*
X46322380Y-20514809D01*
X46322380Y-20514809D02*
X46227142Y-20514809D01*
X46227142Y-20514809D02*
X46179523Y-20491000D01*
X46179523Y-20491000D02*
X46155714Y-20443380D01*
X46155714Y-20443380D02*
X46155714Y-20252904D01*
X46155714Y-20252904D02*
X46179523Y-20205285D01*
X46179523Y-20205285D02*
X46227142Y-20181476D01*
X46227142Y-20181476D02*
X46322380Y-20181476D01*
X46322380Y-20181476D02*
X46369999Y-20205285D01*
X46369999Y-20205285D02*
X46393809Y-20252904D01*
X46393809Y-20252904D02*
X46393809Y-20300523D01*
X46393809Y-20300523D02*
X46155714Y-20348142D01*
X46608094Y-20514809D02*
X46608094Y-20181476D01*
X46608094Y-20276714D02*
X46631904Y-20229095D01*
X46631904Y-20229095D02*
X46655713Y-20205285D01*
X46655713Y-20205285D02*
X46703332Y-20181476D01*
X46703332Y-20181476D02*
X46750951Y-20181476D01*
X46893809Y-20491000D02*
X46941428Y-20514809D01*
X46941428Y-20514809D02*
X47036666Y-20514809D01*
X47036666Y-20514809D02*
X47084285Y-20491000D01*
X47084285Y-20491000D02*
X47108094Y-20443380D01*
X47108094Y-20443380D02*
X47108094Y-20419571D01*
X47108094Y-20419571D02*
X47084285Y-20371952D01*
X47084285Y-20371952D02*
X47036666Y-20348142D01*
X47036666Y-20348142D02*
X46965237Y-20348142D01*
X46965237Y-20348142D02*
X46917618Y-20324333D01*
X46917618Y-20324333D02*
X46893809Y-20276714D01*
X46893809Y-20276714D02*
X46893809Y-20252904D01*
X46893809Y-20252904D02*
X46917618Y-20205285D01*
X46917618Y-20205285D02*
X46965237Y-20181476D01*
X46965237Y-20181476D02*
X47036666Y-20181476D01*
X47036666Y-20181476D02*
X47084285Y-20205285D01*
X47322380Y-20467190D02*
X47346190Y-20491000D01*
X47346190Y-20491000D02*
X47322380Y-20514809D01*
X47322380Y-20514809D02*
X47298571Y-20491000D01*
X47298571Y-20491000D02*
X47322380Y-20467190D01*
X47322380Y-20467190D02*
X47322380Y-20514809D01*
X47322380Y-20205285D02*
X47346190Y-20229095D01*
X47346190Y-20229095D02*
X47322380Y-20252904D01*
X47322380Y-20252904D02*
X47298571Y-20229095D01*
X47298571Y-20229095D02*
X47322380Y-20205285D01*
X47322380Y-20205285D02*
X47322380Y-20252904D01*
X48227141Y-20514809D02*
X48060475Y-20276714D01*
X47941427Y-20514809D02*
X47941427Y-20014809D01*
X47941427Y-20014809D02*
X48131903Y-20014809D01*
X48131903Y-20014809D02*
X48179522Y-20038619D01*
X48179522Y-20038619D02*
X48203332Y-20062428D01*
X48203332Y-20062428D02*
X48227141Y-20110047D01*
X48227141Y-20110047D02*
X48227141Y-20181476D01*
X48227141Y-20181476D02*
X48203332Y-20229095D01*
X48203332Y-20229095D02*
X48179522Y-20252904D01*
X48179522Y-20252904D02*
X48131903Y-20276714D01*
X48131903Y-20276714D02*
X47941427Y-20276714D01*
X48655713Y-20181476D02*
X48655713Y-20514809D01*
X48441427Y-20181476D02*
X48441427Y-20443380D01*
X48441427Y-20443380D02*
X48465237Y-20491000D01*
X48465237Y-20491000D02*
X48512856Y-20514809D01*
X48512856Y-20514809D02*
X48584284Y-20514809D01*
X48584284Y-20514809D02*
X48631903Y-20491000D01*
X48631903Y-20491000D02*
X48655713Y-20467190D01*
X48893808Y-20514809D02*
X48893808Y-20014809D01*
X49108094Y-20514809D02*
X49108094Y-20252904D01*
X49108094Y-20252904D02*
X49084284Y-20205285D01*
X49084284Y-20205285D02*
X49036665Y-20181476D01*
X49036665Y-20181476D02*
X48965237Y-20181476D01*
X48965237Y-20181476D02*
X48917618Y-20205285D01*
X48917618Y-20205285D02*
X48893808Y-20229095D01*
X49560475Y-20181476D02*
X49560475Y-20514809D01*
X49346189Y-20181476D02*
X49346189Y-20443380D01*
X49346189Y-20443380D02*
X49369999Y-20491000D01*
X49369999Y-20491000D02*
X49417618Y-20514809D01*
X49417618Y-20514809D02*
X49489046Y-20514809D01*
X49489046Y-20514809D02*
X49536665Y-20491000D01*
X49536665Y-20491000D02*
X49560475Y-20467190D01*
X49869999Y-20514809D02*
X49822380Y-20491000D01*
X49822380Y-20491000D02*
X49798570Y-20443380D01*
X49798570Y-20443380D02*
X49798570Y-20014809D01*
X50774760Y-20562428D02*
X50727141Y-20538619D01*
X50727141Y-20538619D02*
X50679522Y-20491000D01*
X50679522Y-20491000D02*
X50608094Y-20419571D01*
X50608094Y-20419571D02*
X50560475Y-20395761D01*
X50560475Y-20395761D02*
X50512856Y-20395761D01*
X50536665Y-20514809D02*
X50489046Y-20491000D01*
X50489046Y-20491000D02*
X50441427Y-20443380D01*
X50441427Y-20443380D02*
X50417618Y-20348142D01*
X50417618Y-20348142D02*
X50417618Y-20181476D01*
X50417618Y-20181476D02*
X50441427Y-20086238D01*
X50441427Y-20086238D02*
X50489046Y-20038619D01*
X50489046Y-20038619D02*
X50536665Y-20014809D01*
X50536665Y-20014809D02*
X50631903Y-20014809D01*
X50631903Y-20014809D02*
X50679522Y-20038619D01*
X50679522Y-20038619D02*
X50727141Y-20086238D01*
X50727141Y-20086238D02*
X50750951Y-20181476D01*
X50750951Y-20181476D02*
X50750951Y-20348142D01*
X50750951Y-20348142D02*
X50727141Y-20443380D01*
X50727141Y-20443380D02*
X50679522Y-20491000D01*
X50679522Y-20491000D02*
X50631903Y-20514809D01*
X50631903Y-20514809D02*
X50536665Y-20514809D01*
X51179523Y-20181476D02*
X51179523Y-20514809D01*
X50965237Y-20181476D02*
X50965237Y-20443380D01*
X50965237Y-20443380D02*
X50989047Y-20491000D01*
X50989047Y-20491000D02*
X51036666Y-20514809D01*
X51036666Y-20514809D02*
X51108094Y-20514809D01*
X51108094Y-20514809D02*
X51155713Y-20491000D01*
X51155713Y-20491000D02*
X51179523Y-20467190D01*
X51631904Y-20514809D02*
X51631904Y-20014809D01*
X51631904Y-20491000D02*
X51584285Y-20514809D01*
X51584285Y-20514809D02*
X51489047Y-20514809D01*
X51489047Y-20514809D02*
X51441428Y-20491000D01*
X51441428Y-20491000D02*
X51417618Y-20467190D01*
X51417618Y-20467190D02*
X51393809Y-20419571D01*
X51393809Y-20419571D02*
X51393809Y-20276714D01*
X51393809Y-20276714D02*
X51417618Y-20229095D01*
X51417618Y-20229095D02*
X51441428Y-20205285D01*
X51441428Y-20205285D02*
X51489047Y-20181476D01*
X51489047Y-20181476D02*
X51584285Y-20181476D01*
X51584285Y-20181476D02*
X51631904Y-20205285D01*
X52084285Y-20514809D02*
X52084285Y-20014809D01*
X52084285Y-20491000D02*
X52036666Y-20514809D01*
X52036666Y-20514809D02*
X51941428Y-20514809D01*
X51941428Y-20514809D02*
X51893809Y-20491000D01*
X51893809Y-20491000D02*
X51869999Y-20467190D01*
X51869999Y-20467190D02*
X51846190Y-20419571D01*
X51846190Y-20419571D02*
X51846190Y-20276714D01*
X51846190Y-20276714D02*
X51869999Y-20229095D01*
X51869999Y-20229095D02*
X51893809Y-20205285D01*
X51893809Y-20205285D02*
X51941428Y-20181476D01*
X51941428Y-20181476D02*
X52036666Y-20181476D01*
X52036666Y-20181476D02*
X52084285Y-20205285D01*
X52536666Y-20181476D02*
X52536666Y-20514809D01*
X52322380Y-20181476D02*
X52322380Y-20443380D01*
X52322380Y-20443380D02*
X52346190Y-20491000D01*
X52346190Y-20491000D02*
X52393809Y-20514809D01*
X52393809Y-20514809D02*
X52465237Y-20514809D01*
X52465237Y-20514809D02*
X52512856Y-20491000D01*
X52512856Y-20491000D02*
X52536666Y-20467190D01*
X52750952Y-20491000D02*
X52798571Y-20514809D01*
X52798571Y-20514809D02*
X52893809Y-20514809D01*
X52893809Y-20514809D02*
X52941428Y-20491000D01*
X52941428Y-20491000D02*
X52965237Y-20443380D01*
X52965237Y-20443380D02*
X52965237Y-20419571D01*
X52965237Y-20419571D02*
X52941428Y-20371952D01*
X52941428Y-20371952D02*
X52893809Y-20348142D01*
X52893809Y-20348142D02*
X52822380Y-20348142D01*
X52822380Y-20348142D02*
X52774761Y-20324333D01*
X52774761Y-20324333D02*
X52750952Y-20276714D01*
X52750952Y-20276714D02*
X52750952Y-20252904D01*
X52750952Y-20252904D02*
X52774761Y-20205285D01*
X52774761Y-20205285D02*
X52822380Y-20181476D01*
X52822380Y-20181476D02*
X52893809Y-20181476D01*
X52893809Y-20181476D02*
X52941428Y-20205285D01*
X53203333Y-20491000D02*
X53203333Y-20514809D01*
X53203333Y-20514809D02*
X53179523Y-20562428D01*
X53179523Y-20562428D02*
X53155714Y-20586238D01*
X54060475Y-20038619D02*
X54012856Y-20014809D01*
X54012856Y-20014809D02*
X53941427Y-20014809D01*
X53941427Y-20014809D02*
X53869999Y-20038619D01*
X53869999Y-20038619D02*
X53822380Y-20086238D01*
X53822380Y-20086238D02*
X53798570Y-20133857D01*
X53798570Y-20133857D02*
X53774761Y-20229095D01*
X53774761Y-20229095D02*
X53774761Y-20300523D01*
X53774761Y-20300523D02*
X53798570Y-20395761D01*
X53798570Y-20395761D02*
X53822380Y-20443380D01*
X53822380Y-20443380D02*
X53869999Y-20491000D01*
X53869999Y-20491000D02*
X53941427Y-20514809D01*
X53941427Y-20514809D02*
X53989046Y-20514809D01*
X53989046Y-20514809D02*
X54060475Y-20491000D01*
X54060475Y-20491000D02*
X54084284Y-20467190D01*
X54084284Y-20467190D02*
X54084284Y-20300523D01*
X54084284Y-20300523D02*
X53989046Y-20300523D01*
X54369999Y-20514809D02*
X54322380Y-20491000D01*
X54322380Y-20491000D02*
X54298570Y-20467190D01*
X54298570Y-20467190D02*
X54274761Y-20419571D01*
X54274761Y-20419571D02*
X54274761Y-20276714D01*
X54274761Y-20276714D02*
X54298570Y-20229095D01*
X54298570Y-20229095D02*
X54322380Y-20205285D01*
X54322380Y-20205285D02*
X54369999Y-20181476D01*
X54369999Y-20181476D02*
X54441427Y-20181476D01*
X54441427Y-20181476D02*
X54489046Y-20205285D01*
X54489046Y-20205285D02*
X54512856Y-20229095D01*
X54512856Y-20229095D02*
X54536665Y-20276714D01*
X54536665Y-20276714D02*
X54536665Y-20419571D01*
X54536665Y-20419571D02*
X54512856Y-20467190D01*
X54512856Y-20467190D02*
X54489046Y-20491000D01*
X54489046Y-20491000D02*
X54441427Y-20514809D01*
X54441427Y-20514809D02*
X54369999Y-20514809D01*
X54965237Y-20181476D02*
X54965237Y-20514809D01*
X54750951Y-20181476D02*
X54750951Y-20443380D01*
X54750951Y-20443380D02*
X54774761Y-20491000D01*
X54774761Y-20491000D02*
X54822380Y-20514809D01*
X54822380Y-20514809D02*
X54893808Y-20514809D01*
X54893808Y-20514809D02*
X54941427Y-20491000D01*
X54941427Y-20491000D02*
X54965237Y-20467190D01*
X55131904Y-20181476D02*
X55322380Y-20181476D01*
X55203332Y-20014809D02*
X55203332Y-20443380D01*
X55203332Y-20443380D02*
X55227142Y-20491000D01*
X55227142Y-20491000D02*
X55274761Y-20514809D01*
X55274761Y-20514809D02*
X55322380Y-20514809D01*
X55489046Y-20514809D02*
X55489046Y-20014809D01*
X55703332Y-20514809D02*
X55703332Y-20252904D01*
X55703332Y-20252904D02*
X55679522Y-20205285D01*
X55679522Y-20205285D02*
X55631903Y-20181476D01*
X55631903Y-20181476D02*
X55560475Y-20181476D01*
X55560475Y-20181476D02*
X55512856Y-20205285D01*
X55512856Y-20205285D02*
X55489046Y-20229095D01*
X56155713Y-20514809D02*
X56155713Y-20252904D01*
X56155713Y-20252904D02*
X56131903Y-20205285D01*
X56131903Y-20205285D02*
X56084284Y-20181476D01*
X56084284Y-20181476D02*
X55989046Y-20181476D01*
X55989046Y-20181476D02*
X55941427Y-20205285D01*
X56155713Y-20491000D02*
X56108094Y-20514809D01*
X56108094Y-20514809D02*
X55989046Y-20514809D01*
X55989046Y-20514809D02*
X55941427Y-20491000D01*
X55941427Y-20491000D02*
X55917618Y-20443380D01*
X55917618Y-20443380D02*
X55917618Y-20395761D01*
X55917618Y-20395761D02*
X55941427Y-20348142D01*
X55941427Y-20348142D02*
X55989046Y-20324333D01*
X55989046Y-20324333D02*
X56108094Y-20324333D01*
X56108094Y-20324333D02*
X56155713Y-20300523D01*
X56393808Y-20514809D02*
X56393808Y-20181476D01*
X56393808Y-20229095D02*
X56417618Y-20205285D01*
X56417618Y-20205285D02*
X56465237Y-20181476D01*
X56465237Y-20181476D02*
X56536665Y-20181476D01*
X56536665Y-20181476D02*
X56584284Y-20205285D01*
X56584284Y-20205285D02*
X56608094Y-20252904D01*
X56608094Y-20252904D02*
X56608094Y-20514809D01*
X56608094Y-20252904D02*
X56631903Y-20205285D01*
X56631903Y-20205285D02*
X56679522Y-20181476D01*
X56679522Y-20181476D02*
X56750951Y-20181476D01*
X56750951Y-20181476D02*
X56798570Y-20205285D01*
X56798570Y-20205285D02*
X56822380Y-20252904D01*
X56822380Y-20252904D02*
X56822380Y-20514809D01*
X57441427Y-20514809D02*
X57441427Y-20014809D01*
X57441427Y-20014809D02*
X57608094Y-20371952D01*
X57608094Y-20371952D02*
X57774760Y-20014809D01*
X57774760Y-20014809D02*
X57774760Y-20514809D01*
X58012856Y-20514809D02*
X58012856Y-20181476D01*
X58012856Y-20014809D02*
X57989047Y-20038619D01*
X57989047Y-20038619D02*
X58012856Y-20062428D01*
X58012856Y-20062428D02*
X58036666Y-20038619D01*
X58036666Y-20038619D02*
X58012856Y-20014809D01*
X58012856Y-20014809D02*
X58012856Y-20062428D01*
X58179523Y-20181476D02*
X58369999Y-20181476D01*
X58250951Y-20014809D02*
X58250951Y-20443380D01*
X58250951Y-20443380D02*
X58274761Y-20491000D01*
X58274761Y-20491000D02*
X58322380Y-20514809D01*
X58322380Y-20514809D02*
X58369999Y-20514809D01*
X58465237Y-20181476D02*
X58655713Y-20181476D01*
X58536665Y-20014809D02*
X58536665Y-20443380D01*
X58536665Y-20443380D02*
X58560475Y-20491000D01*
X58560475Y-20491000D02*
X58608094Y-20514809D01*
X58608094Y-20514809D02*
X58655713Y-20514809D01*
X59036665Y-20514809D02*
X59036665Y-20252904D01*
X59036665Y-20252904D02*
X59012855Y-20205285D01*
X59012855Y-20205285D02*
X58965236Y-20181476D01*
X58965236Y-20181476D02*
X58869998Y-20181476D01*
X58869998Y-20181476D02*
X58822379Y-20205285D01*
X59036665Y-20491000D02*
X58989046Y-20514809D01*
X58989046Y-20514809D02*
X58869998Y-20514809D01*
X58869998Y-20514809D02*
X58822379Y-20491000D01*
X58822379Y-20491000D02*
X58798570Y-20443380D01*
X58798570Y-20443380D02*
X58798570Y-20395761D01*
X58798570Y-20395761D02*
X58822379Y-20348142D01*
X58822379Y-20348142D02*
X58869998Y-20324333D01*
X58869998Y-20324333D02*
X58989046Y-20324333D01*
X58989046Y-20324333D02*
X59036665Y-20300523D01*
X59489046Y-20514809D02*
X59489046Y-20014809D01*
X59489046Y-20491000D02*
X59441427Y-20514809D01*
X59441427Y-20514809D02*
X59346189Y-20514809D01*
X59346189Y-20514809D02*
X59298570Y-20491000D01*
X59298570Y-20491000D02*
X59274760Y-20467190D01*
X59274760Y-20467190D02*
X59250951Y-20419571D01*
X59250951Y-20419571D02*
X59250951Y-20276714D01*
X59250951Y-20276714D02*
X59274760Y-20229095D01*
X59274760Y-20229095D02*
X59298570Y-20205285D01*
X59298570Y-20205285D02*
X59346189Y-20181476D01*
X59346189Y-20181476D02*
X59441427Y-20181476D01*
X59441427Y-20181476D02*
X59489046Y-20205285D01*
X59727141Y-20514809D02*
X59727141Y-20014809D01*
X59941427Y-20514809D02*
X59941427Y-20252904D01*
X59941427Y-20252904D02*
X59917617Y-20205285D01*
X59917617Y-20205285D02*
X59869998Y-20181476D01*
X59869998Y-20181476D02*
X59798570Y-20181476D01*
X59798570Y-20181476D02*
X59750951Y-20205285D01*
X59750951Y-20205285D02*
X59727141Y-20229095D01*
X60250951Y-20514809D02*
X60203332Y-20491000D01*
X60203332Y-20491000D02*
X60179522Y-20467190D01*
X60179522Y-20467190D02*
X60155713Y-20419571D01*
X60155713Y-20419571D02*
X60155713Y-20276714D01*
X60155713Y-20276714D02*
X60179522Y-20229095D01*
X60179522Y-20229095D02*
X60203332Y-20205285D01*
X60203332Y-20205285D02*
X60250951Y-20181476D01*
X60250951Y-20181476D02*
X60322379Y-20181476D01*
X60322379Y-20181476D02*
X60369998Y-20205285D01*
X60369998Y-20205285D02*
X60393808Y-20229095D01*
X60393808Y-20229095D02*
X60417617Y-20276714D01*
X60417617Y-20276714D02*
X60417617Y-20419571D01*
X60417617Y-20419571D02*
X60393808Y-20467190D01*
X60393808Y-20467190D02*
X60369998Y-20491000D01*
X60369998Y-20491000D02*
X60322379Y-20514809D01*
X60322379Y-20514809D02*
X60250951Y-20514809D01*
X60846189Y-20514809D02*
X60846189Y-20014809D01*
X60846189Y-20491000D02*
X60798570Y-20514809D01*
X60798570Y-20514809D02*
X60703332Y-20514809D01*
X60703332Y-20514809D02*
X60655713Y-20491000D01*
X60655713Y-20491000D02*
X60631903Y-20467190D01*
X60631903Y-20467190D02*
X60608094Y-20419571D01*
X60608094Y-20419571D02*
X60608094Y-20276714D01*
X60608094Y-20276714D02*
X60631903Y-20229095D01*
X60631903Y-20229095D02*
X60655713Y-20205285D01*
X60655713Y-20205285D02*
X60703332Y-20181476D01*
X60703332Y-20181476D02*
X60798570Y-20181476D01*
X60798570Y-20181476D02*
X60846189Y-20205285D01*
X61298570Y-20514809D02*
X61298570Y-20014809D01*
X61298570Y-20491000D02*
X61250951Y-20514809D01*
X61250951Y-20514809D02*
X61155713Y-20514809D01*
X61155713Y-20514809D02*
X61108094Y-20491000D01*
X61108094Y-20491000D02*
X61084284Y-20467190D01*
X61084284Y-20467190D02*
X61060475Y-20419571D01*
X61060475Y-20419571D02*
X61060475Y-20276714D01*
X61060475Y-20276714D02*
X61084284Y-20229095D01*
X61084284Y-20229095D02*
X61108094Y-20205285D01*
X61108094Y-20205285D02*
X61155713Y-20181476D01*
X61155713Y-20181476D02*
X61250951Y-20181476D01*
X61250951Y-20181476D02*
X61298570Y-20205285D01*
X61536665Y-20514809D02*
X61536665Y-20181476D01*
X61536665Y-20014809D02*
X61512856Y-20038619D01*
X61512856Y-20038619D02*
X61536665Y-20062428D01*
X61536665Y-20062428D02*
X61560475Y-20038619D01*
X61560475Y-20038619D02*
X61536665Y-20014809D01*
X61536665Y-20014809D02*
X61536665Y-20062428D01*
X61798570Y-20491000D02*
X61798570Y-20514809D01*
X61798570Y-20514809D02*
X61774760Y-20562428D01*
X61774760Y-20562428D02*
X61750951Y-20586238D01*
X62393807Y-20514809D02*
X62393807Y-20014809D01*
X62393807Y-20014809D02*
X62679521Y-20514809D01*
X62679521Y-20514809D02*
X62679521Y-20014809D01*
X62917617Y-20514809D02*
X62917617Y-20181476D01*
X62917617Y-20014809D02*
X62893808Y-20038619D01*
X62893808Y-20038619D02*
X62917617Y-20062428D01*
X62917617Y-20062428D02*
X62941427Y-20038619D01*
X62941427Y-20038619D02*
X62917617Y-20014809D01*
X62917617Y-20014809D02*
X62917617Y-20062428D01*
X63155712Y-20514809D02*
X63155712Y-20181476D01*
X63155712Y-20229095D02*
X63179522Y-20205285D01*
X63179522Y-20205285D02*
X63227141Y-20181476D01*
X63227141Y-20181476D02*
X63298569Y-20181476D01*
X63298569Y-20181476D02*
X63346188Y-20205285D01*
X63346188Y-20205285D02*
X63369998Y-20252904D01*
X63369998Y-20252904D02*
X63369998Y-20514809D01*
X63369998Y-20252904D02*
X63393807Y-20205285D01*
X63393807Y-20205285D02*
X63441426Y-20181476D01*
X63441426Y-20181476D02*
X63512855Y-20181476D01*
X63512855Y-20181476D02*
X63560474Y-20205285D01*
X63560474Y-20205285D02*
X63584284Y-20252904D01*
X63584284Y-20252904D02*
X63584284Y-20514809D01*
X64036665Y-20514809D02*
X64036665Y-20252904D01*
X64036665Y-20252904D02*
X64012855Y-20205285D01*
X64012855Y-20205285D02*
X63965236Y-20181476D01*
X63965236Y-20181476D02*
X63869998Y-20181476D01*
X63869998Y-20181476D02*
X63822379Y-20205285D01*
X64036665Y-20491000D02*
X63989046Y-20514809D01*
X63989046Y-20514809D02*
X63869998Y-20514809D01*
X63869998Y-20514809D02*
X63822379Y-20491000D01*
X63822379Y-20491000D02*
X63798570Y-20443380D01*
X63798570Y-20443380D02*
X63798570Y-20395761D01*
X63798570Y-20395761D02*
X63822379Y-20348142D01*
X63822379Y-20348142D02*
X63869998Y-20324333D01*
X63869998Y-20324333D02*
X63989046Y-20324333D01*
X63989046Y-20324333D02*
X64036665Y-20300523D01*
X64941426Y-20514809D02*
X64774760Y-20276714D01*
X64655712Y-20514809D02*
X64655712Y-20014809D01*
X64655712Y-20014809D02*
X64846188Y-20014809D01*
X64846188Y-20014809D02*
X64893807Y-20038619D01*
X64893807Y-20038619D02*
X64917617Y-20062428D01*
X64917617Y-20062428D02*
X64941426Y-20110047D01*
X64941426Y-20110047D02*
X64941426Y-20181476D01*
X64941426Y-20181476D02*
X64917617Y-20229095D01*
X64917617Y-20229095D02*
X64893807Y-20252904D01*
X64893807Y-20252904D02*
X64846188Y-20276714D01*
X64846188Y-20276714D02*
X64655712Y-20276714D01*
X65369998Y-20514809D02*
X65369998Y-20252904D01*
X65369998Y-20252904D02*
X65346188Y-20205285D01*
X65346188Y-20205285D02*
X65298569Y-20181476D01*
X65298569Y-20181476D02*
X65203331Y-20181476D01*
X65203331Y-20181476D02*
X65155712Y-20205285D01*
X65369998Y-20491000D02*
X65322379Y-20514809D01*
X65322379Y-20514809D02*
X65203331Y-20514809D01*
X65203331Y-20514809D02*
X65155712Y-20491000D01*
X65155712Y-20491000D02*
X65131903Y-20443380D01*
X65131903Y-20443380D02*
X65131903Y-20395761D01*
X65131903Y-20395761D02*
X65155712Y-20348142D01*
X65155712Y-20348142D02*
X65203331Y-20324333D01*
X65203331Y-20324333D02*
X65322379Y-20324333D01*
X65322379Y-20324333D02*
X65369998Y-20300523D01*
X65560474Y-20181476D02*
X65822379Y-20181476D01*
X65822379Y-20181476D02*
X65560474Y-20514809D01*
X65560474Y-20514809D02*
X65822379Y-20514809D01*
X66227141Y-20514809D02*
X66227141Y-20252904D01*
X66227141Y-20252904D02*
X66203331Y-20205285D01*
X66203331Y-20205285D02*
X66155712Y-20181476D01*
X66155712Y-20181476D02*
X66060474Y-20181476D01*
X66060474Y-20181476D02*
X66012855Y-20205285D01*
X66227141Y-20491000D02*
X66179522Y-20514809D01*
X66179522Y-20514809D02*
X66060474Y-20514809D01*
X66060474Y-20514809D02*
X66012855Y-20491000D01*
X66012855Y-20491000D02*
X65989046Y-20443380D01*
X65989046Y-20443380D02*
X65989046Y-20395761D01*
X65989046Y-20395761D02*
X66012855Y-20348142D01*
X66012855Y-20348142D02*
X66060474Y-20324333D01*
X66060474Y-20324333D02*
X66179522Y-20324333D01*
X66179522Y-20324333D02*
X66227141Y-20300523D01*
X66417617Y-20181476D02*
X66536665Y-20514809D01*
X66536665Y-20514809D02*
X66655712Y-20181476D01*
X66846188Y-20514809D02*
X66846188Y-20181476D01*
X66846188Y-20014809D02*
X66822379Y-20038619D01*
X66822379Y-20038619D02*
X66846188Y-20062428D01*
X66846188Y-20062428D02*
X66869998Y-20038619D01*
X66869998Y-20038619D02*
X66846188Y-20014809D01*
X66846188Y-20014809D02*
X66846188Y-20062428D01*
X67108093Y-20491000D02*
X67108093Y-20514809D01*
X67108093Y-20514809D02*
X67084283Y-20562428D01*
X67084283Y-20562428D02*
X67060474Y-20586238D01*
X67703330Y-20514809D02*
X67703330Y-20014809D01*
X68155711Y-20514809D02*
X68155711Y-20252904D01*
X68155711Y-20252904D02*
X68131901Y-20205285D01*
X68131901Y-20205285D02*
X68084282Y-20181476D01*
X68084282Y-20181476D02*
X67989044Y-20181476D01*
X67989044Y-20181476D02*
X67941425Y-20205285D01*
X68155711Y-20491000D02*
X68108092Y-20514809D01*
X68108092Y-20514809D02*
X67989044Y-20514809D01*
X67989044Y-20514809D02*
X67941425Y-20491000D01*
X67941425Y-20491000D02*
X67917616Y-20443380D01*
X67917616Y-20443380D02*
X67917616Y-20395761D01*
X67917616Y-20395761D02*
X67941425Y-20348142D01*
X67941425Y-20348142D02*
X67989044Y-20324333D01*
X67989044Y-20324333D02*
X68108092Y-20324333D01*
X68108092Y-20324333D02*
X68155711Y-20300523D01*
X68393806Y-20181476D02*
X68393806Y-20514809D01*
X68393806Y-20229095D02*
X68417616Y-20205285D01*
X68417616Y-20205285D02*
X68465235Y-20181476D01*
X68465235Y-20181476D02*
X68536663Y-20181476D01*
X68536663Y-20181476D02*
X68584282Y-20205285D01*
X68584282Y-20205285D02*
X68608092Y-20252904D01*
X68608092Y-20252904D02*
X68608092Y-20514809D01*
X69465234Y-20514809D02*
X69227139Y-20514809D01*
X69227139Y-20514809D02*
X69227139Y-20014809D01*
X69822377Y-20491000D02*
X69774758Y-20514809D01*
X69774758Y-20514809D02*
X69679520Y-20514809D01*
X69679520Y-20514809D02*
X69631901Y-20491000D01*
X69631901Y-20491000D02*
X69608092Y-20443380D01*
X69608092Y-20443380D02*
X69608092Y-20252904D01*
X69608092Y-20252904D02*
X69631901Y-20205285D01*
X69631901Y-20205285D02*
X69679520Y-20181476D01*
X69679520Y-20181476D02*
X69774758Y-20181476D01*
X69774758Y-20181476D02*
X69822377Y-20205285D01*
X69822377Y-20205285D02*
X69846187Y-20252904D01*
X69846187Y-20252904D02*
X69846187Y-20300523D01*
X69846187Y-20300523D02*
X69608092Y-20348142D01*
X70084282Y-20491000D02*
X70084282Y-20514809D01*
X70084282Y-20514809D02*
X70060472Y-20562428D01*
X70060472Y-20562428D02*
X70036663Y-20586238D01*
X70679519Y-20514809D02*
X70679519Y-20014809D01*
X70965233Y-20514809D02*
X70750948Y-20229095D01*
X70965233Y-20014809D02*
X70679519Y-20300523D01*
X71369995Y-20491000D02*
X71322376Y-20514809D01*
X71322376Y-20514809D02*
X71227138Y-20514809D01*
X71227138Y-20514809D02*
X71179519Y-20491000D01*
X71179519Y-20491000D02*
X71155710Y-20443380D01*
X71155710Y-20443380D02*
X71155710Y-20252904D01*
X71155710Y-20252904D02*
X71179519Y-20205285D01*
X71179519Y-20205285D02*
X71227138Y-20181476D01*
X71227138Y-20181476D02*
X71322376Y-20181476D01*
X71322376Y-20181476D02*
X71369995Y-20205285D01*
X71369995Y-20205285D02*
X71393805Y-20252904D01*
X71393805Y-20252904D02*
X71393805Y-20300523D01*
X71393805Y-20300523D02*
X71155710Y-20348142D01*
X71608090Y-20181476D02*
X71608090Y-20514809D01*
X71608090Y-20229095D02*
X71631900Y-20205285D01*
X71631900Y-20205285D02*
X71679519Y-20181476D01*
X71679519Y-20181476D02*
X71750947Y-20181476D01*
X71750947Y-20181476D02*
X71798566Y-20205285D01*
X71798566Y-20205285D02*
X71822376Y-20252904D01*
X71822376Y-20252904D02*
X71822376Y-20514809D01*
X72060471Y-20181476D02*
X72060471Y-20514809D01*
X72060471Y-20229095D02*
X72084281Y-20205285D01*
X72084281Y-20205285D02*
X72131900Y-20181476D01*
X72131900Y-20181476D02*
X72203328Y-20181476D01*
X72203328Y-20181476D02*
X72250947Y-20205285D01*
X72250947Y-20205285D02*
X72274757Y-20252904D01*
X72274757Y-20252904D02*
X72274757Y-20514809D01*
X72465233Y-20181476D02*
X72584281Y-20514809D01*
X72703328Y-20181476D02*
X72584281Y-20514809D01*
X72584281Y-20514809D02*
X72536662Y-20633857D01*
X72536662Y-20633857D02*
X72512852Y-20657666D01*
X72512852Y-20657666D02*
X72465233Y-20681476D01*
X73227137Y-20014809D02*
X73560470Y-20014809D01*
X73560470Y-20014809D02*
X73227137Y-20514809D01*
X73227137Y-20514809D02*
X73560470Y-20514809D01*
X73750946Y-20514809D02*
X73750946Y-20014809D01*
X73965232Y-20514809D02*
X73965232Y-20252904D01*
X73965232Y-20252904D02*
X73941422Y-20205285D01*
X73941422Y-20205285D02*
X73893803Y-20181476D01*
X73893803Y-20181476D02*
X73822375Y-20181476D01*
X73822375Y-20181476D02*
X73774756Y-20205285D01*
X73774756Y-20205285D02*
X73750946Y-20229095D01*
X74417613Y-20514809D02*
X74417613Y-20252904D01*
X74417613Y-20252904D02*
X74393803Y-20205285D01*
X74393803Y-20205285D02*
X74346184Y-20181476D01*
X74346184Y-20181476D02*
X74250946Y-20181476D01*
X74250946Y-20181476D02*
X74203327Y-20205285D01*
X74417613Y-20491000D02*
X74369994Y-20514809D01*
X74369994Y-20514809D02*
X74250946Y-20514809D01*
X74250946Y-20514809D02*
X74203327Y-20491000D01*
X74203327Y-20491000D02*
X74179518Y-20443380D01*
X74179518Y-20443380D02*
X74179518Y-20395761D01*
X74179518Y-20395761D02*
X74203327Y-20348142D01*
X74203327Y-20348142D02*
X74250946Y-20324333D01*
X74250946Y-20324333D02*
X74369994Y-20324333D01*
X74369994Y-20324333D02*
X74417613Y-20300523D01*
X74655708Y-20181476D02*
X74655708Y-20514809D01*
X74655708Y-20229095D02*
X74679518Y-20205285D01*
X74679518Y-20205285D02*
X74727137Y-20181476D01*
X74727137Y-20181476D02*
X74798565Y-20181476D01*
X74798565Y-20181476D02*
X74846184Y-20205285D01*
X74846184Y-20205285D02*
X74869994Y-20252904D01*
X74869994Y-20252904D02*
X74869994Y-20514809D01*
X75322375Y-20181476D02*
X75322375Y-20586238D01*
X75322375Y-20586238D02*
X75298565Y-20633857D01*
X75298565Y-20633857D02*
X75274756Y-20657666D01*
X75274756Y-20657666D02*
X75227137Y-20681476D01*
X75227137Y-20681476D02*
X75155708Y-20681476D01*
X75155708Y-20681476D02*
X75108089Y-20657666D01*
X75322375Y-20491000D02*
X75274756Y-20514809D01*
X75274756Y-20514809D02*
X75179518Y-20514809D01*
X75179518Y-20514809D02*
X75131899Y-20491000D01*
X75131899Y-20491000D02*
X75108089Y-20467190D01*
X75108089Y-20467190D02*
X75084280Y-20419571D01*
X75084280Y-20419571D02*
X75084280Y-20276714D01*
X75084280Y-20276714D02*
X75108089Y-20229095D01*
X75108089Y-20229095D02*
X75131899Y-20205285D01*
X75131899Y-20205285D02*
X75179518Y-20181476D01*
X75179518Y-20181476D02*
X75274756Y-20181476D01*
X75274756Y-20181476D02*
X75322375Y-20205285D01*
X32132858Y-22624809D02*
X32132858Y-22124809D01*
X32132858Y-22362904D02*
X32418572Y-22362904D01*
X32418572Y-22624809D02*
X32418572Y-22124809D01*
X32870954Y-22624809D02*
X32870954Y-22362904D01*
X32870954Y-22362904D02*
X32847144Y-22315285D01*
X32847144Y-22315285D02*
X32799525Y-22291476D01*
X32799525Y-22291476D02*
X32704287Y-22291476D01*
X32704287Y-22291476D02*
X32656668Y-22315285D01*
X32870954Y-22601000D02*
X32823335Y-22624809D01*
X32823335Y-22624809D02*
X32704287Y-22624809D01*
X32704287Y-22624809D02*
X32656668Y-22601000D01*
X32656668Y-22601000D02*
X32632859Y-22553380D01*
X32632859Y-22553380D02*
X32632859Y-22505761D01*
X32632859Y-22505761D02*
X32656668Y-22458142D01*
X32656668Y-22458142D02*
X32704287Y-22434333D01*
X32704287Y-22434333D02*
X32823335Y-22434333D01*
X32823335Y-22434333D02*
X32870954Y-22410523D01*
X33180478Y-22624809D02*
X33132859Y-22601000D01*
X33132859Y-22601000D02*
X33109049Y-22553380D01*
X33109049Y-22553380D02*
X33109049Y-22124809D01*
X33442383Y-22624809D02*
X33394764Y-22601000D01*
X33394764Y-22601000D02*
X33370954Y-22553380D01*
X33370954Y-22553380D02*
X33370954Y-22124809D01*
X34013811Y-22362904D02*
X34180478Y-22362904D01*
X34251906Y-22624809D02*
X34013811Y-22624809D01*
X34013811Y-22624809D02*
X34013811Y-22124809D01*
X34013811Y-22124809D02*
X34251906Y-22124809D01*
X34394764Y-22291476D02*
X34585240Y-22291476D01*
X34466192Y-22624809D02*
X34466192Y-22196238D01*
X34466192Y-22196238D02*
X34490002Y-22148619D01*
X34490002Y-22148619D02*
X34537621Y-22124809D01*
X34537621Y-22124809D02*
X34585240Y-22124809D01*
X34680478Y-22291476D02*
X34870954Y-22291476D01*
X34751906Y-22624809D02*
X34751906Y-22196238D01*
X34751906Y-22196238D02*
X34775716Y-22148619D01*
X34775716Y-22148619D02*
X34823335Y-22124809D01*
X34823335Y-22124809D02*
X34870954Y-22124809D01*
X35228096Y-22601000D02*
X35180477Y-22624809D01*
X35180477Y-22624809D02*
X35085239Y-22624809D01*
X35085239Y-22624809D02*
X35037620Y-22601000D01*
X35037620Y-22601000D02*
X35013811Y-22553380D01*
X35013811Y-22553380D02*
X35013811Y-22362904D01*
X35013811Y-22362904D02*
X35037620Y-22315285D01*
X35037620Y-22315285D02*
X35085239Y-22291476D01*
X35085239Y-22291476D02*
X35180477Y-22291476D01*
X35180477Y-22291476D02*
X35228096Y-22315285D01*
X35228096Y-22315285D02*
X35251906Y-22362904D01*
X35251906Y-22362904D02*
X35251906Y-22410523D01*
X35251906Y-22410523D02*
X35013811Y-22458142D01*
X35680477Y-22601000D02*
X35632858Y-22624809D01*
X35632858Y-22624809D02*
X35537620Y-22624809D01*
X35537620Y-22624809D02*
X35490001Y-22601000D01*
X35490001Y-22601000D02*
X35466191Y-22577190D01*
X35466191Y-22577190D02*
X35442382Y-22529571D01*
X35442382Y-22529571D02*
X35442382Y-22386714D01*
X35442382Y-22386714D02*
X35466191Y-22339095D01*
X35466191Y-22339095D02*
X35490001Y-22315285D01*
X35490001Y-22315285D02*
X35537620Y-22291476D01*
X35537620Y-22291476D02*
X35632858Y-22291476D01*
X35632858Y-22291476D02*
X35680477Y-22315285D01*
X35823334Y-22291476D02*
X36013810Y-22291476D01*
X35894762Y-22124809D02*
X35894762Y-22553380D01*
X35894762Y-22553380D02*
X35918572Y-22601000D01*
X35918572Y-22601000D02*
X35966191Y-22624809D01*
X35966191Y-22624809D02*
X36013810Y-22624809D01*
X36537619Y-22601000D02*
X36609047Y-22624809D01*
X36609047Y-22624809D02*
X36728095Y-22624809D01*
X36728095Y-22624809D02*
X36775714Y-22601000D01*
X36775714Y-22601000D02*
X36799523Y-22577190D01*
X36799523Y-22577190D02*
X36823333Y-22529571D01*
X36823333Y-22529571D02*
X36823333Y-22481952D01*
X36823333Y-22481952D02*
X36799523Y-22434333D01*
X36799523Y-22434333D02*
X36775714Y-22410523D01*
X36775714Y-22410523D02*
X36728095Y-22386714D01*
X36728095Y-22386714D02*
X36632857Y-22362904D01*
X36632857Y-22362904D02*
X36585238Y-22339095D01*
X36585238Y-22339095D02*
X36561428Y-22315285D01*
X36561428Y-22315285D02*
X36537619Y-22267666D01*
X36537619Y-22267666D02*
X36537619Y-22220047D01*
X36537619Y-22220047D02*
X36561428Y-22172428D01*
X36561428Y-22172428D02*
X36585238Y-22148619D01*
X36585238Y-22148619D02*
X36632857Y-22124809D01*
X36632857Y-22124809D02*
X36751904Y-22124809D01*
X36751904Y-22124809D02*
X36823333Y-22148619D01*
X37228094Y-22601000D02*
X37180475Y-22624809D01*
X37180475Y-22624809D02*
X37085237Y-22624809D01*
X37085237Y-22624809D02*
X37037618Y-22601000D01*
X37037618Y-22601000D02*
X37013809Y-22553380D01*
X37013809Y-22553380D02*
X37013809Y-22362904D01*
X37013809Y-22362904D02*
X37037618Y-22315285D01*
X37037618Y-22315285D02*
X37085237Y-22291476D01*
X37085237Y-22291476D02*
X37180475Y-22291476D01*
X37180475Y-22291476D02*
X37228094Y-22315285D01*
X37228094Y-22315285D02*
X37251904Y-22362904D01*
X37251904Y-22362904D02*
X37251904Y-22410523D01*
X37251904Y-22410523D02*
X37013809Y-22458142D01*
X37466189Y-22291476D02*
X37466189Y-22624809D01*
X37466189Y-22339095D02*
X37489999Y-22315285D01*
X37489999Y-22315285D02*
X37537618Y-22291476D01*
X37537618Y-22291476D02*
X37609046Y-22291476D01*
X37609046Y-22291476D02*
X37656665Y-22315285D01*
X37656665Y-22315285D02*
X37680475Y-22362904D01*
X37680475Y-22362904D02*
X37680475Y-22624809D01*
X37894761Y-22601000D02*
X37942380Y-22624809D01*
X37942380Y-22624809D02*
X38037618Y-22624809D01*
X38037618Y-22624809D02*
X38085237Y-22601000D01*
X38085237Y-22601000D02*
X38109046Y-22553380D01*
X38109046Y-22553380D02*
X38109046Y-22529571D01*
X38109046Y-22529571D02*
X38085237Y-22481952D01*
X38085237Y-22481952D02*
X38037618Y-22458142D01*
X38037618Y-22458142D02*
X37966189Y-22458142D01*
X37966189Y-22458142D02*
X37918570Y-22434333D01*
X37918570Y-22434333D02*
X37894761Y-22386714D01*
X37894761Y-22386714D02*
X37894761Y-22362904D01*
X37894761Y-22362904D02*
X37918570Y-22315285D01*
X37918570Y-22315285D02*
X37966189Y-22291476D01*
X37966189Y-22291476D02*
X38037618Y-22291476D01*
X38037618Y-22291476D02*
X38085237Y-22315285D01*
X38394761Y-22624809D02*
X38347142Y-22601000D01*
X38347142Y-22601000D02*
X38323332Y-22577190D01*
X38323332Y-22577190D02*
X38299523Y-22529571D01*
X38299523Y-22529571D02*
X38299523Y-22386714D01*
X38299523Y-22386714D02*
X38323332Y-22339095D01*
X38323332Y-22339095D02*
X38347142Y-22315285D01*
X38347142Y-22315285D02*
X38394761Y-22291476D01*
X38394761Y-22291476D02*
X38466189Y-22291476D01*
X38466189Y-22291476D02*
X38513808Y-22315285D01*
X38513808Y-22315285D02*
X38537618Y-22339095D01*
X38537618Y-22339095D02*
X38561427Y-22386714D01*
X38561427Y-22386714D02*
X38561427Y-22529571D01*
X38561427Y-22529571D02*
X38537618Y-22577190D01*
X38537618Y-22577190D02*
X38513808Y-22601000D01*
X38513808Y-22601000D02*
X38466189Y-22624809D01*
X38466189Y-22624809D02*
X38394761Y-22624809D01*
X38775713Y-22624809D02*
X38775713Y-22291476D01*
X38775713Y-22386714D02*
X38799523Y-22339095D01*
X38799523Y-22339095D02*
X38823332Y-22315285D01*
X38823332Y-22315285D02*
X38870951Y-22291476D01*
X38870951Y-22291476D02*
X38918570Y-22291476D01*
X32131047Y-21314809D02*
X32131047Y-21719571D01*
X32131047Y-21719571D02*
X32154857Y-21767190D01*
X32154857Y-21767190D02*
X32178666Y-21791000D01*
X32178666Y-21791000D02*
X32226285Y-21814809D01*
X32226285Y-21814809D02*
X32321523Y-21814809D01*
X32321523Y-21814809D02*
X32369142Y-21791000D01*
X32369142Y-21791000D02*
X32392952Y-21767190D01*
X32392952Y-21767190D02*
X32416761Y-21719571D01*
X32416761Y-21719571D02*
X32416761Y-21314809D01*
X32607238Y-21314809D02*
X32916762Y-21314809D01*
X32916762Y-21314809D02*
X32750095Y-21505285D01*
X32750095Y-21505285D02*
X32821524Y-21505285D01*
X32821524Y-21505285D02*
X32869143Y-21529095D01*
X32869143Y-21529095D02*
X32892952Y-21552904D01*
X32892952Y-21552904D02*
X32916762Y-21600523D01*
X32916762Y-21600523D02*
X32916762Y-21719571D01*
X32916762Y-21719571D02*
X32892952Y-21767190D01*
X32892952Y-21767190D02*
X32869143Y-21791000D01*
X32869143Y-21791000D02*
X32821524Y-21814809D01*
X32821524Y-21814809D02*
X32678667Y-21814809D01*
X32678667Y-21814809D02*
X32631048Y-21791000D01*
X32631048Y-21791000D02*
X32607238Y-21767190D01*
X40997238Y-24100809D02*
X40997238Y-23600809D01*
X40997238Y-23600809D02*
X41163905Y-23957952D01*
X41163905Y-23957952D02*
X41330571Y-23600809D01*
X41330571Y-23600809D02*
X41330571Y-24100809D01*
X41830572Y-24100809D02*
X41544858Y-24100809D01*
X41687715Y-24100809D02*
X41687715Y-23600809D01*
X41687715Y-23600809D02*
X41640096Y-23672238D01*
X41640096Y-23672238D02*
X41592477Y-23719857D01*
X41592477Y-23719857D02*
X41544858Y-23743666D01*
X34837619Y-24864809D02*
X34837619Y-24364809D01*
X34837619Y-24364809D02*
X34956667Y-24364809D01*
X34956667Y-24364809D02*
X35028095Y-24388619D01*
X35028095Y-24388619D02*
X35075714Y-24436238D01*
X35075714Y-24436238D02*
X35099524Y-24483857D01*
X35099524Y-24483857D02*
X35123333Y-24579095D01*
X35123333Y-24579095D02*
X35123333Y-24650523D01*
X35123333Y-24650523D02*
X35099524Y-24745761D01*
X35099524Y-24745761D02*
X35075714Y-24793380D01*
X35075714Y-24793380D02*
X35028095Y-24841000D01*
X35028095Y-24841000D02*
X34956667Y-24864809D01*
X34956667Y-24864809D02*
X34837619Y-24864809D01*
X35623333Y-24817190D02*
X35599524Y-24841000D01*
X35599524Y-24841000D02*
X35528095Y-24864809D01*
X35528095Y-24864809D02*
X35480476Y-24864809D01*
X35480476Y-24864809D02*
X35409048Y-24841000D01*
X35409048Y-24841000D02*
X35361429Y-24793380D01*
X35361429Y-24793380D02*
X35337619Y-24745761D01*
X35337619Y-24745761D02*
X35313810Y-24650523D01*
X35313810Y-24650523D02*
X35313810Y-24579095D01*
X35313810Y-24579095D02*
X35337619Y-24483857D01*
X35337619Y-24483857D02*
X35361429Y-24436238D01*
X35361429Y-24436238D02*
X35409048Y-24388619D01*
X35409048Y-24388619D02*
X35480476Y-24364809D01*
X35480476Y-24364809D02*
X35528095Y-24364809D01*
X35528095Y-24364809D02*
X35599524Y-24388619D01*
X35599524Y-24388619D02*
X35623333Y-24412428D01*
X36147143Y-24364809D02*
X36313809Y-24864809D01*
X36313809Y-24864809D02*
X36480476Y-24364809D01*
X36647142Y-24864809D02*
X36647142Y-24531476D01*
X36647142Y-24364809D02*
X36623333Y-24388619D01*
X36623333Y-24388619D02*
X36647142Y-24412428D01*
X36647142Y-24412428D02*
X36670952Y-24388619D01*
X36670952Y-24388619D02*
X36647142Y-24364809D01*
X36647142Y-24364809D02*
X36647142Y-24412428D01*
X36885237Y-24864809D02*
X36885237Y-24364809D01*
X36885237Y-24555285D02*
X36932856Y-24531476D01*
X36932856Y-24531476D02*
X37028094Y-24531476D01*
X37028094Y-24531476D02*
X37075713Y-24555285D01*
X37075713Y-24555285D02*
X37099523Y-24579095D01*
X37099523Y-24579095D02*
X37123332Y-24626714D01*
X37123332Y-24626714D02*
X37123332Y-24769571D01*
X37123332Y-24769571D02*
X37099523Y-24817190D01*
X37099523Y-24817190D02*
X37075713Y-24841000D01*
X37075713Y-24841000D02*
X37028094Y-24864809D01*
X37028094Y-24864809D02*
X36932856Y-24864809D01*
X36932856Y-24864809D02*
X36885237Y-24841000D01*
X37337618Y-24864809D02*
X37337618Y-24531476D01*
X37337618Y-24626714D02*
X37361428Y-24579095D01*
X37361428Y-24579095D02*
X37385237Y-24555285D01*
X37385237Y-24555285D02*
X37432856Y-24531476D01*
X37432856Y-24531476D02*
X37480475Y-24531476D01*
X37861428Y-24864809D02*
X37861428Y-24602904D01*
X37861428Y-24602904D02*
X37837618Y-24555285D01*
X37837618Y-24555285D02*
X37789999Y-24531476D01*
X37789999Y-24531476D02*
X37694761Y-24531476D01*
X37694761Y-24531476D02*
X37647142Y-24555285D01*
X37861428Y-24841000D02*
X37813809Y-24864809D01*
X37813809Y-24864809D02*
X37694761Y-24864809D01*
X37694761Y-24864809D02*
X37647142Y-24841000D01*
X37647142Y-24841000D02*
X37623333Y-24793380D01*
X37623333Y-24793380D02*
X37623333Y-24745761D01*
X37623333Y-24745761D02*
X37647142Y-24698142D01*
X37647142Y-24698142D02*
X37694761Y-24674333D01*
X37694761Y-24674333D02*
X37813809Y-24674333D01*
X37813809Y-24674333D02*
X37861428Y-24650523D01*
X38028095Y-24531476D02*
X38218571Y-24531476D01*
X38099523Y-24364809D02*
X38099523Y-24793380D01*
X38099523Y-24793380D02*
X38123333Y-24841000D01*
X38123333Y-24841000D02*
X38170952Y-24864809D01*
X38170952Y-24864809D02*
X38218571Y-24864809D01*
X38385237Y-24864809D02*
X38385237Y-24531476D01*
X38385237Y-24364809D02*
X38361428Y-24388619D01*
X38361428Y-24388619D02*
X38385237Y-24412428D01*
X38385237Y-24412428D02*
X38409047Y-24388619D01*
X38409047Y-24388619D02*
X38385237Y-24364809D01*
X38385237Y-24364809D02*
X38385237Y-24412428D01*
X38694761Y-24864809D02*
X38647142Y-24841000D01*
X38647142Y-24841000D02*
X38623332Y-24817190D01*
X38623332Y-24817190D02*
X38599523Y-24769571D01*
X38599523Y-24769571D02*
X38599523Y-24626714D01*
X38599523Y-24626714D02*
X38623332Y-24579095D01*
X38623332Y-24579095D02*
X38647142Y-24555285D01*
X38647142Y-24555285D02*
X38694761Y-24531476D01*
X38694761Y-24531476D02*
X38766189Y-24531476D01*
X38766189Y-24531476D02*
X38813808Y-24555285D01*
X38813808Y-24555285D02*
X38837618Y-24579095D01*
X38837618Y-24579095D02*
X38861427Y-24626714D01*
X38861427Y-24626714D02*
X38861427Y-24769571D01*
X38861427Y-24769571D02*
X38837618Y-24817190D01*
X38837618Y-24817190D02*
X38813808Y-24841000D01*
X38813808Y-24841000D02*
X38766189Y-24864809D01*
X38766189Y-24864809D02*
X38694761Y-24864809D01*
X39075713Y-24531476D02*
X39075713Y-24864809D01*
X39075713Y-24579095D02*
X39099523Y-24555285D01*
X39099523Y-24555285D02*
X39147142Y-24531476D01*
X39147142Y-24531476D02*
X39218570Y-24531476D01*
X39218570Y-24531476D02*
X39266189Y-24555285D01*
X39266189Y-24555285D02*
X39289999Y-24602904D01*
X39289999Y-24602904D02*
X39289999Y-24864809D01*
X39909046Y-24864809D02*
X39909046Y-24364809D01*
X39909046Y-24364809D02*
X40075713Y-24721952D01*
X40075713Y-24721952D02*
X40242379Y-24364809D01*
X40242379Y-24364809D02*
X40242379Y-24864809D01*
X40551904Y-24864809D02*
X40504285Y-24841000D01*
X40504285Y-24841000D02*
X40480475Y-24817190D01*
X40480475Y-24817190D02*
X40456666Y-24769571D01*
X40456666Y-24769571D02*
X40456666Y-24626714D01*
X40456666Y-24626714D02*
X40480475Y-24579095D01*
X40480475Y-24579095D02*
X40504285Y-24555285D01*
X40504285Y-24555285D02*
X40551904Y-24531476D01*
X40551904Y-24531476D02*
X40623332Y-24531476D01*
X40623332Y-24531476D02*
X40670951Y-24555285D01*
X40670951Y-24555285D02*
X40694761Y-24579095D01*
X40694761Y-24579095D02*
X40718570Y-24626714D01*
X40718570Y-24626714D02*
X40718570Y-24769571D01*
X40718570Y-24769571D02*
X40694761Y-24817190D01*
X40694761Y-24817190D02*
X40670951Y-24841000D01*
X40670951Y-24841000D02*
X40623332Y-24864809D01*
X40623332Y-24864809D02*
X40551904Y-24864809D01*
X40861428Y-24531476D02*
X41051904Y-24531476D01*
X40932856Y-24364809D02*
X40932856Y-24793380D01*
X40932856Y-24793380D02*
X40956666Y-24841000D01*
X40956666Y-24841000D02*
X41004285Y-24864809D01*
X41004285Y-24864809D02*
X41051904Y-24864809D01*
X41289999Y-24864809D02*
X41242380Y-24841000D01*
X41242380Y-24841000D02*
X41218570Y-24817190D01*
X41218570Y-24817190D02*
X41194761Y-24769571D01*
X41194761Y-24769571D02*
X41194761Y-24626714D01*
X41194761Y-24626714D02*
X41218570Y-24579095D01*
X41218570Y-24579095D02*
X41242380Y-24555285D01*
X41242380Y-24555285D02*
X41289999Y-24531476D01*
X41289999Y-24531476D02*
X41361427Y-24531476D01*
X41361427Y-24531476D02*
X41409046Y-24555285D01*
X41409046Y-24555285D02*
X41432856Y-24579095D01*
X41432856Y-24579095D02*
X41456665Y-24626714D01*
X41456665Y-24626714D02*
X41456665Y-24769571D01*
X41456665Y-24769571D02*
X41432856Y-24817190D01*
X41432856Y-24817190D02*
X41409046Y-24841000D01*
X41409046Y-24841000D02*
X41361427Y-24864809D01*
X41361427Y-24864809D02*
X41289999Y-24864809D01*
X41670951Y-24864809D02*
X41670951Y-24531476D01*
X41670951Y-24626714D02*
X41694761Y-24579095D01*
X41694761Y-24579095D02*
X41718570Y-24555285D01*
X41718570Y-24555285D02*
X41766189Y-24531476D01*
X41766189Y-24531476D02*
X41813808Y-24531476D01*
X26299048Y-59071000D02*
X26370476Y-59094809D01*
X26370476Y-59094809D02*
X26489524Y-59094809D01*
X26489524Y-59094809D02*
X26537143Y-59071000D01*
X26537143Y-59071000D02*
X26560952Y-59047190D01*
X26560952Y-59047190D02*
X26584762Y-58999571D01*
X26584762Y-58999571D02*
X26584762Y-58951952D01*
X26584762Y-58951952D02*
X26560952Y-58904333D01*
X26560952Y-58904333D02*
X26537143Y-58880523D01*
X26537143Y-58880523D02*
X26489524Y-58856714D01*
X26489524Y-58856714D02*
X26394286Y-58832904D01*
X26394286Y-58832904D02*
X26346667Y-58809095D01*
X26346667Y-58809095D02*
X26322857Y-58785285D01*
X26322857Y-58785285D02*
X26299048Y-58737666D01*
X26299048Y-58737666D02*
X26299048Y-58690047D01*
X26299048Y-58690047D02*
X26322857Y-58642428D01*
X26322857Y-58642428D02*
X26346667Y-58618619D01*
X26346667Y-58618619D02*
X26394286Y-58594809D01*
X26394286Y-58594809D02*
X26513333Y-58594809D01*
X26513333Y-58594809D02*
X26584762Y-58618619D01*
X27060952Y-59094809D02*
X26775238Y-59094809D01*
X26918095Y-59094809D02*
X26918095Y-58594809D01*
X26918095Y-58594809D02*
X26870476Y-58666238D01*
X26870476Y-58666238D02*
X26822857Y-58713857D01*
X26822857Y-58713857D02*
X26775238Y-58737666D01*
X27353809Y-59064809D02*
X27353809Y-58564809D01*
X27353809Y-58564809D02*
X27544285Y-58564809D01*
X27544285Y-58564809D02*
X27591904Y-58588619D01*
X27591904Y-58588619D02*
X27615714Y-58612428D01*
X27615714Y-58612428D02*
X27639523Y-58660047D01*
X27639523Y-58660047D02*
X27639523Y-58731476D01*
X27639523Y-58731476D02*
X27615714Y-58779095D01*
X27615714Y-58779095D02*
X27591904Y-58802904D01*
X27591904Y-58802904D02*
X27544285Y-58826714D01*
X27544285Y-58826714D02*
X27353809Y-58826714D01*
X28068095Y-58731476D02*
X28068095Y-59064809D01*
X27853809Y-58731476D02*
X27853809Y-58993380D01*
X27853809Y-58993380D02*
X27877619Y-59041000D01*
X27877619Y-59041000D02*
X27925238Y-59064809D01*
X27925238Y-59064809D02*
X27996666Y-59064809D01*
X27996666Y-59064809D02*
X28044285Y-59041000D01*
X28044285Y-59041000D02*
X28068095Y-59017190D01*
X28282381Y-59041000D02*
X28330000Y-59064809D01*
X28330000Y-59064809D02*
X28425238Y-59064809D01*
X28425238Y-59064809D02*
X28472857Y-59041000D01*
X28472857Y-59041000D02*
X28496666Y-58993380D01*
X28496666Y-58993380D02*
X28496666Y-58969571D01*
X28496666Y-58969571D02*
X28472857Y-58921952D01*
X28472857Y-58921952D02*
X28425238Y-58898142D01*
X28425238Y-58898142D02*
X28353809Y-58898142D01*
X28353809Y-58898142D02*
X28306190Y-58874333D01*
X28306190Y-58874333D02*
X28282381Y-58826714D01*
X28282381Y-58826714D02*
X28282381Y-58802904D01*
X28282381Y-58802904D02*
X28306190Y-58755285D01*
X28306190Y-58755285D02*
X28353809Y-58731476D01*
X28353809Y-58731476D02*
X28425238Y-58731476D01*
X28425238Y-58731476D02*
X28472857Y-58755285D01*
X28710952Y-59064809D02*
X28710952Y-58564809D01*
X28925238Y-59064809D02*
X28925238Y-58802904D01*
X28925238Y-58802904D02*
X28901428Y-58755285D01*
X28901428Y-58755285D02*
X28853809Y-58731476D01*
X28853809Y-58731476D02*
X28782381Y-58731476D01*
X28782381Y-58731476D02*
X28734762Y-58755285D01*
X28734762Y-58755285D02*
X28710952Y-58779095D01*
X29163333Y-59064809D02*
X29163333Y-58564809D01*
X29163333Y-58755285D02*
X29210952Y-58731476D01*
X29210952Y-58731476D02*
X29306190Y-58731476D01*
X29306190Y-58731476D02*
X29353809Y-58755285D01*
X29353809Y-58755285D02*
X29377619Y-58779095D01*
X29377619Y-58779095D02*
X29401428Y-58826714D01*
X29401428Y-58826714D02*
X29401428Y-58969571D01*
X29401428Y-58969571D02*
X29377619Y-59017190D01*
X29377619Y-59017190D02*
X29353809Y-59041000D01*
X29353809Y-59041000D02*
X29306190Y-59064809D01*
X29306190Y-59064809D02*
X29210952Y-59064809D01*
X29210952Y-59064809D02*
X29163333Y-59041000D01*
X29830000Y-58731476D02*
X29830000Y-59064809D01*
X29615714Y-58731476D02*
X29615714Y-58993380D01*
X29615714Y-58993380D02*
X29639524Y-59041000D01*
X29639524Y-59041000D02*
X29687143Y-59064809D01*
X29687143Y-59064809D02*
X29758571Y-59064809D01*
X29758571Y-59064809D02*
X29806190Y-59041000D01*
X29806190Y-59041000D02*
X29830000Y-59017190D01*
X29996667Y-58731476D02*
X30187143Y-58731476D01*
X30068095Y-58564809D02*
X30068095Y-58993380D01*
X30068095Y-58993380D02*
X30091905Y-59041000D01*
X30091905Y-59041000D02*
X30139524Y-59064809D01*
X30139524Y-59064809D02*
X30187143Y-59064809D01*
X30282381Y-58731476D02*
X30472857Y-58731476D01*
X30353809Y-58564809D02*
X30353809Y-58993380D01*
X30353809Y-58993380D02*
X30377619Y-59041000D01*
X30377619Y-59041000D02*
X30425238Y-59064809D01*
X30425238Y-59064809D02*
X30472857Y-59064809D01*
X30710952Y-59064809D02*
X30663333Y-59041000D01*
X30663333Y-59041000D02*
X30639523Y-59017190D01*
X30639523Y-59017190D02*
X30615714Y-58969571D01*
X30615714Y-58969571D02*
X30615714Y-58826714D01*
X30615714Y-58826714D02*
X30639523Y-58779095D01*
X30639523Y-58779095D02*
X30663333Y-58755285D01*
X30663333Y-58755285D02*
X30710952Y-58731476D01*
X30710952Y-58731476D02*
X30782380Y-58731476D01*
X30782380Y-58731476D02*
X30829999Y-58755285D01*
X30829999Y-58755285D02*
X30853809Y-58779095D01*
X30853809Y-58779095D02*
X30877618Y-58826714D01*
X30877618Y-58826714D02*
X30877618Y-58969571D01*
X30877618Y-58969571D02*
X30853809Y-59017190D01*
X30853809Y-59017190D02*
X30829999Y-59041000D01*
X30829999Y-59041000D02*
X30782380Y-59064809D01*
X30782380Y-59064809D02*
X30710952Y-59064809D01*
X31091904Y-58731476D02*
X31091904Y-59064809D01*
X31091904Y-58779095D02*
X31115714Y-58755285D01*
X31115714Y-58755285D02*
X31163333Y-58731476D01*
X31163333Y-58731476D02*
X31234761Y-58731476D01*
X31234761Y-58731476D02*
X31282380Y-58755285D01*
X31282380Y-58755285D02*
X31306190Y-58802904D01*
X31306190Y-58802904D02*
X31306190Y-59064809D01*
X69142380Y-59052428D02*
X69094761Y-59028619D01*
X69094761Y-59028619D02*
X69047142Y-58981000D01*
X69047142Y-58981000D02*
X68975714Y-58909571D01*
X68975714Y-58909571D02*
X68928095Y-58885761D01*
X68928095Y-58885761D02*
X68880476Y-58885761D01*
X68904285Y-59004809D02*
X68856666Y-58981000D01*
X68856666Y-58981000D02*
X68809047Y-58933380D01*
X68809047Y-58933380D02*
X68785238Y-58838142D01*
X68785238Y-58838142D02*
X68785238Y-58671476D01*
X68785238Y-58671476D02*
X68809047Y-58576238D01*
X68809047Y-58576238D02*
X68856666Y-58528619D01*
X68856666Y-58528619D02*
X68904285Y-58504809D01*
X68904285Y-58504809D02*
X68999523Y-58504809D01*
X68999523Y-58504809D02*
X69047142Y-58528619D01*
X69047142Y-58528619D02*
X69094761Y-58576238D01*
X69094761Y-58576238D02*
X69118571Y-58671476D01*
X69118571Y-58671476D02*
X69118571Y-58838142D01*
X69118571Y-58838142D02*
X69094761Y-58933380D01*
X69094761Y-58933380D02*
X69047142Y-58981000D01*
X69047142Y-58981000D02*
X68999523Y-59004809D01*
X68999523Y-59004809D02*
X68904285Y-59004809D01*
X69594762Y-59004809D02*
X69309048Y-59004809D01*
X69451905Y-59004809D02*
X69451905Y-58504809D01*
X69451905Y-58504809D02*
X69404286Y-58576238D01*
X69404286Y-58576238D02*
X69356667Y-58623857D01*
X69356667Y-58623857D02*
X69309048Y-58647666D01*
X68022428Y-58987141D02*
X67998619Y-58963332D01*
X67998619Y-58963332D02*
X67974809Y-58915713D01*
X67974809Y-58915713D02*
X67974809Y-58796665D01*
X67974809Y-58796665D02*
X67998619Y-58749046D01*
X67998619Y-58749046D02*
X68022428Y-58725237D01*
X68022428Y-58725237D02*
X68070047Y-58701427D01*
X68070047Y-58701427D02*
X68117666Y-58701427D01*
X68117666Y-58701427D02*
X68189095Y-58725237D01*
X68189095Y-58725237D02*
X68474809Y-59010951D01*
X68474809Y-59010951D02*
X68474809Y-58701427D01*
X68474809Y-58487142D02*
X67974809Y-58487142D01*
X67974809Y-58487142D02*
X68474809Y-58201428D01*
X68474809Y-58201428D02*
X67974809Y-58201428D01*
X67974809Y-58010951D02*
X67974809Y-57701427D01*
X67974809Y-57701427D02*
X68165285Y-57868094D01*
X68165285Y-57868094D02*
X68165285Y-57796665D01*
X68165285Y-57796665D02*
X68189095Y-57749046D01*
X68189095Y-57749046D02*
X68212904Y-57725237D01*
X68212904Y-57725237D02*
X68260523Y-57701427D01*
X68260523Y-57701427D02*
X68379571Y-57701427D01*
X68379571Y-57701427D02*
X68427190Y-57725237D01*
X68427190Y-57725237D02*
X68451000Y-57749046D01*
X68451000Y-57749046D02*
X68474809Y-57796665D01*
X68474809Y-57796665D02*
X68474809Y-57939522D01*
X68474809Y-57939522D02*
X68451000Y-57987141D01*
X68451000Y-57987141D02*
X68427190Y-58010951D01*
X68474809Y-57463332D02*
X68474809Y-57368094D01*
X68474809Y-57368094D02*
X68451000Y-57320475D01*
X68451000Y-57320475D02*
X68427190Y-57296666D01*
X68427190Y-57296666D02*
X68355761Y-57249047D01*
X68355761Y-57249047D02*
X68260523Y-57225237D01*
X68260523Y-57225237D02*
X68070047Y-57225237D01*
X68070047Y-57225237D02*
X68022428Y-57249047D01*
X68022428Y-57249047D02*
X67998619Y-57272856D01*
X67998619Y-57272856D02*
X67974809Y-57320475D01*
X67974809Y-57320475D02*
X67974809Y-57415713D01*
X67974809Y-57415713D02*
X67998619Y-57463332D01*
X67998619Y-57463332D02*
X68022428Y-57487142D01*
X68022428Y-57487142D02*
X68070047Y-57510951D01*
X68070047Y-57510951D02*
X68189095Y-57510951D01*
X68189095Y-57510951D02*
X68236714Y-57487142D01*
X68236714Y-57487142D02*
X68260523Y-57463332D01*
X68260523Y-57463332D02*
X68284333Y-57415713D01*
X68284333Y-57415713D02*
X68284333Y-57320475D01*
X68284333Y-57320475D02*
X68260523Y-57272856D01*
X68260523Y-57272856D02*
X68236714Y-57249047D01*
X68236714Y-57249047D02*
X68189095Y-57225237D01*
X67974809Y-56915714D02*
X67974809Y-56868095D01*
X67974809Y-56868095D02*
X67998619Y-56820476D01*
X67998619Y-56820476D02*
X68022428Y-56796666D01*
X68022428Y-56796666D02*
X68070047Y-56772857D01*
X68070047Y-56772857D02*
X68165285Y-56749047D01*
X68165285Y-56749047D02*
X68284333Y-56749047D01*
X68284333Y-56749047D02*
X68379571Y-56772857D01*
X68379571Y-56772857D02*
X68427190Y-56796666D01*
X68427190Y-56796666D02*
X68451000Y-56820476D01*
X68451000Y-56820476D02*
X68474809Y-56868095D01*
X68474809Y-56868095D02*
X68474809Y-56915714D01*
X68474809Y-56915714D02*
X68451000Y-56963333D01*
X68451000Y-56963333D02*
X68427190Y-56987142D01*
X68427190Y-56987142D02*
X68379571Y-57010952D01*
X68379571Y-57010952D02*
X68284333Y-57034761D01*
X68284333Y-57034761D02*
X68165285Y-57034761D01*
X68165285Y-57034761D02*
X68070047Y-57010952D01*
X68070047Y-57010952D02*
X68022428Y-56987142D01*
X68022428Y-56987142D02*
X67998619Y-56963333D01*
X67998619Y-56963333D02*
X67974809Y-56915714D01*
X68141476Y-56320476D02*
X68474809Y-56320476D01*
X67951000Y-56439524D02*
X68308142Y-56558571D01*
X68308142Y-56558571D02*
X68308142Y-56249048D01*
X49962857Y-48854809D02*
X49677143Y-48854809D01*
X49820000Y-48854809D02*
X49820000Y-48354809D01*
X49820000Y-48354809D02*
X49772381Y-48426238D01*
X49772381Y-48426238D02*
X49724762Y-48473857D01*
X49724762Y-48473857D02*
X49677143Y-48497666D01*
X50177142Y-48854809D02*
X50177142Y-48354809D01*
X50462856Y-48854809D02*
X50248571Y-48569095D01*
X50462856Y-48354809D02*
X50177142Y-48640523D01*
X49096666Y-48174809D02*
X48930000Y-47936714D01*
X48810952Y-48174809D02*
X48810952Y-47674809D01*
X48810952Y-47674809D02*
X49001428Y-47674809D01*
X49001428Y-47674809D02*
X49049047Y-47698619D01*
X49049047Y-47698619D02*
X49072857Y-47722428D01*
X49072857Y-47722428D02*
X49096666Y-47770047D01*
X49096666Y-47770047D02*
X49096666Y-47841476D01*
X49096666Y-47841476D02*
X49072857Y-47889095D01*
X49072857Y-47889095D02*
X49049047Y-47912904D01*
X49049047Y-47912904D02*
X49001428Y-47936714D01*
X49001428Y-47936714D02*
X48810952Y-47936714D01*
X49525238Y-47841476D02*
X49525238Y-48174809D01*
X49406190Y-47651000D02*
X49287143Y-48008142D01*
X49287143Y-48008142D02*
X49596666Y-48008142D01*
X51674809Y-58829522D02*
X51674809Y-59067617D01*
X51674809Y-59067617D02*
X51912904Y-59091426D01*
X51912904Y-59091426D02*
X51889095Y-59067617D01*
X51889095Y-59067617D02*
X51865285Y-59019998D01*
X51865285Y-59019998D02*
X51865285Y-58900950D01*
X51865285Y-58900950D02*
X51889095Y-58853331D01*
X51889095Y-58853331D02*
X51912904Y-58829522D01*
X51912904Y-58829522D02*
X51960523Y-58805712D01*
X51960523Y-58805712D02*
X52079571Y-58805712D01*
X52079571Y-58805712D02*
X52127190Y-58829522D01*
X52127190Y-58829522D02*
X52151000Y-58853331D01*
X52151000Y-58853331D02*
X52174809Y-58900950D01*
X52174809Y-58900950D02*
X52174809Y-59019998D01*
X52174809Y-59019998D02*
X52151000Y-59067617D01*
X52151000Y-59067617D02*
X52127190Y-59091426D01*
X51674809Y-58353332D02*
X51674809Y-58591427D01*
X51674809Y-58591427D02*
X51912904Y-58615236D01*
X51912904Y-58615236D02*
X51889095Y-58591427D01*
X51889095Y-58591427D02*
X51865285Y-58543808D01*
X51865285Y-58543808D02*
X51865285Y-58424760D01*
X51865285Y-58424760D02*
X51889095Y-58377141D01*
X51889095Y-58377141D02*
X51912904Y-58353332D01*
X51912904Y-58353332D02*
X51960523Y-58329522D01*
X51960523Y-58329522D02*
X52079571Y-58329522D01*
X52079571Y-58329522D02*
X52127190Y-58353332D01*
X52127190Y-58353332D02*
X52151000Y-58377141D01*
X52151000Y-58377141D02*
X52174809Y-58424760D01*
X52174809Y-58424760D02*
X52174809Y-58543808D01*
X52174809Y-58543808D02*
X52151000Y-58591427D01*
X52151000Y-58591427D02*
X52127190Y-58615236D01*
X51674809Y-57877142D02*
X51674809Y-58115237D01*
X51674809Y-58115237D02*
X51912904Y-58139046D01*
X51912904Y-58139046D02*
X51889095Y-58115237D01*
X51889095Y-58115237D02*
X51865285Y-58067618D01*
X51865285Y-58067618D02*
X51865285Y-57948570D01*
X51865285Y-57948570D02*
X51889095Y-57900951D01*
X51889095Y-57900951D02*
X51912904Y-57877142D01*
X51912904Y-57877142D02*
X51960523Y-57853332D01*
X51960523Y-57853332D02*
X52079571Y-57853332D01*
X52079571Y-57853332D02*
X52127190Y-57877142D01*
X52127190Y-57877142D02*
X52151000Y-57900951D01*
X52151000Y-57900951D02*
X52174809Y-57948570D01*
X52174809Y-57948570D02*
X52174809Y-58067618D01*
X52174809Y-58067618D02*
X52151000Y-58115237D01*
X52151000Y-58115237D02*
X52127190Y-58139046D01*
X51674809Y-57329523D02*
X51674809Y-57043809D01*
X52174809Y-57186666D02*
X51674809Y-57186666D01*
X52174809Y-56877143D02*
X51841476Y-56877143D01*
X51674809Y-56877143D02*
X51698619Y-56900952D01*
X51698619Y-56900952D02*
X51722428Y-56877143D01*
X51722428Y-56877143D02*
X51698619Y-56853333D01*
X51698619Y-56853333D02*
X51674809Y-56877143D01*
X51674809Y-56877143D02*
X51722428Y-56877143D01*
X52174809Y-56639048D02*
X51841476Y-56639048D01*
X51889095Y-56639048D02*
X51865285Y-56615238D01*
X51865285Y-56615238D02*
X51841476Y-56567619D01*
X51841476Y-56567619D02*
X51841476Y-56496191D01*
X51841476Y-56496191D02*
X51865285Y-56448572D01*
X51865285Y-56448572D02*
X51912904Y-56424762D01*
X51912904Y-56424762D02*
X52174809Y-56424762D01*
X51912904Y-56424762D02*
X51865285Y-56400953D01*
X51865285Y-56400953D02*
X51841476Y-56353334D01*
X51841476Y-56353334D02*
X51841476Y-56281905D01*
X51841476Y-56281905D02*
X51865285Y-56234286D01*
X51865285Y-56234286D02*
X51912904Y-56210476D01*
X51912904Y-56210476D02*
X52174809Y-56210476D01*
X52151000Y-55781905D02*
X52174809Y-55829524D01*
X52174809Y-55829524D02*
X52174809Y-55924762D01*
X52174809Y-55924762D02*
X52151000Y-55972381D01*
X52151000Y-55972381D02*
X52103380Y-55996190D01*
X52103380Y-55996190D02*
X51912904Y-55996190D01*
X51912904Y-55996190D02*
X51865285Y-55972381D01*
X51865285Y-55972381D02*
X51841476Y-55924762D01*
X51841476Y-55924762D02*
X51841476Y-55829524D01*
X51841476Y-55829524D02*
X51865285Y-55781905D01*
X51865285Y-55781905D02*
X51912904Y-55758095D01*
X51912904Y-55758095D02*
X51960523Y-55758095D01*
X51960523Y-55758095D02*
X52008142Y-55996190D01*
X52174809Y-55543810D02*
X51841476Y-55543810D01*
X51936714Y-55543810D02*
X51889095Y-55520000D01*
X51889095Y-55520000D02*
X51865285Y-55496191D01*
X51865285Y-55496191D02*
X51841476Y-55448572D01*
X51841476Y-55448572D02*
X51841476Y-55400953D01*
X50459047Y-56204809D02*
X50459047Y-56609571D01*
X50459047Y-56609571D02*
X50482857Y-56657190D01*
X50482857Y-56657190D02*
X50506666Y-56681000D01*
X50506666Y-56681000D02*
X50554285Y-56704809D01*
X50554285Y-56704809D02*
X50649523Y-56704809D01*
X50649523Y-56704809D02*
X50697142Y-56681000D01*
X50697142Y-56681000D02*
X50720952Y-56657190D01*
X50720952Y-56657190D02*
X50744761Y-56609571D01*
X50744761Y-56609571D02*
X50744761Y-56204809D01*
X50959048Y-56252428D02*
X50982857Y-56228619D01*
X50982857Y-56228619D02*
X51030476Y-56204809D01*
X51030476Y-56204809D02*
X51149524Y-56204809D01*
X51149524Y-56204809D02*
X51197143Y-56228619D01*
X51197143Y-56228619D02*
X51220952Y-56252428D01*
X51220952Y-56252428D02*
X51244762Y-56300047D01*
X51244762Y-56300047D02*
X51244762Y-56347666D01*
X51244762Y-56347666D02*
X51220952Y-56419095D01*
X51220952Y-56419095D02*
X50935238Y-56704809D01*
X50935238Y-56704809D02*
X51244762Y-56704809D01*
X61297620Y-54484809D02*
X61607144Y-54484809D01*
X61607144Y-54484809D02*
X61440477Y-54675285D01*
X61440477Y-54675285D02*
X61511906Y-54675285D01*
X61511906Y-54675285D02*
X61559525Y-54699095D01*
X61559525Y-54699095D02*
X61583334Y-54722904D01*
X61583334Y-54722904D02*
X61607144Y-54770523D01*
X61607144Y-54770523D02*
X61607144Y-54889571D01*
X61607144Y-54889571D02*
X61583334Y-54937190D01*
X61583334Y-54937190D02*
X61559525Y-54961000D01*
X61559525Y-54961000D02*
X61511906Y-54984809D01*
X61511906Y-54984809D02*
X61369049Y-54984809D01*
X61369049Y-54984809D02*
X61321430Y-54961000D01*
X61321430Y-54961000D02*
X61297620Y-54937190D01*
X61821429Y-54937190D02*
X61845239Y-54961000D01*
X61845239Y-54961000D02*
X61821429Y-54984809D01*
X61821429Y-54984809D02*
X61797620Y-54961000D01*
X61797620Y-54961000D02*
X61821429Y-54937190D01*
X61821429Y-54937190D02*
X61821429Y-54984809D01*
X62011905Y-54484809D02*
X62321429Y-54484809D01*
X62321429Y-54484809D02*
X62154762Y-54675285D01*
X62154762Y-54675285D02*
X62226191Y-54675285D01*
X62226191Y-54675285D02*
X62273810Y-54699095D01*
X62273810Y-54699095D02*
X62297619Y-54722904D01*
X62297619Y-54722904D02*
X62321429Y-54770523D01*
X62321429Y-54770523D02*
X62321429Y-54889571D01*
X62321429Y-54889571D02*
X62297619Y-54937190D01*
X62297619Y-54937190D02*
X62273810Y-54961000D01*
X62273810Y-54961000D02*
X62226191Y-54984809D01*
X62226191Y-54984809D02*
X62083334Y-54984809D01*
X62083334Y-54984809D02*
X62035715Y-54961000D01*
X62035715Y-54961000D02*
X62011905Y-54937190D01*
X62845238Y-54484809D02*
X63011904Y-54984809D01*
X63011904Y-54984809D02*
X63178571Y-54484809D01*
X63654761Y-54484809D02*
X63821427Y-54984809D01*
X63821427Y-54984809D02*
X63988094Y-54484809D01*
X64154760Y-54937190D02*
X64178570Y-54961000D01*
X64178570Y-54961000D02*
X64154760Y-54984809D01*
X64154760Y-54984809D02*
X64130951Y-54961000D01*
X64130951Y-54961000D02*
X64154760Y-54937190D01*
X64154760Y-54937190D02*
X64154760Y-54984809D01*
X64678569Y-54984809D02*
X64511903Y-54746714D01*
X64392855Y-54984809D02*
X64392855Y-54484809D01*
X64392855Y-54484809D02*
X64583331Y-54484809D01*
X64583331Y-54484809D02*
X64630950Y-54508619D01*
X64630950Y-54508619D02*
X64654760Y-54532428D01*
X64654760Y-54532428D02*
X64678569Y-54580047D01*
X64678569Y-54580047D02*
X64678569Y-54651476D01*
X64678569Y-54651476D02*
X64654760Y-54699095D01*
X64654760Y-54699095D02*
X64630950Y-54722904D01*
X64630950Y-54722904D02*
X64583331Y-54746714D01*
X64583331Y-54746714D02*
X64392855Y-54746714D01*
X57489047Y-54454809D02*
X57489047Y-54859571D01*
X57489047Y-54859571D02*
X57512857Y-54907190D01*
X57512857Y-54907190D02*
X57536666Y-54931000D01*
X57536666Y-54931000D02*
X57584285Y-54954809D01*
X57584285Y-54954809D02*
X57679523Y-54954809D01*
X57679523Y-54954809D02*
X57727142Y-54931000D01*
X57727142Y-54931000D02*
X57750952Y-54907190D01*
X57750952Y-54907190D02*
X57774761Y-54859571D01*
X57774761Y-54859571D02*
X57774761Y-54454809D01*
X58274762Y-54954809D02*
X57989048Y-54954809D01*
X58131905Y-54954809D02*
X58131905Y-54454809D01*
X58131905Y-54454809D02*
X58084286Y-54526238D01*
X58084286Y-54526238D02*
X58036667Y-54573857D01*
X58036667Y-54573857D02*
X57989048Y-54597666D01*
X37802381Y-56074809D02*
X37516667Y-56074809D01*
X37659524Y-56074809D02*
X37659524Y-55574809D01*
X37659524Y-55574809D02*
X37611905Y-55646238D01*
X37611905Y-55646238D02*
X37564286Y-55693857D01*
X37564286Y-55693857D02*
X37516667Y-55717666D01*
X38230952Y-55741476D02*
X38230952Y-56074809D01*
X38016666Y-55741476D02*
X38016666Y-56003380D01*
X38016666Y-56003380D02*
X38040476Y-56051000D01*
X38040476Y-56051000D02*
X38088095Y-56074809D01*
X38088095Y-56074809D02*
X38159523Y-56074809D01*
X38159523Y-56074809D02*
X38207142Y-56051000D01*
X38207142Y-56051000D02*
X38230952Y-56027190D01*
X38635714Y-55812904D02*
X38469047Y-55812904D01*
X38469047Y-56074809D02*
X38469047Y-55574809D01*
X38469047Y-55574809D02*
X38707142Y-55574809D01*
X36106666Y-55957190D02*
X36082857Y-55981000D01*
X36082857Y-55981000D02*
X36011428Y-56004809D01*
X36011428Y-56004809D02*
X35963809Y-56004809D01*
X35963809Y-56004809D02*
X35892381Y-55981000D01*
X35892381Y-55981000D02*
X35844762Y-55933380D01*
X35844762Y-55933380D02*
X35820952Y-55885761D01*
X35820952Y-55885761D02*
X35797143Y-55790523D01*
X35797143Y-55790523D02*
X35797143Y-55719095D01*
X35797143Y-55719095D02*
X35820952Y-55623857D01*
X35820952Y-55623857D02*
X35844762Y-55576238D01*
X35844762Y-55576238D02*
X35892381Y-55528619D01*
X35892381Y-55528619D02*
X35963809Y-55504809D01*
X35963809Y-55504809D02*
X36011428Y-55504809D01*
X36011428Y-55504809D02*
X36082857Y-55528619D01*
X36082857Y-55528619D02*
X36106666Y-55552428D01*
X36582857Y-56004809D02*
X36297143Y-56004809D01*
X36440000Y-56004809D02*
X36440000Y-55504809D01*
X36440000Y-55504809D02*
X36392381Y-55576238D01*
X36392381Y-55576238D02*
X36344762Y-55623857D01*
X36344762Y-55623857D02*
X36297143Y-55647666D01*
X49161905Y-54424809D02*
X48923810Y-54424809D01*
X48923810Y-54424809D02*
X48900001Y-54662904D01*
X48900001Y-54662904D02*
X48923810Y-54639095D01*
X48923810Y-54639095D02*
X48971429Y-54615285D01*
X48971429Y-54615285D02*
X49090477Y-54615285D01*
X49090477Y-54615285D02*
X49138096Y-54639095D01*
X49138096Y-54639095D02*
X49161905Y-54662904D01*
X49161905Y-54662904D02*
X49185715Y-54710523D01*
X49185715Y-54710523D02*
X49185715Y-54829571D01*
X49185715Y-54829571D02*
X49161905Y-54877190D01*
X49161905Y-54877190D02*
X49138096Y-54901000D01*
X49138096Y-54901000D02*
X49090477Y-54924809D01*
X49090477Y-54924809D02*
X48971429Y-54924809D01*
X48971429Y-54924809D02*
X48923810Y-54901000D01*
X48923810Y-54901000D02*
X48900001Y-54877190D01*
X49400000Y-54877190D02*
X49423810Y-54901000D01*
X49423810Y-54901000D02*
X49400000Y-54924809D01*
X49400000Y-54924809D02*
X49376191Y-54901000D01*
X49376191Y-54901000D02*
X49400000Y-54877190D01*
X49400000Y-54877190D02*
X49400000Y-54924809D01*
X49852381Y-54424809D02*
X49757143Y-54424809D01*
X49757143Y-54424809D02*
X49709524Y-54448619D01*
X49709524Y-54448619D02*
X49685714Y-54472428D01*
X49685714Y-54472428D02*
X49638095Y-54543857D01*
X49638095Y-54543857D02*
X49614286Y-54639095D01*
X49614286Y-54639095D02*
X49614286Y-54829571D01*
X49614286Y-54829571D02*
X49638095Y-54877190D01*
X49638095Y-54877190D02*
X49661905Y-54901000D01*
X49661905Y-54901000D02*
X49709524Y-54924809D01*
X49709524Y-54924809D02*
X49804762Y-54924809D01*
X49804762Y-54924809D02*
X49852381Y-54901000D01*
X49852381Y-54901000D02*
X49876190Y-54877190D01*
X49876190Y-54877190D02*
X49900000Y-54829571D01*
X49900000Y-54829571D02*
X49900000Y-54710523D01*
X49900000Y-54710523D02*
X49876190Y-54662904D01*
X49876190Y-54662904D02*
X49852381Y-54639095D01*
X49852381Y-54639095D02*
X49804762Y-54615285D01*
X49804762Y-54615285D02*
X49709524Y-54615285D01*
X49709524Y-54615285D02*
X49661905Y-54639095D01*
X49661905Y-54639095D02*
X49638095Y-54662904D01*
X49638095Y-54662904D02*
X49614286Y-54710523D01*
X50114285Y-54924809D02*
X50114285Y-54424809D01*
X50399999Y-54924809D02*
X50185714Y-54639095D01*
X50399999Y-54424809D02*
X50114285Y-54710523D01*
X49406666Y-54254809D02*
X49240000Y-54016714D01*
X49120952Y-54254809D02*
X49120952Y-53754809D01*
X49120952Y-53754809D02*
X49311428Y-53754809D01*
X49311428Y-53754809D02*
X49359047Y-53778619D01*
X49359047Y-53778619D02*
X49382857Y-53802428D01*
X49382857Y-53802428D02*
X49406666Y-53850047D01*
X49406666Y-53850047D02*
X49406666Y-53921476D01*
X49406666Y-53921476D02*
X49382857Y-53969095D01*
X49382857Y-53969095D02*
X49359047Y-53992904D01*
X49359047Y-53992904D02*
X49311428Y-54016714D01*
X49311428Y-54016714D02*
X49120952Y-54016714D01*
X49835238Y-53754809D02*
X49740000Y-53754809D01*
X49740000Y-53754809D02*
X49692381Y-53778619D01*
X49692381Y-53778619D02*
X49668571Y-53802428D01*
X49668571Y-53802428D02*
X49620952Y-53873857D01*
X49620952Y-53873857D02*
X49597143Y-53969095D01*
X49597143Y-53969095D02*
X49597143Y-54159571D01*
X49597143Y-54159571D02*
X49620952Y-54207190D01*
X49620952Y-54207190D02*
X49644762Y-54231000D01*
X49644762Y-54231000D02*
X49692381Y-54254809D01*
X49692381Y-54254809D02*
X49787619Y-54254809D01*
X49787619Y-54254809D02*
X49835238Y-54231000D01*
X49835238Y-54231000D02*
X49859047Y-54207190D01*
X49859047Y-54207190D02*
X49882857Y-54159571D01*
X49882857Y-54159571D02*
X49882857Y-54040523D01*
X49882857Y-54040523D02*
X49859047Y-53992904D01*
X49859047Y-53992904D02*
X49835238Y-53969095D01*
X49835238Y-53969095D02*
X49787619Y-53945285D01*
X49787619Y-53945285D02*
X49692381Y-53945285D01*
X49692381Y-53945285D02*
X49644762Y-53969095D01*
X49644762Y-53969095D02*
X49620952Y-53992904D01*
X49620952Y-53992904D02*
X49597143Y-54040523D01*
X37804762Y-61304809D02*
X37519048Y-61304809D01*
X37661905Y-61304809D02*
X37661905Y-60804809D01*
X37661905Y-60804809D02*
X37614286Y-60876238D01*
X37614286Y-60876238D02*
X37566667Y-60923857D01*
X37566667Y-60923857D02*
X37519048Y-60947666D01*
X38114285Y-60804809D02*
X38161904Y-60804809D01*
X38161904Y-60804809D02*
X38209523Y-60828619D01*
X38209523Y-60828619D02*
X38233333Y-60852428D01*
X38233333Y-60852428D02*
X38257142Y-60900047D01*
X38257142Y-60900047D02*
X38280952Y-60995285D01*
X38280952Y-60995285D02*
X38280952Y-61114333D01*
X38280952Y-61114333D02*
X38257142Y-61209571D01*
X38257142Y-61209571D02*
X38233333Y-61257190D01*
X38233333Y-61257190D02*
X38209523Y-61281000D01*
X38209523Y-61281000D02*
X38161904Y-61304809D01*
X38161904Y-61304809D02*
X38114285Y-61304809D01*
X38114285Y-61304809D02*
X38066666Y-61281000D01*
X38066666Y-61281000D02*
X38042857Y-61257190D01*
X38042857Y-61257190D02*
X38019047Y-61209571D01*
X38019047Y-61209571D02*
X37995238Y-61114333D01*
X37995238Y-61114333D02*
X37995238Y-60995285D01*
X37995238Y-60995285D02*
X38019047Y-60900047D01*
X38019047Y-60900047D02*
X38042857Y-60852428D01*
X38042857Y-60852428D02*
X38066666Y-60828619D01*
X38066666Y-60828619D02*
X38114285Y-60804809D01*
X38495237Y-61304809D02*
X38495237Y-60804809D01*
X38780951Y-61304809D02*
X38566666Y-61019095D01*
X38780951Y-60804809D02*
X38495237Y-61090523D01*
X36876666Y-61314809D02*
X36710000Y-61076714D01*
X36590952Y-61314809D02*
X36590952Y-60814809D01*
X36590952Y-60814809D02*
X36781428Y-60814809D01*
X36781428Y-60814809D02*
X36829047Y-60838619D01*
X36829047Y-60838619D02*
X36852857Y-60862428D01*
X36852857Y-60862428D02*
X36876666Y-60910047D01*
X36876666Y-60910047D02*
X36876666Y-60981476D01*
X36876666Y-60981476D02*
X36852857Y-61029095D01*
X36852857Y-61029095D02*
X36829047Y-61052904D01*
X36829047Y-61052904D02*
X36781428Y-61076714D01*
X36781428Y-61076714D02*
X36590952Y-61076714D01*
X37067143Y-60862428D02*
X37090952Y-60838619D01*
X37090952Y-60838619D02*
X37138571Y-60814809D01*
X37138571Y-60814809D02*
X37257619Y-60814809D01*
X37257619Y-60814809D02*
X37305238Y-60838619D01*
X37305238Y-60838619D02*
X37329047Y-60862428D01*
X37329047Y-60862428D02*
X37352857Y-60910047D01*
X37352857Y-60910047D02*
X37352857Y-60957666D01*
X37352857Y-60957666D02*
X37329047Y-61029095D01*
X37329047Y-61029095D02*
X37043333Y-61314809D01*
X37043333Y-61314809D02*
X37352857Y-61314809D01*
X36024762Y-57704809D02*
X35739048Y-57704809D01*
X35881905Y-57704809D02*
X35881905Y-57204809D01*
X35881905Y-57204809D02*
X35834286Y-57276238D01*
X35834286Y-57276238D02*
X35786667Y-57323857D01*
X35786667Y-57323857D02*
X35739048Y-57347666D01*
X36334285Y-57204809D02*
X36381904Y-57204809D01*
X36381904Y-57204809D02*
X36429523Y-57228619D01*
X36429523Y-57228619D02*
X36453333Y-57252428D01*
X36453333Y-57252428D02*
X36477142Y-57300047D01*
X36477142Y-57300047D02*
X36500952Y-57395285D01*
X36500952Y-57395285D02*
X36500952Y-57514333D01*
X36500952Y-57514333D02*
X36477142Y-57609571D01*
X36477142Y-57609571D02*
X36453333Y-57657190D01*
X36453333Y-57657190D02*
X36429523Y-57681000D01*
X36429523Y-57681000D02*
X36381904Y-57704809D01*
X36381904Y-57704809D02*
X36334285Y-57704809D01*
X36334285Y-57704809D02*
X36286666Y-57681000D01*
X36286666Y-57681000D02*
X36262857Y-57657190D01*
X36262857Y-57657190D02*
X36239047Y-57609571D01*
X36239047Y-57609571D02*
X36215238Y-57514333D01*
X36215238Y-57514333D02*
X36215238Y-57395285D01*
X36215238Y-57395285D02*
X36239047Y-57300047D01*
X36239047Y-57300047D02*
X36262857Y-57252428D01*
X36262857Y-57252428D02*
X36286666Y-57228619D01*
X36286666Y-57228619D02*
X36334285Y-57204809D01*
X36715237Y-57704809D02*
X36715237Y-57204809D01*
X37000951Y-57704809D02*
X36786666Y-57419095D01*
X37000951Y-57204809D02*
X36715237Y-57490523D01*
X34336666Y-57704809D02*
X34170000Y-57466714D01*
X34050952Y-57704809D02*
X34050952Y-57204809D01*
X34050952Y-57204809D02*
X34241428Y-57204809D01*
X34241428Y-57204809D02*
X34289047Y-57228619D01*
X34289047Y-57228619D02*
X34312857Y-57252428D01*
X34312857Y-57252428D02*
X34336666Y-57300047D01*
X34336666Y-57300047D02*
X34336666Y-57371476D01*
X34336666Y-57371476D02*
X34312857Y-57419095D01*
X34312857Y-57419095D02*
X34289047Y-57442904D01*
X34289047Y-57442904D02*
X34241428Y-57466714D01*
X34241428Y-57466714D02*
X34050952Y-57466714D01*
X34503333Y-57204809D02*
X34812857Y-57204809D01*
X34812857Y-57204809D02*
X34646190Y-57395285D01*
X34646190Y-57395285D02*
X34717619Y-57395285D01*
X34717619Y-57395285D02*
X34765238Y-57419095D01*
X34765238Y-57419095D02*
X34789047Y-57442904D01*
X34789047Y-57442904D02*
X34812857Y-57490523D01*
X34812857Y-57490523D02*
X34812857Y-57609571D01*
X34812857Y-57609571D02*
X34789047Y-57657190D01*
X34789047Y-57657190D02*
X34765238Y-57681000D01*
X34765238Y-57681000D02*
X34717619Y-57704809D01*
X34717619Y-57704809D02*
X34574762Y-57704809D01*
X34574762Y-57704809D02*
X34527143Y-57681000D01*
X34527143Y-57681000D02*
X34503333Y-57657190D01*
X53717143Y-57982904D02*
X53788571Y-58006714D01*
X53788571Y-58006714D02*
X53812381Y-58030523D01*
X53812381Y-58030523D02*
X53836190Y-58078142D01*
X53836190Y-58078142D02*
X53836190Y-58149571D01*
X53836190Y-58149571D02*
X53812381Y-58197190D01*
X53812381Y-58197190D02*
X53788571Y-58221000D01*
X53788571Y-58221000D02*
X53740952Y-58244809D01*
X53740952Y-58244809D02*
X53550476Y-58244809D01*
X53550476Y-58244809D02*
X53550476Y-57744809D01*
X53550476Y-57744809D02*
X53717143Y-57744809D01*
X53717143Y-57744809D02*
X53764762Y-57768619D01*
X53764762Y-57768619D02*
X53788571Y-57792428D01*
X53788571Y-57792428D02*
X53812381Y-57840047D01*
X53812381Y-57840047D02*
X53812381Y-57887666D01*
X53812381Y-57887666D02*
X53788571Y-57935285D01*
X53788571Y-57935285D02*
X53764762Y-57959095D01*
X53764762Y-57959095D02*
X53717143Y-57982904D01*
X53717143Y-57982904D02*
X53550476Y-57982904D01*
X53979048Y-57744809D02*
X54264762Y-57744809D01*
X54121905Y-58244809D02*
X54121905Y-57744809D01*
X54693333Y-58244809D02*
X54407619Y-58244809D01*
X54550476Y-58244809D02*
X54550476Y-57744809D01*
X54550476Y-57744809D02*
X54502857Y-57816238D01*
X54502857Y-57816238D02*
X54455238Y-57863857D01*
X54455238Y-57863857D02*
X54407619Y-57887666D01*
X53144286Y-58702904D02*
X53215714Y-58726714D01*
X53215714Y-58726714D02*
X53239524Y-58750523D01*
X53239524Y-58750523D02*
X53263333Y-58798142D01*
X53263333Y-58798142D02*
X53263333Y-58869571D01*
X53263333Y-58869571D02*
X53239524Y-58917190D01*
X53239524Y-58917190D02*
X53215714Y-58941000D01*
X53215714Y-58941000D02*
X53168095Y-58964809D01*
X53168095Y-58964809D02*
X52977619Y-58964809D01*
X52977619Y-58964809D02*
X52977619Y-58464809D01*
X52977619Y-58464809D02*
X53144286Y-58464809D01*
X53144286Y-58464809D02*
X53191905Y-58488619D01*
X53191905Y-58488619D02*
X53215714Y-58512428D01*
X53215714Y-58512428D02*
X53239524Y-58560047D01*
X53239524Y-58560047D02*
X53239524Y-58607666D01*
X53239524Y-58607666D02*
X53215714Y-58655285D01*
X53215714Y-58655285D02*
X53191905Y-58679095D01*
X53191905Y-58679095D02*
X53144286Y-58702904D01*
X53144286Y-58702904D02*
X52977619Y-58702904D01*
X53691905Y-58964809D02*
X53691905Y-58702904D01*
X53691905Y-58702904D02*
X53668095Y-58655285D01*
X53668095Y-58655285D02*
X53620476Y-58631476D01*
X53620476Y-58631476D02*
X53525238Y-58631476D01*
X53525238Y-58631476D02*
X53477619Y-58655285D01*
X53691905Y-58941000D02*
X53644286Y-58964809D01*
X53644286Y-58964809D02*
X53525238Y-58964809D01*
X53525238Y-58964809D02*
X53477619Y-58941000D01*
X53477619Y-58941000D02*
X53453810Y-58893380D01*
X53453810Y-58893380D02*
X53453810Y-58845761D01*
X53453810Y-58845761D02*
X53477619Y-58798142D01*
X53477619Y-58798142D02*
X53525238Y-58774333D01*
X53525238Y-58774333D02*
X53644286Y-58774333D01*
X53644286Y-58774333D02*
X53691905Y-58750523D01*
X53858572Y-58631476D02*
X54049048Y-58631476D01*
X53930000Y-58464809D02*
X53930000Y-58893380D01*
X53930000Y-58893380D02*
X53953810Y-58941000D01*
X53953810Y-58941000D02*
X54001429Y-58964809D01*
X54001429Y-58964809D02*
X54049048Y-58964809D01*
X54144286Y-58631476D02*
X54334762Y-58631476D01*
X54215714Y-58464809D02*
X54215714Y-58893380D01*
X54215714Y-58893380D02*
X54239524Y-58941000D01*
X54239524Y-58941000D02*
X54287143Y-58964809D01*
X54287143Y-58964809D02*
X54334762Y-58964809D01*
X54691904Y-58941000D02*
X54644285Y-58964809D01*
X54644285Y-58964809D02*
X54549047Y-58964809D01*
X54549047Y-58964809D02*
X54501428Y-58941000D01*
X54501428Y-58941000D02*
X54477619Y-58893380D01*
X54477619Y-58893380D02*
X54477619Y-58702904D01*
X54477619Y-58702904D02*
X54501428Y-58655285D01*
X54501428Y-58655285D02*
X54549047Y-58631476D01*
X54549047Y-58631476D02*
X54644285Y-58631476D01*
X54644285Y-58631476D02*
X54691904Y-58655285D01*
X54691904Y-58655285D02*
X54715714Y-58702904D01*
X54715714Y-58702904D02*
X54715714Y-58750523D01*
X54715714Y-58750523D02*
X54477619Y-58798142D01*
X54929999Y-58964809D02*
X54929999Y-58631476D01*
X54929999Y-58726714D02*
X54953809Y-58679095D01*
X54953809Y-58679095D02*
X54977618Y-58655285D01*
X54977618Y-58655285D02*
X55025237Y-58631476D01*
X55025237Y-58631476D02*
X55072856Y-58631476D01*
X55191904Y-58631476D02*
X55310952Y-58964809D01*
X55429999Y-58631476D02*
X55310952Y-58964809D01*
X55310952Y-58964809D02*
X55263333Y-59083857D01*
X55263333Y-59083857D02*
X55239523Y-59107666D01*
X55239523Y-59107666D02*
X55191904Y-59131476D01*
X57088572Y-48144809D02*
X57136191Y-48144809D01*
X57136191Y-48144809D02*
X57183810Y-48168619D01*
X57183810Y-48168619D02*
X57207620Y-48192428D01*
X57207620Y-48192428D02*
X57231429Y-48240047D01*
X57231429Y-48240047D02*
X57255239Y-48335285D01*
X57255239Y-48335285D02*
X57255239Y-48454333D01*
X57255239Y-48454333D02*
X57231429Y-48549571D01*
X57231429Y-48549571D02*
X57207620Y-48597190D01*
X57207620Y-48597190D02*
X57183810Y-48621000D01*
X57183810Y-48621000D02*
X57136191Y-48644809D01*
X57136191Y-48644809D02*
X57088572Y-48644809D01*
X57088572Y-48644809D02*
X57040953Y-48621000D01*
X57040953Y-48621000D02*
X57017144Y-48597190D01*
X57017144Y-48597190D02*
X56993334Y-48549571D01*
X56993334Y-48549571D02*
X56969525Y-48454333D01*
X56969525Y-48454333D02*
X56969525Y-48335285D01*
X56969525Y-48335285D02*
X56993334Y-48240047D01*
X56993334Y-48240047D02*
X57017144Y-48192428D01*
X57017144Y-48192428D02*
X57040953Y-48168619D01*
X57040953Y-48168619D02*
X57088572Y-48144809D01*
X57469524Y-48597190D02*
X57493334Y-48621000D01*
X57493334Y-48621000D02*
X57469524Y-48644809D01*
X57469524Y-48644809D02*
X57445715Y-48621000D01*
X57445715Y-48621000D02*
X57469524Y-48597190D01*
X57469524Y-48597190D02*
X57469524Y-48644809D01*
X57969524Y-48644809D02*
X57683810Y-48644809D01*
X57826667Y-48644809D02*
X57826667Y-48144809D01*
X57826667Y-48144809D02*
X57779048Y-48216238D01*
X57779048Y-48216238D02*
X57731429Y-48263857D01*
X57731429Y-48263857D02*
X57683810Y-48287666D01*
X58398095Y-48311476D02*
X58398095Y-48644809D01*
X58183809Y-48311476D02*
X58183809Y-48573380D01*
X58183809Y-48573380D02*
X58207619Y-48621000D01*
X58207619Y-48621000D02*
X58255238Y-48644809D01*
X58255238Y-48644809D02*
X58326666Y-48644809D01*
X58326666Y-48644809D02*
X58374285Y-48621000D01*
X58374285Y-48621000D02*
X58398095Y-48597190D01*
X58802857Y-48382904D02*
X58636190Y-48382904D01*
X58636190Y-48644809D02*
X58636190Y-48144809D01*
X58636190Y-48144809D02*
X58874285Y-48144809D01*
X56296666Y-47937190D02*
X56272857Y-47961000D01*
X56272857Y-47961000D02*
X56201428Y-47984809D01*
X56201428Y-47984809D02*
X56153809Y-47984809D01*
X56153809Y-47984809D02*
X56082381Y-47961000D01*
X56082381Y-47961000D02*
X56034762Y-47913380D01*
X56034762Y-47913380D02*
X56010952Y-47865761D01*
X56010952Y-47865761D02*
X55987143Y-47770523D01*
X55987143Y-47770523D02*
X55987143Y-47699095D01*
X55987143Y-47699095D02*
X56010952Y-47603857D01*
X56010952Y-47603857D02*
X56034762Y-47556238D01*
X56034762Y-47556238D02*
X56082381Y-47508619D01*
X56082381Y-47508619D02*
X56153809Y-47484809D01*
X56153809Y-47484809D02*
X56201428Y-47484809D01*
X56201428Y-47484809D02*
X56272857Y-47508619D01*
X56272857Y-47508619D02*
X56296666Y-47532428D01*
X56463333Y-47484809D02*
X56772857Y-47484809D01*
X56772857Y-47484809D02*
X56606190Y-47675285D01*
X56606190Y-47675285D02*
X56677619Y-47675285D01*
X56677619Y-47675285D02*
X56725238Y-47699095D01*
X56725238Y-47699095D02*
X56749047Y-47722904D01*
X56749047Y-47722904D02*
X56772857Y-47770523D01*
X56772857Y-47770523D02*
X56772857Y-47889571D01*
X56772857Y-47889571D02*
X56749047Y-47937190D01*
X56749047Y-47937190D02*
X56725238Y-47961000D01*
X56725238Y-47961000D02*
X56677619Y-47984809D01*
X56677619Y-47984809D02*
X56534762Y-47984809D01*
X56534762Y-47984809D02*
X56487143Y-47961000D01*
X56487143Y-47961000D02*
X56463333Y-47937190D01*
X31588095Y-47124809D02*
X31683333Y-47124809D01*
X31683333Y-47124809D02*
X31730952Y-47148619D01*
X31730952Y-47148619D02*
X31778571Y-47196238D01*
X31778571Y-47196238D02*
X31802381Y-47291476D01*
X31802381Y-47291476D02*
X31802381Y-47458142D01*
X31802381Y-47458142D02*
X31778571Y-47553380D01*
X31778571Y-47553380D02*
X31730952Y-47601000D01*
X31730952Y-47601000D02*
X31683333Y-47624809D01*
X31683333Y-47624809D02*
X31588095Y-47624809D01*
X31588095Y-47624809D02*
X31540476Y-47601000D01*
X31540476Y-47601000D02*
X31492857Y-47553380D01*
X31492857Y-47553380D02*
X31469048Y-47458142D01*
X31469048Y-47458142D02*
X31469048Y-47291476D01*
X31469048Y-47291476D02*
X31492857Y-47196238D01*
X31492857Y-47196238D02*
X31540476Y-47148619D01*
X31540476Y-47148619D02*
X31588095Y-47124809D01*
X32016667Y-47624809D02*
X32016667Y-47124809D01*
X32016667Y-47124809D02*
X32207143Y-47124809D01*
X32207143Y-47124809D02*
X32254762Y-47148619D01*
X32254762Y-47148619D02*
X32278572Y-47172428D01*
X32278572Y-47172428D02*
X32302381Y-47220047D01*
X32302381Y-47220047D02*
X32302381Y-47291476D01*
X32302381Y-47291476D02*
X32278572Y-47339095D01*
X32278572Y-47339095D02*
X32254762Y-47362904D01*
X32254762Y-47362904D02*
X32207143Y-47386714D01*
X32207143Y-47386714D02*
X32016667Y-47386714D01*
X32873810Y-47481952D02*
X33111905Y-47481952D01*
X32826191Y-47624809D02*
X32992857Y-47124809D01*
X32992857Y-47124809D02*
X33159524Y-47624809D01*
X33326190Y-47624809D02*
X33326190Y-47291476D01*
X33326190Y-47339095D02*
X33350000Y-47315285D01*
X33350000Y-47315285D02*
X33397619Y-47291476D01*
X33397619Y-47291476D02*
X33469047Y-47291476D01*
X33469047Y-47291476D02*
X33516666Y-47315285D01*
X33516666Y-47315285D02*
X33540476Y-47362904D01*
X33540476Y-47362904D02*
X33540476Y-47624809D01*
X33540476Y-47362904D02*
X33564285Y-47315285D01*
X33564285Y-47315285D02*
X33611904Y-47291476D01*
X33611904Y-47291476D02*
X33683333Y-47291476D01*
X33683333Y-47291476D02*
X33730952Y-47315285D01*
X33730952Y-47315285D02*
X33754762Y-47362904D01*
X33754762Y-47362904D02*
X33754762Y-47624809D01*
X33992857Y-47291476D02*
X33992857Y-47791476D01*
X33992857Y-47315285D02*
X34040476Y-47291476D01*
X34040476Y-47291476D02*
X34135714Y-47291476D01*
X34135714Y-47291476D02*
X34183333Y-47315285D01*
X34183333Y-47315285D02*
X34207143Y-47339095D01*
X34207143Y-47339095D02*
X34230952Y-47386714D01*
X34230952Y-47386714D02*
X34230952Y-47529571D01*
X34230952Y-47529571D02*
X34207143Y-47577190D01*
X34207143Y-47577190D02*
X34183333Y-47601000D01*
X34183333Y-47601000D02*
X34135714Y-47624809D01*
X34135714Y-47624809D02*
X34040476Y-47624809D01*
X34040476Y-47624809D02*
X33992857Y-47601000D01*
X30109047Y-47134809D02*
X30109047Y-47539571D01*
X30109047Y-47539571D02*
X30132857Y-47587190D01*
X30132857Y-47587190D02*
X30156666Y-47611000D01*
X30156666Y-47611000D02*
X30204285Y-47634809D01*
X30204285Y-47634809D02*
X30299523Y-47634809D01*
X30299523Y-47634809D02*
X30347142Y-47611000D01*
X30347142Y-47611000D02*
X30370952Y-47587190D01*
X30370952Y-47587190D02*
X30394761Y-47539571D01*
X30394761Y-47539571D02*
X30394761Y-47134809D01*
X30847143Y-47301476D02*
X30847143Y-47634809D01*
X30728095Y-47111000D02*
X30609048Y-47468142D01*
X30609048Y-47468142D02*
X30918571Y-47468142D01*
X68153810Y-21008619D02*
X68106191Y-20984809D01*
X68106191Y-20984809D02*
X68034762Y-20984809D01*
X68034762Y-20984809D02*
X67963334Y-21008619D01*
X67963334Y-21008619D02*
X67915715Y-21056238D01*
X67915715Y-21056238D02*
X67891905Y-21103857D01*
X67891905Y-21103857D02*
X67868096Y-21199095D01*
X67868096Y-21199095D02*
X67868096Y-21270523D01*
X67868096Y-21270523D02*
X67891905Y-21365761D01*
X67891905Y-21365761D02*
X67915715Y-21413380D01*
X67915715Y-21413380D02*
X67963334Y-21461000D01*
X67963334Y-21461000D02*
X68034762Y-21484809D01*
X68034762Y-21484809D02*
X68082381Y-21484809D01*
X68082381Y-21484809D02*
X68153810Y-21461000D01*
X68153810Y-21461000D02*
X68177619Y-21437190D01*
X68177619Y-21437190D02*
X68177619Y-21270523D01*
X68177619Y-21270523D02*
X68082381Y-21270523D01*
X68344286Y-21151476D02*
X68463334Y-21484809D01*
X68582381Y-21151476D02*
X68463334Y-21484809D01*
X68463334Y-21484809D02*
X68415715Y-21603857D01*
X68415715Y-21603857D02*
X68391905Y-21627666D01*
X68391905Y-21627666D02*
X68344286Y-21651476D01*
X68772857Y-21484809D02*
X68772857Y-21151476D01*
X68772857Y-21246714D02*
X68796667Y-21199095D01*
X68796667Y-21199095D02*
X68820476Y-21175285D01*
X68820476Y-21175285D02*
X68868095Y-21151476D01*
X68868095Y-21151476D02*
X68915714Y-21151476D01*
X69153810Y-21484809D02*
X69106191Y-21461000D01*
X69106191Y-21461000D02*
X69082381Y-21437190D01*
X69082381Y-21437190D02*
X69058572Y-21389571D01*
X69058572Y-21389571D02*
X69058572Y-21246714D01*
X69058572Y-21246714D02*
X69082381Y-21199095D01*
X69082381Y-21199095D02*
X69106191Y-21175285D01*
X69106191Y-21175285D02*
X69153810Y-21151476D01*
X69153810Y-21151476D02*
X69225238Y-21151476D01*
X69225238Y-21151476D02*
X69272857Y-21175285D01*
X69272857Y-21175285D02*
X69296667Y-21199095D01*
X69296667Y-21199095D02*
X69320476Y-21246714D01*
X69320476Y-21246714D02*
X69320476Y-21389571D01*
X69320476Y-21389571D02*
X69296667Y-21437190D01*
X69296667Y-21437190D02*
X69272857Y-21461000D01*
X69272857Y-21461000D02*
X69225238Y-21484809D01*
X69225238Y-21484809D02*
X69153810Y-21484809D01*
X69510953Y-21461000D02*
X69558572Y-21484809D01*
X69558572Y-21484809D02*
X69653810Y-21484809D01*
X69653810Y-21484809D02*
X69701429Y-21461000D01*
X69701429Y-21461000D02*
X69725238Y-21413380D01*
X69725238Y-21413380D02*
X69725238Y-21389571D01*
X69725238Y-21389571D02*
X69701429Y-21341952D01*
X69701429Y-21341952D02*
X69653810Y-21318142D01*
X69653810Y-21318142D02*
X69582381Y-21318142D01*
X69582381Y-21318142D02*
X69534762Y-21294333D01*
X69534762Y-21294333D02*
X69510953Y-21246714D01*
X69510953Y-21246714D02*
X69510953Y-21222904D01*
X69510953Y-21222904D02*
X69534762Y-21175285D01*
X69534762Y-21175285D02*
X69582381Y-21151476D01*
X69582381Y-21151476D02*
X69653810Y-21151476D01*
X69653810Y-21151476D02*
X69701429Y-21175285D01*
X70153810Y-21461000D02*
X70106191Y-21484809D01*
X70106191Y-21484809D02*
X70010953Y-21484809D01*
X70010953Y-21484809D02*
X69963334Y-21461000D01*
X69963334Y-21461000D02*
X69939524Y-21437190D01*
X69939524Y-21437190D02*
X69915715Y-21389571D01*
X69915715Y-21389571D02*
X69915715Y-21246714D01*
X69915715Y-21246714D02*
X69939524Y-21199095D01*
X69939524Y-21199095D02*
X69963334Y-21175285D01*
X69963334Y-21175285D02*
X70010953Y-21151476D01*
X70010953Y-21151476D02*
X70106191Y-21151476D01*
X70106191Y-21151476D02*
X70153810Y-21175285D01*
X70439524Y-21484809D02*
X70391905Y-21461000D01*
X70391905Y-21461000D02*
X70368095Y-21437190D01*
X70368095Y-21437190D02*
X70344286Y-21389571D01*
X70344286Y-21389571D02*
X70344286Y-21246714D01*
X70344286Y-21246714D02*
X70368095Y-21199095D01*
X70368095Y-21199095D02*
X70391905Y-21175285D01*
X70391905Y-21175285D02*
X70439524Y-21151476D01*
X70439524Y-21151476D02*
X70510952Y-21151476D01*
X70510952Y-21151476D02*
X70558571Y-21175285D01*
X70558571Y-21175285D02*
X70582381Y-21199095D01*
X70582381Y-21199095D02*
X70606190Y-21246714D01*
X70606190Y-21246714D02*
X70606190Y-21389571D01*
X70606190Y-21389571D02*
X70582381Y-21437190D01*
X70582381Y-21437190D02*
X70558571Y-21461000D01*
X70558571Y-21461000D02*
X70510952Y-21484809D01*
X70510952Y-21484809D02*
X70439524Y-21484809D01*
X70820476Y-21151476D02*
X70820476Y-21651476D01*
X70820476Y-21175285D02*
X70868095Y-21151476D01*
X70868095Y-21151476D02*
X70963333Y-21151476D01*
X70963333Y-21151476D02*
X71010952Y-21175285D01*
X71010952Y-21175285D02*
X71034762Y-21199095D01*
X71034762Y-21199095D02*
X71058571Y-21246714D01*
X71058571Y-21246714D02*
X71058571Y-21389571D01*
X71058571Y-21389571D02*
X71034762Y-21437190D01*
X71034762Y-21437190D02*
X71010952Y-21461000D01*
X71010952Y-21461000D02*
X70963333Y-21484809D01*
X70963333Y-21484809D02*
X70868095Y-21484809D01*
X70868095Y-21484809D02*
X70820476Y-21461000D01*
X71463333Y-21461000D02*
X71415714Y-21484809D01*
X71415714Y-21484809D02*
X71320476Y-21484809D01*
X71320476Y-21484809D02*
X71272857Y-21461000D01*
X71272857Y-21461000D02*
X71249048Y-21413380D01*
X71249048Y-21413380D02*
X71249048Y-21222904D01*
X71249048Y-21222904D02*
X71272857Y-21175285D01*
X71272857Y-21175285D02*
X71320476Y-21151476D01*
X71320476Y-21151476D02*
X71415714Y-21151476D01*
X71415714Y-21151476D02*
X71463333Y-21175285D01*
X71463333Y-21175285D02*
X71487143Y-21222904D01*
X71487143Y-21222904D02*
X71487143Y-21270523D01*
X71487143Y-21270523D02*
X71249048Y-21318142D01*
X72058571Y-21461000D02*
X72129999Y-21484809D01*
X72129999Y-21484809D02*
X72249047Y-21484809D01*
X72249047Y-21484809D02*
X72296666Y-21461000D01*
X72296666Y-21461000D02*
X72320475Y-21437190D01*
X72320475Y-21437190D02*
X72344285Y-21389571D01*
X72344285Y-21389571D02*
X72344285Y-21341952D01*
X72344285Y-21341952D02*
X72320475Y-21294333D01*
X72320475Y-21294333D02*
X72296666Y-21270523D01*
X72296666Y-21270523D02*
X72249047Y-21246714D01*
X72249047Y-21246714D02*
X72153809Y-21222904D01*
X72153809Y-21222904D02*
X72106190Y-21199095D01*
X72106190Y-21199095D02*
X72082380Y-21175285D01*
X72082380Y-21175285D02*
X72058571Y-21127666D01*
X72058571Y-21127666D02*
X72058571Y-21080047D01*
X72058571Y-21080047D02*
X72082380Y-21032428D01*
X72082380Y-21032428D02*
X72106190Y-21008619D01*
X72106190Y-21008619D02*
X72153809Y-20984809D01*
X72153809Y-20984809D02*
X72272856Y-20984809D01*
X72272856Y-20984809D02*
X72344285Y-21008619D01*
X72749046Y-21461000D02*
X72701427Y-21484809D01*
X72701427Y-21484809D02*
X72606189Y-21484809D01*
X72606189Y-21484809D02*
X72558570Y-21461000D01*
X72558570Y-21461000D02*
X72534761Y-21413380D01*
X72534761Y-21413380D02*
X72534761Y-21222904D01*
X72534761Y-21222904D02*
X72558570Y-21175285D01*
X72558570Y-21175285D02*
X72606189Y-21151476D01*
X72606189Y-21151476D02*
X72701427Y-21151476D01*
X72701427Y-21151476D02*
X72749046Y-21175285D01*
X72749046Y-21175285D02*
X72772856Y-21222904D01*
X72772856Y-21222904D02*
X72772856Y-21270523D01*
X72772856Y-21270523D02*
X72534761Y-21318142D01*
X72987141Y-21151476D02*
X72987141Y-21484809D01*
X72987141Y-21199095D02*
X73010951Y-21175285D01*
X73010951Y-21175285D02*
X73058570Y-21151476D01*
X73058570Y-21151476D02*
X73129998Y-21151476D01*
X73129998Y-21151476D02*
X73177617Y-21175285D01*
X73177617Y-21175285D02*
X73201427Y-21222904D01*
X73201427Y-21222904D02*
X73201427Y-21484809D01*
X73415713Y-21461000D02*
X73463332Y-21484809D01*
X73463332Y-21484809D02*
X73558570Y-21484809D01*
X73558570Y-21484809D02*
X73606189Y-21461000D01*
X73606189Y-21461000D02*
X73629998Y-21413380D01*
X73629998Y-21413380D02*
X73629998Y-21389571D01*
X73629998Y-21389571D02*
X73606189Y-21341952D01*
X73606189Y-21341952D02*
X73558570Y-21318142D01*
X73558570Y-21318142D02*
X73487141Y-21318142D01*
X73487141Y-21318142D02*
X73439522Y-21294333D01*
X73439522Y-21294333D02*
X73415713Y-21246714D01*
X73415713Y-21246714D02*
X73415713Y-21222904D01*
X73415713Y-21222904D02*
X73439522Y-21175285D01*
X73439522Y-21175285D02*
X73487141Y-21151476D01*
X73487141Y-21151476D02*
X73558570Y-21151476D01*
X73558570Y-21151476D02*
X73606189Y-21175285D01*
X73915713Y-21484809D02*
X73868094Y-21461000D01*
X73868094Y-21461000D02*
X73844284Y-21437190D01*
X73844284Y-21437190D02*
X73820475Y-21389571D01*
X73820475Y-21389571D02*
X73820475Y-21246714D01*
X73820475Y-21246714D02*
X73844284Y-21199095D01*
X73844284Y-21199095D02*
X73868094Y-21175285D01*
X73868094Y-21175285D02*
X73915713Y-21151476D01*
X73915713Y-21151476D02*
X73987141Y-21151476D01*
X73987141Y-21151476D02*
X74034760Y-21175285D01*
X74034760Y-21175285D02*
X74058570Y-21199095D01*
X74058570Y-21199095D02*
X74082379Y-21246714D01*
X74082379Y-21246714D02*
X74082379Y-21389571D01*
X74082379Y-21389571D02*
X74058570Y-21437190D01*
X74058570Y-21437190D02*
X74034760Y-21461000D01*
X74034760Y-21461000D02*
X73987141Y-21484809D01*
X73987141Y-21484809D02*
X73915713Y-21484809D01*
X74296665Y-21484809D02*
X74296665Y-21151476D01*
X74296665Y-21246714D02*
X74320475Y-21199095D01*
X74320475Y-21199095D02*
X74344284Y-21175285D01*
X74344284Y-21175285D02*
X74391903Y-21151476D01*
X74391903Y-21151476D02*
X74439522Y-21151476D01*
X66423333Y-20964809D02*
X66423333Y-21321952D01*
X66423333Y-21321952D02*
X66399524Y-21393380D01*
X66399524Y-21393380D02*
X66351905Y-21441000D01*
X66351905Y-21441000D02*
X66280476Y-21464809D01*
X66280476Y-21464809D02*
X66232857Y-21464809D01*
X66613809Y-20964809D02*
X66923333Y-20964809D01*
X66923333Y-20964809D02*
X66756666Y-21155285D01*
X66756666Y-21155285D02*
X66828095Y-21155285D01*
X66828095Y-21155285D02*
X66875714Y-21179095D01*
X66875714Y-21179095D02*
X66899523Y-21202904D01*
X66899523Y-21202904D02*
X66923333Y-21250523D01*
X66923333Y-21250523D02*
X66923333Y-21369571D01*
X66923333Y-21369571D02*
X66899523Y-21417190D01*
X66899523Y-21417190D02*
X66875714Y-21441000D01*
X66875714Y-21441000D02*
X66828095Y-21464809D01*
X66828095Y-21464809D02*
X66685238Y-21464809D01*
X66685238Y-21464809D02*
X66637619Y-21441000D01*
X66637619Y-21441000D02*
X66613809Y-21417190D01*
X65503333Y-29394809D02*
X65503333Y-29751952D01*
X65503333Y-29751952D02*
X65479524Y-29823380D01*
X65479524Y-29823380D02*
X65431905Y-29871000D01*
X65431905Y-29871000D02*
X65360476Y-29894809D01*
X65360476Y-29894809D02*
X65312857Y-29894809D01*
X66003333Y-29894809D02*
X65717619Y-29894809D01*
X65860476Y-29894809D02*
X65860476Y-29394809D01*
X65860476Y-29394809D02*
X65812857Y-29466238D01*
X65812857Y-29466238D02*
X65765238Y-29513857D01*
X65765238Y-29513857D02*
X65717619Y-29537666D01*
X59332382Y-29894809D02*
X59332382Y-29394809D01*
X59332382Y-29394809D02*
X59522858Y-29394809D01*
X59522858Y-29394809D02*
X59570477Y-29418619D01*
X59570477Y-29418619D02*
X59594287Y-29442428D01*
X59594287Y-29442428D02*
X59618096Y-29490047D01*
X59618096Y-29490047D02*
X59618096Y-29561476D01*
X59618096Y-29561476D02*
X59594287Y-29609095D01*
X59594287Y-29609095D02*
X59570477Y-29632904D01*
X59570477Y-29632904D02*
X59522858Y-29656714D01*
X59522858Y-29656714D02*
X59332382Y-29656714D01*
X59832382Y-29894809D02*
X59832382Y-29561476D01*
X59832382Y-29394809D02*
X59808573Y-29418619D01*
X59808573Y-29418619D02*
X59832382Y-29442428D01*
X59832382Y-29442428D02*
X59856192Y-29418619D01*
X59856192Y-29418619D02*
X59832382Y-29394809D01*
X59832382Y-29394809D02*
X59832382Y-29442428D01*
X60284763Y-29871000D02*
X60237144Y-29894809D01*
X60237144Y-29894809D02*
X60141906Y-29894809D01*
X60141906Y-29894809D02*
X60094287Y-29871000D01*
X60094287Y-29871000D02*
X60070477Y-29847190D01*
X60070477Y-29847190D02*
X60046668Y-29799571D01*
X60046668Y-29799571D02*
X60046668Y-29656714D01*
X60046668Y-29656714D02*
X60070477Y-29609095D01*
X60070477Y-29609095D02*
X60094287Y-29585285D01*
X60094287Y-29585285D02*
X60141906Y-29561476D01*
X60141906Y-29561476D02*
X60237144Y-29561476D01*
X60237144Y-29561476D02*
X60284763Y-29585285D01*
X60570477Y-29894809D02*
X60522858Y-29871000D01*
X60522858Y-29871000D02*
X60499048Y-29847190D01*
X60499048Y-29847190D02*
X60475239Y-29799571D01*
X60475239Y-29799571D02*
X60475239Y-29656714D01*
X60475239Y-29656714D02*
X60499048Y-29609095D01*
X60499048Y-29609095D02*
X60522858Y-29585285D01*
X60522858Y-29585285D02*
X60570477Y-29561476D01*
X60570477Y-29561476D02*
X60641905Y-29561476D01*
X60641905Y-29561476D02*
X60689524Y-29585285D01*
X60689524Y-29585285D02*
X60713334Y-29609095D01*
X60713334Y-29609095D02*
X60737143Y-29656714D01*
X60737143Y-29656714D02*
X60737143Y-29799571D01*
X60737143Y-29799571D02*
X60713334Y-29847190D01*
X60713334Y-29847190D02*
X60689524Y-29871000D01*
X60689524Y-29871000D02*
X60641905Y-29894809D01*
X60641905Y-29894809D02*
X60570477Y-29894809D01*
X61308572Y-29871000D02*
X61380000Y-29894809D01*
X61380000Y-29894809D02*
X61499048Y-29894809D01*
X61499048Y-29894809D02*
X61546667Y-29871000D01*
X61546667Y-29871000D02*
X61570476Y-29847190D01*
X61570476Y-29847190D02*
X61594286Y-29799571D01*
X61594286Y-29799571D02*
X61594286Y-29751952D01*
X61594286Y-29751952D02*
X61570476Y-29704333D01*
X61570476Y-29704333D02*
X61546667Y-29680523D01*
X61546667Y-29680523D02*
X61499048Y-29656714D01*
X61499048Y-29656714D02*
X61403810Y-29632904D01*
X61403810Y-29632904D02*
X61356191Y-29609095D01*
X61356191Y-29609095D02*
X61332381Y-29585285D01*
X61332381Y-29585285D02*
X61308572Y-29537666D01*
X61308572Y-29537666D02*
X61308572Y-29490047D01*
X61308572Y-29490047D02*
X61332381Y-29442428D01*
X61332381Y-29442428D02*
X61356191Y-29418619D01*
X61356191Y-29418619D02*
X61403810Y-29394809D01*
X61403810Y-29394809D02*
X61522857Y-29394809D01*
X61522857Y-29394809D02*
X61594286Y-29418619D01*
X61880000Y-29894809D02*
X61832381Y-29871000D01*
X61832381Y-29871000D02*
X61808571Y-29847190D01*
X61808571Y-29847190D02*
X61784762Y-29799571D01*
X61784762Y-29799571D02*
X61784762Y-29656714D01*
X61784762Y-29656714D02*
X61808571Y-29609095D01*
X61808571Y-29609095D02*
X61832381Y-29585285D01*
X61832381Y-29585285D02*
X61880000Y-29561476D01*
X61880000Y-29561476D02*
X61951428Y-29561476D01*
X61951428Y-29561476D02*
X61999047Y-29585285D01*
X61999047Y-29585285D02*
X62022857Y-29609095D01*
X62022857Y-29609095D02*
X62046666Y-29656714D01*
X62046666Y-29656714D02*
X62046666Y-29799571D01*
X62046666Y-29799571D02*
X62022857Y-29847190D01*
X62022857Y-29847190D02*
X61999047Y-29871000D01*
X61999047Y-29871000D02*
X61951428Y-29894809D01*
X61951428Y-29894809D02*
X61880000Y-29894809D01*
X62475238Y-29871000D02*
X62427619Y-29894809D01*
X62427619Y-29894809D02*
X62332381Y-29894809D01*
X62332381Y-29894809D02*
X62284762Y-29871000D01*
X62284762Y-29871000D02*
X62260952Y-29847190D01*
X62260952Y-29847190D02*
X62237143Y-29799571D01*
X62237143Y-29799571D02*
X62237143Y-29656714D01*
X62237143Y-29656714D02*
X62260952Y-29609095D01*
X62260952Y-29609095D02*
X62284762Y-29585285D01*
X62284762Y-29585285D02*
X62332381Y-29561476D01*
X62332381Y-29561476D02*
X62427619Y-29561476D01*
X62427619Y-29561476D02*
X62475238Y-29585285D01*
X62689523Y-29894809D02*
X62689523Y-29394809D01*
X62737142Y-29704333D02*
X62879999Y-29894809D01*
X62879999Y-29561476D02*
X62689523Y-29751952D01*
X63284761Y-29871000D02*
X63237142Y-29894809D01*
X63237142Y-29894809D02*
X63141904Y-29894809D01*
X63141904Y-29894809D02*
X63094285Y-29871000D01*
X63094285Y-29871000D02*
X63070476Y-29823380D01*
X63070476Y-29823380D02*
X63070476Y-29632904D01*
X63070476Y-29632904D02*
X63094285Y-29585285D01*
X63094285Y-29585285D02*
X63141904Y-29561476D01*
X63141904Y-29561476D02*
X63237142Y-29561476D01*
X63237142Y-29561476D02*
X63284761Y-29585285D01*
X63284761Y-29585285D02*
X63308571Y-29632904D01*
X63308571Y-29632904D02*
X63308571Y-29680523D01*
X63308571Y-29680523D02*
X63070476Y-29728142D01*
X63451428Y-29561476D02*
X63641904Y-29561476D01*
X63522856Y-29394809D02*
X63522856Y-29823380D01*
X63522856Y-29823380D02*
X63546666Y-29871000D01*
X63546666Y-29871000D02*
X63594285Y-29894809D01*
X63594285Y-29894809D02*
X63641904Y-29894809D01*
X64451427Y-29894809D02*
X64165713Y-29894809D01*
X64308570Y-29894809D02*
X64308570Y-29394809D01*
X64308570Y-29394809D02*
X64260951Y-29466238D01*
X64260951Y-29466238D02*
X64213332Y-29513857D01*
X64213332Y-29513857D02*
X64165713Y-29537666D01*
X49772857Y-51084809D02*
X49487143Y-51084809D01*
X49630000Y-51084809D02*
X49630000Y-50584809D01*
X49630000Y-50584809D02*
X49582381Y-50656238D01*
X49582381Y-50656238D02*
X49534762Y-50703857D01*
X49534762Y-50703857D02*
X49487143Y-50727666D01*
X49987142Y-51084809D02*
X49987142Y-50584809D01*
X50272856Y-51084809D02*
X50058571Y-50799095D01*
X50272856Y-50584809D02*
X49987142Y-50870523D01*
X49096666Y-50434809D02*
X48930000Y-50196714D01*
X48810952Y-50434809D02*
X48810952Y-49934809D01*
X48810952Y-49934809D02*
X49001428Y-49934809D01*
X49001428Y-49934809D02*
X49049047Y-49958619D01*
X49049047Y-49958619D02*
X49072857Y-49982428D01*
X49072857Y-49982428D02*
X49096666Y-50030047D01*
X49096666Y-50030047D02*
X49096666Y-50101476D01*
X49096666Y-50101476D02*
X49072857Y-50149095D01*
X49072857Y-50149095D02*
X49049047Y-50172904D01*
X49049047Y-50172904D02*
X49001428Y-50196714D01*
X49001428Y-50196714D02*
X48810952Y-50196714D01*
X49549047Y-49934809D02*
X49310952Y-49934809D01*
X49310952Y-49934809D02*
X49287143Y-50172904D01*
X49287143Y-50172904D02*
X49310952Y-50149095D01*
X49310952Y-50149095D02*
X49358571Y-50125285D01*
X49358571Y-50125285D02*
X49477619Y-50125285D01*
X49477619Y-50125285D02*
X49525238Y-50149095D01*
X49525238Y-50149095D02*
X49549047Y-50172904D01*
X49549047Y-50172904D02*
X49572857Y-50220523D01*
X49572857Y-50220523D02*
X49572857Y-50339571D01*
X49572857Y-50339571D02*
X49549047Y-50387190D01*
X49549047Y-50387190D02*
X49525238Y-50411000D01*
X49525238Y-50411000D02*
X49477619Y-50434809D01*
X49477619Y-50434809D02*
X49358571Y-50434809D01*
X49358571Y-50434809D02*
X49310952Y-50411000D01*
X49310952Y-50411000D02*
X49287143Y-50387190D01*
X40463333Y-42694809D02*
X40463333Y-43051952D01*
X40463333Y-43051952D02*
X40439524Y-43123380D01*
X40439524Y-43123380D02*
X40391905Y-43171000D01*
X40391905Y-43171000D02*
X40320476Y-43194809D01*
X40320476Y-43194809D02*
X40272857Y-43194809D01*
X40677619Y-42742428D02*
X40701428Y-42718619D01*
X40701428Y-42718619D02*
X40749047Y-42694809D01*
X40749047Y-42694809D02*
X40868095Y-42694809D01*
X40868095Y-42694809D02*
X40915714Y-42718619D01*
X40915714Y-42718619D02*
X40939523Y-42742428D01*
X40939523Y-42742428D02*
X40963333Y-42790047D01*
X40963333Y-42790047D02*
X40963333Y-42837666D01*
X40963333Y-42837666D02*
X40939523Y-42909095D01*
X40939523Y-42909095D02*
X40653809Y-43194809D01*
X40653809Y-43194809D02*
X40963333Y-43194809D01*
X34162382Y-43184809D02*
X34162382Y-42684809D01*
X34162382Y-42684809D02*
X34352858Y-42684809D01*
X34352858Y-42684809D02*
X34400477Y-42708619D01*
X34400477Y-42708619D02*
X34424287Y-42732428D01*
X34424287Y-42732428D02*
X34448096Y-42780047D01*
X34448096Y-42780047D02*
X34448096Y-42851476D01*
X34448096Y-42851476D02*
X34424287Y-42899095D01*
X34424287Y-42899095D02*
X34400477Y-42922904D01*
X34400477Y-42922904D02*
X34352858Y-42946714D01*
X34352858Y-42946714D02*
X34162382Y-42946714D01*
X34662382Y-43184809D02*
X34662382Y-42851476D01*
X34662382Y-42684809D02*
X34638573Y-42708619D01*
X34638573Y-42708619D02*
X34662382Y-42732428D01*
X34662382Y-42732428D02*
X34686192Y-42708619D01*
X34686192Y-42708619D02*
X34662382Y-42684809D01*
X34662382Y-42684809D02*
X34662382Y-42732428D01*
X35114763Y-43161000D02*
X35067144Y-43184809D01*
X35067144Y-43184809D02*
X34971906Y-43184809D01*
X34971906Y-43184809D02*
X34924287Y-43161000D01*
X34924287Y-43161000D02*
X34900477Y-43137190D01*
X34900477Y-43137190D02*
X34876668Y-43089571D01*
X34876668Y-43089571D02*
X34876668Y-42946714D01*
X34876668Y-42946714D02*
X34900477Y-42899095D01*
X34900477Y-42899095D02*
X34924287Y-42875285D01*
X34924287Y-42875285D02*
X34971906Y-42851476D01*
X34971906Y-42851476D02*
X35067144Y-42851476D01*
X35067144Y-42851476D02*
X35114763Y-42875285D01*
X35400477Y-43184809D02*
X35352858Y-43161000D01*
X35352858Y-43161000D02*
X35329048Y-43137190D01*
X35329048Y-43137190D02*
X35305239Y-43089571D01*
X35305239Y-43089571D02*
X35305239Y-42946714D01*
X35305239Y-42946714D02*
X35329048Y-42899095D01*
X35329048Y-42899095D02*
X35352858Y-42875285D01*
X35352858Y-42875285D02*
X35400477Y-42851476D01*
X35400477Y-42851476D02*
X35471905Y-42851476D01*
X35471905Y-42851476D02*
X35519524Y-42875285D01*
X35519524Y-42875285D02*
X35543334Y-42899095D01*
X35543334Y-42899095D02*
X35567143Y-42946714D01*
X35567143Y-42946714D02*
X35567143Y-43089571D01*
X35567143Y-43089571D02*
X35543334Y-43137190D01*
X35543334Y-43137190D02*
X35519524Y-43161000D01*
X35519524Y-43161000D02*
X35471905Y-43184809D01*
X35471905Y-43184809D02*
X35400477Y-43184809D01*
X36138572Y-43161000D02*
X36210000Y-43184809D01*
X36210000Y-43184809D02*
X36329048Y-43184809D01*
X36329048Y-43184809D02*
X36376667Y-43161000D01*
X36376667Y-43161000D02*
X36400476Y-43137190D01*
X36400476Y-43137190D02*
X36424286Y-43089571D01*
X36424286Y-43089571D02*
X36424286Y-43041952D01*
X36424286Y-43041952D02*
X36400476Y-42994333D01*
X36400476Y-42994333D02*
X36376667Y-42970523D01*
X36376667Y-42970523D02*
X36329048Y-42946714D01*
X36329048Y-42946714D02*
X36233810Y-42922904D01*
X36233810Y-42922904D02*
X36186191Y-42899095D01*
X36186191Y-42899095D02*
X36162381Y-42875285D01*
X36162381Y-42875285D02*
X36138572Y-42827666D01*
X36138572Y-42827666D02*
X36138572Y-42780047D01*
X36138572Y-42780047D02*
X36162381Y-42732428D01*
X36162381Y-42732428D02*
X36186191Y-42708619D01*
X36186191Y-42708619D02*
X36233810Y-42684809D01*
X36233810Y-42684809D02*
X36352857Y-42684809D01*
X36352857Y-42684809D02*
X36424286Y-42708619D01*
X36710000Y-43184809D02*
X36662381Y-43161000D01*
X36662381Y-43161000D02*
X36638571Y-43137190D01*
X36638571Y-43137190D02*
X36614762Y-43089571D01*
X36614762Y-43089571D02*
X36614762Y-42946714D01*
X36614762Y-42946714D02*
X36638571Y-42899095D01*
X36638571Y-42899095D02*
X36662381Y-42875285D01*
X36662381Y-42875285D02*
X36710000Y-42851476D01*
X36710000Y-42851476D02*
X36781428Y-42851476D01*
X36781428Y-42851476D02*
X36829047Y-42875285D01*
X36829047Y-42875285D02*
X36852857Y-42899095D01*
X36852857Y-42899095D02*
X36876666Y-42946714D01*
X36876666Y-42946714D02*
X36876666Y-43089571D01*
X36876666Y-43089571D02*
X36852857Y-43137190D01*
X36852857Y-43137190D02*
X36829047Y-43161000D01*
X36829047Y-43161000D02*
X36781428Y-43184809D01*
X36781428Y-43184809D02*
X36710000Y-43184809D01*
X37305238Y-43161000D02*
X37257619Y-43184809D01*
X37257619Y-43184809D02*
X37162381Y-43184809D01*
X37162381Y-43184809D02*
X37114762Y-43161000D01*
X37114762Y-43161000D02*
X37090952Y-43137190D01*
X37090952Y-43137190D02*
X37067143Y-43089571D01*
X37067143Y-43089571D02*
X37067143Y-42946714D01*
X37067143Y-42946714D02*
X37090952Y-42899095D01*
X37090952Y-42899095D02*
X37114762Y-42875285D01*
X37114762Y-42875285D02*
X37162381Y-42851476D01*
X37162381Y-42851476D02*
X37257619Y-42851476D01*
X37257619Y-42851476D02*
X37305238Y-42875285D01*
X37519523Y-43184809D02*
X37519523Y-42684809D01*
X37567142Y-42994333D02*
X37709999Y-43184809D01*
X37709999Y-42851476D02*
X37519523Y-43041952D01*
X38114761Y-43161000D02*
X38067142Y-43184809D01*
X38067142Y-43184809D02*
X37971904Y-43184809D01*
X37971904Y-43184809D02*
X37924285Y-43161000D01*
X37924285Y-43161000D02*
X37900476Y-43113380D01*
X37900476Y-43113380D02*
X37900476Y-42922904D01*
X37900476Y-42922904D02*
X37924285Y-42875285D01*
X37924285Y-42875285D02*
X37971904Y-42851476D01*
X37971904Y-42851476D02*
X38067142Y-42851476D01*
X38067142Y-42851476D02*
X38114761Y-42875285D01*
X38114761Y-42875285D02*
X38138571Y-42922904D01*
X38138571Y-42922904D02*
X38138571Y-42970523D01*
X38138571Y-42970523D02*
X37900476Y-43018142D01*
X38281428Y-42851476D02*
X38471904Y-42851476D01*
X38352856Y-42684809D02*
X38352856Y-43113380D01*
X38352856Y-43113380D02*
X38376666Y-43161000D01*
X38376666Y-43161000D02*
X38424285Y-43184809D01*
X38424285Y-43184809D02*
X38471904Y-43184809D01*
X38995713Y-42732428D02*
X39019522Y-42708619D01*
X39019522Y-42708619D02*
X39067141Y-42684809D01*
X39067141Y-42684809D02*
X39186189Y-42684809D01*
X39186189Y-42684809D02*
X39233808Y-42708619D01*
X39233808Y-42708619D02*
X39257617Y-42732428D01*
X39257617Y-42732428D02*
X39281427Y-42780047D01*
X39281427Y-42780047D02*
X39281427Y-42827666D01*
X39281427Y-42827666D02*
X39257617Y-42899095D01*
X39257617Y-42899095D02*
X38971903Y-43184809D01*
X38971903Y-43184809D02*
X39281427Y-43184809D01*
X74372381Y-66294809D02*
X74086667Y-66294809D01*
X74229524Y-66294809D02*
X74229524Y-65794809D01*
X74229524Y-65794809D02*
X74181905Y-65866238D01*
X74181905Y-65866238D02*
X74134286Y-65913857D01*
X74134286Y-65913857D02*
X74086667Y-65937666D01*
X74800952Y-65961476D02*
X74800952Y-66294809D01*
X74586666Y-65961476D02*
X74586666Y-66223380D01*
X74586666Y-66223380D02*
X74610476Y-66271000D01*
X74610476Y-66271000D02*
X74658095Y-66294809D01*
X74658095Y-66294809D02*
X74729523Y-66294809D01*
X74729523Y-66294809D02*
X74777142Y-66271000D01*
X74777142Y-66271000D02*
X74800952Y-66247190D01*
X75205714Y-66032904D02*
X75039047Y-66032904D01*
X75039047Y-66294809D02*
X75039047Y-65794809D01*
X75039047Y-65794809D02*
X75277142Y-65794809D01*
X74786666Y-65437190D02*
X74762857Y-65461000D01*
X74762857Y-65461000D02*
X74691428Y-65484809D01*
X74691428Y-65484809D02*
X74643809Y-65484809D01*
X74643809Y-65484809D02*
X74572381Y-65461000D01*
X74572381Y-65461000D02*
X74524762Y-65413380D01*
X74524762Y-65413380D02*
X74500952Y-65365761D01*
X74500952Y-65365761D02*
X74477143Y-65270523D01*
X74477143Y-65270523D02*
X74477143Y-65199095D01*
X74477143Y-65199095D02*
X74500952Y-65103857D01*
X74500952Y-65103857D02*
X74524762Y-65056238D01*
X74524762Y-65056238D02*
X74572381Y-65008619D01*
X74572381Y-65008619D02*
X74643809Y-64984809D01*
X74643809Y-64984809D02*
X74691428Y-64984809D01*
X74691428Y-64984809D02*
X74762857Y-65008619D01*
X74762857Y-65008619D02*
X74786666Y-65032428D01*
X74977143Y-65032428D02*
X75000952Y-65008619D01*
X75000952Y-65008619D02*
X75048571Y-64984809D01*
X75048571Y-64984809D02*
X75167619Y-64984809D01*
X75167619Y-64984809D02*
X75215238Y-65008619D01*
X75215238Y-65008619D02*
X75239047Y-65032428D01*
X75239047Y-65032428D02*
X75262857Y-65080047D01*
X75262857Y-65080047D02*
X75262857Y-65127666D01*
X75262857Y-65127666D02*
X75239047Y-65199095D01*
X75239047Y-65199095D02*
X74953333Y-65484809D01*
X74953333Y-65484809D02*
X75262857Y-65484809D01*
X69328572Y-49944809D02*
X69042858Y-49944809D01*
X69185715Y-49944809D02*
X69185715Y-49444809D01*
X69185715Y-49444809D02*
X69138096Y-49516238D01*
X69138096Y-49516238D02*
X69090477Y-49563857D01*
X69090477Y-49563857D02*
X69042858Y-49587666D01*
X69542857Y-49944809D02*
X69542857Y-49444809D01*
X69542857Y-49444809D02*
X69828571Y-49944809D01*
X69828571Y-49944809D02*
X69828571Y-49444809D01*
X70280953Y-49611476D02*
X70280953Y-49944809D01*
X70161905Y-49421000D02*
X70042858Y-49778142D01*
X70042858Y-49778142D02*
X70352381Y-49778142D01*
X70638095Y-49444809D02*
X70685714Y-49444809D01*
X70685714Y-49444809D02*
X70733333Y-49468619D01*
X70733333Y-49468619D02*
X70757143Y-49492428D01*
X70757143Y-49492428D02*
X70780952Y-49540047D01*
X70780952Y-49540047D02*
X70804762Y-49635285D01*
X70804762Y-49635285D02*
X70804762Y-49754333D01*
X70804762Y-49754333D02*
X70780952Y-49849571D01*
X70780952Y-49849571D02*
X70757143Y-49897190D01*
X70757143Y-49897190D02*
X70733333Y-49921000D01*
X70733333Y-49921000D02*
X70685714Y-49944809D01*
X70685714Y-49944809D02*
X70638095Y-49944809D01*
X70638095Y-49944809D02*
X70590476Y-49921000D01*
X70590476Y-49921000D02*
X70566667Y-49897190D01*
X70566667Y-49897190D02*
X70542857Y-49849571D01*
X70542857Y-49849571D02*
X70519048Y-49754333D01*
X70519048Y-49754333D02*
X70519048Y-49635285D01*
X70519048Y-49635285D02*
X70542857Y-49540047D01*
X70542857Y-49540047D02*
X70566667Y-49492428D01*
X70566667Y-49492428D02*
X70590476Y-49468619D01*
X70590476Y-49468619D02*
X70638095Y-49444809D01*
X71114285Y-49444809D02*
X71161904Y-49444809D01*
X71161904Y-49444809D02*
X71209523Y-49468619D01*
X71209523Y-49468619D02*
X71233333Y-49492428D01*
X71233333Y-49492428D02*
X71257142Y-49540047D01*
X71257142Y-49540047D02*
X71280952Y-49635285D01*
X71280952Y-49635285D02*
X71280952Y-49754333D01*
X71280952Y-49754333D02*
X71257142Y-49849571D01*
X71257142Y-49849571D02*
X71233333Y-49897190D01*
X71233333Y-49897190D02*
X71209523Y-49921000D01*
X71209523Y-49921000D02*
X71161904Y-49944809D01*
X71161904Y-49944809D02*
X71114285Y-49944809D01*
X71114285Y-49944809D02*
X71066666Y-49921000D01*
X71066666Y-49921000D02*
X71042857Y-49897190D01*
X71042857Y-49897190D02*
X71019047Y-49849571D01*
X71019047Y-49849571D02*
X70995238Y-49754333D01*
X70995238Y-49754333D02*
X70995238Y-49635285D01*
X70995238Y-49635285D02*
X71019047Y-49540047D01*
X71019047Y-49540047D02*
X71042857Y-49492428D01*
X71042857Y-49492428D02*
X71066666Y-49468619D01*
X71066666Y-49468619D02*
X71114285Y-49444809D01*
X71757142Y-49944809D02*
X71471428Y-49944809D01*
X71614285Y-49944809D02*
X71614285Y-49444809D01*
X71614285Y-49444809D02*
X71566666Y-49516238D01*
X71566666Y-49516238D02*
X71519047Y-49563857D01*
X71519047Y-49563857D02*
X71471428Y-49587666D01*
X67670952Y-49954809D02*
X67670952Y-49454809D01*
X67670952Y-49454809D02*
X67790000Y-49454809D01*
X67790000Y-49454809D02*
X67861428Y-49478619D01*
X67861428Y-49478619D02*
X67909047Y-49526238D01*
X67909047Y-49526238D02*
X67932857Y-49573857D01*
X67932857Y-49573857D02*
X67956666Y-49669095D01*
X67956666Y-49669095D02*
X67956666Y-49740523D01*
X67956666Y-49740523D02*
X67932857Y-49835761D01*
X67932857Y-49835761D02*
X67909047Y-49883380D01*
X67909047Y-49883380D02*
X67861428Y-49931000D01*
X67861428Y-49931000D02*
X67790000Y-49954809D01*
X67790000Y-49954809D02*
X67670952Y-49954809D01*
X68432857Y-49954809D02*
X68147143Y-49954809D01*
X68290000Y-49954809D02*
X68290000Y-49454809D01*
X68290000Y-49454809D02*
X68242381Y-49526238D01*
X68242381Y-49526238D02*
X68194762Y-49573857D01*
X68194762Y-49573857D02*
X68147143Y-49597666D01*
X32474286Y-64134809D02*
X32188572Y-64134809D01*
X32331429Y-64134809D02*
X32331429Y-63634809D01*
X32331429Y-63634809D02*
X32283810Y-63706238D01*
X32283810Y-63706238D02*
X32236191Y-63753857D01*
X32236191Y-63753857D02*
X32188572Y-63777666D01*
X32783809Y-63634809D02*
X32831428Y-63634809D01*
X32831428Y-63634809D02*
X32879047Y-63658619D01*
X32879047Y-63658619D02*
X32902857Y-63682428D01*
X32902857Y-63682428D02*
X32926666Y-63730047D01*
X32926666Y-63730047D02*
X32950476Y-63825285D01*
X32950476Y-63825285D02*
X32950476Y-63944333D01*
X32950476Y-63944333D02*
X32926666Y-64039571D01*
X32926666Y-64039571D02*
X32902857Y-64087190D01*
X32902857Y-64087190D02*
X32879047Y-64111000D01*
X32879047Y-64111000D02*
X32831428Y-64134809D01*
X32831428Y-64134809D02*
X32783809Y-64134809D01*
X32783809Y-64134809D02*
X32736190Y-64111000D01*
X32736190Y-64111000D02*
X32712381Y-64087190D01*
X32712381Y-64087190D02*
X32688571Y-64039571D01*
X32688571Y-64039571D02*
X32664762Y-63944333D01*
X32664762Y-63944333D02*
X32664762Y-63825285D01*
X32664762Y-63825285D02*
X32688571Y-63730047D01*
X32688571Y-63730047D02*
X32712381Y-63682428D01*
X32712381Y-63682428D02*
X32736190Y-63658619D01*
X32736190Y-63658619D02*
X32783809Y-63634809D01*
X33259999Y-63634809D02*
X33307618Y-63634809D01*
X33307618Y-63634809D02*
X33355237Y-63658619D01*
X33355237Y-63658619D02*
X33379047Y-63682428D01*
X33379047Y-63682428D02*
X33402856Y-63730047D01*
X33402856Y-63730047D02*
X33426666Y-63825285D01*
X33426666Y-63825285D02*
X33426666Y-63944333D01*
X33426666Y-63944333D02*
X33402856Y-64039571D01*
X33402856Y-64039571D02*
X33379047Y-64087190D01*
X33379047Y-64087190D02*
X33355237Y-64111000D01*
X33355237Y-64111000D02*
X33307618Y-64134809D01*
X33307618Y-64134809D02*
X33259999Y-64134809D01*
X33259999Y-64134809D02*
X33212380Y-64111000D01*
X33212380Y-64111000D02*
X33188571Y-64087190D01*
X33188571Y-64087190D02*
X33164761Y-64039571D01*
X33164761Y-64039571D02*
X33140952Y-63944333D01*
X33140952Y-63944333D02*
X33140952Y-63825285D01*
X33140952Y-63825285D02*
X33164761Y-63730047D01*
X33164761Y-63730047D02*
X33188571Y-63682428D01*
X33188571Y-63682428D02*
X33212380Y-63658619D01*
X33212380Y-63658619D02*
X33259999Y-63634809D01*
X33640951Y-64134809D02*
X33640951Y-63634809D01*
X33688570Y-63944333D02*
X33831427Y-64134809D01*
X33831427Y-63801476D02*
X33640951Y-63991952D01*
X35456666Y-64134809D02*
X35290000Y-63896714D01*
X35170952Y-64134809D02*
X35170952Y-63634809D01*
X35170952Y-63634809D02*
X35361428Y-63634809D01*
X35361428Y-63634809D02*
X35409047Y-63658619D01*
X35409047Y-63658619D02*
X35432857Y-63682428D01*
X35432857Y-63682428D02*
X35456666Y-63730047D01*
X35456666Y-63730047D02*
X35456666Y-63801476D01*
X35456666Y-63801476D02*
X35432857Y-63849095D01*
X35432857Y-63849095D02*
X35409047Y-63872904D01*
X35409047Y-63872904D02*
X35361428Y-63896714D01*
X35361428Y-63896714D02*
X35170952Y-63896714D01*
X35932857Y-64134809D02*
X35647143Y-64134809D01*
X35790000Y-64134809D02*
X35790000Y-63634809D01*
X35790000Y-63634809D02*
X35742381Y-63706238D01*
X35742381Y-63706238D02*
X35694762Y-63753857D01*
X35694762Y-63753857D02*
X35647143Y-63777666D01*
D11*
%TO.C,U3*%
X31832000Y-23160000D02*
X31832000Y-21250000D01*
X31832000Y-21250000D02*
X29922000Y-21250000D01*
X31522000Y-25160000D02*
X31522000Y-21560000D01*
X31522000Y-23610000D02*
X31222000Y-23610000D01*
X31522000Y-22860000D02*
X31222000Y-22860000D01*
X31522000Y-21560000D02*
X25922000Y-21560000D01*
X31222000Y-24710000D02*
X30922000Y-24710000D01*
X31222000Y-23610000D02*
X31222000Y-24710000D01*
X31222000Y-22860000D02*
X31222000Y-21860000D01*
X31222000Y-21860000D02*
X26222000Y-21860000D01*
X30922000Y-24710000D02*
X30922000Y-25160000D01*
X30922000Y-24710000D02*
X29722000Y-24710000D01*
X29722000Y-25010000D02*
X28972000Y-25010000D01*
X29722000Y-24710000D02*
X29722000Y-25010000D01*
X28972000Y-25010000D02*
X28972000Y-24710000D01*
X28972000Y-24710000D02*
X28472000Y-24710000D01*
X28472000Y-25010000D02*
X27722000Y-25010000D01*
X28472000Y-24710000D02*
X28472000Y-25010000D01*
X27722000Y-25010000D02*
X27722000Y-24710000D01*
X27722000Y-24710000D02*
X26522000Y-24710000D01*
X26522000Y-24710000D02*
X26522000Y-25160000D01*
X26222000Y-24710000D02*
X26522000Y-24710000D01*
X26222000Y-23610000D02*
X26222000Y-24710000D01*
X26222000Y-22860000D02*
X25922000Y-22860000D01*
X26222000Y-21860000D02*
X26222000Y-22860000D01*
X25922000Y-25160000D02*
X31522000Y-25160000D01*
X25922000Y-23610000D02*
X26222000Y-23610000D01*
X25922000Y-21560000D02*
X25922000Y-25160000D01*
%TO.C,M1*%
X47052000Y-23160000D02*
X47052000Y-21250000D01*
X47052000Y-21250000D02*
X45142000Y-21250000D01*
X46742000Y-25160000D02*
X46742000Y-21560000D01*
X46742000Y-23610000D02*
X46442000Y-23610000D01*
X46742000Y-22860000D02*
X46442000Y-22860000D01*
X46742000Y-21560000D02*
X42392000Y-21560000D01*
X46442000Y-24710000D02*
X46142000Y-24710000D01*
X46442000Y-23610000D02*
X46442000Y-24710000D01*
X46442000Y-22860000D02*
X46442000Y-21860000D01*
X46442000Y-21860000D02*
X42692000Y-21860000D01*
X46142000Y-24710000D02*
X46142000Y-25160000D01*
X46142000Y-24710000D02*
X44942000Y-24710000D01*
X44942000Y-25010000D02*
X44192000Y-25010000D01*
X44942000Y-24710000D02*
X44942000Y-25010000D01*
X44192000Y-25010000D02*
X44192000Y-24710000D01*
X44192000Y-24710000D02*
X42992000Y-24710000D01*
X42992000Y-24710000D02*
X42992000Y-25160000D01*
X42692000Y-24710000D02*
X42992000Y-24710000D01*
X42692000Y-23610000D02*
X42692000Y-24710000D01*
X42692000Y-22860000D02*
X42392000Y-22860000D01*
X42692000Y-21860000D02*
X42692000Y-22860000D01*
X42392000Y-25160000D02*
X46742000Y-25160000D01*
X42392000Y-23610000D02*
X42692000Y-23610000D01*
X42392000Y-21560000D02*
X42392000Y-25160000D01*
D12*
%TO.C,S1*%
X24178000Y-61562000D02*
X24178000Y-63914000D01*
X25002000Y-59738000D02*
X29354000Y-59738000D01*
X25002000Y-65738000D02*
X29354000Y-65738000D01*
X30178000Y-61562000D02*
X30178000Y-63914000D01*
D13*
X24028000Y-58734000D02*
G75*
G03*
X24028000Y-58734000I-100000J0D01*
G01*
D11*
%TO.C,Q1*%
X73174000Y-53776000D02*
X69574000Y-53776000D01*
X71374000Y-58226000D02*
G75*
G03*
X73212478Y-53787522I0J2600000D01*
G01*
X69535522Y-53787522D02*
G75*
G03*
X71374000Y-58226000I1838478J-1838478D01*
G01*
%TO.C,R4*%
X43038000Y-49942000D02*
X46878000Y-49942000D01*
X43038000Y-48102000D02*
X46878000Y-48102000D01*
%TO.C,U2*%
X50098000Y-65860500D02*
X50098000Y-55460500D01*
X50098000Y-55460500D02*
X39818000Y-55460500D01*
X47608000Y-65800500D02*
X47608000Y-55520500D01*
X47608000Y-55520500D02*
X42308000Y-55520500D01*
X45958000Y-65800500D02*
X47608000Y-65800500D01*
X42308000Y-65800500D02*
X43958000Y-65800500D01*
X42308000Y-55520500D02*
X42308000Y-65800500D01*
X39818000Y-65860500D02*
X50098000Y-65860500D01*
X39818000Y-55460500D02*
X39818000Y-65860500D01*
X45958000Y-65800500D02*
G75*
G03*
X43958000Y-65800500I-1000000J0D01*
G01*
%TO.C,U1*%
X67614000Y-65896000D02*
X67614000Y-55496000D01*
X67614000Y-55496000D02*
X57334000Y-55496000D01*
X65124000Y-65836000D02*
X65124000Y-55556000D01*
X65124000Y-55556000D02*
X59824000Y-55556000D01*
X63474000Y-65836000D02*
X65124000Y-65836000D01*
X59824000Y-65836000D02*
X61474000Y-65836000D01*
X59824000Y-55556000D02*
X59824000Y-65836000D01*
X57334000Y-65896000D02*
X67614000Y-65896000D01*
X57334000Y-55496000D02*
X57334000Y-65896000D01*
X63474000Y-65836000D02*
G75*
G03*
X61474000Y-65836000I-1000000J0D01*
G01*
%TO.C,C1*%
X35054712Y-50227000D02*
X35504712Y-50227000D01*
X35279712Y-50002000D02*
X35279712Y-50452000D01*
X39711740Y-50502000D02*
G75*
G03*
X35472260Y-50502000I-2119740J-1060001D01*
G01*
X35472260Y-52622000D02*
G75*
G03*
X39711740Y-52622000I2119740J1060001D01*
G01*
%TO.C,R6*%
X43038000Y-54514000D02*
X46878000Y-54514000D01*
X43038000Y-52674000D02*
X46878000Y-52674000D01*
%TO.C,R2*%
X37510000Y-63400000D02*
X33670000Y-63400000D01*
X37510000Y-61560000D02*
X33670000Y-61560000D01*
%TO.C,R3*%
X33640000Y-60564500D02*
X37480000Y-60564500D01*
X33640000Y-58724500D02*
X37480000Y-58724500D01*
%TO.C,BT1*%
X50978000Y-65822000D02*
X56178000Y-65822000D01*
X53578000Y-65822000D02*
X53578000Y-65422000D01*
X56178000Y-65822000D02*
X56178000Y-59622000D01*
X51378000Y-65422000D02*
X52578000Y-65422000D01*
X52578000Y-65422000D02*
X52578000Y-65822000D01*
X53578000Y-65422000D02*
X55778000Y-65422000D01*
X55778000Y-65422000D02*
X55778000Y-63222000D01*
X55778000Y-63222000D02*
X56178000Y-63222000D01*
X55778000Y-62222000D02*
X56178000Y-62222000D01*
X51378000Y-60022000D02*
X51378000Y-65422000D01*
X52578000Y-60022000D02*
X51378000Y-60022000D01*
X53578000Y-60022000D02*
X55778000Y-60022000D01*
X55778000Y-60022000D02*
X55778000Y-62222000D01*
X50978000Y-59622000D02*
X50978000Y-65822000D01*
X52578000Y-59622000D02*
X52578000Y-60022000D01*
X53578000Y-59622000D02*
X53578000Y-60022000D01*
X56178000Y-59622000D02*
X50978000Y-59622000D01*
X54578000Y-59312000D02*
X56488000Y-59312000D01*
X56488000Y-59312000D02*
X56488000Y-61222000D01*
%TO.C,C3*%
X51818712Y-50227000D02*
X52268712Y-50227000D01*
X52043712Y-50002000D02*
X52043712Y-50452000D01*
X56475740Y-50502000D02*
G75*
G03*
X52236260Y-50502000I-2119740J-1060001D01*
G01*
X52236260Y-52622000D02*
G75*
G03*
X56475740Y-52622000I2119740J1060001D01*
G01*
%TO.C,U4*%
X23064000Y-54076000D02*
G75*
G03*
X23064000Y-52076000I0J1000000D01*
G01*
X33404000Y-47936000D02*
X23004000Y-47936000D01*
X23004000Y-47936000D02*
X23004000Y-58216000D01*
X33344000Y-50426000D02*
X23064000Y-50426000D01*
X23064000Y-50426000D02*
X23064000Y-52076000D01*
X23064000Y-54076000D02*
X23064000Y-55726000D01*
X33344000Y-55726000D02*
X33344000Y-50426000D01*
X23064000Y-55726000D02*
X33344000Y-55726000D01*
X33404000Y-58216000D02*
X33404000Y-47936000D01*
X23004000Y-58216000D02*
X33404000Y-58216000D01*
%TO.C,J3*%
X56134000Y-24952000D02*
X73974000Y-24952000D01*
X56134000Y-24952000D02*
X56134000Y-22292000D01*
X73974000Y-24952000D02*
X73974000Y-22292000D01*
X53534000Y-23622000D02*
X53534000Y-22292000D01*
X53534000Y-22292000D02*
X54864000Y-22292000D01*
X56134000Y-22292000D02*
X73974000Y-22292000D01*
%TO.C,J1*%
X71628000Y-26102000D02*
X23308000Y-26102000D01*
X71628000Y-26102000D02*
X71628000Y-28762000D01*
X23308000Y-26102000D02*
X23308000Y-28762000D01*
X74228000Y-27432000D02*
X74228000Y-28762000D01*
X74228000Y-28762000D02*
X72898000Y-28762000D01*
X71628000Y-28762000D02*
X23308000Y-28762000D01*
%TO.C,R5*%
X43038000Y-52228000D02*
X46878000Y-52228000D01*
X43038000Y-50388000D02*
X46878000Y-50388000D01*
%TO.C,J2*%
X25984200Y-46542000D02*
X74304200Y-46542000D01*
X25984200Y-46542000D02*
X25984200Y-43882000D01*
X74304200Y-46542000D02*
X74304200Y-43882000D01*
X23384200Y-45212000D02*
X23384200Y-43882000D01*
X23384200Y-43882000D02*
X24714200Y-43882000D01*
X25984200Y-43882000D02*
X74304200Y-43882000D01*
%TO.C,C2*%
X69130712Y-61043000D02*
X69580712Y-61043000D01*
X69355712Y-60818000D02*
X69355712Y-61268000D01*
X73787740Y-61318000D02*
G75*
G03*
X69548260Y-61318000I-2119740J-1060001D01*
G01*
X69548260Y-63438000D02*
G75*
G03*
X73787740Y-63438000I2119740J1060001D01*
G01*
%TO.C,D1*%
X64078000Y-51816000D02*
X65098000Y-51816000D01*
X65098000Y-50346000D02*
X65098000Y-53286000D01*
X65098000Y-53286000D02*
X70538000Y-53286000D01*
X65878000Y-50346000D02*
X65878000Y-53286000D01*
X65998000Y-50346000D02*
X65998000Y-53286000D01*
X66118000Y-50346000D02*
X66118000Y-53286000D01*
X70538000Y-50346000D02*
X65098000Y-50346000D01*
X70538000Y-53286000D02*
X70538000Y-50346000D01*
X71558000Y-51816000D02*
X70538000Y-51816000D01*
%TO.C,R1*%
X33670000Y-64380000D02*
X37510000Y-64380000D01*
X33670000Y-66220000D02*
X37510000Y-66220000D01*
%TD*%
M02*
