M48
; DRILL file {KiCad 7.0.7} date Mon Nov 13 09:44:28 2023
; FORMAT={-:-/ absolute / metric / decimal}
; #@! TF.CreationDate,2023-11-13T09:44:28-05:00
; #@! TF.GenerationSoftware,Kicad,Pcbnew,7.0.7
; #@! TF.FileFunction,MixedPlating,1,2
FMAT,2
METRIC
; #@! TA.AperFunction,Plated,PTH,ComponentDrill
T1C0.700
; #@! TA.AperFunction,Plated,PTH,ComponentDrill
T2C0.750
; #@! TA.AperFunction,Plated,PTH,ComponentDrill
T3C0.800
; #@! TA.AperFunction,Plated,PTH,ComponentDrill
T4C0.850
; #@! TA.AperFunction,Plated,PTH,ComponentDrill
T5C1.000
; #@! TA.AperFunction,Plated,PTH,ComponentDrill
T6C1.100
; #@! TA.AperFunction,Plated,PTH,ComponentDrill
T7C1.750
%
G90
G05
T1
X33.02Y-59.645
X33.05Y-62.48
X33.05Y-65.3
X38.1Y-59.645
X38.13Y-62.48
X38.13Y-65.3
X42.418Y-49.022
X42.418Y-51.308
X42.418Y-53.594
X47.498Y-49.022
X47.498Y-51.308
X47.498Y-53.594
T2
X70.104Y-55.626
X71.374Y-55.626
X72.644Y-55.626
T3
X24.394Y-49.266
X24.394Y-56.886
X26.934Y-49.266
X26.934Y-56.886
X29.474Y-49.266
X29.474Y-56.886
X32.014Y-49.266
X32.014Y-56.886
X35.092Y-51.562
X40.092Y-51.562
X41.148Y-56.85
X41.148Y-59.39
X41.148Y-61.93
X41.148Y-64.471
X48.768Y-56.85
X48.768Y-59.39
X48.768Y-61.93
X48.768Y-64.471
X51.856Y-51.562
X56.856Y-51.562
X58.664Y-56.886
X58.664Y-59.426
X58.664Y-61.966
X58.664Y-64.506
X66.284Y-56.886
X66.284Y-59.426
X66.284Y-61.966
X66.284Y-64.506
X69.168Y-62.378
X74.168Y-62.378
T4
X52.74Y-59.6
X54.74Y-59.6
T5
X23.928Y-60.488
X23.928Y-64.988
X24.638Y-27.432
X24.714Y-45.212
X27.12Y-23.47
X27.178Y-27.432
X27.254Y-45.212
X29.66Y-23.47
X29.718Y-27.432
X29.794Y-45.212
X30.428Y-60.488
X30.428Y-64.988
X32.2Y-23.47
X32.258Y-27.432
X32.334Y-45.212
X34.798Y-27.432
X34.874Y-45.212
X37.338Y-27.432
X37.414Y-45.212
X39.878Y-27.432
X39.954Y-45.212
X42.418Y-27.432
X42.494Y-45.212
X44.94Y-23.54
X44.958Y-27.432
X45.034Y-45.212
X47.48Y-23.54
X47.498Y-27.432
X47.574Y-45.212
X50.038Y-27.432
X50.114Y-45.212
X52.578Y-27.432
X52.654Y-45.212
X54.864Y-23.622
X55.118Y-27.432
X55.194Y-45.212
X57.404Y-23.622
X57.658Y-27.432
X57.734Y-45.212
X59.944Y-23.622
X60.198Y-27.432
X60.274Y-45.212
X62.484Y-23.622
X62.738Y-27.432
X62.814Y-45.212
X65.024Y-23.622
X65.278Y-27.432
X65.354Y-45.212
X67.564Y-23.622
X67.818Y-27.432
X67.894Y-45.212
X70.104Y-23.622
X70.358Y-27.432
X70.434Y-45.212
X72.644Y-23.622
X72.898Y-27.432
X72.974Y-45.212
T6
X62.738Y-51.816
X72.898Y-51.816
T7
X52.74Y-61.6
X52.74Y-63.6
X54.74Y-61.6
X54.74Y-63.6
T0
M30
