M48
; DRILL file {KiCad 7.0.7} date Fri Oct 20 12:34:16 2023
; FORMAT={-:-/ absolute / metric / decimal}
; #@! TF.CreationDate,2023-10-20T12:34:16-04:00
; #@! TF.GenerationSoftware,Kicad,Pcbnew,7.0.7
; #@! TF.FileFunction,MixedPlating,1,2
FMAT,2
METRIC
; #@! TA.AperFunction,Plated,PTH,ComponentDrill
T1C0.700
; #@! TA.AperFunction,Plated,PTH,ComponentDrill
T2C0.800
; #@! TA.AperFunction,Plated,PTH,ComponentDrill
T3C0.850
; #@! TA.AperFunction,Plated,PTH,ComponentDrill
T4C1.000
; #@! TA.AperFunction,Plated,PTH,ComponentDrill
T5C1.270
%
G90
G05
T1
X47.752Y-116.586
X47.752Y-119.126
X47.752Y-121.666
X52.832Y-116.586
X52.832Y-119.126
X52.832Y-121.666
X64.008Y-117.094
X69.088Y-117.094
X73.914Y-105.156
X73.914Y-110.236
X73.914Y-112.522
X73.914Y-117.602
T2
X38.14Y-103.124
X38.434Y-112.014
X43.14Y-103.124
X43.434Y-112.014
X46.308Y-103.124
X46.816Y-111.252
X51.308Y-103.124
X51.816Y-111.252
X54.69Y-103.124
X55.158Y-111.252
X59.69Y-103.124
X60.158Y-111.252
X63.49Y-105.908
X63.49Y-108.448
X63.49Y-110.988
X63.49Y-113.528
X71.11Y-105.908
X71.11Y-108.448
X71.11Y-110.988
X71.11Y-113.528
X79.01Y-103.15
X79.01Y-105.69
X79.01Y-108.23
X79.01Y-110.77
X86.63Y-103.15
X86.63Y-105.69
X86.63Y-108.23
X86.63Y-110.77
T3
X57.182Y-118.142
X57.182Y-120.142
X59.182Y-118.142
X59.182Y-120.142
T4
X38.66Y-117.384
X38.66Y-121.884
X39.37Y-77.978
X39.37Y-95.758
X41.91Y-77.978
X41.91Y-95.758
X44.45Y-77.978
X44.45Y-95.758
X45.16Y-117.384
X45.16Y-121.884
X46.99Y-77.978
X46.99Y-95.758
X49.53Y-77.978
X49.53Y-95.758
X52.07Y-77.978
X52.07Y-95.758
X54.61Y-77.978
X54.61Y-95.758
X57.15Y-77.978
X57.15Y-95.758
X58.43Y-74.168
X59.69Y-77.978
X59.69Y-95.758
X60.97Y-74.168
X62.23Y-77.978
X62.23Y-95.758
X63.51Y-74.168
X63.998Y-99.558
X64.516Y-120.904
X64.77Y-77.978
X64.77Y-95.758
X66.05Y-74.168
X66.538Y-99.558
X67.056Y-120.904
X67.31Y-77.978
X67.31Y-95.758
X69.078Y-99.558
X69.85Y-74.168
X69.85Y-77.978
X69.85Y-95.758
X71.618Y-99.558
X72.39Y-74.168
X72.39Y-77.978
X72.39Y-95.758
X72.898Y-120.904
X74.158Y-99.558
X74.93Y-74.168
X74.93Y-77.978
X74.93Y-95.758
X75.438Y-120.904
X76.698Y-99.558
X77.47Y-74.168
X77.47Y-77.978
X77.47Y-95.758
X79.238Y-99.558
X80.01Y-74.168
X80.01Y-77.978
X80.01Y-95.758
X81.778Y-99.558
X82.55Y-74.168
X82.55Y-77.978
X82.55Y-95.758
X85.09Y-74.168
X85.09Y-77.978
X85.09Y-95.758
X87.63Y-74.168
X87.63Y-77.978
X87.63Y-95.758
T5
X81.016Y-114.554
X81.016Y-120.904
X83.566Y-114.554
X83.566Y-120.904
X86.116Y-114.554
X86.116Y-120.904
T0
M30
