M48
; DRILL file {KiCad 7.0.7} date Mon Nov 13 10:05:47 2023
; FORMAT={-:-/ absolute / metric / decimal}
; #@! TF.CreationDate,2023-11-13T10:05:47-05:00
; #@! TF.GenerationSoftware,Kicad,Pcbnew,7.0.7
; #@! TF.FileFunction,MixedPlating,1,2
FMAT,2
METRIC
; #@! TA.AperFunction,Plated,PTH,ComponentDrill
T1C0.700
; #@! TA.AperFunction,Plated,PTH,ComponentDrill
T2C0.800
; #@! TA.AperFunction,Plated,PTH,ComponentDrill
T3C0.850
; #@! TA.AperFunction,Plated,PTH,ComponentDrill
T4C1.000
; #@! TA.AperFunction,Plated,PTH,ComponentDrill
T5C1.270
; #@! TA.AperFunction,Plated,PTH,ComponentDrill
T6C1.750
%
G90
G05
T1
X47.76Y-117.45
X47.768Y-119.974
X47.808Y-122.564
X52.84Y-117.45
X52.848Y-119.974
X52.888Y-122.564
T2
X38.14Y-103.124
X38.434Y-112.014
X43.14Y-103.124
X43.434Y-112.014
X46.41Y-102.91
X46.59Y-111.72
X51.41Y-102.91
X51.59Y-111.72
X56.19Y-105.34
X56.19Y-112.96
X58.73Y-105.34
X58.73Y-112.96
X61.27Y-105.34
X61.27Y-112.96
X63.81Y-105.34
X63.81Y-112.96
X67.54Y-114.97
X67.98Y-106.9
X72.54Y-114.97
X72.98Y-106.9
X79.03Y-99.64
X79.03Y-107.26
X81.57Y-99.64
X81.57Y-107.26
X84.11Y-99.64
X84.11Y-107.26
X86.65Y-99.64
X86.65Y-107.26
T3
X56.96Y-117.36
X58.96Y-117.36
T4
X38.42Y-117.73
X38.42Y-122.23
X39.37Y-77.978
X39.37Y-95.758
X39.39Y-73.845
X41.91Y-77.978
X41.91Y-95.758
X41.93Y-73.845
X44.45Y-77.978
X44.45Y-95.758
X44.47Y-73.845
X44.92Y-117.73
X44.92Y-122.23
X46.99Y-77.978
X46.99Y-95.758
X47.01Y-73.845
X49.53Y-77.978
X49.53Y-95.758
X49.55Y-73.845
X52.07Y-77.978
X52.07Y-95.758
X54.61Y-77.978
X54.61Y-95.758
X55.17Y-100.28
X56.16Y-73.59
X57.15Y-77.978
X57.15Y-95.758
X57.71Y-100.28
X58.7Y-73.59
X59.69Y-77.978
X59.69Y-95.758
X60.25Y-100.28
X61.24Y-73.59
X62.23Y-77.978
X62.23Y-95.758
X62.79Y-100.28
X63.465Y-121.99
X63.78Y-73.59
X64.77Y-77.978
X64.77Y-95.758
X65.33Y-100.28
X66.005Y-121.99
X67.31Y-77.978
X67.31Y-95.758
X67.87Y-100.28
X69.85Y-77.978
X69.85Y-95.758
X69.86Y-73.82
X70.41Y-100.28
X70.46Y-122.05
X72.39Y-77.978
X72.39Y-95.758
X72.4Y-73.82
X72.95Y-100.28
X73.0Y-122.05
X74.93Y-77.978
X74.93Y-95.758
X74.94Y-73.82
X77.47Y-77.978
X77.47Y-95.758
X77.48Y-73.82
X80.01Y-77.978
X80.01Y-95.758
X80.02Y-73.82
X82.55Y-77.978
X82.55Y-95.758
X82.56Y-73.82
X85.09Y-77.978
X85.09Y-95.758
X85.1Y-73.82
X87.63Y-77.978
X87.63Y-95.758
X87.64Y-73.82
T5
X80.35Y-119.808
X80.36Y-112.658
X82.9Y-119.808
X82.91Y-112.658
X85.45Y-119.808
X85.46Y-112.658
T6
X56.96Y-119.36
X56.96Y-121.36
X58.96Y-119.36
X58.96Y-121.36
T0
M30
