%TF.GenerationSoftware,KiCad,Pcbnew,7.0.7*%
%TF.CreationDate,2023-11-13T10:05:51-05:00*%
%TF.ProjectId,Capstone-board-car,43617073-746f-46e6-952d-626f6172642d,rev?*%
%TF.SameCoordinates,Original*%
%TF.FileFunction,Soldermask,Bot*%
%TF.FilePolarity,Negative*%
%FSLAX46Y46*%
G04 Gerber Fmt 4.6, Leading zero omitted, Abs format (unit mm)*
G04 Created by KiCad (PCBNEW 7.0.7) date 2023-11-13 10:05:51*
%MOMM*%
%LPD*%
G01*
G04 APERTURE LIST*
G04 Aperture macros list*
%AMRoundRect*
0 Rectangle with rounded corners*
0 $1 Rounding radius*
0 $2 $3 $4 $5 $6 $7 $8 $9 X,Y pos of 4 corners*
0 Add a 4 corners polygon primitive as box body*
4,1,4,$2,$3,$4,$5,$6,$7,$8,$9,$2,$3,0*
0 Add four circle primitives for the rounded corners*
1,1,$1+$1,$2,$3*
1,1,$1+$1,$4,$5*
1,1,$1+$1,$6,$7*
1,1,$1+$1,$8,$9*
0 Add four rect primitives between the rounded corners*
20,1,$1+$1,$2,$3,$4,$5,0*
20,1,$1+$1,$4,$5,$6,$7,0*
20,1,$1+$1,$6,$7,$8,$9,0*
20,1,$1+$1,$8,$9,$2,$3,0*%
G04 Aperture macros list end*
%ADD10R,1.600000X1.600000*%
%ADD11O,1.600000X1.600000*%
%ADD12O,1.750000X1.750000*%
%ADD13O,1.650000X1.200000*%
%ADD14RoundRect,0.250000X-0.575000X0.350000X-0.575000X-0.350000X0.575000X-0.350000X0.575000X0.350000X0*%
%ADD15O,1.700000X1.700000*%
%ADD16R,1.700000X1.700000*%
%ADD17C,2.114000*%
%ADD18RoundRect,0.102000X-0.955000X-0.955000X0.955000X-0.955000X0.955000X0.955000X-0.955000X0.955000X0*%
%ADD19C,1.600000*%
%ADD20C,1.400000*%
%ADD21O,1.400000X1.400000*%
%ADD22RoundRect,0.102000X-0.754000X-0.754000X0.754000X-0.754000X0.754000X0.754000X-0.754000X0.754000X0*%
%ADD23C,1.712000*%
G04 APERTURE END LIST*
D10*
%TO.C,U1*%
X56190000Y-112960000D03*
D11*
X58730000Y-112960000D03*
X61270000Y-112960000D03*
X63810000Y-112960000D03*
X63810000Y-105340000D03*
X61270000Y-105340000D03*
X58730000Y-105340000D03*
X56190000Y-105340000D03*
%TD*%
D12*
%TO.C,BT1*%
X56960000Y-121360000D03*
X58960000Y-121360000D03*
X56960000Y-119360000D03*
X58960000Y-119360000D03*
D13*
X56960000Y-117360000D03*
D14*
X58960000Y-117360000D03*
%TD*%
D10*
%TO.C,U2*%
X79030000Y-107260000D03*
D11*
X81570000Y-107260000D03*
X84110000Y-107260000D03*
X86650000Y-107260000D03*
X86650000Y-99640000D03*
X84110000Y-99640000D03*
X81570000Y-99640000D03*
X79030000Y-99640000D03*
%TD*%
D15*
%TO.C,J7*%
X39390000Y-73845000D03*
X41930000Y-73845000D03*
X44470000Y-73845000D03*
X47010000Y-73845000D03*
D16*
X49550000Y-73845000D03*
%TD*%
D17*
%TO.C,U3*%
X85450000Y-119808000D03*
X82900000Y-119808000D03*
D18*
X80350000Y-119808000D03*
%TD*%
D15*
%TO.C,J1*%
X39370000Y-77978000D03*
X41910000Y-77978000D03*
X44450000Y-77978000D03*
X46990000Y-77978000D03*
X49530000Y-77978000D03*
X52070000Y-77978000D03*
X54610000Y-77978000D03*
X57150000Y-77978000D03*
X59690000Y-77978000D03*
X62230000Y-77978000D03*
X64770000Y-77978000D03*
X67310000Y-77978000D03*
X69850000Y-77978000D03*
X72390000Y-77978000D03*
X74930000Y-77978000D03*
X77470000Y-77978000D03*
X80010000Y-77978000D03*
X82550000Y-77978000D03*
X85090000Y-77978000D03*
D16*
X87630000Y-77978000D03*
%TD*%
D19*
%TO.C,C5*%
X43140000Y-103124000D03*
D10*
X38140000Y-103124000D03*
%TD*%
D20*
%TO.C,R1*%
X47768000Y-119974000D03*
D21*
X52848000Y-119974000D03*
%TD*%
D19*
%TO.C,C6*%
X67540000Y-114970000D03*
D10*
X72540000Y-114970000D03*
%TD*%
D21*
%TO.C,R2*%
X52840000Y-117450000D03*
D20*
X47760000Y-117450000D03*
%TD*%
D21*
%TO.C,R3*%
X52888000Y-122564000D03*
D20*
X47808000Y-122564000D03*
%TD*%
D15*
%TO.C,BT2*%
X73000000Y-122050000D03*
D16*
X70460000Y-122050000D03*
%TD*%
D22*
%TO.C,S1*%
X38420000Y-117730000D03*
D23*
X44920000Y-117730000D03*
X38420000Y-122230000D03*
X44920000Y-122230000D03*
%TD*%
D10*
%TO.C,C2*%
X51410000Y-102910000D03*
D19*
X46410000Y-102910000D03*
%TD*%
D16*
%TO.C,J4*%
X87640000Y-73820000D03*
D15*
X85100000Y-73820000D03*
X82560000Y-73820000D03*
X80020000Y-73820000D03*
X77480000Y-73820000D03*
X74940000Y-73820000D03*
X72400000Y-73820000D03*
X69860000Y-73820000D03*
%TD*%
D17*
%TO.C,U4*%
X85460000Y-112658000D03*
X82910000Y-112658000D03*
D18*
X80360000Y-112658000D03*
%TD*%
D19*
%TO.C,C1*%
X43434000Y-112014000D03*
D10*
X38434000Y-112014000D03*
%TD*%
D16*
%TO.C,J5*%
X63465000Y-121990000D03*
D15*
X66005000Y-121990000D03*
%TD*%
D19*
%TO.C,C4*%
X67980000Y-106900000D03*
D10*
X72980000Y-106900000D03*
%TD*%
D16*
%TO.C,J3*%
X56160000Y-73590000D03*
D15*
X58700000Y-73590000D03*
X61240000Y-73590000D03*
X63780000Y-73590000D03*
%TD*%
D16*
%TO.C,J2*%
X39370000Y-95758000D03*
D15*
X41910000Y-95758000D03*
X44450000Y-95758000D03*
X46990000Y-95758000D03*
X49530000Y-95758000D03*
X52070000Y-95758000D03*
X54610000Y-95758000D03*
X57150000Y-95758000D03*
X59690000Y-95758000D03*
X62230000Y-95758000D03*
X64770000Y-95758000D03*
X67310000Y-95758000D03*
X69850000Y-95758000D03*
X72390000Y-95758000D03*
X74930000Y-95758000D03*
X77470000Y-95758000D03*
X80010000Y-95758000D03*
X82550000Y-95758000D03*
X85090000Y-95758000D03*
X87630000Y-95758000D03*
%TD*%
D16*
%TO.C,J6*%
X72950000Y-100280000D03*
D15*
X70410000Y-100280000D03*
X67870000Y-100280000D03*
X65330000Y-100280000D03*
X62790000Y-100280000D03*
X60250000Y-100280000D03*
X57710000Y-100280000D03*
X55170000Y-100280000D03*
%TD*%
D19*
%TO.C,C3*%
X46590000Y-111720000D03*
D10*
X51590000Y-111720000D03*
%TD*%
M02*
