%TF.GenerationSoftware,KiCad,Pcbnew,7.0.7*%
%TF.CreationDate,2023-11-13T10:05:51-05:00*%
%TF.ProjectId,Capstone-board-car,43617073-746f-46e6-952d-626f6172642d,rev?*%
%TF.SameCoordinates,Original*%
%TF.FileFunction,Legend,Top*%
%TF.FilePolarity,Positive*%
%FSLAX46Y46*%
G04 Gerber Fmt 4.6, Leading zero omitted, Abs format (unit mm)*
G04 Created by KiCad (PCBNEW 7.0.7) date 2023-11-13 10:05:51*
%MOMM*%
%LPD*%
G01*
G04 APERTURE LIST*
%ADD10C,0.125000*%
%ADD11C,0.120000*%
%ADD12C,0.200000*%
%ADD13C,0.127000*%
G04 APERTURE END LIST*
D10*
X40113338Y-70837190D02*
X40089529Y-70861000D01*
X40089529Y-70861000D02*
X40018100Y-70884809D01*
X40018100Y-70884809D02*
X39970481Y-70884809D01*
X39970481Y-70884809D02*
X39899053Y-70861000D01*
X39899053Y-70861000D02*
X39851434Y-70813380D01*
X39851434Y-70813380D02*
X39827624Y-70765761D01*
X39827624Y-70765761D02*
X39803815Y-70670523D01*
X39803815Y-70670523D02*
X39803815Y-70599095D01*
X39803815Y-70599095D02*
X39827624Y-70503857D01*
X39827624Y-70503857D02*
X39851434Y-70456238D01*
X39851434Y-70456238D02*
X39899053Y-70408619D01*
X39899053Y-70408619D02*
X39970481Y-70384809D01*
X39970481Y-70384809D02*
X40018100Y-70384809D01*
X40018100Y-70384809D02*
X40089529Y-70408619D01*
X40089529Y-70408619D02*
X40113338Y-70432428D01*
X40541910Y-70884809D02*
X40541910Y-70622904D01*
X40541910Y-70622904D02*
X40518100Y-70575285D01*
X40518100Y-70575285D02*
X40470481Y-70551476D01*
X40470481Y-70551476D02*
X40375243Y-70551476D01*
X40375243Y-70551476D02*
X40327624Y-70575285D01*
X40541910Y-70861000D02*
X40494291Y-70884809D01*
X40494291Y-70884809D02*
X40375243Y-70884809D01*
X40375243Y-70884809D02*
X40327624Y-70861000D01*
X40327624Y-70861000D02*
X40303815Y-70813380D01*
X40303815Y-70813380D02*
X40303815Y-70765761D01*
X40303815Y-70765761D02*
X40327624Y-70718142D01*
X40327624Y-70718142D02*
X40375243Y-70694333D01*
X40375243Y-70694333D02*
X40494291Y-70694333D01*
X40494291Y-70694333D02*
X40541910Y-70670523D01*
X40780005Y-70551476D02*
X40780005Y-71051476D01*
X40780005Y-70575285D02*
X40827624Y-70551476D01*
X40827624Y-70551476D02*
X40922862Y-70551476D01*
X40922862Y-70551476D02*
X40970481Y-70575285D01*
X40970481Y-70575285D02*
X40994291Y-70599095D01*
X40994291Y-70599095D02*
X41018100Y-70646714D01*
X41018100Y-70646714D02*
X41018100Y-70789571D01*
X41018100Y-70789571D02*
X40994291Y-70837190D01*
X40994291Y-70837190D02*
X40970481Y-70861000D01*
X40970481Y-70861000D02*
X40922862Y-70884809D01*
X40922862Y-70884809D02*
X40827624Y-70884809D01*
X40827624Y-70884809D02*
X40780005Y-70861000D01*
X41208577Y-70861000D02*
X41256196Y-70884809D01*
X41256196Y-70884809D02*
X41351434Y-70884809D01*
X41351434Y-70884809D02*
X41399053Y-70861000D01*
X41399053Y-70861000D02*
X41422862Y-70813380D01*
X41422862Y-70813380D02*
X41422862Y-70789571D01*
X41422862Y-70789571D02*
X41399053Y-70741952D01*
X41399053Y-70741952D02*
X41351434Y-70718142D01*
X41351434Y-70718142D02*
X41280005Y-70718142D01*
X41280005Y-70718142D02*
X41232386Y-70694333D01*
X41232386Y-70694333D02*
X41208577Y-70646714D01*
X41208577Y-70646714D02*
X41208577Y-70622904D01*
X41208577Y-70622904D02*
X41232386Y-70575285D01*
X41232386Y-70575285D02*
X41280005Y-70551476D01*
X41280005Y-70551476D02*
X41351434Y-70551476D01*
X41351434Y-70551476D02*
X41399053Y-70575285D01*
X41565720Y-70551476D02*
X41756196Y-70551476D01*
X41637148Y-70384809D02*
X41637148Y-70813380D01*
X41637148Y-70813380D02*
X41660958Y-70861000D01*
X41660958Y-70861000D02*
X41708577Y-70884809D01*
X41708577Y-70884809D02*
X41756196Y-70884809D01*
X41994291Y-70884809D02*
X41946672Y-70861000D01*
X41946672Y-70861000D02*
X41922862Y-70837190D01*
X41922862Y-70837190D02*
X41899053Y-70789571D01*
X41899053Y-70789571D02*
X41899053Y-70646714D01*
X41899053Y-70646714D02*
X41922862Y-70599095D01*
X41922862Y-70599095D02*
X41946672Y-70575285D01*
X41946672Y-70575285D02*
X41994291Y-70551476D01*
X41994291Y-70551476D02*
X42065719Y-70551476D01*
X42065719Y-70551476D02*
X42113338Y-70575285D01*
X42113338Y-70575285D02*
X42137148Y-70599095D01*
X42137148Y-70599095D02*
X42160957Y-70646714D01*
X42160957Y-70646714D02*
X42160957Y-70789571D01*
X42160957Y-70789571D02*
X42137148Y-70837190D01*
X42137148Y-70837190D02*
X42113338Y-70861000D01*
X42113338Y-70861000D02*
X42065719Y-70884809D01*
X42065719Y-70884809D02*
X41994291Y-70884809D01*
X42375243Y-70551476D02*
X42375243Y-70884809D01*
X42375243Y-70599095D02*
X42399053Y-70575285D01*
X42399053Y-70575285D02*
X42446672Y-70551476D01*
X42446672Y-70551476D02*
X42518100Y-70551476D01*
X42518100Y-70551476D02*
X42565719Y-70575285D01*
X42565719Y-70575285D02*
X42589529Y-70622904D01*
X42589529Y-70622904D02*
X42589529Y-70884809D01*
X43018100Y-70861000D02*
X42970481Y-70884809D01*
X42970481Y-70884809D02*
X42875243Y-70884809D01*
X42875243Y-70884809D02*
X42827624Y-70861000D01*
X42827624Y-70861000D02*
X42803815Y-70813380D01*
X42803815Y-70813380D02*
X42803815Y-70622904D01*
X42803815Y-70622904D02*
X42827624Y-70575285D01*
X42827624Y-70575285D02*
X42875243Y-70551476D01*
X42875243Y-70551476D02*
X42970481Y-70551476D01*
X42970481Y-70551476D02*
X43018100Y-70575285D01*
X43018100Y-70575285D02*
X43041910Y-70622904D01*
X43041910Y-70622904D02*
X43041910Y-70670523D01*
X43041910Y-70670523D02*
X42803815Y-70718142D01*
X43803814Y-70622904D02*
X43637147Y-70622904D01*
X43637147Y-70884809D02*
X43637147Y-70384809D01*
X43637147Y-70384809D02*
X43875242Y-70384809D01*
X44280004Y-70884809D02*
X44280004Y-70622904D01*
X44280004Y-70622904D02*
X44256194Y-70575285D01*
X44256194Y-70575285D02*
X44208575Y-70551476D01*
X44208575Y-70551476D02*
X44113337Y-70551476D01*
X44113337Y-70551476D02*
X44065718Y-70575285D01*
X44280004Y-70861000D02*
X44232385Y-70884809D01*
X44232385Y-70884809D02*
X44113337Y-70884809D01*
X44113337Y-70884809D02*
X44065718Y-70861000D01*
X44065718Y-70861000D02*
X44041909Y-70813380D01*
X44041909Y-70813380D02*
X44041909Y-70765761D01*
X44041909Y-70765761D02*
X44065718Y-70718142D01*
X44065718Y-70718142D02*
X44113337Y-70694333D01*
X44113337Y-70694333D02*
X44232385Y-70694333D01*
X44232385Y-70694333D02*
X44280004Y-70670523D01*
X44589528Y-70884809D02*
X44541909Y-70861000D01*
X44541909Y-70861000D02*
X44518099Y-70813380D01*
X44518099Y-70813380D02*
X44518099Y-70384809D01*
X44851433Y-70884809D02*
X44803814Y-70861000D01*
X44803814Y-70861000D02*
X44780004Y-70813380D01*
X44780004Y-70813380D02*
X44780004Y-70384809D01*
X45399052Y-70432428D02*
X45422861Y-70408619D01*
X45422861Y-70408619D02*
X45470480Y-70384809D01*
X45470480Y-70384809D02*
X45589528Y-70384809D01*
X45589528Y-70384809D02*
X45637147Y-70408619D01*
X45637147Y-70408619D02*
X45660956Y-70432428D01*
X45660956Y-70432428D02*
X45684766Y-70480047D01*
X45684766Y-70480047D02*
X45684766Y-70527666D01*
X45684766Y-70527666D02*
X45660956Y-70599095D01*
X45660956Y-70599095D02*
X45375242Y-70884809D01*
X45375242Y-70884809D02*
X45684766Y-70884809D01*
X45994289Y-70384809D02*
X46041908Y-70384809D01*
X46041908Y-70384809D02*
X46089527Y-70408619D01*
X46089527Y-70408619D02*
X46113337Y-70432428D01*
X46113337Y-70432428D02*
X46137146Y-70480047D01*
X46137146Y-70480047D02*
X46160956Y-70575285D01*
X46160956Y-70575285D02*
X46160956Y-70694333D01*
X46160956Y-70694333D02*
X46137146Y-70789571D01*
X46137146Y-70789571D02*
X46113337Y-70837190D01*
X46113337Y-70837190D02*
X46089527Y-70861000D01*
X46089527Y-70861000D02*
X46041908Y-70884809D01*
X46041908Y-70884809D02*
X45994289Y-70884809D01*
X45994289Y-70884809D02*
X45946670Y-70861000D01*
X45946670Y-70861000D02*
X45922861Y-70837190D01*
X45922861Y-70837190D02*
X45899051Y-70789571D01*
X45899051Y-70789571D02*
X45875242Y-70694333D01*
X45875242Y-70694333D02*
X45875242Y-70575285D01*
X45875242Y-70575285D02*
X45899051Y-70480047D01*
X45899051Y-70480047D02*
X45922861Y-70432428D01*
X45922861Y-70432428D02*
X45946670Y-70408619D01*
X45946670Y-70408619D02*
X45994289Y-70384809D01*
X46351432Y-70432428D02*
X46375241Y-70408619D01*
X46375241Y-70408619D02*
X46422860Y-70384809D01*
X46422860Y-70384809D02*
X46541908Y-70384809D01*
X46541908Y-70384809D02*
X46589527Y-70408619D01*
X46589527Y-70408619D02*
X46613336Y-70432428D01*
X46613336Y-70432428D02*
X46637146Y-70480047D01*
X46637146Y-70480047D02*
X46637146Y-70527666D01*
X46637146Y-70527666D02*
X46613336Y-70599095D01*
X46613336Y-70599095D02*
X46327622Y-70884809D01*
X46327622Y-70884809D02*
X46637146Y-70884809D01*
X46803812Y-70384809D02*
X47113336Y-70384809D01*
X47113336Y-70384809D02*
X46946669Y-70575285D01*
X46946669Y-70575285D02*
X47018098Y-70575285D01*
X47018098Y-70575285D02*
X47065717Y-70599095D01*
X47065717Y-70599095D02*
X47089526Y-70622904D01*
X47089526Y-70622904D02*
X47113336Y-70670523D01*
X47113336Y-70670523D02*
X47113336Y-70789571D01*
X47113336Y-70789571D02*
X47089526Y-70837190D01*
X47089526Y-70837190D02*
X47065717Y-70861000D01*
X47065717Y-70861000D02*
X47018098Y-70884809D01*
X47018098Y-70884809D02*
X46875241Y-70884809D01*
X46875241Y-70884809D02*
X46827622Y-70861000D01*
X46827622Y-70861000D02*
X46803812Y-70837190D01*
X47327621Y-70837190D02*
X47351431Y-70861000D01*
X47351431Y-70861000D02*
X47327621Y-70884809D01*
X47327621Y-70884809D02*
X47303812Y-70861000D01*
X47303812Y-70861000D02*
X47327621Y-70837190D01*
X47327621Y-70837190D02*
X47327621Y-70884809D01*
X47327621Y-70575285D02*
X47351431Y-70599095D01*
X47351431Y-70599095D02*
X47327621Y-70622904D01*
X47327621Y-70622904D02*
X47303812Y-70599095D01*
X47303812Y-70599095D02*
X47327621Y-70575285D01*
X47327621Y-70575285D02*
X47327621Y-70622904D01*
X47946668Y-70622904D02*
X48113335Y-70622904D01*
X48184763Y-70884809D02*
X47946668Y-70884809D01*
X47946668Y-70884809D02*
X47946668Y-70384809D01*
X47946668Y-70384809D02*
X48184763Y-70384809D01*
X48399049Y-70551476D02*
X48399049Y-71051476D01*
X48399049Y-70575285D02*
X48446668Y-70551476D01*
X48446668Y-70551476D02*
X48541906Y-70551476D01*
X48541906Y-70551476D02*
X48589525Y-70575285D01*
X48589525Y-70575285D02*
X48613335Y-70599095D01*
X48613335Y-70599095D02*
X48637144Y-70646714D01*
X48637144Y-70646714D02*
X48637144Y-70789571D01*
X48637144Y-70789571D02*
X48613335Y-70837190D01*
X48613335Y-70837190D02*
X48589525Y-70861000D01*
X48589525Y-70861000D02*
X48541906Y-70884809D01*
X48541906Y-70884809D02*
X48446668Y-70884809D01*
X48446668Y-70884809D02*
X48399049Y-70861000D01*
X48851430Y-70884809D02*
X48851430Y-70551476D01*
X48851430Y-70384809D02*
X48827621Y-70408619D01*
X48827621Y-70408619D02*
X48851430Y-70432428D01*
X48851430Y-70432428D02*
X48875240Y-70408619D01*
X48875240Y-70408619D02*
X48851430Y-70384809D01*
X48851430Y-70384809D02*
X48851430Y-70432428D01*
X49018097Y-70551476D02*
X49208573Y-70551476D01*
X49089525Y-70384809D02*
X49089525Y-70813380D01*
X49089525Y-70813380D02*
X49113335Y-70861000D01*
X49113335Y-70861000D02*
X49160954Y-70884809D01*
X49160954Y-70884809D02*
X49208573Y-70884809D01*
X49446668Y-70884809D02*
X49399049Y-70861000D01*
X49399049Y-70861000D02*
X49375239Y-70837190D01*
X49375239Y-70837190D02*
X49351430Y-70789571D01*
X49351430Y-70789571D02*
X49351430Y-70646714D01*
X49351430Y-70646714D02*
X49375239Y-70599095D01*
X49375239Y-70599095D02*
X49399049Y-70575285D01*
X49399049Y-70575285D02*
X49446668Y-70551476D01*
X49446668Y-70551476D02*
X49518096Y-70551476D01*
X49518096Y-70551476D02*
X49565715Y-70575285D01*
X49565715Y-70575285D02*
X49589525Y-70599095D01*
X49589525Y-70599095D02*
X49613334Y-70646714D01*
X49613334Y-70646714D02*
X49613334Y-70789571D01*
X49613334Y-70789571D02*
X49589525Y-70837190D01*
X49589525Y-70837190D02*
X49565715Y-70861000D01*
X49565715Y-70861000D02*
X49518096Y-70884809D01*
X49518096Y-70884809D02*
X49446668Y-70884809D01*
X49827620Y-70884809D02*
X49827620Y-70551476D01*
X49827620Y-70599095D02*
X49851430Y-70575285D01*
X49851430Y-70575285D02*
X49899049Y-70551476D01*
X49899049Y-70551476D02*
X49970477Y-70551476D01*
X49970477Y-70551476D02*
X50018096Y-70575285D01*
X50018096Y-70575285D02*
X50041906Y-70622904D01*
X50041906Y-70622904D02*
X50041906Y-70884809D01*
X50041906Y-70622904D02*
X50065715Y-70575285D01*
X50065715Y-70575285D02*
X50113334Y-70551476D01*
X50113334Y-70551476D02*
X50184763Y-70551476D01*
X50184763Y-70551476D02*
X50232382Y-70575285D01*
X50232382Y-70575285D02*
X50256192Y-70622904D01*
X50256192Y-70622904D02*
X50256192Y-70884809D01*
X50684763Y-70861000D02*
X50637144Y-70884809D01*
X50637144Y-70884809D02*
X50541906Y-70884809D01*
X50541906Y-70884809D02*
X50494287Y-70861000D01*
X50494287Y-70861000D02*
X50470478Y-70813380D01*
X50470478Y-70813380D02*
X50470478Y-70622904D01*
X50470478Y-70622904D02*
X50494287Y-70575285D01*
X50494287Y-70575285D02*
X50541906Y-70551476D01*
X50541906Y-70551476D02*
X50637144Y-70551476D01*
X50637144Y-70551476D02*
X50684763Y-70575285D01*
X50684763Y-70575285D02*
X50708573Y-70622904D01*
X50708573Y-70622904D02*
X50708573Y-70670523D01*
X50708573Y-70670523D02*
X50470478Y-70718142D01*
X51422858Y-71051476D02*
X51422858Y-70337190D01*
X52089524Y-70384809D02*
X52375238Y-70384809D01*
X52232381Y-70884809D02*
X52232381Y-70384809D01*
X52732380Y-70861000D02*
X52684761Y-70884809D01*
X52684761Y-70884809D02*
X52589523Y-70884809D01*
X52589523Y-70884809D02*
X52541904Y-70861000D01*
X52541904Y-70861000D02*
X52518095Y-70813380D01*
X52518095Y-70813380D02*
X52518095Y-70622904D01*
X52518095Y-70622904D02*
X52541904Y-70575285D01*
X52541904Y-70575285D02*
X52589523Y-70551476D01*
X52589523Y-70551476D02*
X52684761Y-70551476D01*
X52684761Y-70551476D02*
X52732380Y-70575285D01*
X52732380Y-70575285D02*
X52756190Y-70622904D01*
X52756190Y-70622904D02*
X52756190Y-70670523D01*
X52756190Y-70670523D02*
X52518095Y-70718142D01*
X53184761Y-70884809D02*
X53184761Y-70622904D01*
X53184761Y-70622904D02*
X53160951Y-70575285D01*
X53160951Y-70575285D02*
X53113332Y-70551476D01*
X53113332Y-70551476D02*
X53018094Y-70551476D01*
X53018094Y-70551476D02*
X52970475Y-70575285D01*
X53184761Y-70861000D02*
X53137142Y-70884809D01*
X53137142Y-70884809D02*
X53018094Y-70884809D01*
X53018094Y-70884809D02*
X52970475Y-70861000D01*
X52970475Y-70861000D02*
X52946666Y-70813380D01*
X52946666Y-70813380D02*
X52946666Y-70765761D01*
X52946666Y-70765761D02*
X52970475Y-70718142D01*
X52970475Y-70718142D02*
X53018094Y-70694333D01*
X53018094Y-70694333D02*
X53137142Y-70694333D01*
X53137142Y-70694333D02*
X53184761Y-70670523D01*
X53422856Y-70884809D02*
X53422856Y-70551476D01*
X53422856Y-70599095D02*
X53446666Y-70575285D01*
X53446666Y-70575285D02*
X53494285Y-70551476D01*
X53494285Y-70551476D02*
X53565713Y-70551476D01*
X53565713Y-70551476D02*
X53613332Y-70575285D01*
X53613332Y-70575285D02*
X53637142Y-70622904D01*
X53637142Y-70622904D02*
X53637142Y-70884809D01*
X53637142Y-70622904D02*
X53660951Y-70575285D01*
X53660951Y-70575285D02*
X53708570Y-70551476D01*
X53708570Y-70551476D02*
X53779999Y-70551476D01*
X53779999Y-70551476D02*
X53827618Y-70575285D01*
X53827618Y-70575285D02*
X53851428Y-70622904D01*
X53851428Y-70622904D02*
X53851428Y-70884809D01*
X54470475Y-70884809D02*
X54470475Y-70384809D01*
X54470475Y-70384809D02*
X54637142Y-70741952D01*
X54637142Y-70741952D02*
X54803808Y-70384809D01*
X54803808Y-70384809D02*
X54803808Y-70884809D01*
X55232380Y-70861000D02*
X55184761Y-70884809D01*
X55184761Y-70884809D02*
X55089523Y-70884809D01*
X55089523Y-70884809D02*
X55041904Y-70861000D01*
X55041904Y-70861000D02*
X55018095Y-70813380D01*
X55018095Y-70813380D02*
X55018095Y-70622904D01*
X55018095Y-70622904D02*
X55041904Y-70575285D01*
X55041904Y-70575285D02*
X55089523Y-70551476D01*
X55089523Y-70551476D02*
X55184761Y-70551476D01*
X55184761Y-70551476D02*
X55232380Y-70575285D01*
X55232380Y-70575285D02*
X55256190Y-70622904D01*
X55256190Y-70622904D02*
X55256190Y-70670523D01*
X55256190Y-70670523D02*
X55018095Y-70718142D01*
X55470475Y-70884809D02*
X55470475Y-70551476D01*
X55470475Y-70599095D02*
X55494285Y-70575285D01*
X55494285Y-70575285D02*
X55541904Y-70551476D01*
X55541904Y-70551476D02*
X55613332Y-70551476D01*
X55613332Y-70551476D02*
X55660951Y-70575285D01*
X55660951Y-70575285D02*
X55684761Y-70622904D01*
X55684761Y-70622904D02*
X55684761Y-70884809D01*
X55684761Y-70622904D02*
X55708570Y-70575285D01*
X55708570Y-70575285D02*
X55756189Y-70551476D01*
X55756189Y-70551476D02*
X55827618Y-70551476D01*
X55827618Y-70551476D02*
X55875237Y-70575285D01*
X55875237Y-70575285D02*
X55899047Y-70622904D01*
X55899047Y-70622904D02*
X55899047Y-70884809D01*
X56137142Y-70884809D02*
X56137142Y-70384809D01*
X56137142Y-70575285D02*
X56184761Y-70551476D01*
X56184761Y-70551476D02*
X56279999Y-70551476D01*
X56279999Y-70551476D02*
X56327618Y-70575285D01*
X56327618Y-70575285D02*
X56351428Y-70599095D01*
X56351428Y-70599095D02*
X56375237Y-70646714D01*
X56375237Y-70646714D02*
X56375237Y-70789571D01*
X56375237Y-70789571D02*
X56351428Y-70837190D01*
X56351428Y-70837190D02*
X56327618Y-70861000D01*
X56327618Y-70861000D02*
X56279999Y-70884809D01*
X56279999Y-70884809D02*
X56184761Y-70884809D01*
X56184761Y-70884809D02*
X56137142Y-70861000D01*
X56779999Y-70861000D02*
X56732380Y-70884809D01*
X56732380Y-70884809D02*
X56637142Y-70884809D01*
X56637142Y-70884809D02*
X56589523Y-70861000D01*
X56589523Y-70861000D02*
X56565714Y-70813380D01*
X56565714Y-70813380D02*
X56565714Y-70622904D01*
X56565714Y-70622904D02*
X56589523Y-70575285D01*
X56589523Y-70575285D02*
X56637142Y-70551476D01*
X56637142Y-70551476D02*
X56732380Y-70551476D01*
X56732380Y-70551476D02*
X56779999Y-70575285D01*
X56779999Y-70575285D02*
X56803809Y-70622904D01*
X56803809Y-70622904D02*
X56803809Y-70670523D01*
X56803809Y-70670523D02*
X56565714Y-70718142D01*
X57018094Y-70884809D02*
X57018094Y-70551476D01*
X57018094Y-70646714D02*
X57041904Y-70599095D01*
X57041904Y-70599095D02*
X57065713Y-70575285D01*
X57065713Y-70575285D02*
X57113332Y-70551476D01*
X57113332Y-70551476D02*
X57160951Y-70551476D01*
X57303809Y-70861000D02*
X57351428Y-70884809D01*
X57351428Y-70884809D02*
X57446666Y-70884809D01*
X57446666Y-70884809D02*
X57494285Y-70861000D01*
X57494285Y-70861000D02*
X57518094Y-70813380D01*
X57518094Y-70813380D02*
X57518094Y-70789571D01*
X57518094Y-70789571D02*
X57494285Y-70741952D01*
X57494285Y-70741952D02*
X57446666Y-70718142D01*
X57446666Y-70718142D02*
X57375237Y-70718142D01*
X57375237Y-70718142D02*
X57327618Y-70694333D01*
X57327618Y-70694333D02*
X57303809Y-70646714D01*
X57303809Y-70646714D02*
X57303809Y-70622904D01*
X57303809Y-70622904D02*
X57327618Y-70575285D01*
X57327618Y-70575285D02*
X57375237Y-70551476D01*
X57375237Y-70551476D02*
X57446666Y-70551476D01*
X57446666Y-70551476D02*
X57494285Y-70575285D01*
X57732380Y-70837190D02*
X57756190Y-70861000D01*
X57756190Y-70861000D02*
X57732380Y-70884809D01*
X57732380Y-70884809D02*
X57708571Y-70861000D01*
X57708571Y-70861000D02*
X57732380Y-70837190D01*
X57732380Y-70837190D02*
X57732380Y-70884809D01*
X57732380Y-70575285D02*
X57756190Y-70599095D01*
X57756190Y-70599095D02*
X57732380Y-70622904D01*
X57732380Y-70622904D02*
X57708571Y-70599095D01*
X57708571Y-70599095D02*
X57732380Y-70575285D01*
X57732380Y-70575285D02*
X57732380Y-70622904D01*
X58637141Y-70884809D02*
X58470475Y-70646714D01*
X58351427Y-70884809D02*
X58351427Y-70384809D01*
X58351427Y-70384809D02*
X58541903Y-70384809D01*
X58541903Y-70384809D02*
X58589522Y-70408619D01*
X58589522Y-70408619D02*
X58613332Y-70432428D01*
X58613332Y-70432428D02*
X58637141Y-70480047D01*
X58637141Y-70480047D02*
X58637141Y-70551476D01*
X58637141Y-70551476D02*
X58613332Y-70599095D01*
X58613332Y-70599095D02*
X58589522Y-70622904D01*
X58589522Y-70622904D02*
X58541903Y-70646714D01*
X58541903Y-70646714D02*
X58351427Y-70646714D01*
X59065713Y-70551476D02*
X59065713Y-70884809D01*
X58851427Y-70551476D02*
X58851427Y-70813380D01*
X58851427Y-70813380D02*
X58875237Y-70861000D01*
X58875237Y-70861000D02*
X58922856Y-70884809D01*
X58922856Y-70884809D02*
X58994284Y-70884809D01*
X58994284Y-70884809D02*
X59041903Y-70861000D01*
X59041903Y-70861000D02*
X59065713Y-70837190D01*
X59303808Y-70884809D02*
X59303808Y-70384809D01*
X59518094Y-70884809D02*
X59518094Y-70622904D01*
X59518094Y-70622904D02*
X59494284Y-70575285D01*
X59494284Y-70575285D02*
X59446665Y-70551476D01*
X59446665Y-70551476D02*
X59375237Y-70551476D01*
X59375237Y-70551476D02*
X59327618Y-70575285D01*
X59327618Y-70575285D02*
X59303808Y-70599095D01*
X59970475Y-70551476D02*
X59970475Y-70884809D01*
X59756189Y-70551476D02*
X59756189Y-70813380D01*
X59756189Y-70813380D02*
X59779999Y-70861000D01*
X59779999Y-70861000D02*
X59827618Y-70884809D01*
X59827618Y-70884809D02*
X59899046Y-70884809D01*
X59899046Y-70884809D02*
X59946665Y-70861000D01*
X59946665Y-70861000D02*
X59970475Y-70837190D01*
X60279999Y-70884809D02*
X60232380Y-70861000D01*
X60232380Y-70861000D02*
X60208570Y-70813380D01*
X60208570Y-70813380D02*
X60208570Y-70384809D01*
X61184760Y-70932428D02*
X61137141Y-70908619D01*
X61137141Y-70908619D02*
X61089522Y-70861000D01*
X61089522Y-70861000D02*
X61018094Y-70789571D01*
X61018094Y-70789571D02*
X60970475Y-70765761D01*
X60970475Y-70765761D02*
X60922856Y-70765761D01*
X60946665Y-70884809D02*
X60899046Y-70861000D01*
X60899046Y-70861000D02*
X60851427Y-70813380D01*
X60851427Y-70813380D02*
X60827618Y-70718142D01*
X60827618Y-70718142D02*
X60827618Y-70551476D01*
X60827618Y-70551476D02*
X60851427Y-70456238D01*
X60851427Y-70456238D02*
X60899046Y-70408619D01*
X60899046Y-70408619D02*
X60946665Y-70384809D01*
X60946665Y-70384809D02*
X61041903Y-70384809D01*
X61041903Y-70384809D02*
X61089522Y-70408619D01*
X61089522Y-70408619D02*
X61137141Y-70456238D01*
X61137141Y-70456238D02*
X61160951Y-70551476D01*
X61160951Y-70551476D02*
X61160951Y-70718142D01*
X61160951Y-70718142D02*
X61137141Y-70813380D01*
X61137141Y-70813380D02*
X61089522Y-70861000D01*
X61089522Y-70861000D02*
X61041903Y-70884809D01*
X61041903Y-70884809D02*
X60946665Y-70884809D01*
X61589523Y-70551476D02*
X61589523Y-70884809D01*
X61375237Y-70551476D02*
X61375237Y-70813380D01*
X61375237Y-70813380D02*
X61399047Y-70861000D01*
X61399047Y-70861000D02*
X61446666Y-70884809D01*
X61446666Y-70884809D02*
X61518094Y-70884809D01*
X61518094Y-70884809D02*
X61565713Y-70861000D01*
X61565713Y-70861000D02*
X61589523Y-70837190D01*
X62041904Y-70884809D02*
X62041904Y-70384809D01*
X62041904Y-70861000D02*
X61994285Y-70884809D01*
X61994285Y-70884809D02*
X61899047Y-70884809D01*
X61899047Y-70884809D02*
X61851428Y-70861000D01*
X61851428Y-70861000D02*
X61827618Y-70837190D01*
X61827618Y-70837190D02*
X61803809Y-70789571D01*
X61803809Y-70789571D02*
X61803809Y-70646714D01*
X61803809Y-70646714D02*
X61827618Y-70599095D01*
X61827618Y-70599095D02*
X61851428Y-70575285D01*
X61851428Y-70575285D02*
X61899047Y-70551476D01*
X61899047Y-70551476D02*
X61994285Y-70551476D01*
X61994285Y-70551476D02*
X62041904Y-70575285D01*
X62494285Y-70884809D02*
X62494285Y-70384809D01*
X62494285Y-70861000D02*
X62446666Y-70884809D01*
X62446666Y-70884809D02*
X62351428Y-70884809D01*
X62351428Y-70884809D02*
X62303809Y-70861000D01*
X62303809Y-70861000D02*
X62279999Y-70837190D01*
X62279999Y-70837190D02*
X62256190Y-70789571D01*
X62256190Y-70789571D02*
X62256190Y-70646714D01*
X62256190Y-70646714D02*
X62279999Y-70599095D01*
X62279999Y-70599095D02*
X62303809Y-70575285D01*
X62303809Y-70575285D02*
X62351428Y-70551476D01*
X62351428Y-70551476D02*
X62446666Y-70551476D01*
X62446666Y-70551476D02*
X62494285Y-70575285D01*
X62946666Y-70551476D02*
X62946666Y-70884809D01*
X62732380Y-70551476D02*
X62732380Y-70813380D01*
X62732380Y-70813380D02*
X62756190Y-70861000D01*
X62756190Y-70861000D02*
X62803809Y-70884809D01*
X62803809Y-70884809D02*
X62875237Y-70884809D01*
X62875237Y-70884809D02*
X62922856Y-70861000D01*
X62922856Y-70861000D02*
X62946666Y-70837190D01*
X63160952Y-70861000D02*
X63208571Y-70884809D01*
X63208571Y-70884809D02*
X63303809Y-70884809D01*
X63303809Y-70884809D02*
X63351428Y-70861000D01*
X63351428Y-70861000D02*
X63375237Y-70813380D01*
X63375237Y-70813380D02*
X63375237Y-70789571D01*
X63375237Y-70789571D02*
X63351428Y-70741952D01*
X63351428Y-70741952D02*
X63303809Y-70718142D01*
X63303809Y-70718142D02*
X63232380Y-70718142D01*
X63232380Y-70718142D02*
X63184761Y-70694333D01*
X63184761Y-70694333D02*
X63160952Y-70646714D01*
X63160952Y-70646714D02*
X63160952Y-70622904D01*
X63160952Y-70622904D02*
X63184761Y-70575285D01*
X63184761Y-70575285D02*
X63232380Y-70551476D01*
X63232380Y-70551476D02*
X63303809Y-70551476D01*
X63303809Y-70551476D02*
X63351428Y-70575285D01*
X63613333Y-70861000D02*
X63613333Y-70884809D01*
X63613333Y-70884809D02*
X63589523Y-70932428D01*
X63589523Y-70932428D02*
X63565714Y-70956238D01*
X64470475Y-70408619D02*
X64422856Y-70384809D01*
X64422856Y-70384809D02*
X64351427Y-70384809D01*
X64351427Y-70384809D02*
X64279999Y-70408619D01*
X64279999Y-70408619D02*
X64232380Y-70456238D01*
X64232380Y-70456238D02*
X64208570Y-70503857D01*
X64208570Y-70503857D02*
X64184761Y-70599095D01*
X64184761Y-70599095D02*
X64184761Y-70670523D01*
X64184761Y-70670523D02*
X64208570Y-70765761D01*
X64208570Y-70765761D02*
X64232380Y-70813380D01*
X64232380Y-70813380D02*
X64279999Y-70861000D01*
X64279999Y-70861000D02*
X64351427Y-70884809D01*
X64351427Y-70884809D02*
X64399046Y-70884809D01*
X64399046Y-70884809D02*
X64470475Y-70861000D01*
X64470475Y-70861000D02*
X64494284Y-70837190D01*
X64494284Y-70837190D02*
X64494284Y-70670523D01*
X64494284Y-70670523D02*
X64399046Y-70670523D01*
X64779999Y-70884809D02*
X64732380Y-70861000D01*
X64732380Y-70861000D02*
X64708570Y-70837190D01*
X64708570Y-70837190D02*
X64684761Y-70789571D01*
X64684761Y-70789571D02*
X64684761Y-70646714D01*
X64684761Y-70646714D02*
X64708570Y-70599095D01*
X64708570Y-70599095D02*
X64732380Y-70575285D01*
X64732380Y-70575285D02*
X64779999Y-70551476D01*
X64779999Y-70551476D02*
X64851427Y-70551476D01*
X64851427Y-70551476D02*
X64899046Y-70575285D01*
X64899046Y-70575285D02*
X64922856Y-70599095D01*
X64922856Y-70599095D02*
X64946665Y-70646714D01*
X64946665Y-70646714D02*
X64946665Y-70789571D01*
X64946665Y-70789571D02*
X64922856Y-70837190D01*
X64922856Y-70837190D02*
X64899046Y-70861000D01*
X64899046Y-70861000D02*
X64851427Y-70884809D01*
X64851427Y-70884809D02*
X64779999Y-70884809D01*
X65375237Y-70551476D02*
X65375237Y-70884809D01*
X65160951Y-70551476D02*
X65160951Y-70813380D01*
X65160951Y-70813380D02*
X65184761Y-70861000D01*
X65184761Y-70861000D02*
X65232380Y-70884809D01*
X65232380Y-70884809D02*
X65303808Y-70884809D01*
X65303808Y-70884809D02*
X65351427Y-70861000D01*
X65351427Y-70861000D02*
X65375237Y-70837190D01*
X65541904Y-70551476D02*
X65732380Y-70551476D01*
X65613332Y-70384809D02*
X65613332Y-70813380D01*
X65613332Y-70813380D02*
X65637142Y-70861000D01*
X65637142Y-70861000D02*
X65684761Y-70884809D01*
X65684761Y-70884809D02*
X65732380Y-70884809D01*
X65899046Y-70884809D02*
X65899046Y-70384809D01*
X66113332Y-70884809D02*
X66113332Y-70622904D01*
X66113332Y-70622904D02*
X66089522Y-70575285D01*
X66089522Y-70575285D02*
X66041903Y-70551476D01*
X66041903Y-70551476D02*
X65970475Y-70551476D01*
X65970475Y-70551476D02*
X65922856Y-70575285D01*
X65922856Y-70575285D02*
X65899046Y-70599095D01*
X66565713Y-70884809D02*
X66565713Y-70622904D01*
X66565713Y-70622904D02*
X66541903Y-70575285D01*
X66541903Y-70575285D02*
X66494284Y-70551476D01*
X66494284Y-70551476D02*
X66399046Y-70551476D01*
X66399046Y-70551476D02*
X66351427Y-70575285D01*
X66565713Y-70861000D02*
X66518094Y-70884809D01*
X66518094Y-70884809D02*
X66399046Y-70884809D01*
X66399046Y-70884809D02*
X66351427Y-70861000D01*
X66351427Y-70861000D02*
X66327618Y-70813380D01*
X66327618Y-70813380D02*
X66327618Y-70765761D01*
X66327618Y-70765761D02*
X66351427Y-70718142D01*
X66351427Y-70718142D02*
X66399046Y-70694333D01*
X66399046Y-70694333D02*
X66518094Y-70694333D01*
X66518094Y-70694333D02*
X66565713Y-70670523D01*
X66803808Y-70884809D02*
X66803808Y-70551476D01*
X66803808Y-70599095D02*
X66827618Y-70575285D01*
X66827618Y-70575285D02*
X66875237Y-70551476D01*
X66875237Y-70551476D02*
X66946665Y-70551476D01*
X66946665Y-70551476D02*
X66994284Y-70575285D01*
X66994284Y-70575285D02*
X67018094Y-70622904D01*
X67018094Y-70622904D02*
X67018094Y-70884809D01*
X67018094Y-70622904D02*
X67041903Y-70575285D01*
X67041903Y-70575285D02*
X67089522Y-70551476D01*
X67089522Y-70551476D02*
X67160951Y-70551476D01*
X67160951Y-70551476D02*
X67208570Y-70575285D01*
X67208570Y-70575285D02*
X67232380Y-70622904D01*
X67232380Y-70622904D02*
X67232380Y-70884809D01*
X67851427Y-70884809D02*
X67851427Y-70384809D01*
X67851427Y-70384809D02*
X68018094Y-70741952D01*
X68018094Y-70741952D02*
X68184760Y-70384809D01*
X68184760Y-70384809D02*
X68184760Y-70884809D01*
X68422856Y-70884809D02*
X68422856Y-70551476D01*
X68422856Y-70384809D02*
X68399047Y-70408619D01*
X68399047Y-70408619D02*
X68422856Y-70432428D01*
X68422856Y-70432428D02*
X68446666Y-70408619D01*
X68446666Y-70408619D02*
X68422856Y-70384809D01*
X68422856Y-70384809D02*
X68422856Y-70432428D01*
X68589523Y-70551476D02*
X68779999Y-70551476D01*
X68660951Y-70384809D02*
X68660951Y-70813380D01*
X68660951Y-70813380D02*
X68684761Y-70861000D01*
X68684761Y-70861000D02*
X68732380Y-70884809D01*
X68732380Y-70884809D02*
X68779999Y-70884809D01*
X68875237Y-70551476D02*
X69065713Y-70551476D01*
X68946665Y-70384809D02*
X68946665Y-70813380D01*
X68946665Y-70813380D02*
X68970475Y-70861000D01*
X68970475Y-70861000D02*
X69018094Y-70884809D01*
X69018094Y-70884809D02*
X69065713Y-70884809D01*
X69446665Y-70884809D02*
X69446665Y-70622904D01*
X69446665Y-70622904D02*
X69422855Y-70575285D01*
X69422855Y-70575285D02*
X69375236Y-70551476D01*
X69375236Y-70551476D02*
X69279998Y-70551476D01*
X69279998Y-70551476D02*
X69232379Y-70575285D01*
X69446665Y-70861000D02*
X69399046Y-70884809D01*
X69399046Y-70884809D02*
X69279998Y-70884809D01*
X69279998Y-70884809D02*
X69232379Y-70861000D01*
X69232379Y-70861000D02*
X69208570Y-70813380D01*
X69208570Y-70813380D02*
X69208570Y-70765761D01*
X69208570Y-70765761D02*
X69232379Y-70718142D01*
X69232379Y-70718142D02*
X69279998Y-70694333D01*
X69279998Y-70694333D02*
X69399046Y-70694333D01*
X69399046Y-70694333D02*
X69446665Y-70670523D01*
X69899046Y-70884809D02*
X69899046Y-70384809D01*
X69899046Y-70861000D02*
X69851427Y-70884809D01*
X69851427Y-70884809D02*
X69756189Y-70884809D01*
X69756189Y-70884809D02*
X69708570Y-70861000D01*
X69708570Y-70861000D02*
X69684760Y-70837190D01*
X69684760Y-70837190D02*
X69660951Y-70789571D01*
X69660951Y-70789571D02*
X69660951Y-70646714D01*
X69660951Y-70646714D02*
X69684760Y-70599095D01*
X69684760Y-70599095D02*
X69708570Y-70575285D01*
X69708570Y-70575285D02*
X69756189Y-70551476D01*
X69756189Y-70551476D02*
X69851427Y-70551476D01*
X69851427Y-70551476D02*
X69899046Y-70575285D01*
X70137141Y-70884809D02*
X70137141Y-70384809D01*
X70351427Y-70884809D02*
X70351427Y-70622904D01*
X70351427Y-70622904D02*
X70327617Y-70575285D01*
X70327617Y-70575285D02*
X70279998Y-70551476D01*
X70279998Y-70551476D02*
X70208570Y-70551476D01*
X70208570Y-70551476D02*
X70160951Y-70575285D01*
X70160951Y-70575285D02*
X70137141Y-70599095D01*
X70660951Y-70884809D02*
X70613332Y-70861000D01*
X70613332Y-70861000D02*
X70589522Y-70837190D01*
X70589522Y-70837190D02*
X70565713Y-70789571D01*
X70565713Y-70789571D02*
X70565713Y-70646714D01*
X70565713Y-70646714D02*
X70589522Y-70599095D01*
X70589522Y-70599095D02*
X70613332Y-70575285D01*
X70613332Y-70575285D02*
X70660951Y-70551476D01*
X70660951Y-70551476D02*
X70732379Y-70551476D01*
X70732379Y-70551476D02*
X70779998Y-70575285D01*
X70779998Y-70575285D02*
X70803808Y-70599095D01*
X70803808Y-70599095D02*
X70827617Y-70646714D01*
X70827617Y-70646714D02*
X70827617Y-70789571D01*
X70827617Y-70789571D02*
X70803808Y-70837190D01*
X70803808Y-70837190D02*
X70779998Y-70861000D01*
X70779998Y-70861000D02*
X70732379Y-70884809D01*
X70732379Y-70884809D02*
X70660951Y-70884809D01*
X71256189Y-70884809D02*
X71256189Y-70384809D01*
X71256189Y-70861000D02*
X71208570Y-70884809D01*
X71208570Y-70884809D02*
X71113332Y-70884809D01*
X71113332Y-70884809D02*
X71065713Y-70861000D01*
X71065713Y-70861000D02*
X71041903Y-70837190D01*
X71041903Y-70837190D02*
X71018094Y-70789571D01*
X71018094Y-70789571D02*
X71018094Y-70646714D01*
X71018094Y-70646714D02*
X71041903Y-70599095D01*
X71041903Y-70599095D02*
X71065713Y-70575285D01*
X71065713Y-70575285D02*
X71113332Y-70551476D01*
X71113332Y-70551476D02*
X71208570Y-70551476D01*
X71208570Y-70551476D02*
X71256189Y-70575285D01*
X71708570Y-70884809D02*
X71708570Y-70384809D01*
X71708570Y-70861000D02*
X71660951Y-70884809D01*
X71660951Y-70884809D02*
X71565713Y-70884809D01*
X71565713Y-70884809D02*
X71518094Y-70861000D01*
X71518094Y-70861000D02*
X71494284Y-70837190D01*
X71494284Y-70837190D02*
X71470475Y-70789571D01*
X71470475Y-70789571D02*
X71470475Y-70646714D01*
X71470475Y-70646714D02*
X71494284Y-70599095D01*
X71494284Y-70599095D02*
X71518094Y-70575285D01*
X71518094Y-70575285D02*
X71565713Y-70551476D01*
X71565713Y-70551476D02*
X71660951Y-70551476D01*
X71660951Y-70551476D02*
X71708570Y-70575285D01*
X71946665Y-70884809D02*
X71946665Y-70551476D01*
X71946665Y-70384809D02*
X71922856Y-70408619D01*
X71922856Y-70408619D02*
X71946665Y-70432428D01*
X71946665Y-70432428D02*
X71970475Y-70408619D01*
X71970475Y-70408619D02*
X71946665Y-70384809D01*
X71946665Y-70384809D02*
X71946665Y-70432428D01*
X72208570Y-70861000D02*
X72208570Y-70884809D01*
X72208570Y-70884809D02*
X72184760Y-70932428D01*
X72184760Y-70932428D02*
X72160951Y-70956238D01*
X72803807Y-70884809D02*
X72803807Y-70384809D01*
X72803807Y-70384809D02*
X73089521Y-70884809D01*
X73089521Y-70884809D02*
X73089521Y-70384809D01*
X73327617Y-70884809D02*
X73327617Y-70551476D01*
X73327617Y-70384809D02*
X73303808Y-70408619D01*
X73303808Y-70408619D02*
X73327617Y-70432428D01*
X73327617Y-70432428D02*
X73351427Y-70408619D01*
X73351427Y-70408619D02*
X73327617Y-70384809D01*
X73327617Y-70384809D02*
X73327617Y-70432428D01*
X73565712Y-70884809D02*
X73565712Y-70551476D01*
X73565712Y-70599095D02*
X73589522Y-70575285D01*
X73589522Y-70575285D02*
X73637141Y-70551476D01*
X73637141Y-70551476D02*
X73708569Y-70551476D01*
X73708569Y-70551476D02*
X73756188Y-70575285D01*
X73756188Y-70575285D02*
X73779998Y-70622904D01*
X73779998Y-70622904D02*
X73779998Y-70884809D01*
X73779998Y-70622904D02*
X73803807Y-70575285D01*
X73803807Y-70575285D02*
X73851426Y-70551476D01*
X73851426Y-70551476D02*
X73922855Y-70551476D01*
X73922855Y-70551476D02*
X73970474Y-70575285D01*
X73970474Y-70575285D02*
X73994284Y-70622904D01*
X73994284Y-70622904D02*
X73994284Y-70884809D01*
X74446665Y-70884809D02*
X74446665Y-70622904D01*
X74446665Y-70622904D02*
X74422855Y-70575285D01*
X74422855Y-70575285D02*
X74375236Y-70551476D01*
X74375236Y-70551476D02*
X74279998Y-70551476D01*
X74279998Y-70551476D02*
X74232379Y-70575285D01*
X74446665Y-70861000D02*
X74399046Y-70884809D01*
X74399046Y-70884809D02*
X74279998Y-70884809D01*
X74279998Y-70884809D02*
X74232379Y-70861000D01*
X74232379Y-70861000D02*
X74208570Y-70813380D01*
X74208570Y-70813380D02*
X74208570Y-70765761D01*
X74208570Y-70765761D02*
X74232379Y-70718142D01*
X74232379Y-70718142D02*
X74279998Y-70694333D01*
X74279998Y-70694333D02*
X74399046Y-70694333D01*
X74399046Y-70694333D02*
X74446665Y-70670523D01*
X75351426Y-70884809D02*
X75184760Y-70646714D01*
X75065712Y-70884809D02*
X75065712Y-70384809D01*
X75065712Y-70384809D02*
X75256188Y-70384809D01*
X75256188Y-70384809D02*
X75303807Y-70408619D01*
X75303807Y-70408619D02*
X75327617Y-70432428D01*
X75327617Y-70432428D02*
X75351426Y-70480047D01*
X75351426Y-70480047D02*
X75351426Y-70551476D01*
X75351426Y-70551476D02*
X75327617Y-70599095D01*
X75327617Y-70599095D02*
X75303807Y-70622904D01*
X75303807Y-70622904D02*
X75256188Y-70646714D01*
X75256188Y-70646714D02*
X75065712Y-70646714D01*
X75779998Y-70884809D02*
X75779998Y-70622904D01*
X75779998Y-70622904D02*
X75756188Y-70575285D01*
X75756188Y-70575285D02*
X75708569Y-70551476D01*
X75708569Y-70551476D02*
X75613331Y-70551476D01*
X75613331Y-70551476D02*
X75565712Y-70575285D01*
X75779998Y-70861000D02*
X75732379Y-70884809D01*
X75732379Y-70884809D02*
X75613331Y-70884809D01*
X75613331Y-70884809D02*
X75565712Y-70861000D01*
X75565712Y-70861000D02*
X75541903Y-70813380D01*
X75541903Y-70813380D02*
X75541903Y-70765761D01*
X75541903Y-70765761D02*
X75565712Y-70718142D01*
X75565712Y-70718142D02*
X75613331Y-70694333D01*
X75613331Y-70694333D02*
X75732379Y-70694333D01*
X75732379Y-70694333D02*
X75779998Y-70670523D01*
X75970474Y-70551476D02*
X76232379Y-70551476D01*
X76232379Y-70551476D02*
X75970474Y-70884809D01*
X75970474Y-70884809D02*
X76232379Y-70884809D01*
X76637141Y-70884809D02*
X76637141Y-70622904D01*
X76637141Y-70622904D02*
X76613331Y-70575285D01*
X76613331Y-70575285D02*
X76565712Y-70551476D01*
X76565712Y-70551476D02*
X76470474Y-70551476D01*
X76470474Y-70551476D02*
X76422855Y-70575285D01*
X76637141Y-70861000D02*
X76589522Y-70884809D01*
X76589522Y-70884809D02*
X76470474Y-70884809D01*
X76470474Y-70884809D02*
X76422855Y-70861000D01*
X76422855Y-70861000D02*
X76399046Y-70813380D01*
X76399046Y-70813380D02*
X76399046Y-70765761D01*
X76399046Y-70765761D02*
X76422855Y-70718142D01*
X76422855Y-70718142D02*
X76470474Y-70694333D01*
X76470474Y-70694333D02*
X76589522Y-70694333D01*
X76589522Y-70694333D02*
X76637141Y-70670523D01*
X76827617Y-70551476D02*
X76946665Y-70884809D01*
X76946665Y-70884809D02*
X77065712Y-70551476D01*
X77256188Y-70884809D02*
X77256188Y-70551476D01*
X77256188Y-70384809D02*
X77232379Y-70408619D01*
X77232379Y-70408619D02*
X77256188Y-70432428D01*
X77256188Y-70432428D02*
X77279998Y-70408619D01*
X77279998Y-70408619D02*
X77256188Y-70384809D01*
X77256188Y-70384809D02*
X77256188Y-70432428D01*
X77518093Y-70861000D02*
X77518093Y-70884809D01*
X77518093Y-70884809D02*
X77494283Y-70932428D01*
X77494283Y-70932428D02*
X77470474Y-70956238D01*
X78113330Y-70884809D02*
X78113330Y-70384809D01*
X78565711Y-70884809D02*
X78565711Y-70622904D01*
X78565711Y-70622904D02*
X78541901Y-70575285D01*
X78541901Y-70575285D02*
X78494282Y-70551476D01*
X78494282Y-70551476D02*
X78399044Y-70551476D01*
X78399044Y-70551476D02*
X78351425Y-70575285D01*
X78565711Y-70861000D02*
X78518092Y-70884809D01*
X78518092Y-70884809D02*
X78399044Y-70884809D01*
X78399044Y-70884809D02*
X78351425Y-70861000D01*
X78351425Y-70861000D02*
X78327616Y-70813380D01*
X78327616Y-70813380D02*
X78327616Y-70765761D01*
X78327616Y-70765761D02*
X78351425Y-70718142D01*
X78351425Y-70718142D02*
X78399044Y-70694333D01*
X78399044Y-70694333D02*
X78518092Y-70694333D01*
X78518092Y-70694333D02*
X78565711Y-70670523D01*
X78803806Y-70551476D02*
X78803806Y-70884809D01*
X78803806Y-70599095D02*
X78827616Y-70575285D01*
X78827616Y-70575285D02*
X78875235Y-70551476D01*
X78875235Y-70551476D02*
X78946663Y-70551476D01*
X78946663Y-70551476D02*
X78994282Y-70575285D01*
X78994282Y-70575285D02*
X79018092Y-70622904D01*
X79018092Y-70622904D02*
X79018092Y-70884809D01*
X79875234Y-70884809D02*
X79637139Y-70884809D01*
X79637139Y-70884809D02*
X79637139Y-70384809D01*
X80232377Y-70861000D02*
X80184758Y-70884809D01*
X80184758Y-70884809D02*
X80089520Y-70884809D01*
X80089520Y-70884809D02*
X80041901Y-70861000D01*
X80041901Y-70861000D02*
X80018092Y-70813380D01*
X80018092Y-70813380D02*
X80018092Y-70622904D01*
X80018092Y-70622904D02*
X80041901Y-70575285D01*
X80041901Y-70575285D02*
X80089520Y-70551476D01*
X80089520Y-70551476D02*
X80184758Y-70551476D01*
X80184758Y-70551476D02*
X80232377Y-70575285D01*
X80232377Y-70575285D02*
X80256187Y-70622904D01*
X80256187Y-70622904D02*
X80256187Y-70670523D01*
X80256187Y-70670523D02*
X80018092Y-70718142D01*
X80494282Y-70861000D02*
X80494282Y-70884809D01*
X80494282Y-70884809D02*
X80470472Y-70932428D01*
X80470472Y-70932428D02*
X80446663Y-70956238D01*
X81089519Y-70884809D02*
X81089519Y-70384809D01*
X81375233Y-70884809D02*
X81160948Y-70599095D01*
X81375233Y-70384809D02*
X81089519Y-70670523D01*
X81779995Y-70861000D02*
X81732376Y-70884809D01*
X81732376Y-70884809D02*
X81637138Y-70884809D01*
X81637138Y-70884809D02*
X81589519Y-70861000D01*
X81589519Y-70861000D02*
X81565710Y-70813380D01*
X81565710Y-70813380D02*
X81565710Y-70622904D01*
X81565710Y-70622904D02*
X81589519Y-70575285D01*
X81589519Y-70575285D02*
X81637138Y-70551476D01*
X81637138Y-70551476D02*
X81732376Y-70551476D01*
X81732376Y-70551476D02*
X81779995Y-70575285D01*
X81779995Y-70575285D02*
X81803805Y-70622904D01*
X81803805Y-70622904D02*
X81803805Y-70670523D01*
X81803805Y-70670523D02*
X81565710Y-70718142D01*
X82018090Y-70551476D02*
X82018090Y-70884809D01*
X82018090Y-70599095D02*
X82041900Y-70575285D01*
X82041900Y-70575285D02*
X82089519Y-70551476D01*
X82089519Y-70551476D02*
X82160947Y-70551476D01*
X82160947Y-70551476D02*
X82208566Y-70575285D01*
X82208566Y-70575285D02*
X82232376Y-70622904D01*
X82232376Y-70622904D02*
X82232376Y-70884809D01*
X82470471Y-70551476D02*
X82470471Y-70884809D01*
X82470471Y-70599095D02*
X82494281Y-70575285D01*
X82494281Y-70575285D02*
X82541900Y-70551476D01*
X82541900Y-70551476D02*
X82613328Y-70551476D01*
X82613328Y-70551476D02*
X82660947Y-70575285D01*
X82660947Y-70575285D02*
X82684757Y-70622904D01*
X82684757Y-70622904D02*
X82684757Y-70884809D01*
X82875233Y-70551476D02*
X82994281Y-70884809D01*
X83113328Y-70551476D02*
X82994281Y-70884809D01*
X82994281Y-70884809D02*
X82946662Y-71003857D01*
X82946662Y-71003857D02*
X82922852Y-71027666D01*
X82922852Y-71027666D02*
X82875233Y-71051476D01*
X83637137Y-70384809D02*
X83970470Y-70384809D01*
X83970470Y-70384809D02*
X83637137Y-70884809D01*
X83637137Y-70884809D02*
X83970470Y-70884809D01*
X84160946Y-70884809D02*
X84160946Y-70384809D01*
X84375232Y-70884809D02*
X84375232Y-70622904D01*
X84375232Y-70622904D02*
X84351422Y-70575285D01*
X84351422Y-70575285D02*
X84303803Y-70551476D01*
X84303803Y-70551476D02*
X84232375Y-70551476D01*
X84232375Y-70551476D02*
X84184756Y-70575285D01*
X84184756Y-70575285D02*
X84160946Y-70599095D01*
X84827613Y-70884809D02*
X84827613Y-70622904D01*
X84827613Y-70622904D02*
X84803803Y-70575285D01*
X84803803Y-70575285D02*
X84756184Y-70551476D01*
X84756184Y-70551476D02*
X84660946Y-70551476D01*
X84660946Y-70551476D02*
X84613327Y-70575285D01*
X84827613Y-70861000D02*
X84779994Y-70884809D01*
X84779994Y-70884809D02*
X84660946Y-70884809D01*
X84660946Y-70884809D02*
X84613327Y-70861000D01*
X84613327Y-70861000D02*
X84589518Y-70813380D01*
X84589518Y-70813380D02*
X84589518Y-70765761D01*
X84589518Y-70765761D02*
X84613327Y-70718142D01*
X84613327Y-70718142D02*
X84660946Y-70694333D01*
X84660946Y-70694333D02*
X84779994Y-70694333D01*
X84779994Y-70694333D02*
X84827613Y-70670523D01*
X85065708Y-70551476D02*
X85065708Y-70884809D01*
X85065708Y-70599095D02*
X85089518Y-70575285D01*
X85089518Y-70575285D02*
X85137137Y-70551476D01*
X85137137Y-70551476D02*
X85208565Y-70551476D01*
X85208565Y-70551476D02*
X85256184Y-70575285D01*
X85256184Y-70575285D02*
X85279994Y-70622904D01*
X85279994Y-70622904D02*
X85279994Y-70884809D01*
X85732375Y-70551476D02*
X85732375Y-70956238D01*
X85732375Y-70956238D02*
X85708565Y-71003857D01*
X85708565Y-71003857D02*
X85684756Y-71027666D01*
X85684756Y-71027666D02*
X85637137Y-71051476D01*
X85637137Y-71051476D02*
X85565708Y-71051476D01*
X85565708Y-71051476D02*
X85518089Y-71027666D01*
X85732375Y-70861000D02*
X85684756Y-70884809D01*
X85684756Y-70884809D02*
X85589518Y-70884809D01*
X85589518Y-70884809D02*
X85541899Y-70861000D01*
X85541899Y-70861000D02*
X85518089Y-70837190D01*
X85518089Y-70837190D02*
X85494280Y-70789571D01*
X85494280Y-70789571D02*
X85494280Y-70646714D01*
X85494280Y-70646714D02*
X85518089Y-70599095D01*
X85518089Y-70599095D02*
X85541899Y-70575285D01*
X85541899Y-70575285D02*
X85589518Y-70551476D01*
X85589518Y-70551476D02*
X85684756Y-70551476D01*
X85684756Y-70551476D02*
X85732375Y-70575285D01*
X61809047Y-115274809D02*
X61809047Y-115679571D01*
X61809047Y-115679571D02*
X61832857Y-115727190D01*
X61832857Y-115727190D02*
X61856666Y-115751000D01*
X61856666Y-115751000D02*
X61904285Y-115774809D01*
X61904285Y-115774809D02*
X61999523Y-115774809D01*
X61999523Y-115774809D02*
X62047142Y-115751000D01*
X62047142Y-115751000D02*
X62070952Y-115727190D01*
X62070952Y-115727190D02*
X62094761Y-115679571D01*
X62094761Y-115679571D02*
X62094761Y-115274809D01*
X62594762Y-115774809D02*
X62309048Y-115774809D01*
X62451905Y-115774809D02*
X62451905Y-115274809D01*
X62451905Y-115274809D02*
X62404286Y-115346238D01*
X62404286Y-115346238D02*
X62356667Y-115393857D01*
X62356667Y-115393857D02*
X62309048Y-115417666D01*
X62988096Y-115214809D02*
X63297620Y-115214809D01*
X63297620Y-115214809D02*
X63130953Y-115405285D01*
X63130953Y-115405285D02*
X63202382Y-115405285D01*
X63202382Y-115405285D02*
X63250001Y-115429095D01*
X63250001Y-115429095D02*
X63273810Y-115452904D01*
X63273810Y-115452904D02*
X63297620Y-115500523D01*
X63297620Y-115500523D02*
X63297620Y-115619571D01*
X63297620Y-115619571D02*
X63273810Y-115667190D01*
X63273810Y-115667190D02*
X63250001Y-115691000D01*
X63250001Y-115691000D02*
X63202382Y-115714809D01*
X63202382Y-115714809D02*
X63059525Y-115714809D01*
X63059525Y-115714809D02*
X63011906Y-115691000D01*
X63011906Y-115691000D02*
X62988096Y-115667190D01*
X63511905Y-115667190D02*
X63535715Y-115691000D01*
X63535715Y-115691000D02*
X63511905Y-115714809D01*
X63511905Y-115714809D02*
X63488096Y-115691000D01*
X63488096Y-115691000D02*
X63511905Y-115667190D01*
X63511905Y-115667190D02*
X63511905Y-115714809D01*
X63702381Y-115214809D02*
X64011905Y-115214809D01*
X64011905Y-115214809D02*
X63845238Y-115405285D01*
X63845238Y-115405285D02*
X63916667Y-115405285D01*
X63916667Y-115405285D02*
X63964286Y-115429095D01*
X63964286Y-115429095D02*
X63988095Y-115452904D01*
X63988095Y-115452904D02*
X64011905Y-115500523D01*
X64011905Y-115500523D02*
X64011905Y-115619571D01*
X64011905Y-115619571D02*
X63988095Y-115667190D01*
X63988095Y-115667190D02*
X63964286Y-115691000D01*
X63964286Y-115691000D02*
X63916667Y-115714809D01*
X63916667Y-115714809D02*
X63773810Y-115714809D01*
X63773810Y-115714809D02*
X63726191Y-115691000D01*
X63726191Y-115691000D02*
X63702381Y-115667190D01*
X64154762Y-115214809D02*
X64321428Y-115714809D01*
X64321428Y-115714809D02*
X64488095Y-115214809D01*
X64964285Y-115214809D02*
X65130951Y-115714809D01*
X65130951Y-115714809D02*
X65297618Y-115214809D01*
X65464284Y-115667190D02*
X65488094Y-115691000D01*
X65488094Y-115691000D02*
X65464284Y-115714809D01*
X65464284Y-115714809D02*
X65440475Y-115691000D01*
X65440475Y-115691000D02*
X65464284Y-115667190D01*
X65464284Y-115667190D02*
X65464284Y-115714809D01*
X65988093Y-115714809D02*
X65821427Y-115476714D01*
X65702379Y-115714809D02*
X65702379Y-115214809D01*
X65702379Y-115214809D02*
X65892855Y-115214809D01*
X65892855Y-115214809D02*
X65940474Y-115238619D01*
X65940474Y-115238619D02*
X65964284Y-115262428D01*
X65964284Y-115262428D02*
X65988093Y-115310047D01*
X65988093Y-115310047D02*
X65988093Y-115381476D01*
X65988093Y-115381476D02*
X65964284Y-115429095D01*
X65964284Y-115429095D02*
X65940474Y-115452904D01*
X65940474Y-115452904D02*
X65892855Y-115476714D01*
X65892855Y-115476714D02*
X65702379Y-115476714D01*
X61347143Y-118922904D02*
X61418571Y-118946714D01*
X61418571Y-118946714D02*
X61442381Y-118970523D01*
X61442381Y-118970523D02*
X61466190Y-119018142D01*
X61466190Y-119018142D02*
X61466190Y-119089571D01*
X61466190Y-119089571D02*
X61442381Y-119137190D01*
X61442381Y-119137190D02*
X61418571Y-119161000D01*
X61418571Y-119161000D02*
X61370952Y-119184809D01*
X61370952Y-119184809D02*
X61180476Y-119184809D01*
X61180476Y-119184809D02*
X61180476Y-118684809D01*
X61180476Y-118684809D02*
X61347143Y-118684809D01*
X61347143Y-118684809D02*
X61394762Y-118708619D01*
X61394762Y-118708619D02*
X61418571Y-118732428D01*
X61418571Y-118732428D02*
X61442381Y-118780047D01*
X61442381Y-118780047D02*
X61442381Y-118827666D01*
X61442381Y-118827666D02*
X61418571Y-118875285D01*
X61418571Y-118875285D02*
X61394762Y-118899095D01*
X61394762Y-118899095D02*
X61347143Y-118922904D01*
X61347143Y-118922904D02*
X61180476Y-118922904D01*
X61609048Y-118684809D02*
X61894762Y-118684809D01*
X61751905Y-119184809D02*
X61751905Y-118684809D01*
X62323333Y-119184809D02*
X62037619Y-119184809D01*
X62180476Y-119184809D02*
X62180476Y-118684809D01*
X62180476Y-118684809D02*
X62132857Y-118756238D01*
X62132857Y-118756238D02*
X62085238Y-118803857D01*
X62085238Y-118803857D02*
X62037619Y-118827666D01*
X61334286Y-118142904D02*
X61405714Y-118166714D01*
X61405714Y-118166714D02*
X61429524Y-118190523D01*
X61429524Y-118190523D02*
X61453333Y-118238142D01*
X61453333Y-118238142D02*
X61453333Y-118309571D01*
X61453333Y-118309571D02*
X61429524Y-118357190D01*
X61429524Y-118357190D02*
X61405714Y-118381000D01*
X61405714Y-118381000D02*
X61358095Y-118404809D01*
X61358095Y-118404809D02*
X61167619Y-118404809D01*
X61167619Y-118404809D02*
X61167619Y-117904809D01*
X61167619Y-117904809D02*
X61334286Y-117904809D01*
X61334286Y-117904809D02*
X61381905Y-117928619D01*
X61381905Y-117928619D02*
X61405714Y-117952428D01*
X61405714Y-117952428D02*
X61429524Y-118000047D01*
X61429524Y-118000047D02*
X61429524Y-118047666D01*
X61429524Y-118047666D02*
X61405714Y-118095285D01*
X61405714Y-118095285D02*
X61381905Y-118119095D01*
X61381905Y-118119095D02*
X61334286Y-118142904D01*
X61334286Y-118142904D02*
X61167619Y-118142904D01*
X61881905Y-118404809D02*
X61881905Y-118142904D01*
X61881905Y-118142904D02*
X61858095Y-118095285D01*
X61858095Y-118095285D02*
X61810476Y-118071476D01*
X61810476Y-118071476D02*
X61715238Y-118071476D01*
X61715238Y-118071476D02*
X61667619Y-118095285D01*
X61881905Y-118381000D02*
X61834286Y-118404809D01*
X61834286Y-118404809D02*
X61715238Y-118404809D01*
X61715238Y-118404809D02*
X61667619Y-118381000D01*
X61667619Y-118381000D02*
X61643810Y-118333380D01*
X61643810Y-118333380D02*
X61643810Y-118285761D01*
X61643810Y-118285761D02*
X61667619Y-118238142D01*
X61667619Y-118238142D02*
X61715238Y-118214333D01*
X61715238Y-118214333D02*
X61834286Y-118214333D01*
X61834286Y-118214333D02*
X61881905Y-118190523D01*
X62048572Y-118071476D02*
X62239048Y-118071476D01*
X62120000Y-117904809D02*
X62120000Y-118333380D01*
X62120000Y-118333380D02*
X62143810Y-118381000D01*
X62143810Y-118381000D02*
X62191429Y-118404809D01*
X62191429Y-118404809D02*
X62239048Y-118404809D01*
X62334286Y-118071476D02*
X62524762Y-118071476D01*
X62405714Y-117904809D02*
X62405714Y-118333380D01*
X62405714Y-118333380D02*
X62429524Y-118381000D01*
X62429524Y-118381000D02*
X62477143Y-118404809D01*
X62477143Y-118404809D02*
X62524762Y-118404809D01*
X62881904Y-118381000D02*
X62834285Y-118404809D01*
X62834285Y-118404809D02*
X62739047Y-118404809D01*
X62739047Y-118404809D02*
X62691428Y-118381000D01*
X62691428Y-118381000D02*
X62667619Y-118333380D01*
X62667619Y-118333380D02*
X62667619Y-118142904D01*
X62667619Y-118142904D02*
X62691428Y-118095285D01*
X62691428Y-118095285D02*
X62739047Y-118071476D01*
X62739047Y-118071476D02*
X62834285Y-118071476D01*
X62834285Y-118071476D02*
X62881904Y-118095285D01*
X62881904Y-118095285D02*
X62905714Y-118142904D01*
X62905714Y-118142904D02*
X62905714Y-118190523D01*
X62905714Y-118190523D02*
X62667619Y-118238142D01*
X63119999Y-118404809D02*
X63119999Y-118071476D01*
X63119999Y-118166714D02*
X63143809Y-118119095D01*
X63143809Y-118119095D02*
X63167618Y-118095285D01*
X63167618Y-118095285D02*
X63215237Y-118071476D01*
X63215237Y-118071476D02*
X63262856Y-118071476D01*
X63381904Y-118071476D02*
X63500952Y-118404809D01*
X63619999Y-118071476D02*
X63500952Y-118404809D01*
X63500952Y-118404809D02*
X63453333Y-118523857D01*
X63453333Y-118523857D02*
X63429523Y-118547666D01*
X63429523Y-118547666D02*
X63381904Y-118571476D01*
X88532809Y-104859522D02*
X88532809Y-105097617D01*
X88532809Y-105097617D02*
X88770904Y-105121426D01*
X88770904Y-105121426D02*
X88747095Y-105097617D01*
X88747095Y-105097617D02*
X88723285Y-105049998D01*
X88723285Y-105049998D02*
X88723285Y-104930950D01*
X88723285Y-104930950D02*
X88747095Y-104883331D01*
X88747095Y-104883331D02*
X88770904Y-104859522D01*
X88770904Y-104859522D02*
X88818523Y-104835712D01*
X88818523Y-104835712D02*
X88937571Y-104835712D01*
X88937571Y-104835712D02*
X88985190Y-104859522D01*
X88985190Y-104859522D02*
X89009000Y-104883331D01*
X89009000Y-104883331D02*
X89032809Y-104930950D01*
X89032809Y-104930950D02*
X89032809Y-105049998D01*
X89032809Y-105049998D02*
X89009000Y-105097617D01*
X89009000Y-105097617D02*
X88985190Y-105121426D01*
X88532809Y-104383332D02*
X88532809Y-104621427D01*
X88532809Y-104621427D02*
X88770904Y-104645236D01*
X88770904Y-104645236D02*
X88747095Y-104621427D01*
X88747095Y-104621427D02*
X88723285Y-104573808D01*
X88723285Y-104573808D02*
X88723285Y-104454760D01*
X88723285Y-104454760D02*
X88747095Y-104407141D01*
X88747095Y-104407141D02*
X88770904Y-104383332D01*
X88770904Y-104383332D02*
X88818523Y-104359522D01*
X88818523Y-104359522D02*
X88937571Y-104359522D01*
X88937571Y-104359522D02*
X88985190Y-104383332D01*
X88985190Y-104383332D02*
X89009000Y-104407141D01*
X89009000Y-104407141D02*
X89032809Y-104454760D01*
X89032809Y-104454760D02*
X89032809Y-104573808D01*
X89032809Y-104573808D02*
X89009000Y-104621427D01*
X89009000Y-104621427D02*
X88985190Y-104645236D01*
X88532809Y-103907142D02*
X88532809Y-104145237D01*
X88532809Y-104145237D02*
X88770904Y-104169046D01*
X88770904Y-104169046D02*
X88747095Y-104145237D01*
X88747095Y-104145237D02*
X88723285Y-104097618D01*
X88723285Y-104097618D02*
X88723285Y-103978570D01*
X88723285Y-103978570D02*
X88747095Y-103930951D01*
X88747095Y-103930951D02*
X88770904Y-103907142D01*
X88770904Y-103907142D02*
X88818523Y-103883332D01*
X88818523Y-103883332D02*
X88937571Y-103883332D01*
X88937571Y-103883332D02*
X88985190Y-103907142D01*
X88985190Y-103907142D02*
X89009000Y-103930951D01*
X89009000Y-103930951D02*
X89032809Y-103978570D01*
X89032809Y-103978570D02*
X89032809Y-104097618D01*
X89032809Y-104097618D02*
X89009000Y-104145237D01*
X89009000Y-104145237D02*
X88985190Y-104169046D01*
X88532809Y-103359523D02*
X88532809Y-103073809D01*
X89032809Y-103216666D02*
X88532809Y-103216666D01*
X89032809Y-102907143D02*
X88699476Y-102907143D01*
X88532809Y-102907143D02*
X88556619Y-102930952D01*
X88556619Y-102930952D02*
X88580428Y-102907143D01*
X88580428Y-102907143D02*
X88556619Y-102883333D01*
X88556619Y-102883333D02*
X88532809Y-102907143D01*
X88532809Y-102907143D02*
X88580428Y-102907143D01*
X89032809Y-102669048D02*
X88699476Y-102669048D01*
X88747095Y-102669048D02*
X88723285Y-102645238D01*
X88723285Y-102645238D02*
X88699476Y-102597619D01*
X88699476Y-102597619D02*
X88699476Y-102526191D01*
X88699476Y-102526191D02*
X88723285Y-102478572D01*
X88723285Y-102478572D02*
X88770904Y-102454762D01*
X88770904Y-102454762D02*
X89032809Y-102454762D01*
X88770904Y-102454762D02*
X88723285Y-102430953D01*
X88723285Y-102430953D02*
X88699476Y-102383334D01*
X88699476Y-102383334D02*
X88699476Y-102311905D01*
X88699476Y-102311905D02*
X88723285Y-102264286D01*
X88723285Y-102264286D02*
X88770904Y-102240476D01*
X88770904Y-102240476D02*
X89032809Y-102240476D01*
X89009000Y-101811905D02*
X89032809Y-101859524D01*
X89032809Y-101859524D02*
X89032809Y-101954762D01*
X89032809Y-101954762D02*
X89009000Y-102002381D01*
X89009000Y-102002381D02*
X88961380Y-102026190D01*
X88961380Y-102026190D02*
X88770904Y-102026190D01*
X88770904Y-102026190D02*
X88723285Y-102002381D01*
X88723285Y-102002381D02*
X88699476Y-101954762D01*
X88699476Y-101954762D02*
X88699476Y-101859524D01*
X88699476Y-101859524D02*
X88723285Y-101811905D01*
X88723285Y-101811905D02*
X88770904Y-101788095D01*
X88770904Y-101788095D02*
X88818523Y-101788095D01*
X88818523Y-101788095D02*
X88866142Y-102026190D01*
X89032809Y-101573810D02*
X88699476Y-101573810D01*
X88794714Y-101573810D02*
X88747095Y-101550000D01*
X88747095Y-101550000D02*
X88723285Y-101526191D01*
X88723285Y-101526191D02*
X88699476Y-101478572D01*
X88699476Y-101478572D02*
X88699476Y-101430953D01*
X88492809Y-100790952D02*
X88897571Y-100790952D01*
X88897571Y-100790952D02*
X88945190Y-100767142D01*
X88945190Y-100767142D02*
X88969000Y-100743333D01*
X88969000Y-100743333D02*
X88992809Y-100695714D01*
X88992809Y-100695714D02*
X88992809Y-100600476D01*
X88992809Y-100600476D02*
X88969000Y-100552857D01*
X88969000Y-100552857D02*
X88945190Y-100529047D01*
X88945190Y-100529047D02*
X88897571Y-100505238D01*
X88897571Y-100505238D02*
X88492809Y-100505238D01*
X88540428Y-100290951D02*
X88516619Y-100267142D01*
X88516619Y-100267142D02*
X88492809Y-100219523D01*
X88492809Y-100219523D02*
X88492809Y-100100475D01*
X88492809Y-100100475D02*
X88516619Y-100052856D01*
X88516619Y-100052856D02*
X88540428Y-100029047D01*
X88540428Y-100029047D02*
X88588047Y-100005237D01*
X88588047Y-100005237D02*
X88635666Y-100005237D01*
X88635666Y-100005237D02*
X88707095Y-100029047D01*
X88707095Y-100029047D02*
X88992809Y-100314761D01*
X88992809Y-100314761D02*
X88992809Y-100005237D01*
X36484809Y-75896666D02*
X36841952Y-75896666D01*
X36841952Y-75896666D02*
X36913380Y-75920475D01*
X36913380Y-75920475D02*
X36961000Y-75968094D01*
X36961000Y-75968094D02*
X36984809Y-76039523D01*
X36984809Y-76039523D02*
X36984809Y-76087142D01*
X36484809Y-75706190D02*
X36484809Y-75372857D01*
X36484809Y-75372857D02*
X36984809Y-75587142D01*
X36807190Y-74711905D02*
X36831000Y-74735714D01*
X36831000Y-74735714D02*
X36854809Y-74807143D01*
X36854809Y-74807143D02*
X36854809Y-74854762D01*
X36854809Y-74854762D02*
X36831000Y-74926190D01*
X36831000Y-74926190D02*
X36783380Y-74973809D01*
X36783380Y-74973809D02*
X36735761Y-74997619D01*
X36735761Y-74997619D02*
X36640523Y-75021428D01*
X36640523Y-75021428D02*
X36569095Y-75021428D01*
X36569095Y-75021428D02*
X36473857Y-74997619D01*
X36473857Y-74997619D02*
X36426238Y-74973809D01*
X36426238Y-74973809D02*
X36378619Y-74926190D01*
X36378619Y-74926190D02*
X36354809Y-74854762D01*
X36354809Y-74854762D02*
X36354809Y-74807143D01*
X36354809Y-74807143D02*
X36378619Y-74735714D01*
X36378619Y-74735714D02*
X36402428Y-74711905D01*
X36854809Y-74426190D02*
X36831000Y-74473809D01*
X36831000Y-74473809D02*
X36807190Y-74497619D01*
X36807190Y-74497619D02*
X36759571Y-74521428D01*
X36759571Y-74521428D02*
X36616714Y-74521428D01*
X36616714Y-74521428D02*
X36569095Y-74497619D01*
X36569095Y-74497619D02*
X36545285Y-74473809D01*
X36545285Y-74473809D02*
X36521476Y-74426190D01*
X36521476Y-74426190D02*
X36521476Y-74354762D01*
X36521476Y-74354762D02*
X36545285Y-74307143D01*
X36545285Y-74307143D02*
X36569095Y-74283333D01*
X36569095Y-74283333D02*
X36616714Y-74259524D01*
X36616714Y-74259524D02*
X36759571Y-74259524D01*
X36759571Y-74259524D02*
X36807190Y-74283333D01*
X36807190Y-74283333D02*
X36831000Y-74307143D01*
X36831000Y-74307143D02*
X36854809Y-74354762D01*
X36854809Y-74354762D02*
X36854809Y-74426190D01*
X36854809Y-74045238D02*
X36521476Y-74045238D01*
X36569095Y-74045238D02*
X36545285Y-74021428D01*
X36545285Y-74021428D02*
X36521476Y-73973809D01*
X36521476Y-73973809D02*
X36521476Y-73902381D01*
X36521476Y-73902381D02*
X36545285Y-73854762D01*
X36545285Y-73854762D02*
X36592904Y-73830952D01*
X36592904Y-73830952D02*
X36854809Y-73830952D01*
X36592904Y-73830952D02*
X36545285Y-73807143D01*
X36545285Y-73807143D02*
X36521476Y-73759524D01*
X36521476Y-73759524D02*
X36521476Y-73688095D01*
X36521476Y-73688095D02*
X36545285Y-73640476D01*
X36545285Y-73640476D02*
X36592904Y-73616666D01*
X36592904Y-73616666D02*
X36854809Y-73616666D01*
X36521476Y-73378571D02*
X37021476Y-73378571D01*
X36545285Y-73378571D02*
X36521476Y-73330952D01*
X36521476Y-73330952D02*
X36521476Y-73235714D01*
X36521476Y-73235714D02*
X36545285Y-73188095D01*
X36545285Y-73188095D02*
X36569095Y-73164285D01*
X36569095Y-73164285D02*
X36616714Y-73140476D01*
X36616714Y-73140476D02*
X36759571Y-73140476D01*
X36759571Y-73140476D02*
X36807190Y-73164285D01*
X36807190Y-73164285D02*
X36831000Y-73188095D01*
X36831000Y-73188095D02*
X36854809Y-73235714D01*
X36854809Y-73235714D02*
X36854809Y-73330952D01*
X36854809Y-73330952D02*
X36831000Y-73378571D01*
X36854809Y-72711904D02*
X36592904Y-72711904D01*
X36592904Y-72711904D02*
X36545285Y-72735714D01*
X36545285Y-72735714D02*
X36521476Y-72783333D01*
X36521476Y-72783333D02*
X36521476Y-72878571D01*
X36521476Y-72878571D02*
X36545285Y-72926190D01*
X36831000Y-72711904D02*
X36854809Y-72759523D01*
X36854809Y-72759523D02*
X36854809Y-72878571D01*
X36854809Y-72878571D02*
X36831000Y-72926190D01*
X36831000Y-72926190D02*
X36783380Y-72949999D01*
X36783380Y-72949999D02*
X36735761Y-72949999D01*
X36735761Y-72949999D02*
X36688142Y-72926190D01*
X36688142Y-72926190D02*
X36664333Y-72878571D01*
X36664333Y-72878571D02*
X36664333Y-72759523D01*
X36664333Y-72759523D02*
X36640523Y-72711904D01*
X36831000Y-72497618D02*
X36854809Y-72449999D01*
X36854809Y-72449999D02*
X36854809Y-72354761D01*
X36854809Y-72354761D02*
X36831000Y-72307142D01*
X36831000Y-72307142D02*
X36783380Y-72283333D01*
X36783380Y-72283333D02*
X36759571Y-72283333D01*
X36759571Y-72283333D02*
X36711952Y-72307142D01*
X36711952Y-72307142D02*
X36688142Y-72354761D01*
X36688142Y-72354761D02*
X36688142Y-72426190D01*
X36688142Y-72426190D02*
X36664333Y-72473809D01*
X36664333Y-72473809D02*
X36616714Y-72497618D01*
X36616714Y-72497618D02*
X36592904Y-72497618D01*
X36592904Y-72497618D02*
X36545285Y-72473809D01*
X36545285Y-72473809D02*
X36521476Y-72426190D01*
X36521476Y-72426190D02*
X36521476Y-72354761D01*
X36521476Y-72354761D02*
X36545285Y-72307142D01*
X36831000Y-72092856D02*
X36854809Y-72045237D01*
X36854809Y-72045237D02*
X36854809Y-71949999D01*
X36854809Y-71949999D02*
X36831000Y-71902380D01*
X36831000Y-71902380D02*
X36783380Y-71878571D01*
X36783380Y-71878571D02*
X36759571Y-71878571D01*
X36759571Y-71878571D02*
X36711952Y-71902380D01*
X36711952Y-71902380D02*
X36688142Y-71949999D01*
X36688142Y-71949999D02*
X36688142Y-72021428D01*
X36688142Y-72021428D02*
X36664333Y-72069047D01*
X36664333Y-72069047D02*
X36616714Y-72092856D01*
X36616714Y-72092856D02*
X36592904Y-72092856D01*
X36592904Y-72092856D02*
X36545285Y-72069047D01*
X36545285Y-72069047D02*
X36521476Y-72021428D01*
X36521476Y-72021428D02*
X36521476Y-71949999D01*
X36521476Y-71949999D02*
X36545285Y-71902380D01*
X75989047Y-116834809D02*
X75989047Y-117239571D01*
X75989047Y-117239571D02*
X76012857Y-117287190D01*
X76012857Y-117287190D02*
X76036666Y-117311000D01*
X76036666Y-117311000D02*
X76084285Y-117334809D01*
X76084285Y-117334809D02*
X76179523Y-117334809D01*
X76179523Y-117334809D02*
X76227142Y-117311000D01*
X76227142Y-117311000D02*
X76250952Y-117287190D01*
X76250952Y-117287190D02*
X76274761Y-117239571D01*
X76274761Y-117239571D02*
X76274761Y-116834809D01*
X76465238Y-116834809D02*
X76774762Y-116834809D01*
X76774762Y-116834809D02*
X76608095Y-117025285D01*
X76608095Y-117025285D02*
X76679524Y-117025285D01*
X76679524Y-117025285D02*
X76727143Y-117049095D01*
X76727143Y-117049095D02*
X76750952Y-117072904D01*
X76750952Y-117072904D02*
X76774762Y-117120523D01*
X76774762Y-117120523D02*
X76774762Y-117239571D01*
X76774762Y-117239571D02*
X76750952Y-117287190D01*
X76750952Y-117287190D02*
X76727143Y-117311000D01*
X76727143Y-117311000D02*
X76679524Y-117334809D01*
X76679524Y-117334809D02*
X76536667Y-117334809D01*
X76536667Y-117334809D02*
X76489048Y-117311000D01*
X76489048Y-117311000D02*
X76465238Y-117287190D01*
X76228096Y-115854809D02*
X75990001Y-115854809D01*
X75990001Y-115854809D02*
X75966192Y-116092904D01*
X75966192Y-116092904D02*
X75990001Y-116069095D01*
X75990001Y-116069095D02*
X76037620Y-116045285D01*
X76037620Y-116045285D02*
X76156668Y-116045285D01*
X76156668Y-116045285D02*
X76204287Y-116069095D01*
X76204287Y-116069095D02*
X76228096Y-116092904D01*
X76228096Y-116092904D02*
X76251906Y-116140523D01*
X76251906Y-116140523D02*
X76251906Y-116259571D01*
X76251906Y-116259571D02*
X76228096Y-116307190D01*
X76228096Y-116307190D02*
X76204287Y-116331000D01*
X76204287Y-116331000D02*
X76156668Y-116354809D01*
X76156668Y-116354809D02*
X76037620Y-116354809D01*
X76037620Y-116354809D02*
X75990001Y-116331000D01*
X75990001Y-116331000D02*
X75966192Y-116307190D01*
X76394763Y-115854809D02*
X76561429Y-116354809D01*
X76561429Y-116354809D02*
X76728096Y-115854809D01*
X77442381Y-116092904D02*
X77513809Y-116116714D01*
X77513809Y-116116714D02*
X77537619Y-116140523D01*
X77537619Y-116140523D02*
X77561428Y-116188142D01*
X77561428Y-116188142D02*
X77561428Y-116259571D01*
X77561428Y-116259571D02*
X77537619Y-116307190D01*
X77537619Y-116307190D02*
X77513809Y-116331000D01*
X77513809Y-116331000D02*
X77466190Y-116354809D01*
X77466190Y-116354809D02*
X77275714Y-116354809D01*
X77275714Y-116354809D02*
X77275714Y-115854809D01*
X77275714Y-115854809D02*
X77442381Y-115854809D01*
X77442381Y-115854809D02*
X77490000Y-115878619D01*
X77490000Y-115878619D02*
X77513809Y-115902428D01*
X77513809Y-115902428D02*
X77537619Y-115950047D01*
X77537619Y-115950047D02*
X77537619Y-115997666D01*
X77537619Y-115997666D02*
X77513809Y-116045285D01*
X77513809Y-116045285D02*
X77490000Y-116069095D01*
X77490000Y-116069095D02*
X77442381Y-116092904D01*
X77442381Y-116092904D02*
X77275714Y-116092904D01*
X77990000Y-116021476D02*
X77990000Y-116354809D01*
X77775714Y-116021476D02*
X77775714Y-116283380D01*
X77775714Y-116283380D02*
X77799524Y-116331000D01*
X77799524Y-116331000D02*
X77847143Y-116354809D01*
X77847143Y-116354809D02*
X77918571Y-116354809D01*
X77918571Y-116354809D02*
X77966190Y-116331000D01*
X77966190Y-116331000D02*
X77990000Y-116307190D01*
X78442381Y-116331000D02*
X78394762Y-116354809D01*
X78394762Y-116354809D02*
X78299524Y-116354809D01*
X78299524Y-116354809D02*
X78251905Y-116331000D01*
X78251905Y-116331000D02*
X78228095Y-116307190D01*
X78228095Y-116307190D02*
X78204286Y-116259571D01*
X78204286Y-116259571D02*
X78204286Y-116116714D01*
X78204286Y-116116714D02*
X78228095Y-116069095D01*
X78228095Y-116069095D02*
X78251905Y-116045285D01*
X78251905Y-116045285D02*
X78299524Y-116021476D01*
X78299524Y-116021476D02*
X78394762Y-116021476D01*
X78394762Y-116021476D02*
X78442381Y-116045285D01*
X78656666Y-116354809D02*
X78656666Y-115854809D01*
X78704285Y-116164333D02*
X78847142Y-116354809D01*
X78847142Y-116021476D02*
X78656666Y-116211952D01*
X79728094Y-116307190D02*
X79704285Y-116331000D01*
X79704285Y-116331000D02*
X79632856Y-116354809D01*
X79632856Y-116354809D02*
X79585237Y-116354809D01*
X79585237Y-116354809D02*
X79513809Y-116331000D01*
X79513809Y-116331000D02*
X79466190Y-116283380D01*
X79466190Y-116283380D02*
X79442380Y-116235761D01*
X79442380Y-116235761D02*
X79418571Y-116140523D01*
X79418571Y-116140523D02*
X79418571Y-116069095D01*
X79418571Y-116069095D02*
X79442380Y-115973857D01*
X79442380Y-115973857D02*
X79466190Y-115926238D01*
X79466190Y-115926238D02*
X79513809Y-115878619D01*
X79513809Y-115878619D02*
X79585237Y-115854809D01*
X79585237Y-115854809D02*
X79632856Y-115854809D01*
X79632856Y-115854809D02*
X79704285Y-115878619D01*
X79704285Y-115878619D02*
X79728094Y-115902428D01*
X80013809Y-116354809D02*
X79966190Y-116331000D01*
X79966190Y-116331000D02*
X79942380Y-116307190D01*
X79942380Y-116307190D02*
X79918571Y-116259571D01*
X79918571Y-116259571D02*
X79918571Y-116116714D01*
X79918571Y-116116714D02*
X79942380Y-116069095D01*
X79942380Y-116069095D02*
X79966190Y-116045285D01*
X79966190Y-116045285D02*
X80013809Y-116021476D01*
X80013809Y-116021476D02*
X80085237Y-116021476D01*
X80085237Y-116021476D02*
X80132856Y-116045285D01*
X80132856Y-116045285D02*
X80156666Y-116069095D01*
X80156666Y-116069095D02*
X80180475Y-116116714D01*
X80180475Y-116116714D02*
X80180475Y-116259571D01*
X80180475Y-116259571D02*
X80156666Y-116307190D01*
X80156666Y-116307190D02*
X80132856Y-116331000D01*
X80132856Y-116331000D02*
X80085237Y-116354809D01*
X80085237Y-116354809D02*
X80013809Y-116354809D01*
X80394761Y-116021476D02*
X80394761Y-116354809D01*
X80394761Y-116069095D02*
X80418571Y-116045285D01*
X80418571Y-116045285D02*
X80466190Y-116021476D01*
X80466190Y-116021476D02*
X80537618Y-116021476D01*
X80537618Y-116021476D02*
X80585237Y-116045285D01*
X80585237Y-116045285D02*
X80609047Y-116092904D01*
X80609047Y-116092904D02*
X80609047Y-116354809D01*
X80799523Y-116021476D02*
X80918571Y-116354809D01*
X80918571Y-116354809D02*
X81037618Y-116021476D01*
X37833333Y-80164809D02*
X37833333Y-80521952D01*
X37833333Y-80521952D02*
X37809524Y-80593380D01*
X37809524Y-80593380D02*
X37761905Y-80641000D01*
X37761905Y-80641000D02*
X37690476Y-80664809D01*
X37690476Y-80664809D02*
X37642857Y-80664809D01*
X38333333Y-80664809D02*
X38047619Y-80664809D01*
X38190476Y-80664809D02*
X38190476Y-80164809D01*
X38190476Y-80164809D02*
X38142857Y-80236238D01*
X38142857Y-80236238D02*
X38095238Y-80283857D01*
X38095238Y-80283857D02*
X38047619Y-80307666D01*
X39042382Y-80704809D02*
X39042382Y-80204809D01*
X39042382Y-80204809D02*
X39232858Y-80204809D01*
X39232858Y-80204809D02*
X39280477Y-80228619D01*
X39280477Y-80228619D02*
X39304287Y-80252428D01*
X39304287Y-80252428D02*
X39328096Y-80300047D01*
X39328096Y-80300047D02*
X39328096Y-80371476D01*
X39328096Y-80371476D02*
X39304287Y-80419095D01*
X39304287Y-80419095D02*
X39280477Y-80442904D01*
X39280477Y-80442904D02*
X39232858Y-80466714D01*
X39232858Y-80466714D02*
X39042382Y-80466714D01*
X39542382Y-80704809D02*
X39542382Y-80371476D01*
X39542382Y-80204809D02*
X39518573Y-80228619D01*
X39518573Y-80228619D02*
X39542382Y-80252428D01*
X39542382Y-80252428D02*
X39566192Y-80228619D01*
X39566192Y-80228619D02*
X39542382Y-80204809D01*
X39542382Y-80204809D02*
X39542382Y-80252428D01*
X39994763Y-80681000D02*
X39947144Y-80704809D01*
X39947144Y-80704809D02*
X39851906Y-80704809D01*
X39851906Y-80704809D02*
X39804287Y-80681000D01*
X39804287Y-80681000D02*
X39780477Y-80657190D01*
X39780477Y-80657190D02*
X39756668Y-80609571D01*
X39756668Y-80609571D02*
X39756668Y-80466714D01*
X39756668Y-80466714D02*
X39780477Y-80419095D01*
X39780477Y-80419095D02*
X39804287Y-80395285D01*
X39804287Y-80395285D02*
X39851906Y-80371476D01*
X39851906Y-80371476D02*
X39947144Y-80371476D01*
X39947144Y-80371476D02*
X39994763Y-80395285D01*
X40280477Y-80704809D02*
X40232858Y-80681000D01*
X40232858Y-80681000D02*
X40209048Y-80657190D01*
X40209048Y-80657190D02*
X40185239Y-80609571D01*
X40185239Y-80609571D02*
X40185239Y-80466714D01*
X40185239Y-80466714D02*
X40209048Y-80419095D01*
X40209048Y-80419095D02*
X40232858Y-80395285D01*
X40232858Y-80395285D02*
X40280477Y-80371476D01*
X40280477Y-80371476D02*
X40351905Y-80371476D01*
X40351905Y-80371476D02*
X40399524Y-80395285D01*
X40399524Y-80395285D02*
X40423334Y-80419095D01*
X40423334Y-80419095D02*
X40447143Y-80466714D01*
X40447143Y-80466714D02*
X40447143Y-80609571D01*
X40447143Y-80609571D02*
X40423334Y-80657190D01*
X40423334Y-80657190D02*
X40399524Y-80681000D01*
X40399524Y-80681000D02*
X40351905Y-80704809D01*
X40351905Y-80704809D02*
X40280477Y-80704809D01*
X41018572Y-80681000D02*
X41090000Y-80704809D01*
X41090000Y-80704809D02*
X41209048Y-80704809D01*
X41209048Y-80704809D02*
X41256667Y-80681000D01*
X41256667Y-80681000D02*
X41280476Y-80657190D01*
X41280476Y-80657190D02*
X41304286Y-80609571D01*
X41304286Y-80609571D02*
X41304286Y-80561952D01*
X41304286Y-80561952D02*
X41280476Y-80514333D01*
X41280476Y-80514333D02*
X41256667Y-80490523D01*
X41256667Y-80490523D02*
X41209048Y-80466714D01*
X41209048Y-80466714D02*
X41113810Y-80442904D01*
X41113810Y-80442904D02*
X41066191Y-80419095D01*
X41066191Y-80419095D02*
X41042381Y-80395285D01*
X41042381Y-80395285D02*
X41018572Y-80347666D01*
X41018572Y-80347666D02*
X41018572Y-80300047D01*
X41018572Y-80300047D02*
X41042381Y-80252428D01*
X41042381Y-80252428D02*
X41066191Y-80228619D01*
X41066191Y-80228619D02*
X41113810Y-80204809D01*
X41113810Y-80204809D02*
X41232857Y-80204809D01*
X41232857Y-80204809D02*
X41304286Y-80228619D01*
X41590000Y-80704809D02*
X41542381Y-80681000D01*
X41542381Y-80681000D02*
X41518571Y-80657190D01*
X41518571Y-80657190D02*
X41494762Y-80609571D01*
X41494762Y-80609571D02*
X41494762Y-80466714D01*
X41494762Y-80466714D02*
X41518571Y-80419095D01*
X41518571Y-80419095D02*
X41542381Y-80395285D01*
X41542381Y-80395285D02*
X41590000Y-80371476D01*
X41590000Y-80371476D02*
X41661428Y-80371476D01*
X41661428Y-80371476D02*
X41709047Y-80395285D01*
X41709047Y-80395285D02*
X41732857Y-80419095D01*
X41732857Y-80419095D02*
X41756666Y-80466714D01*
X41756666Y-80466714D02*
X41756666Y-80609571D01*
X41756666Y-80609571D02*
X41732857Y-80657190D01*
X41732857Y-80657190D02*
X41709047Y-80681000D01*
X41709047Y-80681000D02*
X41661428Y-80704809D01*
X41661428Y-80704809D02*
X41590000Y-80704809D01*
X42185238Y-80681000D02*
X42137619Y-80704809D01*
X42137619Y-80704809D02*
X42042381Y-80704809D01*
X42042381Y-80704809D02*
X41994762Y-80681000D01*
X41994762Y-80681000D02*
X41970952Y-80657190D01*
X41970952Y-80657190D02*
X41947143Y-80609571D01*
X41947143Y-80609571D02*
X41947143Y-80466714D01*
X41947143Y-80466714D02*
X41970952Y-80419095D01*
X41970952Y-80419095D02*
X41994762Y-80395285D01*
X41994762Y-80395285D02*
X42042381Y-80371476D01*
X42042381Y-80371476D02*
X42137619Y-80371476D01*
X42137619Y-80371476D02*
X42185238Y-80395285D01*
X42399523Y-80704809D02*
X42399523Y-80204809D01*
X42447142Y-80514333D02*
X42589999Y-80704809D01*
X42589999Y-80371476D02*
X42399523Y-80561952D01*
X42994761Y-80681000D02*
X42947142Y-80704809D01*
X42947142Y-80704809D02*
X42851904Y-80704809D01*
X42851904Y-80704809D02*
X42804285Y-80681000D01*
X42804285Y-80681000D02*
X42780476Y-80633380D01*
X42780476Y-80633380D02*
X42780476Y-80442904D01*
X42780476Y-80442904D02*
X42804285Y-80395285D01*
X42804285Y-80395285D02*
X42851904Y-80371476D01*
X42851904Y-80371476D02*
X42947142Y-80371476D01*
X42947142Y-80371476D02*
X42994761Y-80395285D01*
X42994761Y-80395285D02*
X43018571Y-80442904D01*
X43018571Y-80442904D02*
X43018571Y-80490523D01*
X43018571Y-80490523D02*
X42780476Y-80538142D01*
X43161428Y-80371476D02*
X43351904Y-80371476D01*
X43232856Y-80204809D02*
X43232856Y-80633380D01*
X43232856Y-80633380D02*
X43256666Y-80681000D01*
X43256666Y-80681000D02*
X43304285Y-80704809D01*
X43304285Y-80704809D02*
X43351904Y-80704809D01*
X44161427Y-80704809D02*
X43875713Y-80704809D01*
X44018570Y-80704809D02*
X44018570Y-80204809D01*
X44018570Y-80204809D02*
X43970951Y-80276238D01*
X43970951Y-80276238D02*
X43923332Y-80323857D01*
X43923332Y-80323857D02*
X43875713Y-80347666D01*
X39296666Y-99177190D02*
X39272857Y-99201000D01*
X39272857Y-99201000D02*
X39201428Y-99224809D01*
X39201428Y-99224809D02*
X39153809Y-99224809D01*
X39153809Y-99224809D02*
X39082381Y-99201000D01*
X39082381Y-99201000D02*
X39034762Y-99153380D01*
X39034762Y-99153380D02*
X39010952Y-99105761D01*
X39010952Y-99105761D02*
X38987143Y-99010523D01*
X38987143Y-99010523D02*
X38987143Y-98939095D01*
X38987143Y-98939095D02*
X39010952Y-98843857D01*
X39010952Y-98843857D02*
X39034762Y-98796238D01*
X39034762Y-98796238D02*
X39082381Y-98748619D01*
X39082381Y-98748619D02*
X39153809Y-98724809D01*
X39153809Y-98724809D02*
X39201428Y-98724809D01*
X39201428Y-98724809D02*
X39272857Y-98748619D01*
X39272857Y-98748619D02*
X39296666Y-98772428D01*
X39749047Y-98724809D02*
X39510952Y-98724809D01*
X39510952Y-98724809D02*
X39487143Y-98962904D01*
X39487143Y-98962904D02*
X39510952Y-98939095D01*
X39510952Y-98939095D02*
X39558571Y-98915285D01*
X39558571Y-98915285D02*
X39677619Y-98915285D01*
X39677619Y-98915285D02*
X39725238Y-98939095D01*
X39725238Y-98939095D02*
X39749047Y-98962904D01*
X39749047Y-98962904D02*
X39772857Y-99010523D01*
X39772857Y-99010523D02*
X39772857Y-99129571D01*
X39772857Y-99129571D02*
X39749047Y-99177190D01*
X39749047Y-99177190D02*
X39725238Y-99201000D01*
X39725238Y-99201000D02*
X39677619Y-99224809D01*
X39677619Y-99224809D02*
X39558571Y-99224809D01*
X39558571Y-99224809D02*
X39510952Y-99201000D01*
X39510952Y-99201000D02*
X39487143Y-99177190D01*
X41430477Y-98684809D02*
X41478096Y-98684809D01*
X41478096Y-98684809D02*
X41525715Y-98708619D01*
X41525715Y-98708619D02*
X41549525Y-98732428D01*
X41549525Y-98732428D02*
X41573334Y-98780047D01*
X41573334Y-98780047D02*
X41597144Y-98875285D01*
X41597144Y-98875285D02*
X41597144Y-98994333D01*
X41597144Y-98994333D02*
X41573334Y-99089571D01*
X41573334Y-99089571D02*
X41549525Y-99137190D01*
X41549525Y-99137190D02*
X41525715Y-99161000D01*
X41525715Y-99161000D02*
X41478096Y-99184809D01*
X41478096Y-99184809D02*
X41430477Y-99184809D01*
X41430477Y-99184809D02*
X41382858Y-99161000D01*
X41382858Y-99161000D02*
X41359049Y-99137190D01*
X41359049Y-99137190D02*
X41335239Y-99089571D01*
X41335239Y-99089571D02*
X41311430Y-98994333D01*
X41311430Y-98994333D02*
X41311430Y-98875285D01*
X41311430Y-98875285D02*
X41335239Y-98780047D01*
X41335239Y-98780047D02*
X41359049Y-98732428D01*
X41359049Y-98732428D02*
X41382858Y-98708619D01*
X41382858Y-98708619D02*
X41430477Y-98684809D01*
X41811429Y-99137190D02*
X41835239Y-99161000D01*
X41835239Y-99161000D02*
X41811429Y-99184809D01*
X41811429Y-99184809D02*
X41787620Y-99161000D01*
X41787620Y-99161000D02*
X41811429Y-99137190D01*
X41811429Y-99137190D02*
X41811429Y-99184809D01*
X42263810Y-98851476D02*
X42263810Y-99184809D01*
X42144762Y-98661000D02*
X42025715Y-99018142D01*
X42025715Y-99018142D02*
X42335238Y-99018142D01*
X42478095Y-98684809D02*
X42811428Y-98684809D01*
X42811428Y-98684809D02*
X42597143Y-99184809D01*
X43216190Y-98851476D02*
X43216190Y-99184809D01*
X43001904Y-98851476D02*
X43001904Y-99113380D01*
X43001904Y-99113380D02*
X43025714Y-99161000D01*
X43025714Y-99161000D02*
X43073333Y-99184809D01*
X43073333Y-99184809D02*
X43144761Y-99184809D01*
X43144761Y-99184809D02*
X43192380Y-99161000D01*
X43192380Y-99161000D02*
X43216190Y-99137190D01*
X43620952Y-98922904D02*
X43454285Y-98922904D01*
X43454285Y-99184809D02*
X43454285Y-98684809D01*
X43454285Y-98684809D02*
X43692380Y-98684809D01*
X46554809Y-118493332D02*
X46554809Y-118779046D01*
X46554809Y-118636189D02*
X46054809Y-118636189D01*
X46054809Y-118636189D02*
X46126238Y-118683808D01*
X46126238Y-118683808D02*
X46173857Y-118731427D01*
X46173857Y-118731427D02*
X46197666Y-118779046D01*
X46054809Y-118183809D02*
X46054809Y-118136190D01*
X46054809Y-118136190D02*
X46078619Y-118088571D01*
X46078619Y-118088571D02*
X46102428Y-118064761D01*
X46102428Y-118064761D02*
X46150047Y-118040952D01*
X46150047Y-118040952D02*
X46245285Y-118017142D01*
X46245285Y-118017142D02*
X46364333Y-118017142D01*
X46364333Y-118017142D02*
X46459571Y-118040952D01*
X46459571Y-118040952D02*
X46507190Y-118064761D01*
X46507190Y-118064761D02*
X46531000Y-118088571D01*
X46531000Y-118088571D02*
X46554809Y-118136190D01*
X46554809Y-118136190D02*
X46554809Y-118183809D01*
X46554809Y-118183809D02*
X46531000Y-118231428D01*
X46531000Y-118231428D02*
X46507190Y-118255237D01*
X46507190Y-118255237D02*
X46459571Y-118279047D01*
X46459571Y-118279047D02*
X46364333Y-118302856D01*
X46364333Y-118302856D02*
X46245285Y-118302856D01*
X46245285Y-118302856D02*
X46150047Y-118279047D01*
X46150047Y-118279047D02*
X46102428Y-118255237D01*
X46102428Y-118255237D02*
X46078619Y-118231428D01*
X46078619Y-118231428D02*
X46054809Y-118183809D01*
X46054809Y-117707619D02*
X46054809Y-117660000D01*
X46054809Y-117660000D02*
X46078619Y-117612381D01*
X46078619Y-117612381D02*
X46102428Y-117588571D01*
X46102428Y-117588571D02*
X46150047Y-117564762D01*
X46150047Y-117564762D02*
X46245285Y-117540952D01*
X46245285Y-117540952D02*
X46364333Y-117540952D01*
X46364333Y-117540952D02*
X46459571Y-117564762D01*
X46459571Y-117564762D02*
X46507190Y-117588571D01*
X46507190Y-117588571D02*
X46531000Y-117612381D01*
X46531000Y-117612381D02*
X46554809Y-117660000D01*
X46554809Y-117660000D02*
X46554809Y-117707619D01*
X46554809Y-117707619D02*
X46531000Y-117755238D01*
X46531000Y-117755238D02*
X46507190Y-117779047D01*
X46507190Y-117779047D02*
X46459571Y-117802857D01*
X46459571Y-117802857D02*
X46364333Y-117826666D01*
X46364333Y-117826666D02*
X46245285Y-117826666D01*
X46245285Y-117826666D02*
X46150047Y-117802857D01*
X46150047Y-117802857D02*
X46102428Y-117779047D01*
X46102428Y-117779047D02*
X46078619Y-117755238D01*
X46078619Y-117755238D02*
X46054809Y-117707619D01*
X46554809Y-117326667D02*
X46054809Y-117326667D01*
X46554809Y-117040953D02*
X46269095Y-117255238D01*
X46054809Y-117040953D02*
X46340523Y-117326667D01*
X46574809Y-119423333D02*
X46336714Y-119589999D01*
X46574809Y-119709047D02*
X46074809Y-119709047D01*
X46074809Y-119709047D02*
X46074809Y-119518571D01*
X46074809Y-119518571D02*
X46098619Y-119470952D01*
X46098619Y-119470952D02*
X46122428Y-119447142D01*
X46122428Y-119447142D02*
X46170047Y-119423333D01*
X46170047Y-119423333D02*
X46241476Y-119423333D01*
X46241476Y-119423333D02*
X46289095Y-119447142D01*
X46289095Y-119447142D02*
X46312904Y-119470952D01*
X46312904Y-119470952D02*
X46336714Y-119518571D01*
X46336714Y-119518571D02*
X46336714Y-119709047D01*
X46574809Y-118947142D02*
X46574809Y-119232856D01*
X46574809Y-119089999D02*
X46074809Y-119089999D01*
X46074809Y-119089999D02*
X46146238Y-119137618D01*
X46146238Y-119137618D02*
X46193857Y-119185237D01*
X46193857Y-119185237D02*
X46217666Y-119232856D01*
X68166666Y-111237190D02*
X68142857Y-111261000D01*
X68142857Y-111261000D02*
X68071428Y-111284809D01*
X68071428Y-111284809D02*
X68023809Y-111284809D01*
X68023809Y-111284809D02*
X67952381Y-111261000D01*
X67952381Y-111261000D02*
X67904762Y-111213380D01*
X67904762Y-111213380D02*
X67880952Y-111165761D01*
X67880952Y-111165761D02*
X67857143Y-111070523D01*
X67857143Y-111070523D02*
X67857143Y-110999095D01*
X67857143Y-110999095D02*
X67880952Y-110903857D01*
X67880952Y-110903857D02*
X67904762Y-110856238D01*
X67904762Y-110856238D02*
X67952381Y-110808619D01*
X67952381Y-110808619D02*
X68023809Y-110784809D01*
X68023809Y-110784809D02*
X68071428Y-110784809D01*
X68071428Y-110784809D02*
X68142857Y-110808619D01*
X68142857Y-110808619D02*
X68166666Y-110832428D01*
X68595238Y-110784809D02*
X68500000Y-110784809D01*
X68500000Y-110784809D02*
X68452381Y-110808619D01*
X68452381Y-110808619D02*
X68428571Y-110832428D01*
X68428571Y-110832428D02*
X68380952Y-110903857D01*
X68380952Y-110903857D02*
X68357143Y-110999095D01*
X68357143Y-110999095D02*
X68357143Y-111189571D01*
X68357143Y-111189571D02*
X68380952Y-111237190D01*
X68380952Y-111237190D02*
X68404762Y-111261000D01*
X68404762Y-111261000D02*
X68452381Y-111284809D01*
X68452381Y-111284809D02*
X68547619Y-111284809D01*
X68547619Y-111284809D02*
X68595238Y-111261000D01*
X68595238Y-111261000D02*
X68619047Y-111237190D01*
X68619047Y-111237190D02*
X68642857Y-111189571D01*
X68642857Y-111189571D02*
X68642857Y-111070523D01*
X68642857Y-111070523D02*
X68619047Y-111022904D01*
X68619047Y-111022904D02*
X68595238Y-110999095D01*
X68595238Y-110999095D02*
X68547619Y-110975285D01*
X68547619Y-110975285D02*
X68452381Y-110975285D01*
X68452381Y-110975285D02*
X68404762Y-110999095D01*
X68404762Y-110999095D02*
X68380952Y-111022904D01*
X68380952Y-111022904D02*
X68357143Y-111070523D01*
X71528572Y-110814809D02*
X71576191Y-110814809D01*
X71576191Y-110814809D02*
X71623810Y-110838619D01*
X71623810Y-110838619D02*
X71647620Y-110862428D01*
X71647620Y-110862428D02*
X71671429Y-110910047D01*
X71671429Y-110910047D02*
X71695239Y-111005285D01*
X71695239Y-111005285D02*
X71695239Y-111124333D01*
X71695239Y-111124333D02*
X71671429Y-111219571D01*
X71671429Y-111219571D02*
X71647620Y-111267190D01*
X71647620Y-111267190D02*
X71623810Y-111291000D01*
X71623810Y-111291000D02*
X71576191Y-111314809D01*
X71576191Y-111314809D02*
X71528572Y-111314809D01*
X71528572Y-111314809D02*
X71480953Y-111291000D01*
X71480953Y-111291000D02*
X71457144Y-111267190D01*
X71457144Y-111267190D02*
X71433334Y-111219571D01*
X71433334Y-111219571D02*
X71409525Y-111124333D01*
X71409525Y-111124333D02*
X71409525Y-111005285D01*
X71409525Y-111005285D02*
X71433334Y-110910047D01*
X71433334Y-110910047D02*
X71457144Y-110862428D01*
X71457144Y-110862428D02*
X71480953Y-110838619D01*
X71480953Y-110838619D02*
X71528572Y-110814809D01*
X71909524Y-111267190D02*
X71933334Y-111291000D01*
X71933334Y-111291000D02*
X71909524Y-111314809D01*
X71909524Y-111314809D02*
X71885715Y-111291000D01*
X71885715Y-111291000D02*
X71909524Y-111267190D01*
X71909524Y-111267190D02*
X71909524Y-111314809D01*
X72409524Y-111314809D02*
X72123810Y-111314809D01*
X72266667Y-111314809D02*
X72266667Y-110814809D01*
X72266667Y-110814809D02*
X72219048Y-110886238D01*
X72219048Y-110886238D02*
X72171429Y-110933857D01*
X72171429Y-110933857D02*
X72123810Y-110957666D01*
X72838095Y-110981476D02*
X72838095Y-111314809D01*
X72623809Y-110981476D02*
X72623809Y-111243380D01*
X72623809Y-111243380D02*
X72647619Y-111291000D01*
X72647619Y-111291000D02*
X72695238Y-111314809D01*
X72695238Y-111314809D02*
X72766666Y-111314809D01*
X72766666Y-111314809D02*
X72814285Y-111291000D01*
X72814285Y-111291000D02*
X72838095Y-111267190D01*
X73242857Y-111052904D02*
X73076190Y-111052904D01*
X73076190Y-111314809D02*
X73076190Y-110814809D01*
X73076190Y-110814809D02*
X73314285Y-110814809D01*
X51216666Y-116194809D02*
X51050000Y-115956714D01*
X50930952Y-116194809D02*
X50930952Y-115694809D01*
X50930952Y-115694809D02*
X51121428Y-115694809D01*
X51121428Y-115694809D02*
X51169047Y-115718619D01*
X51169047Y-115718619D02*
X51192857Y-115742428D01*
X51192857Y-115742428D02*
X51216666Y-115790047D01*
X51216666Y-115790047D02*
X51216666Y-115861476D01*
X51216666Y-115861476D02*
X51192857Y-115909095D01*
X51192857Y-115909095D02*
X51169047Y-115932904D01*
X51169047Y-115932904D02*
X51121428Y-115956714D01*
X51121428Y-115956714D02*
X50930952Y-115956714D01*
X51407143Y-115742428D02*
X51430952Y-115718619D01*
X51430952Y-115718619D02*
X51478571Y-115694809D01*
X51478571Y-115694809D02*
X51597619Y-115694809D01*
X51597619Y-115694809D02*
X51645238Y-115718619D01*
X51645238Y-115718619D02*
X51669047Y-115742428D01*
X51669047Y-115742428D02*
X51692857Y-115790047D01*
X51692857Y-115790047D02*
X51692857Y-115837666D01*
X51692857Y-115837666D02*
X51669047Y-115909095D01*
X51669047Y-115909095D02*
X51383333Y-116194809D01*
X51383333Y-116194809D02*
X51692857Y-116194809D01*
X52644762Y-116174809D02*
X52359048Y-116174809D01*
X52501905Y-116174809D02*
X52501905Y-115674809D01*
X52501905Y-115674809D02*
X52454286Y-115746238D01*
X52454286Y-115746238D02*
X52406667Y-115793857D01*
X52406667Y-115793857D02*
X52359048Y-115817666D01*
X52954285Y-115674809D02*
X53001904Y-115674809D01*
X53001904Y-115674809D02*
X53049523Y-115698619D01*
X53049523Y-115698619D02*
X53073333Y-115722428D01*
X53073333Y-115722428D02*
X53097142Y-115770047D01*
X53097142Y-115770047D02*
X53120952Y-115865285D01*
X53120952Y-115865285D02*
X53120952Y-115984333D01*
X53120952Y-115984333D02*
X53097142Y-116079571D01*
X53097142Y-116079571D02*
X53073333Y-116127190D01*
X53073333Y-116127190D02*
X53049523Y-116151000D01*
X53049523Y-116151000D02*
X53001904Y-116174809D01*
X53001904Y-116174809D02*
X52954285Y-116174809D01*
X52954285Y-116174809D02*
X52906666Y-116151000D01*
X52906666Y-116151000D02*
X52882857Y-116127190D01*
X52882857Y-116127190D02*
X52859047Y-116079571D01*
X52859047Y-116079571D02*
X52835238Y-115984333D01*
X52835238Y-115984333D02*
X52835238Y-115865285D01*
X52835238Y-115865285D02*
X52859047Y-115770047D01*
X52859047Y-115770047D02*
X52882857Y-115722428D01*
X52882857Y-115722428D02*
X52906666Y-115698619D01*
X52906666Y-115698619D02*
X52954285Y-115674809D01*
X53335237Y-116174809D02*
X53335237Y-115674809D01*
X53620951Y-116174809D02*
X53406666Y-115889095D01*
X53620951Y-115674809D02*
X53335237Y-115960523D01*
X46624809Y-122103333D02*
X46386714Y-122269999D01*
X46624809Y-122389047D02*
X46124809Y-122389047D01*
X46124809Y-122389047D02*
X46124809Y-122198571D01*
X46124809Y-122198571D02*
X46148619Y-122150952D01*
X46148619Y-122150952D02*
X46172428Y-122127142D01*
X46172428Y-122127142D02*
X46220047Y-122103333D01*
X46220047Y-122103333D02*
X46291476Y-122103333D01*
X46291476Y-122103333D02*
X46339095Y-122127142D01*
X46339095Y-122127142D02*
X46362904Y-122150952D01*
X46362904Y-122150952D02*
X46386714Y-122198571D01*
X46386714Y-122198571D02*
X46386714Y-122389047D01*
X46124809Y-121936666D02*
X46124809Y-121627142D01*
X46124809Y-121627142D02*
X46315285Y-121793809D01*
X46315285Y-121793809D02*
X46315285Y-121722380D01*
X46315285Y-121722380D02*
X46339095Y-121674761D01*
X46339095Y-121674761D02*
X46362904Y-121650952D01*
X46362904Y-121650952D02*
X46410523Y-121627142D01*
X46410523Y-121627142D02*
X46529571Y-121627142D01*
X46529571Y-121627142D02*
X46577190Y-121650952D01*
X46577190Y-121650952D02*
X46601000Y-121674761D01*
X46601000Y-121674761D02*
X46624809Y-121722380D01*
X46624809Y-121722380D02*
X46624809Y-121865237D01*
X46624809Y-121865237D02*
X46601000Y-121912856D01*
X46601000Y-121912856D02*
X46577190Y-121936666D01*
X46564809Y-121175237D02*
X46564809Y-121460951D01*
X46564809Y-121318094D02*
X46064809Y-121318094D01*
X46064809Y-121318094D02*
X46136238Y-121365713D01*
X46136238Y-121365713D02*
X46183857Y-121413332D01*
X46183857Y-121413332D02*
X46207666Y-121460951D01*
X46064809Y-120865714D02*
X46064809Y-120818095D01*
X46064809Y-120818095D02*
X46088619Y-120770476D01*
X46088619Y-120770476D02*
X46112428Y-120746666D01*
X46112428Y-120746666D02*
X46160047Y-120722857D01*
X46160047Y-120722857D02*
X46255285Y-120699047D01*
X46255285Y-120699047D02*
X46374333Y-120699047D01*
X46374333Y-120699047D02*
X46469571Y-120722857D01*
X46469571Y-120722857D02*
X46517190Y-120746666D01*
X46517190Y-120746666D02*
X46541000Y-120770476D01*
X46541000Y-120770476D02*
X46564809Y-120818095D01*
X46564809Y-120818095D02*
X46564809Y-120865714D01*
X46564809Y-120865714D02*
X46541000Y-120913333D01*
X46541000Y-120913333D02*
X46517190Y-120937142D01*
X46517190Y-120937142D02*
X46469571Y-120960952D01*
X46469571Y-120960952D02*
X46374333Y-120984761D01*
X46374333Y-120984761D02*
X46255285Y-120984761D01*
X46255285Y-120984761D02*
X46160047Y-120960952D01*
X46160047Y-120960952D02*
X46112428Y-120937142D01*
X46112428Y-120937142D02*
X46088619Y-120913333D01*
X46088619Y-120913333D02*
X46064809Y-120865714D01*
X46564809Y-120484762D02*
X46064809Y-120484762D01*
X46564809Y-120199048D02*
X46279095Y-120413333D01*
X46064809Y-120199048D02*
X46350523Y-120484762D01*
X75187143Y-122812904D02*
X75258571Y-122836714D01*
X75258571Y-122836714D02*
X75282381Y-122860523D01*
X75282381Y-122860523D02*
X75306190Y-122908142D01*
X75306190Y-122908142D02*
X75306190Y-122979571D01*
X75306190Y-122979571D02*
X75282381Y-123027190D01*
X75282381Y-123027190D02*
X75258571Y-123051000D01*
X75258571Y-123051000D02*
X75210952Y-123074809D01*
X75210952Y-123074809D02*
X75020476Y-123074809D01*
X75020476Y-123074809D02*
X75020476Y-122574809D01*
X75020476Y-122574809D02*
X75187143Y-122574809D01*
X75187143Y-122574809D02*
X75234762Y-122598619D01*
X75234762Y-122598619D02*
X75258571Y-122622428D01*
X75258571Y-122622428D02*
X75282381Y-122670047D01*
X75282381Y-122670047D02*
X75282381Y-122717666D01*
X75282381Y-122717666D02*
X75258571Y-122765285D01*
X75258571Y-122765285D02*
X75234762Y-122789095D01*
X75234762Y-122789095D02*
X75187143Y-122812904D01*
X75187143Y-122812904D02*
X75020476Y-122812904D01*
X75449048Y-122574809D02*
X75734762Y-122574809D01*
X75591905Y-123074809D02*
X75591905Y-122574809D01*
X75877619Y-122622428D02*
X75901428Y-122598619D01*
X75901428Y-122598619D02*
X75949047Y-122574809D01*
X75949047Y-122574809D02*
X76068095Y-122574809D01*
X76068095Y-122574809D02*
X76115714Y-122598619D01*
X76115714Y-122598619D02*
X76139523Y-122622428D01*
X76139523Y-122622428D02*
X76163333Y-122670047D01*
X76163333Y-122670047D02*
X76163333Y-122717666D01*
X76163333Y-122717666D02*
X76139523Y-122789095D01*
X76139523Y-122789095D02*
X75853809Y-123074809D01*
X75853809Y-123074809D02*
X76163333Y-123074809D01*
X75194286Y-123612904D02*
X75265714Y-123636714D01*
X75265714Y-123636714D02*
X75289524Y-123660523D01*
X75289524Y-123660523D02*
X75313333Y-123708142D01*
X75313333Y-123708142D02*
X75313333Y-123779571D01*
X75313333Y-123779571D02*
X75289524Y-123827190D01*
X75289524Y-123827190D02*
X75265714Y-123851000D01*
X75265714Y-123851000D02*
X75218095Y-123874809D01*
X75218095Y-123874809D02*
X75027619Y-123874809D01*
X75027619Y-123874809D02*
X75027619Y-123374809D01*
X75027619Y-123374809D02*
X75194286Y-123374809D01*
X75194286Y-123374809D02*
X75241905Y-123398619D01*
X75241905Y-123398619D02*
X75265714Y-123422428D01*
X75265714Y-123422428D02*
X75289524Y-123470047D01*
X75289524Y-123470047D02*
X75289524Y-123517666D01*
X75289524Y-123517666D02*
X75265714Y-123565285D01*
X75265714Y-123565285D02*
X75241905Y-123589095D01*
X75241905Y-123589095D02*
X75194286Y-123612904D01*
X75194286Y-123612904D02*
X75027619Y-123612904D01*
X75741905Y-123874809D02*
X75741905Y-123612904D01*
X75741905Y-123612904D02*
X75718095Y-123565285D01*
X75718095Y-123565285D02*
X75670476Y-123541476D01*
X75670476Y-123541476D02*
X75575238Y-123541476D01*
X75575238Y-123541476D02*
X75527619Y-123565285D01*
X75741905Y-123851000D02*
X75694286Y-123874809D01*
X75694286Y-123874809D02*
X75575238Y-123874809D01*
X75575238Y-123874809D02*
X75527619Y-123851000D01*
X75527619Y-123851000D02*
X75503810Y-123803380D01*
X75503810Y-123803380D02*
X75503810Y-123755761D01*
X75503810Y-123755761D02*
X75527619Y-123708142D01*
X75527619Y-123708142D02*
X75575238Y-123684333D01*
X75575238Y-123684333D02*
X75694286Y-123684333D01*
X75694286Y-123684333D02*
X75741905Y-123660523D01*
X75908572Y-123541476D02*
X76099048Y-123541476D01*
X75980000Y-123374809D02*
X75980000Y-123803380D01*
X75980000Y-123803380D02*
X76003810Y-123851000D01*
X76003810Y-123851000D02*
X76051429Y-123874809D01*
X76051429Y-123874809D02*
X76099048Y-123874809D01*
X76194286Y-123541476D02*
X76384762Y-123541476D01*
X76265714Y-123374809D02*
X76265714Y-123803380D01*
X76265714Y-123803380D02*
X76289524Y-123851000D01*
X76289524Y-123851000D02*
X76337143Y-123874809D01*
X76337143Y-123874809D02*
X76384762Y-123874809D01*
X76741904Y-123851000D02*
X76694285Y-123874809D01*
X76694285Y-123874809D02*
X76599047Y-123874809D01*
X76599047Y-123874809D02*
X76551428Y-123851000D01*
X76551428Y-123851000D02*
X76527619Y-123803380D01*
X76527619Y-123803380D02*
X76527619Y-123612904D01*
X76527619Y-123612904D02*
X76551428Y-123565285D01*
X76551428Y-123565285D02*
X76599047Y-123541476D01*
X76599047Y-123541476D02*
X76694285Y-123541476D01*
X76694285Y-123541476D02*
X76741904Y-123565285D01*
X76741904Y-123565285D02*
X76765714Y-123612904D01*
X76765714Y-123612904D02*
X76765714Y-123660523D01*
X76765714Y-123660523D02*
X76527619Y-123708142D01*
X76979999Y-123874809D02*
X76979999Y-123541476D01*
X76979999Y-123636714D02*
X77003809Y-123589095D01*
X77003809Y-123589095D02*
X77027618Y-123565285D01*
X77027618Y-123565285D02*
X77075237Y-123541476D01*
X77075237Y-123541476D02*
X77122856Y-123541476D01*
X77241904Y-123541476D02*
X77360952Y-123874809D01*
X77479999Y-123541476D02*
X77360952Y-123874809D01*
X77360952Y-123874809D02*
X77313333Y-123993857D01*
X77313333Y-123993857D02*
X77289523Y-124017666D01*
X77289523Y-124017666D02*
X77241904Y-124041476D01*
X37209048Y-116477000D02*
X37280476Y-116500809D01*
X37280476Y-116500809D02*
X37399524Y-116500809D01*
X37399524Y-116500809D02*
X37447143Y-116477000D01*
X37447143Y-116477000D02*
X37470952Y-116453190D01*
X37470952Y-116453190D02*
X37494762Y-116405571D01*
X37494762Y-116405571D02*
X37494762Y-116357952D01*
X37494762Y-116357952D02*
X37470952Y-116310333D01*
X37470952Y-116310333D02*
X37447143Y-116286523D01*
X37447143Y-116286523D02*
X37399524Y-116262714D01*
X37399524Y-116262714D02*
X37304286Y-116238904D01*
X37304286Y-116238904D02*
X37256667Y-116215095D01*
X37256667Y-116215095D02*
X37232857Y-116191285D01*
X37232857Y-116191285D02*
X37209048Y-116143666D01*
X37209048Y-116143666D02*
X37209048Y-116096047D01*
X37209048Y-116096047D02*
X37232857Y-116048428D01*
X37232857Y-116048428D02*
X37256667Y-116024619D01*
X37256667Y-116024619D02*
X37304286Y-116000809D01*
X37304286Y-116000809D02*
X37423333Y-116000809D01*
X37423333Y-116000809D02*
X37494762Y-116024619D01*
X37970952Y-116500809D02*
X37685238Y-116500809D01*
X37828095Y-116500809D02*
X37828095Y-116000809D01*
X37828095Y-116000809D02*
X37780476Y-116072238D01*
X37780476Y-116072238D02*
X37732857Y-116119857D01*
X37732857Y-116119857D02*
X37685238Y-116143666D01*
X41789524Y-116454809D02*
X41789524Y-115954809D01*
X41789524Y-115954809D02*
X41980000Y-115954809D01*
X41980000Y-115954809D02*
X42027619Y-115978619D01*
X42027619Y-115978619D02*
X42051429Y-116002428D01*
X42051429Y-116002428D02*
X42075238Y-116050047D01*
X42075238Y-116050047D02*
X42075238Y-116121476D01*
X42075238Y-116121476D02*
X42051429Y-116169095D01*
X42051429Y-116169095D02*
X42027619Y-116192904D01*
X42027619Y-116192904D02*
X41980000Y-116216714D01*
X41980000Y-116216714D02*
X41789524Y-116216714D01*
X42503810Y-116121476D02*
X42503810Y-116454809D01*
X42289524Y-116121476D02*
X42289524Y-116383380D01*
X42289524Y-116383380D02*
X42313334Y-116431000D01*
X42313334Y-116431000D02*
X42360953Y-116454809D01*
X42360953Y-116454809D02*
X42432381Y-116454809D01*
X42432381Y-116454809D02*
X42480000Y-116431000D01*
X42480000Y-116431000D02*
X42503810Y-116407190D01*
X42718096Y-116431000D02*
X42765715Y-116454809D01*
X42765715Y-116454809D02*
X42860953Y-116454809D01*
X42860953Y-116454809D02*
X42908572Y-116431000D01*
X42908572Y-116431000D02*
X42932381Y-116383380D01*
X42932381Y-116383380D02*
X42932381Y-116359571D01*
X42932381Y-116359571D02*
X42908572Y-116311952D01*
X42908572Y-116311952D02*
X42860953Y-116288142D01*
X42860953Y-116288142D02*
X42789524Y-116288142D01*
X42789524Y-116288142D02*
X42741905Y-116264333D01*
X42741905Y-116264333D02*
X42718096Y-116216714D01*
X42718096Y-116216714D02*
X42718096Y-116192904D01*
X42718096Y-116192904D02*
X42741905Y-116145285D01*
X42741905Y-116145285D02*
X42789524Y-116121476D01*
X42789524Y-116121476D02*
X42860953Y-116121476D01*
X42860953Y-116121476D02*
X42908572Y-116145285D01*
X43146667Y-116454809D02*
X43146667Y-115954809D01*
X43360953Y-116454809D02*
X43360953Y-116192904D01*
X43360953Y-116192904D02*
X43337143Y-116145285D01*
X43337143Y-116145285D02*
X43289524Y-116121476D01*
X43289524Y-116121476D02*
X43218096Y-116121476D01*
X43218096Y-116121476D02*
X43170477Y-116145285D01*
X43170477Y-116145285D02*
X43146667Y-116169095D01*
X44146667Y-116192904D02*
X44218095Y-116216714D01*
X44218095Y-116216714D02*
X44241905Y-116240523D01*
X44241905Y-116240523D02*
X44265714Y-116288142D01*
X44265714Y-116288142D02*
X44265714Y-116359571D01*
X44265714Y-116359571D02*
X44241905Y-116407190D01*
X44241905Y-116407190D02*
X44218095Y-116431000D01*
X44218095Y-116431000D02*
X44170476Y-116454809D01*
X44170476Y-116454809D02*
X43980000Y-116454809D01*
X43980000Y-116454809D02*
X43980000Y-115954809D01*
X43980000Y-115954809D02*
X44146667Y-115954809D01*
X44146667Y-115954809D02*
X44194286Y-115978619D01*
X44194286Y-115978619D02*
X44218095Y-116002428D01*
X44218095Y-116002428D02*
X44241905Y-116050047D01*
X44241905Y-116050047D02*
X44241905Y-116097666D01*
X44241905Y-116097666D02*
X44218095Y-116145285D01*
X44218095Y-116145285D02*
X44194286Y-116169095D01*
X44194286Y-116169095D02*
X44146667Y-116192904D01*
X44146667Y-116192904D02*
X43980000Y-116192904D01*
X44694286Y-116121476D02*
X44694286Y-116454809D01*
X44480000Y-116121476D02*
X44480000Y-116383380D01*
X44480000Y-116383380D02*
X44503810Y-116431000D01*
X44503810Y-116431000D02*
X44551429Y-116454809D01*
X44551429Y-116454809D02*
X44622857Y-116454809D01*
X44622857Y-116454809D02*
X44670476Y-116431000D01*
X44670476Y-116431000D02*
X44694286Y-116407190D01*
X44860953Y-116121476D02*
X45051429Y-116121476D01*
X44932381Y-115954809D02*
X44932381Y-116383380D01*
X44932381Y-116383380D02*
X44956191Y-116431000D01*
X44956191Y-116431000D02*
X45003810Y-116454809D01*
X45003810Y-116454809D02*
X45051429Y-116454809D01*
X45146667Y-116121476D02*
X45337143Y-116121476D01*
X45218095Y-115954809D02*
X45218095Y-116383380D01*
X45218095Y-116383380D02*
X45241905Y-116431000D01*
X45241905Y-116431000D02*
X45289524Y-116454809D01*
X45289524Y-116454809D02*
X45337143Y-116454809D01*
X45575238Y-116454809D02*
X45527619Y-116431000D01*
X45527619Y-116431000D02*
X45503809Y-116407190D01*
X45503809Y-116407190D02*
X45480000Y-116359571D01*
X45480000Y-116359571D02*
X45480000Y-116216714D01*
X45480000Y-116216714D02*
X45503809Y-116169095D01*
X45503809Y-116169095D02*
X45527619Y-116145285D01*
X45527619Y-116145285D02*
X45575238Y-116121476D01*
X45575238Y-116121476D02*
X45646666Y-116121476D01*
X45646666Y-116121476D02*
X45694285Y-116145285D01*
X45694285Y-116145285D02*
X45718095Y-116169095D01*
X45718095Y-116169095D02*
X45741904Y-116216714D01*
X45741904Y-116216714D02*
X45741904Y-116359571D01*
X45741904Y-116359571D02*
X45718095Y-116407190D01*
X45718095Y-116407190D02*
X45694285Y-116431000D01*
X45694285Y-116431000D02*
X45646666Y-116454809D01*
X45646666Y-116454809D02*
X45575238Y-116454809D01*
X45956190Y-116121476D02*
X45956190Y-116454809D01*
X45956190Y-116169095D02*
X45980000Y-116145285D01*
X45980000Y-116145285D02*
X46027619Y-116121476D01*
X46027619Y-116121476D02*
X46099047Y-116121476D01*
X46099047Y-116121476D02*
X46146666Y-116145285D01*
X46146666Y-116145285D02*
X46170476Y-116192904D01*
X46170476Y-116192904D02*
X46170476Y-116454809D01*
X47426666Y-98837190D02*
X47402857Y-98861000D01*
X47402857Y-98861000D02*
X47331428Y-98884809D01*
X47331428Y-98884809D02*
X47283809Y-98884809D01*
X47283809Y-98884809D02*
X47212381Y-98861000D01*
X47212381Y-98861000D02*
X47164762Y-98813380D01*
X47164762Y-98813380D02*
X47140952Y-98765761D01*
X47140952Y-98765761D02*
X47117143Y-98670523D01*
X47117143Y-98670523D02*
X47117143Y-98599095D01*
X47117143Y-98599095D02*
X47140952Y-98503857D01*
X47140952Y-98503857D02*
X47164762Y-98456238D01*
X47164762Y-98456238D02*
X47212381Y-98408619D01*
X47212381Y-98408619D02*
X47283809Y-98384809D01*
X47283809Y-98384809D02*
X47331428Y-98384809D01*
X47331428Y-98384809D02*
X47402857Y-98408619D01*
X47402857Y-98408619D02*
X47426666Y-98432428D01*
X47617143Y-98432428D02*
X47640952Y-98408619D01*
X47640952Y-98408619D02*
X47688571Y-98384809D01*
X47688571Y-98384809D02*
X47807619Y-98384809D01*
X47807619Y-98384809D02*
X47855238Y-98408619D01*
X47855238Y-98408619D02*
X47879047Y-98432428D01*
X47879047Y-98432428D02*
X47902857Y-98480047D01*
X47902857Y-98480047D02*
X47902857Y-98527666D01*
X47902857Y-98527666D02*
X47879047Y-98599095D01*
X47879047Y-98599095D02*
X47593333Y-98884809D01*
X47593333Y-98884809D02*
X47902857Y-98884809D01*
X49472381Y-98864809D02*
X49186667Y-98864809D01*
X49329524Y-98864809D02*
X49329524Y-98364809D01*
X49329524Y-98364809D02*
X49281905Y-98436238D01*
X49281905Y-98436238D02*
X49234286Y-98483857D01*
X49234286Y-98483857D02*
X49186667Y-98507666D01*
X49900952Y-98531476D02*
X49900952Y-98864809D01*
X49686666Y-98531476D02*
X49686666Y-98793380D01*
X49686666Y-98793380D02*
X49710476Y-98841000D01*
X49710476Y-98841000D02*
X49758095Y-98864809D01*
X49758095Y-98864809D02*
X49829523Y-98864809D01*
X49829523Y-98864809D02*
X49877142Y-98841000D01*
X49877142Y-98841000D02*
X49900952Y-98817190D01*
X50305714Y-98602904D02*
X50139047Y-98602904D01*
X50139047Y-98864809D02*
X50139047Y-98364809D01*
X50139047Y-98364809D02*
X50377142Y-98364809D01*
X84163333Y-71254809D02*
X84163333Y-71611952D01*
X84163333Y-71611952D02*
X84139524Y-71683380D01*
X84139524Y-71683380D02*
X84091905Y-71731000D01*
X84091905Y-71731000D02*
X84020476Y-71754809D01*
X84020476Y-71754809D02*
X83972857Y-71754809D01*
X84615714Y-71421476D02*
X84615714Y-71754809D01*
X84496666Y-71231000D02*
X84377619Y-71588142D01*
X84377619Y-71588142D02*
X84687142Y-71588142D01*
X85399047Y-71757190D02*
X85375238Y-71781000D01*
X85375238Y-71781000D02*
X85303809Y-71804809D01*
X85303809Y-71804809D02*
X85256190Y-71804809D01*
X85256190Y-71804809D02*
X85184762Y-71781000D01*
X85184762Y-71781000D02*
X85137143Y-71733380D01*
X85137143Y-71733380D02*
X85113333Y-71685761D01*
X85113333Y-71685761D02*
X85089524Y-71590523D01*
X85089524Y-71590523D02*
X85089524Y-71519095D01*
X85089524Y-71519095D02*
X85113333Y-71423857D01*
X85113333Y-71423857D02*
X85137143Y-71376238D01*
X85137143Y-71376238D02*
X85184762Y-71328619D01*
X85184762Y-71328619D02*
X85256190Y-71304809D01*
X85256190Y-71304809D02*
X85303809Y-71304809D01*
X85303809Y-71304809D02*
X85375238Y-71328619D01*
X85375238Y-71328619D02*
X85399047Y-71352428D01*
X85827619Y-71804809D02*
X85827619Y-71542904D01*
X85827619Y-71542904D02*
X85803809Y-71495285D01*
X85803809Y-71495285D02*
X85756190Y-71471476D01*
X85756190Y-71471476D02*
X85660952Y-71471476D01*
X85660952Y-71471476D02*
X85613333Y-71495285D01*
X85827619Y-71781000D02*
X85780000Y-71804809D01*
X85780000Y-71804809D02*
X85660952Y-71804809D01*
X85660952Y-71804809D02*
X85613333Y-71781000D01*
X85613333Y-71781000D02*
X85589524Y-71733380D01*
X85589524Y-71733380D02*
X85589524Y-71685761D01*
X85589524Y-71685761D02*
X85613333Y-71638142D01*
X85613333Y-71638142D02*
X85660952Y-71614333D01*
X85660952Y-71614333D02*
X85780000Y-71614333D01*
X85780000Y-71614333D02*
X85827619Y-71590523D01*
X86065714Y-71804809D02*
X86065714Y-71471476D01*
X86065714Y-71566714D02*
X86089524Y-71519095D01*
X86089524Y-71519095D02*
X86113333Y-71495285D01*
X86113333Y-71495285D02*
X86160952Y-71471476D01*
X86160952Y-71471476D02*
X86208571Y-71471476D01*
X86756190Y-71804809D02*
X86756190Y-71304809D01*
X86756190Y-71304809D02*
X86922857Y-71661952D01*
X86922857Y-71661952D02*
X87089523Y-71304809D01*
X87089523Y-71304809D02*
X87089523Y-71804809D01*
X87399048Y-71804809D02*
X87351429Y-71781000D01*
X87351429Y-71781000D02*
X87327619Y-71757190D01*
X87327619Y-71757190D02*
X87303810Y-71709571D01*
X87303810Y-71709571D02*
X87303810Y-71566714D01*
X87303810Y-71566714D02*
X87327619Y-71519095D01*
X87327619Y-71519095D02*
X87351429Y-71495285D01*
X87351429Y-71495285D02*
X87399048Y-71471476D01*
X87399048Y-71471476D02*
X87470476Y-71471476D01*
X87470476Y-71471476D02*
X87518095Y-71495285D01*
X87518095Y-71495285D02*
X87541905Y-71519095D01*
X87541905Y-71519095D02*
X87565714Y-71566714D01*
X87565714Y-71566714D02*
X87565714Y-71709571D01*
X87565714Y-71709571D02*
X87541905Y-71757190D01*
X87541905Y-71757190D02*
X87518095Y-71781000D01*
X87518095Y-71781000D02*
X87470476Y-71804809D01*
X87470476Y-71804809D02*
X87399048Y-71804809D01*
X87708572Y-71471476D02*
X87899048Y-71471476D01*
X87780000Y-71304809D02*
X87780000Y-71733380D01*
X87780000Y-71733380D02*
X87803810Y-71781000D01*
X87803810Y-71781000D02*
X87851429Y-71804809D01*
X87851429Y-71804809D02*
X87899048Y-71804809D01*
X88137143Y-71804809D02*
X88089524Y-71781000D01*
X88089524Y-71781000D02*
X88065714Y-71757190D01*
X88065714Y-71757190D02*
X88041905Y-71709571D01*
X88041905Y-71709571D02*
X88041905Y-71566714D01*
X88041905Y-71566714D02*
X88065714Y-71519095D01*
X88065714Y-71519095D02*
X88089524Y-71495285D01*
X88089524Y-71495285D02*
X88137143Y-71471476D01*
X88137143Y-71471476D02*
X88208571Y-71471476D01*
X88208571Y-71471476D02*
X88256190Y-71495285D01*
X88256190Y-71495285D02*
X88280000Y-71519095D01*
X88280000Y-71519095D02*
X88303809Y-71566714D01*
X88303809Y-71566714D02*
X88303809Y-71709571D01*
X88303809Y-71709571D02*
X88280000Y-71757190D01*
X88280000Y-71757190D02*
X88256190Y-71781000D01*
X88256190Y-71781000D02*
X88208571Y-71804809D01*
X88208571Y-71804809D02*
X88137143Y-71804809D01*
X88518095Y-71804809D02*
X88518095Y-71471476D01*
X88518095Y-71566714D02*
X88541905Y-71519095D01*
X88541905Y-71519095D02*
X88565714Y-71495285D01*
X88565714Y-71495285D02*
X88613333Y-71471476D01*
X88613333Y-71471476D02*
X88660952Y-71471476D01*
X89470476Y-71804809D02*
X89184762Y-71804809D01*
X89327619Y-71804809D02*
X89327619Y-71304809D01*
X89327619Y-71304809D02*
X89280000Y-71376238D01*
X89280000Y-71376238D02*
X89232381Y-71423857D01*
X89232381Y-71423857D02*
X89184762Y-71447666D01*
X76279047Y-113054809D02*
X76279047Y-113459571D01*
X76279047Y-113459571D02*
X76302857Y-113507190D01*
X76302857Y-113507190D02*
X76326666Y-113531000D01*
X76326666Y-113531000D02*
X76374285Y-113554809D01*
X76374285Y-113554809D02*
X76469523Y-113554809D01*
X76469523Y-113554809D02*
X76517142Y-113531000D01*
X76517142Y-113531000D02*
X76540952Y-113507190D01*
X76540952Y-113507190D02*
X76564761Y-113459571D01*
X76564761Y-113459571D02*
X76564761Y-113054809D01*
X77017143Y-113221476D02*
X77017143Y-113554809D01*
X76898095Y-113031000D02*
X76779048Y-113388142D01*
X76779048Y-113388142D02*
X77088571Y-113388142D01*
X75070953Y-113924809D02*
X74832858Y-113924809D01*
X74832858Y-113924809D02*
X74809049Y-114162904D01*
X74809049Y-114162904D02*
X74832858Y-114139095D01*
X74832858Y-114139095D02*
X74880477Y-114115285D01*
X74880477Y-114115285D02*
X74999525Y-114115285D01*
X74999525Y-114115285D02*
X75047144Y-114139095D01*
X75047144Y-114139095D02*
X75070953Y-114162904D01*
X75070953Y-114162904D02*
X75094763Y-114210523D01*
X75094763Y-114210523D02*
X75094763Y-114329571D01*
X75094763Y-114329571D02*
X75070953Y-114377190D01*
X75070953Y-114377190D02*
X75047144Y-114401000D01*
X75047144Y-114401000D02*
X74999525Y-114424809D01*
X74999525Y-114424809D02*
X74880477Y-114424809D01*
X74880477Y-114424809D02*
X74832858Y-114401000D01*
X74832858Y-114401000D02*
X74809049Y-114377190D01*
X75237620Y-113924809D02*
X75404286Y-114424809D01*
X75404286Y-114424809D02*
X75570953Y-113924809D01*
X76047143Y-113924809D02*
X76213809Y-114424809D01*
X76213809Y-114424809D02*
X76380476Y-113924809D01*
X76547142Y-114377190D02*
X76570952Y-114401000D01*
X76570952Y-114401000D02*
X76547142Y-114424809D01*
X76547142Y-114424809D02*
X76523333Y-114401000D01*
X76523333Y-114401000D02*
X76547142Y-114377190D01*
X76547142Y-114377190D02*
X76547142Y-114424809D01*
X77070951Y-114424809D02*
X76904285Y-114186714D01*
X76785237Y-114424809D02*
X76785237Y-113924809D01*
X76785237Y-113924809D02*
X76975713Y-113924809D01*
X76975713Y-113924809D02*
X77023332Y-113948619D01*
X77023332Y-113948619D02*
X77047142Y-113972428D01*
X77047142Y-113972428D02*
X77070951Y-114020047D01*
X77070951Y-114020047D02*
X77070951Y-114091476D01*
X77070951Y-114091476D02*
X77047142Y-114139095D01*
X77047142Y-114139095D02*
X77023332Y-114162904D01*
X77023332Y-114162904D02*
X76975713Y-114186714D01*
X76975713Y-114186714D02*
X76785237Y-114186714D01*
X42362381Y-108084809D02*
X42076667Y-108084809D01*
X42219524Y-108084809D02*
X42219524Y-107584809D01*
X42219524Y-107584809D02*
X42171905Y-107656238D01*
X42171905Y-107656238D02*
X42124286Y-107703857D01*
X42124286Y-107703857D02*
X42076667Y-107727666D01*
X42790952Y-107751476D02*
X42790952Y-108084809D01*
X42576666Y-107751476D02*
X42576666Y-108013380D01*
X42576666Y-108013380D02*
X42600476Y-108061000D01*
X42600476Y-108061000D02*
X42648095Y-108084809D01*
X42648095Y-108084809D02*
X42719523Y-108084809D01*
X42719523Y-108084809D02*
X42767142Y-108061000D01*
X42767142Y-108061000D02*
X42790952Y-108037190D01*
X43195714Y-107822904D02*
X43029047Y-107822904D01*
X43029047Y-108084809D02*
X43029047Y-107584809D01*
X43029047Y-107584809D02*
X43267142Y-107584809D01*
X39326666Y-107967190D02*
X39302857Y-107991000D01*
X39302857Y-107991000D02*
X39231428Y-108014809D01*
X39231428Y-108014809D02*
X39183809Y-108014809D01*
X39183809Y-108014809D02*
X39112381Y-107991000D01*
X39112381Y-107991000D02*
X39064762Y-107943380D01*
X39064762Y-107943380D02*
X39040952Y-107895761D01*
X39040952Y-107895761D02*
X39017143Y-107800523D01*
X39017143Y-107800523D02*
X39017143Y-107729095D01*
X39017143Y-107729095D02*
X39040952Y-107633857D01*
X39040952Y-107633857D02*
X39064762Y-107586238D01*
X39064762Y-107586238D02*
X39112381Y-107538619D01*
X39112381Y-107538619D02*
X39183809Y-107514809D01*
X39183809Y-107514809D02*
X39231428Y-107514809D01*
X39231428Y-107514809D02*
X39302857Y-107538619D01*
X39302857Y-107538619D02*
X39326666Y-107562428D01*
X39802857Y-108014809D02*
X39517143Y-108014809D01*
X39660000Y-108014809D02*
X39660000Y-107514809D01*
X39660000Y-107514809D02*
X39612381Y-107586238D01*
X39612381Y-107586238D02*
X39564762Y-107633857D01*
X39564762Y-107633857D02*
X39517143Y-107657666D01*
X62303333Y-119524809D02*
X62303333Y-119881952D01*
X62303333Y-119881952D02*
X62279524Y-119953380D01*
X62279524Y-119953380D02*
X62231905Y-120001000D01*
X62231905Y-120001000D02*
X62160476Y-120024809D01*
X62160476Y-120024809D02*
X62112857Y-120024809D01*
X62779523Y-119524809D02*
X62541428Y-119524809D01*
X62541428Y-119524809D02*
X62517619Y-119762904D01*
X62517619Y-119762904D02*
X62541428Y-119739095D01*
X62541428Y-119739095D02*
X62589047Y-119715285D01*
X62589047Y-119715285D02*
X62708095Y-119715285D01*
X62708095Y-119715285D02*
X62755714Y-119739095D01*
X62755714Y-119739095D02*
X62779523Y-119762904D01*
X62779523Y-119762904D02*
X62803333Y-119810523D01*
X62803333Y-119810523D02*
X62803333Y-119929571D01*
X62803333Y-119929571D02*
X62779523Y-119977190D01*
X62779523Y-119977190D02*
X62755714Y-120001000D01*
X62755714Y-120001000D02*
X62708095Y-120024809D01*
X62708095Y-120024809D02*
X62589047Y-120024809D01*
X62589047Y-120024809D02*
X62541428Y-120001000D01*
X62541428Y-120001000D02*
X62517619Y-119977190D01*
X63449999Y-119957190D02*
X63426190Y-119981000D01*
X63426190Y-119981000D02*
X63354761Y-120004809D01*
X63354761Y-120004809D02*
X63307142Y-120004809D01*
X63307142Y-120004809D02*
X63235714Y-119981000D01*
X63235714Y-119981000D02*
X63188095Y-119933380D01*
X63188095Y-119933380D02*
X63164285Y-119885761D01*
X63164285Y-119885761D02*
X63140476Y-119790523D01*
X63140476Y-119790523D02*
X63140476Y-119719095D01*
X63140476Y-119719095D02*
X63164285Y-119623857D01*
X63164285Y-119623857D02*
X63188095Y-119576238D01*
X63188095Y-119576238D02*
X63235714Y-119528619D01*
X63235714Y-119528619D02*
X63307142Y-119504809D01*
X63307142Y-119504809D02*
X63354761Y-119504809D01*
X63354761Y-119504809D02*
X63426190Y-119528619D01*
X63426190Y-119528619D02*
X63449999Y-119552428D01*
X63878571Y-120004809D02*
X63878571Y-119742904D01*
X63878571Y-119742904D02*
X63854761Y-119695285D01*
X63854761Y-119695285D02*
X63807142Y-119671476D01*
X63807142Y-119671476D02*
X63711904Y-119671476D01*
X63711904Y-119671476D02*
X63664285Y-119695285D01*
X63878571Y-119981000D02*
X63830952Y-120004809D01*
X63830952Y-120004809D02*
X63711904Y-120004809D01*
X63711904Y-120004809D02*
X63664285Y-119981000D01*
X63664285Y-119981000D02*
X63640476Y-119933380D01*
X63640476Y-119933380D02*
X63640476Y-119885761D01*
X63640476Y-119885761D02*
X63664285Y-119838142D01*
X63664285Y-119838142D02*
X63711904Y-119814333D01*
X63711904Y-119814333D02*
X63830952Y-119814333D01*
X63830952Y-119814333D02*
X63878571Y-119790523D01*
X64116666Y-120004809D02*
X64116666Y-119671476D01*
X64116666Y-119719095D02*
X64140476Y-119695285D01*
X64140476Y-119695285D02*
X64188095Y-119671476D01*
X64188095Y-119671476D02*
X64259523Y-119671476D01*
X64259523Y-119671476D02*
X64307142Y-119695285D01*
X64307142Y-119695285D02*
X64330952Y-119742904D01*
X64330952Y-119742904D02*
X64330952Y-120004809D01*
X64330952Y-119742904D02*
X64354761Y-119695285D01*
X64354761Y-119695285D02*
X64402380Y-119671476D01*
X64402380Y-119671476D02*
X64473809Y-119671476D01*
X64473809Y-119671476D02*
X64521428Y-119695285D01*
X64521428Y-119695285D02*
X64545238Y-119742904D01*
X64545238Y-119742904D02*
X64545238Y-120004809D01*
X64973809Y-119981000D02*
X64926190Y-120004809D01*
X64926190Y-120004809D02*
X64830952Y-120004809D01*
X64830952Y-120004809D02*
X64783333Y-119981000D01*
X64783333Y-119981000D02*
X64759524Y-119933380D01*
X64759524Y-119933380D02*
X64759524Y-119742904D01*
X64759524Y-119742904D02*
X64783333Y-119695285D01*
X64783333Y-119695285D02*
X64830952Y-119671476D01*
X64830952Y-119671476D02*
X64926190Y-119671476D01*
X64926190Y-119671476D02*
X64973809Y-119695285D01*
X64973809Y-119695285D02*
X64997619Y-119742904D01*
X64997619Y-119742904D02*
X64997619Y-119790523D01*
X64997619Y-119790523D02*
X64759524Y-119838142D01*
X65211904Y-120004809D02*
X65211904Y-119671476D01*
X65211904Y-119766714D02*
X65235714Y-119719095D01*
X65235714Y-119719095D02*
X65259523Y-119695285D01*
X65259523Y-119695285D02*
X65307142Y-119671476D01*
X65307142Y-119671476D02*
X65354761Y-119671476D01*
X65735714Y-120004809D02*
X65735714Y-119742904D01*
X65735714Y-119742904D02*
X65711904Y-119695285D01*
X65711904Y-119695285D02*
X65664285Y-119671476D01*
X65664285Y-119671476D02*
X65569047Y-119671476D01*
X65569047Y-119671476D02*
X65521428Y-119695285D01*
X65735714Y-119981000D02*
X65688095Y-120004809D01*
X65688095Y-120004809D02*
X65569047Y-120004809D01*
X65569047Y-120004809D02*
X65521428Y-119981000D01*
X65521428Y-119981000D02*
X65497619Y-119933380D01*
X65497619Y-119933380D02*
X65497619Y-119885761D01*
X65497619Y-119885761D02*
X65521428Y-119838142D01*
X65521428Y-119838142D02*
X65569047Y-119814333D01*
X65569047Y-119814333D02*
X65688095Y-119814333D01*
X65688095Y-119814333D02*
X65735714Y-119790523D01*
X74098572Y-104794809D02*
X74146191Y-104794809D01*
X74146191Y-104794809D02*
X74193810Y-104818619D01*
X74193810Y-104818619D02*
X74217620Y-104842428D01*
X74217620Y-104842428D02*
X74241429Y-104890047D01*
X74241429Y-104890047D02*
X74265239Y-104985285D01*
X74265239Y-104985285D02*
X74265239Y-105104333D01*
X74265239Y-105104333D02*
X74241429Y-105199571D01*
X74241429Y-105199571D02*
X74217620Y-105247190D01*
X74217620Y-105247190D02*
X74193810Y-105271000D01*
X74193810Y-105271000D02*
X74146191Y-105294809D01*
X74146191Y-105294809D02*
X74098572Y-105294809D01*
X74098572Y-105294809D02*
X74050953Y-105271000D01*
X74050953Y-105271000D02*
X74027144Y-105247190D01*
X74027144Y-105247190D02*
X74003334Y-105199571D01*
X74003334Y-105199571D02*
X73979525Y-105104333D01*
X73979525Y-105104333D02*
X73979525Y-104985285D01*
X73979525Y-104985285D02*
X74003334Y-104890047D01*
X74003334Y-104890047D02*
X74027144Y-104842428D01*
X74027144Y-104842428D02*
X74050953Y-104818619D01*
X74050953Y-104818619D02*
X74098572Y-104794809D01*
X74479524Y-105247190D02*
X74503334Y-105271000D01*
X74503334Y-105271000D02*
X74479524Y-105294809D01*
X74479524Y-105294809D02*
X74455715Y-105271000D01*
X74455715Y-105271000D02*
X74479524Y-105247190D01*
X74479524Y-105247190D02*
X74479524Y-105294809D01*
X74979524Y-105294809D02*
X74693810Y-105294809D01*
X74836667Y-105294809D02*
X74836667Y-104794809D01*
X74836667Y-104794809D02*
X74789048Y-104866238D01*
X74789048Y-104866238D02*
X74741429Y-104913857D01*
X74741429Y-104913857D02*
X74693810Y-104937666D01*
X75408095Y-104961476D02*
X75408095Y-105294809D01*
X75193809Y-104961476D02*
X75193809Y-105223380D01*
X75193809Y-105223380D02*
X75217619Y-105271000D01*
X75217619Y-105271000D02*
X75265238Y-105294809D01*
X75265238Y-105294809D02*
X75336666Y-105294809D01*
X75336666Y-105294809D02*
X75384285Y-105271000D01*
X75384285Y-105271000D02*
X75408095Y-105247190D01*
X75812857Y-105032904D02*
X75646190Y-105032904D01*
X75646190Y-105294809D02*
X75646190Y-104794809D01*
X75646190Y-104794809D02*
X75884285Y-104794809D01*
X67166666Y-103947190D02*
X67142857Y-103971000D01*
X67142857Y-103971000D02*
X67071428Y-103994809D01*
X67071428Y-103994809D02*
X67023809Y-103994809D01*
X67023809Y-103994809D02*
X66952381Y-103971000D01*
X66952381Y-103971000D02*
X66904762Y-103923380D01*
X66904762Y-103923380D02*
X66880952Y-103875761D01*
X66880952Y-103875761D02*
X66857143Y-103780523D01*
X66857143Y-103780523D02*
X66857143Y-103709095D01*
X66857143Y-103709095D02*
X66880952Y-103613857D01*
X66880952Y-103613857D02*
X66904762Y-103566238D01*
X66904762Y-103566238D02*
X66952381Y-103518619D01*
X66952381Y-103518619D02*
X67023809Y-103494809D01*
X67023809Y-103494809D02*
X67071428Y-103494809D01*
X67071428Y-103494809D02*
X67142857Y-103518619D01*
X67142857Y-103518619D02*
X67166666Y-103542428D01*
X67595238Y-103661476D02*
X67595238Y-103994809D01*
X67476190Y-103471000D02*
X67357143Y-103828142D01*
X67357143Y-103828142D02*
X67666666Y-103828142D01*
X57265715Y-75524809D02*
X57265715Y-75929571D01*
X57265715Y-75929571D02*
X57289525Y-75977190D01*
X57289525Y-75977190D02*
X57313334Y-76001000D01*
X57313334Y-76001000D02*
X57360953Y-76024809D01*
X57360953Y-76024809D02*
X57456191Y-76024809D01*
X57456191Y-76024809D02*
X57503810Y-76001000D01*
X57503810Y-76001000D02*
X57527620Y-75977190D01*
X57527620Y-75977190D02*
X57551429Y-75929571D01*
X57551429Y-75929571D02*
X57551429Y-75524809D01*
X57860954Y-76024809D02*
X57813335Y-76001000D01*
X57813335Y-76001000D02*
X57789525Y-75953380D01*
X57789525Y-75953380D02*
X57789525Y-75524809D01*
X57980002Y-75691476D02*
X58170478Y-75691476D01*
X58051430Y-75524809D02*
X58051430Y-75953380D01*
X58051430Y-75953380D02*
X58075240Y-76001000D01*
X58075240Y-76001000D02*
X58122859Y-76024809D01*
X58122859Y-76024809D02*
X58170478Y-76024809D01*
X58337144Y-76024809D02*
X58337144Y-75691476D01*
X58337144Y-75786714D02*
X58360954Y-75739095D01*
X58360954Y-75739095D02*
X58384763Y-75715285D01*
X58384763Y-75715285D02*
X58432382Y-75691476D01*
X58432382Y-75691476D02*
X58480001Y-75691476D01*
X58860954Y-76024809D02*
X58860954Y-75762904D01*
X58860954Y-75762904D02*
X58837144Y-75715285D01*
X58837144Y-75715285D02*
X58789525Y-75691476D01*
X58789525Y-75691476D02*
X58694287Y-75691476D01*
X58694287Y-75691476D02*
X58646668Y-75715285D01*
X58860954Y-76001000D02*
X58813335Y-76024809D01*
X58813335Y-76024809D02*
X58694287Y-76024809D01*
X58694287Y-76024809D02*
X58646668Y-76001000D01*
X58646668Y-76001000D02*
X58622859Y-75953380D01*
X58622859Y-75953380D02*
X58622859Y-75905761D01*
X58622859Y-75905761D02*
X58646668Y-75858142D01*
X58646668Y-75858142D02*
X58694287Y-75834333D01*
X58694287Y-75834333D02*
X58813335Y-75834333D01*
X58813335Y-75834333D02*
X58860954Y-75810523D01*
X59456192Y-76001000D02*
X59527620Y-76024809D01*
X59527620Y-76024809D02*
X59646668Y-76024809D01*
X59646668Y-76024809D02*
X59694287Y-76001000D01*
X59694287Y-76001000D02*
X59718096Y-75977190D01*
X59718096Y-75977190D02*
X59741906Y-75929571D01*
X59741906Y-75929571D02*
X59741906Y-75881952D01*
X59741906Y-75881952D02*
X59718096Y-75834333D01*
X59718096Y-75834333D02*
X59694287Y-75810523D01*
X59694287Y-75810523D02*
X59646668Y-75786714D01*
X59646668Y-75786714D02*
X59551430Y-75762904D01*
X59551430Y-75762904D02*
X59503811Y-75739095D01*
X59503811Y-75739095D02*
X59480001Y-75715285D01*
X59480001Y-75715285D02*
X59456192Y-75667666D01*
X59456192Y-75667666D02*
X59456192Y-75620047D01*
X59456192Y-75620047D02*
X59480001Y-75572428D01*
X59480001Y-75572428D02*
X59503811Y-75548619D01*
X59503811Y-75548619D02*
X59551430Y-75524809D01*
X59551430Y-75524809D02*
X59670477Y-75524809D01*
X59670477Y-75524809D02*
X59741906Y-75548619D01*
X60027620Y-76024809D02*
X59980001Y-76001000D01*
X59980001Y-76001000D02*
X59956191Y-75977190D01*
X59956191Y-75977190D02*
X59932382Y-75929571D01*
X59932382Y-75929571D02*
X59932382Y-75786714D01*
X59932382Y-75786714D02*
X59956191Y-75739095D01*
X59956191Y-75739095D02*
X59980001Y-75715285D01*
X59980001Y-75715285D02*
X60027620Y-75691476D01*
X60027620Y-75691476D02*
X60099048Y-75691476D01*
X60099048Y-75691476D02*
X60146667Y-75715285D01*
X60146667Y-75715285D02*
X60170477Y-75739095D01*
X60170477Y-75739095D02*
X60194286Y-75786714D01*
X60194286Y-75786714D02*
X60194286Y-75929571D01*
X60194286Y-75929571D02*
X60170477Y-75977190D01*
X60170477Y-75977190D02*
X60146667Y-76001000D01*
X60146667Y-76001000D02*
X60099048Y-76024809D01*
X60099048Y-76024809D02*
X60027620Y-76024809D01*
X60408572Y-75691476D02*
X60408572Y-76024809D01*
X60408572Y-75739095D02*
X60432382Y-75715285D01*
X60432382Y-75715285D02*
X60480001Y-75691476D01*
X60480001Y-75691476D02*
X60551429Y-75691476D01*
X60551429Y-75691476D02*
X60599048Y-75715285D01*
X60599048Y-75715285D02*
X60622858Y-75762904D01*
X60622858Y-75762904D02*
X60622858Y-76024809D01*
X60860953Y-76024809D02*
X60860953Y-75691476D01*
X60860953Y-75524809D02*
X60837144Y-75548619D01*
X60837144Y-75548619D02*
X60860953Y-75572428D01*
X60860953Y-75572428D02*
X60884763Y-75548619D01*
X60884763Y-75548619D02*
X60860953Y-75524809D01*
X60860953Y-75524809D02*
X60860953Y-75572428D01*
X61313334Y-76001000D02*
X61265715Y-76024809D01*
X61265715Y-76024809D02*
X61170477Y-76024809D01*
X61170477Y-76024809D02*
X61122858Y-76001000D01*
X61122858Y-76001000D02*
X61099048Y-75977190D01*
X61099048Y-75977190D02*
X61075239Y-75929571D01*
X61075239Y-75929571D02*
X61075239Y-75786714D01*
X61075239Y-75786714D02*
X61099048Y-75739095D01*
X61099048Y-75739095D02*
X61122858Y-75715285D01*
X61122858Y-75715285D02*
X61170477Y-75691476D01*
X61170477Y-75691476D02*
X61265715Y-75691476D01*
X61265715Y-75691476D02*
X61313334Y-75715285D01*
X61884762Y-76001000D02*
X61956190Y-76024809D01*
X61956190Y-76024809D02*
X62075238Y-76024809D01*
X62075238Y-76024809D02*
X62122857Y-76001000D01*
X62122857Y-76001000D02*
X62146666Y-75977190D01*
X62146666Y-75977190D02*
X62170476Y-75929571D01*
X62170476Y-75929571D02*
X62170476Y-75881952D01*
X62170476Y-75881952D02*
X62146666Y-75834333D01*
X62146666Y-75834333D02*
X62122857Y-75810523D01*
X62122857Y-75810523D02*
X62075238Y-75786714D01*
X62075238Y-75786714D02*
X61980000Y-75762904D01*
X61980000Y-75762904D02*
X61932381Y-75739095D01*
X61932381Y-75739095D02*
X61908571Y-75715285D01*
X61908571Y-75715285D02*
X61884762Y-75667666D01*
X61884762Y-75667666D02*
X61884762Y-75620047D01*
X61884762Y-75620047D02*
X61908571Y-75572428D01*
X61908571Y-75572428D02*
X61932381Y-75548619D01*
X61932381Y-75548619D02*
X61980000Y-75524809D01*
X61980000Y-75524809D02*
X62099047Y-75524809D01*
X62099047Y-75524809D02*
X62170476Y-75548619D01*
X62575237Y-76001000D02*
X62527618Y-76024809D01*
X62527618Y-76024809D02*
X62432380Y-76024809D01*
X62432380Y-76024809D02*
X62384761Y-76001000D01*
X62384761Y-76001000D02*
X62360952Y-75953380D01*
X62360952Y-75953380D02*
X62360952Y-75762904D01*
X62360952Y-75762904D02*
X62384761Y-75715285D01*
X62384761Y-75715285D02*
X62432380Y-75691476D01*
X62432380Y-75691476D02*
X62527618Y-75691476D01*
X62527618Y-75691476D02*
X62575237Y-75715285D01*
X62575237Y-75715285D02*
X62599047Y-75762904D01*
X62599047Y-75762904D02*
X62599047Y-75810523D01*
X62599047Y-75810523D02*
X62360952Y-75858142D01*
X62813332Y-75691476D02*
X62813332Y-76024809D01*
X62813332Y-75739095D02*
X62837142Y-75715285D01*
X62837142Y-75715285D02*
X62884761Y-75691476D01*
X62884761Y-75691476D02*
X62956189Y-75691476D01*
X62956189Y-75691476D02*
X63003808Y-75715285D01*
X63003808Y-75715285D02*
X63027618Y-75762904D01*
X63027618Y-75762904D02*
X63027618Y-76024809D01*
X63241904Y-76001000D02*
X63289523Y-76024809D01*
X63289523Y-76024809D02*
X63384761Y-76024809D01*
X63384761Y-76024809D02*
X63432380Y-76001000D01*
X63432380Y-76001000D02*
X63456189Y-75953380D01*
X63456189Y-75953380D02*
X63456189Y-75929571D01*
X63456189Y-75929571D02*
X63432380Y-75881952D01*
X63432380Y-75881952D02*
X63384761Y-75858142D01*
X63384761Y-75858142D02*
X63313332Y-75858142D01*
X63313332Y-75858142D02*
X63265713Y-75834333D01*
X63265713Y-75834333D02*
X63241904Y-75786714D01*
X63241904Y-75786714D02*
X63241904Y-75762904D01*
X63241904Y-75762904D02*
X63265713Y-75715285D01*
X63265713Y-75715285D02*
X63313332Y-75691476D01*
X63313332Y-75691476D02*
X63384761Y-75691476D01*
X63384761Y-75691476D02*
X63432380Y-75715285D01*
X63741904Y-76024809D02*
X63694285Y-76001000D01*
X63694285Y-76001000D02*
X63670475Y-75977190D01*
X63670475Y-75977190D02*
X63646666Y-75929571D01*
X63646666Y-75929571D02*
X63646666Y-75786714D01*
X63646666Y-75786714D02*
X63670475Y-75739095D01*
X63670475Y-75739095D02*
X63694285Y-75715285D01*
X63694285Y-75715285D02*
X63741904Y-75691476D01*
X63741904Y-75691476D02*
X63813332Y-75691476D01*
X63813332Y-75691476D02*
X63860951Y-75715285D01*
X63860951Y-75715285D02*
X63884761Y-75739095D01*
X63884761Y-75739095D02*
X63908570Y-75786714D01*
X63908570Y-75786714D02*
X63908570Y-75929571D01*
X63908570Y-75929571D02*
X63884761Y-75977190D01*
X63884761Y-75977190D02*
X63860951Y-76001000D01*
X63860951Y-76001000D02*
X63813332Y-76024809D01*
X63813332Y-76024809D02*
X63741904Y-76024809D01*
X64122856Y-76024809D02*
X64122856Y-75691476D01*
X64122856Y-75786714D02*
X64146666Y-75739095D01*
X64146666Y-75739095D02*
X64170475Y-75715285D01*
X64170475Y-75715285D02*
X64218094Y-75691476D01*
X64218094Y-75691476D02*
X64265713Y-75691476D01*
X55613333Y-75544809D02*
X55613333Y-75901952D01*
X55613333Y-75901952D02*
X55589524Y-75973380D01*
X55589524Y-75973380D02*
X55541905Y-76021000D01*
X55541905Y-76021000D02*
X55470476Y-76044809D01*
X55470476Y-76044809D02*
X55422857Y-76044809D01*
X55803809Y-75544809D02*
X56113333Y-75544809D01*
X56113333Y-75544809D02*
X55946666Y-75735285D01*
X55946666Y-75735285D02*
X56018095Y-75735285D01*
X56018095Y-75735285D02*
X56065714Y-75759095D01*
X56065714Y-75759095D02*
X56089523Y-75782904D01*
X56089523Y-75782904D02*
X56113333Y-75830523D01*
X56113333Y-75830523D02*
X56113333Y-75949571D01*
X56113333Y-75949571D02*
X56089523Y-75997190D01*
X56089523Y-75997190D02*
X56065714Y-76021000D01*
X56065714Y-76021000D02*
X56018095Y-76044809D01*
X56018095Y-76044809D02*
X55875238Y-76044809D01*
X55875238Y-76044809D02*
X55827619Y-76021000D01*
X55827619Y-76021000D02*
X55803809Y-75997190D01*
X86663333Y-92424809D02*
X86663333Y-92781952D01*
X86663333Y-92781952D02*
X86639524Y-92853380D01*
X86639524Y-92853380D02*
X86591905Y-92901000D01*
X86591905Y-92901000D02*
X86520476Y-92924809D01*
X86520476Y-92924809D02*
X86472857Y-92924809D01*
X86877619Y-92472428D02*
X86901428Y-92448619D01*
X86901428Y-92448619D02*
X86949047Y-92424809D01*
X86949047Y-92424809D02*
X87068095Y-92424809D01*
X87068095Y-92424809D02*
X87115714Y-92448619D01*
X87115714Y-92448619D02*
X87139523Y-92472428D01*
X87139523Y-92472428D02*
X87163333Y-92520047D01*
X87163333Y-92520047D02*
X87163333Y-92567666D01*
X87163333Y-92567666D02*
X87139523Y-92639095D01*
X87139523Y-92639095D02*
X86853809Y-92924809D01*
X86853809Y-92924809D02*
X87163333Y-92924809D01*
X84112382Y-93704809D02*
X84112382Y-93204809D01*
X84112382Y-93204809D02*
X84302858Y-93204809D01*
X84302858Y-93204809D02*
X84350477Y-93228619D01*
X84350477Y-93228619D02*
X84374287Y-93252428D01*
X84374287Y-93252428D02*
X84398096Y-93300047D01*
X84398096Y-93300047D02*
X84398096Y-93371476D01*
X84398096Y-93371476D02*
X84374287Y-93419095D01*
X84374287Y-93419095D02*
X84350477Y-93442904D01*
X84350477Y-93442904D02*
X84302858Y-93466714D01*
X84302858Y-93466714D02*
X84112382Y-93466714D01*
X84612382Y-93704809D02*
X84612382Y-93371476D01*
X84612382Y-93204809D02*
X84588573Y-93228619D01*
X84588573Y-93228619D02*
X84612382Y-93252428D01*
X84612382Y-93252428D02*
X84636192Y-93228619D01*
X84636192Y-93228619D02*
X84612382Y-93204809D01*
X84612382Y-93204809D02*
X84612382Y-93252428D01*
X85064763Y-93681000D02*
X85017144Y-93704809D01*
X85017144Y-93704809D02*
X84921906Y-93704809D01*
X84921906Y-93704809D02*
X84874287Y-93681000D01*
X84874287Y-93681000D02*
X84850477Y-93657190D01*
X84850477Y-93657190D02*
X84826668Y-93609571D01*
X84826668Y-93609571D02*
X84826668Y-93466714D01*
X84826668Y-93466714D02*
X84850477Y-93419095D01*
X84850477Y-93419095D02*
X84874287Y-93395285D01*
X84874287Y-93395285D02*
X84921906Y-93371476D01*
X84921906Y-93371476D02*
X85017144Y-93371476D01*
X85017144Y-93371476D02*
X85064763Y-93395285D01*
X85350477Y-93704809D02*
X85302858Y-93681000D01*
X85302858Y-93681000D02*
X85279048Y-93657190D01*
X85279048Y-93657190D02*
X85255239Y-93609571D01*
X85255239Y-93609571D02*
X85255239Y-93466714D01*
X85255239Y-93466714D02*
X85279048Y-93419095D01*
X85279048Y-93419095D02*
X85302858Y-93395285D01*
X85302858Y-93395285D02*
X85350477Y-93371476D01*
X85350477Y-93371476D02*
X85421905Y-93371476D01*
X85421905Y-93371476D02*
X85469524Y-93395285D01*
X85469524Y-93395285D02*
X85493334Y-93419095D01*
X85493334Y-93419095D02*
X85517143Y-93466714D01*
X85517143Y-93466714D02*
X85517143Y-93609571D01*
X85517143Y-93609571D02*
X85493334Y-93657190D01*
X85493334Y-93657190D02*
X85469524Y-93681000D01*
X85469524Y-93681000D02*
X85421905Y-93704809D01*
X85421905Y-93704809D02*
X85350477Y-93704809D01*
X86088572Y-93681000D02*
X86160000Y-93704809D01*
X86160000Y-93704809D02*
X86279048Y-93704809D01*
X86279048Y-93704809D02*
X86326667Y-93681000D01*
X86326667Y-93681000D02*
X86350476Y-93657190D01*
X86350476Y-93657190D02*
X86374286Y-93609571D01*
X86374286Y-93609571D02*
X86374286Y-93561952D01*
X86374286Y-93561952D02*
X86350476Y-93514333D01*
X86350476Y-93514333D02*
X86326667Y-93490523D01*
X86326667Y-93490523D02*
X86279048Y-93466714D01*
X86279048Y-93466714D02*
X86183810Y-93442904D01*
X86183810Y-93442904D02*
X86136191Y-93419095D01*
X86136191Y-93419095D02*
X86112381Y-93395285D01*
X86112381Y-93395285D02*
X86088572Y-93347666D01*
X86088572Y-93347666D02*
X86088572Y-93300047D01*
X86088572Y-93300047D02*
X86112381Y-93252428D01*
X86112381Y-93252428D02*
X86136191Y-93228619D01*
X86136191Y-93228619D02*
X86183810Y-93204809D01*
X86183810Y-93204809D02*
X86302857Y-93204809D01*
X86302857Y-93204809D02*
X86374286Y-93228619D01*
X86660000Y-93704809D02*
X86612381Y-93681000D01*
X86612381Y-93681000D02*
X86588571Y-93657190D01*
X86588571Y-93657190D02*
X86564762Y-93609571D01*
X86564762Y-93609571D02*
X86564762Y-93466714D01*
X86564762Y-93466714D02*
X86588571Y-93419095D01*
X86588571Y-93419095D02*
X86612381Y-93395285D01*
X86612381Y-93395285D02*
X86660000Y-93371476D01*
X86660000Y-93371476D02*
X86731428Y-93371476D01*
X86731428Y-93371476D02*
X86779047Y-93395285D01*
X86779047Y-93395285D02*
X86802857Y-93419095D01*
X86802857Y-93419095D02*
X86826666Y-93466714D01*
X86826666Y-93466714D02*
X86826666Y-93609571D01*
X86826666Y-93609571D02*
X86802857Y-93657190D01*
X86802857Y-93657190D02*
X86779047Y-93681000D01*
X86779047Y-93681000D02*
X86731428Y-93704809D01*
X86731428Y-93704809D02*
X86660000Y-93704809D01*
X87255238Y-93681000D02*
X87207619Y-93704809D01*
X87207619Y-93704809D02*
X87112381Y-93704809D01*
X87112381Y-93704809D02*
X87064762Y-93681000D01*
X87064762Y-93681000D02*
X87040952Y-93657190D01*
X87040952Y-93657190D02*
X87017143Y-93609571D01*
X87017143Y-93609571D02*
X87017143Y-93466714D01*
X87017143Y-93466714D02*
X87040952Y-93419095D01*
X87040952Y-93419095D02*
X87064762Y-93395285D01*
X87064762Y-93395285D02*
X87112381Y-93371476D01*
X87112381Y-93371476D02*
X87207619Y-93371476D01*
X87207619Y-93371476D02*
X87255238Y-93395285D01*
X87469523Y-93704809D02*
X87469523Y-93204809D01*
X87517142Y-93514333D02*
X87659999Y-93704809D01*
X87659999Y-93371476D02*
X87469523Y-93561952D01*
X88064761Y-93681000D02*
X88017142Y-93704809D01*
X88017142Y-93704809D02*
X87921904Y-93704809D01*
X87921904Y-93704809D02*
X87874285Y-93681000D01*
X87874285Y-93681000D02*
X87850476Y-93633380D01*
X87850476Y-93633380D02*
X87850476Y-93442904D01*
X87850476Y-93442904D02*
X87874285Y-93395285D01*
X87874285Y-93395285D02*
X87921904Y-93371476D01*
X87921904Y-93371476D02*
X88017142Y-93371476D01*
X88017142Y-93371476D02*
X88064761Y-93395285D01*
X88064761Y-93395285D02*
X88088571Y-93442904D01*
X88088571Y-93442904D02*
X88088571Y-93490523D01*
X88088571Y-93490523D02*
X87850476Y-93538142D01*
X88231428Y-93371476D02*
X88421904Y-93371476D01*
X88302856Y-93204809D02*
X88302856Y-93633380D01*
X88302856Y-93633380D02*
X88326666Y-93681000D01*
X88326666Y-93681000D02*
X88374285Y-93704809D01*
X88374285Y-93704809D02*
X88421904Y-93704809D01*
X88945713Y-93252428D02*
X88969522Y-93228619D01*
X88969522Y-93228619D02*
X89017141Y-93204809D01*
X89017141Y-93204809D02*
X89136189Y-93204809D01*
X89136189Y-93204809D02*
X89183808Y-93228619D01*
X89183808Y-93228619D02*
X89207617Y-93252428D01*
X89207617Y-93252428D02*
X89231427Y-93300047D01*
X89231427Y-93300047D02*
X89231427Y-93347666D01*
X89231427Y-93347666D02*
X89207617Y-93419095D01*
X89207617Y-93419095D02*
X88921903Y-93704809D01*
X88921903Y-93704809D02*
X89231427Y-93704809D01*
X72979047Y-102647190D02*
X72955238Y-102671000D01*
X72955238Y-102671000D02*
X72883809Y-102694809D01*
X72883809Y-102694809D02*
X72836190Y-102694809D01*
X72836190Y-102694809D02*
X72764762Y-102671000D01*
X72764762Y-102671000D02*
X72717143Y-102623380D01*
X72717143Y-102623380D02*
X72693333Y-102575761D01*
X72693333Y-102575761D02*
X72669524Y-102480523D01*
X72669524Y-102480523D02*
X72669524Y-102409095D01*
X72669524Y-102409095D02*
X72693333Y-102313857D01*
X72693333Y-102313857D02*
X72717143Y-102266238D01*
X72717143Y-102266238D02*
X72764762Y-102218619D01*
X72764762Y-102218619D02*
X72836190Y-102194809D01*
X72836190Y-102194809D02*
X72883809Y-102194809D01*
X72883809Y-102194809D02*
X72955238Y-102218619D01*
X72955238Y-102218619D02*
X72979047Y-102242428D01*
X73407619Y-102694809D02*
X73407619Y-102432904D01*
X73407619Y-102432904D02*
X73383809Y-102385285D01*
X73383809Y-102385285D02*
X73336190Y-102361476D01*
X73336190Y-102361476D02*
X73240952Y-102361476D01*
X73240952Y-102361476D02*
X73193333Y-102385285D01*
X73407619Y-102671000D02*
X73360000Y-102694809D01*
X73360000Y-102694809D02*
X73240952Y-102694809D01*
X73240952Y-102694809D02*
X73193333Y-102671000D01*
X73193333Y-102671000D02*
X73169524Y-102623380D01*
X73169524Y-102623380D02*
X73169524Y-102575761D01*
X73169524Y-102575761D02*
X73193333Y-102528142D01*
X73193333Y-102528142D02*
X73240952Y-102504333D01*
X73240952Y-102504333D02*
X73360000Y-102504333D01*
X73360000Y-102504333D02*
X73407619Y-102480523D01*
X73645714Y-102694809D02*
X73645714Y-102361476D01*
X73645714Y-102456714D02*
X73669524Y-102409095D01*
X73669524Y-102409095D02*
X73693333Y-102385285D01*
X73693333Y-102385285D02*
X73740952Y-102361476D01*
X73740952Y-102361476D02*
X73788571Y-102361476D01*
X74336190Y-102694809D02*
X74336190Y-102194809D01*
X74336190Y-102194809D02*
X74502857Y-102551952D01*
X74502857Y-102551952D02*
X74669523Y-102194809D01*
X74669523Y-102194809D02*
X74669523Y-102694809D01*
X74979048Y-102694809D02*
X74931429Y-102671000D01*
X74931429Y-102671000D02*
X74907619Y-102647190D01*
X74907619Y-102647190D02*
X74883810Y-102599571D01*
X74883810Y-102599571D02*
X74883810Y-102456714D01*
X74883810Y-102456714D02*
X74907619Y-102409095D01*
X74907619Y-102409095D02*
X74931429Y-102385285D01*
X74931429Y-102385285D02*
X74979048Y-102361476D01*
X74979048Y-102361476D02*
X75050476Y-102361476D01*
X75050476Y-102361476D02*
X75098095Y-102385285D01*
X75098095Y-102385285D02*
X75121905Y-102409095D01*
X75121905Y-102409095D02*
X75145714Y-102456714D01*
X75145714Y-102456714D02*
X75145714Y-102599571D01*
X75145714Y-102599571D02*
X75121905Y-102647190D01*
X75121905Y-102647190D02*
X75098095Y-102671000D01*
X75098095Y-102671000D02*
X75050476Y-102694809D01*
X75050476Y-102694809D02*
X74979048Y-102694809D01*
X75288572Y-102361476D02*
X75479048Y-102361476D01*
X75360000Y-102194809D02*
X75360000Y-102623380D01*
X75360000Y-102623380D02*
X75383810Y-102671000D01*
X75383810Y-102671000D02*
X75431429Y-102694809D01*
X75431429Y-102694809D02*
X75479048Y-102694809D01*
X75717143Y-102694809D02*
X75669524Y-102671000D01*
X75669524Y-102671000D02*
X75645714Y-102647190D01*
X75645714Y-102647190D02*
X75621905Y-102599571D01*
X75621905Y-102599571D02*
X75621905Y-102456714D01*
X75621905Y-102456714D02*
X75645714Y-102409095D01*
X75645714Y-102409095D02*
X75669524Y-102385285D01*
X75669524Y-102385285D02*
X75717143Y-102361476D01*
X75717143Y-102361476D02*
X75788571Y-102361476D01*
X75788571Y-102361476D02*
X75836190Y-102385285D01*
X75836190Y-102385285D02*
X75860000Y-102409095D01*
X75860000Y-102409095D02*
X75883809Y-102456714D01*
X75883809Y-102456714D02*
X75883809Y-102599571D01*
X75883809Y-102599571D02*
X75860000Y-102647190D01*
X75860000Y-102647190D02*
X75836190Y-102671000D01*
X75836190Y-102671000D02*
X75788571Y-102694809D01*
X75788571Y-102694809D02*
X75717143Y-102694809D01*
X76098095Y-102694809D02*
X76098095Y-102361476D01*
X76098095Y-102456714D02*
X76121905Y-102409095D01*
X76121905Y-102409095D02*
X76145714Y-102385285D01*
X76145714Y-102385285D02*
X76193333Y-102361476D01*
X76193333Y-102361476D02*
X76240952Y-102361476D01*
X76764762Y-102242428D02*
X76788571Y-102218619D01*
X76788571Y-102218619D02*
X76836190Y-102194809D01*
X76836190Y-102194809D02*
X76955238Y-102194809D01*
X76955238Y-102194809D02*
X77002857Y-102218619D01*
X77002857Y-102218619D02*
X77026666Y-102242428D01*
X77026666Y-102242428D02*
X77050476Y-102290047D01*
X77050476Y-102290047D02*
X77050476Y-102337666D01*
X77050476Y-102337666D02*
X77026666Y-102409095D01*
X77026666Y-102409095D02*
X76740952Y-102694809D01*
X76740952Y-102694809D02*
X77050476Y-102694809D01*
X75183333Y-101334809D02*
X75183333Y-101691952D01*
X75183333Y-101691952D02*
X75159524Y-101763380D01*
X75159524Y-101763380D02*
X75111905Y-101811000D01*
X75111905Y-101811000D02*
X75040476Y-101834809D01*
X75040476Y-101834809D02*
X74992857Y-101834809D01*
X75635714Y-101334809D02*
X75540476Y-101334809D01*
X75540476Y-101334809D02*
X75492857Y-101358619D01*
X75492857Y-101358619D02*
X75469047Y-101382428D01*
X75469047Y-101382428D02*
X75421428Y-101453857D01*
X75421428Y-101453857D02*
X75397619Y-101549095D01*
X75397619Y-101549095D02*
X75397619Y-101739571D01*
X75397619Y-101739571D02*
X75421428Y-101787190D01*
X75421428Y-101787190D02*
X75445238Y-101811000D01*
X75445238Y-101811000D02*
X75492857Y-101834809D01*
X75492857Y-101834809D02*
X75588095Y-101834809D01*
X75588095Y-101834809D02*
X75635714Y-101811000D01*
X75635714Y-101811000D02*
X75659523Y-101787190D01*
X75659523Y-101787190D02*
X75683333Y-101739571D01*
X75683333Y-101739571D02*
X75683333Y-101620523D01*
X75683333Y-101620523D02*
X75659523Y-101572904D01*
X75659523Y-101572904D02*
X75635714Y-101549095D01*
X75635714Y-101549095D02*
X75588095Y-101525285D01*
X75588095Y-101525285D02*
X75492857Y-101525285D01*
X75492857Y-101525285D02*
X75445238Y-101549095D01*
X75445238Y-101549095D02*
X75421428Y-101572904D01*
X75421428Y-101572904D02*
X75397619Y-101620523D01*
X46146666Y-108537190D02*
X46122857Y-108561000D01*
X46122857Y-108561000D02*
X46051428Y-108584809D01*
X46051428Y-108584809D02*
X46003809Y-108584809D01*
X46003809Y-108584809D02*
X45932381Y-108561000D01*
X45932381Y-108561000D02*
X45884762Y-108513380D01*
X45884762Y-108513380D02*
X45860952Y-108465761D01*
X45860952Y-108465761D02*
X45837143Y-108370523D01*
X45837143Y-108370523D02*
X45837143Y-108299095D01*
X45837143Y-108299095D02*
X45860952Y-108203857D01*
X45860952Y-108203857D02*
X45884762Y-108156238D01*
X45884762Y-108156238D02*
X45932381Y-108108619D01*
X45932381Y-108108619D02*
X46003809Y-108084809D01*
X46003809Y-108084809D02*
X46051428Y-108084809D01*
X46051428Y-108084809D02*
X46122857Y-108108619D01*
X46122857Y-108108619D02*
X46146666Y-108132428D01*
X46313333Y-108084809D02*
X46622857Y-108084809D01*
X46622857Y-108084809D02*
X46456190Y-108275285D01*
X46456190Y-108275285D02*
X46527619Y-108275285D01*
X46527619Y-108275285D02*
X46575238Y-108299095D01*
X46575238Y-108299095D02*
X46599047Y-108322904D01*
X46599047Y-108322904D02*
X46622857Y-108370523D01*
X46622857Y-108370523D02*
X46622857Y-108489571D01*
X46622857Y-108489571D02*
X46599047Y-108537190D01*
X46599047Y-108537190D02*
X46575238Y-108561000D01*
X46575238Y-108561000D02*
X46527619Y-108584809D01*
X46527619Y-108584809D02*
X46384762Y-108584809D01*
X46384762Y-108584809D02*
X46337143Y-108561000D01*
X46337143Y-108561000D02*
X46313333Y-108537190D01*
X47180477Y-107194809D02*
X47228096Y-107194809D01*
X47228096Y-107194809D02*
X47275715Y-107218619D01*
X47275715Y-107218619D02*
X47299525Y-107242428D01*
X47299525Y-107242428D02*
X47323334Y-107290047D01*
X47323334Y-107290047D02*
X47347144Y-107385285D01*
X47347144Y-107385285D02*
X47347144Y-107504333D01*
X47347144Y-107504333D02*
X47323334Y-107599571D01*
X47323334Y-107599571D02*
X47299525Y-107647190D01*
X47299525Y-107647190D02*
X47275715Y-107671000D01*
X47275715Y-107671000D02*
X47228096Y-107694809D01*
X47228096Y-107694809D02*
X47180477Y-107694809D01*
X47180477Y-107694809D02*
X47132858Y-107671000D01*
X47132858Y-107671000D02*
X47109049Y-107647190D01*
X47109049Y-107647190D02*
X47085239Y-107599571D01*
X47085239Y-107599571D02*
X47061430Y-107504333D01*
X47061430Y-107504333D02*
X47061430Y-107385285D01*
X47061430Y-107385285D02*
X47085239Y-107290047D01*
X47085239Y-107290047D02*
X47109049Y-107242428D01*
X47109049Y-107242428D02*
X47132858Y-107218619D01*
X47132858Y-107218619D02*
X47180477Y-107194809D01*
X47561429Y-107647190D02*
X47585239Y-107671000D01*
X47585239Y-107671000D02*
X47561429Y-107694809D01*
X47561429Y-107694809D02*
X47537620Y-107671000D01*
X47537620Y-107671000D02*
X47561429Y-107647190D01*
X47561429Y-107647190D02*
X47561429Y-107694809D01*
X48013810Y-107361476D02*
X48013810Y-107694809D01*
X47894762Y-107171000D02*
X47775715Y-107528142D01*
X47775715Y-107528142D02*
X48085238Y-107528142D01*
X48228095Y-107194809D02*
X48561428Y-107194809D01*
X48561428Y-107194809D02*
X48347143Y-107694809D01*
X48966190Y-107361476D02*
X48966190Y-107694809D01*
X48751904Y-107361476D02*
X48751904Y-107623380D01*
X48751904Y-107623380D02*
X48775714Y-107671000D01*
X48775714Y-107671000D02*
X48823333Y-107694809D01*
X48823333Y-107694809D02*
X48894761Y-107694809D01*
X48894761Y-107694809D02*
X48942380Y-107671000D01*
X48942380Y-107671000D02*
X48966190Y-107647190D01*
X49370952Y-107432904D02*
X49204285Y-107432904D01*
X49204285Y-107694809D02*
X49204285Y-107194809D01*
X49204285Y-107194809D02*
X49442380Y-107194809D01*
D11*
%TO.C,U1*%
X54800000Y-114290000D02*
X65200000Y-114290000D01*
X65200000Y-114290000D02*
X65200000Y-104010000D01*
X54860000Y-111800000D02*
X65140000Y-111800000D01*
X65140000Y-111800000D02*
X65140000Y-106500000D01*
X54860000Y-110150000D02*
X54860000Y-111800000D01*
X54860000Y-106500000D02*
X54860000Y-108150000D01*
X65140000Y-106500000D02*
X54860000Y-106500000D01*
X54800000Y-104010000D02*
X54800000Y-114290000D01*
X65200000Y-104010000D02*
X54800000Y-104010000D01*
X54860000Y-110150000D02*
G75*
G03*
X54860000Y-108150000I0J1000000D01*
G01*
%TO.C,BT1*%
X60160000Y-123060000D02*
X60160000Y-120860000D01*
X60560000Y-115260000D02*
X55360000Y-115260000D01*
X57960000Y-115660000D02*
X60160000Y-115660000D01*
X55760000Y-123060000D02*
X56960000Y-123060000D01*
X60160000Y-117860000D02*
X60560000Y-117860000D01*
X57960000Y-123060000D02*
X60160000Y-123060000D01*
X56960000Y-115260000D02*
X56960000Y-115660000D01*
X60160000Y-119860000D02*
X60560000Y-119860000D01*
X60160000Y-120860000D02*
X60560000Y-120860000D01*
X56960000Y-123060000D02*
X56960000Y-123460000D01*
X55360000Y-115260000D02*
X55360000Y-123460000D01*
X60160000Y-115660000D02*
X60160000Y-117860000D01*
X60560000Y-123460000D02*
X60560000Y-115260000D01*
X57960000Y-115260000D02*
X57960000Y-115660000D01*
X56960000Y-115660000D02*
X55760000Y-115660000D01*
X58960000Y-114950000D02*
X60870000Y-114950000D01*
X60560000Y-118860000D02*
X60160000Y-118860000D01*
X60870000Y-114950000D02*
X60870000Y-116860000D01*
X55360000Y-123460000D02*
X60560000Y-123460000D01*
X60160000Y-118860000D02*
X60160000Y-119860000D01*
X57960000Y-123460000D02*
X57960000Y-123060000D01*
X55760000Y-115660000D02*
X55760000Y-123060000D01*
%TO.C,U2*%
X77640000Y-108590000D02*
X88040000Y-108590000D01*
X88040000Y-108590000D02*
X88040000Y-98310000D01*
X77700000Y-106100000D02*
X87980000Y-106100000D01*
X87980000Y-106100000D02*
X87980000Y-100800000D01*
X77700000Y-104450000D02*
X77700000Y-106100000D01*
X77700000Y-100800000D02*
X77700000Y-102450000D01*
X87980000Y-100800000D02*
X77700000Y-100800000D01*
X77640000Y-98310000D02*
X77640000Y-108590000D01*
X88040000Y-98310000D02*
X77640000Y-98310000D01*
X77700000Y-104450000D02*
G75*
G03*
X77700000Y-102450000I0J1000000D01*
G01*
%TO.C,J7*%
X50880000Y-73845000D02*
X50880000Y-75175000D01*
X38060000Y-72515000D02*
X38060000Y-75175000D01*
X48280000Y-72515000D02*
X48280000Y-75175000D01*
X48280000Y-72515000D02*
X38060000Y-72515000D01*
X48280000Y-75175000D02*
X38060000Y-75175000D01*
X50880000Y-75175000D02*
X49550000Y-75175000D01*
D12*
%TO.C,U3*%
X80450000Y-122003000D02*
G75*
G03*
X80450000Y-122003000I-100000J0D01*
G01*
D13*
X88100000Y-121548000D02*
X77700000Y-121548000D01*
X88100000Y-116948000D02*
X88100000Y-121548000D01*
X77700000Y-116948000D02*
X88100000Y-116948000D01*
X77700000Y-121548000D02*
X77700000Y-116948000D01*
D11*
%TO.C,J1*%
X86360000Y-79308000D02*
X38040000Y-79308000D01*
X88960000Y-79308000D02*
X87630000Y-79308000D01*
X88960000Y-77978000D02*
X88960000Y-79308000D01*
X38040000Y-76648000D02*
X38040000Y-79308000D01*
X86360000Y-76648000D02*
X86360000Y-79308000D01*
X86360000Y-76648000D02*
X38040000Y-76648000D01*
%TO.C,C5*%
X38520260Y-104184000D02*
G75*
G03*
X42759740Y-104184000I2119740J1060001D01*
G01*
X42759740Y-102064000D02*
G75*
G03*
X38520260Y-102064000I-2119740J-1060001D01*
G01*
X38327712Y-101564000D02*
X38327712Y-102014000D01*
X38102712Y-101789000D02*
X38552712Y-101789000D01*
%TO.C,R1*%
X48388000Y-119054000D02*
X52228000Y-119054000D01*
X48388000Y-120894000D02*
X52228000Y-120894000D01*
%TO.C,C6*%
X72159740Y-113910000D02*
G75*
G03*
X67920260Y-113910000I-2119740J-1060001D01*
G01*
X67920260Y-116030000D02*
G75*
G03*
X72159740Y-116030000I2119740J1060001D01*
G01*
X72352288Y-116530000D02*
X72352288Y-116080000D01*
X72577288Y-116305000D02*
X72127288Y-116305000D01*
%TO.C,R2*%
X48380000Y-118370000D02*
X52220000Y-118370000D01*
X48380000Y-116530000D02*
X52220000Y-116530000D01*
%TO.C,R3*%
X48428000Y-123484000D02*
X52268000Y-123484000D01*
X48428000Y-121644000D02*
X52268000Y-121644000D01*
%TO.C,BT2*%
X71730000Y-120720000D02*
X74330000Y-120720000D01*
X74330000Y-123380000D02*
X74330000Y-120720000D01*
X71730000Y-123380000D02*
X71730000Y-120720000D01*
X71730000Y-123380000D02*
X74330000Y-123380000D01*
X70460000Y-123380000D02*
X69130000Y-123380000D01*
X69130000Y-123380000D02*
X69130000Y-122050000D01*
D13*
%TO.C,S1*%
X38670000Y-118804000D02*
X38670000Y-121156000D01*
X39494000Y-116980000D02*
X43846000Y-116980000D01*
X39494000Y-122980000D02*
X43846000Y-122980000D01*
X44670000Y-118804000D02*
X44670000Y-121156000D01*
D12*
X38520000Y-115976000D02*
G75*
G03*
X38520000Y-115976000I-100000J0D01*
G01*
D11*
%TO.C,C2*%
X51447288Y-104245000D02*
X50997288Y-104245000D01*
X51222288Y-104470000D02*
X51222288Y-104020000D01*
X46790260Y-103970000D02*
G75*
G03*
X51029740Y-103970000I2119740J1060001D01*
G01*
X51029740Y-101850000D02*
G75*
G03*
X46790260Y-101850000I-2119740J-1060001D01*
G01*
%TO.C,J4*%
X88970000Y-72490000D02*
X88970000Y-73820000D01*
X87640000Y-72490000D02*
X88970000Y-72490000D01*
X86370000Y-72490000D02*
X68530000Y-72490000D01*
X86370000Y-72490000D02*
X86370000Y-75150000D01*
X68530000Y-72490000D02*
X68530000Y-75150000D01*
X86370000Y-75150000D02*
X68530000Y-75150000D01*
D12*
%TO.C,U4*%
X80460000Y-114853000D02*
G75*
G03*
X80460000Y-114853000I-100000J0D01*
G01*
D13*
X88110000Y-114398000D02*
X77710000Y-114398000D01*
X88110000Y-109798000D02*
X88110000Y-114398000D01*
X77710000Y-114398000D02*
X77710000Y-109798000D01*
X77710000Y-109798000D02*
X88110000Y-109798000D01*
D11*
%TO.C,C1*%
X38814260Y-113074000D02*
G75*
G03*
X43053740Y-113074000I2119740J1060001D01*
G01*
X43053740Y-110954000D02*
G75*
G03*
X38814260Y-110954000I-2119740J-1060001D01*
G01*
X38621712Y-110454000D02*
X38621712Y-110904000D01*
X38396712Y-110679000D02*
X38846712Y-110679000D01*
%TO.C,J5*%
X62135000Y-123320000D02*
X62135000Y-121990000D01*
X63465000Y-123320000D02*
X62135000Y-123320000D01*
X64735000Y-123320000D02*
X67335000Y-123320000D01*
X64735000Y-123320000D02*
X64735000Y-120660000D01*
X67335000Y-123320000D02*
X67335000Y-120660000D01*
X64735000Y-120660000D02*
X67335000Y-120660000D01*
%TO.C,C4*%
X72599740Y-105840000D02*
G75*
G03*
X68360260Y-105840000I-2119740J-1060001D01*
G01*
X68360260Y-107960000D02*
G75*
G03*
X72599740Y-107960000I2119740J1060001D01*
G01*
X72792288Y-108460000D02*
X72792288Y-108010000D01*
X73017288Y-108235000D02*
X72567288Y-108235000D01*
%TO.C,J3*%
X54830000Y-74920000D02*
X54830000Y-73590000D01*
X56160000Y-74920000D02*
X54830000Y-74920000D01*
X57430000Y-74920000D02*
X65110000Y-74920000D01*
X57430000Y-74920000D02*
X57430000Y-72260000D01*
X65110000Y-74920000D02*
X65110000Y-72260000D01*
X57430000Y-72260000D02*
X65110000Y-72260000D01*
%TO.C,J2*%
X40640000Y-97088000D02*
X88960000Y-97088000D01*
X40640000Y-97088000D02*
X40640000Y-94428000D01*
X88960000Y-97088000D02*
X88960000Y-94428000D01*
X38040000Y-95758000D02*
X38040000Y-94428000D01*
X38040000Y-94428000D02*
X39370000Y-94428000D01*
X40640000Y-94428000D02*
X88960000Y-94428000D01*
%TO.C,J6*%
X71680000Y-98950000D02*
X53840000Y-98950000D01*
X71680000Y-98950000D02*
X71680000Y-101610000D01*
X53840000Y-98950000D02*
X53840000Y-101610000D01*
X74280000Y-100280000D02*
X74280000Y-101610000D01*
X74280000Y-101610000D02*
X72950000Y-101610000D01*
X71680000Y-101610000D02*
X53840000Y-101610000D01*
%TO.C,C3*%
X51209740Y-110660000D02*
G75*
G03*
X46970260Y-110660000I-2119740J-1060001D01*
G01*
X46970260Y-112780000D02*
G75*
G03*
X51209740Y-112780000I2119740J1060001D01*
G01*
X51402288Y-113280000D02*
X51402288Y-112830000D01*
X51627288Y-113055000D02*
X51177288Y-113055000D01*
%TD*%
M02*
