%TF.GenerationSoftware,KiCad,Pcbnew,7.0.7*%
%TF.CreationDate,2023-10-24T13:34:15-04:00*%
%TF.ProjectId,Capstone-board-car,43617073-746f-46e6-952d-626f6172642d,rev?*%
%TF.SameCoordinates,Original*%
%TF.FileFunction,Legend,Top*%
%TF.FilePolarity,Positive*%
%FSLAX46Y46*%
G04 Gerber Fmt 4.6, Leading zero omitted, Abs format (unit mm)*
G04 Created by KiCad (PCBNEW 7.0.7) date 2023-10-24 13:34:15*
%MOMM*%
%LPD*%
G01*
G04 APERTURE LIST*
%ADD10C,0.125000*%
%ADD11C,0.120000*%
%ADD12C,0.127000*%
%ADD13C,0.200000*%
G04 APERTURE END LIST*
D10*
X36533338Y-71427190D02*
X36509529Y-71451000D01*
X36509529Y-71451000D02*
X36438100Y-71474809D01*
X36438100Y-71474809D02*
X36390481Y-71474809D01*
X36390481Y-71474809D02*
X36319053Y-71451000D01*
X36319053Y-71451000D02*
X36271434Y-71403380D01*
X36271434Y-71403380D02*
X36247624Y-71355761D01*
X36247624Y-71355761D02*
X36223815Y-71260523D01*
X36223815Y-71260523D02*
X36223815Y-71189095D01*
X36223815Y-71189095D02*
X36247624Y-71093857D01*
X36247624Y-71093857D02*
X36271434Y-71046238D01*
X36271434Y-71046238D02*
X36319053Y-70998619D01*
X36319053Y-70998619D02*
X36390481Y-70974809D01*
X36390481Y-70974809D02*
X36438100Y-70974809D01*
X36438100Y-70974809D02*
X36509529Y-70998619D01*
X36509529Y-70998619D02*
X36533338Y-71022428D01*
X36961910Y-71474809D02*
X36961910Y-71212904D01*
X36961910Y-71212904D02*
X36938100Y-71165285D01*
X36938100Y-71165285D02*
X36890481Y-71141476D01*
X36890481Y-71141476D02*
X36795243Y-71141476D01*
X36795243Y-71141476D02*
X36747624Y-71165285D01*
X36961910Y-71451000D02*
X36914291Y-71474809D01*
X36914291Y-71474809D02*
X36795243Y-71474809D01*
X36795243Y-71474809D02*
X36747624Y-71451000D01*
X36747624Y-71451000D02*
X36723815Y-71403380D01*
X36723815Y-71403380D02*
X36723815Y-71355761D01*
X36723815Y-71355761D02*
X36747624Y-71308142D01*
X36747624Y-71308142D02*
X36795243Y-71284333D01*
X36795243Y-71284333D02*
X36914291Y-71284333D01*
X36914291Y-71284333D02*
X36961910Y-71260523D01*
X37200005Y-71141476D02*
X37200005Y-71641476D01*
X37200005Y-71165285D02*
X37247624Y-71141476D01*
X37247624Y-71141476D02*
X37342862Y-71141476D01*
X37342862Y-71141476D02*
X37390481Y-71165285D01*
X37390481Y-71165285D02*
X37414291Y-71189095D01*
X37414291Y-71189095D02*
X37438100Y-71236714D01*
X37438100Y-71236714D02*
X37438100Y-71379571D01*
X37438100Y-71379571D02*
X37414291Y-71427190D01*
X37414291Y-71427190D02*
X37390481Y-71451000D01*
X37390481Y-71451000D02*
X37342862Y-71474809D01*
X37342862Y-71474809D02*
X37247624Y-71474809D01*
X37247624Y-71474809D02*
X37200005Y-71451000D01*
X37628577Y-71451000D02*
X37676196Y-71474809D01*
X37676196Y-71474809D02*
X37771434Y-71474809D01*
X37771434Y-71474809D02*
X37819053Y-71451000D01*
X37819053Y-71451000D02*
X37842862Y-71403380D01*
X37842862Y-71403380D02*
X37842862Y-71379571D01*
X37842862Y-71379571D02*
X37819053Y-71331952D01*
X37819053Y-71331952D02*
X37771434Y-71308142D01*
X37771434Y-71308142D02*
X37700005Y-71308142D01*
X37700005Y-71308142D02*
X37652386Y-71284333D01*
X37652386Y-71284333D02*
X37628577Y-71236714D01*
X37628577Y-71236714D02*
X37628577Y-71212904D01*
X37628577Y-71212904D02*
X37652386Y-71165285D01*
X37652386Y-71165285D02*
X37700005Y-71141476D01*
X37700005Y-71141476D02*
X37771434Y-71141476D01*
X37771434Y-71141476D02*
X37819053Y-71165285D01*
X37985720Y-71141476D02*
X38176196Y-71141476D01*
X38057148Y-70974809D02*
X38057148Y-71403380D01*
X38057148Y-71403380D02*
X38080958Y-71451000D01*
X38080958Y-71451000D02*
X38128577Y-71474809D01*
X38128577Y-71474809D02*
X38176196Y-71474809D01*
X38414291Y-71474809D02*
X38366672Y-71451000D01*
X38366672Y-71451000D02*
X38342862Y-71427190D01*
X38342862Y-71427190D02*
X38319053Y-71379571D01*
X38319053Y-71379571D02*
X38319053Y-71236714D01*
X38319053Y-71236714D02*
X38342862Y-71189095D01*
X38342862Y-71189095D02*
X38366672Y-71165285D01*
X38366672Y-71165285D02*
X38414291Y-71141476D01*
X38414291Y-71141476D02*
X38485719Y-71141476D01*
X38485719Y-71141476D02*
X38533338Y-71165285D01*
X38533338Y-71165285D02*
X38557148Y-71189095D01*
X38557148Y-71189095D02*
X38580957Y-71236714D01*
X38580957Y-71236714D02*
X38580957Y-71379571D01*
X38580957Y-71379571D02*
X38557148Y-71427190D01*
X38557148Y-71427190D02*
X38533338Y-71451000D01*
X38533338Y-71451000D02*
X38485719Y-71474809D01*
X38485719Y-71474809D02*
X38414291Y-71474809D01*
X38795243Y-71141476D02*
X38795243Y-71474809D01*
X38795243Y-71189095D02*
X38819053Y-71165285D01*
X38819053Y-71165285D02*
X38866672Y-71141476D01*
X38866672Y-71141476D02*
X38938100Y-71141476D01*
X38938100Y-71141476D02*
X38985719Y-71165285D01*
X38985719Y-71165285D02*
X39009529Y-71212904D01*
X39009529Y-71212904D02*
X39009529Y-71474809D01*
X39438100Y-71451000D02*
X39390481Y-71474809D01*
X39390481Y-71474809D02*
X39295243Y-71474809D01*
X39295243Y-71474809D02*
X39247624Y-71451000D01*
X39247624Y-71451000D02*
X39223815Y-71403380D01*
X39223815Y-71403380D02*
X39223815Y-71212904D01*
X39223815Y-71212904D02*
X39247624Y-71165285D01*
X39247624Y-71165285D02*
X39295243Y-71141476D01*
X39295243Y-71141476D02*
X39390481Y-71141476D01*
X39390481Y-71141476D02*
X39438100Y-71165285D01*
X39438100Y-71165285D02*
X39461910Y-71212904D01*
X39461910Y-71212904D02*
X39461910Y-71260523D01*
X39461910Y-71260523D02*
X39223815Y-71308142D01*
X40223814Y-71212904D02*
X40057147Y-71212904D01*
X40057147Y-71474809D02*
X40057147Y-70974809D01*
X40057147Y-70974809D02*
X40295242Y-70974809D01*
X40700004Y-71474809D02*
X40700004Y-71212904D01*
X40700004Y-71212904D02*
X40676194Y-71165285D01*
X40676194Y-71165285D02*
X40628575Y-71141476D01*
X40628575Y-71141476D02*
X40533337Y-71141476D01*
X40533337Y-71141476D02*
X40485718Y-71165285D01*
X40700004Y-71451000D02*
X40652385Y-71474809D01*
X40652385Y-71474809D02*
X40533337Y-71474809D01*
X40533337Y-71474809D02*
X40485718Y-71451000D01*
X40485718Y-71451000D02*
X40461909Y-71403380D01*
X40461909Y-71403380D02*
X40461909Y-71355761D01*
X40461909Y-71355761D02*
X40485718Y-71308142D01*
X40485718Y-71308142D02*
X40533337Y-71284333D01*
X40533337Y-71284333D02*
X40652385Y-71284333D01*
X40652385Y-71284333D02*
X40700004Y-71260523D01*
X41009528Y-71474809D02*
X40961909Y-71451000D01*
X40961909Y-71451000D02*
X40938099Y-71403380D01*
X40938099Y-71403380D02*
X40938099Y-70974809D01*
X41271433Y-71474809D02*
X41223814Y-71451000D01*
X41223814Y-71451000D02*
X41200004Y-71403380D01*
X41200004Y-71403380D02*
X41200004Y-70974809D01*
X41819052Y-71022428D02*
X41842861Y-70998619D01*
X41842861Y-70998619D02*
X41890480Y-70974809D01*
X41890480Y-70974809D02*
X42009528Y-70974809D01*
X42009528Y-70974809D02*
X42057147Y-70998619D01*
X42057147Y-70998619D02*
X42080956Y-71022428D01*
X42080956Y-71022428D02*
X42104766Y-71070047D01*
X42104766Y-71070047D02*
X42104766Y-71117666D01*
X42104766Y-71117666D02*
X42080956Y-71189095D01*
X42080956Y-71189095D02*
X41795242Y-71474809D01*
X41795242Y-71474809D02*
X42104766Y-71474809D01*
X42414289Y-70974809D02*
X42461908Y-70974809D01*
X42461908Y-70974809D02*
X42509527Y-70998619D01*
X42509527Y-70998619D02*
X42533337Y-71022428D01*
X42533337Y-71022428D02*
X42557146Y-71070047D01*
X42557146Y-71070047D02*
X42580956Y-71165285D01*
X42580956Y-71165285D02*
X42580956Y-71284333D01*
X42580956Y-71284333D02*
X42557146Y-71379571D01*
X42557146Y-71379571D02*
X42533337Y-71427190D01*
X42533337Y-71427190D02*
X42509527Y-71451000D01*
X42509527Y-71451000D02*
X42461908Y-71474809D01*
X42461908Y-71474809D02*
X42414289Y-71474809D01*
X42414289Y-71474809D02*
X42366670Y-71451000D01*
X42366670Y-71451000D02*
X42342861Y-71427190D01*
X42342861Y-71427190D02*
X42319051Y-71379571D01*
X42319051Y-71379571D02*
X42295242Y-71284333D01*
X42295242Y-71284333D02*
X42295242Y-71165285D01*
X42295242Y-71165285D02*
X42319051Y-71070047D01*
X42319051Y-71070047D02*
X42342861Y-71022428D01*
X42342861Y-71022428D02*
X42366670Y-70998619D01*
X42366670Y-70998619D02*
X42414289Y-70974809D01*
X42771432Y-71022428D02*
X42795241Y-70998619D01*
X42795241Y-70998619D02*
X42842860Y-70974809D01*
X42842860Y-70974809D02*
X42961908Y-70974809D01*
X42961908Y-70974809D02*
X43009527Y-70998619D01*
X43009527Y-70998619D02*
X43033336Y-71022428D01*
X43033336Y-71022428D02*
X43057146Y-71070047D01*
X43057146Y-71070047D02*
X43057146Y-71117666D01*
X43057146Y-71117666D02*
X43033336Y-71189095D01*
X43033336Y-71189095D02*
X42747622Y-71474809D01*
X42747622Y-71474809D02*
X43057146Y-71474809D01*
X43223812Y-70974809D02*
X43533336Y-70974809D01*
X43533336Y-70974809D02*
X43366669Y-71165285D01*
X43366669Y-71165285D02*
X43438098Y-71165285D01*
X43438098Y-71165285D02*
X43485717Y-71189095D01*
X43485717Y-71189095D02*
X43509526Y-71212904D01*
X43509526Y-71212904D02*
X43533336Y-71260523D01*
X43533336Y-71260523D02*
X43533336Y-71379571D01*
X43533336Y-71379571D02*
X43509526Y-71427190D01*
X43509526Y-71427190D02*
X43485717Y-71451000D01*
X43485717Y-71451000D02*
X43438098Y-71474809D01*
X43438098Y-71474809D02*
X43295241Y-71474809D01*
X43295241Y-71474809D02*
X43247622Y-71451000D01*
X43247622Y-71451000D02*
X43223812Y-71427190D01*
X43747621Y-71427190D02*
X43771431Y-71451000D01*
X43771431Y-71451000D02*
X43747621Y-71474809D01*
X43747621Y-71474809D02*
X43723812Y-71451000D01*
X43723812Y-71451000D02*
X43747621Y-71427190D01*
X43747621Y-71427190D02*
X43747621Y-71474809D01*
X43747621Y-71165285D02*
X43771431Y-71189095D01*
X43771431Y-71189095D02*
X43747621Y-71212904D01*
X43747621Y-71212904D02*
X43723812Y-71189095D01*
X43723812Y-71189095D02*
X43747621Y-71165285D01*
X43747621Y-71165285D02*
X43747621Y-71212904D01*
X44366668Y-71212904D02*
X44533335Y-71212904D01*
X44604763Y-71474809D02*
X44366668Y-71474809D01*
X44366668Y-71474809D02*
X44366668Y-70974809D01*
X44366668Y-70974809D02*
X44604763Y-70974809D01*
X44819049Y-71141476D02*
X44819049Y-71641476D01*
X44819049Y-71165285D02*
X44866668Y-71141476D01*
X44866668Y-71141476D02*
X44961906Y-71141476D01*
X44961906Y-71141476D02*
X45009525Y-71165285D01*
X45009525Y-71165285D02*
X45033335Y-71189095D01*
X45033335Y-71189095D02*
X45057144Y-71236714D01*
X45057144Y-71236714D02*
X45057144Y-71379571D01*
X45057144Y-71379571D02*
X45033335Y-71427190D01*
X45033335Y-71427190D02*
X45009525Y-71451000D01*
X45009525Y-71451000D02*
X44961906Y-71474809D01*
X44961906Y-71474809D02*
X44866668Y-71474809D01*
X44866668Y-71474809D02*
X44819049Y-71451000D01*
X45271430Y-71474809D02*
X45271430Y-71141476D01*
X45271430Y-70974809D02*
X45247621Y-70998619D01*
X45247621Y-70998619D02*
X45271430Y-71022428D01*
X45271430Y-71022428D02*
X45295240Y-70998619D01*
X45295240Y-70998619D02*
X45271430Y-70974809D01*
X45271430Y-70974809D02*
X45271430Y-71022428D01*
X45438097Y-71141476D02*
X45628573Y-71141476D01*
X45509525Y-70974809D02*
X45509525Y-71403380D01*
X45509525Y-71403380D02*
X45533335Y-71451000D01*
X45533335Y-71451000D02*
X45580954Y-71474809D01*
X45580954Y-71474809D02*
X45628573Y-71474809D01*
X45866668Y-71474809D02*
X45819049Y-71451000D01*
X45819049Y-71451000D02*
X45795239Y-71427190D01*
X45795239Y-71427190D02*
X45771430Y-71379571D01*
X45771430Y-71379571D02*
X45771430Y-71236714D01*
X45771430Y-71236714D02*
X45795239Y-71189095D01*
X45795239Y-71189095D02*
X45819049Y-71165285D01*
X45819049Y-71165285D02*
X45866668Y-71141476D01*
X45866668Y-71141476D02*
X45938096Y-71141476D01*
X45938096Y-71141476D02*
X45985715Y-71165285D01*
X45985715Y-71165285D02*
X46009525Y-71189095D01*
X46009525Y-71189095D02*
X46033334Y-71236714D01*
X46033334Y-71236714D02*
X46033334Y-71379571D01*
X46033334Y-71379571D02*
X46009525Y-71427190D01*
X46009525Y-71427190D02*
X45985715Y-71451000D01*
X45985715Y-71451000D02*
X45938096Y-71474809D01*
X45938096Y-71474809D02*
X45866668Y-71474809D01*
X46247620Y-71474809D02*
X46247620Y-71141476D01*
X46247620Y-71189095D02*
X46271430Y-71165285D01*
X46271430Y-71165285D02*
X46319049Y-71141476D01*
X46319049Y-71141476D02*
X46390477Y-71141476D01*
X46390477Y-71141476D02*
X46438096Y-71165285D01*
X46438096Y-71165285D02*
X46461906Y-71212904D01*
X46461906Y-71212904D02*
X46461906Y-71474809D01*
X46461906Y-71212904D02*
X46485715Y-71165285D01*
X46485715Y-71165285D02*
X46533334Y-71141476D01*
X46533334Y-71141476D02*
X46604763Y-71141476D01*
X46604763Y-71141476D02*
X46652382Y-71165285D01*
X46652382Y-71165285D02*
X46676192Y-71212904D01*
X46676192Y-71212904D02*
X46676192Y-71474809D01*
X47104763Y-71451000D02*
X47057144Y-71474809D01*
X47057144Y-71474809D02*
X46961906Y-71474809D01*
X46961906Y-71474809D02*
X46914287Y-71451000D01*
X46914287Y-71451000D02*
X46890478Y-71403380D01*
X46890478Y-71403380D02*
X46890478Y-71212904D01*
X46890478Y-71212904D02*
X46914287Y-71165285D01*
X46914287Y-71165285D02*
X46961906Y-71141476D01*
X46961906Y-71141476D02*
X47057144Y-71141476D01*
X47057144Y-71141476D02*
X47104763Y-71165285D01*
X47104763Y-71165285D02*
X47128573Y-71212904D01*
X47128573Y-71212904D02*
X47128573Y-71260523D01*
X47128573Y-71260523D02*
X46890478Y-71308142D01*
X47842858Y-71641476D02*
X47842858Y-70927190D01*
X48509524Y-70974809D02*
X48795238Y-70974809D01*
X48652381Y-71474809D02*
X48652381Y-70974809D01*
X49152380Y-71451000D02*
X49104761Y-71474809D01*
X49104761Y-71474809D02*
X49009523Y-71474809D01*
X49009523Y-71474809D02*
X48961904Y-71451000D01*
X48961904Y-71451000D02*
X48938095Y-71403380D01*
X48938095Y-71403380D02*
X48938095Y-71212904D01*
X48938095Y-71212904D02*
X48961904Y-71165285D01*
X48961904Y-71165285D02*
X49009523Y-71141476D01*
X49009523Y-71141476D02*
X49104761Y-71141476D01*
X49104761Y-71141476D02*
X49152380Y-71165285D01*
X49152380Y-71165285D02*
X49176190Y-71212904D01*
X49176190Y-71212904D02*
X49176190Y-71260523D01*
X49176190Y-71260523D02*
X48938095Y-71308142D01*
X49604761Y-71474809D02*
X49604761Y-71212904D01*
X49604761Y-71212904D02*
X49580951Y-71165285D01*
X49580951Y-71165285D02*
X49533332Y-71141476D01*
X49533332Y-71141476D02*
X49438094Y-71141476D01*
X49438094Y-71141476D02*
X49390475Y-71165285D01*
X49604761Y-71451000D02*
X49557142Y-71474809D01*
X49557142Y-71474809D02*
X49438094Y-71474809D01*
X49438094Y-71474809D02*
X49390475Y-71451000D01*
X49390475Y-71451000D02*
X49366666Y-71403380D01*
X49366666Y-71403380D02*
X49366666Y-71355761D01*
X49366666Y-71355761D02*
X49390475Y-71308142D01*
X49390475Y-71308142D02*
X49438094Y-71284333D01*
X49438094Y-71284333D02*
X49557142Y-71284333D01*
X49557142Y-71284333D02*
X49604761Y-71260523D01*
X49842856Y-71474809D02*
X49842856Y-71141476D01*
X49842856Y-71189095D02*
X49866666Y-71165285D01*
X49866666Y-71165285D02*
X49914285Y-71141476D01*
X49914285Y-71141476D02*
X49985713Y-71141476D01*
X49985713Y-71141476D02*
X50033332Y-71165285D01*
X50033332Y-71165285D02*
X50057142Y-71212904D01*
X50057142Y-71212904D02*
X50057142Y-71474809D01*
X50057142Y-71212904D02*
X50080951Y-71165285D01*
X50080951Y-71165285D02*
X50128570Y-71141476D01*
X50128570Y-71141476D02*
X50199999Y-71141476D01*
X50199999Y-71141476D02*
X50247618Y-71165285D01*
X50247618Y-71165285D02*
X50271428Y-71212904D01*
X50271428Y-71212904D02*
X50271428Y-71474809D01*
X50890475Y-71474809D02*
X50890475Y-70974809D01*
X50890475Y-70974809D02*
X51057142Y-71331952D01*
X51057142Y-71331952D02*
X51223808Y-70974809D01*
X51223808Y-70974809D02*
X51223808Y-71474809D01*
X51652380Y-71451000D02*
X51604761Y-71474809D01*
X51604761Y-71474809D02*
X51509523Y-71474809D01*
X51509523Y-71474809D02*
X51461904Y-71451000D01*
X51461904Y-71451000D02*
X51438095Y-71403380D01*
X51438095Y-71403380D02*
X51438095Y-71212904D01*
X51438095Y-71212904D02*
X51461904Y-71165285D01*
X51461904Y-71165285D02*
X51509523Y-71141476D01*
X51509523Y-71141476D02*
X51604761Y-71141476D01*
X51604761Y-71141476D02*
X51652380Y-71165285D01*
X51652380Y-71165285D02*
X51676190Y-71212904D01*
X51676190Y-71212904D02*
X51676190Y-71260523D01*
X51676190Y-71260523D02*
X51438095Y-71308142D01*
X51890475Y-71474809D02*
X51890475Y-71141476D01*
X51890475Y-71189095D02*
X51914285Y-71165285D01*
X51914285Y-71165285D02*
X51961904Y-71141476D01*
X51961904Y-71141476D02*
X52033332Y-71141476D01*
X52033332Y-71141476D02*
X52080951Y-71165285D01*
X52080951Y-71165285D02*
X52104761Y-71212904D01*
X52104761Y-71212904D02*
X52104761Y-71474809D01*
X52104761Y-71212904D02*
X52128570Y-71165285D01*
X52128570Y-71165285D02*
X52176189Y-71141476D01*
X52176189Y-71141476D02*
X52247618Y-71141476D01*
X52247618Y-71141476D02*
X52295237Y-71165285D01*
X52295237Y-71165285D02*
X52319047Y-71212904D01*
X52319047Y-71212904D02*
X52319047Y-71474809D01*
X52557142Y-71474809D02*
X52557142Y-70974809D01*
X52557142Y-71165285D02*
X52604761Y-71141476D01*
X52604761Y-71141476D02*
X52699999Y-71141476D01*
X52699999Y-71141476D02*
X52747618Y-71165285D01*
X52747618Y-71165285D02*
X52771428Y-71189095D01*
X52771428Y-71189095D02*
X52795237Y-71236714D01*
X52795237Y-71236714D02*
X52795237Y-71379571D01*
X52795237Y-71379571D02*
X52771428Y-71427190D01*
X52771428Y-71427190D02*
X52747618Y-71451000D01*
X52747618Y-71451000D02*
X52699999Y-71474809D01*
X52699999Y-71474809D02*
X52604761Y-71474809D01*
X52604761Y-71474809D02*
X52557142Y-71451000D01*
X53199999Y-71451000D02*
X53152380Y-71474809D01*
X53152380Y-71474809D02*
X53057142Y-71474809D01*
X53057142Y-71474809D02*
X53009523Y-71451000D01*
X53009523Y-71451000D02*
X52985714Y-71403380D01*
X52985714Y-71403380D02*
X52985714Y-71212904D01*
X52985714Y-71212904D02*
X53009523Y-71165285D01*
X53009523Y-71165285D02*
X53057142Y-71141476D01*
X53057142Y-71141476D02*
X53152380Y-71141476D01*
X53152380Y-71141476D02*
X53199999Y-71165285D01*
X53199999Y-71165285D02*
X53223809Y-71212904D01*
X53223809Y-71212904D02*
X53223809Y-71260523D01*
X53223809Y-71260523D02*
X52985714Y-71308142D01*
X53438094Y-71474809D02*
X53438094Y-71141476D01*
X53438094Y-71236714D02*
X53461904Y-71189095D01*
X53461904Y-71189095D02*
X53485713Y-71165285D01*
X53485713Y-71165285D02*
X53533332Y-71141476D01*
X53533332Y-71141476D02*
X53580951Y-71141476D01*
X53723809Y-71451000D02*
X53771428Y-71474809D01*
X53771428Y-71474809D02*
X53866666Y-71474809D01*
X53866666Y-71474809D02*
X53914285Y-71451000D01*
X53914285Y-71451000D02*
X53938094Y-71403380D01*
X53938094Y-71403380D02*
X53938094Y-71379571D01*
X53938094Y-71379571D02*
X53914285Y-71331952D01*
X53914285Y-71331952D02*
X53866666Y-71308142D01*
X53866666Y-71308142D02*
X53795237Y-71308142D01*
X53795237Y-71308142D02*
X53747618Y-71284333D01*
X53747618Y-71284333D02*
X53723809Y-71236714D01*
X53723809Y-71236714D02*
X53723809Y-71212904D01*
X53723809Y-71212904D02*
X53747618Y-71165285D01*
X53747618Y-71165285D02*
X53795237Y-71141476D01*
X53795237Y-71141476D02*
X53866666Y-71141476D01*
X53866666Y-71141476D02*
X53914285Y-71165285D01*
X54152380Y-71427190D02*
X54176190Y-71451000D01*
X54176190Y-71451000D02*
X54152380Y-71474809D01*
X54152380Y-71474809D02*
X54128571Y-71451000D01*
X54128571Y-71451000D02*
X54152380Y-71427190D01*
X54152380Y-71427190D02*
X54152380Y-71474809D01*
X54152380Y-71165285D02*
X54176190Y-71189095D01*
X54176190Y-71189095D02*
X54152380Y-71212904D01*
X54152380Y-71212904D02*
X54128571Y-71189095D01*
X54128571Y-71189095D02*
X54152380Y-71165285D01*
X54152380Y-71165285D02*
X54152380Y-71212904D01*
X55057141Y-71474809D02*
X54890475Y-71236714D01*
X54771427Y-71474809D02*
X54771427Y-70974809D01*
X54771427Y-70974809D02*
X54961903Y-70974809D01*
X54961903Y-70974809D02*
X55009522Y-70998619D01*
X55009522Y-70998619D02*
X55033332Y-71022428D01*
X55033332Y-71022428D02*
X55057141Y-71070047D01*
X55057141Y-71070047D02*
X55057141Y-71141476D01*
X55057141Y-71141476D02*
X55033332Y-71189095D01*
X55033332Y-71189095D02*
X55009522Y-71212904D01*
X55009522Y-71212904D02*
X54961903Y-71236714D01*
X54961903Y-71236714D02*
X54771427Y-71236714D01*
X55485713Y-71141476D02*
X55485713Y-71474809D01*
X55271427Y-71141476D02*
X55271427Y-71403380D01*
X55271427Y-71403380D02*
X55295237Y-71451000D01*
X55295237Y-71451000D02*
X55342856Y-71474809D01*
X55342856Y-71474809D02*
X55414284Y-71474809D01*
X55414284Y-71474809D02*
X55461903Y-71451000D01*
X55461903Y-71451000D02*
X55485713Y-71427190D01*
X55723808Y-71474809D02*
X55723808Y-70974809D01*
X55938094Y-71474809D02*
X55938094Y-71212904D01*
X55938094Y-71212904D02*
X55914284Y-71165285D01*
X55914284Y-71165285D02*
X55866665Y-71141476D01*
X55866665Y-71141476D02*
X55795237Y-71141476D01*
X55795237Y-71141476D02*
X55747618Y-71165285D01*
X55747618Y-71165285D02*
X55723808Y-71189095D01*
X56390475Y-71141476D02*
X56390475Y-71474809D01*
X56176189Y-71141476D02*
X56176189Y-71403380D01*
X56176189Y-71403380D02*
X56199999Y-71451000D01*
X56199999Y-71451000D02*
X56247618Y-71474809D01*
X56247618Y-71474809D02*
X56319046Y-71474809D01*
X56319046Y-71474809D02*
X56366665Y-71451000D01*
X56366665Y-71451000D02*
X56390475Y-71427190D01*
X56699999Y-71474809D02*
X56652380Y-71451000D01*
X56652380Y-71451000D02*
X56628570Y-71403380D01*
X56628570Y-71403380D02*
X56628570Y-70974809D01*
X57604760Y-71522428D02*
X57557141Y-71498619D01*
X57557141Y-71498619D02*
X57509522Y-71451000D01*
X57509522Y-71451000D02*
X57438094Y-71379571D01*
X57438094Y-71379571D02*
X57390475Y-71355761D01*
X57390475Y-71355761D02*
X57342856Y-71355761D01*
X57366665Y-71474809D02*
X57319046Y-71451000D01*
X57319046Y-71451000D02*
X57271427Y-71403380D01*
X57271427Y-71403380D02*
X57247618Y-71308142D01*
X57247618Y-71308142D02*
X57247618Y-71141476D01*
X57247618Y-71141476D02*
X57271427Y-71046238D01*
X57271427Y-71046238D02*
X57319046Y-70998619D01*
X57319046Y-70998619D02*
X57366665Y-70974809D01*
X57366665Y-70974809D02*
X57461903Y-70974809D01*
X57461903Y-70974809D02*
X57509522Y-70998619D01*
X57509522Y-70998619D02*
X57557141Y-71046238D01*
X57557141Y-71046238D02*
X57580951Y-71141476D01*
X57580951Y-71141476D02*
X57580951Y-71308142D01*
X57580951Y-71308142D02*
X57557141Y-71403380D01*
X57557141Y-71403380D02*
X57509522Y-71451000D01*
X57509522Y-71451000D02*
X57461903Y-71474809D01*
X57461903Y-71474809D02*
X57366665Y-71474809D01*
X58009523Y-71141476D02*
X58009523Y-71474809D01*
X57795237Y-71141476D02*
X57795237Y-71403380D01*
X57795237Y-71403380D02*
X57819047Y-71451000D01*
X57819047Y-71451000D02*
X57866666Y-71474809D01*
X57866666Y-71474809D02*
X57938094Y-71474809D01*
X57938094Y-71474809D02*
X57985713Y-71451000D01*
X57985713Y-71451000D02*
X58009523Y-71427190D01*
X58461904Y-71474809D02*
X58461904Y-70974809D01*
X58461904Y-71451000D02*
X58414285Y-71474809D01*
X58414285Y-71474809D02*
X58319047Y-71474809D01*
X58319047Y-71474809D02*
X58271428Y-71451000D01*
X58271428Y-71451000D02*
X58247618Y-71427190D01*
X58247618Y-71427190D02*
X58223809Y-71379571D01*
X58223809Y-71379571D02*
X58223809Y-71236714D01*
X58223809Y-71236714D02*
X58247618Y-71189095D01*
X58247618Y-71189095D02*
X58271428Y-71165285D01*
X58271428Y-71165285D02*
X58319047Y-71141476D01*
X58319047Y-71141476D02*
X58414285Y-71141476D01*
X58414285Y-71141476D02*
X58461904Y-71165285D01*
X58914285Y-71474809D02*
X58914285Y-70974809D01*
X58914285Y-71451000D02*
X58866666Y-71474809D01*
X58866666Y-71474809D02*
X58771428Y-71474809D01*
X58771428Y-71474809D02*
X58723809Y-71451000D01*
X58723809Y-71451000D02*
X58699999Y-71427190D01*
X58699999Y-71427190D02*
X58676190Y-71379571D01*
X58676190Y-71379571D02*
X58676190Y-71236714D01*
X58676190Y-71236714D02*
X58699999Y-71189095D01*
X58699999Y-71189095D02*
X58723809Y-71165285D01*
X58723809Y-71165285D02*
X58771428Y-71141476D01*
X58771428Y-71141476D02*
X58866666Y-71141476D01*
X58866666Y-71141476D02*
X58914285Y-71165285D01*
X59366666Y-71141476D02*
X59366666Y-71474809D01*
X59152380Y-71141476D02*
X59152380Y-71403380D01*
X59152380Y-71403380D02*
X59176190Y-71451000D01*
X59176190Y-71451000D02*
X59223809Y-71474809D01*
X59223809Y-71474809D02*
X59295237Y-71474809D01*
X59295237Y-71474809D02*
X59342856Y-71451000D01*
X59342856Y-71451000D02*
X59366666Y-71427190D01*
X59580952Y-71451000D02*
X59628571Y-71474809D01*
X59628571Y-71474809D02*
X59723809Y-71474809D01*
X59723809Y-71474809D02*
X59771428Y-71451000D01*
X59771428Y-71451000D02*
X59795237Y-71403380D01*
X59795237Y-71403380D02*
X59795237Y-71379571D01*
X59795237Y-71379571D02*
X59771428Y-71331952D01*
X59771428Y-71331952D02*
X59723809Y-71308142D01*
X59723809Y-71308142D02*
X59652380Y-71308142D01*
X59652380Y-71308142D02*
X59604761Y-71284333D01*
X59604761Y-71284333D02*
X59580952Y-71236714D01*
X59580952Y-71236714D02*
X59580952Y-71212904D01*
X59580952Y-71212904D02*
X59604761Y-71165285D01*
X59604761Y-71165285D02*
X59652380Y-71141476D01*
X59652380Y-71141476D02*
X59723809Y-71141476D01*
X59723809Y-71141476D02*
X59771428Y-71165285D01*
X60033333Y-71451000D02*
X60033333Y-71474809D01*
X60033333Y-71474809D02*
X60009523Y-71522428D01*
X60009523Y-71522428D02*
X59985714Y-71546238D01*
X60890475Y-70998619D02*
X60842856Y-70974809D01*
X60842856Y-70974809D02*
X60771427Y-70974809D01*
X60771427Y-70974809D02*
X60699999Y-70998619D01*
X60699999Y-70998619D02*
X60652380Y-71046238D01*
X60652380Y-71046238D02*
X60628570Y-71093857D01*
X60628570Y-71093857D02*
X60604761Y-71189095D01*
X60604761Y-71189095D02*
X60604761Y-71260523D01*
X60604761Y-71260523D02*
X60628570Y-71355761D01*
X60628570Y-71355761D02*
X60652380Y-71403380D01*
X60652380Y-71403380D02*
X60699999Y-71451000D01*
X60699999Y-71451000D02*
X60771427Y-71474809D01*
X60771427Y-71474809D02*
X60819046Y-71474809D01*
X60819046Y-71474809D02*
X60890475Y-71451000D01*
X60890475Y-71451000D02*
X60914284Y-71427190D01*
X60914284Y-71427190D02*
X60914284Y-71260523D01*
X60914284Y-71260523D02*
X60819046Y-71260523D01*
X61199999Y-71474809D02*
X61152380Y-71451000D01*
X61152380Y-71451000D02*
X61128570Y-71427190D01*
X61128570Y-71427190D02*
X61104761Y-71379571D01*
X61104761Y-71379571D02*
X61104761Y-71236714D01*
X61104761Y-71236714D02*
X61128570Y-71189095D01*
X61128570Y-71189095D02*
X61152380Y-71165285D01*
X61152380Y-71165285D02*
X61199999Y-71141476D01*
X61199999Y-71141476D02*
X61271427Y-71141476D01*
X61271427Y-71141476D02*
X61319046Y-71165285D01*
X61319046Y-71165285D02*
X61342856Y-71189095D01*
X61342856Y-71189095D02*
X61366665Y-71236714D01*
X61366665Y-71236714D02*
X61366665Y-71379571D01*
X61366665Y-71379571D02*
X61342856Y-71427190D01*
X61342856Y-71427190D02*
X61319046Y-71451000D01*
X61319046Y-71451000D02*
X61271427Y-71474809D01*
X61271427Y-71474809D02*
X61199999Y-71474809D01*
X61795237Y-71141476D02*
X61795237Y-71474809D01*
X61580951Y-71141476D02*
X61580951Y-71403380D01*
X61580951Y-71403380D02*
X61604761Y-71451000D01*
X61604761Y-71451000D02*
X61652380Y-71474809D01*
X61652380Y-71474809D02*
X61723808Y-71474809D01*
X61723808Y-71474809D02*
X61771427Y-71451000D01*
X61771427Y-71451000D02*
X61795237Y-71427190D01*
X61961904Y-71141476D02*
X62152380Y-71141476D01*
X62033332Y-70974809D02*
X62033332Y-71403380D01*
X62033332Y-71403380D02*
X62057142Y-71451000D01*
X62057142Y-71451000D02*
X62104761Y-71474809D01*
X62104761Y-71474809D02*
X62152380Y-71474809D01*
X62319046Y-71474809D02*
X62319046Y-70974809D01*
X62533332Y-71474809D02*
X62533332Y-71212904D01*
X62533332Y-71212904D02*
X62509522Y-71165285D01*
X62509522Y-71165285D02*
X62461903Y-71141476D01*
X62461903Y-71141476D02*
X62390475Y-71141476D01*
X62390475Y-71141476D02*
X62342856Y-71165285D01*
X62342856Y-71165285D02*
X62319046Y-71189095D01*
X62985713Y-71474809D02*
X62985713Y-71212904D01*
X62985713Y-71212904D02*
X62961903Y-71165285D01*
X62961903Y-71165285D02*
X62914284Y-71141476D01*
X62914284Y-71141476D02*
X62819046Y-71141476D01*
X62819046Y-71141476D02*
X62771427Y-71165285D01*
X62985713Y-71451000D02*
X62938094Y-71474809D01*
X62938094Y-71474809D02*
X62819046Y-71474809D01*
X62819046Y-71474809D02*
X62771427Y-71451000D01*
X62771427Y-71451000D02*
X62747618Y-71403380D01*
X62747618Y-71403380D02*
X62747618Y-71355761D01*
X62747618Y-71355761D02*
X62771427Y-71308142D01*
X62771427Y-71308142D02*
X62819046Y-71284333D01*
X62819046Y-71284333D02*
X62938094Y-71284333D01*
X62938094Y-71284333D02*
X62985713Y-71260523D01*
X63223808Y-71474809D02*
X63223808Y-71141476D01*
X63223808Y-71189095D02*
X63247618Y-71165285D01*
X63247618Y-71165285D02*
X63295237Y-71141476D01*
X63295237Y-71141476D02*
X63366665Y-71141476D01*
X63366665Y-71141476D02*
X63414284Y-71165285D01*
X63414284Y-71165285D02*
X63438094Y-71212904D01*
X63438094Y-71212904D02*
X63438094Y-71474809D01*
X63438094Y-71212904D02*
X63461903Y-71165285D01*
X63461903Y-71165285D02*
X63509522Y-71141476D01*
X63509522Y-71141476D02*
X63580951Y-71141476D01*
X63580951Y-71141476D02*
X63628570Y-71165285D01*
X63628570Y-71165285D02*
X63652380Y-71212904D01*
X63652380Y-71212904D02*
X63652380Y-71474809D01*
X64271427Y-71474809D02*
X64271427Y-70974809D01*
X64271427Y-70974809D02*
X64438094Y-71331952D01*
X64438094Y-71331952D02*
X64604760Y-70974809D01*
X64604760Y-70974809D02*
X64604760Y-71474809D01*
X64842856Y-71474809D02*
X64842856Y-71141476D01*
X64842856Y-70974809D02*
X64819047Y-70998619D01*
X64819047Y-70998619D02*
X64842856Y-71022428D01*
X64842856Y-71022428D02*
X64866666Y-70998619D01*
X64866666Y-70998619D02*
X64842856Y-70974809D01*
X64842856Y-70974809D02*
X64842856Y-71022428D01*
X65009523Y-71141476D02*
X65199999Y-71141476D01*
X65080951Y-70974809D02*
X65080951Y-71403380D01*
X65080951Y-71403380D02*
X65104761Y-71451000D01*
X65104761Y-71451000D02*
X65152380Y-71474809D01*
X65152380Y-71474809D02*
X65199999Y-71474809D01*
X65295237Y-71141476D02*
X65485713Y-71141476D01*
X65366665Y-70974809D02*
X65366665Y-71403380D01*
X65366665Y-71403380D02*
X65390475Y-71451000D01*
X65390475Y-71451000D02*
X65438094Y-71474809D01*
X65438094Y-71474809D02*
X65485713Y-71474809D01*
X65866665Y-71474809D02*
X65866665Y-71212904D01*
X65866665Y-71212904D02*
X65842855Y-71165285D01*
X65842855Y-71165285D02*
X65795236Y-71141476D01*
X65795236Y-71141476D02*
X65699998Y-71141476D01*
X65699998Y-71141476D02*
X65652379Y-71165285D01*
X65866665Y-71451000D02*
X65819046Y-71474809D01*
X65819046Y-71474809D02*
X65699998Y-71474809D01*
X65699998Y-71474809D02*
X65652379Y-71451000D01*
X65652379Y-71451000D02*
X65628570Y-71403380D01*
X65628570Y-71403380D02*
X65628570Y-71355761D01*
X65628570Y-71355761D02*
X65652379Y-71308142D01*
X65652379Y-71308142D02*
X65699998Y-71284333D01*
X65699998Y-71284333D02*
X65819046Y-71284333D01*
X65819046Y-71284333D02*
X65866665Y-71260523D01*
X66319046Y-71474809D02*
X66319046Y-70974809D01*
X66319046Y-71451000D02*
X66271427Y-71474809D01*
X66271427Y-71474809D02*
X66176189Y-71474809D01*
X66176189Y-71474809D02*
X66128570Y-71451000D01*
X66128570Y-71451000D02*
X66104760Y-71427190D01*
X66104760Y-71427190D02*
X66080951Y-71379571D01*
X66080951Y-71379571D02*
X66080951Y-71236714D01*
X66080951Y-71236714D02*
X66104760Y-71189095D01*
X66104760Y-71189095D02*
X66128570Y-71165285D01*
X66128570Y-71165285D02*
X66176189Y-71141476D01*
X66176189Y-71141476D02*
X66271427Y-71141476D01*
X66271427Y-71141476D02*
X66319046Y-71165285D01*
X66557141Y-71474809D02*
X66557141Y-70974809D01*
X66771427Y-71474809D02*
X66771427Y-71212904D01*
X66771427Y-71212904D02*
X66747617Y-71165285D01*
X66747617Y-71165285D02*
X66699998Y-71141476D01*
X66699998Y-71141476D02*
X66628570Y-71141476D01*
X66628570Y-71141476D02*
X66580951Y-71165285D01*
X66580951Y-71165285D02*
X66557141Y-71189095D01*
X67080951Y-71474809D02*
X67033332Y-71451000D01*
X67033332Y-71451000D02*
X67009522Y-71427190D01*
X67009522Y-71427190D02*
X66985713Y-71379571D01*
X66985713Y-71379571D02*
X66985713Y-71236714D01*
X66985713Y-71236714D02*
X67009522Y-71189095D01*
X67009522Y-71189095D02*
X67033332Y-71165285D01*
X67033332Y-71165285D02*
X67080951Y-71141476D01*
X67080951Y-71141476D02*
X67152379Y-71141476D01*
X67152379Y-71141476D02*
X67199998Y-71165285D01*
X67199998Y-71165285D02*
X67223808Y-71189095D01*
X67223808Y-71189095D02*
X67247617Y-71236714D01*
X67247617Y-71236714D02*
X67247617Y-71379571D01*
X67247617Y-71379571D02*
X67223808Y-71427190D01*
X67223808Y-71427190D02*
X67199998Y-71451000D01*
X67199998Y-71451000D02*
X67152379Y-71474809D01*
X67152379Y-71474809D02*
X67080951Y-71474809D01*
X67676189Y-71474809D02*
X67676189Y-70974809D01*
X67676189Y-71451000D02*
X67628570Y-71474809D01*
X67628570Y-71474809D02*
X67533332Y-71474809D01*
X67533332Y-71474809D02*
X67485713Y-71451000D01*
X67485713Y-71451000D02*
X67461903Y-71427190D01*
X67461903Y-71427190D02*
X67438094Y-71379571D01*
X67438094Y-71379571D02*
X67438094Y-71236714D01*
X67438094Y-71236714D02*
X67461903Y-71189095D01*
X67461903Y-71189095D02*
X67485713Y-71165285D01*
X67485713Y-71165285D02*
X67533332Y-71141476D01*
X67533332Y-71141476D02*
X67628570Y-71141476D01*
X67628570Y-71141476D02*
X67676189Y-71165285D01*
X68128570Y-71474809D02*
X68128570Y-70974809D01*
X68128570Y-71451000D02*
X68080951Y-71474809D01*
X68080951Y-71474809D02*
X67985713Y-71474809D01*
X67985713Y-71474809D02*
X67938094Y-71451000D01*
X67938094Y-71451000D02*
X67914284Y-71427190D01*
X67914284Y-71427190D02*
X67890475Y-71379571D01*
X67890475Y-71379571D02*
X67890475Y-71236714D01*
X67890475Y-71236714D02*
X67914284Y-71189095D01*
X67914284Y-71189095D02*
X67938094Y-71165285D01*
X67938094Y-71165285D02*
X67985713Y-71141476D01*
X67985713Y-71141476D02*
X68080951Y-71141476D01*
X68080951Y-71141476D02*
X68128570Y-71165285D01*
X68366665Y-71474809D02*
X68366665Y-71141476D01*
X68366665Y-70974809D02*
X68342856Y-70998619D01*
X68342856Y-70998619D02*
X68366665Y-71022428D01*
X68366665Y-71022428D02*
X68390475Y-70998619D01*
X68390475Y-70998619D02*
X68366665Y-70974809D01*
X68366665Y-70974809D02*
X68366665Y-71022428D01*
X68628570Y-71451000D02*
X68628570Y-71474809D01*
X68628570Y-71474809D02*
X68604760Y-71522428D01*
X68604760Y-71522428D02*
X68580951Y-71546238D01*
X69223807Y-71474809D02*
X69223807Y-70974809D01*
X69223807Y-70974809D02*
X69509521Y-71474809D01*
X69509521Y-71474809D02*
X69509521Y-70974809D01*
X69747617Y-71474809D02*
X69747617Y-71141476D01*
X69747617Y-70974809D02*
X69723808Y-70998619D01*
X69723808Y-70998619D02*
X69747617Y-71022428D01*
X69747617Y-71022428D02*
X69771427Y-70998619D01*
X69771427Y-70998619D02*
X69747617Y-70974809D01*
X69747617Y-70974809D02*
X69747617Y-71022428D01*
X69985712Y-71474809D02*
X69985712Y-71141476D01*
X69985712Y-71189095D02*
X70009522Y-71165285D01*
X70009522Y-71165285D02*
X70057141Y-71141476D01*
X70057141Y-71141476D02*
X70128569Y-71141476D01*
X70128569Y-71141476D02*
X70176188Y-71165285D01*
X70176188Y-71165285D02*
X70199998Y-71212904D01*
X70199998Y-71212904D02*
X70199998Y-71474809D01*
X70199998Y-71212904D02*
X70223807Y-71165285D01*
X70223807Y-71165285D02*
X70271426Y-71141476D01*
X70271426Y-71141476D02*
X70342855Y-71141476D01*
X70342855Y-71141476D02*
X70390474Y-71165285D01*
X70390474Y-71165285D02*
X70414284Y-71212904D01*
X70414284Y-71212904D02*
X70414284Y-71474809D01*
X70866665Y-71474809D02*
X70866665Y-71212904D01*
X70866665Y-71212904D02*
X70842855Y-71165285D01*
X70842855Y-71165285D02*
X70795236Y-71141476D01*
X70795236Y-71141476D02*
X70699998Y-71141476D01*
X70699998Y-71141476D02*
X70652379Y-71165285D01*
X70866665Y-71451000D02*
X70819046Y-71474809D01*
X70819046Y-71474809D02*
X70699998Y-71474809D01*
X70699998Y-71474809D02*
X70652379Y-71451000D01*
X70652379Y-71451000D02*
X70628570Y-71403380D01*
X70628570Y-71403380D02*
X70628570Y-71355761D01*
X70628570Y-71355761D02*
X70652379Y-71308142D01*
X70652379Y-71308142D02*
X70699998Y-71284333D01*
X70699998Y-71284333D02*
X70819046Y-71284333D01*
X70819046Y-71284333D02*
X70866665Y-71260523D01*
X71771426Y-71474809D02*
X71604760Y-71236714D01*
X71485712Y-71474809D02*
X71485712Y-70974809D01*
X71485712Y-70974809D02*
X71676188Y-70974809D01*
X71676188Y-70974809D02*
X71723807Y-70998619D01*
X71723807Y-70998619D02*
X71747617Y-71022428D01*
X71747617Y-71022428D02*
X71771426Y-71070047D01*
X71771426Y-71070047D02*
X71771426Y-71141476D01*
X71771426Y-71141476D02*
X71747617Y-71189095D01*
X71747617Y-71189095D02*
X71723807Y-71212904D01*
X71723807Y-71212904D02*
X71676188Y-71236714D01*
X71676188Y-71236714D02*
X71485712Y-71236714D01*
X72199998Y-71474809D02*
X72199998Y-71212904D01*
X72199998Y-71212904D02*
X72176188Y-71165285D01*
X72176188Y-71165285D02*
X72128569Y-71141476D01*
X72128569Y-71141476D02*
X72033331Y-71141476D01*
X72033331Y-71141476D02*
X71985712Y-71165285D01*
X72199998Y-71451000D02*
X72152379Y-71474809D01*
X72152379Y-71474809D02*
X72033331Y-71474809D01*
X72033331Y-71474809D02*
X71985712Y-71451000D01*
X71985712Y-71451000D02*
X71961903Y-71403380D01*
X71961903Y-71403380D02*
X71961903Y-71355761D01*
X71961903Y-71355761D02*
X71985712Y-71308142D01*
X71985712Y-71308142D02*
X72033331Y-71284333D01*
X72033331Y-71284333D02*
X72152379Y-71284333D01*
X72152379Y-71284333D02*
X72199998Y-71260523D01*
X72390474Y-71141476D02*
X72652379Y-71141476D01*
X72652379Y-71141476D02*
X72390474Y-71474809D01*
X72390474Y-71474809D02*
X72652379Y-71474809D01*
X73057141Y-71474809D02*
X73057141Y-71212904D01*
X73057141Y-71212904D02*
X73033331Y-71165285D01*
X73033331Y-71165285D02*
X72985712Y-71141476D01*
X72985712Y-71141476D02*
X72890474Y-71141476D01*
X72890474Y-71141476D02*
X72842855Y-71165285D01*
X73057141Y-71451000D02*
X73009522Y-71474809D01*
X73009522Y-71474809D02*
X72890474Y-71474809D01*
X72890474Y-71474809D02*
X72842855Y-71451000D01*
X72842855Y-71451000D02*
X72819046Y-71403380D01*
X72819046Y-71403380D02*
X72819046Y-71355761D01*
X72819046Y-71355761D02*
X72842855Y-71308142D01*
X72842855Y-71308142D02*
X72890474Y-71284333D01*
X72890474Y-71284333D02*
X73009522Y-71284333D01*
X73009522Y-71284333D02*
X73057141Y-71260523D01*
X73247617Y-71141476D02*
X73366665Y-71474809D01*
X73366665Y-71474809D02*
X73485712Y-71141476D01*
X73676188Y-71474809D02*
X73676188Y-71141476D01*
X73676188Y-70974809D02*
X73652379Y-70998619D01*
X73652379Y-70998619D02*
X73676188Y-71022428D01*
X73676188Y-71022428D02*
X73699998Y-70998619D01*
X73699998Y-70998619D02*
X73676188Y-70974809D01*
X73676188Y-70974809D02*
X73676188Y-71022428D01*
X73938093Y-71451000D02*
X73938093Y-71474809D01*
X73938093Y-71474809D02*
X73914283Y-71522428D01*
X73914283Y-71522428D02*
X73890474Y-71546238D01*
X74533330Y-71474809D02*
X74533330Y-70974809D01*
X74985711Y-71474809D02*
X74985711Y-71212904D01*
X74985711Y-71212904D02*
X74961901Y-71165285D01*
X74961901Y-71165285D02*
X74914282Y-71141476D01*
X74914282Y-71141476D02*
X74819044Y-71141476D01*
X74819044Y-71141476D02*
X74771425Y-71165285D01*
X74985711Y-71451000D02*
X74938092Y-71474809D01*
X74938092Y-71474809D02*
X74819044Y-71474809D01*
X74819044Y-71474809D02*
X74771425Y-71451000D01*
X74771425Y-71451000D02*
X74747616Y-71403380D01*
X74747616Y-71403380D02*
X74747616Y-71355761D01*
X74747616Y-71355761D02*
X74771425Y-71308142D01*
X74771425Y-71308142D02*
X74819044Y-71284333D01*
X74819044Y-71284333D02*
X74938092Y-71284333D01*
X74938092Y-71284333D02*
X74985711Y-71260523D01*
X75223806Y-71141476D02*
X75223806Y-71474809D01*
X75223806Y-71189095D02*
X75247616Y-71165285D01*
X75247616Y-71165285D02*
X75295235Y-71141476D01*
X75295235Y-71141476D02*
X75366663Y-71141476D01*
X75366663Y-71141476D02*
X75414282Y-71165285D01*
X75414282Y-71165285D02*
X75438092Y-71212904D01*
X75438092Y-71212904D02*
X75438092Y-71474809D01*
X76295234Y-71474809D02*
X76057139Y-71474809D01*
X76057139Y-71474809D02*
X76057139Y-70974809D01*
X76652377Y-71451000D02*
X76604758Y-71474809D01*
X76604758Y-71474809D02*
X76509520Y-71474809D01*
X76509520Y-71474809D02*
X76461901Y-71451000D01*
X76461901Y-71451000D02*
X76438092Y-71403380D01*
X76438092Y-71403380D02*
X76438092Y-71212904D01*
X76438092Y-71212904D02*
X76461901Y-71165285D01*
X76461901Y-71165285D02*
X76509520Y-71141476D01*
X76509520Y-71141476D02*
X76604758Y-71141476D01*
X76604758Y-71141476D02*
X76652377Y-71165285D01*
X76652377Y-71165285D02*
X76676187Y-71212904D01*
X76676187Y-71212904D02*
X76676187Y-71260523D01*
X76676187Y-71260523D02*
X76438092Y-71308142D01*
X76914282Y-71451000D02*
X76914282Y-71474809D01*
X76914282Y-71474809D02*
X76890472Y-71522428D01*
X76890472Y-71522428D02*
X76866663Y-71546238D01*
X77509519Y-71474809D02*
X77509519Y-70974809D01*
X77795233Y-71474809D02*
X77580948Y-71189095D01*
X77795233Y-70974809D02*
X77509519Y-71260523D01*
X78199995Y-71451000D02*
X78152376Y-71474809D01*
X78152376Y-71474809D02*
X78057138Y-71474809D01*
X78057138Y-71474809D02*
X78009519Y-71451000D01*
X78009519Y-71451000D02*
X77985710Y-71403380D01*
X77985710Y-71403380D02*
X77985710Y-71212904D01*
X77985710Y-71212904D02*
X78009519Y-71165285D01*
X78009519Y-71165285D02*
X78057138Y-71141476D01*
X78057138Y-71141476D02*
X78152376Y-71141476D01*
X78152376Y-71141476D02*
X78199995Y-71165285D01*
X78199995Y-71165285D02*
X78223805Y-71212904D01*
X78223805Y-71212904D02*
X78223805Y-71260523D01*
X78223805Y-71260523D02*
X77985710Y-71308142D01*
X78438090Y-71141476D02*
X78438090Y-71474809D01*
X78438090Y-71189095D02*
X78461900Y-71165285D01*
X78461900Y-71165285D02*
X78509519Y-71141476D01*
X78509519Y-71141476D02*
X78580947Y-71141476D01*
X78580947Y-71141476D02*
X78628566Y-71165285D01*
X78628566Y-71165285D02*
X78652376Y-71212904D01*
X78652376Y-71212904D02*
X78652376Y-71474809D01*
X78890471Y-71141476D02*
X78890471Y-71474809D01*
X78890471Y-71189095D02*
X78914281Y-71165285D01*
X78914281Y-71165285D02*
X78961900Y-71141476D01*
X78961900Y-71141476D02*
X79033328Y-71141476D01*
X79033328Y-71141476D02*
X79080947Y-71165285D01*
X79080947Y-71165285D02*
X79104757Y-71212904D01*
X79104757Y-71212904D02*
X79104757Y-71474809D01*
X79295233Y-71141476D02*
X79414281Y-71474809D01*
X79533328Y-71141476D02*
X79414281Y-71474809D01*
X79414281Y-71474809D02*
X79366662Y-71593857D01*
X79366662Y-71593857D02*
X79342852Y-71617666D01*
X79342852Y-71617666D02*
X79295233Y-71641476D01*
X80057137Y-70974809D02*
X80390470Y-70974809D01*
X80390470Y-70974809D02*
X80057137Y-71474809D01*
X80057137Y-71474809D02*
X80390470Y-71474809D01*
X80580946Y-71474809D02*
X80580946Y-70974809D01*
X80795232Y-71474809D02*
X80795232Y-71212904D01*
X80795232Y-71212904D02*
X80771422Y-71165285D01*
X80771422Y-71165285D02*
X80723803Y-71141476D01*
X80723803Y-71141476D02*
X80652375Y-71141476D01*
X80652375Y-71141476D02*
X80604756Y-71165285D01*
X80604756Y-71165285D02*
X80580946Y-71189095D01*
X81247613Y-71474809D02*
X81247613Y-71212904D01*
X81247613Y-71212904D02*
X81223803Y-71165285D01*
X81223803Y-71165285D02*
X81176184Y-71141476D01*
X81176184Y-71141476D02*
X81080946Y-71141476D01*
X81080946Y-71141476D02*
X81033327Y-71165285D01*
X81247613Y-71451000D02*
X81199994Y-71474809D01*
X81199994Y-71474809D02*
X81080946Y-71474809D01*
X81080946Y-71474809D02*
X81033327Y-71451000D01*
X81033327Y-71451000D02*
X81009518Y-71403380D01*
X81009518Y-71403380D02*
X81009518Y-71355761D01*
X81009518Y-71355761D02*
X81033327Y-71308142D01*
X81033327Y-71308142D02*
X81080946Y-71284333D01*
X81080946Y-71284333D02*
X81199994Y-71284333D01*
X81199994Y-71284333D02*
X81247613Y-71260523D01*
X81485708Y-71141476D02*
X81485708Y-71474809D01*
X81485708Y-71189095D02*
X81509518Y-71165285D01*
X81509518Y-71165285D02*
X81557137Y-71141476D01*
X81557137Y-71141476D02*
X81628565Y-71141476D01*
X81628565Y-71141476D02*
X81676184Y-71165285D01*
X81676184Y-71165285D02*
X81699994Y-71212904D01*
X81699994Y-71212904D02*
X81699994Y-71474809D01*
X82152375Y-71141476D02*
X82152375Y-71546238D01*
X82152375Y-71546238D02*
X82128565Y-71593857D01*
X82128565Y-71593857D02*
X82104756Y-71617666D01*
X82104756Y-71617666D02*
X82057137Y-71641476D01*
X82057137Y-71641476D02*
X81985708Y-71641476D01*
X81985708Y-71641476D02*
X81938089Y-71617666D01*
X82152375Y-71451000D02*
X82104756Y-71474809D01*
X82104756Y-71474809D02*
X82009518Y-71474809D01*
X82009518Y-71474809D02*
X81961899Y-71451000D01*
X81961899Y-71451000D02*
X81938089Y-71427190D01*
X81938089Y-71427190D02*
X81914280Y-71379571D01*
X81914280Y-71379571D02*
X81914280Y-71236714D01*
X81914280Y-71236714D02*
X81938089Y-71189095D01*
X81938089Y-71189095D02*
X81961899Y-71165285D01*
X81961899Y-71165285D02*
X82009518Y-71141476D01*
X82009518Y-71141476D02*
X82104756Y-71141476D01*
X82104756Y-71141476D02*
X82152375Y-71165285D01*
X37833333Y-80164809D02*
X37833333Y-80521952D01*
X37833333Y-80521952D02*
X37809524Y-80593380D01*
X37809524Y-80593380D02*
X37761905Y-80641000D01*
X37761905Y-80641000D02*
X37690476Y-80664809D01*
X37690476Y-80664809D02*
X37642857Y-80664809D01*
X38333333Y-80664809D02*
X38047619Y-80664809D01*
X38190476Y-80664809D02*
X38190476Y-80164809D01*
X38190476Y-80164809D02*
X38142857Y-80236238D01*
X38142857Y-80236238D02*
X38095238Y-80283857D01*
X38095238Y-80283857D02*
X38047619Y-80307666D01*
X39042382Y-80704809D02*
X39042382Y-80204809D01*
X39042382Y-80204809D02*
X39232858Y-80204809D01*
X39232858Y-80204809D02*
X39280477Y-80228619D01*
X39280477Y-80228619D02*
X39304287Y-80252428D01*
X39304287Y-80252428D02*
X39328096Y-80300047D01*
X39328096Y-80300047D02*
X39328096Y-80371476D01*
X39328096Y-80371476D02*
X39304287Y-80419095D01*
X39304287Y-80419095D02*
X39280477Y-80442904D01*
X39280477Y-80442904D02*
X39232858Y-80466714D01*
X39232858Y-80466714D02*
X39042382Y-80466714D01*
X39542382Y-80704809D02*
X39542382Y-80371476D01*
X39542382Y-80204809D02*
X39518573Y-80228619D01*
X39518573Y-80228619D02*
X39542382Y-80252428D01*
X39542382Y-80252428D02*
X39566192Y-80228619D01*
X39566192Y-80228619D02*
X39542382Y-80204809D01*
X39542382Y-80204809D02*
X39542382Y-80252428D01*
X39994763Y-80681000D02*
X39947144Y-80704809D01*
X39947144Y-80704809D02*
X39851906Y-80704809D01*
X39851906Y-80704809D02*
X39804287Y-80681000D01*
X39804287Y-80681000D02*
X39780477Y-80657190D01*
X39780477Y-80657190D02*
X39756668Y-80609571D01*
X39756668Y-80609571D02*
X39756668Y-80466714D01*
X39756668Y-80466714D02*
X39780477Y-80419095D01*
X39780477Y-80419095D02*
X39804287Y-80395285D01*
X39804287Y-80395285D02*
X39851906Y-80371476D01*
X39851906Y-80371476D02*
X39947144Y-80371476D01*
X39947144Y-80371476D02*
X39994763Y-80395285D01*
X40280477Y-80704809D02*
X40232858Y-80681000D01*
X40232858Y-80681000D02*
X40209048Y-80657190D01*
X40209048Y-80657190D02*
X40185239Y-80609571D01*
X40185239Y-80609571D02*
X40185239Y-80466714D01*
X40185239Y-80466714D02*
X40209048Y-80419095D01*
X40209048Y-80419095D02*
X40232858Y-80395285D01*
X40232858Y-80395285D02*
X40280477Y-80371476D01*
X40280477Y-80371476D02*
X40351905Y-80371476D01*
X40351905Y-80371476D02*
X40399524Y-80395285D01*
X40399524Y-80395285D02*
X40423334Y-80419095D01*
X40423334Y-80419095D02*
X40447143Y-80466714D01*
X40447143Y-80466714D02*
X40447143Y-80609571D01*
X40447143Y-80609571D02*
X40423334Y-80657190D01*
X40423334Y-80657190D02*
X40399524Y-80681000D01*
X40399524Y-80681000D02*
X40351905Y-80704809D01*
X40351905Y-80704809D02*
X40280477Y-80704809D01*
X41018572Y-80681000D02*
X41090000Y-80704809D01*
X41090000Y-80704809D02*
X41209048Y-80704809D01*
X41209048Y-80704809D02*
X41256667Y-80681000D01*
X41256667Y-80681000D02*
X41280476Y-80657190D01*
X41280476Y-80657190D02*
X41304286Y-80609571D01*
X41304286Y-80609571D02*
X41304286Y-80561952D01*
X41304286Y-80561952D02*
X41280476Y-80514333D01*
X41280476Y-80514333D02*
X41256667Y-80490523D01*
X41256667Y-80490523D02*
X41209048Y-80466714D01*
X41209048Y-80466714D02*
X41113810Y-80442904D01*
X41113810Y-80442904D02*
X41066191Y-80419095D01*
X41066191Y-80419095D02*
X41042381Y-80395285D01*
X41042381Y-80395285D02*
X41018572Y-80347666D01*
X41018572Y-80347666D02*
X41018572Y-80300047D01*
X41018572Y-80300047D02*
X41042381Y-80252428D01*
X41042381Y-80252428D02*
X41066191Y-80228619D01*
X41066191Y-80228619D02*
X41113810Y-80204809D01*
X41113810Y-80204809D02*
X41232857Y-80204809D01*
X41232857Y-80204809D02*
X41304286Y-80228619D01*
X41590000Y-80704809D02*
X41542381Y-80681000D01*
X41542381Y-80681000D02*
X41518571Y-80657190D01*
X41518571Y-80657190D02*
X41494762Y-80609571D01*
X41494762Y-80609571D02*
X41494762Y-80466714D01*
X41494762Y-80466714D02*
X41518571Y-80419095D01*
X41518571Y-80419095D02*
X41542381Y-80395285D01*
X41542381Y-80395285D02*
X41590000Y-80371476D01*
X41590000Y-80371476D02*
X41661428Y-80371476D01*
X41661428Y-80371476D02*
X41709047Y-80395285D01*
X41709047Y-80395285D02*
X41732857Y-80419095D01*
X41732857Y-80419095D02*
X41756666Y-80466714D01*
X41756666Y-80466714D02*
X41756666Y-80609571D01*
X41756666Y-80609571D02*
X41732857Y-80657190D01*
X41732857Y-80657190D02*
X41709047Y-80681000D01*
X41709047Y-80681000D02*
X41661428Y-80704809D01*
X41661428Y-80704809D02*
X41590000Y-80704809D01*
X42185238Y-80681000D02*
X42137619Y-80704809D01*
X42137619Y-80704809D02*
X42042381Y-80704809D01*
X42042381Y-80704809D02*
X41994762Y-80681000D01*
X41994762Y-80681000D02*
X41970952Y-80657190D01*
X41970952Y-80657190D02*
X41947143Y-80609571D01*
X41947143Y-80609571D02*
X41947143Y-80466714D01*
X41947143Y-80466714D02*
X41970952Y-80419095D01*
X41970952Y-80419095D02*
X41994762Y-80395285D01*
X41994762Y-80395285D02*
X42042381Y-80371476D01*
X42042381Y-80371476D02*
X42137619Y-80371476D01*
X42137619Y-80371476D02*
X42185238Y-80395285D01*
X42399523Y-80704809D02*
X42399523Y-80204809D01*
X42447142Y-80514333D02*
X42589999Y-80704809D01*
X42589999Y-80371476D02*
X42399523Y-80561952D01*
X42994761Y-80681000D02*
X42947142Y-80704809D01*
X42947142Y-80704809D02*
X42851904Y-80704809D01*
X42851904Y-80704809D02*
X42804285Y-80681000D01*
X42804285Y-80681000D02*
X42780476Y-80633380D01*
X42780476Y-80633380D02*
X42780476Y-80442904D01*
X42780476Y-80442904D02*
X42804285Y-80395285D01*
X42804285Y-80395285D02*
X42851904Y-80371476D01*
X42851904Y-80371476D02*
X42947142Y-80371476D01*
X42947142Y-80371476D02*
X42994761Y-80395285D01*
X42994761Y-80395285D02*
X43018571Y-80442904D01*
X43018571Y-80442904D02*
X43018571Y-80490523D01*
X43018571Y-80490523D02*
X42780476Y-80538142D01*
X43161428Y-80371476D02*
X43351904Y-80371476D01*
X43232856Y-80204809D02*
X43232856Y-80633380D01*
X43232856Y-80633380D02*
X43256666Y-80681000D01*
X43256666Y-80681000D02*
X43304285Y-80704809D01*
X43304285Y-80704809D02*
X43351904Y-80704809D01*
X44161427Y-80704809D02*
X43875713Y-80704809D01*
X44018570Y-80704809D02*
X44018570Y-80204809D01*
X44018570Y-80204809D02*
X43970951Y-80276238D01*
X43970951Y-80276238D02*
X43923332Y-80323857D01*
X43923332Y-80323857D02*
X43875713Y-80347666D01*
X39296666Y-99177190D02*
X39272857Y-99201000D01*
X39272857Y-99201000D02*
X39201428Y-99224809D01*
X39201428Y-99224809D02*
X39153809Y-99224809D01*
X39153809Y-99224809D02*
X39082381Y-99201000D01*
X39082381Y-99201000D02*
X39034762Y-99153380D01*
X39034762Y-99153380D02*
X39010952Y-99105761D01*
X39010952Y-99105761D02*
X38987143Y-99010523D01*
X38987143Y-99010523D02*
X38987143Y-98939095D01*
X38987143Y-98939095D02*
X39010952Y-98843857D01*
X39010952Y-98843857D02*
X39034762Y-98796238D01*
X39034762Y-98796238D02*
X39082381Y-98748619D01*
X39082381Y-98748619D02*
X39153809Y-98724809D01*
X39153809Y-98724809D02*
X39201428Y-98724809D01*
X39201428Y-98724809D02*
X39272857Y-98748619D01*
X39272857Y-98748619D02*
X39296666Y-98772428D01*
X39749047Y-98724809D02*
X39510952Y-98724809D01*
X39510952Y-98724809D02*
X39487143Y-98962904D01*
X39487143Y-98962904D02*
X39510952Y-98939095D01*
X39510952Y-98939095D02*
X39558571Y-98915285D01*
X39558571Y-98915285D02*
X39677619Y-98915285D01*
X39677619Y-98915285D02*
X39725238Y-98939095D01*
X39725238Y-98939095D02*
X39749047Y-98962904D01*
X39749047Y-98962904D02*
X39772857Y-99010523D01*
X39772857Y-99010523D02*
X39772857Y-99129571D01*
X39772857Y-99129571D02*
X39749047Y-99177190D01*
X39749047Y-99177190D02*
X39725238Y-99201000D01*
X39725238Y-99201000D02*
X39677619Y-99224809D01*
X39677619Y-99224809D02*
X39558571Y-99224809D01*
X39558571Y-99224809D02*
X39510952Y-99201000D01*
X39510952Y-99201000D02*
X39487143Y-99177190D01*
X41430477Y-98684809D02*
X41478096Y-98684809D01*
X41478096Y-98684809D02*
X41525715Y-98708619D01*
X41525715Y-98708619D02*
X41549525Y-98732428D01*
X41549525Y-98732428D02*
X41573334Y-98780047D01*
X41573334Y-98780047D02*
X41597144Y-98875285D01*
X41597144Y-98875285D02*
X41597144Y-98994333D01*
X41597144Y-98994333D02*
X41573334Y-99089571D01*
X41573334Y-99089571D02*
X41549525Y-99137190D01*
X41549525Y-99137190D02*
X41525715Y-99161000D01*
X41525715Y-99161000D02*
X41478096Y-99184809D01*
X41478096Y-99184809D02*
X41430477Y-99184809D01*
X41430477Y-99184809D02*
X41382858Y-99161000D01*
X41382858Y-99161000D02*
X41359049Y-99137190D01*
X41359049Y-99137190D02*
X41335239Y-99089571D01*
X41335239Y-99089571D02*
X41311430Y-98994333D01*
X41311430Y-98994333D02*
X41311430Y-98875285D01*
X41311430Y-98875285D02*
X41335239Y-98780047D01*
X41335239Y-98780047D02*
X41359049Y-98732428D01*
X41359049Y-98732428D02*
X41382858Y-98708619D01*
X41382858Y-98708619D02*
X41430477Y-98684809D01*
X41811429Y-99137190D02*
X41835239Y-99161000D01*
X41835239Y-99161000D02*
X41811429Y-99184809D01*
X41811429Y-99184809D02*
X41787620Y-99161000D01*
X41787620Y-99161000D02*
X41811429Y-99137190D01*
X41811429Y-99137190D02*
X41811429Y-99184809D01*
X42263810Y-98851476D02*
X42263810Y-99184809D01*
X42144762Y-98661000D02*
X42025715Y-99018142D01*
X42025715Y-99018142D02*
X42335238Y-99018142D01*
X42478095Y-98684809D02*
X42811428Y-98684809D01*
X42811428Y-98684809D02*
X42597143Y-99184809D01*
X43216190Y-98851476D02*
X43216190Y-99184809D01*
X43001904Y-98851476D02*
X43001904Y-99113380D01*
X43001904Y-99113380D02*
X43025714Y-99161000D01*
X43025714Y-99161000D02*
X43073333Y-99184809D01*
X43073333Y-99184809D02*
X43144761Y-99184809D01*
X43144761Y-99184809D02*
X43192380Y-99161000D01*
X43192380Y-99161000D02*
X43216190Y-99137190D01*
X43620952Y-98922904D02*
X43454285Y-98922904D01*
X43454285Y-99184809D02*
X43454285Y-98684809D01*
X43454285Y-98684809D02*
X43692380Y-98684809D01*
X54754809Y-118747142D02*
X54754809Y-119032856D01*
X54754809Y-118889999D02*
X54254809Y-118889999D01*
X54254809Y-118889999D02*
X54326238Y-118937618D01*
X54326238Y-118937618D02*
X54373857Y-118985237D01*
X54373857Y-118985237D02*
X54397666Y-119032856D01*
X54254809Y-118437619D02*
X54254809Y-118390000D01*
X54254809Y-118390000D02*
X54278619Y-118342381D01*
X54278619Y-118342381D02*
X54302428Y-118318571D01*
X54302428Y-118318571D02*
X54350047Y-118294762D01*
X54350047Y-118294762D02*
X54445285Y-118270952D01*
X54445285Y-118270952D02*
X54564333Y-118270952D01*
X54564333Y-118270952D02*
X54659571Y-118294762D01*
X54659571Y-118294762D02*
X54707190Y-118318571D01*
X54707190Y-118318571D02*
X54731000Y-118342381D01*
X54731000Y-118342381D02*
X54754809Y-118390000D01*
X54754809Y-118390000D02*
X54754809Y-118437619D01*
X54754809Y-118437619D02*
X54731000Y-118485238D01*
X54731000Y-118485238D02*
X54707190Y-118509047D01*
X54707190Y-118509047D02*
X54659571Y-118532857D01*
X54659571Y-118532857D02*
X54564333Y-118556666D01*
X54564333Y-118556666D02*
X54445285Y-118556666D01*
X54445285Y-118556666D02*
X54350047Y-118532857D01*
X54350047Y-118532857D02*
X54302428Y-118509047D01*
X54302428Y-118509047D02*
X54278619Y-118485238D01*
X54278619Y-118485238D02*
X54254809Y-118437619D01*
X54254809Y-117961429D02*
X54254809Y-117913810D01*
X54254809Y-117913810D02*
X54278619Y-117866191D01*
X54278619Y-117866191D02*
X54302428Y-117842381D01*
X54302428Y-117842381D02*
X54350047Y-117818572D01*
X54350047Y-117818572D02*
X54445285Y-117794762D01*
X54445285Y-117794762D02*
X54564333Y-117794762D01*
X54564333Y-117794762D02*
X54659571Y-117818572D01*
X54659571Y-117818572D02*
X54707190Y-117842381D01*
X54707190Y-117842381D02*
X54731000Y-117866191D01*
X54731000Y-117866191D02*
X54754809Y-117913810D01*
X54754809Y-117913810D02*
X54754809Y-117961429D01*
X54754809Y-117961429D02*
X54731000Y-118009048D01*
X54731000Y-118009048D02*
X54707190Y-118032857D01*
X54707190Y-118032857D02*
X54659571Y-118056667D01*
X54659571Y-118056667D02*
X54564333Y-118080476D01*
X54564333Y-118080476D02*
X54445285Y-118080476D01*
X54445285Y-118080476D02*
X54350047Y-118056667D01*
X54350047Y-118056667D02*
X54302428Y-118032857D01*
X54302428Y-118032857D02*
X54278619Y-118009048D01*
X54278619Y-118009048D02*
X54254809Y-117961429D01*
X54754809Y-117580477D02*
X54254809Y-117580477D01*
X54754809Y-117294763D02*
X54469095Y-117509048D01*
X54254809Y-117294763D02*
X54540523Y-117580477D01*
X54254809Y-116985239D02*
X54254809Y-116890001D01*
X54254809Y-116890001D02*
X54278619Y-116842382D01*
X54278619Y-116842382D02*
X54326238Y-116794763D01*
X54326238Y-116794763D02*
X54421476Y-116770953D01*
X54421476Y-116770953D02*
X54588142Y-116770953D01*
X54588142Y-116770953D02*
X54683380Y-116794763D01*
X54683380Y-116794763D02*
X54731000Y-116842382D01*
X54731000Y-116842382D02*
X54754809Y-116890001D01*
X54754809Y-116890001D02*
X54754809Y-116985239D01*
X54754809Y-116985239D02*
X54731000Y-117032858D01*
X54731000Y-117032858D02*
X54683380Y-117080477D01*
X54683380Y-117080477D02*
X54588142Y-117104286D01*
X54588142Y-117104286D02*
X54421476Y-117104286D01*
X54421476Y-117104286D02*
X54326238Y-117080477D01*
X54326238Y-117080477D02*
X54278619Y-117032858D01*
X54278619Y-117032858D02*
X54254809Y-116985239D01*
X54754809Y-116556667D02*
X54254809Y-116556667D01*
X54754809Y-116342381D02*
X54492904Y-116342381D01*
X54492904Y-116342381D02*
X54445285Y-116366191D01*
X54445285Y-116366191D02*
X54421476Y-116413810D01*
X54421476Y-116413810D02*
X54421476Y-116485238D01*
X54421476Y-116485238D02*
X54445285Y-116532857D01*
X54445285Y-116532857D02*
X54469095Y-116556667D01*
X54754809Y-116104286D02*
X54421476Y-116104286D01*
X54469095Y-116104286D02*
X54445285Y-116080476D01*
X54445285Y-116080476D02*
X54421476Y-116032857D01*
X54421476Y-116032857D02*
X54421476Y-115961429D01*
X54421476Y-115961429D02*
X54445285Y-115913810D01*
X54445285Y-115913810D02*
X54492904Y-115890000D01*
X54492904Y-115890000D02*
X54754809Y-115890000D01*
X54492904Y-115890000D02*
X54445285Y-115866191D01*
X54445285Y-115866191D02*
X54421476Y-115818572D01*
X54421476Y-115818572D02*
X54421476Y-115747143D01*
X54421476Y-115747143D02*
X54445285Y-115699524D01*
X54445285Y-115699524D02*
X54492904Y-115675714D01*
X54492904Y-115675714D02*
X54754809Y-115675714D01*
X54731000Y-115461428D02*
X54754809Y-115413809D01*
X54754809Y-115413809D02*
X54754809Y-115318571D01*
X54754809Y-115318571D02*
X54731000Y-115270952D01*
X54731000Y-115270952D02*
X54683380Y-115247143D01*
X54683380Y-115247143D02*
X54659571Y-115247143D01*
X54659571Y-115247143D02*
X54611952Y-115270952D01*
X54611952Y-115270952D02*
X54588142Y-115318571D01*
X54588142Y-115318571D02*
X54588142Y-115390000D01*
X54588142Y-115390000D02*
X54564333Y-115437619D01*
X54564333Y-115437619D02*
X54516714Y-115461428D01*
X54516714Y-115461428D02*
X54492904Y-115461428D01*
X54492904Y-115461428D02*
X54445285Y-115437619D01*
X54445285Y-115437619D02*
X54421476Y-115390000D01*
X54421476Y-115390000D02*
X54421476Y-115318571D01*
X54421476Y-115318571D02*
X54445285Y-115270952D01*
X54446666Y-120344809D02*
X54280000Y-120106714D01*
X54160952Y-120344809D02*
X54160952Y-119844809D01*
X54160952Y-119844809D02*
X54351428Y-119844809D01*
X54351428Y-119844809D02*
X54399047Y-119868619D01*
X54399047Y-119868619D02*
X54422857Y-119892428D01*
X54422857Y-119892428D02*
X54446666Y-119940047D01*
X54446666Y-119940047D02*
X54446666Y-120011476D01*
X54446666Y-120011476D02*
X54422857Y-120059095D01*
X54422857Y-120059095D02*
X54399047Y-120082904D01*
X54399047Y-120082904D02*
X54351428Y-120106714D01*
X54351428Y-120106714D02*
X54160952Y-120106714D01*
X54922857Y-120344809D02*
X54637143Y-120344809D01*
X54780000Y-120344809D02*
X54780000Y-119844809D01*
X54780000Y-119844809D02*
X54732381Y-119916238D01*
X54732381Y-119916238D02*
X54684762Y-119963857D01*
X54684762Y-119963857D02*
X54637143Y-119987666D01*
X53766666Y-100277190D02*
X53742857Y-100301000D01*
X53742857Y-100301000D02*
X53671428Y-100324809D01*
X53671428Y-100324809D02*
X53623809Y-100324809D01*
X53623809Y-100324809D02*
X53552381Y-100301000D01*
X53552381Y-100301000D02*
X53504762Y-100253380D01*
X53504762Y-100253380D02*
X53480952Y-100205761D01*
X53480952Y-100205761D02*
X53457143Y-100110523D01*
X53457143Y-100110523D02*
X53457143Y-100039095D01*
X53457143Y-100039095D02*
X53480952Y-99943857D01*
X53480952Y-99943857D02*
X53504762Y-99896238D01*
X53504762Y-99896238D02*
X53552381Y-99848619D01*
X53552381Y-99848619D02*
X53623809Y-99824809D01*
X53623809Y-99824809D02*
X53671428Y-99824809D01*
X53671428Y-99824809D02*
X53742857Y-99848619D01*
X53742857Y-99848619D02*
X53766666Y-99872428D01*
X54195238Y-99824809D02*
X54100000Y-99824809D01*
X54100000Y-99824809D02*
X54052381Y-99848619D01*
X54052381Y-99848619D02*
X54028571Y-99872428D01*
X54028571Y-99872428D02*
X53980952Y-99943857D01*
X53980952Y-99943857D02*
X53957143Y-100039095D01*
X53957143Y-100039095D02*
X53957143Y-100229571D01*
X53957143Y-100229571D02*
X53980952Y-100277190D01*
X53980952Y-100277190D02*
X54004762Y-100301000D01*
X54004762Y-100301000D02*
X54052381Y-100324809D01*
X54052381Y-100324809D02*
X54147619Y-100324809D01*
X54147619Y-100324809D02*
X54195238Y-100301000D01*
X54195238Y-100301000D02*
X54219047Y-100277190D01*
X54219047Y-100277190D02*
X54242857Y-100229571D01*
X54242857Y-100229571D02*
X54242857Y-100110523D01*
X54242857Y-100110523D02*
X54219047Y-100062904D01*
X54219047Y-100062904D02*
X54195238Y-100039095D01*
X54195238Y-100039095D02*
X54147619Y-100015285D01*
X54147619Y-100015285D02*
X54052381Y-100015285D01*
X54052381Y-100015285D02*
X54004762Y-100039095D01*
X54004762Y-100039095D02*
X53980952Y-100062904D01*
X53980952Y-100062904D02*
X53957143Y-100110523D01*
X54578572Y-98804809D02*
X54626191Y-98804809D01*
X54626191Y-98804809D02*
X54673810Y-98828619D01*
X54673810Y-98828619D02*
X54697620Y-98852428D01*
X54697620Y-98852428D02*
X54721429Y-98900047D01*
X54721429Y-98900047D02*
X54745239Y-98995285D01*
X54745239Y-98995285D02*
X54745239Y-99114333D01*
X54745239Y-99114333D02*
X54721429Y-99209571D01*
X54721429Y-99209571D02*
X54697620Y-99257190D01*
X54697620Y-99257190D02*
X54673810Y-99281000D01*
X54673810Y-99281000D02*
X54626191Y-99304809D01*
X54626191Y-99304809D02*
X54578572Y-99304809D01*
X54578572Y-99304809D02*
X54530953Y-99281000D01*
X54530953Y-99281000D02*
X54507144Y-99257190D01*
X54507144Y-99257190D02*
X54483334Y-99209571D01*
X54483334Y-99209571D02*
X54459525Y-99114333D01*
X54459525Y-99114333D02*
X54459525Y-98995285D01*
X54459525Y-98995285D02*
X54483334Y-98900047D01*
X54483334Y-98900047D02*
X54507144Y-98852428D01*
X54507144Y-98852428D02*
X54530953Y-98828619D01*
X54530953Y-98828619D02*
X54578572Y-98804809D01*
X54959524Y-99257190D02*
X54983334Y-99281000D01*
X54983334Y-99281000D02*
X54959524Y-99304809D01*
X54959524Y-99304809D02*
X54935715Y-99281000D01*
X54935715Y-99281000D02*
X54959524Y-99257190D01*
X54959524Y-99257190D02*
X54959524Y-99304809D01*
X55459524Y-99304809D02*
X55173810Y-99304809D01*
X55316667Y-99304809D02*
X55316667Y-98804809D01*
X55316667Y-98804809D02*
X55269048Y-98876238D01*
X55269048Y-98876238D02*
X55221429Y-98923857D01*
X55221429Y-98923857D02*
X55173810Y-98947666D01*
X55888095Y-98971476D02*
X55888095Y-99304809D01*
X55673809Y-98971476D02*
X55673809Y-99233380D01*
X55673809Y-99233380D02*
X55697619Y-99281000D01*
X55697619Y-99281000D02*
X55745238Y-99304809D01*
X55745238Y-99304809D02*
X55816666Y-99304809D01*
X55816666Y-99304809D02*
X55864285Y-99281000D01*
X55864285Y-99281000D02*
X55888095Y-99257190D01*
X56292857Y-99042904D02*
X56126190Y-99042904D01*
X56126190Y-99304809D02*
X56126190Y-98804809D01*
X56126190Y-98804809D02*
X56364285Y-98804809D01*
X76949047Y-114644809D02*
X76949047Y-115049571D01*
X76949047Y-115049571D02*
X76972857Y-115097190D01*
X76972857Y-115097190D02*
X76996666Y-115121000D01*
X76996666Y-115121000D02*
X77044285Y-115144809D01*
X77044285Y-115144809D02*
X77139523Y-115144809D01*
X77139523Y-115144809D02*
X77187142Y-115121000D01*
X77187142Y-115121000D02*
X77210952Y-115097190D01*
X77210952Y-115097190D02*
X77234761Y-115049571D01*
X77234761Y-115049571D02*
X77234761Y-114644809D01*
X77425238Y-114644809D02*
X77734762Y-114644809D01*
X77734762Y-114644809D02*
X77568095Y-114835285D01*
X77568095Y-114835285D02*
X77639524Y-114835285D01*
X77639524Y-114835285D02*
X77687143Y-114859095D01*
X77687143Y-114859095D02*
X77710952Y-114882904D01*
X77710952Y-114882904D02*
X77734762Y-114930523D01*
X77734762Y-114930523D02*
X77734762Y-115049571D01*
X77734762Y-115049571D02*
X77710952Y-115097190D01*
X77710952Y-115097190D02*
X77687143Y-115121000D01*
X77687143Y-115121000D02*
X77639524Y-115144809D01*
X77639524Y-115144809D02*
X77496667Y-115144809D01*
X77496667Y-115144809D02*
X77449048Y-115121000D01*
X77449048Y-115121000D02*
X77425238Y-115097190D01*
X75944809Y-115977617D02*
X75944809Y-116215712D01*
X75944809Y-116215712D02*
X76182904Y-116239521D01*
X76182904Y-116239521D02*
X76159095Y-116215712D01*
X76159095Y-116215712D02*
X76135285Y-116168093D01*
X76135285Y-116168093D02*
X76135285Y-116049045D01*
X76135285Y-116049045D02*
X76159095Y-116001426D01*
X76159095Y-116001426D02*
X76182904Y-115977617D01*
X76182904Y-115977617D02*
X76230523Y-115953807D01*
X76230523Y-115953807D02*
X76349571Y-115953807D01*
X76349571Y-115953807D02*
X76397190Y-115977617D01*
X76397190Y-115977617D02*
X76421000Y-116001426D01*
X76421000Y-116001426D02*
X76444809Y-116049045D01*
X76444809Y-116049045D02*
X76444809Y-116168093D01*
X76444809Y-116168093D02*
X76421000Y-116215712D01*
X76421000Y-116215712D02*
X76397190Y-116239521D01*
X75944809Y-115810950D02*
X76444809Y-115644284D01*
X76444809Y-115644284D02*
X75944809Y-115477617D01*
X75944809Y-115001427D02*
X76444809Y-114834761D01*
X76444809Y-114834761D02*
X75944809Y-114668094D01*
X76397190Y-114501428D02*
X76421000Y-114477618D01*
X76421000Y-114477618D02*
X76444809Y-114501428D01*
X76444809Y-114501428D02*
X76421000Y-114525237D01*
X76421000Y-114525237D02*
X76397190Y-114501428D01*
X76397190Y-114501428D02*
X76444809Y-114501428D01*
X76444809Y-113977619D02*
X76206714Y-114144285D01*
X76444809Y-114263333D02*
X75944809Y-114263333D01*
X75944809Y-114263333D02*
X75944809Y-114072857D01*
X75944809Y-114072857D02*
X75968619Y-114025238D01*
X75968619Y-114025238D02*
X75992428Y-114001428D01*
X75992428Y-114001428D02*
X76040047Y-113977619D01*
X76040047Y-113977619D02*
X76111476Y-113977619D01*
X76111476Y-113977619D02*
X76159095Y-114001428D01*
X76159095Y-114001428D02*
X76182904Y-114025238D01*
X76182904Y-114025238D02*
X76206714Y-114072857D01*
X76206714Y-114072857D02*
X76206714Y-114263333D01*
X75992428Y-113406190D02*
X75968619Y-113382381D01*
X75968619Y-113382381D02*
X75944809Y-113334762D01*
X75944809Y-113334762D02*
X75944809Y-113215714D01*
X75944809Y-113215714D02*
X75968619Y-113168095D01*
X75968619Y-113168095D02*
X75992428Y-113144286D01*
X75992428Y-113144286D02*
X76040047Y-113120476D01*
X76040047Y-113120476D02*
X76087666Y-113120476D01*
X76087666Y-113120476D02*
X76159095Y-113144286D01*
X76159095Y-113144286D02*
X76444809Y-113430000D01*
X76444809Y-113430000D02*
X76444809Y-113120476D01*
X52956666Y-114474809D02*
X52790000Y-114236714D01*
X52670952Y-114474809D02*
X52670952Y-113974809D01*
X52670952Y-113974809D02*
X52861428Y-113974809D01*
X52861428Y-113974809D02*
X52909047Y-113998619D01*
X52909047Y-113998619D02*
X52932857Y-114022428D01*
X52932857Y-114022428D02*
X52956666Y-114070047D01*
X52956666Y-114070047D02*
X52956666Y-114141476D01*
X52956666Y-114141476D02*
X52932857Y-114189095D01*
X52932857Y-114189095D02*
X52909047Y-114212904D01*
X52909047Y-114212904D02*
X52861428Y-114236714D01*
X52861428Y-114236714D02*
X52670952Y-114236714D01*
X53147143Y-114022428D02*
X53170952Y-113998619D01*
X53170952Y-113998619D02*
X53218571Y-113974809D01*
X53218571Y-113974809D02*
X53337619Y-113974809D01*
X53337619Y-113974809D02*
X53385238Y-113998619D01*
X53385238Y-113998619D02*
X53409047Y-114022428D01*
X53409047Y-114022428D02*
X53432857Y-114070047D01*
X53432857Y-114070047D02*
X53432857Y-114117666D01*
X53432857Y-114117666D02*
X53409047Y-114189095D01*
X53409047Y-114189095D02*
X53123333Y-114474809D01*
X53123333Y-114474809D02*
X53432857Y-114474809D01*
X50650952Y-115414809D02*
X50365238Y-115414809D01*
X50508095Y-115414809D02*
X50508095Y-114914809D01*
X50508095Y-114914809D02*
X50460476Y-114986238D01*
X50460476Y-114986238D02*
X50412857Y-115033857D01*
X50412857Y-115033857D02*
X50365238Y-115057666D01*
X50960475Y-114914809D02*
X51008094Y-114914809D01*
X51008094Y-114914809D02*
X51055713Y-114938619D01*
X51055713Y-114938619D02*
X51079523Y-114962428D01*
X51079523Y-114962428D02*
X51103332Y-115010047D01*
X51103332Y-115010047D02*
X51127142Y-115105285D01*
X51127142Y-115105285D02*
X51127142Y-115224333D01*
X51127142Y-115224333D02*
X51103332Y-115319571D01*
X51103332Y-115319571D02*
X51079523Y-115367190D01*
X51079523Y-115367190D02*
X51055713Y-115391000D01*
X51055713Y-115391000D02*
X51008094Y-115414809D01*
X51008094Y-115414809D02*
X50960475Y-115414809D01*
X50960475Y-115414809D02*
X50912856Y-115391000D01*
X50912856Y-115391000D02*
X50889047Y-115367190D01*
X50889047Y-115367190D02*
X50865237Y-115319571D01*
X50865237Y-115319571D02*
X50841428Y-115224333D01*
X50841428Y-115224333D02*
X50841428Y-115105285D01*
X50841428Y-115105285D02*
X50865237Y-115010047D01*
X50865237Y-115010047D02*
X50889047Y-114962428D01*
X50889047Y-114962428D02*
X50912856Y-114938619D01*
X50912856Y-114938619D02*
X50960475Y-114914809D01*
X51341427Y-115414809D02*
X51341427Y-114914809D01*
X51627141Y-115414809D02*
X51412856Y-115129095D01*
X51627141Y-114914809D02*
X51341427Y-115200523D01*
X51936665Y-114914809D02*
X52031903Y-114914809D01*
X52031903Y-114914809D02*
X52079522Y-114938619D01*
X52079522Y-114938619D02*
X52127141Y-114986238D01*
X52127141Y-114986238D02*
X52150951Y-115081476D01*
X52150951Y-115081476D02*
X52150951Y-115248142D01*
X52150951Y-115248142D02*
X52127141Y-115343380D01*
X52127141Y-115343380D02*
X52079522Y-115391000D01*
X52079522Y-115391000D02*
X52031903Y-115414809D01*
X52031903Y-115414809D02*
X51936665Y-115414809D01*
X51936665Y-115414809D02*
X51889046Y-115391000D01*
X51889046Y-115391000D02*
X51841427Y-115343380D01*
X51841427Y-115343380D02*
X51817618Y-115248142D01*
X51817618Y-115248142D02*
X51817618Y-115081476D01*
X51817618Y-115081476D02*
X51841427Y-114986238D01*
X51841427Y-114986238D02*
X51889046Y-114938619D01*
X51889046Y-114938619D02*
X51936665Y-114914809D01*
X52365237Y-115414809D02*
X52365237Y-114914809D01*
X52579523Y-115414809D02*
X52579523Y-115152904D01*
X52579523Y-115152904D02*
X52555713Y-115105285D01*
X52555713Y-115105285D02*
X52508094Y-115081476D01*
X52508094Y-115081476D02*
X52436666Y-115081476D01*
X52436666Y-115081476D02*
X52389047Y-115105285D01*
X52389047Y-115105285D02*
X52365237Y-115129095D01*
X52817618Y-115414809D02*
X52817618Y-115081476D01*
X52817618Y-115129095D02*
X52841428Y-115105285D01*
X52841428Y-115105285D02*
X52889047Y-115081476D01*
X52889047Y-115081476D02*
X52960475Y-115081476D01*
X52960475Y-115081476D02*
X53008094Y-115105285D01*
X53008094Y-115105285D02*
X53031904Y-115152904D01*
X53031904Y-115152904D02*
X53031904Y-115414809D01*
X53031904Y-115152904D02*
X53055713Y-115105285D01*
X53055713Y-115105285D02*
X53103332Y-115081476D01*
X53103332Y-115081476D02*
X53174761Y-115081476D01*
X53174761Y-115081476D02*
X53222380Y-115105285D01*
X53222380Y-115105285D02*
X53246190Y-115152904D01*
X53246190Y-115152904D02*
X53246190Y-115414809D01*
X53460476Y-115391000D02*
X53508095Y-115414809D01*
X53508095Y-115414809D02*
X53603333Y-115414809D01*
X53603333Y-115414809D02*
X53650952Y-115391000D01*
X53650952Y-115391000D02*
X53674761Y-115343380D01*
X53674761Y-115343380D02*
X53674761Y-115319571D01*
X53674761Y-115319571D02*
X53650952Y-115271952D01*
X53650952Y-115271952D02*
X53603333Y-115248142D01*
X53603333Y-115248142D02*
X53531904Y-115248142D01*
X53531904Y-115248142D02*
X53484285Y-115224333D01*
X53484285Y-115224333D02*
X53460476Y-115176714D01*
X53460476Y-115176714D02*
X53460476Y-115152904D01*
X53460476Y-115152904D02*
X53484285Y-115105285D01*
X53484285Y-115105285D02*
X53531904Y-115081476D01*
X53531904Y-115081476D02*
X53603333Y-115081476D01*
X53603333Y-115081476D02*
X53650952Y-115105285D01*
X76109047Y-102364809D02*
X76109047Y-102769571D01*
X76109047Y-102769571D02*
X76132857Y-102817190D01*
X76132857Y-102817190D02*
X76156666Y-102841000D01*
X76156666Y-102841000D02*
X76204285Y-102864809D01*
X76204285Y-102864809D02*
X76299523Y-102864809D01*
X76299523Y-102864809D02*
X76347142Y-102841000D01*
X76347142Y-102841000D02*
X76370952Y-102817190D01*
X76370952Y-102817190D02*
X76394761Y-102769571D01*
X76394761Y-102769571D02*
X76394761Y-102364809D01*
X76894762Y-102864809D02*
X76609048Y-102864809D01*
X76751905Y-102864809D02*
X76751905Y-102364809D01*
X76751905Y-102364809D02*
X76704286Y-102436238D01*
X76704286Y-102436238D02*
X76656667Y-102483857D01*
X76656667Y-102483857D02*
X76609048Y-102507666D01*
X73998096Y-101564809D02*
X74307620Y-101564809D01*
X74307620Y-101564809D02*
X74140953Y-101755285D01*
X74140953Y-101755285D02*
X74212382Y-101755285D01*
X74212382Y-101755285D02*
X74260001Y-101779095D01*
X74260001Y-101779095D02*
X74283810Y-101802904D01*
X74283810Y-101802904D02*
X74307620Y-101850523D01*
X74307620Y-101850523D02*
X74307620Y-101969571D01*
X74307620Y-101969571D02*
X74283810Y-102017190D01*
X74283810Y-102017190D02*
X74260001Y-102041000D01*
X74260001Y-102041000D02*
X74212382Y-102064809D01*
X74212382Y-102064809D02*
X74069525Y-102064809D01*
X74069525Y-102064809D02*
X74021906Y-102041000D01*
X74021906Y-102041000D02*
X73998096Y-102017190D01*
X74521905Y-102017190D02*
X74545715Y-102041000D01*
X74545715Y-102041000D02*
X74521905Y-102064809D01*
X74521905Y-102064809D02*
X74498096Y-102041000D01*
X74498096Y-102041000D02*
X74521905Y-102017190D01*
X74521905Y-102017190D02*
X74521905Y-102064809D01*
X74712381Y-101564809D02*
X75021905Y-101564809D01*
X75021905Y-101564809D02*
X74855238Y-101755285D01*
X74855238Y-101755285D02*
X74926667Y-101755285D01*
X74926667Y-101755285D02*
X74974286Y-101779095D01*
X74974286Y-101779095D02*
X74998095Y-101802904D01*
X74998095Y-101802904D02*
X75021905Y-101850523D01*
X75021905Y-101850523D02*
X75021905Y-101969571D01*
X75021905Y-101969571D02*
X74998095Y-102017190D01*
X74998095Y-102017190D02*
X74974286Y-102041000D01*
X74974286Y-102041000D02*
X74926667Y-102064809D01*
X74926667Y-102064809D02*
X74783810Y-102064809D01*
X74783810Y-102064809D02*
X74736191Y-102041000D01*
X74736191Y-102041000D02*
X74712381Y-102017190D01*
X75164762Y-101564809D02*
X75331428Y-102064809D01*
X75331428Y-102064809D02*
X75498095Y-101564809D01*
X75974285Y-101564809D02*
X76140951Y-102064809D01*
X76140951Y-102064809D02*
X76307618Y-101564809D01*
X76474284Y-102017190D02*
X76498094Y-102041000D01*
X76498094Y-102041000D02*
X76474284Y-102064809D01*
X76474284Y-102064809D02*
X76450475Y-102041000D01*
X76450475Y-102041000D02*
X76474284Y-102017190D01*
X76474284Y-102017190D02*
X76474284Y-102064809D01*
X76998093Y-102064809D02*
X76831427Y-101826714D01*
X76712379Y-102064809D02*
X76712379Y-101564809D01*
X76712379Y-101564809D02*
X76902855Y-101564809D01*
X76902855Y-101564809D02*
X76950474Y-101588619D01*
X76950474Y-101588619D02*
X76974284Y-101612428D01*
X76974284Y-101612428D02*
X76998093Y-101660047D01*
X76998093Y-101660047D02*
X76998093Y-101731476D01*
X76998093Y-101731476D02*
X76974284Y-101779095D01*
X76974284Y-101779095D02*
X76950474Y-101802904D01*
X76950474Y-101802904D02*
X76902855Y-101826714D01*
X76902855Y-101826714D02*
X76712379Y-101826714D01*
X73896666Y-104044809D02*
X73730000Y-103806714D01*
X73610952Y-104044809D02*
X73610952Y-103544809D01*
X73610952Y-103544809D02*
X73801428Y-103544809D01*
X73801428Y-103544809D02*
X73849047Y-103568619D01*
X73849047Y-103568619D02*
X73872857Y-103592428D01*
X73872857Y-103592428D02*
X73896666Y-103640047D01*
X73896666Y-103640047D02*
X73896666Y-103711476D01*
X73896666Y-103711476D02*
X73872857Y-103759095D01*
X73872857Y-103759095D02*
X73849047Y-103782904D01*
X73849047Y-103782904D02*
X73801428Y-103806714D01*
X73801428Y-103806714D02*
X73610952Y-103806714D01*
X74325238Y-103544809D02*
X74230000Y-103544809D01*
X74230000Y-103544809D02*
X74182381Y-103568619D01*
X74182381Y-103568619D02*
X74158571Y-103592428D01*
X74158571Y-103592428D02*
X74110952Y-103663857D01*
X74110952Y-103663857D02*
X74087143Y-103759095D01*
X74087143Y-103759095D02*
X74087143Y-103949571D01*
X74087143Y-103949571D02*
X74110952Y-103997190D01*
X74110952Y-103997190D02*
X74134762Y-104021000D01*
X74134762Y-104021000D02*
X74182381Y-104044809D01*
X74182381Y-104044809D02*
X74277619Y-104044809D01*
X74277619Y-104044809D02*
X74325238Y-104021000D01*
X74325238Y-104021000D02*
X74349047Y-103997190D01*
X74349047Y-103997190D02*
X74372857Y-103949571D01*
X74372857Y-103949571D02*
X74372857Y-103830523D01*
X74372857Y-103830523D02*
X74349047Y-103782904D01*
X74349047Y-103782904D02*
X74325238Y-103759095D01*
X74325238Y-103759095D02*
X74277619Y-103735285D01*
X74277619Y-103735285D02*
X74182381Y-103735285D01*
X74182381Y-103735285D02*
X74134762Y-103759095D01*
X74134762Y-103759095D02*
X74110952Y-103782904D01*
X74110952Y-103782904D02*
X74087143Y-103830523D01*
X69670952Y-104134809D02*
X69385238Y-104134809D01*
X69528095Y-104134809D02*
X69528095Y-103634809D01*
X69528095Y-103634809D02*
X69480476Y-103706238D01*
X69480476Y-103706238D02*
X69432857Y-103753857D01*
X69432857Y-103753857D02*
X69385238Y-103777666D01*
X69980475Y-103634809D02*
X70028094Y-103634809D01*
X70028094Y-103634809D02*
X70075713Y-103658619D01*
X70075713Y-103658619D02*
X70099523Y-103682428D01*
X70099523Y-103682428D02*
X70123332Y-103730047D01*
X70123332Y-103730047D02*
X70147142Y-103825285D01*
X70147142Y-103825285D02*
X70147142Y-103944333D01*
X70147142Y-103944333D02*
X70123332Y-104039571D01*
X70123332Y-104039571D02*
X70099523Y-104087190D01*
X70099523Y-104087190D02*
X70075713Y-104111000D01*
X70075713Y-104111000D02*
X70028094Y-104134809D01*
X70028094Y-104134809D02*
X69980475Y-104134809D01*
X69980475Y-104134809D02*
X69932856Y-104111000D01*
X69932856Y-104111000D02*
X69909047Y-104087190D01*
X69909047Y-104087190D02*
X69885237Y-104039571D01*
X69885237Y-104039571D02*
X69861428Y-103944333D01*
X69861428Y-103944333D02*
X69861428Y-103825285D01*
X69861428Y-103825285D02*
X69885237Y-103730047D01*
X69885237Y-103730047D02*
X69909047Y-103682428D01*
X69909047Y-103682428D02*
X69932856Y-103658619D01*
X69932856Y-103658619D02*
X69980475Y-103634809D01*
X70456665Y-103634809D02*
X70551903Y-103634809D01*
X70551903Y-103634809D02*
X70599522Y-103658619D01*
X70599522Y-103658619D02*
X70647141Y-103706238D01*
X70647141Y-103706238D02*
X70670951Y-103801476D01*
X70670951Y-103801476D02*
X70670951Y-103968142D01*
X70670951Y-103968142D02*
X70647141Y-104063380D01*
X70647141Y-104063380D02*
X70599522Y-104111000D01*
X70599522Y-104111000D02*
X70551903Y-104134809D01*
X70551903Y-104134809D02*
X70456665Y-104134809D01*
X70456665Y-104134809D02*
X70409046Y-104111000D01*
X70409046Y-104111000D02*
X70361427Y-104063380D01*
X70361427Y-104063380D02*
X70337618Y-103968142D01*
X70337618Y-103968142D02*
X70337618Y-103801476D01*
X70337618Y-103801476D02*
X70361427Y-103706238D01*
X70361427Y-103706238D02*
X70409046Y-103658619D01*
X70409046Y-103658619D02*
X70456665Y-103634809D01*
X70885237Y-104134809D02*
X70885237Y-103634809D01*
X71099523Y-104134809D02*
X71099523Y-103872904D01*
X71099523Y-103872904D02*
X71075713Y-103825285D01*
X71075713Y-103825285D02*
X71028094Y-103801476D01*
X71028094Y-103801476D02*
X70956666Y-103801476D01*
X70956666Y-103801476D02*
X70909047Y-103825285D01*
X70909047Y-103825285D02*
X70885237Y-103849095D01*
X71337618Y-104134809D02*
X71337618Y-103801476D01*
X71337618Y-103849095D02*
X71361428Y-103825285D01*
X71361428Y-103825285D02*
X71409047Y-103801476D01*
X71409047Y-103801476D02*
X71480475Y-103801476D01*
X71480475Y-103801476D02*
X71528094Y-103825285D01*
X71528094Y-103825285D02*
X71551904Y-103872904D01*
X71551904Y-103872904D02*
X71551904Y-104134809D01*
X71551904Y-103872904D02*
X71575713Y-103825285D01*
X71575713Y-103825285D02*
X71623332Y-103801476D01*
X71623332Y-103801476D02*
X71694761Y-103801476D01*
X71694761Y-103801476D02*
X71742380Y-103825285D01*
X71742380Y-103825285D02*
X71766190Y-103872904D01*
X71766190Y-103872904D02*
X71766190Y-104134809D01*
X71980476Y-104111000D02*
X72028095Y-104134809D01*
X72028095Y-104134809D02*
X72123333Y-104134809D01*
X72123333Y-104134809D02*
X72170952Y-104111000D01*
X72170952Y-104111000D02*
X72194761Y-104063380D01*
X72194761Y-104063380D02*
X72194761Y-104039571D01*
X72194761Y-104039571D02*
X72170952Y-103991952D01*
X72170952Y-103991952D02*
X72123333Y-103968142D01*
X72123333Y-103968142D02*
X72051904Y-103968142D01*
X72051904Y-103968142D02*
X72004285Y-103944333D01*
X72004285Y-103944333D02*
X71980476Y-103896714D01*
X71980476Y-103896714D02*
X71980476Y-103872904D01*
X71980476Y-103872904D02*
X72004285Y-103825285D01*
X72004285Y-103825285D02*
X72051904Y-103801476D01*
X72051904Y-103801476D02*
X72123333Y-103801476D01*
X72123333Y-103801476D02*
X72170952Y-103825285D01*
X48296666Y-124294809D02*
X48130000Y-124056714D01*
X48010952Y-124294809D02*
X48010952Y-123794809D01*
X48010952Y-123794809D02*
X48201428Y-123794809D01*
X48201428Y-123794809D02*
X48249047Y-123818619D01*
X48249047Y-123818619D02*
X48272857Y-123842428D01*
X48272857Y-123842428D02*
X48296666Y-123890047D01*
X48296666Y-123890047D02*
X48296666Y-123961476D01*
X48296666Y-123961476D02*
X48272857Y-124009095D01*
X48272857Y-124009095D02*
X48249047Y-124032904D01*
X48249047Y-124032904D02*
X48201428Y-124056714D01*
X48201428Y-124056714D02*
X48010952Y-124056714D01*
X48463333Y-123794809D02*
X48772857Y-123794809D01*
X48772857Y-123794809D02*
X48606190Y-123985285D01*
X48606190Y-123985285D02*
X48677619Y-123985285D01*
X48677619Y-123985285D02*
X48725238Y-124009095D01*
X48725238Y-124009095D02*
X48749047Y-124032904D01*
X48749047Y-124032904D02*
X48772857Y-124080523D01*
X48772857Y-124080523D02*
X48772857Y-124199571D01*
X48772857Y-124199571D02*
X48749047Y-124247190D01*
X48749047Y-124247190D02*
X48725238Y-124271000D01*
X48725238Y-124271000D02*
X48677619Y-124294809D01*
X48677619Y-124294809D02*
X48534762Y-124294809D01*
X48534762Y-124294809D02*
X48487143Y-124271000D01*
X48487143Y-124271000D02*
X48463333Y-124247190D01*
X49520952Y-124284809D02*
X49235238Y-124284809D01*
X49378095Y-124284809D02*
X49378095Y-123784809D01*
X49378095Y-123784809D02*
X49330476Y-123856238D01*
X49330476Y-123856238D02*
X49282857Y-123903857D01*
X49282857Y-123903857D02*
X49235238Y-123927666D01*
X49830475Y-123784809D02*
X49878094Y-123784809D01*
X49878094Y-123784809D02*
X49925713Y-123808619D01*
X49925713Y-123808619D02*
X49949523Y-123832428D01*
X49949523Y-123832428D02*
X49973332Y-123880047D01*
X49973332Y-123880047D02*
X49997142Y-123975285D01*
X49997142Y-123975285D02*
X49997142Y-124094333D01*
X49997142Y-124094333D02*
X49973332Y-124189571D01*
X49973332Y-124189571D02*
X49949523Y-124237190D01*
X49949523Y-124237190D02*
X49925713Y-124261000D01*
X49925713Y-124261000D02*
X49878094Y-124284809D01*
X49878094Y-124284809D02*
X49830475Y-124284809D01*
X49830475Y-124284809D02*
X49782856Y-124261000D01*
X49782856Y-124261000D02*
X49759047Y-124237190D01*
X49759047Y-124237190D02*
X49735237Y-124189571D01*
X49735237Y-124189571D02*
X49711428Y-124094333D01*
X49711428Y-124094333D02*
X49711428Y-123975285D01*
X49711428Y-123975285D02*
X49735237Y-123880047D01*
X49735237Y-123880047D02*
X49759047Y-123832428D01*
X49759047Y-123832428D02*
X49782856Y-123808619D01*
X49782856Y-123808619D02*
X49830475Y-123784809D01*
X50211427Y-124284809D02*
X50211427Y-123784809D01*
X50497141Y-124284809D02*
X50282856Y-123999095D01*
X50497141Y-123784809D02*
X50211427Y-124070523D01*
X50806665Y-123784809D02*
X50901903Y-123784809D01*
X50901903Y-123784809D02*
X50949522Y-123808619D01*
X50949522Y-123808619D02*
X50997141Y-123856238D01*
X50997141Y-123856238D02*
X51020951Y-123951476D01*
X51020951Y-123951476D02*
X51020951Y-124118142D01*
X51020951Y-124118142D02*
X50997141Y-124213380D01*
X50997141Y-124213380D02*
X50949522Y-124261000D01*
X50949522Y-124261000D02*
X50901903Y-124284809D01*
X50901903Y-124284809D02*
X50806665Y-124284809D01*
X50806665Y-124284809D02*
X50759046Y-124261000D01*
X50759046Y-124261000D02*
X50711427Y-124213380D01*
X50711427Y-124213380D02*
X50687618Y-124118142D01*
X50687618Y-124118142D02*
X50687618Y-123951476D01*
X50687618Y-123951476D02*
X50711427Y-123856238D01*
X50711427Y-123856238D02*
X50759046Y-123808619D01*
X50759046Y-123808619D02*
X50806665Y-123784809D01*
X51235237Y-124284809D02*
X51235237Y-123784809D01*
X51449523Y-124284809D02*
X51449523Y-124022904D01*
X51449523Y-124022904D02*
X51425713Y-123975285D01*
X51425713Y-123975285D02*
X51378094Y-123951476D01*
X51378094Y-123951476D02*
X51306666Y-123951476D01*
X51306666Y-123951476D02*
X51259047Y-123975285D01*
X51259047Y-123975285D02*
X51235237Y-123999095D01*
X51687618Y-124284809D02*
X51687618Y-123951476D01*
X51687618Y-123999095D02*
X51711428Y-123975285D01*
X51711428Y-123975285D02*
X51759047Y-123951476D01*
X51759047Y-123951476D02*
X51830475Y-123951476D01*
X51830475Y-123951476D02*
X51878094Y-123975285D01*
X51878094Y-123975285D02*
X51901904Y-124022904D01*
X51901904Y-124022904D02*
X51901904Y-124284809D01*
X51901904Y-124022904D02*
X51925713Y-123975285D01*
X51925713Y-123975285D02*
X51973332Y-123951476D01*
X51973332Y-123951476D02*
X52044761Y-123951476D01*
X52044761Y-123951476D02*
X52092380Y-123975285D01*
X52092380Y-123975285D02*
X52116190Y-124022904D01*
X52116190Y-124022904D02*
X52116190Y-124284809D01*
X52330476Y-124261000D02*
X52378095Y-124284809D01*
X52378095Y-124284809D02*
X52473333Y-124284809D01*
X52473333Y-124284809D02*
X52520952Y-124261000D01*
X52520952Y-124261000D02*
X52544761Y-124213380D01*
X52544761Y-124213380D02*
X52544761Y-124189571D01*
X52544761Y-124189571D02*
X52520952Y-124141952D01*
X52520952Y-124141952D02*
X52473333Y-124118142D01*
X52473333Y-124118142D02*
X52401904Y-124118142D01*
X52401904Y-124118142D02*
X52354285Y-124094333D01*
X52354285Y-124094333D02*
X52330476Y-124046714D01*
X52330476Y-124046714D02*
X52330476Y-124022904D01*
X52330476Y-124022904D02*
X52354285Y-123975285D01*
X52354285Y-123975285D02*
X52401904Y-123951476D01*
X52401904Y-123951476D02*
X52473333Y-123951476D01*
X52473333Y-123951476D02*
X52520952Y-123975285D01*
X65590477Y-103474809D02*
X65352382Y-103474809D01*
X65352382Y-103474809D02*
X65328573Y-103712904D01*
X65328573Y-103712904D02*
X65352382Y-103689095D01*
X65352382Y-103689095D02*
X65400001Y-103665285D01*
X65400001Y-103665285D02*
X65519049Y-103665285D01*
X65519049Y-103665285D02*
X65566668Y-103689095D01*
X65566668Y-103689095D02*
X65590477Y-103712904D01*
X65590477Y-103712904D02*
X65614287Y-103760523D01*
X65614287Y-103760523D02*
X65614287Y-103879571D01*
X65614287Y-103879571D02*
X65590477Y-103927190D01*
X65590477Y-103927190D02*
X65566668Y-103951000D01*
X65566668Y-103951000D02*
X65519049Y-103974809D01*
X65519049Y-103974809D02*
X65400001Y-103974809D01*
X65400001Y-103974809D02*
X65352382Y-103951000D01*
X65352382Y-103951000D02*
X65328573Y-103927190D01*
X66066667Y-103474809D02*
X65828572Y-103474809D01*
X65828572Y-103474809D02*
X65804763Y-103712904D01*
X65804763Y-103712904D02*
X65828572Y-103689095D01*
X65828572Y-103689095D02*
X65876191Y-103665285D01*
X65876191Y-103665285D02*
X65995239Y-103665285D01*
X65995239Y-103665285D02*
X66042858Y-103689095D01*
X66042858Y-103689095D02*
X66066667Y-103712904D01*
X66066667Y-103712904D02*
X66090477Y-103760523D01*
X66090477Y-103760523D02*
X66090477Y-103879571D01*
X66090477Y-103879571D02*
X66066667Y-103927190D01*
X66066667Y-103927190D02*
X66042858Y-103951000D01*
X66042858Y-103951000D02*
X65995239Y-103974809D01*
X65995239Y-103974809D02*
X65876191Y-103974809D01*
X65876191Y-103974809D02*
X65828572Y-103951000D01*
X65828572Y-103951000D02*
X65804763Y-103927190D01*
X66542857Y-103474809D02*
X66304762Y-103474809D01*
X66304762Y-103474809D02*
X66280953Y-103712904D01*
X66280953Y-103712904D02*
X66304762Y-103689095D01*
X66304762Y-103689095D02*
X66352381Y-103665285D01*
X66352381Y-103665285D02*
X66471429Y-103665285D01*
X66471429Y-103665285D02*
X66519048Y-103689095D01*
X66519048Y-103689095D02*
X66542857Y-103712904D01*
X66542857Y-103712904D02*
X66566667Y-103760523D01*
X66566667Y-103760523D02*
X66566667Y-103879571D01*
X66566667Y-103879571D02*
X66542857Y-103927190D01*
X66542857Y-103927190D02*
X66519048Y-103951000D01*
X66519048Y-103951000D02*
X66471429Y-103974809D01*
X66471429Y-103974809D02*
X66352381Y-103974809D01*
X66352381Y-103974809D02*
X66304762Y-103951000D01*
X66304762Y-103951000D02*
X66280953Y-103927190D01*
X67090476Y-103474809D02*
X67376190Y-103474809D01*
X67233333Y-103974809D02*
X67233333Y-103474809D01*
X67542856Y-103974809D02*
X67542856Y-103641476D01*
X67542856Y-103474809D02*
X67519047Y-103498619D01*
X67519047Y-103498619D02*
X67542856Y-103522428D01*
X67542856Y-103522428D02*
X67566666Y-103498619D01*
X67566666Y-103498619D02*
X67542856Y-103474809D01*
X67542856Y-103474809D02*
X67542856Y-103522428D01*
X67780951Y-103974809D02*
X67780951Y-103641476D01*
X67780951Y-103689095D02*
X67804761Y-103665285D01*
X67804761Y-103665285D02*
X67852380Y-103641476D01*
X67852380Y-103641476D02*
X67923808Y-103641476D01*
X67923808Y-103641476D02*
X67971427Y-103665285D01*
X67971427Y-103665285D02*
X67995237Y-103712904D01*
X67995237Y-103712904D02*
X67995237Y-103974809D01*
X67995237Y-103712904D02*
X68019046Y-103665285D01*
X68019046Y-103665285D02*
X68066665Y-103641476D01*
X68066665Y-103641476D02*
X68138094Y-103641476D01*
X68138094Y-103641476D02*
X68185713Y-103665285D01*
X68185713Y-103665285D02*
X68209523Y-103712904D01*
X68209523Y-103712904D02*
X68209523Y-103974809D01*
X68638094Y-103951000D02*
X68590475Y-103974809D01*
X68590475Y-103974809D02*
X68495237Y-103974809D01*
X68495237Y-103974809D02*
X68447618Y-103951000D01*
X68447618Y-103951000D02*
X68423809Y-103903380D01*
X68423809Y-103903380D02*
X68423809Y-103712904D01*
X68423809Y-103712904D02*
X68447618Y-103665285D01*
X68447618Y-103665285D02*
X68495237Y-103641476D01*
X68495237Y-103641476D02*
X68590475Y-103641476D01*
X68590475Y-103641476D02*
X68638094Y-103665285D01*
X68638094Y-103665285D02*
X68661904Y-103712904D01*
X68661904Y-103712904D02*
X68661904Y-103760523D01*
X68661904Y-103760523D02*
X68423809Y-103808142D01*
X68876189Y-103974809D02*
X68876189Y-103641476D01*
X68876189Y-103736714D02*
X68899999Y-103689095D01*
X68899999Y-103689095D02*
X68923808Y-103665285D01*
X68923808Y-103665285D02*
X68971427Y-103641476D01*
X68971427Y-103641476D02*
X69019046Y-103641476D01*
X63879047Y-103514809D02*
X63879047Y-103919571D01*
X63879047Y-103919571D02*
X63902857Y-103967190D01*
X63902857Y-103967190D02*
X63926666Y-103991000D01*
X63926666Y-103991000D02*
X63974285Y-104014809D01*
X63974285Y-104014809D02*
X64069523Y-104014809D01*
X64069523Y-104014809D02*
X64117142Y-103991000D01*
X64117142Y-103991000D02*
X64140952Y-103967190D01*
X64140952Y-103967190D02*
X64164761Y-103919571D01*
X64164761Y-103919571D02*
X64164761Y-103514809D01*
X64379048Y-103562428D02*
X64402857Y-103538619D01*
X64402857Y-103538619D02*
X64450476Y-103514809D01*
X64450476Y-103514809D02*
X64569524Y-103514809D01*
X64569524Y-103514809D02*
X64617143Y-103538619D01*
X64617143Y-103538619D02*
X64640952Y-103562428D01*
X64640952Y-103562428D02*
X64664762Y-103610047D01*
X64664762Y-103610047D02*
X64664762Y-103657666D01*
X64664762Y-103657666D02*
X64640952Y-103729095D01*
X64640952Y-103729095D02*
X64355238Y-104014809D01*
X64355238Y-104014809D02*
X64664762Y-104014809D01*
X71657143Y-118642904D02*
X71728571Y-118666714D01*
X71728571Y-118666714D02*
X71752381Y-118690523D01*
X71752381Y-118690523D02*
X71776190Y-118738142D01*
X71776190Y-118738142D02*
X71776190Y-118809571D01*
X71776190Y-118809571D02*
X71752381Y-118857190D01*
X71752381Y-118857190D02*
X71728571Y-118881000D01*
X71728571Y-118881000D02*
X71680952Y-118904809D01*
X71680952Y-118904809D02*
X71490476Y-118904809D01*
X71490476Y-118904809D02*
X71490476Y-118404809D01*
X71490476Y-118404809D02*
X71657143Y-118404809D01*
X71657143Y-118404809D02*
X71704762Y-118428619D01*
X71704762Y-118428619D02*
X71728571Y-118452428D01*
X71728571Y-118452428D02*
X71752381Y-118500047D01*
X71752381Y-118500047D02*
X71752381Y-118547666D01*
X71752381Y-118547666D02*
X71728571Y-118595285D01*
X71728571Y-118595285D02*
X71704762Y-118619095D01*
X71704762Y-118619095D02*
X71657143Y-118642904D01*
X71657143Y-118642904D02*
X71490476Y-118642904D01*
X71919048Y-118404809D02*
X72204762Y-118404809D01*
X72061905Y-118904809D02*
X72061905Y-118404809D01*
X72347619Y-118452428D02*
X72371428Y-118428619D01*
X72371428Y-118428619D02*
X72419047Y-118404809D01*
X72419047Y-118404809D02*
X72538095Y-118404809D01*
X72538095Y-118404809D02*
X72585714Y-118428619D01*
X72585714Y-118428619D02*
X72609523Y-118452428D01*
X72609523Y-118452428D02*
X72633333Y-118500047D01*
X72633333Y-118500047D02*
X72633333Y-118547666D01*
X72633333Y-118547666D02*
X72609523Y-118619095D01*
X72609523Y-118619095D02*
X72323809Y-118904809D01*
X72323809Y-118904809D02*
X72633333Y-118904809D01*
X70472904Y-122015713D02*
X70496714Y-121944285D01*
X70496714Y-121944285D02*
X70520523Y-121920475D01*
X70520523Y-121920475D02*
X70568142Y-121896666D01*
X70568142Y-121896666D02*
X70639571Y-121896666D01*
X70639571Y-121896666D02*
X70687190Y-121920475D01*
X70687190Y-121920475D02*
X70711000Y-121944285D01*
X70711000Y-121944285D02*
X70734809Y-121991904D01*
X70734809Y-121991904D02*
X70734809Y-122182380D01*
X70734809Y-122182380D02*
X70234809Y-122182380D01*
X70234809Y-122182380D02*
X70234809Y-122015713D01*
X70234809Y-122015713D02*
X70258619Y-121968094D01*
X70258619Y-121968094D02*
X70282428Y-121944285D01*
X70282428Y-121944285D02*
X70330047Y-121920475D01*
X70330047Y-121920475D02*
X70377666Y-121920475D01*
X70377666Y-121920475D02*
X70425285Y-121944285D01*
X70425285Y-121944285D02*
X70449095Y-121968094D01*
X70449095Y-121968094D02*
X70472904Y-122015713D01*
X70472904Y-122015713D02*
X70472904Y-122182380D01*
X70734809Y-121468094D02*
X70472904Y-121468094D01*
X70472904Y-121468094D02*
X70425285Y-121491904D01*
X70425285Y-121491904D02*
X70401476Y-121539523D01*
X70401476Y-121539523D02*
X70401476Y-121634761D01*
X70401476Y-121634761D02*
X70425285Y-121682380D01*
X70711000Y-121468094D02*
X70734809Y-121515713D01*
X70734809Y-121515713D02*
X70734809Y-121634761D01*
X70734809Y-121634761D02*
X70711000Y-121682380D01*
X70711000Y-121682380D02*
X70663380Y-121706189D01*
X70663380Y-121706189D02*
X70615761Y-121706189D01*
X70615761Y-121706189D02*
X70568142Y-121682380D01*
X70568142Y-121682380D02*
X70544333Y-121634761D01*
X70544333Y-121634761D02*
X70544333Y-121515713D01*
X70544333Y-121515713D02*
X70520523Y-121468094D01*
X70401476Y-121301427D02*
X70401476Y-121110951D01*
X70234809Y-121229999D02*
X70663380Y-121229999D01*
X70663380Y-121229999D02*
X70711000Y-121206189D01*
X70711000Y-121206189D02*
X70734809Y-121158570D01*
X70734809Y-121158570D02*
X70734809Y-121110951D01*
X70401476Y-121015713D02*
X70401476Y-120825237D01*
X70234809Y-120944285D02*
X70663380Y-120944285D01*
X70663380Y-120944285D02*
X70711000Y-120920475D01*
X70711000Y-120920475D02*
X70734809Y-120872856D01*
X70734809Y-120872856D02*
X70734809Y-120825237D01*
X70711000Y-120468095D02*
X70734809Y-120515714D01*
X70734809Y-120515714D02*
X70734809Y-120610952D01*
X70734809Y-120610952D02*
X70711000Y-120658571D01*
X70711000Y-120658571D02*
X70663380Y-120682380D01*
X70663380Y-120682380D02*
X70472904Y-120682380D01*
X70472904Y-120682380D02*
X70425285Y-120658571D01*
X70425285Y-120658571D02*
X70401476Y-120610952D01*
X70401476Y-120610952D02*
X70401476Y-120515714D01*
X70401476Y-120515714D02*
X70425285Y-120468095D01*
X70425285Y-120468095D02*
X70472904Y-120444285D01*
X70472904Y-120444285D02*
X70520523Y-120444285D01*
X70520523Y-120444285D02*
X70568142Y-120682380D01*
X70734809Y-120230000D02*
X70401476Y-120230000D01*
X70496714Y-120230000D02*
X70449095Y-120206190D01*
X70449095Y-120206190D02*
X70425285Y-120182381D01*
X70425285Y-120182381D02*
X70401476Y-120134762D01*
X70401476Y-120134762D02*
X70401476Y-120087143D01*
X70401476Y-119968095D02*
X70734809Y-119849047D01*
X70401476Y-119730000D02*
X70734809Y-119849047D01*
X70734809Y-119849047D02*
X70853857Y-119896666D01*
X70853857Y-119896666D02*
X70877666Y-119920476D01*
X70877666Y-119920476D02*
X70901476Y-119968095D01*
X37449048Y-116131000D02*
X37520476Y-116154809D01*
X37520476Y-116154809D02*
X37639524Y-116154809D01*
X37639524Y-116154809D02*
X37687143Y-116131000D01*
X37687143Y-116131000D02*
X37710952Y-116107190D01*
X37710952Y-116107190D02*
X37734762Y-116059571D01*
X37734762Y-116059571D02*
X37734762Y-116011952D01*
X37734762Y-116011952D02*
X37710952Y-115964333D01*
X37710952Y-115964333D02*
X37687143Y-115940523D01*
X37687143Y-115940523D02*
X37639524Y-115916714D01*
X37639524Y-115916714D02*
X37544286Y-115892904D01*
X37544286Y-115892904D02*
X37496667Y-115869095D01*
X37496667Y-115869095D02*
X37472857Y-115845285D01*
X37472857Y-115845285D02*
X37449048Y-115797666D01*
X37449048Y-115797666D02*
X37449048Y-115750047D01*
X37449048Y-115750047D02*
X37472857Y-115702428D01*
X37472857Y-115702428D02*
X37496667Y-115678619D01*
X37496667Y-115678619D02*
X37544286Y-115654809D01*
X37544286Y-115654809D02*
X37663333Y-115654809D01*
X37663333Y-115654809D02*
X37734762Y-115678619D01*
X38210952Y-116154809D02*
X37925238Y-116154809D01*
X38068095Y-116154809D02*
X38068095Y-115654809D01*
X38068095Y-115654809D02*
X38020476Y-115726238D01*
X38020476Y-115726238D02*
X37972857Y-115773857D01*
X37972857Y-115773857D02*
X37925238Y-115797666D01*
X42039524Y-116234809D02*
X42039524Y-115734809D01*
X42039524Y-115734809D02*
X42230000Y-115734809D01*
X42230000Y-115734809D02*
X42277619Y-115758619D01*
X42277619Y-115758619D02*
X42301429Y-115782428D01*
X42301429Y-115782428D02*
X42325238Y-115830047D01*
X42325238Y-115830047D02*
X42325238Y-115901476D01*
X42325238Y-115901476D02*
X42301429Y-115949095D01*
X42301429Y-115949095D02*
X42277619Y-115972904D01*
X42277619Y-115972904D02*
X42230000Y-115996714D01*
X42230000Y-115996714D02*
X42039524Y-115996714D01*
X42753810Y-115901476D02*
X42753810Y-116234809D01*
X42539524Y-115901476D02*
X42539524Y-116163380D01*
X42539524Y-116163380D02*
X42563334Y-116211000D01*
X42563334Y-116211000D02*
X42610953Y-116234809D01*
X42610953Y-116234809D02*
X42682381Y-116234809D01*
X42682381Y-116234809D02*
X42730000Y-116211000D01*
X42730000Y-116211000D02*
X42753810Y-116187190D01*
X42968096Y-116211000D02*
X43015715Y-116234809D01*
X43015715Y-116234809D02*
X43110953Y-116234809D01*
X43110953Y-116234809D02*
X43158572Y-116211000D01*
X43158572Y-116211000D02*
X43182381Y-116163380D01*
X43182381Y-116163380D02*
X43182381Y-116139571D01*
X43182381Y-116139571D02*
X43158572Y-116091952D01*
X43158572Y-116091952D02*
X43110953Y-116068142D01*
X43110953Y-116068142D02*
X43039524Y-116068142D01*
X43039524Y-116068142D02*
X42991905Y-116044333D01*
X42991905Y-116044333D02*
X42968096Y-115996714D01*
X42968096Y-115996714D02*
X42968096Y-115972904D01*
X42968096Y-115972904D02*
X42991905Y-115925285D01*
X42991905Y-115925285D02*
X43039524Y-115901476D01*
X43039524Y-115901476D02*
X43110953Y-115901476D01*
X43110953Y-115901476D02*
X43158572Y-115925285D01*
X43396667Y-116234809D02*
X43396667Y-115734809D01*
X43610953Y-116234809D02*
X43610953Y-115972904D01*
X43610953Y-115972904D02*
X43587143Y-115925285D01*
X43587143Y-115925285D02*
X43539524Y-115901476D01*
X43539524Y-115901476D02*
X43468096Y-115901476D01*
X43468096Y-115901476D02*
X43420477Y-115925285D01*
X43420477Y-115925285D02*
X43396667Y-115949095D01*
X44396667Y-115972904D02*
X44468095Y-115996714D01*
X44468095Y-115996714D02*
X44491905Y-116020523D01*
X44491905Y-116020523D02*
X44515714Y-116068142D01*
X44515714Y-116068142D02*
X44515714Y-116139571D01*
X44515714Y-116139571D02*
X44491905Y-116187190D01*
X44491905Y-116187190D02*
X44468095Y-116211000D01*
X44468095Y-116211000D02*
X44420476Y-116234809D01*
X44420476Y-116234809D02*
X44230000Y-116234809D01*
X44230000Y-116234809D02*
X44230000Y-115734809D01*
X44230000Y-115734809D02*
X44396667Y-115734809D01*
X44396667Y-115734809D02*
X44444286Y-115758619D01*
X44444286Y-115758619D02*
X44468095Y-115782428D01*
X44468095Y-115782428D02*
X44491905Y-115830047D01*
X44491905Y-115830047D02*
X44491905Y-115877666D01*
X44491905Y-115877666D02*
X44468095Y-115925285D01*
X44468095Y-115925285D02*
X44444286Y-115949095D01*
X44444286Y-115949095D02*
X44396667Y-115972904D01*
X44396667Y-115972904D02*
X44230000Y-115972904D01*
X44944286Y-115901476D02*
X44944286Y-116234809D01*
X44730000Y-115901476D02*
X44730000Y-116163380D01*
X44730000Y-116163380D02*
X44753810Y-116211000D01*
X44753810Y-116211000D02*
X44801429Y-116234809D01*
X44801429Y-116234809D02*
X44872857Y-116234809D01*
X44872857Y-116234809D02*
X44920476Y-116211000D01*
X44920476Y-116211000D02*
X44944286Y-116187190D01*
X45110953Y-115901476D02*
X45301429Y-115901476D01*
X45182381Y-115734809D02*
X45182381Y-116163380D01*
X45182381Y-116163380D02*
X45206191Y-116211000D01*
X45206191Y-116211000D02*
X45253810Y-116234809D01*
X45253810Y-116234809D02*
X45301429Y-116234809D01*
X45396667Y-115901476D02*
X45587143Y-115901476D01*
X45468095Y-115734809D02*
X45468095Y-116163380D01*
X45468095Y-116163380D02*
X45491905Y-116211000D01*
X45491905Y-116211000D02*
X45539524Y-116234809D01*
X45539524Y-116234809D02*
X45587143Y-116234809D01*
X45825238Y-116234809D02*
X45777619Y-116211000D01*
X45777619Y-116211000D02*
X45753809Y-116187190D01*
X45753809Y-116187190D02*
X45730000Y-116139571D01*
X45730000Y-116139571D02*
X45730000Y-115996714D01*
X45730000Y-115996714D02*
X45753809Y-115949095D01*
X45753809Y-115949095D02*
X45777619Y-115925285D01*
X45777619Y-115925285D02*
X45825238Y-115901476D01*
X45825238Y-115901476D02*
X45896666Y-115901476D01*
X45896666Y-115901476D02*
X45944285Y-115925285D01*
X45944285Y-115925285D02*
X45968095Y-115949095D01*
X45968095Y-115949095D02*
X45991904Y-115996714D01*
X45991904Y-115996714D02*
X45991904Y-116139571D01*
X45991904Y-116139571D02*
X45968095Y-116187190D01*
X45968095Y-116187190D02*
X45944285Y-116211000D01*
X45944285Y-116211000D02*
X45896666Y-116234809D01*
X45896666Y-116234809D02*
X45825238Y-116234809D01*
X46206190Y-115901476D02*
X46206190Y-116234809D01*
X46206190Y-115949095D02*
X46230000Y-115925285D01*
X46230000Y-115925285D02*
X46277619Y-115901476D01*
X46277619Y-115901476D02*
X46349047Y-115901476D01*
X46349047Y-115901476D02*
X46396666Y-115925285D01*
X46396666Y-115925285D02*
X46420476Y-115972904D01*
X46420476Y-115972904D02*
X46420476Y-116234809D01*
X46866666Y-99117190D02*
X46842857Y-99141000D01*
X46842857Y-99141000D02*
X46771428Y-99164809D01*
X46771428Y-99164809D02*
X46723809Y-99164809D01*
X46723809Y-99164809D02*
X46652381Y-99141000D01*
X46652381Y-99141000D02*
X46604762Y-99093380D01*
X46604762Y-99093380D02*
X46580952Y-99045761D01*
X46580952Y-99045761D02*
X46557143Y-98950523D01*
X46557143Y-98950523D02*
X46557143Y-98879095D01*
X46557143Y-98879095D02*
X46580952Y-98783857D01*
X46580952Y-98783857D02*
X46604762Y-98736238D01*
X46604762Y-98736238D02*
X46652381Y-98688619D01*
X46652381Y-98688619D02*
X46723809Y-98664809D01*
X46723809Y-98664809D02*
X46771428Y-98664809D01*
X46771428Y-98664809D02*
X46842857Y-98688619D01*
X46842857Y-98688619D02*
X46866666Y-98712428D01*
X47057143Y-98712428D02*
X47080952Y-98688619D01*
X47080952Y-98688619D02*
X47128571Y-98664809D01*
X47128571Y-98664809D02*
X47247619Y-98664809D01*
X47247619Y-98664809D02*
X47295238Y-98688619D01*
X47295238Y-98688619D02*
X47319047Y-98712428D01*
X47319047Y-98712428D02*
X47342857Y-98760047D01*
X47342857Y-98760047D02*
X47342857Y-98807666D01*
X47342857Y-98807666D02*
X47319047Y-98879095D01*
X47319047Y-98879095D02*
X47033333Y-99164809D01*
X47033333Y-99164809D02*
X47342857Y-99164809D01*
X49662381Y-99124809D02*
X49376667Y-99124809D01*
X49519524Y-99124809D02*
X49519524Y-98624809D01*
X49519524Y-98624809D02*
X49471905Y-98696238D01*
X49471905Y-98696238D02*
X49424286Y-98743857D01*
X49424286Y-98743857D02*
X49376667Y-98767666D01*
X50090952Y-98791476D02*
X50090952Y-99124809D01*
X49876666Y-98791476D02*
X49876666Y-99053380D01*
X49876666Y-99053380D02*
X49900476Y-99101000D01*
X49900476Y-99101000D02*
X49948095Y-99124809D01*
X49948095Y-99124809D02*
X50019523Y-99124809D01*
X50019523Y-99124809D02*
X50067142Y-99101000D01*
X50067142Y-99101000D02*
X50090952Y-99077190D01*
X50495714Y-98862904D02*
X50329047Y-98862904D01*
X50329047Y-99124809D02*
X50329047Y-98624809D01*
X50329047Y-98624809D02*
X50567142Y-98624809D01*
X61253333Y-98764809D02*
X61253333Y-99121952D01*
X61253333Y-99121952D02*
X61229524Y-99193380D01*
X61229524Y-99193380D02*
X61181905Y-99241000D01*
X61181905Y-99241000D02*
X61110476Y-99264809D01*
X61110476Y-99264809D02*
X61062857Y-99264809D01*
X61705714Y-98931476D02*
X61705714Y-99264809D01*
X61586666Y-98741000D02*
X61467619Y-99098142D01*
X61467619Y-99098142D02*
X61777142Y-99098142D01*
X61213809Y-98447190D02*
X61190000Y-98471000D01*
X61190000Y-98471000D02*
X61118571Y-98494809D01*
X61118571Y-98494809D02*
X61070952Y-98494809D01*
X61070952Y-98494809D02*
X60999524Y-98471000D01*
X60999524Y-98471000D02*
X60951905Y-98423380D01*
X60951905Y-98423380D02*
X60928095Y-98375761D01*
X60928095Y-98375761D02*
X60904286Y-98280523D01*
X60904286Y-98280523D02*
X60904286Y-98209095D01*
X60904286Y-98209095D02*
X60928095Y-98113857D01*
X60928095Y-98113857D02*
X60951905Y-98066238D01*
X60951905Y-98066238D02*
X60999524Y-98018619D01*
X60999524Y-98018619D02*
X61070952Y-97994809D01*
X61070952Y-97994809D02*
X61118571Y-97994809D01*
X61118571Y-97994809D02*
X61190000Y-98018619D01*
X61190000Y-98018619D02*
X61213809Y-98042428D01*
X61642381Y-98494809D02*
X61642381Y-98232904D01*
X61642381Y-98232904D02*
X61618571Y-98185285D01*
X61618571Y-98185285D02*
X61570952Y-98161476D01*
X61570952Y-98161476D02*
X61475714Y-98161476D01*
X61475714Y-98161476D02*
X61428095Y-98185285D01*
X61642381Y-98471000D02*
X61594762Y-98494809D01*
X61594762Y-98494809D02*
X61475714Y-98494809D01*
X61475714Y-98494809D02*
X61428095Y-98471000D01*
X61428095Y-98471000D02*
X61404286Y-98423380D01*
X61404286Y-98423380D02*
X61404286Y-98375761D01*
X61404286Y-98375761D02*
X61428095Y-98328142D01*
X61428095Y-98328142D02*
X61475714Y-98304333D01*
X61475714Y-98304333D02*
X61594762Y-98304333D01*
X61594762Y-98304333D02*
X61642381Y-98280523D01*
X61880476Y-98494809D02*
X61880476Y-98161476D01*
X61880476Y-98256714D02*
X61904286Y-98209095D01*
X61904286Y-98209095D02*
X61928095Y-98185285D01*
X61928095Y-98185285D02*
X61975714Y-98161476D01*
X61975714Y-98161476D02*
X62023333Y-98161476D01*
X59384286Y-115182904D02*
X59455714Y-115206714D01*
X59455714Y-115206714D02*
X59479524Y-115230523D01*
X59479524Y-115230523D02*
X59503333Y-115278142D01*
X59503333Y-115278142D02*
X59503333Y-115349571D01*
X59503333Y-115349571D02*
X59479524Y-115397190D01*
X59479524Y-115397190D02*
X59455714Y-115421000D01*
X59455714Y-115421000D02*
X59408095Y-115444809D01*
X59408095Y-115444809D02*
X59217619Y-115444809D01*
X59217619Y-115444809D02*
X59217619Y-114944809D01*
X59217619Y-114944809D02*
X59384286Y-114944809D01*
X59384286Y-114944809D02*
X59431905Y-114968619D01*
X59431905Y-114968619D02*
X59455714Y-114992428D01*
X59455714Y-114992428D02*
X59479524Y-115040047D01*
X59479524Y-115040047D02*
X59479524Y-115087666D01*
X59479524Y-115087666D02*
X59455714Y-115135285D01*
X59455714Y-115135285D02*
X59431905Y-115159095D01*
X59431905Y-115159095D02*
X59384286Y-115182904D01*
X59384286Y-115182904D02*
X59217619Y-115182904D01*
X59931905Y-115444809D02*
X59931905Y-115182904D01*
X59931905Y-115182904D02*
X59908095Y-115135285D01*
X59908095Y-115135285D02*
X59860476Y-115111476D01*
X59860476Y-115111476D02*
X59765238Y-115111476D01*
X59765238Y-115111476D02*
X59717619Y-115135285D01*
X59931905Y-115421000D02*
X59884286Y-115444809D01*
X59884286Y-115444809D02*
X59765238Y-115444809D01*
X59765238Y-115444809D02*
X59717619Y-115421000D01*
X59717619Y-115421000D02*
X59693810Y-115373380D01*
X59693810Y-115373380D02*
X59693810Y-115325761D01*
X59693810Y-115325761D02*
X59717619Y-115278142D01*
X59717619Y-115278142D02*
X59765238Y-115254333D01*
X59765238Y-115254333D02*
X59884286Y-115254333D01*
X59884286Y-115254333D02*
X59931905Y-115230523D01*
X60098572Y-115111476D02*
X60289048Y-115111476D01*
X60170000Y-114944809D02*
X60170000Y-115373380D01*
X60170000Y-115373380D02*
X60193810Y-115421000D01*
X60193810Y-115421000D02*
X60241429Y-115444809D01*
X60241429Y-115444809D02*
X60289048Y-115444809D01*
X60384286Y-115111476D02*
X60574762Y-115111476D01*
X60455714Y-114944809D02*
X60455714Y-115373380D01*
X60455714Y-115373380D02*
X60479524Y-115421000D01*
X60479524Y-115421000D02*
X60527143Y-115444809D01*
X60527143Y-115444809D02*
X60574762Y-115444809D01*
X60931904Y-115421000D02*
X60884285Y-115444809D01*
X60884285Y-115444809D02*
X60789047Y-115444809D01*
X60789047Y-115444809D02*
X60741428Y-115421000D01*
X60741428Y-115421000D02*
X60717619Y-115373380D01*
X60717619Y-115373380D02*
X60717619Y-115182904D01*
X60717619Y-115182904D02*
X60741428Y-115135285D01*
X60741428Y-115135285D02*
X60789047Y-115111476D01*
X60789047Y-115111476D02*
X60884285Y-115111476D01*
X60884285Y-115111476D02*
X60931904Y-115135285D01*
X60931904Y-115135285D02*
X60955714Y-115182904D01*
X60955714Y-115182904D02*
X60955714Y-115230523D01*
X60955714Y-115230523D02*
X60717619Y-115278142D01*
X61169999Y-115444809D02*
X61169999Y-115111476D01*
X61169999Y-115206714D02*
X61193809Y-115159095D01*
X61193809Y-115159095D02*
X61217618Y-115135285D01*
X61217618Y-115135285D02*
X61265237Y-115111476D01*
X61265237Y-115111476D02*
X61312856Y-115111476D01*
X61431904Y-115111476D02*
X61550952Y-115444809D01*
X61669999Y-115111476D02*
X61550952Y-115444809D01*
X61550952Y-115444809D02*
X61503333Y-115563857D01*
X61503333Y-115563857D02*
X61479523Y-115587666D01*
X61479523Y-115587666D02*
X61431904Y-115611476D01*
X55627143Y-115192904D02*
X55698571Y-115216714D01*
X55698571Y-115216714D02*
X55722381Y-115240523D01*
X55722381Y-115240523D02*
X55746190Y-115288142D01*
X55746190Y-115288142D02*
X55746190Y-115359571D01*
X55746190Y-115359571D02*
X55722381Y-115407190D01*
X55722381Y-115407190D02*
X55698571Y-115431000D01*
X55698571Y-115431000D02*
X55650952Y-115454809D01*
X55650952Y-115454809D02*
X55460476Y-115454809D01*
X55460476Y-115454809D02*
X55460476Y-114954809D01*
X55460476Y-114954809D02*
X55627143Y-114954809D01*
X55627143Y-114954809D02*
X55674762Y-114978619D01*
X55674762Y-114978619D02*
X55698571Y-115002428D01*
X55698571Y-115002428D02*
X55722381Y-115050047D01*
X55722381Y-115050047D02*
X55722381Y-115097666D01*
X55722381Y-115097666D02*
X55698571Y-115145285D01*
X55698571Y-115145285D02*
X55674762Y-115169095D01*
X55674762Y-115169095D02*
X55627143Y-115192904D01*
X55627143Y-115192904D02*
X55460476Y-115192904D01*
X55889048Y-114954809D02*
X56174762Y-114954809D01*
X56031905Y-115454809D02*
X56031905Y-114954809D01*
X56603333Y-115454809D02*
X56317619Y-115454809D01*
X56460476Y-115454809D02*
X56460476Y-114954809D01*
X56460476Y-114954809D02*
X56412857Y-115026238D01*
X56412857Y-115026238D02*
X56365238Y-115073857D01*
X56365238Y-115073857D02*
X56317619Y-115097666D01*
X78079047Y-123194809D02*
X78079047Y-123599571D01*
X78079047Y-123599571D02*
X78102857Y-123647190D01*
X78102857Y-123647190D02*
X78126666Y-123671000D01*
X78126666Y-123671000D02*
X78174285Y-123694809D01*
X78174285Y-123694809D02*
X78269523Y-123694809D01*
X78269523Y-123694809D02*
X78317142Y-123671000D01*
X78317142Y-123671000D02*
X78340952Y-123647190D01*
X78340952Y-123647190D02*
X78364761Y-123599571D01*
X78364761Y-123599571D02*
X78364761Y-123194809D01*
X78817143Y-123361476D02*
X78817143Y-123694809D01*
X78698095Y-123171000D02*
X78579048Y-123528142D01*
X78579048Y-123528142D02*
X78888571Y-123528142D01*
X79682382Y-123484809D02*
X79444287Y-123484809D01*
X79444287Y-123484809D02*
X79420478Y-123722904D01*
X79420478Y-123722904D02*
X79444287Y-123699095D01*
X79444287Y-123699095D02*
X79491906Y-123675285D01*
X79491906Y-123675285D02*
X79610954Y-123675285D01*
X79610954Y-123675285D02*
X79658573Y-123699095D01*
X79658573Y-123699095D02*
X79682382Y-123722904D01*
X79682382Y-123722904D02*
X79706192Y-123770523D01*
X79706192Y-123770523D02*
X79706192Y-123889571D01*
X79706192Y-123889571D02*
X79682382Y-123937190D01*
X79682382Y-123937190D02*
X79658573Y-123961000D01*
X79658573Y-123961000D02*
X79610954Y-123984809D01*
X79610954Y-123984809D02*
X79491906Y-123984809D01*
X79491906Y-123984809D02*
X79444287Y-123961000D01*
X79444287Y-123961000D02*
X79420478Y-123937190D01*
X79849049Y-123484809D02*
X80015715Y-123984809D01*
X80015715Y-123984809D02*
X80182382Y-123484809D01*
X80658572Y-123484809D02*
X80825238Y-123984809D01*
X80825238Y-123984809D02*
X80991905Y-123484809D01*
X81158571Y-123937190D02*
X81182381Y-123961000D01*
X81182381Y-123961000D02*
X81158571Y-123984809D01*
X81158571Y-123984809D02*
X81134762Y-123961000D01*
X81134762Y-123961000D02*
X81158571Y-123937190D01*
X81158571Y-123937190D02*
X81158571Y-123984809D01*
X81682380Y-123984809D02*
X81515714Y-123746714D01*
X81396666Y-123984809D02*
X81396666Y-123484809D01*
X81396666Y-123484809D02*
X81587142Y-123484809D01*
X81587142Y-123484809D02*
X81634761Y-123508619D01*
X81634761Y-123508619D02*
X81658571Y-123532428D01*
X81658571Y-123532428D02*
X81682380Y-123580047D01*
X81682380Y-123580047D02*
X81682380Y-123651476D01*
X81682380Y-123651476D02*
X81658571Y-123699095D01*
X81658571Y-123699095D02*
X81634761Y-123722904D01*
X81634761Y-123722904D02*
X81587142Y-123746714D01*
X81587142Y-123746714D02*
X81396666Y-123746714D01*
X82539523Y-123984809D02*
X82253809Y-123984809D01*
X82396666Y-123984809D02*
X82396666Y-123484809D01*
X82396666Y-123484809D02*
X82349047Y-123556238D01*
X82349047Y-123556238D02*
X82301428Y-123603857D01*
X82301428Y-123603857D02*
X82253809Y-123627666D01*
X40762381Y-108034809D02*
X40476667Y-108034809D01*
X40619524Y-108034809D02*
X40619524Y-107534809D01*
X40619524Y-107534809D02*
X40571905Y-107606238D01*
X40571905Y-107606238D02*
X40524286Y-107653857D01*
X40524286Y-107653857D02*
X40476667Y-107677666D01*
X41190952Y-107701476D02*
X41190952Y-108034809D01*
X40976666Y-107701476D02*
X40976666Y-107963380D01*
X40976666Y-107963380D02*
X41000476Y-108011000D01*
X41000476Y-108011000D02*
X41048095Y-108034809D01*
X41048095Y-108034809D02*
X41119523Y-108034809D01*
X41119523Y-108034809D02*
X41167142Y-108011000D01*
X41167142Y-108011000D02*
X41190952Y-107987190D01*
X41595714Y-107772904D02*
X41429047Y-107772904D01*
X41429047Y-108034809D02*
X41429047Y-107534809D01*
X41429047Y-107534809D02*
X41667142Y-107534809D01*
X39326666Y-107967190D02*
X39302857Y-107991000D01*
X39302857Y-107991000D02*
X39231428Y-108014809D01*
X39231428Y-108014809D02*
X39183809Y-108014809D01*
X39183809Y-108014809D02*
X39112381Y-107991000D01*
X39112381Y-107991000D02*
X39064762Y-107943380D01*
X39064762Y-107943380D02*
X39040952Y-107895761D01*
X39040952Y-107895761D02*
X39017143Y-107800523D01*
X39017143Y-107800523D02*
X39017143Y-107729095D01*
X39017143Y-107729095D02*
X39040952Y-107633857D01*
X39040952Y-107633857D02*
X39064762Y-107586238D01*
X39064762Y-107586238D02*
X39112381Y-107538619D01*
X39112381Y-107538619D02*
X39183809Y-107514809D01*
X39183809Y-107514809D02*
X39231428Y-107514809D01*
X39231428Y-107514809D02*
X39302857Y-107538619D01*
X39302857Y-107538619D02*
X39326666Y-107562428D01*
X39802857Y-108014809D02*
X39517143Y-108014809D01*
X39660000Y-108014809D02*
X39660000Y-107514809D01*
X39660000Y-107514809D02*
X39612381Y-107586238D01*
X39612381Y-107586238D02*
X39564762Y-107633857D01*
X39564762Y-107633857D02*
X39517143Y-107657666D01*
X66373333Y-118344809D02*
X66373333Y-118701952D01*
X66373333Y-118701952D02*
X66349524Y-118773380D01*
X66349524Y-118773380D02*
X66301905Y-118821000D01*
X66301905Y-118821000D02*
X66230476Y-118844809D01*
X66230476Y-118844809D02*
X66182857Y-118844809D01*
X66849523Y-118344809D02*
X66611428Y-118344809D01*
X66611428Y-118344809D02*
X66587619Y-118582904D01*
X66587619Y-118582904D02*
X66611428Y-118559095D01*
X66611428Y-118559095D02*
X66659047Y-118535285D01*
X66659047Y-118535285D02*
X66778095Y-118535285D01*
X66778095Y-118535285D02*
X66825714Y-118559095D01*
X66825714Y-118559095D02*
X66849523Y-118582904D01*
X66849523Y-118582904D02*
X66873333Y-118630523D01*
X66873333Y-118630523D02*
X66873333Y-118749571D01*
X66873333Y-118749571D02*
X66849523Y-118797190D01*
X66849523Y-118797190D02*
X66825714Y-118821000D01*
X66825714Y-118821000D02*
X66778095Y-118844809D01*
X66778095Y-118844809D02*
X66659047Y-118844809D01*
X66659047Y-118844809D02*
X66611428Y-118821000D01*
X66611428Y-118821000D02*
X66587619Y-118797190D01*
X68579999Y-118797190D02*
X68556190Y-118821000D01*
X68556190Y-118821000D02*
X68484761Y-118844809D01*
X68484761Y-118844809D02*
X68437142Y-118844809D01*
X68437142Y-118844809D02*
X68365714Y-118821000D01*
X68365714Y-118821000D02*
X68318095Y-118773380D01*
X68318095Y-118773380D02*
X68294285Y-118725761D01*
X68294285Y-118725761D02*
X68270476Y-118630523D01*
X68270476Y-118630523D02*
X68270476Y-118559095D01*
X68270476Y-118559095D02*
X68294285Y-118463857D01*
X68294285Y-118463857D02*
X68318095Y-118416238D01*
X68318095Y-118416238D02*
X68365714Y-118368619D01*
X68365714Y-118368619D02*
X68437142Y-118344809D01*
X68437142Y-118344809D02*
X68484761Y-118344809D01*
X68484761Y-118344809D02*
X68556190Y-118368619D01*
X68556190Y-118368619D02*
X68579999Y-118392428D01*
X69008571Y-118844809D02*
X69008571Y-118582904D01*
X69008571Y-118582904D02*
X68984761Y-118535285D01*
X68984761Y-118535285D02*
X68937142Y-118511476D01*
X68937142Y-118511476D02*
X68841904Y-118511476D01*
X68841904Y-118511476D02*
X68794285Y-118535285D01*
X69008571Y-118821000D02*
X68960952Y-118844809D01*
X68960952Y-118844809D02*
X68841904Y-118844809D01*
X68841904Y-118844809D02*
X68794285Y-118821000D01*
X68794285Y-118821000D02*
X68770476Y-118773380D01*
X68770476Y-118773380D02*
X68770476Y-118725761D01*
X68770476Y-118725761D02*
X68794285Y-118678142D01*
X68794285Y-118678142D02*
X68841904Y-118654333D01*
X68841904Y-118654333D02*
X68960952Y-118654333D01*
X68960952Y-118654333D02*
X69008571Y-118630523D01*
X69246666Y-118844809D02*
X69246666Y-118511476D01*
X69246666Y-118559095D02*
X69270476Y-118535285D01*
X69270476Y-118535285D02*
X69318095Y-118511476D01*
X69318095Y-118511476D02*
X69389523Y-118511476D01*
X69389523Y-118511476D02*
X69437142Y-118535285D01*
X69437142Y-118535285D02*
X69460952Y-118582904D01*
X69460952Y-118582904D02*
X69460952Y-118844809D01*
X69460952Y-118582904D02*
X69484761Y-118535285D01*
X69484761Y-118535285D02*
X69532380Y-118511476D01*
X69532380Y-118511476D02*
X69603809Y-118511476D01*
X69603809Y-118511476D02*
X69651428Y-118535285D01*
X69651428Y-118535285D02*
X69675238Y-118582904D01*
X69675238Y-118582904D02*
X69675238Y-118844809D01*
X70103809Y-118821000D02*
X70056190Y-118844809D01*
X70056190Y-118844809D02*
X69960952Y-118844809D01*
X69960952Y-118844809D02*
X69913333Y-118821000D01*
X69913333Y-118821000D02*
X69889524Y-118773380D01*
X69889524Y-118773380D02*
X69889524Y-118582904D01*
X69889524Y-118582904D02*
X69913333Y-118535285D01*
X69913333Y-118535285D02*
X69960952Y-118511476D01*
X69960952Y-118511476D02*
X70056190Y-118511476D01*
X70056190Y-118511476D02*
X70103809Y-118535285D01*
X70103809Y-118535285D02*
X70127619Y-118582904D01*
X70127619Y-118582904D02*
X70127619Y-118630523D01*
X70127619Y-118630523D02*
X69889524Y-118678142D01*
X70341904Y-118844809D02*
X70341904Y-118511476D01*
X70341904Y-118606714D02*
X70365714Y-118559095D01*
X70365714Y-118559095D02*
X70389523Y-118535285D01*
X70389523Y-118535285D02*
X70437142Y-118511476D01*
X70437142Y-118511476D02*
X70484761Y-118511476D01*
X70865714Y-118844809D02*
X70865714Y-118582904D01*
X70865714Y-118582904D02*
X70841904Y-118535285D01*
X70841904Y-118535285D02*
X70794285Y-118511476D01*
X70794285Y-118511476D02*
X70699047Y-118511476D01*
X70699047Y-118511476D02*
X70651428Y-118535285D01*
X70865714Y-118821000D02*
X70818095Y-118844809D01*
X70818095Y-118844809D02*
X70699047Y-118844809D01*
X70699047Y-118844809D02*
X70651428Y-118821000D01*
X70651428Y-118821000D02*
X70627619Y-118773380D01*
X70627619Y-118773380D02*
X70627619Y-118725761D01*
X70627619Y-118725761D02*
X70651428Y-118678142D01*
X70651428Y-118678142D02*
X70699047Y-118654333D01*
X70699047Y-118654333D02*
X70818095Y-118654333D01*
X70818095Y-118654333D02*
X70865714Y-118630523D01*
X53368572Y-107934809D02*
X53416191Y-107934809D01*
X53416191Y-107934809D02*
X53463810Y-107958619D01*
X53463810Y-107958619D02*
X53487620Y-107982428D01*
X53487620Y-107982428D02*
X53511429Y-108030047D01*
X53511429Y-108030047D02*
X53535239Y-108125285D01*
X53535239Y-108125285D02*
X53535239Y-108244333D01*
X53535239Y-108244333D02*
X53511429Y-108339571D01*
X53511429Y-108339571D02*
X53487620Y-108387190D01*
X53487620Y-108387190D02*
X53463810Y-108411000D01*
X53463810Y-108411000D02*
X53416191Y-108434809D01*
X53416191Y-108434809D02*
X53368572Y-108434809D01*
X53368572Y-108434809D02*
X53320953Y-108411000D01*
X53320953Y-108411000D02*
X53297144Y-108387190D01*
X53297144Y-108387190D02*
X53273334Y-108339571D01*
X53273334Y-108339571D02*
X53249525Y-108244333D01*
X53249525Y-108244333D02*
X53249525Y-108125285D01*
X53249525Y-108125285D02*
X53273334Y-108030047D01*
X53273334Y-108030047D02*
X53297144Y-107982428D01*
X53297144Y-107982428D02*
X53320953Y-107958619D01*
X53320953Y-107958619D02*
X53368572Y-107934809D01*
X53749524Y-108387190D02*
X53773334Y-108411000D01*
X53773334Y-108411000D02*
X53749524Y-108434809D01*
X53749524Y-108434809D02*
X53725715Y-108411000D01*
X53725715Y-108411000D02*
X53749524Y-108387190D01*
X53749524Y-108387190D02*
X53749524Y-108434809D01*
X54249524Y-108434809D02*
X53963810Y-108434809D01*
X54106667Y-108434809D02*
X54106667Y-107934809D01*
X54106667Y-107934809D02*
X54059048Y-108006238D01*
X54059048Y-108006238D02*
X54011429Y-108053857D01*
X54011429Y-108053857D02*
X53963810Y-108077666D01*
X54678095Y-108101476D02*
X54678095Y-108434809D01*
X54463809Y-108101476D02*
X54463809Y-108363380D01*
X54463809Y-108363380D02*
X54487619Y-108411000D01*
X54487619Y-108411000D02*
X54535238Y-108434809D01*
X54535238Y-108434809D02*
X54606666Y-108434809D01*
X54606666Y-108434809D02*
X54654285Y-108411000D01*
X54654285Y-108411000D02*
X54678095Y-108387190D01*
X55082857Y-108172904D02*
X54916190Y-108172904D01*
X54916190Y-108434809D02*
X54916190Y-107934809D01*
X54916190Y-107934809D02*
X55154285Y-107934809D01*
X53856666Y-109207190D02*
X53832857Y-109231000D01*
X53832857Y-109231000D02*
X53761428Y-109254809D01*
X53761428Y-109254809D02*
X53713809Y-109254809D01*
X53713809Y-109254809D02*
X53642381Y-109231000D01*
X53642381Y-109231000D02*
X53594762Y-109183380D01*
X53594762Y-109183380D02*
X53570952Y-109135761D01*
X53570952Y-109135761D02*
X53547143Y-109040523D01*
X53547143Y-109040523D02*
X53547143Y-108969095D01*
X53547143Y-108969095D02*
X53570952Y-108873857D01*
X53570952Y-108873857D02*
X53594762Y-108826238D01*
X53594762Y-108826238D02*
X53642381Y-108778619D01*
X53642381Y-108778619D02*
X53713809Y-108754809D01*
X53713809Y-108754809D02*
X53761428Y-108754809D01*
X53761428Y-108754809D02*
X53832857Y-108778619D01*
X53832857Y-108778619D02*
X53856666Y-108802428D01*
X54285238Y-108921476D02*
X54285238Y-109254809D01*
X54166190Y-108731000D02*
X54047143Y-109088142D01*
X54047143Y-109088142D02*
X54356666Y-109088142D01*
X47845715Y-73344809D02*
X47845715Y-73749571D01*
X47845715Y-73749571D02*
X47869525Y-73797190D01*
X47869525Y-73797190D02*
X47893334Y-73821000D01*
X47893334Y-73821000D02*
X47940953Y-73844809D01*
X47940953Y-73844809D02*
X48036191Y-73844809D01*
X48036191Y-73844809D02*
X48083810Y-73821000D01*
X48083810Y-73821000D02*
X48107620Y-73797190D01*
X48107620Y-73797190D02*
X48131429Y-73749571D01*
X48131429Y-73749571D02*
X48131429Y-73344809D01*
X48440954Y-73844809D02*
X48393335Y-73821000D01*
X48393335Y-73821000D02*
X48369525Y-73773380D01*
X48369525Y-73773380D02*
X48369525Y-73344809D01*
X48560002Y-73511476D02*
X48750478Y-73511476D01*
X48631430Y-73344809D02*
X48631430Y-73773380D01*
X48631430Y-73773380D02*
X48655240Y-73821000D01*
X48655240Y-73821000D02*
X48702859Y-73844809D01*
X48702859Y-73844809D02*
X48750478Y-73844809D01*
X48917144Y-73844809D02*
X48917144Y-73511476D01*
X48917144Y-73606714D02*
X48940954Y-73559095D01*
X48940954Y-73559095D02*
X48964763Y-73535285D01*
X48964763Y-73535285D02*
X49012382Y-73511476D01*
X49012382Y-73511476D02*
X49060001Y-73511476D01*
X49440954Y-73844809D02*
X49440954Y-73582904D01*
X49440954Y-73582904D02*
X49417144Y-73535285D01*
X49417144Y-73535285D02*
X49369525Y-73511476D01*
X49369525Y-73511476D02*
X49274287Y-73511476D01*
X49274287Y-73511476D02*
X49226668Y-73535285D01*
X49440954Y-73821000D02*
X49393335Y-73844809D01*
X49393335Y-73844809D02*
X49274287Y-73844809D01*
X49274287Y-73844809D02*
X49226668Y-73821000D01*
X49226668Y-73821000D02*
X49202859Y-73773380D01*
X49202859Y-73773380D02*
X49202859Y-73725761D01*
X49202859Y-73725761D02*
X49226668Y-73678142D01*
X49226668Y-73678142D02*
X49274287Y-73654333D01*
X49274287Y-73654333D02*
X49393335Y-73654333D01*
X49393335Y-73654333D02*
X49440954Y-73630523D01*
X50036192Y-73821000D02*
X50107620Y-73844809D01*
X50107620Y-73844809D02*
X50226668Y-73844809D01*
X50226668Y-73844809D02*
X50274287Y-73821000D01*
X50274287Y-73821000D02*
X50298096Y-73797190D01*
X50298096Y-73797190D02*
X50321906Y-73749571D01*
X50321906Y-73749571D02*
X50321906Y-73701952D01*
X50321906Y-73701952D02*
X50298096Y-73654333D01*
X50298096Y-73654333D02*
X50274287Y-73630523D01*
X50274287Y-73630523D02*
X50226668Y-73606714D01*
X50226668Y-73606714D02*
X50131430Y-73582904D01*
X50131430Y-73582904D02*
X50083811Y-73559095D01*
X50083811Y-73559095D02*
X50060001Y-73535285D01*
X50060001Y-73535285D02*
X50036192Y-73487666D01*
X50036192Y-73487666D02*
X50036192Y-73440047D01*
X50036192Y-73440047D02*
X50060001Y-73392428D01*
X50060001Y-73392428D02*
X50083811Y-73368619D01*
X50083811Y-73368619D02*
X50131430Y-73344809D01*
X50131430Y-73344809D02*
X50250477Y-73344809D01*
X50250477Y-73344809D02*
X50321906Y-73368619D01*
X50607620Y-73844809D02*
X50560001Y-73821000D01*
X50560001Y-73821000D02*
X50536191Y-73797190D01*
X50536191Y-73797190D02*
X50512382Y-73749571D01*
X50512382Y-73749571D02*
X50512382Y-73606714D01*
X50512382Y-73606714D02*
X50536191Y-73559095D01*
X50536191Y-73559095D02*
X50560001Y-73535285D01*
X50560001Y-73535285D02*
X50607620Y-73511476D01*
X50607620Y-73511476D02*
X50679048Y-73511476D01*
X50679048Y-73511476D02*
X50726667Y-73535285D01*
X50726667Y-73535285D02*
X50750477Y-73559095D01*
X50750477Y-73559095D02*
X50774286Y-73606714D01*
X50774286Y-73606714D02*
X50774286Y-73749571D01*
X50774286Y-73749571D02*
X50750477Y-73797190D01*
X50750477Y-73797190D02*
X50726667Y-73821000D01*
X50726667Y-73821000D02*
X50679048Y-73844809D01*
X50679048Y-73844809D02*
X50607620Y-73844809D01*
X50988572Y-73511476D02*
X50988572Y-73844809D01*
X50988572Y-73559095D02*
X51012382Y-73535285D01*
X51012382Y-73535285D02*
X51060001Y-73511476D01*
X51060001Y-73511476D02*
X51131429Y-73511476D01*
X51131429Y-73511476D02*
X51179048Y-73535285D01*
X51179048Y-73535285D02*
X51202858Y-73582904D01*
X51202858Y-73582904D02*
X51202858Y-73844809D01*
X51440953Y-73844809D02*
X51440953Y-73511476D01*
X51440953Y-73344809D02*
X51417144Y-73368619D01*
X51417144Y-73368619D02*
X51440953Y-73392428D01*
X51440953Y-73392428D02*
X51464763Y-73368619D01*
X51464763Y-73368619D02*
X51440953Y-73344809D01*
X51440953Y-73344809D02*
X51440953Y-73392428D01*
X51893334Y-73821000D02*
X51845715Y-73844809D01*
X51845715Y-73844809D02*
X51750477Y-73844809D01*
X51750477Y-73844809D02*
X51702858Y-73821000D01*
X51702858Y-73821000D02*
X51679048Y-73797190D01*
X51679048Y-73797190D02*
X51655239Y-73749571D01*
X51655239Y-73749571D02*
X51655239Y-73606714D01*
X51655239Y-73606714D02*
X51679048Y-73559095D01*
X51679048Y-73559095D02*
X51702858Y-73535285D01*
X51702858Y-73535285D02*
X51750477Y-73511476D01*
X51750477Y-73511476D02*
X51845715Y-73511476D01*
X51845715Y-73511476D02*
X51893334Y-73535285D01*
X52464762Y-73821000D02*
X52536190Y-73844809D01*
X52536190Y-73844809D02*
X52655238Y-73844809D01*
X52655238Y-73844809D02*
X52702857Y-73821000D01*
X52702857Y-73821000D02*
X52726666Y-73797190D01*
X52726666Y-73797190D02*
X52750476Y-73749571D01*
X52750476Y-73749571D02*
X52750476Y-73701952D01*
X52750476Y-73701952D02*
X52726666Y-73654333D01*
X52726666Y-73654333D02*
X52702857Y-73630523D01*
X52702857Y-73630523D02*
X52655238Y-73606714D01*
X52655238Y-73606714D02*
X52560000Y-73582904D01*
X52560000Y-73582904D02*
X52512381Y-73559095D01*
X52512381Y-73559095D02*
X52488571Y-73535285D01*
X52488571Y-73535285D02*
X52464762Y-73487666D01*
X52464762Y-73487666D02*
X52464762Y-73440047D01*
X52464762Y-73440047D02*
X52488571Y-73392428D01*
X52488571Y-73392428D02*
X52512381Y-73368619D01*
X52512381Y-73368619D02*
X52560000Y-73344809D01*
X52560000Y-73344809D02*
X52679047Y-73344809D01*
X52679047Y-73344809D02*
X52750476Y-73368619D01*
X53155237Y-73821000D02*
X53107618Y-73844809D01*
X53107618Y-73844809D02*
X53012380Y-73844809D01*
X53012380Y-73844809D02*
X52964761Y-73821000D01*
X52964761Y-73821000D02*
X52940952Y-73773380D01*
X52940952Y-73773380D02*
X52940952Y-73582904D01*
X52940952Y-73582904D02*
X52964761Y-73535285D01*
X52964761Y-73535285D02*
X53012380Y-73511476D01*
X53012380Y-73511476D02*
X53107618Y-73511476D01*
X53107618Y-73511476D02*
X53155237Y-73535285D01*
X53155237Y-73535285D02*
X53179047Y-73582904D01*
X53179047Y-73582904D02*
X53179047Y-73630523D01*
X53179047Y-73630523D02*
X52940952Y-73678142D01*
X53393332Y-73511476D02*
X53393332Y-73844809D01*
X53393332Y-73559095D02*
X53417142Y-73535285D01*
X53417142Y-73535285D02*
X53464761Y-73511476D01*
X53464761Y-73511476D02*
X53536189Y-73511476D01*
X53536189Y-73511476D02*
X53583808Y-73535285D01*
X53583808Y-73535285D02*
X53607618Y-73582904D01*
X53607618Y-73582904D02*
X53607618Y-73844809D01*
X53821904Y-73821000D02*
X53869523Y-73844809D01*
X53869523Y-73844809D02*
X53964761Y-73844809D01*
X53964761Y-73844809D02*
X54012380Y-73821000D01*
X54012380Y-73821000D02*
X54036189Y-73773380D01*
X54036189Y-73773380D02*
X54036189Y-73749571D01*
X54036189Y-73749571D02*
X54012380Y-73701952D01*
X54012380Y-73701952D02*
X53964761Y-73678142D01*
X53964761Y-73678142D02*
X53893332Y-73678142D01*
X53893332Y-73678142D02*
X53845713Y-73654333D01*
X53845713Y-73654333D02*
X53821904Y-73606714D01*
X53821904Y-73606714D02*
X53821904Y-73582904D01*
X53821904Y-73582904D02*
X53845713Y-73535285D01*
X53845713Y-73535285D02*
X53893332Y-73511476D01*
X53893332Y-73511476D02*
X53964761Y-73511476D01*
X53964761Y-73511476D02*
X54012380Y-73535285D01*
X54321904Y-73844809D02*
X54274285Y-73821000D01*
X54274285Y-73821000D02*
X54250475Y-73797190D01*
X54250475Y-73797190D02*
X54226666Y-73749571D01*
X54226666Y-73749571D02*
X54226666Y-73606714D01*
X54226666Y-73606714D02*
X54250475Y-73559095D01*
X54250475Y-73559095D02*
X54274285Y-73535285D01*
X54274285Y-73535285D02*
X54321904Y-73511476D01*
X54321904Y-73511476D02*
X54393332Y-73511476D01*
X54393332Y-73511476D02*
X54440951Y-73535285D01*
X54440951Y-73535285D02*
X54464761Y-73559095D01*
X54464761Y-73559095D02*
X54488570Y-73606714D01*
X54488570Y-73606714D02*
X54488570Y-73749571D01*
X54488570Y-73749571D02*
X54464761Y-73797190D01*
X54464761Y-73797190D02*
X54440951Y-73821000D01*
X54440951Y-73821000D02*
X54393332Y-73844809D01*
X54393332Y-73844809D02*
X54321904Y-73844809D01*
X54702856Y-73844809D02*
X54702856Y-73511476D01*
X54702856Y-73606714D02*
X54726666Y-73559095D01*
X54726666Y-73559095D02*
X54750475Y-73535285D01*
X54750475Y-73535285D02*
X54798094Y-73511476D01*
X54798094Y-73511476D02*
X54845713Y-73511476D01*
X55443333Y-73344809D02*
X55443333Y-73701952D01*
X55443333Y-73701952D02*
X55419524Y-73773380D01*
X55419524Y-73773380D02*
X55371905Y-73821000D01*
X55371905Y-73821000D02*
X55300476Y-73844809D01*
X55300476Y-73844809D02*
X55252857Y-73844809D01*
X55633809Y-73344809D02*
X55943333Y-73344809D01*
X55943333Y-73344809D02*
X55776666Y-73535285D01*
X55776666Y-73535285D02*
X55848095Y-73535285D01*
X55848095Y-73535285D02*
X55895714Y-73559095D01*
X55895714Y-73559095D02*
X55919523Y-73582904D01*
X55919523Y-73582904D02*
X55943333Y-73630523D01*
X55943333Y-73630523D02*
X55943333Y-73749571D01*
X55943333Y-73749571D02*
X55919523Y-73797190D01*
X55919523Y-73797190D02*
X55895714Y-73821000D01*
X55895714Y-73821000D02*
X55848095Y-73844809D01*
X55848095Y-73844809D02*
X55705238Y-73844809D01*
X55705238Y-73844809D02*
X55657619Y-73821000D01*
X55657619Y-73821000D02*
X55633809Y-73797190D01*
X86663333Y-92424809D02*
X86663333Y-92781952D01*
X86663333Y-92781952D02*
X86639524Y-92853380D01*
X86639524Y-92853380D02*
X86591905Y-92901000D01*
X86591905Y-92901000D02*
X86520476Y-92924809D01*
X86520476Y-92924809D02*
X86472857Y-92924809D01*
X86877619Y-92472428D02*
X86901428Y-92448619D01*
X86901428Y-92448619D02*
X86949047Y-92424809D01*
X86949047Y-92424809D02*
X87068095Y-92424809D01*
X87068095Y-92424809D02*
X87115714Y-92448619D01*
X87115714Y-92448619D02*
X87139523Y-92472428D01*
X87139523Y-92472428D02*
X87163333Y-92520047D01*
X87163333Y-92520047D02*
X87163333Y-92567666D01*
X87163333Y-92567666D02*
X87139523Y-92639095D01*
X87139523Y-92639095D02*
X86853809Y-92924809D01*
X86853809Y-92924809D02*
X87163333Y-92924809D01*
X84112382Y-93704809D02*
X84112382Y-93204809D01*
X84112382Y-93204809D02*
X84302858Y-93204809D01*
X84302858Y-93204809D02*
X84350477Y-93228619D01*
X84350477Y-93228619D02*
X84374287Y-93252428D01*
X84374287Y-93252428D02*
X84398096Y-93300047D01*
X84398096Y-93300047D02*
X84398096Y-93371476D01*
X84398096Y-93371476D02*
X84374287Y-93419095D01*
X84374287Y-93419095D02*
X84350477Y-93442904D01*
X84350477Y-93442904D02*
X84302858Y-93466714D01*
X84302858Y-93466714D02*
X84112382Y-93466714D01*
X84612382Y-93704809D02*
X84612382Y-93371476D01*
X84612382Y-93204809D02*
X84588573Y-93228619D01*
X84588573Y-93228619D02*
X84612382Y-93252428D01*
X84612382Y-93252428D02*
X84636192Y-93228619D01*
X84636192Y-93228619D02*
X84612382Y-93204809D01*
X84612382Y-93204809D02*
X84612382Y-93252428D01*
X85064763Y-93681000D02*
X85017144Y-93704809D01*
X85017144Y-93704809D02*
X84921906Y-93704809D01*
X84921906Y-93704809D02*
X84874287Y-93681000D01*
X84874287Y-93681000D02*
X84850477Y-93657190D01*
X84850477Y-93657190D02*
X84826668Y-93609571D01*
X84826668Y-93609571D02*
X84826668Y-93466714D01*
X84826668Y-93466714D02*
X84850477Y-93419095D01*
X84850477Y-93419095D02*
X84874287Y-93395285D01*
X84874287Y-93395285D02*
X84921906Y-93371476D01*
X84921906Y-93371476D02*
X85017144Y-93371476D01*
X85017144Y-93371476D02*
X85064763Y-93395285D01*
X85350477Y-93704809D02*
X85302858Y-93681000D01*
X85302858Y-93681000D02*
X85279048Y-93657190D01*
X85279048Y-93657190D02*
X85255239Y-93609571D01*
X85255239Y-93609571D02*
X85255239Y-93466714D01*
X85255239Y-93466714D02*
X85279048Y-93419095D01*
X85279048Y-93419095D02*
X85302858Y-93395285D01*
X85302858Y-93395285D02*
X85350477Y-93371476D01*
X85350477Y-93371476D02*
X85421905Y-93371476D01*
X85421905Y-93371476D02*
X85469524Y-93395285D01*
X85469524Y-93395285D02*
X85493334Y-93419095D01*
X85493334Y-93419095D02*
X85517143Y-93466714D01*
X85517143Y-93466714D02*
X85517143Y-93609571D01*
X85517143Y-93609571D02*
X85493334Y-93657190D01*
X85493334Y-93657190D02*
X85469524Y-93681000D01*
X85469524Y-93681000D02*
X85421905Y-93704809D01*
X85421905Y-93704809D02*
X85350477Y-93704809D01*
X86088572Y-93681000D02*
X86160000Y-93704809D01*
X86160000Y-93704809D02*
X86279048Y-93704809D01*
X86279048Y-93704809D02*
X86326667Y-93681000D01*
X86326667Y-93681000D02*
X86350476Y-93657190D01*
X86350476Y-93657190D02*
X86374286Y-93609571D01*
X86374286Y-93609571D02*
X86374286Y-93561952D01*
X86374286Y-93561952D02*
X86350476Y-93514333D01*
X86350476Y-93514333D02*
X86326667Y-93490523D01*
X86326667Y-93490523D02*
X86279048Y-93466714D01*
X86279048Y-93466714D02*
X86183810Y-93442904D01*
X86183810Y-93442904D02*
X86136191Y-93419095D01*
X86136191Y-93419095D02*
X86112381Y-93395285D01*
X86112381Y-93395285D02*
X86088572Y-93347666D01*
X86088572Y-93347666D02*
X86088572Y-93300047D01*
X86088572Y-93300047D02*
X86112381Y-93252428D01*
X86112381Y-93252428D02*
X86136191Y-93228619D01*
X86136191Y-93228619D02*
X86183810Y-93204809D01*
X86183810Y-93204809D02*
X86302857Y-93204809D01*
X86302857Y-93204809D02*
X86374286Y-93228619D01*
X86660000Y-93704809D02*
X86612381Y-93681000D01*
X86612381Y-93681000D02*
X86588571Y-93657190D01*
X86588571Y-93657190D02*
X86564762Y-93609571D01*
X86564762Y-93609571D02*
X86564762Y-93466714D01*
X86564762Y-93466714D02*
X86588571Y-93419095D01*
X86588571Y-93419095D02*
X86612381Y-93395285D01*
X86612381Y-93395285D02*
X86660000Y-93371476D01*
X86660000Y-93371476D02*
X86731428Y-93371476D01*
X86731428Y-93371476D02*
X86779047Y-93395285D01*
X86779047Y-93395285D02*
X86802857Y-93419095D01*
X86802857Y-93419095D02*
X86826666Y-93466714D01*
X86826666Y-93466714D02*
X86826666Y-93609571D01*
X86826666Y-93609571D02*
X86802857Y-93657190D01*
X86802857Y-93657190D02*
X86779047Y-93681000D01*
X86779047Y-93681000D02*
X86731428Y-93704809D01*
X86731428Y-93704809D02*
X86660000Y-93704809D01*
X87255238Y-93681000D02*
X87207619Y-93704809D01*
X87207619Y-93704809D02*
X87112381Y-93704809D01*
X87112381Y-93704809D02*
X87064762Y-93681000D01*
X87064762Y-93681000D02*
X87040952Y-93657190D01*
X87040952Y-93657190D02*
X87017143Y-93609571D01*
X87017143Y-93609571D02*
X87017143Y-93466714D01*
X87017143Y-93466714D02*
X87040952Y-93419095D01*
X87040952Y-93419095D02*
X87064762Y-93395285D01*
X87064762Y-93395285D02*
X87112381Y-93371476D01*
X87112381Y-93371476D02*
X87207619Y-93371476D01*
X87207619Y-93371476D02*
X87255238Y-93395285D01*
X87469523Y-93704809D02*
X87469523Y-93204809D01*
X87517142Y-93514333D02*
X87659999Y-93704809D01*
X87659999Y-93371476D02*
X87469523Y-93561952D01*
X88064761Y-93681000D02*
X88017142Y-93704809D01*
X88017142Y-93704809D02*
X87921904Y-93704809D01*
X87921904Y-93704809D02*
X87874285Y-93681000D01*
X87874285Y-93681000D02*
X87850476Y-93633380D01*
X87850476Y-93633380D02*
X87850476Y-93442904D01*
X87850476Y-93442904D02*
X87874285Y-93395285D01*
X87874285Y-93395285D02*
X87921904Y-93371476D01*
X87921904Y-93371476D02*
X88017142Y-93371476D01*
X88017142Y-93371476D02*
X88064761Y-93395285D01*
X88064761Y-93395285D02*
X88088571Y-93442904D01*
X88088571Y-93442904D02*
X88088571Y-93490523D01*
X88088571Y-93490523D02*
X87850476Y-93538142D01*
X88231428Y-93371476D02*
X88421904Y-93371476D01*
X88302856Y-93204809D02*
X88302856Y-93633380D01*
X88302856Y-93633380D02*
X88326666Y-93681000D01*
X88326666Y-93681000D02*
X88374285Y-93704809D01*
X88374285Y-93704809D02*
X88421904Y-93704809D01*
X88945713Y-93252428D02*
X88969522Y-93228619D01*
X88969522Y-93228619D02*
X89017141Y-93204809D01*
X89017141Y-93204809D02*
X89136189Y-93204809D01*
X89136189Y-93204809D02*
X89183808Y-93228619D01*
X89183808Y-93228619D02*
X89207617Y-93252428D01*
X89207617Y-93252428D02*
X89231427Y-93300047D01*
X89231427Y-93300047D02*
X89231427Y-93347666D01*
X89231427Y-93347666D02*
X89207617Y-93419095D01*
X89207617Y-93419095D02*
X88921903Y-93704809D01*
X88921903Y-93704809D02*
X89231427Y-93704809D01*
X75466666Y-117404809D02*
X75300000Y-117166714D01*
X75180952Y-117404809D02*
X75180952Y-116904809D01*
X75180952Y-116904809D02*
X75371428Y-116904809D01*
X75371428Y-116904809D02*
X75419047Y-116928619D01*
X75419047Y-116928619D02*
X75442857Y-116952428D01*
X75442857Y-116952428D02*
X75466666Y-117000047D01*
X75466666Y-117000047D02*
X75466666Y-117071476D01*
X75466666Y-117071476D02*
X75442857Y-117119095D01*
X75442857Y-117119095D02*
X75419047Y-117142904D01*
X75419047Y-117142904D02*
X75371428Y-117166714D01*
X75371428Y-117166714D02*
X75180952Y-117166714D01*
X75895238Y-117071476D02*
X75895238Y-117404809D01*
X75776190Y-116881000D02*
X75657143Y-117238142D01*
X75657143Y-117238142D02*
X75966666Y-117238142D01*
X75420952Y-118224809D02*
X75135238Y-118224809D01*
X75278095Y-118224809D02*
X75278095Y-117724809D01*
X75278095Y-117724809D02*
X75230476Y-117796238D01*
X75230476Y-117796238D02*
X75182857Y-117843857D01*
X75182857Y-117843857D02*
X75135238Y-117867666D01*
X75730475Y-117724809D02*
X75778094Y-117724809D01*
X75778094Y-117724809D02*
X75825713Y-117748619D01*
X75825713Y-117748619D02*
X75849523Y-117772428D01*
X75849523Y-117772428D02*
X75873332Y-117820047D01*
X75873332Y-117820047D02*
X75897142Y-117915285D01*
X75897142Y-117915285D02*
X75897142Y-118034333D01*
X75897142Y-118034333D02*
X75873332Y-118129571D01*
X75873332Y-118129571D02*
X75849523Y-118177190D01*
X75849523Y-118177190D02*
X75825713Y-118201000D01*
X75825713Y-118201000D02*
X75778094Y-118224809D01*
X75778094Y-118224809D02*
X75730475Y-118224809D01*
X75730475Y-118224809D02*
X75682856Y-118201000D01*
X75682856Y-118201000D02*
X75659047Y-118177190D01*
X75659047Y-118177190D02*
X75635237Y-118129571D01*
X75635237Y-118129571D02*
X75611428Y-118034333D01*
X75611428Y-118034333D02*
X75611428Y-117915285D01*
X75611428Y-117915285D02*
X75635237Y-117820047D01*
X75635237Y-117820047D02*
X75659047Y-117772428D01*
X75659047Y-117772428D02*
X75682856Y-117748619D01*
X75682856Y-117748619D02*
X75730475Y-117724809D01*
X76206665Y-117724809D02*
X76301903Y-117724809D01*
X76301903Y-117724809D02*
X76349522Y-117748619D01*
X76349522Y-117748619D02*
X76397141Y-117796238D01*
X76397141Y-117796238D02*
X76420951Y-117891476D01*
X76420951Y-117891476D02*
X76420951Y-118058142D01*
X76420951Y-118058142D02*
X76397141Y-118153380D01*
X76397141Y-118153380D02*
X76349522Y-118201000D01*
X76349522Y-118201000D02*
X76301903Y-118224809D01*
X76301903Y-118224809D02*
X76206665Y-118224809D01*
X76206665Y-118224809D02*
X76159046Y-118201000D01*
X76159046Y-118201000D02*
X76111427Y-118153380D01*
X76111427Y-118153380D02*
X76087618Y-118058142D01*
X76087618Y-118058142D02*
X76087618Y-117891476D01*
X76087618Y-117891476D02*
X76111427Y-117796238D01*
X76111427Y-117796238D02*
X76159046Y-117748619D01*
X76159046Y-117748619D02*
X76206665Y-117724809D01*
X76635237Y-118224809D02*
X76635237Y-117724809D01*
X76849523Y-118224809D02*
X76849523Y-117962904D01*
X76849523Y-117962904D02*
X76825713Y-117915285D01*
X76825713Y-117915285D02*
X76778094Y-117891476D01*
X76778094Y-117891476D02*
X76706666Y-117891476D01*
X76706666Y-117891476D02*
X76659047Y-117915285D01*
X76659047Y-117915285D02*
X76635237Y-117939095D01*
X77087618Y-118224809D02*
X77087618Y-117891476D01*
X77087618Y-117939095D02*
X77111428Y-117915285D01*
X77111428Y-117915285D02*
X77159047Y-117891476D01*
X77159047Y-117891476D02*
X77230475Y-117891476D01*
X77230475Y-117891476D02*
X77278094Y-117915285D01*
X77278094Y-117915285D02*
X77301904Y-117962904D01*
X77301904Y-117962904D02*
X77301904Y-118224809D01*
X77301904Y-117962904D02*
X77325713Y-117915285D01*
X77325713Y-117915285D02*
X77373332Y-117891476D01*
X77373332Y-117891476D02*
X77444761Y-117891476D01*
X77444761Y-117891476D02*
X77492380Y-117915285D01*
X77492380Y-117915285D02*
X77516190Y-117962904D01*
X77516190Y-117962904D02*
X77516190Y-118224809D01*
X77730476Y-118201000D02*
X77778095Y-118224809D01*
X77778095Y-118224809D02*
X77873333Y-118224809D01*
X77873333Y-118224809D02*
X77920952Y-118201000D01*
X77920952Y-118201000D02*
X77944761Y-118153380D01*
X77944761Y-118153380D02*
X77944761Y-118129571D01*
X77944761Y-118129571D02*
X77920952Y-118081952D01*
X77920952Y-118081952D02*
X77873333Y-118058142D01*
X77873333Y-118058142D02*
X77801904Y-118058142D01*
X77801904Y-118058142D02*
X77754285Y-118034333D01*
X77754285Y-118034333D02*
X77730476Y-117986714D01*
X77730476Y-117986714D02*
X77730476Y-117962904D01*
X77730476Y-117962904D02*
X77754285Y-117915285D01*
X77754285Y-117915285D02*
X77801904Y-117891476D01*
X77801904Y-117891476D02*
X77873333Y-117891476D01*
X77873333Y-117891476D02*
X77920952Y-117915285D01*
X65216666Y-115844809D02*
X65050000Y-115606714D01*
X64930952Y-115844809D02*
X64930952Y-115344809D01*
X64930952Y-115344809D02*
X65121428Y-115344809D01*
X65121428Y-115344809D02*
X65169047Y-115368619D01*
X65169047Y-115368619D02*
X65192857Y-115392428D01*
X65192857Y-115392428D02*
X65216666Y-115440047D01*
X65216666Y-115440047D02*
X65216666Y-115511476D01*
X65216666Y-115511476D02*
X65192857Y-115559095D01*
X65192857Y-115559095D02*
X65169047Y-115582904D01*
X65169047Y-115582904D02*
X65121428Y-115606714D01*
X65121428Y-115606714D02*
X64930952Y-115606714D01*
X65669047Y-115344809D02*
X65430952Y-115344809D01*
X65430952Y-115344809D02*
X65407143Y-115582904D01*
X65407143Y-115582904D02*
X65430952Y-115559095D01*
X65430952Y-115559095D02*
X65478571Y-115535285D01*
X65478571Y-115535285D02*
X65597619Y-115535285D01*
X65597619Y-115535285D02*
X65645238Y-115559095D01*
X65645238Y-115559095D02*
X65669047Y-115582904D01*
X65669047Y-115582904D02*
X65692857Y-115630523D01*
X65692857Y-115630523D02*
X65692857Y-115749571D01*
X65692857Y-115749571D02*
X65669047Y-115797190D01*
X65669047Y-115797190D02*
X65645238Y-115821000D01*
X65645238Y-115821000D02*
X65597619Y-115844809D01*
X65597619Y-115844809D02*
X65478571Y-115844809D01*
X65478571Y-115844809D02*
X65430952Y-115821000D01*
X65430952Y-115821000D02*
X65407143Y-115797190D01*
X66650952Y-115844809D02*
X66365238Y-115844809D01*
X66508095Y-115844809D02*
X66508095Y-115344809D01*
X66508095Y-115344809D02*
X66460476Y-115416238D01*
X66460476Y-115416238D02*
X66412857Y-115463857D01*
X66412857Y-115463857D02*
X66365238Y-115487666D01*
X66960475Y-115344809D02*
X67008094Y-115344809D01*
X67008094Y-115344809D02*
X67055713Y-115368619D01*
X67055713Y-115368619D02*
X67079523Y-115392428D01*
X67079523Y-115392428D02*
X67103332Y-115440047D01*
X67103332Y-115440047D02*
X67127142Y-115535285D01*
X67127142Y-115535285D02*
X67127142Y-115654333D01*
X67127142Y-115654333D02*
X67103332Y-115749571D01*
X67103332Y-115749571D02*
X67079523Y-115797190D01*
X67079523Y-115797190D02*
X67055713Y-115821000D01*
X67055713Y-115821000D02*
X67008094Y-115844809D01*
X67008094Y-115844809D02*
X66960475Y-115844809D01*
X66960475Y-115844809D02*
X66912856Y-115821000D01*
X66912856Y-115821000D02*
X66889047Y-115797190D01*
X66889047Y-115797190D02*
X66865237Y-115749571D01*
X66865237Y-115749571D02*
X66841428Y-115654333D01*
X66841428Y-115654333D02*
X66841428Y-115535285D01*
X66841428Y-115535285D02*
X66865237Y-115440047D01*
X66865237Y-115440047D02*
X66889047Y-115392428D01*
X66889047Y-115392428D02*
X66912856Y-115368619D01*
X66912856Y-115368619D02*
X66960475Y-115344809D01*
X67436665Y-115344809D02*
X67531903Y-115344809D01*
X67531903Y-115344809D02*
X67579522Y-115368619D01*
X67579522Y-115368619D02*
X67627141Y-115416238D01*
X67627141Y-115416238D02*
X67650951Y-115511476D01*
X67650951Y-115511476D02*
X67650951Y-115678142D01*
X67650951Y-115678142D02*
X67627141Y-115773380D01*
X67627141Y-115773380D02*
X67579522Y-115821000D01*
X67579522Y-115821000D02*
X67531903Y-115844809D01*
X67531903Y-115844809D02*
X67436665Y-115844809D01*
X67436665Y-115844809D02*
X67389046Y-115821000D01*
X67389046Y-115821000D02*
X67341427Y-115773380D01*
X67341427Y-115773380D02*
X67317618Y-115678142D01*
X67317618Y-115678142D02*
X67317618Y-115511476D01*
X67317618Y-115511476D02*
X67341427Y-115416238D01*
X67341427Y-115416238D02*
X67389046Y-115368619D01*
X67389046Y-115368619D02*
X67436665Y-115344809D01*
X67865237Y-115844809D02*
X67865237Y-115344809D01*
X68079523Y-115844809D02*
X68079523Y-115582904D01*
X68079523Y-115582904D02*
X68055713Y-115535285D01*
X68055713Y-115535285D02*
X68008094Y-115511476D01*
X68008094Y-115511476D02*
X67936666Y-115511476D01*
X67936666Y-115511476D02*
X67889047Y-115535285D01*
X67889047Y-115535285D02*
X67865237Y-115559095D01*
X68317618Y-115844809D02*
X68317618Y-115511476D01*
X68317618Y-115559095D02*
X68341428Y-115535285D01*
X68341428Y-115535285D02*
X68389047Y-115511476D01*
X68389047Y-115511476D02*
X68460475Y-115511476D01*
X68460475Y-115511476D02*
X68508094Y-115535285D01*
X68508094Y-115535285D02*
X68531904Y-115582904D01*
X68531904Y-115582904D02*
X68531904Y-115844809D01*
X68531904Y-115582904D02*
X68555713Y-115535285D01*
X68555713Y-115535285D02*
X68603332Y-115511476D01*
X68603332Y-115511476D02*
X68674761Y-115511476D01*
X68674761Y-115511476D02*
X68722380Y-115535285D01*
X68722380Y-115535285D02*
X68746190Y-115582904D01*
X68746190Y-115582904D02*
X68746190Y-115844809D01*
X68960476Y-115821000D02*
X69008095Y-115844809D01*
X69008095Y-115844809D02*
X69103333Y-115844809D01*
X69103333Y-115844809D02*
X69150952Y-115821000D01*
X69150952Y-115821000D02*
X69174761Y-115773380D01*
X69174761Y-115773380D02*
X69174761Y-115749571D01*
X69174761Y-115749571D02*
X69150952Y-115701952D01*
X69150952Y-115701952D02*
X69103333Y-115678142D01*
X69103333Y-115678142D02*
X69031904Y-115678142D01*
X69031904Y-115678142D02*
X68984285Y-115654333D01*
X68984285Y-115654333D02*
X68960476Y-115606714D01*
X68960476Y-115606714D02*
X68960476Y-115582904D01*
X68960476Y-115582904D02*
X68984285Y-115535285D01*
X68984285Y-115535285D02*
X69031904Y-115511476D01*
X69031904Y-115511476D02*
X69103333Y-115511476D01*
X69103333Y-115511476D02*
X69150952Y-115535285D01*
X83393810Y-71608619D02*
X83346191Y-71584809D01*
X83346191Y-71584809D02*
X83274762Y-71584809D01*
X83274762Y-71584809D02*
X83203334Y-71608619D01*
X83203334Y-71608619D02*
X83155715Y-71656238D01*
X83155715Y-71656238D02*
X83131905Y-71703857D01*
X83131905Y-71703857D02*
X83108096Y-71799095D01*
X83108096Y-71799095D02*
X83108096Y-71870523D01*
X83108096Y-71870523D02*
X83131905Y-71965761D01*
X83131905Y-71965761D02*
X83155715Y-72013380D01*
X83155715Y-72013380D02*
X83203334Y-72061000D01*
X83203334Y-72061000D02*
X83274762Y-72084809D01*
X83274762Y-72084809D02*
X83322381Y-72084809D01*
X83322381Y-72084809D02*
X83393810Y-72061000D01*
X83393810Y-72061000D02*
X83417619Y-72037190D01*
X83417619Y-72037190D02*
X83417619Y-71870523D01*
X83417619Y-71870523D02*
X83322381Y-71870523D01*
X83584286Y-71751476D02*
X83703334Y-72084809D01*
X83822381Y-71751476D02*
X83703334Y-72084809D01*
X83703334Y-72084809D02*
X83655715Y-72203857D01*
X83655715Y-72203857D02*
X83631905Y-72227666D01*
X83631905Y-72227666D02*
X83584286Y-72251476D01*
X84012857Y-72084809D02*
X84012857Y-71751476D01*
X84012857Y-71846714D02*
X84036667Y-71799095D01*
X84036667Y-71799095D02*
X84060476Y-71775285D01*
X84060476Y-71775285D02*
X84108095Y-71751476D01*
X84108095Y-71751476D02*
X84155714Y-71751476D01*
X84393810Y-72084809D02*
X84346191Y-72061000D01*
X84346191Y-72061000D02*
X84322381Y-72037190D01*
X84322381Y-72037190D02*
X84298572Y-71989571D01*
X84298572Y-71989571D02*
X84298572Y-71846714D01*
X84298572Y-71846714D02*
X84322381Y-71799095D01*
X84322381Y-71799095D02*
X84346191Y-71775285D01*
X84346191Y-71775285D02*
X84393810Y-71751476D01*
X84393810Y-71751476D02*
X84465238Y-71751476D01*
X84465238Y-71751476D02*
X84512857Y-71775285D01*
X84512857Y-71775285D02*
X84536667Y-71799095D01*
X84536667Y-71799095D02*
X84560476Y-71846714D01*
X84560476Y-71846714D02*
X84560476Y-71989571D01*
X84560476Y-71989571D02*
X84536667Y-72037190D01*
X84536667Y-72037190D02*
X84512857Y-72061000D01*
X84512857Y-72061000D02*
X84465238Y-72084809D01*
X84465238Y-72084809D02*
X84393810Y-72084809D01*
X84750953Y-72061000D02*
X84798572Y-72084809D01*
X84798572Y-72084809D02*
X84893810Y-72084809D01*
X84893810Y-72084809D02*
X84941429Y-72061000D01*
X84941429Y-72061000D02*
X84965238Y-72013380D01*
X84965238Y-72013380D02*
X84965238Y-71989571D01*
X84965238Y-71989571D02*
X84941429Y-71941952D01*
X84941429Y-71941952D02*
X84893810Y-71918142D01*
X84893810Y-71918142D02*
X84822381Y-71918142D01*
X84822381Y-71918142D02*
X84774762Y-71894333D01*
X84774762Y-71894333D02*
X84750953Y-71846714D01*
X84750953Y-71846714D02*
X84750953Y-71822904D01*
X84750953Y-71822904D02*
X84774762Y-71775285D01*
X84774762Y-71775285D02*
X84822381Y-71751476D01*
X84822381Y-71751476D02*
X84893810Y-71751476D01*
X84893810Y-71751476D02*
X84941429Y-71775285D01*
X85393810Y-72061000D02*
X85346191Y-72084809D01*
X85346191Y-72084809D02*
X85250953Y-72084809D01*
X85250953Y-72084809D02*
X85203334Y-72061000D01*
X85203334Y-72061000D02*
X85179524Y-72037190D01*
X85179524Y-72037190D02*
X85155715Y-71989571D01*
X85155715Y-71989571D02*
X85155715Y-71846714D01*
X85155715Y-71846714D02*
X85179524Y-71799095D01*
X85179524Y-71799095D02*
X85203334Y-71775285D01*
X85203334Y-71775285D02*
X85250953Y-71751476D01*
X85250953Y-71751476D02*
X85346191Y-71751476D01*
X85346191Y-71751476D02*
X85393810Y-71775285D01*
X85679524Y-72084809D02*
X85631905Y-72061000D01*
X85631905Y-72061000D02*
X85608095Y-72037190D01*
X85608095Y-72037190D02*
X85584286Y-71989571D01*
X85584286Y-71989571D02*
X85584286Y-71846714D01*
X85584286Y-71846714D02*
X85608095Y-71799095D01*
X85608095Y-71799095D02*
X85631905Y-71775285D01*
X85631905Y-71775285D02*
X85679524Y-71751476D01*
X85679524Y-71751476D02*
X85750952Y-71751476D01*
X85750952Y-71751476D02*
X85798571Y-71775285D01*
X85798571Y-71775285D02*
X85822381Y-71799095D01*
X85822381Y-71799095D02*
X85846190Y-71846714D01*
X85846190Y-71846714D02*
X85846190Y-71989571D01*
X85846190Y-71989571D02*
X85822381Y-72037190D01*
X85822381Y-72037190D02*
X85798571Y-72061000D01*
X85798571Y-72061000D02*
X85750952Y-72084809D01*
X85750952Y-72084809D02*
X85679524Y-72084809D01*
X86060476Y-71751476D02*
X86060476Y-72251476D01*
X86060476Y-71775285D02*
X86108095Y-71751476D01*
X86108095Y-71751476D02*
X86203333Y-71751476D01*
X86203333Y-71751476D02*
X86250952Y-71775285D01*
X86250952Y-71775285D02*
X86274762Y-71799095D01*
X86274762Y-71799095D02*
X86298571Y-71846714D01*
X86298571Y-71846714D02*
X86298571Y-71989571D01*
X86298571Y-71989571D02*
X86274762Y-72037190D01*
X86274762Y-72037190D02*
X86250952Y-72061000D01*
X86250952Y-72061000D02*
X86203333Y-72084809D01*
X86203333Y-72084809D02*
X86108095Y-72084809D01*
X86108095Y-72084809D02*
X86060476Y-72061000D01*
X86703333Y-72061000D02*
X86655714Y-72084809D01*
X86655714Y-72084809D02*
X86560476Y-72084809D01*
X86560476Y-72084809D02*
X86512857Y-72061000D01*
X86512857Y-72061000D02*
X86489048Y-72013380D01*
X86489048Y-72013380D02*
X86489048Y-71822904D01*
X86489048Y-71822904D02*
X86512857Y-71775285D01*
X86512857Y-71775285D02*
X86560476Y-71751476D01*
X86560476Y-71751476D02*
X86655714Y-71751476D01*
X86655714Y-71751476D02*
X86703333Y-71775285D01*
X86703333Y-71775285D02*
X86727143Y-71822904D01*
X86727143Y-71822904D02*
X86727143Y-71870523D01*
X86727143Y-71870523D02*
X86489048Y-71918142D01*
X87298571Y-72061000D02*
X87369999Y-72084809D01*
X87369999Y-72084809D02*
X87489047Y-72084809D01*
X87489047Y-72084809D02*
X87536666Y-72061000D01*
X87536666Y-72061000D02*
X87560475Y-72037190D01*
X87560475Y-72037190D02*
X87584285Y-71989571D01*
X87584285Y-71989571D02*
X87584285Y-71941952D01*
X87584285Y-71941952D02*
X87560475Y-71894333D01*
X87560475Y-71894333D02*
X87536666Y-71870523D01*
X87536666Y-71870523D02*
X87489047Y-71846714D01*
X87489047Y-71846714D02*
X87393809Y-71822904D01*
X87393809Y-71822904D02*
X87346190Y-71799095D01*
X87346190Y-71799095D02*
X87322380Y-71775285D01*
X87322380Y-71775285D02*
X87298571Y-71727666D01*
X87298571Y-71727666D02*
X87298571Y-71680047D01*
X87298571Y-71680047D02*
X87322380Y-71632428D01*
X87322380Y-71632428D02*
X87346190Y-71608619D01*
X87346190Y-71608619D02*
X87393809Y-71584809D01*
X87393809Y-71584809D02*
X87512856Y-71584809D01*
X87512856Y-71584809D02*
X87584285Y-71608619D01*
X87989046Y-72061000D02*
X87941427Y-72084809D01*
X87941427Y-72084809D02*
X87846189Y-72084809D01*
X87846189Y-72084809D02*
X87798570Y-72061000D01*
X87798570Y-72061000D02*
X87774761Y-72013380D01*
X87774761Y-72013380D02*
X87774761Y-71822904D01*
X87774761Y-71822904D02*
X87798570Y-71775285D01*
X87798570Y-71775285D02*
X87846189Y-71751476D01*
X87846189Y-71751476D02*
X87941427Y-71751476D01*
X87941427Y-71751476D02*
X87989046Y-71775285D01*
X87989046Y-71775285D02*
X88012856Y-71822904D01*
X88012856Y-71822904D02*
X88012856Y-71870523D01*
X88012856Y-71870523D02*
X87774761Y-71918142D01*
X88227141Y-71751476D02*
X88227141Y-72084809D01*
X88227141Y-71799095D02*
X88250951Y-71775285D01*
X88250951Y-71775285D02*
X88298570Y-71751476D01*
X88298570Y-71751476D02*
X88369998Y-71751476D01*
X88369998Y-71751476D02*
X88417617Y-71775285D01*
X88417617Y-71775285D02*
X88441427Y-71822904D01*
X88441427Y-71822904D02*
X88441427Y-72084809D01*
X88655713Y-72061000D02*
X88703332Y-72084809D01*
X88703332Y-72084809D02*
X88798570Y-72084809D01*
X88798570Y-72084809D02*
X88846189Y-72061000D01*
X88846189Y-72061000D02*
X88869998Y-72013380D01*
X88869998Y-72013380D02*
X88869998Y-71989571D01*
X88869998Y-71989571D02*
X88846189Y-71941952D01*
X88846189Y-71941952D02*
X88798570Y-71918142D01*
X88798570Y-71918142D02*
X88727141Y-71918142D01*
X88727141Y-71918142D02*
X88679522Y-71894333D01*
X88679522Y-71894333D02*
X88655713Y-71846714D01*
X88655713Y-71846714D02*
X88655713Y-71822904D01*
X88655713Y-71822904D02*
X88679522Y-71775285D01*
X88679522Y-71775285D02*
X88727141Y-71751476D01*
X88727141Y-71751476D02*
X88798570Y-71751476D01*
X88798570Y-71751476D02*
X88846189Y-71775285D01*
X89155713Y-72084809D02*
X89108094Y-72061000D01*
X89108094Y-72061000D02*
X89084284Y-72037190D01*
X89084284Y-72037190D02*
X89060475Y-71989571D01*
X89060475Y-71989571D02*
X89060475Y-71846714D01*
X89060475Y-71846714D02*
X89084284Y-71799095D01*
X89084284Y-71799095D02*
X89108094Y-71775285D01*
X89108094Y-71775285D02*
X89155713Y-71751476D01*
X89155713Y-71751476D02*
X89227141Y-71751476D01*
X89227141Y-71751476D02*
X89274760Y-71775285D01*
X89274760Y-71775285D02*
X89298570Y-71799095D01*
X89298570Y-71799095D02*
X89322379Y-71846714D01*
X89322379Y-71846714D02*
X89322379Y-71989571D01*
X89322379Y-71989571D02*
X89298570Y-72037190D01*
X89298570Y-72037190D02*
X89274760Y-72061000D01*
X89274760Y-72061000D02*
X89227141Y-72084809D01*
X89227141Y-72084809D02*
X89155713Y-72084809D01*
X89536665Y-72084809D02*
X89536665Y-71751476D01*
X89536665Y-71846714D02*
X89560475Y-71799095D01*
X89560475Y-71799095D02*
X89584284Y-71775285D01*
X89584284Y-71775285D02*
X89631903Y-71751476D01*
X89631903Y-71751476D02*
X89679522Y-71751476D01*
X86543333Y-70934809D02*
X86543333Y-71291952D01*
X86543333Y-71291952D02*
X86519524Y-71363380D01*
X86519524Y-71363380D02*
X86471905Y-71411000D01*
X86471905Y-71411000D02*
X86400476Y-71434809D01*
X86400476Y-71434809D02*
X86352857Y-71434809D01*
X86995714Y-70934809D02*
X86900476Y-70934809D01*
X86900476Y-70934809D02*
X86852857Y-70958619D01*
X86852857Y-70958619D02*
X86829047Y-70982428D01*
X86829047Y-70982428D02*
X86781428Y-71053857D01*
X86781428Y-71053857D02*
X86757619Y-71149095D01*
X86757619Y-71149095D02*
X86757619Y-71339571D01*
X86757619Y-71339571D02*
X86781428Y-71387190D01*
X86781428Y-71387190D02*
X86805238Y-71411000D01*
X86805238Y-71411000D02*
X86852857Y-71434809D01*
X86852857Y-71434809D02*
X86948095Y-71434809D01*
X86948095Y-71434809D02*
X86995714Y-71411000D01*
X86995714Y-71411000D02*
X87019523Y-71387190D01*
X87019523Y-71387190D02*
X87043333Y-71339571D01*
X87043333Y-71339571D02*
X87043333Y-71220523D01*
X87043333Y-71220523D02*
X87019523Y-71172904D01*
X87019523Y-71172904D02*
X86995714Y-71149095D01*
X86995714Y-71149095D02*
X86948095Y-71125285D01*
X86948095Y-71125285D02*
X86852857Y-71125285D01*
X86852857Y-71125285D02*
X86805238Y-71149095D01*
X86805238Y-71149095D02*
X86781428Y-71172904D01*
X86781428Y-71172904D02*
X86757619Y-71220523D01*
X45676666Y-108877190D02*
X45652857Y-108901000D01*
X45652857Y-108901000D02*
X45581428Y-108924809D01*
X45581428Y-108924809D02*
X45533809Y-108924809D01*
X45533809Y-108924809D02*
X45462381Y-108901000D01*
X45462381Y-108901000D02*
X45414762Y-108853380D01*
X45414762Y-108853380D02*
X45390952Y-108805761D01*
X45390952Y-108805761D02*
X45367143Y-108710523D01*
X45367143Y-108710523D02*
X45367143Y-108639095D01*
X45367143Y-108639095D02*
X45390952Y-108543857D01*
X45390952Y-108543857D02*
X45414762Y-108496238D01*
X45414762Y-108496238D02*
X45462381Y-108448619D01*
X45462381Y-108448619D02*
X45533809Y-108424809D01*
X45533809Y-108424809D02*
X45581428Y-108424809D01*
X45581428Y-108424809D02*
X45652857Y-108448619D01*
X45652857Y-108448619D02*
X45676666Y-108472428D01*
X45843333Y-108424809D02*
X46152857Y-108424809D01*
X46152857Y-108424809D02*
X45986190Y-108615285D01*
X45986190Y-108615285D02*
X46057619Y-108615285D01*
X46057619Y-108615285D02*
X46105238Y-108639095D01*
X46105238Y-108639095D02*
X46129047Y-108662904D01*
X46129047Y-108662904D02*
X46152857Y-108710523D01*
X46152857Y-108710523D02*
X46152857Y-108829571D01*
X46152857Y-108829571D02*
X46129047Y-108877190D01*
X46129047Y-108877190D02*
X46105238Y-108901000D01*
X46105238Y-108901000D02*
X46057619Y-108924809D01*
X46057619Y-108924809D02*
X45914762Y-108924809D01*
X45914762Y-108924809D02*
X45867143Y-108901000D01*
X45867143Y-108901000D02*
X45843333Y-108877190D01*
X45290477Y-107384809D02*
X45338096Y-107384809D01*
X45338096Y-107384809D02*
X45385715Y-107408619D01*
X45385715Y-107408619D02*
X45409525Y-107432428D01*
X45409525Y-107432428D02*
X45433334Y-107480047D01*
X45433334Y-107480047D02*
X45457144Y-107575285D01*
X45457144Y-107575285D02*
X45457144Y-107694333D01*
X45457144Y-107694333D02*
X45433334Y-107789571D01*
X45433334Y-107789571D02*
X45409525Y-107837190D01*
X45409525Y-107837190D02*
X45385715Y-107861000D01*
X45385715Y-107861000D02*
X45338096Y-107884809D01*
X45338096Y-107884809D02*
X45290477Y-107884809D01*
X45290477Y-107884809D02*
X45242858Y-107861000D01*
X45242858Y-107861000D02*
X45219049Y-107837190D01*
X45219049Y-107837190D02*
X45195239Y-107789571D01*
X45195239Y-107789571D02*
X45171430Y-107694333D01*
X45171430Y-107694333D02*
X45171430Y-107575285D01*
X45171430Y-107575285D02*
X45195239Y-107480047D01*
X45195239Y-107480047D02*
X45219049Y-107432428D01*
X45219049Y-107432428D02*
X45242858Y-107408619D01*
X45242858Y-107408619D02*
X45290477Y-107384809D01*
X45671429Y-107837190D02*
X45695239Y-107861000D01*
X45695239Y-107861000D02*
X45671429Y-107884809D01*
X45671429Y-107884809D02*
X45647620Y-107861000D01*
X45647620Y-107861000D02*
X45671429Y-107837190D01*
X45671429Y-107837190D02*
X45671429Y-107884809D01*
X46123810Y-107551476D02*
X46123810Y-107884809D01*
X46004762Y-107361000D02*
X45885715Y-107718142D01*
X45885715Y-107718142D02*
X46195238Y-107718142D01*
X46338095Y-107384809D02*
X46671428Y-107384809D01*
X46671428Y-107384809D02*
X46457143Y-107884809D01*
X47076190Y-107551476D02*
X47076190Y-107884809D01*
X46861904Y-107551476D02*
X46861904Y-107813380D01*
X46861904Y-107813380D02*
X46885714Y-107861000D01*
X46885714Y-107861000D02*
X46933333Y-107884809D01*
X46933333Y-107884809D02*
X47004761Y-107884809D01*
X47004761Y-107884809D02*
X47052380Y-107861000D01*
X47052380Y-107861000D02*
X47076190Y-107837190D01*
X47480952Y-107622904D02*
X47314285Y-107622904D01*
X47314285Y-107884809D02*
X47314285Y-107384809D01*
X47314285Y-107384809D02*
X47552380Y-107384809D01*
D11*
%TO.C,J1*%
X86360000Y-76648000D02*
X38040000Y-76648000D01*
X86360000Y-76648000D02*
X86360000Y-79308000D01*
X38040000Y-76648000D02*
X38040000Y-79308000D01*
X88960000Y-77978000D02*
X88960000Y-79308000D01*
X88960000Y-79308000D02*
X87630000Y-79308000D01*
X86360000Y-79308000D02*
X38040000Y-79308000D01*
%TO.C,C5*%
X38102712Y-101789000D02*
X38552712Y-101789000D01*
X38327712Y-101564000D02*
X38327712Y-102014000D01*
X42759740Y-102064000D02*
G75*
G03*
X38520260Y-102064000I-2119740J-1060001D01*
G01*
X38520260Y-104184000D02*
G75*
G03*
X42759740Y-104184000I2119740J1060001D01*
G01*
%TO.C,R1*%
X48372000Y-118206000D02*
X52212000Y-118206000D01*
X48372000Y-120046000D02*
X52212000Y-120046000D01*
%TO.C,C6*%
X54652712Y-101789000D02*
X55102712Y-101789000D01*
X54877712Y-101564000D02*
X54877712Y-102014000D01*
X59309740Y-102064000D02*
G75*
G03*
X55070260Y-102064000I-2119740J-1060001D01*
G01*
X55070260Y-104184000D02*
G75*
G03*
X59309740Y-104184000I2119740J1060001D01*
G01*
D12*
%TO.C,U3*%
X88766000Y-117414000D02*
X78366000Y-117414000D01*
X88766000Y-112814000D02*
X88766000Y-117414000D01*
X78366000Y-117414000D02*
X78366000Y-112814000D01*
X78366000Y-112814000D02*
X88766000Y-112814000D01*
D13*
X86216000Y-112359000D02*
G75*
G03*
X86216000Y-112359000I-100000J0D01*
G01*
D11*
%TO.C,R2*%
X48372000Y-115666000D02*
X52212000Y-115666000D01*
X48372000Y-117506000D02*
X52212000Y-117506000D01*
%TO.C,U1*%
X77680000Y-101760000D02*
X77680000Y-112160000D01*
X77680000Y-112160000D02*
X87960000Y-112160000D01*
X80170000Y-101820000D02*
X80170000Y-112100000D01*
X80170000Y-112100000D02*
X85470000Y-112100000D01*
X81820000Y-101820000D02*
X80170000Y-101820000D01*
X85470000Y-101820000D02*
X83820000Y-101820000D01*
X85470000Y-112100000D02*
X85470000Y-101820000D01*
X87960000Y-101760000D02*
X77680000Y-101760000D01*
X87960000Y-112160000D02*
X87960000Y-101760000D01*
X81820000Y-101820000D02*
G75*
G03*
X83820000Y-101820000I1000000J0D01*
G01*
%TO.C,R6*%
X72994000Y-109616000D02*
X72994000Y-105776000D01*
X74834000Y-109616000D02*
X74834000Y-105776000D01*
%TO.C,R3*%
X48372000Y-120746000D02*
X52212000Y-120746000D01*
X48372000Y-122586000D02*
X52212000Y-122586000D01*
%TO.C,U2*%
X72440000Y-114918000D02*
X72440000Y-104518000D01*
X72440000Y-104518000D02*
X62160000Y-104518000D01*
X69950000Y-114858000D02*
X69950000Y-104578000D01*
X69950000Y-104578000D02*
X64650000Y-104578000D01*
X68300000Y-114858000D02*
X69950000Y-114858000D01*
X64650000Y-114858000D02*
X66300000Y-114858000D01*
X64650000Y-104578000D02*
X64650000Y-114858000D01*
X62160000Y-114918000D02*
X72440000Y-114918000D01*
X62160000Y-104518000D02*
X62160000Y-114918000D01*
X68300000Y-114858000D02*
G75*
G03*
X66300000Y-114858000I-1000000J0D01*
G01*
%TO.C,BT2*%
X71568000Y-122234000D02*
X71568000Y-120904000D01*
X72898000Y-122234000D02*
X71568000Y-122234000D01*
X74168000Y-122234000D02*
X76768000Y-122234000D01*
X74168000Y-122234000D02*
X74168000Y-119574000D01*
X76768000Y-122234000D02*
X76768000Y-119574000D01*
X74168000Y-119574000D02*
X76768000Y-119574000D01*
D12*
%TO.C,S1*%
X38910000Y-118458000D02*
X38910000Y-120810000D01*
X39734000Y-116634000D02*
X44086000Y-116634000D01*
X39734000Y-122634000D02*
X44086000Y-122634000D01*
X44910000Y-118458000D02*
X44910000Y-120810000D01*
D13*
X38760000Y-115630000D02*
G75*
G03*
X38760000Y-115630000I-100000J0D01*
G01*
D11*
%TO.C,C2*%
X46270712Y-101789000D02*
X46720712Y-101789000D01*
X46495712Y-101564000D02*
X46495712Y-102014000D01*
X50927740Y-102064000D02*
G75*
G03*
X46688260Y-102064000I-2119740J-1060001D01*
G01*
X46688260Y-104184000D02*
G75*
G03*
X50927740Y-104184000I2119740J1060001D01*
G01*
%TO.C,J4*%
X83108000Y-98228000D02*
X83108000Y-99558000D01*
X81778000Y-98228000D02*
X83108000Y-98228000D01*
X80508000Y-98228000D02*
X62668000Y-98228000D01*
X80508000Y-98228000D02*
X80508000Y-100888000D01*
X62668000Y-98228000D02*
X62668000Y-100888000D01*
X80508000Y-100888000D02*
X62668000Y-100888000D01*
%TO.C,BT1*%
X61092000Y-115732000D02*
X61092000Y-117642000D01*
X59182000Y-115732000D02*
X61092000Y-115732000D01*
X60782000Y-116042000D02*
X55582000Y-116042000D01*
X58182000Y-116042000D02*
X58182000Y-116442000D01*
X57182000Y-116042000D02*
X57182000Y-116442000D01*
X55582000Y-116042000D02*
X55582000Y-122242000D01*
X60382000Y-116442000D02*
X60382000Y-118642000D01*
X58182000Y-116442000D02*
X60382000Y-116442000D01*
X57182000Y-116442000D02*
X55982000Y-116442000D01*
X55982000Y-116442000D02*
X55982000Y-121842000D01*
X60382000Y-118642000D02*
X60782000Y-118642000D01*
X60382000Y-119642000D02*
X60782000Y-119642000D01*
X60382000Y-121842000D02*
X60382000Y-119642000D01*
X58182000Y-121842000D02*
X60382000Y-121842000D01*
X57182000Y-121842000D02*
X57182000Y-122242000D01*
X55982000Y-121842000D02*
X57182000Y-121842000D01*
X60782000Y-122242000D02*
X60782000Y-116042000D01*
X58182000Y-122242000D02*
X58182000Y-121842000D01*
X55582000Y-122242000D02*
X60782000Y-122242000D01*
D12*
%TO.C,U4*%
X78366000Y-118044000D02*
X88766000Y-118044000D01*
X78366000Y-122644000D02*
X78366000Y-118044000D01*
X88766000Y-118044000D02*
X88766000Y-122644000D01*
X88766000Y-122644000D02*
X78366000Y-122644000D01*
D13*
X81116000Y-123099000D02*
G75*
G03*
X81116000Y-123099000I-100000J0D01*
G01*
D11*
%TO.C,C1*%
X38396712Y-110679000D02*
X38846712Y-110679000D01*
X38621712Y-110454000D02*
X38621712Y-110904000D01*
X43053740Y-110954000D02*
G75*
G03*
X38814260Y-110954000I-2119740J-1060001D01*
G01*
X38814260Y-113074000D02*
G75*
G03*
X43053740Y-113074000I2119740J1060001D01*
G01*
%TO.C,J5*%
X63186000Y-122234000D02*
X63186000Y-120904000D01*
X64516000Y-122234000D02*
X63186000Y-122234000D01*
X65786000Y-122234000D02*
X68386000Y-122234000D01*
X65786000Y-122234000D02*
X65786000Y-119574000D01*
X68386000Y-122234000D02*
X68386000Y-119574000D01*
X65786000Y-119574000D02*
X68386000Y-119574000D01*
%TO.C,C4*%
X60195288Y-112587000D02*
X59745288Y-112587000D01*
X59970288Y-112812000D02*
X59970288Y-112362000D01*
X55538260Y-112312000D02*
G75*
G03*
X59777740Y-112312000I2119740J1060001D01*
G01*
X59777740Y-110192000D02*
G75*
G03*
X55538260Y-110192000I-2119740J-1060001D01*
G01*
%TO.C,J3*%
X57100000Y-75498000D02*
X57100000Y-74168000D01*
X58430000Y-75498000D02*
X57100000Y-75498000D01*
X59700000Y-75498000D02*
X67380000Y-75498000D01*
X59700000Y-75498000D02*
X59700000Y-72838000D01*
X67380000Y-75498000D02*
X67380000Y-72838000D01*
X59700000Y-72838000D02*
X67380000Y-72838000D01*
%TO.C,J2*%
X40640000Y-97088000D02*
X88960000Y-97088000D01*
X40640000Y-97088000D02*
X40640000Y-94428000D01*
X88960000Y-97088000D02*
X88960000Y-94428000D01*
X38040000Y-95758000D02*
X38040000Y-94428000D01*
X38040000Y-94428000D02*
X39370000Y-94428000D01*
X40640000Y-94428000D02*
X88960000Y-94428000D01*
%TO.C,R4*%
X72994000Y-116982000D02*
X72994000Y-113142000D01*
X74834000Y-116982000D02*
X74834000Y-113142000D01*
%TO.C,R5*%
X64628000Y-116174000D02*
X68468000Y-116174000D01*
X64628000Y-118014000D02*
X68468000Y-118014000D01*
%TO.C,J6*%
X71120000Y-75498000D02*
X88960000Y-75498000D01*
X71120000Y-75498000D02*
X71120000Y-72838000D01*
X88960000Y-75498000D02*
X88960000Y-72838000D01*
X68520000Y-74168000D02*
X68520000Y-72838000D01*
X68520000Y-72838000D02*
X69850000Y-72838000D01*
X71120000Y-72838000D02*
X88960000Y-72838000D01*
%TO.C,C3*%
X51853288Y-112587000D02*
X51403288Y-112587000D01*
X51628288Y-112812000D02*
X51628288Y-112362000D01*
X47196260Y-112312000D02*
G75*
G03*
X51435740Y-112312000I2119740J1060001D01*
G01*
X51435740Y-110192000D02*
G75*
G03*
X47196260Y-110192000I-2119740J-1060001D01*
G01*
%TD*%
M02*
