%TF.GenerationSoftware,KiCad,Pcbnew,7.0.7*%
%TF.CreationDate,2023-10-20T12:36:32-04:00*%
%TF.ProjectId,Capstone-board-car,43617073-746f-46e6-952d-626f6172642d,rev?*%
%TF.SameCoordinates,Original*%
%TF.FileFunction,Copper,L2,Bot*%
%TF.FilePolarity,Positive*%
%FSLAX46Y46*%
G04 Gerber Fmt 4.6, Leading zero omitted, Abs format (unit mm)*
G04 Created by KiCad (PCBNEW 7.0.7) date 2023-10-20 12:36:32*
%MOMM*%
%LPD*%
G01*
G04 APERTURE LIST*
G04 Aperture macros list*
%AMRoundRect*
0 Rectangle with rounded corners*
0 $1 Rounding radius*
0 $2 $3 $4 $5 $6 $7 $8 $9 X,Y pos of 4 corners*
0 Add a 4 corners polygon primitive as box body*
4,1,4,$2,$3,$4,$5,$6,$7,$8,$9,$2,$3,0*
0 Add four circle primitives for the rounded corners*
1,1,$1+$1,$2,$3*
1,1,$1+$1,$4,$5*
1,1,$1+$1,$6,$7*
1,1,$1+$1,$8,$9*
0 Add four rect primitives between the rounded corners*
20,1,$1+$1,$2,$3,$4,$5,0*
20,1,$1+$1,$4,$5,$6,$7,0*
20,1,$1+$1,$6,$7,$8,$9,0*
20,1,$1+$1,$8,$9,$2,$3,0*%
G04 Aperture macros list end*
%TA.AperFunction,ComponentPad*%
%ADD10R,1.700000X1.700000*%
%TD*%
%TA.AperFunction,ComponentPad*%
%ADD11O,1.700000X1.700000*%
%TD*%
%TA.AperFunction,ComponentPad*%
%ADD12C,1.600000*%
%TD*%
%TA.AperFunction,ComponentPad*%
%ADD13R,1.600000X1.600000*%
%TD*%
%TA.AperFunction,ComponentPad*%
%ADD14C,1.400000*%
%TD*%
%TA.AperFunction,ComponentPad*%
%ADD15O,1.400000X1.400000*%
%TD*%
%TA.AperFunction,ComponentPad*%
%ADD16R,1.910000X1.910000*%
%TD*%
%TA.AperFunction,ComponentPad*%
%ADD17C,1.910000*%
%TD*%
%TA.AperFunction,ComponentPad*%
%ADD18O,1.600000X1.600000*%
%TD*%
%TA.AperFunction,ComponentPad*%
%ADD19R,1.508000X1.508000*%
%TD*%
%TA.AperFunction,ComponentPad*%
%ADD20C,1.508000*%
%TD*%
%TA.AperFunction,ComponentPad*%
%ADD21O,1.650000X1.200000*%
%TD*%
%TA.AperFunction,ComponentPad*%
%ADD22RoundRect,0.250000X-0.575000X0.350000X-0.575000X-0.350000X0.575000X-0.350000X0.575000X0.350000X0*%
%TD*%
%TA.AperFunction,Conductor*%
%ADD23C,0.750000*%
%TD*%
%TA.AperFunction,Conductor*%
%ADD24C,0.250000*%
%TD*%
G04 APERTURE END LIST*
D10*
%TO.P,J1,1,Pin_1*%
%TO.N,Net-(J1-Pin_1)*%
X87630000Y-77978000D03*
D11*
%TO.P,J1,2,Pin_2*%
%TO.N,Net-(J1-Pin_2)*%
X85090000Y-77978000D03*
%TO.P,J1,3,Pin_3*%
%TO.N,Earth*%
X82550000Y-77978000D03*
%TO.P,J1,4,Pin_4*%
%TO.N,Net-(J1-Pin_4)*%
X80010000Y-77978000D03*
%TO.P,J1,5,Pin_5*%
%TO.N,Net-(J1-Pin_5)*%
X77470000Y-77978000D03*
%TO.P,J1,6,Pin_6*%
%TO.N,Net-(J1-Pin_6)*%
X74930000Y-77978000D03*
%TO.P,J1,7,Pin_7*%
%TO.N,Net-(J1-Pin_7)*%
X72390000Y-77978000D03*
%TO.P,J1,8,Pin_8*%
%TO.N,unconnected-(J1-Pin_8-Pad8)*%
X69850000Y-77978000D03*
%TO.P,J1,9,Pin_9*%
%TO.N,unconnected-(J1-Pin_9-Pad9)*%
X67310000Y-77978000D03*
%TO.P,J1,10,Pin_10*%
%TO.N,unconnected-(J1-Pin_10-Pad10)*%
X64770000Y-77978000D03*
%TO.P,J1,11,Pin_11*%
%TO.N,unconnected-(J1-Pin_11-Pad11)*%
X62230000Y-77978000D03*
%TO.P,J1,12,Pin_12*%
%TO.N,unconnected-(J1-Pin_12-Pad12)*%
X59690000Y-77978000D03*
%TO.P,J1,13,Pin_13*%
%TO.N,unconnected-(J1-Pin_13-Pad13)*%
X57150000Y-77978000D03*
%TO.P,J1,14,Pin_14*%
%TO.N,unconnected-(J1-Pin_14-Pad14)*%
X54610000Y-77978000D03*
%TO.P,J1,15,Pin_15*%
%TO.N,unconnected-(J1-Pin_15-Pad15)*%
X52070000Y-77978000D03*
%TO.P,J1,16,Pin_16*%
%TO.N,unconnected-(J1-Pin_16-Pad16)*%
X49530000Y-77978000D03*
%TO.P,J1,17,Pin_17*%
%TO.N,unconnected-(J1-Pin_17-Pad17)*%
X46990000Y-77978000D03*
%TO.P,J1,18,Pin_18*%
%TO.N,unconnected-(J1-Pin_18-Pad18)*%
X44450000Y-77978000D03*
%TO.P,J1,19,Pin_19*%
%TO.N,Net-(J1-Pin_19)*%
X41910000Y-77978000D03*
%TO.P,J1,20,Pin_20*%
%TO.N,Net-(J1-Pin_20)*%
X39370000Y-77978000D03*
%TD*%
D12*
%TO.P,C5,2*%
%TO.N,Earth*%
X43140000Y-103124000D03*
D13*
%TO.P,C5,1*%
%TO.N,VCCQ*%
X38140000Y-103124000D03*
%TD*%
D14*
%TO.P,R1,1*%
%TO.N,Net-(C1-Pad1)*%
X47752000Y-119126000D03*
D15*
%TO.P,R1,2*%
%TO.N,Net-(U1-IN)*%
X52832000Y-119126000D03*
%TD*%
D13*
%TO.P,C6,1*%
%TO.N,Net-(J5-Pin_1)*%
X54690000Y-103124000D03*
D12*
%TO.P,C6,2*%
%TO.N,Earth*%
X59690000Y-103124000D03*
%TD*%
D16*
%TO.P,U3,1,IN*%
%TO.N,VCCQ*%
X86116000Y-114554000D03*
D17*
%TO.P,U3,2,GND*%
%TO.N,Earth*%
X83566000Y-114554000D03*
%TO.P,U3,3,OUT*%
%TO.N,Net-(J5-Pin_1)*%
X81016000Y-114554000D03*
%TD*%
D14*
%TO.P,R2,1*%
%TO.N,Earth*%
X47752000Y-116586000D03*
D15*
%TO.P,R2,2*%
%TO.N,Net-(U2-THR)*%
X52832000Y-116586000D03*
%TD*%
D13*
%TO.P,U1,1,OUT*%
%TO.N,Net-(J2-Pin_19)*%
X79010000Y-103150000D03*
D18*
%TO.P,U1,2,NC/ADJ*%
%TO.N,unconnected-(U1-NC{slash}ADJ-Pad2)*%
X79010000Y-105690000D03*
%TO.P,U1,3,GND*%
%TO.N,Earth*%
X79010000Y-108230000D03*
%TO.P,U1,4,NC*%
%TO.N,unconnected-(U1-NC-Pad4)*%
X79010000Y-110770000D03*
%TO.P,U1,5,\u002ASHDN*%
%TO.N,unconnected-(U1-\u002ASHDN-Pad5)*%
X86630000Y-110770000D03*
%TO.P,U1,6,NC*%
%TO.N,unconnected-(U1-NC-Pad6)*%
X86630000Y-108230000D03*
%TO.P,U1,7,NC*%
%TO.N,unconnected-(U1-NC-Pad7)*%
X86630000Y-105690000D03*
%TO.P,U1,8,IN*%
%TO.N,Net-(U1-IN)*%
X86630000Y-103150000D03*
%TD*%
D14*
%TO.P,R6,1*%
%TO.N,Earth*%
X73914000Y-110236000D03*
D15*
%TO.P,R6,2*%
%TO.N,Net-(J5-Pin_1)*%
X73914000Y-105156000D03*
%TD*%
D14*
%TO.P,R3,1*%
%TO.N,Net-(U2-THR)*%
X47752000Y-121666000D03*
D15*
%TO.P,R3,2*%
%TO.N,VCC*%
X52832000Y-121666000D03*
%TD*%
D13*
%TO.P,U2,1,GND*%
%TO.N,Earth*%
X71110000Y-113528000D03*
D18*
%TO.P,U2,2,TR*%
%TO.N,Net-(U2-THR)*%
X71110000Y-110988000D03*
%TO.P,U2,3,Q*%
%TO.N,Net-(U1-IN)*%
X71110000Y-108448000D03*
%TO.P,U2,4,R*%
%TO.N,VCC*%
X71110000Y-105908000D03*
%TO.P,U2,5,CV*%
%TO.N,unconnected-(U2-CV-Pad5)*%
X63490000Y-105908000D03*
%TO.P,U2,6,THR*%
%TO.N,Net-(U2-THR)*%
X63490000Y-108448000D03*
%TO.P,U2,7,DIS*%
%TO.N,unconnected-(U2-DIS-Pad7)*%
X63490000Y-110988000D03*
%TO.P,U2,8,VCC*%
%TO.N,VCC*%
X63490000Y-113528000D03*
%TD*%
D10*
%TO.P,BT2,1,+*%
%TO.N,VCCQ*%
X72898000Y-120904000D03*
D11*
%TO.P,BT2,2,-*%
%TO.N,Earth*%
X75438000Y-120904000D03*
%TD*%
D19*
%TO.P,S1,1*%
%TO.N,Net-(C1-Pad1)*%
X38660000Y-117384000D03*
D20*
%TO.P,S1,2*%
%TO.N,unconnected-(S1-Pad2)*%
X45160000Y-117384000D03*
%TO.P,S1,3*%
%TO.N,unconnected-(S1-Pad3)*%
X38660000Y-121884000D03*
%TO.P,S1,4*%
%TO.N,Net-(U2-THR)*%
X45160000Y-121884000D03*
%TD*%
D13*
%TO.P,C2,1*%
%TO.N,Net-(J2-Pin_19)*%
X46308000Y-103124000D03*
D12*
%TO.P,C2,2*%
%TO.N,Earth*%
X51308000Y-103124000D03*
%TD*%
D10*
%TO.P,J4,1,Pin_1*%
%TO.N,VCCQ*%
X81778000Y-99558000D03*
D11*
%TO.P,J4,2,Pin_2*%
%TO.N,Earth*%
X79238000Y-99558000D03*
%TO.P,J4,3,Pin_3*%
%TO.N,Net-(J1-Pin_1)*%
X76698000Y-99558000D03*
%TO.P,J4,4,Pin_4*%
%TO.N,Net-(J1-Pin_2)*%
X74158000Y-99558000D03*
%TO.P,J4,5,Pin_5*%
%TO.N,Net-(J1-Pin_4)*%
X71618000Y-99558000D03*
%TO.P,J4,6,Pin_6*%
%TO.N,Net-(J1-Pin_5)*%
X69078000Y-99558000D03*
%TO.P,J4,7,Pin_7*%
%TO.N,Net-(J1-Pin_6)*%
X66538000Y-99558000D03*
%TO.P,J4,8,Pin_8*%
%TO.N,Net-(J1-Pin_7)*%
X63998000Y-99558000D03*
%TD*%
D21*
%TO.P,BT1,4*%
%TO.N,N/C*%
X57182000Y-120142000D03*
%TO.P,BT1,3*%
X59182000Y-120142000D03*
%TO.P,BT1,2,-*%
%TO.N,Earth*%
X57182000Y-118142000D03*
D22*
%TO.P,BT1,1,+*%
%TO.N,VCC*%
X59182000Y-118142000D03*
%TD*%
D16*
%TO.P,U4,1,IN*%
%TO.N,Net-(U1-IN)*%
X81016000Y-120904000D03*
D17*
%TO.P,U4,2,GND*%
%TO.N,Earth*%
X83566000Y-120904000D03*
%TO.P,U4,3,OUT*%
%TO.N,Net-(J3-Pin_1)*%
X86116000Y-120904000D03*
%TD*%
D13*
%TO.P,C1,1*%
%TO.N,Net-(C1-Pad1)*%
X38434000Y-112014000D03*
D12*
%TO.P,C1,2*%
%TO.N,Earth*%
X43434000Y-112014000D03*
%TD*%
D10*
%TO.P,J5,1,Pin_1*%
%TO.N,Net-(J5-Pin_1)*%
X64516000Y-120904000D03*
D11*
%TO.P,J5,2,Pin_2*%
%TO.N,Earth*%
X67056000Y-120904000D03*
%TD*%
D13*
%TO.P,C4,1*%
%TO.N,Net-(J3-Pin_1)*%
X60158000Y-111252000D03*
D12*
%TO.P,C4,2*%
%TO.N,Earth*%
X55158000Y-111252000D03*
%TD*%
D10*
%TO.P,J3,1,Pin_1*%
%TO.N,Net-(J3-Pin_1)*%
X58430000Y-74168000D03*
D11*
%TO.P,J3,2,Pin_2*%
%TO.N,Net-(J1-Pin_20)*%
X60970000Y-74168000D03*
%TO.P,J3,3,Pin_3*%
%TO.N,Net-(J1-Pin_19)*%
X63510000Y-74168000D03*
%TO.P,J3,4,Pin_4*%
%TO.N,Earth*%
X66050000Y-74168000D03*
%TD*%
D10*
%TO.P,J2,1,Pin_1*%
%TO.N,Net-(J2-Pin_1)*%
X39370000Y-95758000D03*
D11*
%TO.P,J2,2,Pin_2*%
%TO.N,Net-(J2-Pin_2)*%
X41910000Y-95758000D03*
%TO.P,J2,3,Pin_3*%
%TO.N,unconnected-(J2-Pin_3-Pad3)*%
X44450000Y-95758000D03*
%TO.P,J2,4,Pin_4*%
%TO.N,unconnected-(J2-Pin_4-Pad4)*%
X46990000Y-95758000D03*
%TO.P,J2,5,Pin_5*%
%TO.N,unconnected-(J2-Pin_5-Pad5)*%
X49530000Y-95758000D03*
%TO.P,J2,6,Pin_6*%
%TO.N,unconnected-(J2-Pin_6-Pad6)*%
X52070000Y-95758000D03*
%TO.P,J2,7,Pin_7*%
%TO.N,unconnected-(J2-Pin_7-Pad7)*%
X54610000Y-95758000D03*
%TO.P,J2,8,Pin_8*%
%TO.N,unconnected-(J2-Pin_8-Pad8)*%
X57150000Y-95758000D03*
%TO.P,J2,9,Pin_9*%
%TO.N,unconnected-(J2-Pin_9-Pad9)*%
X59690000Y-95758000D03*
%TO.P,J2,10,Pin_10*%
%TO.N,unconnected-(J2-Pin_10-Pad10)*%
X62230000Y-95758000D03*
%TO.P,J2,11,Pin_11*%
%TO.N,unconnected-(J2-Pin_11-Pad11)*%
X64770000Y-95758000D03*
%TO.P,J2,12,Pin_12*%
%TO.N,unconnected-(J2-Pin_12-Pad12)*%
X67310000Y-95758000D03*
%TO.P,J2,13,Pin_13*%
%TO.N,unconnected-(J2-Pin_13-Pad13)*%
X69850000Y-95758000D03*
%TO.P,J2,14,Pin_14*%
%TO.N,unconnected-(J2-Pin_14-Pad14)*%
X72390000Y-95758000D03*
%TO.P,J2,15,Pin_15*%
%TO.N,unconnected-(J2-Pin_15-Pad15)*%
X74930000Y-95758000D03*
%TO.P,J2,16,Pin_16*%
%TO.N,unconnected-(J2-Pin_16-Pad16)*%
X77470000Y-95758000D03*
%TO.P,J2,17,Pin_17*%
%TO.N,unconnected-(J2-Pin_17-Pad17)*%
X80010000Y-95758000D03*
%TO.P,J2,18,Pin_18*%
%TO.N,unconnected-(J2-Pin_18-Pad18)*%
X82550000Y-95758000D03*
%TO.P,J2,19,Pin_19*%
%TO.N,Net-(J2-Pin_19)*%
X85090000Y-95758000D03*
%TO.P,J2,20,Pin_20*%
%TO.N,unconnected-(J2-Pin_20-Pad20)*%
X87630000Y-95758000D03*
%TD*%
D14*
%TO.P,R4,1*%
%TO.N,Earth*%
X73914000Y-117602000D03*
D15*
%TO.P,R4,2*%
%TO.N,Net-(J3-Pin_1)*%
X73914000Y-112522000D03*
%TD*%
D14*
%TO.P,R5,1*%
%TO.N,Earth*%
X64008000Y-117094000D03*
D15*
%TO.P,R5,2*%
%TO.N,Net-(J5-Pin_1)*%
X69088000Y-117094000D03*
%TD*%
D10*
%TO.P,J6,1,Pin_1*%
%TO.N,Net-(J2-Pin_19)*%
X69850000Y-74168000D03*
D11*
%TO.P,J6,2,Pin_2*%
%TO.N,Earth*%
X72390000Y-74168000D03*
%TO.P,J6,3,Pin_3*%
%TO.N,Net-(J2-Pin_2)*%
X74930000Y-74168000D03*
%TO.P,J6,4,Pin_4*%
%TO.N,Net-(J2-Pin_1)*%
X77470000Y-74168000D03*
%TO.P,J6,5,Pin_5*%
%TO.N,unconnected-(J6-Pin_5-Pad5)*%
X80010000Y-74168000D03*
%TO.P,J6,6,Pin_6*%
%TO.N,unconnected-(J6-Pin_6-Pad6)*%
X82550000Y-74168000D03*
%TO.P,J6,7,Pin_7*%
%TO.N,unconnected-(J6-Pin_7-Pad7)*%
X85090000Y-74168000D03*
%TO.P,J6,8,Pin_8*%
%TO.N,unconnected-(J6-Pin_8-Pad8)*%
X87630000Y-74168000D03*
%TD*%
D12*
%TO.P,C3,2*%
%TO.N,Earth*%
X46816000Y-111252000D03*
D13*
%TO.P,C3,1*%
%TO.N,Net-(U1-IN)*%
X51816000Y-111252000D03*
%TD*%
D23*
%TO.N,Net-(U1-IN)*%
X54470000Y-116419949D02*
X54470000Y-117488000D01*
X54458000Y-116407949D02*
X54470000Y-116419949D01*
X54458000Y-113894000D02*
X54458000Y-116407949D01*
X54470000Y-117488000D02*
X52832000Y-119126000D01*
X51816000Y-111252000D02*
X54458000Y-113894000D01*
X82200000Y-112460000D02*
X82190000Y-112470000D01*
X88650000Y-112460000D02*
X82200000Y-112460000D01*
X88640000Y-122960000D02*
X88640000Y-112470000D01*
X83072000Y-122960000D02*
X88640000Y-122960000D01*
X88640000Y-112470000D02*
X88650000Y-112460000D01*
X81016000Y-120904000D02*
X83072000Y-122960000D01*
%TO.N,VCC*%
X59182000Y-117836000D02*
X60684000Y-117836000D01*
X60684000Y-117836000D02*
X63490000Y-115030000D01*
X63490000Y-115030000D02*
X63490000Y-113528000D01*
D24*
X59182000Y-118142000D02*
X59182000Y-117836000D01*
%TO.N,Earth*%
X79010000Y-108230000D02*
X77940000Y-107160000D01*
X77400000Y-101396000D02*
X78063000Y-100733000D01*
X77940000Y-107160000D02*
X70590000Y-107160000D01*
X69750000Y-108000000D02*
X69750000Y-108960000D01*
X76210000Y-84318000D02*
X82550000Y-77978000D01*
X74639701Y-97900000D02*
X76210000Y-96329701D01*
X70590000Y-107160000D02*
X69750000Y-108000000D01*
X78063000Y-100733000D02*
X72880000Y-100733000D01*
X73980000Y-97900000D02*
X74639701Y-97900000D01*
X79238000Y-99558000D02*
X78063000Y-100733000D01*
X55158000Y-116118000D02*
X57182000Y-118142000D01*
X55158000Y-111252000D02*
X55158000Y-116118000D01*
X79010000Y-108230000D02*
X77400000Y-106620000D01*
X72880000Y-100733000D02*
X72880000Y-99000000D01*
X69750000Y-108960000D02*
X70570000Y-109780000D01*
X77400000Y-106620000D02*
X77400000Y-101396000D01*
X76210000Y-96329701D02*
X76210000Y-84318000D01*
X72880000Y-99000000D02*
X73980000Y-97900000D01*
X73458000Y-109780000D02*
X73914000Y-110236000D01*
X70570000Y-109780000D02*
X73458000Y-109780000D01*
D23*
%TO.N,VCCQ*%
X74762000Y-119040000D02*
X81630000Y-119040000D01*
X81630000Y-119040000D02*
X86116000Y-114554000D01*
X72898000Y-120904000D02*
X74762000Y-119040000D01*
D24*
%TO.N,Net-(J3-Pin_1)*%
X58430000Y-98620613D02*
X56640613Y-100410000D01*
X82489949Y-113160000D02*
X82479949Y-113170000D01*
X73795000Y-112403000D02*
X61309000Y-112403000D01*
X54790000Y-100410000D02*
X52978307Y-102221693D01*
X56640613Y-100410000D02*
X54790000Y-100410000D01*
X82479949Y-113170000D02*
X74562000Y-113170000D01*
X74562000Y-113170000D02*
X73914000Y-112522000D01*
X58430000Y-74168000D02*
X58430000Y-98620613D01*
X52978307Y-102221693D02*
X52978307Y-104072307D01*
X73914000Y-112522000D02*
X73795000Y-112403000D01*
X87940000Y-113160000D02*
X82489949Y-113160000D01*
X61309000Y-112403000D02*
X60158000Y-111252000D01*
X52978307Y-104072307D02*
X60158000Y-111252000D01*
X87940000Y-119080000D02*
X87940000Y-113160000D01*
X86116000Y-120904000D02*
X87940000Y-119080000D01*
%TO.N,Net-(J5-Pin_1)*%
X70568000Y-101810000D02*
X73914000Y-105156000D01*
X69088000Y-117094000D02*
X65278000Y-120904000D01*
X81016000Y-114554000D02*
X79070000Y-116500000D01*
X54690000Y-103124000D02*
X56004000Y-101810000D01*
X69682000Y-116500000D02*
X69088000Y-117094000D01*
X65278000Y-120904000D02*
X64516000Y-120904000D01*
X56004000Y-101810000D02*
X70568000Y-101810000D01*
X79070000Y-116500000D02*
X69682000Y-116500000D01*
D23*
%TO.N,Net-(U1-IN)*%
X78280000Y-112470000D02*
X74258000Y-108448000D01*
X82190000Y-107590000D02*
X82190000Y-112470000D01*
X86630000Y-103150000D02*
X82190000Y-107590000D01*
D24*
X71110000Y-109080000D02*
X71110000Y-108448000D01*
D23*
X82190000Y-112470000D02*
X78280000Y-112470000D01*
X74258000Y-108448000D02*
X71110000Y-108448000D01*
D24*
%TO.N,Net-(J1-Pin_1)*%
X79126000Y-97130000D02*
X81280000Y-97130000D01*
X76698000Y-99558000D02*
X79126000Y-97130000D01*
X81280000Y-97130000D02*
X81280000Y-84328000D01*
X81280000Y-84328000D02*
X87630000Y-77978000D01*
%TO.N,Net-(J1-Pin_2)*%
X78519604Y-97100000D02*
X78740000Y-96879604D01*
X78740000Y-96879604D02*
X78740000Y-84328000D01*
X78740000Y-84328000D02*
X85090000Y-77978000D01*
X76616000Y-97100000D02*
X78519604Y-97100000D01*
X74158000Y-99558000D02*
X76616000Y-97100000D01*
%TO.N,Net-(J1-Pin_4)*%
X73660000Y-97516000D02*
X73660000Y-84328000D01*
X73660000Y-84328000D02*
X80010000Y-77978000D01*
X71618000Y-99558000D02*
X73660000Y-97516000D01*
%TO.N,Net-(J1-Pin_5)*%
X71130000Y-97506000D02*
X71130000Y-84318000D01*
X71130000Y-84318000D02*
X77470000Y-77978000D01*
X69078000Y-99558000D02*
X71130000Y-97506000D01*
%TO.N,Net-(J1-Pin_6)*%
X68580000Y-84328000D02*
X74930000Y-77978000D01*
X66538000Y-99558000D02*
X68580000Y-97516000D01*
X68580000Y-97516000D02*
X68580000Y-84328000D01*
%TO.N,Net-(J1-Pin_7)*%
X66020000Y-97536000D02*
X66020000Y-84348000D01*
X66020000Y-84348000D02*
X72390000Y-77978000D01*
X63998000Y-99558000D02*
X66020000Y-97536000D01*
%TO.N,Net-(J2-Pin_2)*%
X57458000Y-72790000D02*
X55975000Y-74273000D01*
X74538299Y-74168000D02*
X73160299Y-72790000D01*
X74930000Y-74168000D02*
X74538299Y-74168000D01*
X55975000Y-74273000D02*
X55975000Y-81693000D01*
X73160299Y-72790000D02*
X57458000Y-72790000D01*
X55975000Y-81693000D02*
X41910000Y-95758000D01*
%TO.N,Net-(U2-THR)*%
X63490000Y-108448000D02*
X68570000Y-108448000D01*
X68570000Y-108448000D02*
X71110000Y-110988000D01*
%TD*%
M02*
