%TF.GenerationSoftware,KiCad,Pcbnew,7.0.7*%
%TF.CreationDate,2023-10-24T13:34:15-04:00*%
%TF.ProjectId,Capstone-board-car,43617073-746f-46e6-952d-626f6172642d,rev?*%
%TF.SameCoordinates,Original*%
%TF.FileFunction,Copper,L1,Top*%
%TF.FilePolarity,Positive*%
%FSLAX46Y46*%
G04 Gerber Fmt 4.6, Leading zero omitted, Abs format (unit mm)*
G04 Created by KiCad (PCBNEW 7.0.7) date 2023-10-24 13:34:15*
%MOMM*%
%LPD*%
G01*
G04 APERTURE LIST*
G04 Aperture macros list*
%AMRoundRect*
0 Rectangle with rounded corners*
0 $1 Rounding radius*
0 $2 $3 $4 $5 $6 $7 $8 $9 X,Y pos of 4 corners*
0 Add a 4 corners polygon primitive as box body*
4,1,4,$2,$3,$4,$5,$6,$7,$8,$9,$2,$3,0*
0 Add four circle primitives for the rounded corners*
1,1,$1+$1,$2,$3*
1,1,$1+$1,$4,$5*
1,1,$1+$1,$6,$7*
1,1,$1+$1,$8,$9*
0 Add four rect primitives between the rounded corners*
20,1,$1+$1,$2,$3,$4,$5,0*
20,1,$1+$1,$4,$5,$6,$7,0*
20,1,$1+$1,$6,$7,$8,$9,0*
20,1,$1+$1,$8,$9,$2,$3,0*%
G04 Aperture macros list end*
%TA.AperFunction,ComponentPad*%
%ADD10R,1.700000X1.700000*%
%TD*%
%TA.AperFunction,ComponentPad*%
%ADD11O,1.700000X1.700000*%
%TD*%
%TA.AperFunction,ComponentPad*%
%ADD12R,1.600000X1.600000*%
%TD*%
%TA.AperFunction,ComponentPad*%
%ADD13C,1.600000*%
%TD*%
%TA.AperFunction,ComponentPad*%
%ADD14C,1.400000*%
%TD*%
%TA.AperFunction,ComponentPad*%
%ADD15O,1.400000X1.400000*%
%TD*%
%TA.AperFunction,ComponentPad*%
%ADD16R,1.910000X1.910000*%
%TD*%
%TA.AperFunction,ComponentPad*%
%ADD17C,1.910000*%
%TD*%
%TA.AperFunction,ComponentPad*%
%ADD18O,1.600000X1.600000*%
%TD*%
%TA.AperFunction,ComponentPad*%
%ADD19R,1.508000X1.508000*%
%TD*%
%TA.AperFunction,ComponentPad*%
%ADD20C,1.508000*%
%TD*%
%TA.AperFunction,ComponentPad*%
%ADD21RoundRect,0.250000X-0.575000X0.350000X-0.575000X-0.350000X0.575000X-0.350000X0.575000X0.350000X0*%
%TD*%
%TA.AperFunction,ComponentPad*%
%ADD22O,1.650000X1.200000*%
%TD*%
%TA.AperFunction,Conductor*%
%ADD23C,0.750000*%
%TD*%
%TA.AperFunction,Conductor*%
%ADD24C,0.250000*%
%TD*%
G04 APERTURE END LIST*
D10*
%TO.P,J1,1,Pin_1*%
%TO.N,Net-(J1-Pin_1)*%
X87630000Y-77978000D03*
D11*
%TO.P,J1,2,Pin_2*%
%TO.N,Net-(J1-Pin_2)*%
X85090000Y-77978000D03*
%TO.P,J1,3,Pin_3*%
%TO.N,Earth*%
X82550000Y-77978000D03*
%TO.P,J1,4,Pin_4*%
%TO.N,Net-(J1-Pin_4)*%
X80010000Y-77978000D03*
%TO.P,J1,5,Pin_5*%
%TO.N,Net-(J1-Pin_5)*%
X77470000Y-77978000D03*
%TO.P,J1,6,Pin_6*%
%TO.N,Net-(J1-Pin_6)*%
X74930000Y-77978000D03*
%TO.P,J1,7,Pin_7*%
%TO.N,Net-(J1-Pin_7)*%
X72390000Y-77978000D03*
%TO.P,J1,8,Pin_8*%
%TO.N,unconnected-(J1-Pin_8-Pad8)*%
X69850000Y-77978000D03*
%TO.P,J1,9,Pin_9*%
%TO.N,unconnected-(J1-Pin_9-Pad9)*%
X67310000Y-77978000D03*
%TO.P,J1,10,Pin_10*%
%TO.N,unconnected-(J1-Pin_10-Pad10)*%
X64770000Y-77978000D03*
%TO.P,J1,11,Pin_11*%
%TO.N,unconnected-(J1-Pin_11-Pad11)*%
X62230000Y-77978000D03*
%TO.P,J1,12,Pin_12*%
%TO.N,unconnected-(J1-Pin_12-Pad12)*%
X59690000Y-77978000D03*
%TO.P,J1,13,Pin_13*%
%TO.N,unconnected-(J1-Pin_13-Pad13)*%
X57150000Y-77978000D03*
%TO.P,J1,14,Pin_14*%
%TO.N,unconnected-(J1-Pin_14-Pad14)*%
X54610000Y-77978000D03*
%TO.P,J1,15,Pin_15*%
%TO.N,unconnected-(J1-Pin_15-Pad15)*%
X52070000Y-77978000D03*
%TO.P,J1,16,Pin_16*%
%TO.N,unconnected-(J1-Pin_16-Pad16)*%
X49530000Y-77978000D03*
%TO.P,J1,17,Pin_17*%
%TO.N,unconnected-(J1-Pin_17-Pad17)*%
X46990000Y-77978000D03*
%TO.P,J1,18,Pin_18*%
%TO.N,unconnected-(J1-Pin_18-Pad18)*%
X44450000Y-77978000D03*
%TO.P,J1,19,Pin_19*%
%TO.N,Net-(J1-Pin_19)*%
X41910000Y-77978000D03*
%TO.P,J1,20,Pin_20*%
%TO.N,Net-(J1-Pin_20)*%
X39370000Y-77978000D03*
%TD*%
D12*
%TO.P,C5,1*%
%TO.N,VCCQ*%
X38140000Y-103124000D03*
D13*
%TO.P,C5,2*%
%TO.N,Earth*%
X43140000Y-103124000D03*
%TD*%
D14*
%TO.P,R1,1*%
%TO.N,Net-(C1-Pad1)*%
X47752000Y-119126000D03*
D15*
%TO.P,R1,2*%
%TO.N,Net-(U1-IN)*%
X52832000Y-119126000D03*
%TD*%
D12*
%TO.P,C6,1*%
%TO.N,Net-(J5-Pin_1)*%
X54690000Y-103124000D03*
D13*
%TO.P,C6,2*%
%TO.N,Earth*%
X59690000Y-103124000D03*
%TD*%
D16*
%TO.P,U3,1,IN*%
%TO.N,VCCQ*%
X86116000Y-114554000D03*
D17*
%TO.P,U3,2,GND*%
%TO.N,Earth*%
X83566000Y-114554000D03*
%TO.P,U3,3,OUT*%
%TO.N,Net-(J5-Pin_1)*%
X81016000Y-114554000D03*
%TD*%
D14*
%TO.P,R2,1*%
%TO.N,Earth*%
X47752000Y-116586000D03*
D15*
%TO.P,R2,2*%
%TO.N,Net-(U2-THR)*%
X52832000Y-116586000D03*
%TD*%
D12*
%TO.P,U1,1,OUT*%
%TO.N,Net-(J2-Pin_19)*%
X79010000Y-103150000D03*
D18*
%TO.P,U1,2,NC/ADJ*%
%TO.N,unconnected-(U1-NC{slash}ADJ-Pad2)*%
X79010000Y-105690000D03*
%TO.P,U1,3,GND*%
%TO.N,Earth*%
X79010000Y-108230000D03*
%TO.P,U1,4,NC*%
%TO.N,unconnected-(U1-NC-Pad4)*%
X79010000Y-110770000D03*
%TO.P,U1,5,\u002ASHDN*%
%TO.N,unconnected-(U1-\u002ASHDN-Pad5)*%
X86630000Y-110770000D03*
%TO.P,U1,6,NC*%
%TO.N,unconnected-(U1-NC-Pad6)*%
X86630000Y-108230000D03*
%TO.P,U1,7,NC*%
%TO.N,unconnected-(U1-NC-Pad7)*%
X86630000Y-105690000D03*
%TO.P,U1,8,IN*%
%TO.N,Net-(U1-IN)*%
X86630000Y-103150000D03*
%TD*%
D14*
%TO.P,R6,1*%
%TO.N,Earth*%
X73914000Y-110236000D03*
D15*
%TO.P,R6,2*%
%TO.N,Net-(J5-Pin_1)*%
X73914000Y-105156000D03*
%TD*%
D14*
%TO.P,R3,1*%
%TO.N,Net-(U2-THR)*%
X47752000Y-121666000D03*
D15*
%TO.P,R3,2*%
%TO.N,VCC*%
X52832000Y-121666000D03*
%TD*%
D12*
%TO.P,U2,1,GND*%
%TO.N,Earth*%
X71110000Y-113528000D03*
D18*
%TO.P,U2,2,TR*%
%TO.N,Net-(U2-THR)*%
X71110000Y-110988000D03*
%TO.P,U2,3,Q*%
%TO.N,Net-(U1-IN)*%
X71110000Y-108448000D03*
%TO.P,U2,4,R*%
%TO.N,VCC*%
X71110000Y-105908000D03*
%TO.P,U2,5,CV*%
%TO.N,unconnected-(U2-CV-Pad5)*%
X63490000Y-105908000D03*
%TO.P,U2,6,THR*%
%TO.N,Net-(U2-THR)*%
X63490000Y-108448000D03*
%TO.P,U2,7,DIS*%
%TO.N,unconnected-(U2-DIS-Pad7)*%
X63490000Y-110988000D03*
%TO.P,U2,8,VCC*%
%TO.N,VCC*%
X63490000Y-113528000D03*
%TD*%
D10*
%TO.P,BT2,1,+*%
%TO.N,VCCQ*%
X72898000Y-120904000D03*
D11*
%TO.P,BT2,2,-*%
%TO.N,Earth*%
X75438000Y-120904000D03*
%TD*%
D19*
%TO.P,S1,1*%
%TO.N,Net-(C1-Pad1)*%
X38660000Y-117384000D03*
D20*
%TO.P,S1,2*%
%TO.N,unconnected-(S1-Pad2)*%
X45160000Y-117384000D03*
%TO.P,S1,3*%
%TO.N,unconnected-(S1-Pad3)*%
X38660000Y-121884000D03*
%TO.P,S1,4*%
%TO.N,Net-(U2-THR)*%
X45160000Y-121884000D03*
%TD*%
D12*
%TO.P,C2,1*%
%TO.N,Net-(J2-Pin_19)*%
X46308000Y-103124000D03*
D13*
%TO.P,C2,2*%
%TO.N,Earth*%
X51308000Y-103124000D03*
%TD*%
D10*
%TO.P,J4,1,Pin_1*%
%TO.N,VCCQ*%
X81778000Y-99558000D03*
D11*
%TO.P,J4,2,Pin_2*%
%TO.N,Earth*%
X79238000Y-99558000D03*
%TO.P,J4,3,Pin_3*%
%TO.N,Net-(J1-Pin_1)*%
X76698000Y-99558000D03*
%TO.P,J4,4,Pin_4*%
%TO.N,Net-(J1-Pin_2)*%
X74158000Y-99558000D03*
%TO.P,J4,5,Pin_5*%
%TO.N,Net-(J1-Pin_4)*%
X71618000Y-99558000D03*
%TO.P,J4,6,Pin_6*%
%TO.N,Net-(J1-Pin_5)*%
X69078000Y-99558000D03*
%TO.P,J4,7,Pin_7*%
%TO.N,Net-(J1-Pin_6)*%
X66538000Y-99558000D03*
%TO.P,J4,8,Pin_8*%
%TO.N,Net-(J1-Pin_7)*%
X63998000Y-99558000D03*
%TD*%
D21*
%TO.P,BT1,1,+*%
%TO.N,VCC*%
X59182000Y-118142000D03*
D22*
%TO.P,BT1,2,-*%
%TO.N,Earth*%
X57182000Y-118142000D03*
%TO.P,BT1,3*%
%TO.N,N/C*%
X59182000Y-120142000D03*
%TO.P,BT1,4*%
X57182000Y-120142000D03*
%TD*%
D16*
%TO.P,U4,1,IN*%
%TO.N,Net-(U1-IN)*%
X81016000Y-120904000D03*
D17*
%TO.P,U4,2,GND*%
%TO.N,Earth*%
X83566000Y-120904000D03*
%TO.P,U4,3,OUT*%
%TO.N,Net-(J3-Pin_1)*%
X86116000Y-120904000D03*
%TD*%
D12*
%TO.P,C1,1*%
%TO.N,Net-(C1-Pad1)*%
X38434000Y-112014000D03*
D13*
%TO.P,C1,2*%
%TO.N,Earth*%
X43434000Y-112014000D03*
%TD*%
D10*
%TO.P,J5,1,Pin_1*%
%TO.N,Net-(J5-Pin_1)*%
X64516000Y-120904000D03*
D11*
%TO.P,J5,2,Pin_2*%
%TO.N,Earth*%
X67056000Y-120904000D03*
%TD*%
D12*
%TO.P,C4,1*%
%TO.N,Net-(J3-Pin_1)*%
X60158000Y-111252000D03*
D13*
%TO.P,C4,2*%
%TO.N,Earth*%
X55158000Y-111252000D03*
%TD*%
D10*
%TO.P,J3,1,Pin_1*%
%TO.N,Net-(J3-Pin_1)*%
X58430000Y-74168000D03*
D11*
%TO.P,J3,2,Pin_2*%
%TO.N,Net-(J1-Pin_20)*%
X60970000Y-74168000D03*
%TO.P,J3,3,Pin_3*%
%TO.N,Net-(J1-Pin_19)*%
X63510000Y-74168000D03*
%TO.P,J3,4,Pin_4*%
%TO.N,Earth*%
X66050000Y-74168000D03*
%TD*%
D10*
%TO.P,J2,1,Pin_1*%
%TO.N,Net-(J2-Pin_1)*%
X39370000Y-95758000D03*
D11*
%TO.P,J2,2,Pin_2*%
%TO.N,Net-(J2-Pin_2)*%
X41910000Y-95758000D03*
%TO.P,J2,3,Pin_3*%
%TO.N,unconnected-(J2-Pin_3-Pad3)*%
X44450000Y-95758000D03*
%TO.P,J2,4,Pin_4*%
%TO.N,unconnected-(J2-Pin_4-Pad4)*%
X46990000Y-95758000D03*
%TO.P,J2,5,Pin_5*%
%TO.N,unconnected-(J2-Pin_5-Pad5)*%
X49530000Y-95758000D03*
%TO.P,J2,6,Pin_6*%
%TO.N,unconnected-(J2-Pin_6-Pad6)*%
X52070000Y-95758000D03*
%TO.P,J2,7,Pin_7*%
%TO.N,unconnected-(J2-Pin_7-Pad7)*%
X54610000Y-95758000D03*
%TO.P,J2,8,Pin_8*%
%TO.N,unconnected-(J2-Pin_8-Pad8)*%
X57150000Y-95758000D03*
%TO.P,J2,9,Pin_9*%
%TO.N,unconnected-(J2-Pin_9-Pad9)*%
X59690000Y-95758000D03*
%TO.P,J2,10,Pin_10*%
%TO.N,unconnected-(J2-Pin_10-Pad10)*%
X62230000Y-95758000D03*
%TO.P,J2,11,Pin_11*%
%TO.N,unconnected-(J2-Pin_11-Pad11)*%
X64770000Y-95758000D03*
%TO.P,J2,12,Pin_12*%
%TO.N,unconnected-(J2-Pin_12-Pad12)*%
X67310000Y-95758000D03*
%TO.P,J2,13,Pin_13*%
%TO.N,unconnected-(J2-Pin_13-Pad13)*%
X69850000Y-95758000D03*
%TO.P,J2,14,Pin_14*%
%TO.N,unconnected-(J2-Pin_14-Pad14)*%
X72390000Y-95758000D03*
%TO.P,J2,15,Pin_15*%
%TO.N,unconnected-(J2-Pin_15-Pad15)*%
X74930000Y-95758000D03*
%TO.P,J2,16,Pin_16*%
%TO.N,unconnected-(J2-Pin_16-Pad16)*%
X77470000Y-95758000D03*
%TO.P,J2,17,Pin_17*%
%TO.N,unconnected-(J2-Pin_17-Pad17)*%
X80010000Y-95758000D03*
%TO.P,J2,18,Pin_18*%
%TO.N,unconnected-(J2-Pin_18-Pad18)*%
X82550000Y-95758000D03*
%TO.P,J2,19,Pin_19*%
%TO.N,Net-(J2-Pin_19)*%
X85090000Y-95758000D03*
%TO.P,J2,20,Pin_20*%
%TO.N,unconnected-(J2-Pin_20-Pad20)*%
X87630000Y-95758000D03*
%TD*%
D14*
%TO.P,R4,1*%
%TO.N,Earth*%
X73914000Y-117602000D03*
D15*
%TO.P,R4,2*%
%TO.N,Net-(J3-Pin_1)*%
X73914000Y-112522000D03*
%TD*%
D14*
%TO.P,R5,1*%
%TO.N,Earth*%
X64008000Y-117094000D03*
D15*
%TO.P,R5,2*%
%TO.N,Net-(J5-Pin_1)*%
X69088000Y-117094000D03*
%TD*%
D10*
%TO.P,J6,1,Pin_1*%
%TO.N,Net-(J2-Pin_19)*%
X69850000Y-74168000D03*
D11*
%TO.P,J6,2,Pin_2*%
%TO.N,Earth*%
X72390000Y-74168000D03*
%TO.P,J6,3,Pin_3*%
%TO.N,Net-(J2-Pin_2)*%
X74930000Y-74168000D03*
%TO.P,J6,4,Pin_4*%
%TO.N,Net-(J2-Pin_1)*%
X77470000Y-74168000D03*
%TO.P,J6,5,Pin_5*%
%TO.N,unconnected-(J6-Pin_5-Pad5)*%
X80010000Y-74168000D03*
%TO.P,J6,6,Pin_6*%
%TO.N,unconnected-(J6-Pin_6-Pad6)*%
X82550000Y-74168000D03*
%TO.P,J6,7,Pin_7*%
%TO.N,unconnected-(J6-Pin_7-Pad7)*%
X85090000Y-74168000D03*
%TO.P,J6,8,Pin_8*%
%TO.N,unconnected-(J6-Pin_8-Pad8)*%
X87630000Y-74168000D03*
%TD*%
D12*
%TO.P,C3,1*%
%TO.N,Net-(U1-IN)*%
X51816000Y-111252000D03*
D13*
%TO.P,C3,2*%
%TO.N,Earth*%
X46816000Y-111252000D03*
%TD*%
D23*
%TO.N,VCC*%
X59182000Y-118142000D02*
X61246000Y-118142000D01*
X63490000Y-113210000D02*
X63490000Y-113528000D01*
X59544701Y-121666000D02*
X52832000Y-121666000D01*
X71110000Y-105908000D02*
X70792000Y-105908000D01*
X61246000Y-118142000D02*
X61246000Y-119964701D01*
X70792000Y-105908000D02*
X63490000Y-113210000D01*
X61246000Y-119964701D02*
X59544701Y-121666000D01*
D24*
%TO.N,Earth*%
X64008000Y-117094000D02*
X67056000Y-120142000D01*
X43434000Y-112014000D02*
X46054000Y-112014000D01*
X47752000Y-112188000D02*
X46816000Y-111252000D01*
X43434000Y-103418000D02*
X43140000Y-103124000D01*
X83566000Y-120904000D02*
X83566000Y-114554000D01*
X75438000Y-119126000D02*
X75438000Y-120904000D01*
X53232000Y-101200000D02*
X57766000Y-101200000D01*
X75438000Y-120904000D02*
X76834000Y-122300000D01*
X73914000Y-110236000D02*
X73916000Y-110236000D01*
X70922000Y-72700000D02*
X72390000Y-74168000D01*
X44265000Y-101999000D02*
X50183000Y-101999000D01*
X46054000Y-112014000D02*
X46816000Y-111252000D01*
X43140000Y-103124000D02*
X44265000Y-101999000D01*
X53716000Y-109810000D02*
X55158000Y-111252000D01*
X79710000Y-116030000D02*
X82090000Y-116030000D01*
X57182000Y-118142000D02*
X58230000Y-117094000D01*
X48258000Y-109810000D02*
X53716000Y-109810000D01*
X82090000Y-116030000D02*
X83566000Y-114554000D01*
X68510000Y-119450000D02*
X73984000Y-119450000D01*
X43434000Y-112014000D02*
X43434000Y-103418000D01*
X71110000Y-113528000D02*
X71110000Y-114798000D01*
X76834000Y-122300000D02*
X82170000Y-122300000D01*
X58230000Y-117094000D02*
X64008000Y-117094000D01*
X72390000Y-74168000D02*
X74612000Y-76390000D01*
X73984000Y-119450000D02*
X75438000Y-120904000D01*
X50183000Y-101999000D02*
X51308000Y-103124000D01*
X67056000Y-120142000D02*
X67056000Y-120904000D01*
X74612000Y-76390000D02*
X80962000Y-76390000D01*
X67056000Y-120904000D02*
X68510000Y-119450000D01*
X51308000Y-103124000D02*
X53232000Y-101200000D01*
X80962000Y-76390000D02*
X82550000Y-77978000D01*
X67518000Y-72700000D02*
X70922000Y-72700000D01*
X73914000Y-117602000D02*
X75438000Y-119126000D01*
X57766000Y-101200000D02*
X59690000Y-103124000D01*
X73916000Y-110236000D02*
X79710000Y-116030000D01*
X66050000Y-74168000D02*
X67518000Y-72700000D01*
X82170000Y-122300000D02*
X83566000Y-120904000D01*
X71110000Y-114798000D02*
X73914000Y-117602000D01*
X47752000Y-116586000D02*
X47752000Y-112188000D01*
X46816000Y-111252000D02*
X48258000Y-109810000D01*
D23*
%TO.N,VCCQ*%
X72898000Y-120904000D02*
X70502000Y-123300000D01*
X42110000Y-123300000D02*
X36740000Y-117930000D01*
X86116000Y-114554000D02*
X85974000Y-114554000D01*
X70502000Y-123300000D02*
X42110000Y-123300000D01*
X36740000Y-104524000D02*
X38140000Y-103124000D01*
X81778000Y-110358000D02*
X81778000Y-99558000D01*
X36740000Y-117930000D02*
X36740000Y-104524000D01*
X85974000Y-114554000D02*
X81778000Y-110358000D01*
D24*
%TO.N,Net-(C1-Pad1)*%
X40402000Y-119126000D02*
X47752000Y-119126000D01*
X38660000Y-117384000D02*
X40402000Y-119126000D01*
X38660000Y-117384000D02*
X38660000Y-112240000D01*
X38660000Y-112240000D02*
X38434000Y-112014000D01*
%TO.N,Net-(J2-Pin_19)*%
X80500000Y-97960000D02*
X80500000Y-101660000D01*
X72080000Y-104570000D02*
X63237009Y-104570000D01*
X68590000Y-79258000D02*
X85090000Y-95758000D01*
X85090000Y-95758000D02*
X82888000Y-97960000D01*
X73526000Y-103124000D02*
X73552000Y-103150000D01*
X63237009Y-104570000D02*
X62365000Y-105442009D01*
X68590000Y-75428000D02*
X68590000Y-79258000D01*
X50626000Y-107442000D02*
X46308000Y-103124000D01*
X61296991Y-107442000D02*
X50626000Y-107442000D01*
X73526000Y-103124000D02*
X72080000Y-104570000D01*
X62365000Y-105442009D02*
X62365000Y-106373991D01*
X69850000Y-74168000D02*
X68590000Y-75428000D01*
X73552000Y-103150000D02*
X79010000Y-103150000D01*
X80500000Y-101660000D02*
X79010000Y-103150000D01*
X62365000Y-106373991D02*
X61296991Y-107442000D01*
X82888000Y-97960000D02*
X80500000Y-97960000D01*
%TO.N,Net-(J5-Pin_1)*%
X75668000Y-106910000D02*
X75668000Y-109788000D01*
X80434000Y-114554000D02*
X81016000Y-114554000D01*
X75668000Y-109788000D02*
X80434000Y-114554000D01*
X73914000Y-105156000D02*
X75668000Y-106910000D01*
D23*
%TO.N,Net-(U1-IN)*%
X63970000Y-115320000D02*
X56638000Y-115320000D01*
X71110000Y-108448000D02*
X70842000Y-108448000D01*
X70842000Y-108448000D02*
X63970000Y-115320000D01*
D24*
X52832000Y-119126000D02*
X53166000Y-119460000D01*
D23*
X56638000Y-115320000D02*
X52832000Y-119126000D01*
D24*
%TO.N,Net-(J1-Pin_19)*%
X61048000Y-76630000D02*
X63510000Y-74168000D01*
X41910000Y-77978000D02*
X43258000Y-76630000D01*
X43258000Y-76630000D02*
X61048000Y-76630000D01*
%TO.N,Net-(J1-Pin_20)*%
X44548000Y-72800000D02*
X59602000Y-72800000D01*
X59602000Y-72800000D02*
X60970000Y-74168000D01*
X39370000Y-77978000D02*
X44548000Y-72800000D01*
%TO.N,Net-(J2-Pin_1)*%
X66050000Y-79260000D02*
X55868000Y-79260000D01*
X77470000Y-74168000D02*
X75402000Y-72100000D01*
X64800000Y-76156299D02*
X66050000Y-77406299D01*
X75402000Y-72100000D02*
X64800000Y-72100000D01*
X55868000Y-79260000D02*
X39370000Y-95758000D01*
X64800000Y-72100000D02*
X64800000Y-76156299D01*
X66050000Y-77406299D02*
X66050000Y-79260000D01*
%TO.N,Net-(U2-THR)*%
X59033000Y-110387000D02*
X59033000Y-110127000D01*
X47752000Y-121666000D02*
X52832000Y-116586000D01*
X52832000Y-116586000D02*
X52834000Y-116586000D01*
X52834000Y-116586000D02*
X59033000Y-110387000D01*
X47534000Y-121884000D02*
X47752000Y-121666000D01*
X60712000Y-108448000D02*
X63490000Y-108448000D01*
X45160000Y-121884000D02*
X47534000Y-121884000D01*
X59033000Y-110127000D02*
X60712000Y-108448000D01*
%TD*%
M02*
